  0
SECTION
  2
HEADER
  9
$ACADVER
  1
AC1027
  9
$ACADMAINTVER
 70
105
  9
$DWGCODEPAGE
  3
ANSI_1252
  9
$LASTSAVEDBY
  1
ezdxf
  9
$REQUIREDVERSIONS
160
0
  9
$INSBASE
 10
0.0
 20
0.0
 30
0.0
  9
$EXTMIN
 10
1e+20
 20
1e+20
 30
1e+20
  9
$EXTMAX
 10
-1e+20
 20
-1e+20
 30
-1e+20
  9
$LIMMIN
 10
0.0
 20
0.0
  9
$LIMMAX
 10
420.0
 20
297.0
  9
$ORTHOMODE
 70
0
  9
$REGENMODE
 70
1
  9
$FILLMODE
 70
1
  9
$QTEXTMODE
 70
0
  9
$MIRRTEXT
 70
1
  9
$LTSCALE
 40
1.0
  9
$ATTMODE
 70
1
  9
$TEXTSIZE
 40
2.5
  9
$TRACEWID
 40
1.0
  9
$TEXTSTYLE
  7
Standard
  9
$CLAYER
  8
0
  9
$CELTYPE
  6
ByLayer
  9
$CECOLOR
 62
256
  9
$CELTSCALE
 40
1.0
  9
$DISPSILH
 70
0
  9
$DIMSCALE
 40
1.0
  9
$DIMASZ
 40
2.5
  9
$DIMEXO
 40
0.625
  9
$DIMDLI
 40
3.75
  9
$DIMRND
 40
0.0
  9
$DIMDLE
 40
0.0
  9
$DIMEXE
 40
1.25
  9
$DIMTP
 40
0.0
  9
$DIMTM
 40
0.0
  9
$DIMTXT
 40
2.5
  9
$DIMCEN
 40
2.5
  9
$DIMTSZ
 40
0.0
  9
$DIMTOL
 70
0
  9
$DIMLIM
 70
0
  9
$DIMTIH
 70
0
  9
$DIMTOH
 70
0
  9
$DIMSE1
 70
0
  9
$DIMSE2
 70
0
  9
$DIMTAD
 70
1
  9
$DIMZIN
 70
8
  9
$DIMBLK
  1

  9
$DIMASO
 70
1
  9
$DIMSHO
 70
1
  9
$DIMPOST
  1

  9
$DIMAPOST
  1

  9
$DIMALT
 70
0
  9
$DIMALTD
 70
3
  9
$DIMALTF
 40
0.03937007874
  9
$DIMLFAC
 40
1.0
  9
$DIMTOFL
 70
1
  9
$DIMTVP
 40
0.0
  9
$DIMTIX
 70
0
  9
$DIMSOXD
 70
0
  9
$DIMSAH
 70
0
  9
$DIMBLK1
  1

  9
$DIMBLK2
  1

  9
$DIMSTYLE
  2
ISO-25
  9
$DIMCLRD
 70
0
  9
$DIMCLRE
 70
0
  9
$DIMCLRT
 70
0
  9
$DIMTFAC
 40
1.0
  9
$DIMGAP
 40
0.625
  9
$DIMJUST
 70
0
  9
$DIMSD1
 70
0
  9
$DIMSD2
 70
0
  9
$DIMTOLJ
 70
0
  9
$DIMTZIN
 70
8
  9
$DIMALTZ
 70
0
  9
$DIMALTTZ
 70
0
  9
$DIMUPT
 70
0
  9
$DIMDEC
 70
2
  9
$DIMTDEC
 70
2
  9
$DIMALTU
 70
2
  9
$DIMALTTD
 70
3
  9
$DIMTXSTY
  7
Standard
  9
$DIMAUNIT
 70
0
  9
$DIMADEC
 70
0
  9
$DIMALTRND
 40
0.0
  9
$DIMAZIN
 70
0
  9
$DIMDSEP
 70
44
  9
$DIMATFIT
 70
3
  9
$DIMFRAC
 70
0
  9
$DIMLDRBLK
  1

  9
$DIMLUNIT
 70
2
  9
$DIMLWD
 70
-2
  9
$DIMLWE
 70
-2
  9
$DIMTMOVE
 70
0
  9
$DIMFXL
 40
1.0
  9
$DIMFXLON
 70
0
  9
$DIMJOGANG
 40
0.785398163397
  9
$DIMTFILL
 70
0
  9
$DIMTFILLCLR
 70
0
  9
$DIMARCSYM
 70
0
  9
$DIMLTYPE
  6

  9
$DIMLTEX1
  6

  9
$DIMLTEX2
  6

  9
$DIMTXTDIRECTION
 70
0
  9
$LUNITS
 70
2
  9
$LUPREC
 70
4
  9
$SKETCHINC
 40
1.0
  9
$FILLETRAD
 40
10.0
  9
$AUNITS
 70
0
  9
$AUPREC
 70
2
  9
$MENU
  1
.
  9
$ELEVATION
 40
0.0
  9
$PELEVATION
 40
0.0
  9
$THICKNESS
 40
0.0
  9
$LIMCHECK
 70
0
  9
$CHAMFERA
 40
0.0
  9
$CHAMFERB
 40
0.0
  9
$CHAMFERC
 40
0.0
  9
$CHAMFERD
 40
0.0
  9
$SKPOLY
 70
0
  9
$TDCREATE
 40
2461260.625
  9
$TDUCREATE
 40
2458532.153996898
  9
$TDUPDATE
 40
2461260.625011574
  9
$TDUUPDATE
 40
2458532.1544311
  9
$TDINDWG
 40
0.0
  9
$TDUSRTIMER
 40
0.0
  9
$USRTIMER
 70
1
  9
$ANGBASE
 50
0.0
  9
$ANGDIR
 70
0
  9
$PDMODE
 70
0
  9
$PDSIZE
 40
0.0
  9
$PLINEWID
 40
0.0
  9
$SPLFRAME
 70
0
  9
$SPLINETYPE
 70
6
  9
$SPLINESEGS
 70
8
  9
$HANDSEED
  5
DC
  9
$SURFTAB1
 70
6
  9
$SURFTAB2
 70
6
  9
$SURFTYPE
 70
6
  9
$SURFU
 70
6
  9
$SURFV
 70
6
  9
$UCSBASE
  2

  9
$UCSNAME
  2

  9
$UCSORG
 10
0.0
 20
0.0
 30
0.0
  9
$UCSXDIR
 10
1.0
 20
0.0
 30
0.0
  9
$UCSYDIR
 10
0.0
 20
1.0
 30
0.0
  9
$UCSORTHOREF
  2

  9
$UCSORTHOVIEW
 70
0
  9
$UCSORGTOP
 10
0.0
 20
0.0
 30
0.0
  9
$UCSORGBOTTOM
 10
0.0
 20
0.0
 30
0.0
  9
$UCSORGLEFT
 10
0.0
 20
0.0
 30
0.0
  9
$UCSORGRIGHT
 10
0.0
 20
0.0
 30
0.0
  9
$UCSORGFRONT
 10
0.0
 20
0.0
 30
0.0
  9
$UCSORGBACK
 10
0.0
 20
0.0
 30
0.0
  9
$PUCSBASE
  2

  9
$PUCSNAME
  2

  9
$PUCSORG
 10
0.0
 20
0.0
 30
0.0
  9
$PUCSXDIR
 10
1.0
 20
0.0
 30
0.0
  9
$PUCSYDIR
 10
0.0
 20
1.0
 30
0.0
  9
$PUCSORTHOREF
  2

  9
$PUCSORTHOVIEW
 70
0
  9
$PUCSORGTOP
 10
0.0
 20
0.0
 30
0.0
  9
$PUCSORGBOTTOM
 10
0.0
 20
0.0
 30
0.0
  9
$PUCSORGLEFT
 10
0.0
 20
0.0
 30
0.0
  9
$PUCSORGRIGHT
 10
0.0
 20
0.0
 30
0.0
  9
$PUCSORGFRONT
 10
0.0
 20
0.0
 30
0.0
  9
$PUCSORGBACK
 10
0.0
 20
0.0
 30
0.0
  9
$USERI1
 70
0
  9
$USERI2
 70
0
  9
$USERI3
 70
0
  9
$USERI4
 70
0
  9
$USERI5
 70
0
  9
$USERR1
 40
0.0
  9
$USERR2
 40
0.0
  9
$USERR3
 40
0.0
  9
$USERR4
 40
0.0
  9
$USERR5
 40
0.0
  9
$WORLDVIEW
 70
1
  9
$SHADEDGE
 70
3
  9
$SHADEDIF
 70
70
  9
$TILEMODE
 70
1
  9
$MAXACTVP
 70
64
  9
$PINSBASE
 10
0.0
 20
0.0
 30
0.0
  9
$PLIMCHECK
 70
0
  9
$PEXTMIN
 10
1e+20
 20
1e+20
 30
1e+20
  9
$PEXTMAX
 10
-1e+20
 20
-1e+20
 30
-1e+20
  9
$PLIMMIN
 10
0.0
 20
0.0
  9
$PLIMMAX
 10
420.0
 20
297.0
  9
$UNITMODE
 70
0
  9
$VISRETAIN
 70
1
  9
$PLINEGEN
 70
0
  9
$PSLTSCALE
 70
1
  9
$TREEDEPTH
 70
3020
  9
$CMLSTYLE
  2
Standard
  9
$CMLJUST
 70
0
  9
$CMLSCALE
 40
20.0
  9
$PROXYGRAPHICS
 70
1
  9
$MEASUREMENT
 70
1
  9
$CELWEIGHT
370
-1
  9
$ENDCAPS
280
0
  9
$JOINSTYLE
280
0
  9
$LWDISPLAY
290
0
  9
$INSUNITS
 70
4
  9
$HYPERLINKBASE
  1

  9
$STYLESHEET
  1

  9
$XEDIT
290
1
  9
$CEPSNTYPE
380
0
  9
$PSTYLEMODE
290
1
  9
$FINGERPRINTGUID
  2
{9DC40E09-E49B-4F1B-802E-B816B0AAABBE}
  9
$VERSIONGUID
  2
{6D3F6AB7-2586-46E3-BAED-CE2869343478}
  9
$EXTNAMES
290
1
  9
$PSVPSCALE
 40
0.0
  9
$OLESTARTUP
290
0
  9
$SORTENTS
280
127
  9
$INDEXCTL
280
0
  9
$HIDETEXT
280
1
  9
$XCLIPFRAME
280
1
  9
$HALOGAP
280
0
  9
$OBSCOLOR
 70
257
  9
$OBSLTYPE
280
0
  9
$INTERSECTIONDISPLAY
280
0
  9
$INTERSECTIONCOLOR
 70
257
  9
$DIMASSOC
280
2
  9
$PROJECTNAME
  1

  9
$CAMERADISPLAY
290
0
  9
$LENSLENGTH
 40
50.0
  9
$CAMERAHEIGHT
 40
0.0
  9
$STEPSPERSEC
 40
24.0
  9
$STEPSIZE
 40
100.0
  9
$3DDWFPREC
 40
2.0
  9
$PSOLWIDTH
 40
0.005
  9
$PSOLHEIGHT
 40
0.08
  9
$LOFTANG1
 40
1.570796326795
  9
$LOFTANG2
 40
1.570796326795
  9
$LOFTMAG1
 40
0.0
  9
$LOFTMAG2
 40
0.0
  9
$LOFTPARAM
 70
7
  9
$LOFTNORMALS
280
1
  9
$LATITUDE
 40
37.795
  9
$LONGITUDE
 40
-122.394
  9
$NORTHDIRECTION
 40
0.0
  9
$TIMEZONE
 70
-8000
  9
$LIGHTGLYPHDISPLAY
280
1
  9
$TILEMODELIGHTSYNCH
280
1
  9
$CMATERIAL
347
20
  9
$SOLIDHIST
280
0
  9
$SHOWHIST
280
1
  9
$DWFFRAME
280
2
  9
$DGNFRAME
280
2
  9
$REALWORLDSCALE
290
1
  9
$INTERFERECOLOR
 62
256
  9
$CSHADOW
280
0
  9
$SHADOWPLANELOCATION
 40
0.0
  0
ENDSEC
  0
SECTION
  2
CLASSES
  0
CLASS
  1
ACDBDICTIONARYWDFLT
  2
AcDbDictionaryWithDefault
  3
ObjectDBX Classes
 90
0
 91
0
280
0
281
0
  0
CLASS
  1
SUN
  2
AcDbSun
  3
SCENEOE
 90
1153
 91
0
280
0
281
0
  0
CLASS
  1
VISUALSTYLE
  2
AcDbVisualStyle
  3
ObjectDBX Classes
 90
4095
 91
0
280
0
281
0
  0
CLASS
  1
MATERIAL
  2
AcDbMaterial
  3
ObjectDBX Classes
 90
1153
 91
0
280
0
281
0
  0
CLASS
  1
SCALE
  2
AcDbScale
  3
ObjectDBX Classes
 90
1153
 91
0
280
0
281
0
  0
CLASS
  1
TABLESTYLE
  2
AcDbTableStyle
  3
ObjectDBX Classes
 90
4095
 91
0
280
0
281
0
  0
CLASS
  1
MLEADERSTYLE
  2
AcDbMLeaderStyle
  3
ACDB_MLEADERSTYLE_CLASS
 90
4095
 91
0
280
0
281
0
  0
CLASS
  1
DICTIONARYVAR
  2
AcDbDictionaryVar
  3
ObjectDBX Classes
 90
0
 91
0
280
0
281
0
  0
CLASS
  1
CELLSTYLEMAP
  2
AcDbCellStyleMap
  3
ObjectDBX Classes
 90
1152
 91
0
280
0
281
0
  0
CLASS
  1
MENTALRAYRENDERSETTINGS
  2
AcDbMentalRayRenderSettings
  3
SCENEOE
 90
1024
 91
0
280
0
281
0
  0
CLASS
  1
ACDBDETAILVIEWSTYLE
  2
AcDbDetailViewStyle
  3
ObjectDBX Classes
 90
1025
 91
0
280
0
281
0
  0
CLASS
  1
ACDBSECTIONVIEWSTYLE
  2
AcDbSectionViewStyle
  3
ObjectDBX Classes
 90
1025
 91
0
280
0
281
0
  0
CLASS
  1
RASTERVARIABLES
  2
AcDbRasterVariables
  3
ISM
 90
0
 91
0
280
0
281
0
  0
CLASS
  1
ACDBPLACEHOLDER
  2
AcDbPlaceHolder
  3
ObjectDBX Classes
 90
0
 91
0
280
0
281
0
  0
CLASS
  1
LAYOUT
  2
AcDbLayout
  3
ObjectDBX Classes
 90
0
 91
0
280
0
281
0
  0
ENDSEC
  0
SECTION
  2
TABLES
  0
TABLE
  2
VPORT
  5
8
330
0
100
AcDbSymbolTable
 70
1
  0
VPORT
  5
23
330
8
100
AcDbSymbolTableRecord
100
AcDbViewportTableRecord
  2
*Active
 70
0
 10
0.0
 20
0.0
 11
1.0
 21
1.0
 12
0.0
 22
0.0
 13
0.0
 23
0.0
 14
0.5
 24
0.5
 15
0.5
 25
0.5
 16
0.0
 26
0.0
 36
1.0
 17
0.0
 27
0.0
 37
0.0
 40
1000.0
 41
1.34
 42
50.0
 43
0.0
 44
0.0
 50
0.0
 51
0.0
 71
0
 72
1000
 73
1
 74
3
 75
0
 76
0
 77
0
 78
0
281
0
 65
0
146
0.0
  0
ENDTAB
  0
TABLE
  2
LTYPE
  5
2
330
0
100
AcDbSymbolTable
 70
3
  0
LTYPE
  5
24
330
2
100
AcDbSymbolTableRecord
100
AcDbLinetypeTableRecord
  2
ByBlock
 70
0
  3

 72
65
 73
0
 40
0.0
  0
LTYPE
  5
25
330
2
100
AcDbSymbolTableRecord
100
AcDbLinetypeTableRecord
  2
ByLayer
 70
0
  3

 72
65
 73
0
 40
0.0
  0
LTYPE
  5
26
330
2
100
AcDbSymbolTableRecord
100
AcDbLinetypeTableRecord
  2
Continuous
 70
0
  3

 72
65
 73
0
 40
0.0
  0
ENDTAB
  0
TABLE
  2
LAYER
  5
1
330
0
100
AcDbSymbolTable
 70
3
  0
LAYER
  5
27
330
1
100
AcDbSymbolTableRecord
100
AcDbLayerTableRecord
  2
0
 70
0
 62
7
  6
Continuous
370
-3
390
13
347
21
  0
LAYER
  5
28
330
1
100
AcDbSymbolTableRecord
100
AcDbLayerTableRecord
  2
Defpoints
 70
0
 62
7
  6
Continuous
290
0
370
-3
390
13
347
21
  0
LAYER
  5
2F
330
1
100
AcDbSymbolTableRecord
100
AcDbLayerTableRecord
  2
LABEL
 70
0
 62
1
  6
Continuous
370
-3
390
13
347
21
  0
ENDTAB
  0
TABLE
  2
STYLE
  5
5
330
0
100
AcDbSymbolTable
 70
1
  0
STYLE
  5
29
330
5
100
AcDbSymbolTableRecord
100
AcDbTextStyleTableRecord
  2
Standard
 70
0
 40
0.0
 41
1.0
 50
0.0
 71
0
 42
2.5
  3
txt
  4

  0
ENDTAB
  0
TABLE
  2
VIEW
  5
7
330
0
100
AcDbSymbolTable
 70
0
  0
ENDTAB
  0
TABLE
  2
UCS
  5
6
330
0
100
AcDbSymbolTable
 70
0
  0
ENDTAB
  0
TABLE
  2
APPID
  5
3
330
0
100
AcDbSymbolTable
 70
3
  0
APPID
  5
2A
330
3
100
AcDbSymbolTableRecord
100
AcDbRegAppTableRecord
  2
ACAD
 70
0
  0
APPID
  5
D9
330
3
100
AcDbSymbolTableRecord
100
AcDbRegAppTableRecord
  2
HATCHBACKGROUNDCOLOR
 70
0
  0
APPID
  5
DA
330
3
100
AcDbSymbolTableRecord
100
AcDbRegAppTableRecord
  2
EZDXF
 70
0
  0
ENDTAB
  0
TABLE
  2
DIMSTYLE
  5
4
330
0
100
AcDbSymbolTable
 70
1
100
AcDbDimStyleTable
  0
DIMSTYLE
105
2B
330
4
100
AcDbSymbolTableRecord
100
AcDbDimStyleTableRecord
  2
Standard
 70
0
 40
1.0
 41
2.5
 42
0.625
 43
3.75
 44
1.25
 45
0.0
 46
0.0
 47
0.0
 48
0.0
 49
2.5
140
2.5
141
2.5
142
0.0
143
0.03937007874
144
1.0
145
0.0
146
1.0
147
0.625
148
0.0
 69
0
 70
0
 71
0
 72
0
 73
0
 74
0
 75
0
 76
0
 77
1
 78
8
 79
3
170
0
171
3
172
1
173
0
174
0
175
0
176
0
177
0
178
0
179
2
271
2
272
2
273
2
274
3
275
0
276
0
277
2
278
44
279
0
280
0
281
0
282
0
283
0
284
8
285
0
286
0
288
0
289
3
290
0
371
-2
372
-2
  0
ENDTAB
  0
TABLE
  2
BLOCK_RECORD
  5
9
330
0
100
AcDbSymbolTable
 70
2
  0
BLOCK_RECORD
  5
17
330
9
100
AcDbSymbolTableRecord
100
AcDbBlockTableRecord
  2
*Model_Space
340
1A
 70
0
280
1
281
0
  0
BLOCK_RECORD
  5
1B
330
9
100
AcDbSymbolTableRecord
100
AcDbBlockTableRecord
  2
*Paper_Space
340
1E
 70
0
280
1
281
0
  0
ENDTAB
  0
ENDSEC
  0
SECTION
  2
BLOCKS
  0
BLOCK
  5
18
330
17
100
AcDbEntity
  8
0
100
AcDbBlockBegin
  2
*Model_Space
 70
0
 10
0.0
 20
0.0
 30
0.0
  3
*Model_Space
  1

  0
ENDBLK
  5
19
330
17
100
AcDbEntity
  8
0
100
AcDbBlockEnd
  0
BLOCK
  5
1C
330
1B
100
AcDbEntity
  8
0
100
AcDbBlockBegin
  2
*Paper_Space
 70
0
 10
0.0
 20
0.0
 30
0.0
  3
*Paper_Space
  1

  0
ENDBLK
  5
1D
330
1B
100
AcDbEntity
  8
0
100
AcDbBlockEnd
  0
ENDSEC
  0
SECTION
  2
ENTITIES
  0
LWPOLYLINE
  5
30
330
17
100
AcDbEntity
  8
0
100
AcDbPolyline
 90
3
 70
1
 10
87.12899815655396
 20
201.79784502208514
 10
180.16383584843493
 20
342.4908632707446
 10
180.16383584843493
 20
116.28240697678189
  0
CIRCLE
  5
31
330
17
100
AcDbEntity
  8
0
100
AcDbCircle
 10
48.00084321636655
 20
197.01555786864566
 30
0.0
 40
11.0
  0
LWPOLYLINE
  5
32
330
17
100
AcDbEntity
  8
0
100
AcDbPolyline
 90
2
 70
1
 10
201.30562039221672
 20
56.143619503546546
 42
0.9972646038391172
 10
218.97757090024402
 20
39.904843577179236
 42
0.9972646038394608
  0
LWPOLYLINE
  5
33
330
17
100
AcDbEntity
  8
0
100
AcDbPolyline
 90
7
 70
1
 10
27.698999978086476
 20
174.92856710194746
 10
189.81751220576302
 20
25.913037733076777
 42
0.4145782399340892
 10
232.231603391642
 20
27.725697667349337
 42
0.188241269212927
 10
240.16383584843493
 20
48.048434580938675
 10
240.16383584843493
 20
442.24843458093864
 42
0.743511322855691
 10
185.14007291862913
 20
458.79567872710675
 10
22.977080286537216
 20
213.56280201477796
 42
0.3683575668124177
  0
CIRCLE
  5
34
330
17
100
AcDbEntity
  8
0
100
AcDbCircle
 10
210.16383584843493
 20
442.2484345809389
 30
0.0
 40
11.0
  0
TEXT
  5
35
330
17
100
AcDbEntity
  8
LABEL
100
AcDbText
 10
198.50811662685328
 20
387.07876910277287
 30
0.0
 40
10.734375
  1
Links h,i,g
 50
90.0
 72
1
 11
198.50811662685328
 21
387.07876910277287
 31
0.0
100
AcDbText
 73
2
  0
LWPOLYLINE
  5
36
330
17
100
AcDbEntity
  8
0
100
AcDbPolyline
 90
3
 70
1
 10
87.12899815655396
 20
662.0486377639594
 10
180.16383584843493
 20
802.7416560126189
 10
180.16383584843493
 20
576.5331997186562
  0
CIRCLE
  5
37
330
17
100
AcDbEntity
  8
0
100
AcDbCircle
 10
48.00084321636655
 20
657.26635061052
 30
0.0
 40
11.0
  0
LWPOLYLINE
  5
38
330
17
100
AcDbEntity
  8
0
100
AcDbPolyline
 90
2
 70
1
 10
201.30562039221672
 20
516.3944122454209
 42
0.9972646038391172
 10
218.97757090024402
 20
500.15563631905354
 42
0.9972646038394608
  0
LWPOLYLINE
  5
39
330
17
100
AcDbEntity
  8
0
100
AcDbPolyline
 90
7
 70
1
 10
27.698999978086476
 20
635.1793598438218
 10
189.81751220576302
 20
486.16383047495106
 42
0.4145782399340892
 10
232.231603391642
 20
487.97649040922363
 42
0.188241269212927
 10
240.16383584843493
 20
508.29922732281295
 10
240.16383584843493
 20
902.4992273228129
 42
0.743511322855691
 10
185.14007291862913
 20
919.046471468981
 10
22.977080286537216
 20
673.8135947566523
 42
0.3683575668124177
  0
CIRCLE
  5
3A
330
17
100
AcDbEntity
  8
0
100
AcDbCircle
 10
210.16383584843493
 20
902.4992273228132
 30
0.0
 40
11.0
  0
TEXT
  5
3B
330
17
100
AcDbEntity
  8
LABEL
100
AcDbText
 10
198.50811662685328
 20
847.3295618446472
 30
0.0
 40
10.734375
  1
Links h,i,g
 50
90.0
 72
1
 11
198.50811662685328
 21
847.3295618446472
 31
0.0
100
AcDbText
 73
2
  0
LWPOLYLINE
  5
3C
330
17
100
AcDbEntity
  8
0
100
AcDbPolyline
 90
3
 70
1
 10
201.79784502208514
 20
1091.5364231756298
 10
342.4908632707446
 20
998.5015854837488
 10
116.28240697678189
 20
998.5015854837488
  0
CIRCLE
  5
3D
330
17
100
AcDbEntity
  8
0
100
AcDbCircle
 10
197.01555786864566
 20
1130.6645781158172
 30
0.0
 40
11.0
  0
LWPOLYLINE
  5
3E
330
17
100
AcDbEntity
  8
0
100
AcDbPolyline
 90
2
 70
1
 10
56.143619503546546
 20
977.359800939967
 42
0.9972646038391172
 10
39.904843577179236
 20
959.6878504319398
 42
0.9972646038394608
  0
LWPOLYLINE
  5
3F
330
17
100
AcDbEntity
  8
0
100
AcDbPolyline
 90
7
 70
1
 10
174.92856710194744
 20
1150.9664213540973
 10
25.913037733076777
 20
988.8479091264207
 42
0.4145782399340892
 10
27.725697667349337
 20
946.4338179405418
 42
0.188241269212927
 10
48.048434580938675
 20
938.5015854837488
 10
442.24843458093864
 20
938.5015854837488
 42
0.743511322855691
 10
458.79567872710675
 20
993.5253484135546
 10
213.56280201477796
 20
1155.6883410456467
 42
0.3683575668124177
  0
CIRCLE
  5
40
330
17
100
AcDbEntity
  8
0
100
AcDbCircle
 10
442.2484345809389
 20
968.5015854837488
 30
0.0
 40
11.0
  0
TEXT
  5
41
330
17
100
AcDbEntity
  8
LABEL
100
AcDbText
 10
387.07876910277287
 20
980.1573047053305
 30
0.0
 40
10.734375
  1
Links h,i,g
 72
1
 11
387.07876910277287
 21
980.1573047053305
 31
0.0
100
AcDbText
 73
2
  0
LWPOLYLINE
  5
42
330
17
100
AcDbEntity
  8
0
100
AcDbPolyline
 90
3
 70
1
 10
315.2928340049889
 20
201.79784502208514
 10
408.32767169686986
 20
342.4908632707446
 10
408.32767169686986
 20
116.28240697678189
  0
CIRCLE
  5
43
330
17
100
AcDbEntity
  8
0
100
AcDbCircle
 10
276.1646790648015
 20
197.01555786864566
 30
0.0
 40
11.0
  0
LWPOLYLINE
  5
44
330
17
100
AcDbEntity
  8
0
100
AcDbPolyline
 90
2
 70
1
 10
429.46945624065165
 20
56.143619503546546
 42
0.9972646038391172
 10
447.14140674867895
 20
39.904843577179236
 42
0.9972646038394608
  0
LWPOLYLINE
  5
45
330
17
100
AcDbEntity
  8
0
100
AcDbPolyline
 90
7
 70
1
 10
255.8628358265214
 20
174.92856710194746
 10
417.98134805419795
 20
25.913037733076777
 42
0.4145782399340892
 10
460.39543924007694
 20
27.725697667349337
 42
0.188241269212927
 10
468.32767169686986
 20
48.048434580938675
 10
468.32767169686986
 20
442.24843458093864
 42
0.743511322855691
 10
413.30390876706406
 20
458.79567872710675
 10
251.14091613497214
 20
213.56280201477796
 42
0.3683575668124177
  0
CIRCLE
  5
46
330
17
100
AcDbEntity
  8
0
100
AcDbCircle
 10
438.32767169686986
 20
442.2484345809389
 30
0.0
 40
11.0
  0
TEXT
  5
47
330
17
100
AcDbEntity
  8
LABEL
100
AcDbText
 10
426.6719524752882
 20
387.07876910277287
 30
0.0
 40
10.734375
  1
Links h,i,g
 50
90.0
 72
1
 11
426.6719524752882
 21
387.07876910277287
 31
0.0
100
AcDbText
 73
2
  0
LWPOLYLINE
  5
48
330
17
100
AcDbEntity
  8
0
100
AcDbPolyline
 90
3
 70
1
 10
315.2928340049889
 20
662.0486377639594
 10
408.32767169686986
 20
802.7416560126189
 10
408.32767169686986
 20
576.5331997186562
  0
CIRCLE
  5
49
330
17
100
AcDbEntity
  8
0
100
AcDbCircle
 10
276.1646790648015
 20
657.26635061052
 30
0.0
 40
11.0
  0
LWPOLYLINE
  5
4A
330
17
100
AcDbEntity
  8
0
100
AcDbPolyline
 90
2
 70
1
 10
429.46945624065165
 20
516.3944122454209
 42
0.9972646038391172
 10
447.14140674867895
 20
500.15563631905354
 42
0.9972646038394608
  0
LWPOLYLINE
  5
4B
330
17
100
AcDbEntity
  8
0
100
AcDbPolyline
 90
7
 70
1
 10
255.8628358265214
 20
635.1793598438218
 10
417.98134805419795
 20
486.16383047495106
 42
0.4145782399340892
 10
460.39543924007694
 20
487.97649040922363
 42
0.188241269212927
 10
468.32767169686986
 20
508.29922732281295
 10
468.32767169686986
 20
902.4992273228129
 42
0.743511322855691
 10
413.30390876706406
 20
919.046471468981
 10
251.14091613497214
 20
673.8135947566523
 42
0.3683575668124177
  0
CIRCLE
  5
4C
330
17
100
AcDbEntity
  8
0
100
AcDbCircle
 10
438.32767169686986
 20
902.4992273228132
 30
0.0
 40
11.0
  0
TEXT
  5
4D
330
17
100
AcDbEntity
  8
LABEL
100
AcDbText
 10
426.6719524752882
 20
847.3295618446472
 30
0.0
 40
10.734375
  1
Links h,i,g
 50
90.0
 72
1
 11
426.6719524752882
 21
847.3295618446472
 31
0.0
100
AcDbText
 73
2
  0
LWPOLYLINE
  5
4E
330
17
100
AcDbEntity
  8
0
100
AcDbPolyline
 90
3
 70
1
 10
543.4566698534238
 20
201.79784502208514
 10
636.4915075453048
 20
342.4908632707446
 10
636.4915075453048
 20
116.28240697678189
  0
CIRCLE
  5
4F
330
17
100
AcDbEntity
  8
0
100
AcDbCircle
 10
504.3285149132364
 20
197.01555786864566
 30
0.0
 40
11.0
  0
LWPOLYLINE
  5
50
330
17
100
AcDbEntity
  8
0
100
AcDbPolyline
 90
2
 70
1
 10
657.6332920890866
 20
56.143619503546546
 42
0.9972646038391172
 10
675.3052425971139
 20
39.904843577179236
 42
0.9972646038394608
  0
LWPOLYLINE
  5
51
330
17
100
AcDbEntity
  8
0
100
AcDbPolyline
 90
7
 70
1
 10
484.02667167495633
 20
174.92856710194746
 10
646.1451839026329
 20
25.913037733076777
 42
0.4145782399340892
 10
688.5592750885119
 20
27.725697667349337
 42
0.188241269212927
 10
696.4915075453048
 20
48.048434580938675
 10
696.4915075453048
 20
442.24843458093864
 42
0.743511322855691
 10
641.467744615499
 20
458.79567872710675
 10
479.3047519834071
 20
213.56280201477796
 42
0.3683575668124177
  0
CIRCLE
  5
52
330
17
100
AcDbEntity
  8
0
100
AcDbCircle
 10
666.4915075453048
 20
442.2484345809389
 30
0.0
 40
11.0
  0
TEXT
  5
53
330
17
100
AcDbEntity
  8
LABEL
100
AcDbText
 10
654.8357883237231
 20
387.07876910277287
 30
0.0
 40
10.734375
  1
Links h,i,g
 50
90.0
 72
1
 11
654.8357883237231
 21
387.07876910277287
 31
0.0
100
AcDbText
 73
2
  0
LWPOLYLINE
  5
54
330
17
100
AcDbEntity
  8
0
100
AcDbPolyline
 90
3
 70
1
 10
543.4566698534238
 20
662.0486377639594
 10
636.4915075453048
 20
802.7416560126189
 10
636.4915075453048
 20
576.5331997186562
  0
CIRCLE
  5
55
330
17
100
AcDbEntity
  8
0
100
AcDbCircle
 10
504.3285149132364
 20
657.26635061052
 30
0.0
 40
11.0
  0
LWPOLYLINE
  5
56
330
17
100
AcDbEntity
  8
0
100
AcDbPolyline
 90
2
 70
1
 10
657.6332920890866
 20
516.3944122454209
 42
0.9972646038391172
 10
675.3052425971139
 20
500.15563631905354
 42
0.9972646038394608
  0
LWPOLYLINE
  5
57
330
17
100
AcDbEntity
  8
0
100
AcDbPolyline
 90
7
 70
1
 10
484.02667167495633
 20
635.1793598438218
 10
646.1451839026329
 20
486.16383047495106
 42
0.4145782399340892
 10
688.5592750885119
 20
487.97649040922363
 42
0.188241269212927
 10
696.4915075453048
 20
508.29922732281295
 10
696.4915075453048
 20
902.4992273228129
 42
0.743511322855691
 10
641.467744615499
 20
919.046471468981
 10
479.3047519834071
 20
673.8135947566523
 42
0.3683575668124177
  0
CIRCLE
  5
58
330
17
100
AcDbEntity
  8
0
100
AcDbCircle
 10
666.4915075453048
 20
902.4992273228132
 30
0.0
 40
11.0
  0
TEXT
  5
59
330
17
100
AcDbEntity
  8
LABEL
100
AcDbText
 10
654.8357883237231
 20
847.3295618446472
 30
0.0
 40
10.734375
  1
Links h,i,g
 50
90.0
 72
1
 11
654.8357883237231
 21
847.3295618446472
 31
0.0
100
AcDbText
 73
2
  0
LWPOLYLINE
  5
5A
330
17
100
AcDbEntity
  8
0
100
AcDbPolyline
 90
3
 70
1
 10
662.0486377639595
 20
1091.5364231756298
 10
802.7416560126189
 20
998.5015854837488
 10
576.5331997186562
 20
998.5015854837488
  0
CIRCLE
  5
5B
330
17
100
AcDbEntity
  8
0
100
AcDbCircle
 10
657.26635061052
 20
1130.6645781158172
 30
0.0
 40
11.0
  0
LWPOLYLINE
  5
5C
330
17
100
AcDbEntity
  8
0
100
AcDbPolyline
 90
2
 70
1
 10
516.3944122454209
 20
977.359800939967
 42
0.9972646038391172
 10
500.1556363190536
 20
959.6878504319398
 42
0.9972646038394608
  0
LWPOLYLINE
  5
5D
330
17
100
AcDbEntity
  8
0
100
AcDbPolyline
 90
7
 70
1
 10
635.1793598438218
 20
1150.9664213540973
 10
486.16383047495117
 20
988.8479091264207
 42
0.4145782399340892
 10
487.9764904092237
 20
946.4338179405418
 42
0.188241269212927
 10
508.29922732281307
 20
938.5015854837488
 10
902.499227322813
 20
938.5015854837488
 42
0.743511322855691
 10
919.046471468981
 20
993.5253484135546
 10
673.8135947566523
 20
1155.6883410456467
 42
0.3683575668124177
  0
CIRCLE
  5
5E
330
17
100
AcDbEntity
  8
0
100
AcDbCircle
 10
902.4992273228133
 20
968.5015854837488
 30
0.0
 40
11.0
  0
TEXT
  5
5F
330
17
100
AcDbEntity
  8
LABEL
100
AcDbText
 10
847.3295618446473
 20
980.1573047053305
 30
0.0
 40
10.734375
  1
Links h,i,g
 72
1
 11
847.3295618446473
 21
980.1573047053305
 31
0.0
100
AcDbText
 73
2
  0
LWPOLYLINE
  5
60
330
17
100
AcDbEntity
  8
0
100
AcDbPolyline
 90
3
 70
1
 10
771.6205057018587
 20
201.79784502208514
 10
864.6553433937397
 20
342.4908632707446
 10
864.6553433937397
 20
116.28240697678189
  0
CIRCLE
  5
61
330
17
100
AcDbEntity
  8
0
100
AcDbCircle
 10
732.4923507616713
 20
197.01555786864566
 30
0.0
 40
11.0
  0
LWPOLYLINE
  5
62
330
17
100
AcDbEntity
  8
0
100
AcDbPolyline
 90
2
 70
1
 10
885.7971279375215
 20
56.143619503546546
 42
0.9972646038391172
 10
903.4690784455488
 20
39.904843577179236
 42
0.9972646038394608
  0
LWPOLYLINE
  5
63
330
17
100
AcDbEntity
  8
0
100
AcDbPolyline
 90
7
 70
1
 10
712.1905075233913
 20
174.92856710194746
 10
874.3090197510678
 20
25.913037733076777
 42
0.4145782399340892
 10
916.7231109369468
 20
27.725697667349337
 42
0.188241269212927
 10
924.6553433937397
 20
48.048434580938675
 10
924.6553433937397
 20
442.24843458093864
 42
0.743511322855691
 10
869.6315804639339
 20
458.79567872710675
 10
707.468587831842
 20
213.56280201477796
 42
0.3683575668124177
  0
CIRCLE
  5
64
330
17
100
AcDbEntity
  8
0
100
AcDbCircle
 10
894.6553433937397
 20
442.2484345809389
 30
0.0
 40
11.0
  0
TEXT
  5
65
330
17
100
AcDbEntity
  8
LABEL
100
AcDbText
 10
882.9996241721581
 20
387.07876910277287
 30
0.0
 40
10.734375
  1
Links h,i,g
 50
90.0
 72
1
 11
882.9996241721581
 21
387.07876910277287
 31
0.0
100
AcDbText
 73
2
  0
LWPOLYLINE
  5
66
330
17
100
AcDbEntity
  8
0
100
AcDbPolyline
 90
3
 70
1
 10
771.6205057018587
 20
662.0486377639594
 10
864.6553433937397
 20
802.7416560126189
 10
864.6553433937397
 20
576.5331997186562
  0
CIRCLE
  5
67
330
17
100
AcDbEntity
  8
0
100
AcDbCircle
 10
732.4923507616713
 20
657.26635061052
 30
0.0
 40
11.0
  0
LWPOLYLINE
  5
68
330
17
100
AcDbEntity
  8
0
100
AcDbPolyline
 90
2
 70
1
 10
885.7971279375215
 20
516.3944122454209
 42
0.9972646038391172
 10
903.4690784455488
 20
500.15563631905354
 42
0.9972646038394608
  0
LWPOLYLINE
  5
69
330
17
100
AcDbEntity
  8
0
100
AcDbPolyline
 90
7
 70
1
 10
712.1905075233913
 20
635.1793598438218
 10
874.3090197510678
 20
486.16383047495106
 42
0.4145782399340892
 10
916.7231109369468
 20
487.97649040922363
 42
0.188241269212927
 10
924.6553433937397
 20
508.29922732281295
 10
924.6553433937397
 20
902.4992273228129
 42
0.743511322855691
 10
869.6315804639339
 20
919.046471468981
 10
707.468587831842
 20
673.8135947566523
 42
0.3683575668124177
  0
CIRCLE
  5
6A
330
17
100
AcDbEntity
  8
0
100
AcDbCircle
 10
894.6553433937397
 20
902.4992273228132
 30
0.0
 40
11.0
  0
TEXT
  5
6B
330
17
100
AcDbEntity
  8
LABEL
100
AcDbText
 10
882.9996241721581
 20
847.3295618446472
 30
0.0
 40
10.734375
  1
Links h,i,g
 50
90.0
 72
1
 11
882.9996241721581
 21
847.3295618446472
 31
0.0
100
AcDbText
 73
2
  0
LWPOLYLINE
  5
6C
330
17
100
AcDbEntity
  8
0
100
AcDbPolyline
 90
3
 70
1
 10
999.7843415502937
 20
201.79784502208514
 10
1092.8191792421746
 20
342.4908632707446
 10
1092.8191792421746
 20
116.28240697678189
  0
CIRCLE
  5
6D
330
17
100
AcDbEntity
  8
0
100
AcDbCircle
 10
960.6561866101063
 20
197.01555786864566
 30
0.0
 40
11.0
  0
LWPOLYLINE
  5
6E
330
17
100
AcDbEntity
  8
0
100
AcDbPolyline
 90
2
 70
1
 10
1113.9609637859564
 20
56.143619503546546
 42
0.9972646038391172
 10
1131.6329142939837
 20
39.904843577179236
 42
0.9972646038394608
  0
LWPOLYLINE
  5
6F
330
17
100
AcDbEntity
  8
0
100
AcDbPolyline
 90
7
 70
1
 10
940.3543433718262
 20
174.92856710194746
 10
1102.4728555995027
 20
25.913037733076777
 42
0.4145782399340892
 10
1144.8869467853817
 20
27.725697667349337
 42
0.188241269212927
 10
1152.8191792421746
 20
48.048434580938675
 10
1152.8191792421746
 20
442.24843458093864
 42
0.743511322855691
 10
1097.7954163123688
 20
458.79567872710675
 10
935.6324236802769
 20
213.56280201477796
 42
0.3683575668124177
  0
CIRCLE
  5
70
330
17
100
AcDbEntity
  8
0
100
AcDbCircle
 10
1122.8191792421746
 20
442.2484345809389
 30
0.0
 40
11.0
  0
TEXT
  5
71
330
17
100
AcDbEntity
  8
LABEL
100
AcDbText
 10
1111.163460020593
 20
387.07876910277287
 30
0.0
 40
10.734375
  1
Links h,i,g
 50
90.0
 72
1
 11
1111.163460020593
 21
387.07876910277287
 31
0.0
100
AcDbText
 73
2
  0
LWPOLYLINE
  5
72
330
17
100
AcDbEntity
  8
0
100
AcDbPolyline
 90
3
 70
1
 10
999.7843415502937
 20
662.0486377639594
 10
1092.8191792421746
 20
802.7416560126189
 10
1092.8191792421746
 20
576.5331997186562
  0
CIRCLE
  5
73
330
17
100
AcDbEntity
  8
0
100
AcDbCircle
 10
960.6561866101063
 20
657.26635061052
 30
0.0
 40
11.0
  0
LWPOLYLINE
  5
74
330
17
100
AcDbEntity
  8
0
100
AcDbPolyline
 90
2
 70
1
 10
1113.9609637859564
 20
516.3944122454209
 42
0.9972646038391172
 10
1131.6329142939837
 20
500.15563631905354
 42
0.9972646038394608
  0
LWPOLYLINE
  5
75
330
17
100
AcDbEntity
  8
0
100
AcDbPolyline
 90
7
 70
1
 10
940.3543433718262
 20
635.1793598438218
 10
1102.4728555995027
 20
486.16383047495106
 42
0.4145782399340892
 10
1144.8869467853817
 20
487.97649040922363
 42
0.188241269212927
 10
1152.8191792421746
 20
508.29922732281295
 10
1152.8191792421746
 20
902.4992273228129
 42
0.743511322855691
 10
1097.7954163123688
 20
919.046471468981
 10
935.6324236802769
 20
673.8135947566523
 42
0.3683575668124177
  0
CIRCLE
  5
76
330
17
100
AcDbEntity
  8
0
100
AcDbCircle
 10
1122.8191792421746
 20
902.4992273228132
 30
0.0
 40
11.0
  0
TEXT
  5
77
330
17
100
AcDbEntity
  8
LABEL
100
AcDbText
 10
1111.163460020593
 20
847.3295618446472
 30
0.0
 40
10.734375
  1
Links h,i,g
 50
90.0
 72
1
 11
1111.163460020593
 21
847.3295618446472
 31
0.0
100
AcDbText
 73
2
  0
LWPOLYLINE
  5
78
330
17
100
AcDbEntity
  8
0
100
AcDbPolyline
 90
3
 70
1
 10
1122.2994305058337
 20
1091.5364231756298
 10
1262.9924487544931
 20
998.5015854837488
 10
1036.7839924605305
 20
998.5015854837488
  0
CIRCLE
  5
79
330
17
100
AcDbEntity
  8
0
100
AcDbCircle
 10
1117.5171433523942
 20
1130.6645781158172
 30
0.0
 40
11.0
  0
LWPOLYLINE
  5
7A
330
17
100
AcDbEntity
  8
0
100
AcDbPolyline
 90
2
 70
1
 10
976.6452049872951
 20
977.359800939967
 42
0.9972646038391172
 10
960.4064290609278
 20
959.6878504319398
 42
0.9972646038394608
  0
LWPOLYLINE
  5
7B
330
17
100
AcDbEntity
  8
0
100
AcDbPolyline
 90
7
 70
1
 10
1095.430152585696
 20
1150.9664213540973
 10
946.4146232168254
 20
988.8479091264207
 42
0.4145782399340892
 10
948.2272831510979
 20
946.4338179405418
 42
0.188241269212927
 10
968.5500200646873
 20
938.5015854837488
 10
1362.7500200646873
 20
938.5015854837488
 42
0.743511322855691
 10
1379.2972642108552
 20
993.5253484135546
 10
1134.0643874985265
 20
1155.6883410456467
 42
0.3683575668124177
  0
CIRCLE
  5
7C
330
17
100
AcDbEntity
  8
0
100
AcDbCircle
 10
1362.7500200646875
 20
968.5015854837488
 30
0.0
 40
11.0
  0
TEXT
  5
7D
330
17
100
AcDbEntity
  8
LABEL
100
AcDbText
 10
1307.5803545865215
 20
980.1573047053305
 30
0.0
 40
10.734375
  1
Links h,i,g
 72
1
 11
1307.5803545865215
 21
980.1573047053305
 31
0.0
100
AcDbText
 73
2
  0
LWPOLYLINE
  5
7E
330
17
100
AcDbEntity
  8
0
100
AcDbPolyline
 90
3
 70
1
 10
1227.9481773987286
 20
201.79784502208514
 10
1320.9830150906096
 20
342.4908632707446
 10
1320.9830150906096
 20
116.28240697678189
  0
CIRCLE
  5
7F
330
17
100
AcDbEntity
  8
0
100
AcDbCircle
 10
1188.8200224585412
 20
197.01555786864566
 30
0.0
 40
11.0
  0
LWPOLYLINE
  5
80
330
17
100
AcDbEntity
  8
0
100
AcDbPolyline
 90
2
 70
1
 10
1342.1247996343914
 20
56.143619503546546
 42
0.9972646038391172
 10
1359.7967501424187
 20
39.904843577179236
 42
0.9972646038394608
  0
LWPOLYLINE
  5
81
330
17
100
AcDbEntity
  8
0
100
AcDbPolyline
 90
7
 70
1
 10
1168.5181792202611
 20
174.92856710194746
 10
1330.6366914479377
 20
25.913037733076777
 42
0.4145782399340892
 10
1373.0507826338167
 20
27.725697667349337
 42
0.188241269212927
 10
1380.9830150906096
 20
48.048434580938675
 10
1380.9830150906096
 20
442.24843458093864
 42
0.743511322855691
 10
1325.9592521608038
 20
458.79567872710675
 10
1163.7962595287117
 20
213.56280201477796
 42
0.3683575668124177
  0
CIRCLE
  5
82
330
17
100
AcDbEntity
  8
0
100
AcDbCircle
 10
1350.9830150906096
 20
442.2484345809389
 30
0.0
 40
11.0
  0
TEXT
  5
83
330
17
100
AcDbEntity
  8
LABEL
100
AcDbText
 10
1339.327295869028
 20
387.07876910277287
 30
0.0
 40
10.734375
  1
Links h,i,g
 50
90.0
 72
1
 11
1339.327295869028
 21
387.07876910277287
 31
0.0
100
AcDbText
 73
2
  0
LWPOLYLINE
  5
84
330
17
100
AcDbEntity
  8
0
100
AcDbPolyline
 90
3
 70
1
 10
1227.9481773987286
 20
662.0486377639594
 10
1320.9830150906096
 20
802.7416560126189
 10
1320.9830150906096
 20
576.5331997186562
  0
CIRCLE
  5
85
330
17
100
AcDbEntity
  8
0
100
AcDbCircle
 10
1188.8200224585412
 20
657.26635061052
 30
0.0
 40
11.0
  0
LWPOLYLINE
  5
86
330
17
100
AcDbEntity
  8
0
100
AcDbPolyline
 90
2
 70
1
 10
1342.1247996343914
 20
516.3944122454209
 42
0.9972646038391172
 10
1359.7967501424187
 20
500.15563631905354
 42
0.9972646038394608
  0
LWPOLYLINE
  5
87
330
17
100
AcDbEntity
  8
0
100
AcDbPolyline
 90
7
 70
1
 10
1168.5181792202611
 20
635.1793598438218
 10
1330.6366914479377
 20
486.16383047495106
 42
0.4145782399340892
 10
1373.0507826338167
 20
487.97649040922363
 42
0.188241269212927
 10
1380.9830150906096
 20
508.29922732281295
 10
1380.9830150906096
 20
902.4992273228129
 42
0.743511322855691
 10
1325.9592521608038
 20
919.046471468981
 10
1163.7962595287117
 20
673.8135947566523
 42
0.3683575668124177
  0
CIRCLE
  5
88
330
17
100
AcDbEntity
  8
0
100
AcDbCircle
 10
1350.9830150906096
 20
902.4992273228132
 30
0.0
 40
11.0
  0
TEXT
  5
89
330
17
100
AcDbEntity
  8
LABEL
100
AcDbText
 10
1339.327295869028
 20
847.3295618446472
 30
0.0
 40
10.734375
  1
Links h,i,g
 50
90.0
 72
1
 11
1339.327295869028
 21
847.3295618446472
 31
0.0
100
AcDbText
 73
2
  0
LWPOLYLINE
  5
8A
330
17
100
AcDbEntity
  8
0
100
AcDbPolyline
 90
3
 70
1
 10
1456.1120132471635
 20
201.79784502208514
 10
1549.1468509390445
 20
342.4908632707446
 10
1549.1468509390445
 20
116.28240697678189
  0
CIRCLE
  5
8B
330
17
100
AcDbEntity
  8
0
100
AcDbCircle
 10
1416.9838583069761
 20
197.01555786864566
 30
0.0
 40
11.0
  0
LWPOLYLINE
  5
8C
330
17
100
AcDbEntity
  8
0
100
AcDbPolyline
 90
2
 70
1
 10
1570.2886354828263
 20
56.143619503546546
 42
0.9972646038391172
 10
1587.9605859908536
 20
39.904843577179236
 42
0.9972646038394608
  0
LWPOLYLINE
  5
8D
330
17
100
AcDbEntity
  8
0
100
AcDbPolyline
 90
7
 70
1
 10
1396.682015068696
 20
174.92856710194746
 10
1558.8005272963726
 20
25.913037733076777
 42
0.4145782399340892
 10
1601.2146184822516
 20
27.725697667349337
 42
0.188241269212927
 10
1609.1468509390445
 20
48.048434580938675
 10
1609.1468509390445
 20
442.24843458093864
 42
0.743511322855691
 10
1554.1230880092387
 20
458.79567872710675
 10
1391.960095377147
 20
213.56280201477796
 42
0.3683575668124177
  0
CIRCLE
  5
8E
330
17
100
AcDbEntity
  8
0
100
AcDbCircle
 10
1579.1468509390445
 20
442.2484345809389
 30
0.0
 40
11.0
  0
TEXT
  5
8F
330
17
100
AcDbEntity
  8
LABEL
100
AcDbText
 10
1567.4911317174628
 20
387.07876910277287
 30
0.0
 40
10.734375
  1
Links h,i,g
 50
90.0
 72
1
 11
1567.4911317174628
 21
387.07876910277287
 31
0.0
100
AcDbText
 73
2
  0
LWPOLYLINE
  5
90
330
17
100
AcDbEntity
  8
0
100
AcDbPolyline
 90
3
 70
1
 10
1456.1120132471635
 20
662.0486377639594
 10
1549.1468509390445
 20
802.7416560126189
 10
1549.1468509390445
 20
576.5331997186562
  0
CIRCLE
  5
91
330
17
100
AcDbEntity
  8
0
100
AcDbCircle
 10
1416.9838583069761
 20
657.26635061052
 30
0.0
 40
11.0
  0
LWPOLYLINE
  5
92
330
17
100
AcDbEntity
  8
0
100
AcDbPolyline
 90
2
 70
1
 10
1570.2886354828263
 20
516.3944122454209
 42
0.9972646038391172
 10
1587.9605859908536
 20
500.15563631905354
 42
0.9972646038394608
  0
LWPOLYLINE
  5
93
330
17
100
AcDbEntity
  8
0
100
AcDbPolyline
 90
7
 70
1
 10
1396.682015068696
 20
635.1793598438218
 10
1558.8005272963726
 20
486.16383047495106
 42
0.4145782399340892
 10
1601.2146184822516
 20
487.97649040922363
 42
0.188241269212927
 10
1609.1468509390445
 20
508.29922732281295
 10
1609.1468509390445
 20
902.4992273228129
 42
0.743511322855691
 10
1554.1230880092387
 20
919.046471468981
 10
1391.960095377147
 20
673.8135947566523
 42
0.3683575668124177
  0
CIRCLE
  5
94
330
17
100
AcDbEntity
  8
0
100
AcDbCircle
 10
1579.1468509390445
 20
902.4992273228132
 30
0.0
 40
11.0
  0
TEXT
  5
95
330
17
100
AcDbEntity
  8
LABEL
100
AcDbText
 10
1567.4911317174628
 20
847.3295618446472
 30
0.0
 40
10.734375
  1
Links h,i,g
 50
90.0
 72
1
 11
1567.4911317174628
 21
847.3295618446472
 31
0.0
100
AcDbText
 73
2
  0
LWPOLYLINE
  5
96
330
17
100
AcDbEntity
  8
0
100
AcDbPolyline
 90
3
 70
1
 10
1582.5502232477081
 20
1091.5364231756298
 10
1723.2432414963675
 20
998.5015854837488
 10
1497.034785202405
 20
998.5015854837488
  0
CIRCLE
  5
97
330
17
100
AcDbEntity
  8
0
100
AcDbCircle
 10
1577.7679360942686
 20
1130.6645781158172
 30
0.0
 40
11.0
  0
LWPOLYLINE
  5
98
330
17
100
AcDbEntity
  8
0
100
AcDbPolyline
 90
2
 70
1
 10
1436.8959977291695
 20
977.359800939967
 42
0.9972646038391172
 10
1420.6572218028023
 20
959.6878504319398
 42
0.9972646038394608
  0
LWPOLYLINE
  5
99
330
17
100
AcDbEntity
  8
0
100
AcDbPolyline
 90
7
 70
1
 10
1555.6809453275705
 20
1150.9664213540973
 10
1406.6654159586997
 20
988.8479091264207
 42
0.4145782399340892
 10
1408.4780758929724
 20
946.4338179405418
 42
0.188241269212927
 10
1428.8008128065617
 20
938.5015854837488
 10
1823.0008128065615
 20
938.5015854837488
 42
0.743511322855691
 10
1839.5480569527297
 20
993.5253484135546
 10
1594.3151802404009
 20
1155.6883410456467
 42
0.3683575668124177
  0
CIRCLE
  5
9A
330
17
100
AcDbEntity
  8
0
100
AcDbCircle
 10
1823.000812806562
 20
968.5015854837488
 30
0.0
 40
11.0
  0
TEXT
  5
9B
330
17
100
AcDbEntity
  8
LABEL
100
AcDbText
 10
1767.831147328396
 20
980.1573047053305
 30
0.0
 40
10.734375
  1
Links h,i,g
 72
1
 11
1767.831147328396
 21
980.1573047053305
 31
0.0
100
AcDbText
 73
2
  0
LWPOLYLINE
  5
9C
330
17
100
AcDbEntity
  8
0
100
AcDbPolyline
 90
3
 70
1
 10
2042.8010159895823
 20
171.03483769188097
 10
2183.494034238242
 20
78.0
 10
1957.285577944279
 20
78.0
  0
CIRCLE
  5
9D
330
17
100
AcDbEntity
  8
0
100
AcDbCircle
 10
2038.0187288361428
 20
210.16299263206838
 30
0.0
 40
11.0
  0
LWPOLYLINE
  5
9E
330
17
100
AcDbEntity
  8
0
100
AcDbPolyline
 90
2
 70
1
 10
1897.1467904710437
 20
56.858215456218204
 42
0.9972646038391172
 10
1880.9080145446765
 20
39.18626494819091
 42
0.9972646038394608
  0
LWPOLYLINE
  5
9F
330
17
100
AcDbEntity
  8
0
100
AcDbPolyline
 90
7
 70
1
 10
2015.9317380694447
 20
230.46483587034845
 10
1866.9162087005739
 20
68.3463236426719
 42
0.4145782399340892
 10
1868.7288686348465
 20
25.932232456792917
 42
0.188241269212927
 10
1889.0516055484359
 20
18.0
 10
2283.2516055484357
 20
18.0
 42
0.743511322855691
 10
2299.798849694604
 20
73.0237629298058
 10
2054.565972982275
 20
235.1867555618977
 42
0.3683575668124177
  0
CIRCLE
  5
A0
330
17
100
AcDbEntity
  8
0
100
AcDbCircle
 10
2283.251605548436
 20
48.0
 30
0.0
 40
11.0
  0
TEXT
  5
A1
330
17
100
AcDbEntity
  8
LABEL
100
AcDbText
 10
2228.08194007027
 20
59.65571922158165
 30
0.0
 40
10.734375
  1
Links h,i,g
 72
1
 11
2228.08194007027
 21
59.65571922158165
 31
0.0
100
AcDbText
 73
2
  0
LWPOLYLINE
  5
A2
330
17
100
AcDbEntity
  8
0
100
AcDbPolyline
 90
3
 70
1
 10
1684.2758490955985
 20
201.79784502208514
 10
1777.3106867874794
 20
342.4908632707446
 10
1777.3106867874794
 20
116.28240697678189
  0
CIRCLE
  5
A3
330
17
100
AcDbEntity
  8
0
100
AcDbCircle
 10
1645.147694155411
 20
197.01555786864566
 30
0.0
 40
11.0
  0
LWPOLYLINE
  5
A4
330
17
100
AcDbEntity
  8
0
100
AcDbPolyline
 90
2
 70
1
 10
1798.4524713312612
 20
56.143619503546546
 42
0.9972646038391172
 10
1816.1244218392885
 20
39.904843577179236
 42
0.9972646038394608
  0
LWPOLYLINE
  5
A5
330
17
100
AcDbEntity
  8
0
100
AcDbPolyline
 90
7
 70
1
 10
1624.845850917131
 20
174.92856710194746
 10
1786.9643631448075
 20
25.913037733076777
 42
0.4145782399340892
 10
1829.3784543306865
 20
27.725697667349337
 42
0.188241269212927
 10
1837.3106867874794
 20
48.048434580938675
 10
1837.3106867874794
 20
442.24843458093864
 42
0.743511322855691
 10
1782.2869238576736
 20
458.79567872710675
 10
1620.1239312255816
 20
213.56280201477796
 42
0.3683575668124177
  0
CIRCLE
  5
A6
330
17
100
AcDbEntity
  8
0
100
AcDbCircle
 10
1807.3106867874794
 20
442.2484345809389
 30
0.0
 40
11.0
  0
TEXT
  5
A7
330
17
100
AcDbEntity
  8
LABEL
100
AcDbText
 10
1795.6549675658978
 20
387.07876910277287
 30
0.0
 40
10.734375
  1
Links h,i,g
 50
90.0
 72
1
 11
1795.6549675658978
 21
387.07876910277287
 31
0.0
100
AcDbText
 73
2
  0
LWPOLYLINE
  5
A8
330
17
100
AcDbEntity
  8
0
100
AcDbPolyline
 90
3
 70
1
 10
1684.2758490955985
 20
662.0486377639594
 10
1777.3106867874794
 20
802.7416560126189
 10
1777.3106867874794
 20
576.5331997186562
  0
CIRCLE
  5
A9
330
17
100
AcDbEntity
  8
0
100
AcDbCircle
 10
1645.147694155411
 20
657.26635061052
 30
0.0
 40
11.0
  0
LWPOLYLINE
  5
AA
330
17
100
AcDbEntity
  8
0
100
AcDbPolyline
 90
2
 70
1
 10
1798.4524713312612
 20
516.3944122454209
 42
0.9972646038391172
 10
1816.1244218392885
 20
500.15563631905354
 42
0.9972646038394608
  0
LWPOLYLINE
  5
AB
330
17
100
AcDbEntity
  8
0
100
AcDbPolyline
 90
7
 70
1
 10
1624.845850917131
 20
635.1793598438218
 10
1786.9643631448075
 20
486.16383047495106
 42
0.4145782399340892
 10
1829.3784543306865
 20
487.97649040922363
 42
0.188241269212927
 10
1837.3106867874794
 20
508.29922732281295
 10
1837.3106867874794
 20
902.4992273228129
 42
0.743511322855691
 10
1782.2869238576736
 20
919.046471468981
 10
1620.1239312255816
 20
673.8135947566523
 42
0.3683575668124177
  0
CIRCLE
  5
AC
330
17
100
AcDbEntity
  8
0
100
AcDbCircle
 10
1807.3106867874794
 20
902.4992273228132
 30
0.0
 40
11.0
  0
TEXT
  5
AD
330
17
100
AcDbEntity
  8
LABEL
100
AcDbText
 10
1795.6549675658978
 20
847.3295618446472
 30
0.0
 40
10.734375
  1
Links h,i,g
 50
90.0
 72
1
 11
1795.6549675658978
 21
847.3295618446472
 31
0.0
100
AcDbText
 73
2
  0
LWPOLYLINE
  5
AE
330
17
100
AcDbEntity
  8
0
100
AcDbPolyline
 90
3
 70
1
 10
2042.8010159895823
 20
399.1986735403159
 10
2183.494034238242
 20
306.1638358484349
 10
1957.285577944279
 20
306.1638358484349
  0
CIRCLE
  5
AF
330
17
100
AcDbEntity
  8
0
100
AcDbCircle
 10
2038.0187288361428
 20
438.3268284805033
 30
0.0
 40
11.0
  0
LWPOLYLINE
  5
B0
330
17
100
AcDbEntity
  8
0
100
AcDbPolyline
 90
2
 70
1
 10
1897.1467904710437
 20
285.02205130465313
 42
0.9972646038391172
 10
1880.9080145446765
 20
267.35010079662584
 42
0.9972646038394608
  0
LWPOLYLINE
  5
B1
330
17
100
AcDbEntity
  8
0
100
AcDbPolyline
 90
7
 70
1
 10
2015.9317380694447
 20
458.6286717187834
 10
1866.9162087005739
 20
296.51015949110683
 42
0.4145782399340892
 10
1868.7288686348465
 20
254.09606830522785
 42
0.188241269212927
 10
1889.0516055484359
 20
246.16383584843493
 10
2283.2516055484357
 20
246.16383584843493
 42
0.743511322855691
 10
2299.798849694604
 20
301.1875987782407
 10
2054.565972982275
 20
463.35059141033264
 42
0.3683575668124177
  0
CIRCLE
  5
B2
330
17
100
AcDbEntity
  8
0
100
AcDbCircle
 10
2283.251605548436
 20
276.1638358484349
 30
0.0
 40
11.0
  0
TEXT
  5
B3
330
17
100
AcDbEntity
  8
LABEL
100
AcDbText
 10
2228.08194007027
 20
287.8195550700166
 30
0.0
 40
10.734375
  1
Links h,i,g
 72
1
 11
2228.08194007027
 21
287.8195550700166
 31
0.0
100
AcDbText
 73
2
  0
LWPOLYLINE
  5
B4
330
17
100
AcDbEntity
  8
0
100
AcDbPolyline
 90
3
 70
1
 10
1912.4396849440334
 20
658.1255167189549
 10
2005.4745226359144
 20
798.8185349676145
 10
2005.4745226359144
 20
572.6100786736517
  0
CIRCLE
  5
B5
330
17
100
AcDbEntity
  8
0
100
AcDbCircle
 10
1873.311530003846
 20
653.3432295655155
 30
0.0
 40
11.0
  0
LWPOLYLINE
  5
B6
330
17
100
AcDbEntity
  8
0
100
AcDbPolyline
 90
2
 70
1
 10
2026.6163071796962
 20
512.4712912004164
 42
0.9972646038391172
 10
2044.2882576877234
 20
496.2325152740491
 42
0.9972646038394608
  0
LWPOLYLINE
  5
B7
330
17
100
AcDbEntity
  8
0
100
AcDbPolyline
 90
7
 70
1
 10
1853.009686765566
 20
631.2562387988173
 10
2015.1281989932424
 20
482.2407094299466
 42
0.4145782399340892
 10
2057.5422901791217
 20
484.0533693642192
 42
0.188241269212927
 10
2065.4745226359146
 20
504.3761062778085
 10
2065.4745226359146
 20
898.5761062778085
 42
0.743511322855691
 10
2010.4507597061086
 20
915.1233504239766
 10
1848.2877670740168
 20
669.8904737116478
 42
0.3683575668124177
  0
CIRCLE
  5
B8
330
17
100
AcDbEntity
  8
0
100
AcDbCircle
 10
2035.4745226359144
 20
898.5761062778088
 30
0.0
 40
11.0
  0
TEXT
  5
B9
330
17
100
AcDbEntity
  8
LABEL
100
AcDbText
 10
2023.8188034143327
 20
843.4064407996427
 30
0.0
 40
10.734375
  1
Links h,i,g
 50
90.0
 72
1
 11
2023.8188034143327
 21
843.4064407996427
 31
0.0
100
AcDbText
 73
2
  0
LWPOLYLINE
  5
BA
330
17
100
AcDbEntity
  8
0
100
AcDbPolyline
 90
3
 70
1
 10
2042.8010159895823
 20
1087.613302130625
 10
2183.494034238242
 20
994.578464438744
 10
1957.285577944279
 20
994.578464438744
  0
CIRCLE
  5
BB
330
17
100
AcDbEntity
  8
0
100
AcDbCircle
 10
2038.0187288361428
 20
1126.7414570708124
 30
0.0
 40
11.0
  0
LWPOLYLINE
  5
BC
330
17
100
AcDbEntity
  8
0
100
AcDbPolyline
 90
2
 70
1
 10
1897.1467904710437
 20
973.4366798949623
 42
0.9972646038391172
 10
1880.9080145446765
 20
955.764729386935
 42
0.9972646038394608
  0
LWPOLYLINE
  5
BD
330
17
100
AcDbEntity
  8
0
100
AcDbPolyline
 90
7
 70
1
 10
2015.9317380694447
 20
1147.0433003090925
 10
1866.9162087005739
 20
984.924788081416
 42
0.4145782399340892
 10
1868.7288686348465
 20
942.510696895537
 42
0.188241269212927
 10
1889.0516055484359
 20
934.578464438744
 10
2283.2516055484357
 20
934.578464438744
 42
0.743511322855691
 10
2299.798849694604
 20
989.6022273685498
 10
2054.565972982275
 20
1151.7652200006419
 42
0.3683575668124177
  0
CIRCLE
  5
BE
330
17
100
AcDbEntity
  8
0
100
AcDbCircle
 10
2283.251605548436
 20
964.578464438744
 30
0.0
 40
11.0
  0
TEXT
  5
BF
330
17
100
AcDbEntity
  8
LABEL
100
AcDbText
 10
2228.08194007027
 20
976.2341836603257
 30
0.0
 40
10.734375
  1
Links h,i,g
 72
1
 11
2228.08194007027
 21
976.2341836603257
 31
0.0
100
AcDbText
 73
2
  0
LWPOLYLINE
  5
C0
330
17
100
AcDbEntity
  8
0
100
AcDbPolyline
 90
3
 70
1
 10
2140.6035207924688
 20
658.1255167189549
 10
2233.6383584843497
 20
798.8185349676145
 10
2233.6383584843497
 20
572.6100786736517
  0
CIRCLE
  5
C1
330
17
100
AcDbEntity
  8
0
100
AcDbCircle
 10
2101.4753658522814
 20
653.3432295655155
 30
0.0
 40
11.0
  0
LWPOLYLINE
  5
C2
330
17
100
AcDbEntity
  8
0
100
AcDbPolyline
 90
2
 70
1
 10
2254.7801430281315
 20
512.4712912004164
 42
0.9972646038391172
 10
2272.452093536159
 20
496.2325152740491
 42
0.9972646038394608
  0
LWPOLYLINE
  5
C3
330
17
100
AcDbEntity
  8
0
100
AcDbPolyline
 90
7
 70
1
 10
2081.173522614001
 20
631.2562387988173
 10
2243.2920348416774
 20
482.2407094299466
 42
0.4145782399340892
 10
2285.706126027557
 20
484.0533693642192
 42
0.188241269212927
 10
2293.6383584843497
 20
504.3761062778085
 10
2293.6383584843497
 20
898.5761062778085
 42
0.743511322855691
 10
2238.6145955545435
 20
915.1233504239766
 10
2076.451602922452
 20
669.8904737116478
 42
0.3683575668124177
  0
CIRCLE
  5
C4
330
17
100
AcDbEntity
  8
0
100
AcDbCircle
 10
2263.6383584843497
 20
898.5761062778088
 30
0.0
 40
11.0
  0
TEXT
  5
C5
330
17
100
AcDbEntity
  8
LABEL
100
AcDbText
 10
2251.982639262768
 20
843.4064407996427
 30
0.0
 40
10.734375
  1
Links h,i,g
 50
90.0
 72
1
 11
2251.982639262768
 21
843.4064407996427
 31
0.0
100
AcDbText
 73
2
  0
CIRCLE
  5
C6
330
17
100
AcDbEntity
  8
0
100
AcDbCircle
 10
2378.2218469240047
 20
875.7303179918677
 30
-2.7755575615628914e-16
 40
11.0
  0
CIRCLE
  5
C7
330
17
100
AcDbEntity
  8
0
100
AcDbCircle
 10
2378.2218469240047
 20
504.330317991868
 30
-2.7755575615628914e-16
 40
11.0
  0
ARC
  5
C8
330
17
100
AcDbEntity
  8
0
100
AcDbCircle
 10
2378.2218469240047
 20
875.7303179918677
 30
-2.7755575615628914e-16
 40
30.00000000000003
100
AcDbArc
 50
-42.938977529106616
 51
180.0
  0
SPLINE
  5
C9
330
17
100
AcDbEntity
  8
0
100
AcDbSpline
 70
4
 71
5
 72
21
 73
15
 74
0
 42
1e-09
 40
0.0
 40
0.0
 40
0.0
 40
0.0
 40
0.0
 40
0.0
 40
0.1
 40
0.2
 40
0.30000000000000004
 40
0.4
 40
0.5
 40
0.6
 40
0.7
 40
0.7999999999999999
 40
0.8999999999999999
 40
1.0
 40
1.0
 40
1.0
 40
1.0
 40
1.0
 40
1.0
 41
1.0
 41
1.0
 41
1.0
 41
1.0
 41
1.0
 41
1.0
 41
1.0
 41
1.0
 41
1.0
 41
1.0
 41
1.0
 41
1.0
 41
1.0
 41
1.0
 41
1.0
 10
2348.2218469240047
 20
875.7303179918677
 30
-2.7755575615628914e-16
 10
2344.53690548083
 20
868.3023179735151
 30
-2.7755575615628914e-16
 10
2337.4888267745573
 20
853.4463179385025
 30
-2.7755575615628914e-16
 10
2327.8820916692794
 20
831.1623178910713
 30
-2.7755575615628914e-16
 10
2317.03589794908
 20
801.4503178380969
 30
-2.7755575615628914e-16
 10
2306.9714827329376
 20
764.3103177898251
 30
-2.7755575615628914e-16
 10
2300.712589754011
 20
727.1703177606537
 30
-2.7755575615628914e-16
 10
2298.5697785714374
 20
690.0303177517203
 30
-2.7755575615628914e-16
 10
2300.7125897443284
 20
652.8903177634752
 30
-2.7755575615628914e-16
 10
2306.9714827173284
 20
615.7503177947501
 30
-2.7755575615628914e-16
 10
2317.0358979325933
 20
578.610317843737
 30
-2.7755575615628914e-16
 10
2327.882091656609
 20
548.898317895681
 30
-2.7755575615628914e-16
 10
2337.4888267672577
 20
526.6143179412543
 30
-2.7755575615628914e-16
 10
2344.536905478213
 20
511.75831797451565
 30
-2.7755575615628914e-16
 10
2348.2218469240047
 20
504.330317991868
 30
-2.7755575615628914e-16
  0
ARC
  5
CA
330
17
100
AcDbEntity
  8
0
100
AcDbCircle
 10
2378.2218469240047
 20
504.330317991868
 30
-2.7755575615628914e-16
 40
30.0
100
AcDbArc
 50
-179.9999999999987
 51
43.88873709134169
  0
SPLINE
  5
CB
330
17
100
AcDbEntity
  8
0
100
AcDbSpline
 70
4
 71
5
 72
21
 73
15
 74
0
 42
1e-09
 40
-0.9433542862607742
 40
-0.9433542862607742
 40
-0.9433542862607742
 40
-0.9433542862607742
 40
-0.9433542862607742
 40
-0.9433542862607742
 40
-0.8999999999999999
 40
-0.7999999999999999
 40
-0.7
 40
-0.6
 40
-0.5
 40
-0.4
 40
-0.30000000000000004
 40
-0.2
 40
-0.1
 40
-0.054404857979897775
 40
-0.054404857979897775
 40
-0.054404857979897775
 40
-0.054404857979897775
 40
-0.054404857979897775
 40
-0.054404857979897775
 41
1.0
 41
1.0
 41
1.0
 41
1.0
 41
1.0
 41
1.0
 41
1.0
 41
1.0
 41
1.0
 41
1.0
 41
1.0
 41
1.0
 41
1.0
 41
1.0
 41
1.0
 10
2399.8424690173306
 20
525.128123171683
 30
-2.7755575615628914e-16
 10
2398.6270185592152
 20
528.3136070411533
 30
-2.7755575615628914e-16
 10
2394.6933926120882
 20
538.8491036819892
 30
-2.7755575615628914e-16
 10
2388.4967554965424
 20
556.7476722228871
 30
-2.7755575615628914e-16
 10
2380.9260754285947
 20
582.0348180689002
 30
-2.7755575615628914e-16
 10
2373.4019580898475
 20
614.7512998465668
 30
-2.7755575615628914e-16
 10
2368.1365781170753
 20
651.7402307205571
 30
-2.7755575615628914e-16
 10
2366.3503952895176
 20
688.828983311379
 30
-2.7755575615628914e-16
 10
2368.17818332821
 20
726.0214244149151
 30
-2.7755575615628914e-16
 10
2373.468943241014
 20
763.3132217161005
 30
-2.7755575615628914e-16
 10
2381.034355042226
 20
796.6290882510161
 30
-2.7755575615628914e-16
 10
2388.6539864090996
 20
822.5185104008137
 30
-2.7755575615628914e-16
 10
2394.9074671672406
 20
840.9407362954189
 30
-2.7755575615628914e-16
 10
2398.9042874487486
 20
851.8702162977875
 30
-2.7755575615628914e-16
 10
2400.184236252752
 20
855.2937464845731
 30
-2.7755575615628914e-16
  0
TEXT
  5
CC
330
17
100
AcDbEntity
  8
LABEL
100
AcDbText
 10
2333.5708670329022
 20
690.0302875670791
 30
0.0
 40
11.859375
  1
LinkK
 50
90.0
 72
1
 11
2333.5708670329022
 21
690.0302875670791
 31
0.0
100
AcDbText
 73
2
  0
LWPOLYLINE
  5
CD
330
17
100
AcDbEntity
  8
0
100
AcDbPolyline
 90
4
 70
1
 10
2319.2539637093714
 20
382.80000000000007
 10
2319.2539637093714
 20
48.00000000000003
 42
0.9999999999999999
 10
2379.2539637093714
 20
47.99999999999994
 10
2379.2539637093714
 20
382.80000000000007
 42
0.9999999999999999
  0
CIRCLE
  5
CE
330
17
100
AcDbEntity
  8
0
100
AcDbCircle
 10
2349.2539637093714
 20
382.80000000000007
 30
3.0385816786431356e-63
 40
11.0
  0
CIRCLE
  5
CF
330
17
100
AcDbEntity
  8
0
100
AcDbCircle
 10
2349.2539637093714
 20
47.99999999999994
 30
0.0
 40
11.0
  0
TEXT
  5
D0
330
17
100
AcDbEntity
  8
LABEL
100
AcDbText
 10
2349.2539637093714
 20
338.775
 30
0.0
 40
11.859375
  1
LinkE
 50
90.0
 72
1
 11
2349.2539637093714
 21
338.775
 31
0.0
100
AcDbText
 73
2
  0
CIRCLE
  5
D1
330
17
100
AcDbEntity
  8
0
100
AcDbCircle
 10
2343.2539640669993
 20
935.7329071115628
 30
0.0
 40
11.0
  0
LWPOLYLINE
  5
D2
330
17
100
AcDbEntity
  8
0
100
AcDbPolyline
 90
4
 70
1
 10
2319.253964066999
 20
935.7329071115623
 42
1.0157787888818275
 10
2367.2422012971683
 20
936.4842223510773
 10
2367.2422012971683
 20
1172.8581388838925
 42
0.9809821123639358
 10
2319.2539637093714
 20
1172.3291566813928
  0
CIRCLE
  5
D3
330
17
100
AcDbEntity
  8
0
100
AcDbCircle
 10
2343.2539752428697
 20
1172.1329484175799
 30
0.0
 40
11.0
  0
TEXT
  5
D4
330
17
100
AcDbEntity
  8
LABEL
100
AcDbText
 10
2343.25398702236
 20
1125.032928149691
 30
0.0
 40
11.859375
  1
LinkF
 50
90.0
 72
1
 11
2343.25398702236
 21
1125.032928149691
 31
0.0
100
AcDbText
 73
2
  0
CIRCLE
  5
D5
330
17
100
AcDbEntity
  8
0
100
AcDbCircle
 10
2397.2540106929764
 20
935.7329071115628
 30
0.0
 40
11.0
  0
LWPOLYLINE
  5
D6
330
17
100
AcDbEntity
  8
0
100
AcDbPolyline
 90
4
 70
1
 10
2373.254010692976
 20
935.7329071115623
 42
1.0157787888818275
 10
2421.2422479231454
 20
936.4842223510773
 10
2421.2422479231454
 20
1172.8581388838925
 42
0.9809821123639358
 10
2373.2540103353485
 20
1172.3291566813928
  0
CIRCLE
  5
D7
330
17
100
AcDbEntity
  8
0
100
AcDbCircle
 10
2397.254021868847
 20
1172.1329484175799
 30
0.0
 40
11.0
  0
TEXT
  5
D8
330
17
100
AcDbEntity
  8
LABEL
100
AcDbText
 10
2397.254033648337
 20
1125.032928149691
 30
0.0
 40
11.859375
  1
LinkF
 50
90.0
 72
1
 11
2397.254033648337
 21
1125.032928149691
 31
0.0
100
AcDbText
 73
2
  0
ENDSEC
  0
SECTION
  2
OBJECTS
  0
DICTIONARY
  5
A
330
0
100
AcDbDictionary
281
1
  3
ACAD_COLOR
350
B
  3
ACAD_GROUP
350
C
  3
ACAD_LAYOUT
350
D
  3
ACAD_MATERIAL
350
E
  3
ACAD_MLEADERSTYLE
350
F
  3
ACAD_MLINESTYLE
350
10
  3
ACAD_PLOTSETTINGS
350
11
  3
ACAD_PLOTSTYLENAME
350
12
  3
ACAD_SCALELIST
350
14
  3
ACAD_TABLESTYLE
350
15
  3
ACAD_VISUALSTYLE
350
16
  3
EZDXF_META
350
2D
  0
DICTIONARY
  5
B
330
A
100
AcDbDictionary
281
1
  0
DICTIONARY
  5
C
330
A
100
AcDbDictionary
281
1
  0
DICTIONARY
  5
D
330
A
100
AcDbDictionary
281
1
  3
Model
350
1A
  3
Layout1
350
1E
  0
DICTIONARY
  5
E
330
A
100
AcDbDictionary
281
1
  3
ByBlock
350
1F
  3
ByLayer
350
20
  3
Global
350
21
  0
DICTIONARY
  5
F
330
A
100
AcDbDictionary
281
1
  3
Standard
350
2C
  0
DICTIONARY
  5
10
330
A
100
AcDbDictionary
281
1
  3
Standard
350
22
  0
DICTIONARY
  5
11
330
A
100
AcDbDictionary
281
1
  0
ACDBDICTIONARYWDFLT
  5
12
330
A
100
AcDbDictionary
281
1
  3
Normal
350
13
100
AcDbDictionaryWithDefault
340
13
  0
ACDBPLACEHOLDER
  5
13
330
12
  0
DICTIONARY
  5
14
330
A
100
AcDbDictionary
281
1
  0
DICTIONARY
  5
15
330
A
100
AcDbDictionary
281
1
  0
DICTIONARY
  5
16
330
A
100
AcDbDictionary
281
1
  0
LAYOUT
  5
1A
330
D
100
AcDbPlotSettings
  1

  4
A3
  6

 40
7.5
 41
20.0
 42
7.5
 43
20.0
 44
420.0
 45
297.0
 46
0.0
 47
0.0
 48
0.0
 49
0.0
140
0.0
141
0.0
142
1.0
143
1.0
 70
1024
 72
1
 73
0
 74
5
  7

 75
16
 76
0
 77
2
 78
300
147
1.0
148
0.0
149
0.0
100
AcDbLayout
  1
Model
 70
1
 71
0
 10
0.0
 20
0.0
 11
420.0
 21
297.0
 12
0.0
 22
0.0
 32
0.0
 14
1e+20
 24
1e+20
 34
1e+20
 15
-1e+20
 25
-1e+20
 35
-1e+20
146
0.0
 13
0.0
 23
0.0
 33
0.0
 16
1.0
 26
0.0
 36
0.0
 17
0.0
 27
1.0
 37
0.0
 76
1
330
17
  0
LAYOUT
  5
1E
330
D
100
AcDbPlotSettings
  1

  4
A3
  6

 40
7.5
 41
20.0
 42
7.5
 43
20.0
 44
420.0
 45
297.0
 46
0.0
 47
0.0
 48
0.0
 49
0.0
140
0.0
141
0.0
142
1.0
143
1.0
 70
0
 72
1
 73
0
 74
5
  7

 75
16
 76
0
 77
2
 78
300
147
1.0
148
0.0
149
0.0
100
AcDbLayout
  1
Layout1
 70
1
 71
1
 10
0.0
 20
0.0
 11
420.0
 21
297.0
 12
0.0
 22
0.0
 32
0.0
 14
1e+20
 24
1e+20
 34
1e+20
 15
-1e+20
 25
-1e+20
 35
-1e+20
146
0.0
 13
0.0
 23
0.0
 33
0.0
 16
1.0
 26
0.0
 36
0.0
 17
0.0
 27
1.0
 37
0.0
 76
1
330
1B
  0
MATERIAL
  5
1F
102
{ACAD_REACTORS
330
E
102
}
330
E
100
AcDbMaterial
  1
ByBlock
  2

 70
0
 40
1.0
 71
1
 41
1.0
 91
-1023410177
 42
1.0
 72
1
  3

 73
1
 74
1
 75
1
 44
0.5
 73
0
 45
1.0
 46
1.0
 77
1
  4

 78
1
 79
1
170
1
 48
1.0
171
1
  6

172
1
173
1
174
1
140
1.0
141
1.0
175
1
  7

176
1
177
1
178
1
143
1.0
179
1
  8

270
1
271
1
272
1
145
1.0
146
1.0
273
1
  9

274
1
275
1
276
1
 42
1.0
 72
1
  3

 73
1
 74
1
 75
1
 94
63
  0
MATERIAL
  5
20
102
{ACAD_REACTORS
330
E
102
}
330
E
100
AcDbMaterial
  1
ByLayer
  2

 70
0
 40
1.0
 71
1
 41
1.0
 91
-1023410177
 42
1.0
 72
1
  3

 73
1
 74
1
 75
1
 44
0.5
 73
0
 45
1.0
 46
1.0
 77
1
  4

 78
1
 79
1
170
1
 48
1.0
171
1
  6

172
1
173
1
174
1
140
1.0
141
1.0
175
1
  7

176
1
177
1
178
1
143
1.0
179
1
  8

270
1
271
1
272
1
145
1.0
146
1.0
273
1
  9

274
1
275
1
276
1
 42
1.0
 72
1
  3

 73
1
 74
1
 75
1
 94
63
  0
MATERIAL
  5
21
102
{ACAD_REACTORS
330
E
102
}
330
E
100
AcDbMaterial
  1
Global
  2

 70
0
 40
1.0
 71
1
 41
1.0
 91
-1023410177
 42
1.0
 72
1
  3

 73
1
 74
1
 75
1
 44
0.5
 73
0
 45
1.0
 46
1.0
 77
1
  4

 78
1
 79
1
170
1
 48
1.0
171
1
  6

172
1
173
1
174
1
140
1.0
141
1.0
175
1
  7

176
1
177
1
178
1
143
1.0
179
1
  8

270
1
271
1
272
1
145
1.0
146
1.0
273
1
  9

274
1
275
1
276
1
 42
1.0
 72
1
  3

 73
1
 74
1
 75
1
 94
63
  0
MLINESTYLE
  5
22
102
{ACAD_REACTORS
330
10
102
}
330
10
100
AcDbMlineStyle
  2
Standard
 70
0
  3

 62
256
 51
90.0
 52
90.0
 71
2
 49
0.5
 62
256
  6
BYLAYER
 49
-0.5
 62
256
  6
BYLAYER
  0
MLEADERSTYLE
  5
2C
102
{ACAD_REACTORS
330
F
102
}
330
F
100
AcDbMLeaderStyle
179
2
170
2
171
1
172
0
 90
2
 40
0.0
 41
0.0
173
1
 91
-1056964608
 92
-2
290
1
 42
2.0
291
1
 43
8.0
  3
Standard
 44
4.0
300

342
29
174
1
175
1
176
0
178
1
 93
-1056964608
 45
4.0
292
0
297
0
 46
4.0
 94
-1056964608
 47
1.0
 49
1.0
140
1.0
294
1
141
0.0
177
0
142
1.0
295
0
296
0
143
3.75
271
0
272
9
273
9
  0
DICTIONARY
  5
2D
330
A
100
AcDbDictionary
280
1
281
1
  3
CREATED_BY_EZDXF
350
2E
  3
WRITTEN_BY_EZDXF
350
DB
  0
DICTIONARYVAR
  5
2E
330
2D
100
DictionaryVariables
280
0
  1
1.4.4 @ 2026-08-07T14:00:00.777055+00:00
  0
DICTIONARYVAR
  5
DB
330
2D
100
DictionaryVariables
280
0
  1
1.4.4 @ 2026-08-07T14:00:01.399619+00:00
  0
ENDSEC
  0
EOF
