  0
SECTION
  2
HEADER
  9
$ACADVER
  1
AC1027
  9
$ACADMAINTVER
 70
105
  9
$DWGCODEPAGE
  3
ANSI_1252
  9
$LASTSAVEDBY
  1
ezdxf
  9
$REQUIREDVERSIONS
160
0
  9
$INSBASE
 10
0.0
 20
0.0
 30
0.0
  9
$EXTMIN
 10
1e+20
 20
1e+20
 30
1e+20
  9
$EXTMAX
 10
-1e+20
 20
-1e+20
 30
-1e+20
  9
$LIMMIN
 10
0.0
 20
0.0
  9
$LIMMAX
 10
420.0
 20
297.0
  9
$ORTHOMODE
 70
0
  9
$REGENMODE
 70
1
  9
$FILLMODE
 70
1
  9
$QTEXTMODE
 70
0
  9
$MIRRTEXT
 70
1
  9
$LTSCALE
 40
1.0
  9
$ATTMODE
 70
1
  9
$TEXTSIZE
 40
2.5
  9
$TRACEWID
 40
1.0
  9
$TEXTSTYLE
  7
Standard
  9
$CLAYER
  8
0
  9
$CELTYPE
  6
ByLayer
  9
$CECOLOR
 62
256
  9
$CELTSCALE
 40
1.0
  9
$DISPSILH
 70
0
  9
$DIMSCALE
 40
1.0
  9
$DIMASZ
 40
2.5
  9
$DIMEXO
 40
0.625
  9
$DIMDLI
 40
3.75
  9
$DIMRND
 40
0.0
  9
$DIMDLE
 40
0.0
  9
$DIMEXE
 40
1.25
  9
$DIMTP
 40
0.0
  9
$DIMTM
 40
0.0
  9
$DIMTXT
 40
2.5
  9
$DIMCEN
 40
2.5
  9
$DIMTSZ
 40
0.0
  9
$DIMTOL
 70
0
  9
$DIMLIM
 70
0
  9
$DIMTIH
 70
0
  9
$DIMTOH
 70
0
  9
$DIMSE1
 70
0
  9
$DIMSE2
 70
0
  9
$DIMTAD
 70
1
  9
$DIMZIN
 70
8
  9
$DIMBLK
  1

  9
$DIMASO
 70
1
  9
$DIMSHO
 70
1
  9
$DIMPOST
  1

  9
$DIMAPOST
  1

  9
$DIMALT
 70
0
  9
$DIMALTD
 70
3
  9
$DIMALTF
 40
0.03937007874
  9
$DIMLFAC
 40
1.0
  9
$DIMTOFL
 70
1
  9
$DIMTVP
 40
0.0
  9
$DIMTIX
 70
0
  9
$DIMSOXD
 70
0
  9
$DIMSAH
 70
0
  9
$DIMBLK1
  1

  9
$DIMBLK2
  1

  9
$DIMSTYLE
  2
ISO-25
  9
$DIMCLRD
 70
0
  9
$DIMCLRE
 70
0
  9
$DIMCLRT
 70
0
  9
$DIMTFAC
 40
1.0
  9
$DIMGAP
 40
0.625
  9
$DIMJUST
 70
0
  9
$DIMSD1
 70
0
  9
$DIMSD2
 70
0
  9
$DIMTOLJ
 70
0
  9
$DIMTZIN
 70
8
  9
$DIMALTZ
 70
0
  9
$DIMALTTZ
 70
0
  9
$DIMUPT
 70
0
  9
$DIMDEC
 70
2
  9
$DIMTDEC
 70
2
  9
$DIMALTU
 70
2
  9
$DIMALTTD
 70
3
  9
$DIMTXSTY
  7
Standard
  9
$DIMAUNIT
 70
0
  9
$DIMADEC
 70
0
  9
$DIMALTRND
 40
0.0
  9
$DIMAZIN
 70
0
  9
$DIMDSEP
 70
44
  9
$DIMATFIT
 70
3
  9
$DIMFRAC
 70
0
  9
$DIMLDRBLK
  1

  9
$DIMLUNIT
 70
2
  9
$DIMLWD
 70
-2
  9
$DIMLWE
 70
-2
  9
$DIMTMOVE
 70
0
  9
$DIMFXL
 40
1.0
  9
$DIMFXLON
 70
0
  9
$DIMJOGANG
 40
0.785398163397
  9
$DIMTFILL
 70
0
  9
$DIMTFILLCLR
 70
0
  9
$DIMARCSYM
 70
0
  9
$DIMLTYPE
  6

  9
$DIMLTEX1
  6

  9
$DIMLTEX2
  6

  9
$DIMTXTDIRECTION
 70
0
  9
$LUNITS
 70
2
  9
$LUPREC
 70
4
  9
$SKETCHINC
 40
1.0
  9
$FILLETRAD
 40
10.0
  9
$AUNITS
 70
0
  9
$AUPREC
 70
2
  9
$MENU
  1
.
  9
$ELEVATION
 40
0.0
  9
$PELEVATION
 40
0.0
  9
$THICKNESS
 40
0.0
  9
$LIMCHECK
 70
0
  9
$CHAMFERA
 40
0.0
  9
$CHAMFERB
 40
0.0
  9
$CHAMFERC
 40
0.0
  9
$CHAMFERD
 40
0.0
  9
$SKPOLY
 70
0
  9
$TDCREATE
 40
2461260.62537037
  9
$TDUCREATE
 40
2458532.153996898
  9
$TDUPDATE
 40
2461260.6253935187
  9
$TDUUPDATE
 40
2458532.1544311
  9
$TDINDWG
 40
0.0
  9
$TDUSRTIMER
 40
0.0
  9
$USRTIMER
 70
1
  9
$ANGBASE
 50
0.0
  9
$ANGDIR
 70
0
  9
$PDMODE
 70
0
  9
$PDSIZE
 40
0.0
  9
$PLINEWID
 40
0.0
  9
$SPLFRAME
 70
0
  9
$SPLINETYPE
 70
6
  9
$SPLINESEGS
 70
8
  9
$HANDSEED
  5
1CF
  9
$SURFTAB1
 70
6
  9
$SURFTAB2
 70
6
  9
$SURFTYPE
 70
6
  9
$SURFU
 70
6
  9
$SURFV
 70
6
  9
$UCSBASE
  2

  9
$UCSNAME
  2

  9
$UCSORG
 10
0.0
 20
0.0
 30
0.0
  9
$UCSXDIR
 10
1.0
 20
0.0
 30
0.0
  9
$UCSYDIR
 10
0.0
 20
1.0
 30
0.0
  9
$UCSORTHOREF
  2

  9
$UCSORTHOVIEW
 70
0
  9
$UCSORGTOP
 10
0.0
 20
0.0
 30
0.0
  9
$UCSORGBOTTOM
 10
0.0
 20
0.0
 30
0.0
  9
$UCSORGLEFT
 10
0.0
 20
0.0
 30
0.0
  9
$UCSORGRIGHT
 10
0.0
 20
0.0
 30
0.0
  9
$UCSORGFRONT
 10
0.0
 20
0.0
 30
0.0
  9
$UCSORGBACK
 10
0.0
 20
0.0
 30
0.0
  9
$PUCSBASE
  2

  9
$PUCSNAME
  2

  9
$PUCSORG
 10
0.0
 20
0.0
 30
0.0
  9
$PUCSXDIR
 10
1.0
 20
0.0
 30
0.0
  9
$PUCSYDIR
 10
0.0
 20
1.0
 30
0.0
  9
$PUCSORTHOREF
  2

  9
$PUCSORTHOVIEW
 70
0
  9
$PUCSORGTOP
 10
0.0
 20
0.0
 30
0.0
  9
$PUCSORGBOTTOM
 10
0.0
 20
0.0
 30
0.0
  9
$PUCSORGLEFT
 10
0.0
 20
0.0
 30
0.0
  9
$PUCSORGRIGHT
 10
0.0
 20
0.0
 30
0.0
  9
$PUCSORGFRONT
 10
0.0
 20
0.0
 30
0.0
  9
$PUCSORGBACK
 10
0.0
 20
0.0
 30
0.0
  9
$USERI1
 70
0
  9
$USERI2
 70
0
  9
$USERI3
 70
0
  9
$USERI4
 70
0
  9
$USERI5
 70
0
  9
$USERR1
 40
0.0
  9
$USERR2
 40
0.0
  9
$USERR3
 40
0.0
  9
$USERR4
 40
0.0
  9
$USERR5
 40
0.0
  9
$WORLDVIEW
 70
1
  9
$SHADEDGE
 70
3
  9
$SHADEDIF
 70
70
  9
$TILEMODE
 70
1
  9
$MAXACTVP
 70
64
  9
$PINSBASE
 10
0.0
 20
0.0
 30
0.0
  9
$PLIMCHECK
 70
0
  9
$PEXTMIN
 10
1e+20
 20
1e+20
 30
1e+20
  9
$PEXTMAX
 10
-1e+20
 20
-1e+20
 30
-1e+20
  9
$PLIMMIN
 10
0.0
 20
0.0
  9
$PLIMMAX
 10
420.0
 20
297.0
  9
$UNITMODE
 70
0
  9
$VISRETAIN
 70
1
  9
$PLINEGEN
 70
0
  9
$PSLTSCALE
 70
1
  9
$TREEDEPTH
 70
3020
  9
$CMLSTYLE
  2
Standard
  9
$CMLJUST
 70
0
  9
$CMLSCALE
 40
20.0
  9
$PROXYGRAPHICS
 70
1
  9
$MEASUREMENT
 70
1
  9
$CELWEIGHT
370
-1
  9
$ENDCAPS
280
0
  9
$JOINSTYLE
280
0
  9
$LWDISPLAY
290
0
  9
$INSUNITS
 70
4
  9
$HYPERLINKBASE
  1

  9
$STYLESHEET
  1

  9
$XEDIT
290
1
  9
$CEPSNTYPE
380
0
  9
$PSTYLEMODE
290
1
  9
$FINGERPRINTGUID
  2
{1C3941FC-95D3-4624-B6B2-00BC14D32735}
  9
$VERSIONGUID
  2
{5A990F00-8CD7-448A-B85F-A5D0A7E005C1}
  9
$EXTNAMES
290
1
  9
$PSVPSCALE
 40
0.0
  9
$OLESTARTUP
290
0
  9
$SORTENTS
280
127
  9
$INDEXCTL
280
0
  9
$HIDETEXT
280
1
  9
$XCLIPFRAME
280
1
  9
$HALOGAP
280
0
  9
$OBSCOLOR
 70
257
  9
$OBSLTYPE
280
0
  9
$INTERSECTIONDISPLAY
280
0
  9
$INTERSECTIONCOLOR
 70
257
  9
$DIMASSOC
280
2
  9
$PROJECTNAME
  1

  9
$CAMERADISPLAY
290
0
  9
$LENSLENGTH
 40
50.0
  9
$CAMERAHEIGHT
 40
0.0
  9
$STEPSPERSEC
 40
24.0
  9
$STEPSIZE
 40
100.0
  9
$3DDWFPREC
 40
2.0
  9
$PSOLWIDTH
 40
0.005
  9
$PSOLHEIGHT
 40
0.08
  9
$LOFTANG1
 40
1.570796326795
  9
$LOFTANG2
 40
1.570796326795
  9
$LOFTMAG1
 40
0.0
  9
$LOFTMAG2
 40
0.0
  9
$LOFTPARAM
 70
7
  9
$LOFTNORMALS
280
1
  9
$LATITUDE
 40
37.795
  9
$LONGITUDE
 40
-122.394
  9
$NORTHDIRECTION
 40
0.0
  9
$TIMEZONE
 70
-8000
  9
$LIGHTGLYPHDISPLAY
280
1
  9
$TILEMODELIGHTSYNCH
280
1
  9
$CMATERIAL
347
20
  9
$SOLIDHIST
280
0
  9
$SHOWHIST
280
1
  9
$DWFFRAME
280
2
  9
$DGNFRAME
280
2
  9
$REALWORLDSCALE
290
1
  9
$INTERFERECOLOR
 62
256
  9
$CSHADOW
280
0
  9
$SHADOWPLANELOCATION
 40
0.0
  0
ENDSEC
  0
SECTION
  2
CLASSES
  0
CLASS
  1
ACDBDICTIONARYWDFLT
  2
AcDbDictionaryWithDefault
  3
ObjectDBX Classes
 90
0
 91
0
280
0
281
0
  0
CLASS
  1
SUN
  2
AcDbSun
  3
SCENEOE
 90
1153
 91
0
280
0
281
0
  0
CLASS
  1
VISUALSTYLE
  2
AcDbVisualStyle
  3
ObjectDBX Classes
 90
4095
 91
0
280
0
281
0
  0
CLASS
  1
MATERIAL
  2
AcDbMaterial
  3
ObjectDBX Classes
 90
1153
 91
0
280
0
281
0
  0
CLASS
  1
SCALE
  2
AcDbScale
  3
ObjectDBX Classes
 90
1153
 91
0
280
0
281
0
  0
CLASS
  1
TABLESTYLE
  2
AcDbTableStyle
  3
ObjectDBX Classes
 90
4095
 91
0
280
0
281
0
  0
CLASS
  1
MLEADERSTYLE
  2
AcDbMLeaderStyle
  3
ACDB_MLEADERSTYLE_CLASS
 90
4095
 91
0
280
0
281
0
  0
CLASS
  1
DICTIONARYVAR
  2
AcDbDictionaryVar
  3
ObjectDBX Classes
 90
0
 91
0
280
0
281
0
  0
CLASS
  1
CELLSTYLEMAP
  2
AcDbCellStyleMap
  3
ObjectDBX Classes
 90
1152
 91
0
280
0
281
0
  0
CLASS
  1
MENTALRAYRENDERSETTINGS
  2
AcDbMentalRayRenderSettings
  3
SCENEOE
 90
1024
 91
0
280
0
281
0
  0
CLASS
  1
ACDBDETAILVIEWSTYLE
  2
AcDbDetailViewStyle
  3
ObjectDBX Classes
 90
1025
 91
0
280
0
281
0
  0
CLASS
  1
ACDBSECTIONVIEWSTYLE
  2
AcDbSectionViewStyle
  3
ObjectDBX Classes
 90
1025
 91
0
280
0
281
0
  0
CLASS
  1
RASTERVARIABLES
  2
AcDbRasterVariables
  3
ISM
 90
0
 91
0
280
0
281
0
  0
CLASS
  1
ACDBPLACEHOLDER
  2
AcDbPlaceHolder
  3
ObjectDBX Classes
 90
0
 91
0
280
0
281
0
  0
CLASS
  1
LAYOUT
  2
AcDbLayout
  3
ObjectDBX Classes
 90
0
 91
0
280
0
281
0
  0
ENDSEC
  0
SECTION
  2
TABLES
  0
TABLE
  2
VPORT
  5
8
330
0
100
AcDbSymbolTable
 70
1
  0
VPORT
  5
23
330
8
100
AcDbSymbolTableRecord
100
AcDbViewportTableRecord
  2
*Active
 70
0
 10
0.0
 20
0.0
 11
1.0
 21
1.0
 12
0.0
 22
0.0
 13
0.0
 23
0.0
 14
0.5
 24
0.5
 15
0.5
 25
0.5
 16
0.0
 26
0.0
 36
1.0
 17
0.0
 27
0.0
 37
0.0
 40
1000.0
 41
1.34
 42
50.0
 43
0.0
 44
0.0
 50
0.0
 51
0.0
 71
0
 72
1000
 73
1
 74
3
 75
0
 76
0
 77
0
 78
0
281
0
 65
0
146
0.0
  0
ENDTAB
  0
TABLE
  2
LTYPE
  5
2
330
0
100
AcDbSymbolTable
 70
3
  0
LTYPE
  5
24
330
2
100
AcDbSymbolTableRecord
100
AcDbLinetypeTableRecord
  2
ByBlock
 70
0
  3

 72
65
 73
0
 40
0.0
  0
LTYPE
  5
25
330
2
100
AcDbSymbolTableRecord
100
AcDbLinetypeTableRecord
  2
ByLayer
 70
0
  3

 72
65
 73
0
 40
0.0
  0
LTYPE
  5
26
330
2
100
AcDbSymbolTableRecord
100
AcDbLinetypeTableRecord
  2
Continuous
 70
0
  3

 72
65
 73
0
 40
0.0
  0
ENDTAB
  0
TABLE
  2
LAYER
  5
1
330
0
100
AcDbSymbolTable
 70
3
  0
LAYER
  5
27
330
1
100
AcDbSymbolTableRecord
100
AcDbLayerTableRecord
  2
0
 70
0
 62
7
  6
Continuous
370
-3
390
13
347
21
  0
LAYER
  5
28
330
1
100
AcDbSymbolTableRecord
100
AcDbLayerTableRecord
  2
Defpoints
 70
0
 62
7
  6
Continuous
290
0
370
-3
390
13
347
21
  0
LAYER
  5
2F
330
1
100
AcDbSymbolTableRecord
100
AcDbLayerTableRecord
  2
LABEL
 70
0
 62
1
  6
Continuous
370
-3
390
13
347
21
  0
ENDTAB
  0
TABLE
  2
STYLE
  5
5
330
0
100
AcDbSymbolTable
 70
1
  0
STYLE
  5
29
330
5
100
AcDbSymbolTableRecord
100
AcDbTextStyleTableRecord
  2
Standard
 70
0
 40
0.0
 41
1.0
 50
0.0
 71
0
 42
2.5
  3
txt
  4

  0
ENDTAB
  0
TABLE
  2
VIEW
  5
7
330
0
100
AcDbSymbolTable
 70
0
  0
ENDTAB
  0
TABLE
  2
UCS
  5
6
330
0
100
AcDbSymbolTable
 70
0
  0
ENDTAB
  0
TABLE
  2
APPID
  5
3
330
0
100
AcDbSymbolTable
 70
3
  0
APPID
  5
2A
330
3
100
AcDbSymbolTableRecord
100
AcDbRegAppTableRecord
  2
ACAD
 70
0
  0
APPID
  5
1CC
330
3
100
AcDbSymbolTableRecord
100
AcDbRegAppTableRecord
  2
HATCHBACKGROUNDCOLOR
 70
0
  0
APPID
  5
1CD
330
3
100
AcDbSymbolTableRecord
100
AcDbRegAppTableRecord
  2
EZDXF
 70
0
  0
ENDTAB
  0
TABLE
  2
DIMSTYLE
  5
4
330
0
100
AcDbSymbolTable
 70
1
100
AcDbDimStyleTable
  0
DIMSTYLE
105
2B
330
4
100
AcDbSymbolTableRecord
100
AcDbDimStyleTableRecord
  2
Standard
 70
0
 40
1.0
 41
2.5
 42
0.625
 43
3.75
 44
1.25
 45
0.0
 46
0.0
 47
0.0
 48
0.0
 49
2.5
140
2.5
141
2.5
142
0.0
143
0.03937007874
144
1.0
145
0.0
146
1.0
147
0.625
148
0.0
 69
0
 70
0
 71
0
 72
0
 73
0
 74
0
 75
0
 76
0
 77
1
 78
8
 79
3
170
0
171
3
172
1
173
0
174
0
175
0
176
0
177
0
178
0
179
2
271
2
272
2
273
2
274
3
275
0
276
0
277
2
278
44
279
0
280
0
281
0
282
0
283
0
284
8
285
0
286
0
288
0
289
3
290
0
371
-2
372
-2
  0
ENDTAB
  0
TABLE
  2
BLOCK_RECORD
  5
9
330
0
100
AcDbSymbolTable
 70
2
  0
BLOCK_RECORD
  5
17
330
9
100
AcDbSymbolTableRecord
100
AcDbBlockTableRecord
  2
*Model_Space
340
1A
 70
0
280
1
281
0
  0
BLOCK_RECORD
  5
1B
330
9
100
AcDbSymbolTableRecord
100
AcDbBlockTableRecord
  2
*Paper_Space
340
1E
 70
0
280
1
281
0
  0
ENDTAB
  0
ENDSEC
  0
SECTION
  2
BLOCKS
  0
BLOCK
  5
18
330
17
100
AcDbEntity
  8
0
100
AcDbBlockBegin
  2
*Model_Space
 70
0
 10
0.0
 20
0.0
 30
0.0
  3
*Model_Space
  1

  0
ENDBLK
  5
19
330
17
100
AcDbEntity
  8
0
100
AcDbBlockEnd
  0
BLOCK
  5
1C
330
1B
100
AcDbEntity
  8
0
100
AcDbBlockBegin
  2
*Paper_Space
 70
0
 10
0.0
 20
0.0
 30
0.0
  3
*Paper_Space
  1

  0
ENDBLK
  5
1D
330
1B
100
AcDbEntity
  8
0
100
AcDbBlockEnd
  0
ENDSEC
  0
SECTION
  2
ENTITIES
  0
LWPOLYLINE
  5
30
330
17
100
AcDbEntity
  8
0
100
AcDbPolyline
 90
4
 70
1
 10
18.000000000000043
 20
288.60000000000014
 10
17.999999999999986
 20
48.0
 42
0.9999999999999999
 10
78.00000000000003
 20
48.0
 10
78.00000000000004
 20
288.60000000000014
 42
0.9999999999999999
  0
CIRCLE
  5
31
330
17
100
AcDbEntity
  8
0
100
AcDbCircle
 10
48.00000000000006
 20
288.60000000000014
 30
0.0
 40
11.0
  0
CIRCLE
  5
32
330
17
100
AcDbEntity
  8
0
100
AcDbCircle
 10
48.00000000000003
 20
48.0
 30
0.0
 40
11.0
  0
TEXT
  5
33
330
17
100
AcDbEntity
  8
LABEL
100
AcDbText
 10
48.00000000000003
 20
149.51250000000005
 30
0.0
 40
11.859375
  1
LinkD
 50
90.0
 72
1
 11
48.00000000000003
 21
149.51250000000005
 31
0.0
100
AcDbText
 73
2
  0
LWPOLYLINE
  5
34
330
17
100
AcDbEntity
  8
0
100
AcDbPolyline
 90
4
 70
1
 10
18.000000000000043
 20
595.2000000000003
 10
17.999999999999986
 20
354.60000000000014
 42
0.9999999999999999
 10
78.00000000000003
 20
354.60000000000014
 10
78.00000000000004
 20
595.2000000000003
 42
0.9999999999999999
  0
CIRCLE
  5
35
330
17
100
AcDbEntity
  8
0
100
AcDbCircle
 10
48.00000000000006
 20
595.2000000000003
 30
0.0
 40
11.0
  0
CIRCLE
  5
36
330
17
100
AcDbEntity
  8
0
100
AcDbCircle
 10
48.00000000000003
 20
354.60000000000014
 30
0.0
 40
11.0
  0
TEXT
  5
37
330
17
100
AcDbEntity
  8
LABEL
100
AcDbText
 10
48.00000000000003
 20
456.1125000000002
 30
0.0
 40
11.859375
  1
LinkD
 50
90.0
 72
1
 11
48.00000000000003
 21
456.1125000000002
 31
0.0
100
AcDbText
 73
2
  0
LWPOLYLINE
  5
38
330
17
100
AcDbEntity
  8
0
100
AcDbPolyline
 90
4
 70
1
 10
18.000000000000043
 20
901.8000000000004
 10
17.999999999999986
 20
661.2000000000003
 42
0.9999999999999999
 10
78.00000000000003
 20
661.2000000000003
 10
78.00000000000004
 20
901.8000000000004
 42
0.9999999999999999
  0
CIRCLE
  5
39
330
17
100
AcDbEntity
  8
0
100
AcDbCircle
 10
48.00000000000006
 20
901.8000000000004
 30
0.0
 40
11.0
  0
CIRCLE
  5
3A
330
17
100
AcDbEntity
  8
0
100
AcDbCircle
 10
48.00000000000003
 20
661.2000000000003
 30
0.0
 40
11.0
  0
TEXT
  5
3B
330
17
100
AcDbEntity
  8
LABEL
100
AcDbText
 10
48.00000000000003
 20
762.7125000000003
 30
0.0
 40
11.859375
  1
LinkD
 50
90.0
 72
1
 11
48.00000000000003
 21
762.7125000000003
 31
0.0
100
AcDbText
 73
2
  0
LWPOLYLINE
  5
3C
330
17
100
AcDbEntity
  8
0
100
AcDbPolyline
 90
4
 70
1
 10
288.60000000000014
 20
997.8000000000004
 10
48.0
 20
997.8000000000005
 42
0.9999999999999999
 10
48.0
 20
937.8000000000004
 10
288.60000000000014
 20
937.8000000000004
 42
0.9999999999999999
  0
CIRCLE
  5
3D
330
17
100
AcDbEntity
  8
0
100
AcDbCircle
 10
288.60000000000014
 20
967.8000000000004
 30
0.0
 40
11.0
  0
CIRCLE
  5
3E
330
17
100
AcDbEntity
  8
0
100
AcDbCircle
 10
48.0
 20
967.8000000000004
 30
0.0
 40
11.0
  0
TEXT
  5
3F
330
17
100
AcDbEntity
  8
LABEL
100
AcDbText
 10
149.51250000000005
 20
967.8000000000004
 30
0.0
 40
11.859375
  1
LinkD
 72
1
 11
149.51250000000005
 21
967.8000000000004
 31
0.0
100
AcDbText
 73
2
  0
LWPOLYLINE
  5
40
330
17
100
AcDbEntity
  8
0
100
AcDbPolyline
 90
4
 70
1
 10
288.60000000000014
 20
1063.8000000000004
 10
48.0
 20
1063.8000000000004
 42
0.9999999999999999
 10
48.0
 20
1003.8000000000004
 10
288.60000000000014
 20
1003.8000000000004
 42
0.9999999999999999
  0
CIRCLE
  5
41
330
17
100
AcDbEntity
  8
0
100
AcDbCircle
 10
288.60000000000014
 20
1033.8000000000004
 30
0.0
 40
11.0
  0
CIRCLE
  5
42
330
17
100
AcDbEntity
  8
0
100
AcDbCircle
 10
48.0
 20
1033.8000000000004
 30
0.0
 40
11.0
  0
TEXT
  5
43
330
17
100
AcDbEntity
  8
LABEL
100
AcDbText
 10
149.51250000000005
 20
1033.8000000000004
 30
0.0
 40
11.859375
  1
LinkD
 72
1
 11
149.51250000000005
 21
1033.8000000000004
 31
0.0
100
AcDbText
 73
2
  0
LWPOLYLINE
  5
44
330
17
100
AcDbEntity
  8
0
100
AcDbPolyline
 90
4
 70
1
 10
288.60000000000014
 20
1129.8000000000004
 10
48.0
 20
1129.8000000000004
 42
0.9999999999999999
 10
48.0
 20
1069.8000000000004
 10
288.60000000000014
 20
1069.8000000000004
 42
0.9999999999999999
  0
CIRCLE
  5
45
330
17
100
AcDbEntity
  8
0
100
AcDbCircle
 10
288.60000000000014
 20
1099.8000000000004
 30
0.0
 40
11.0
  0
CIRCLE
  5
46
330
17
100
AcDbEntity
  8
0
100
AcDbCircle
 10
48.0
 20
1099.8000000000004
 30
0.0
 40
11.0
  0
TEXT
  5
47
330
17
100
AcDbEntity
  8
LABEL
100
AcDbText
 10
149.51250000000005
 20
1099.8000000000004
 30
0.0
 40
11.859375
  1
LinkD
 72
1
 11
149.51250000000005
 21
1099.8000000000004
 31
0.0
100
AcDbText
 73
2
  0
LWPOLYLINE
  5
48
330
17
100
AcDbEntity
  8
0
100
AcDbPolyline
 90
4
 70
1
 10
288.60000000000014
 20
1195.8000000000004
 10
48.0
 20
1195.8000000000004
 42
0.9999999999999999
 10
48.0
 20
1135.8000000000004
 10
288.60000000000014
 20
1135.8000000000004
 42
0.9999999999999999
  0
CIRCLE
  5
49
330
17
100
AcDbEntity
  8
0
100
AcDbCircle
 10
288.60000000000014
 20
1165.8000000000004
 30
0.0
 40
11.0
  0
CIRCLE
  5
4A
330
17
100
AcDbEntity
  8
0
100
AcDbCircle
 10
48.0
 20
1165.8000000000004
 30
0.0
 40
11.0
  0
TEXT
  5
4B
330
17
100
AcDbEntity
  8
LABEL
100
AcDbText
 10
149.51250000000005
 20
1165.8000000000004
 30
0.0
 40
11.859375
  1
LinkD
 72
1
 11
149.51250000000005
 21
1165.8000000000004
 31
0.0
100
AcDbText
 73
2
  0
LWPOLYLINE
  5
4C
330
17
100
AcDbEntity
  8
0
100
AcDbPolyline
 90
4
 70
1
 10
84.0000000000001
 20
288.60000000000014
 10
84.00000000000004
 20
48.0
 42
0.9999999999999999
 10
144.00000000000009
 20
48.0
 10
144.0000000000001
 20
288.60000000000014
 42
0.9999999999999999
  0
CIRCLE
  5
4D
330
17
100
AcDbEntity
  8
0
100
AcDbCircle
 10
114.00000000000011
 20
288.60000000000014
 30
0.0
 40
11.0
  0
CIRCLE
  5
4E
330
17
100
AcDbEntity
  8
0
100
AcDbCircle
 10
114.00000000000009
 20
48.0
 30
0.0
 40
11.0
  0
TEXT
  5
4F
330
17
100
AcDbEntity
  8
LABEL
100
AcDbText
 10
114.00000000000009
 20
149.51250000000005
 30
0.0
 40
11.859375
  1
LinkD
 50
90.0
 72
1
 11
114.00000000000009
 21
149.51250000000005
 31
0.0
100
AcDbText
 73
2
  0
LWPOLYLINE
  5
50
330
17
100
AcDbEntity
  8
0
100
AcDbPolyline
 90
4
 70
1
 10
84.0000000000001
 20
595.2000000000003
 10
84.00000000000004
 20
354.60000000000014
 42
0.9999999999999999
 10
144.00000000000009
 20
354.60000000000014
 10
144.0000000000001
 20
595.2000000000003
 42
0.9999999999999999
  0
CIRCLE
  5
51
330
17
100
AcDbEntity
  8
0
100
AcDbCircle
 10
114.00000000000011
 20
595.2000000000003
 30
0.0
 40
11.0
  0
CIRCLE
  5
52
330
17
100
AcDbEntity
  8
0
100
AcDbCircle
 10
114.00000000000009
 20
354.60000000000014
 30
0.0
 40
11.0
  0
TEXT
  5
53
330
17
100
AcDbEntity
  8
LABEL
100
AcDbText
 10
114.00000000000009
 20
456.1125000000002
 30
0.0
 40
11.859375
  1
LinkD
 50
90.0
 72
1
 11
114.00000000000009
 21
456.1125000000002
 31
0.0
100
AcDbText
 73
2
  0
LWPOLYLINE
  5
54
330
17
100
AcDbEntity
  8
0
100
AcDbPolyline
 90
4
 70
1
 10
84.0000000000001
 20
901.8000000000004
 10
84.00000000000004
 20
661.2000000000003
 42
0.9999999999999999
 10
144.00000000000009
 20
661.2000000000003
 10
144.0000000000001
 20
901.8000000000004
 42
0.9999999999999999
  0
CIRCLE
  5
55
330
17
100
AcDbEntity
  8
0
100
AcDbCircle
 10
114.00000000000011
 20
901.8000000000004
 30
0.0
 40
11.0
  0
CIRCLE
  5
56
330
17
100
AcDbEntity
  8
0
100
AcDbCircle
 10
114.00000000000009
 20
661.2000000000003
 30
0.0
 40
11.0
  0
TEXT
  5
57
330
17
100
AcDbEntity
  8
LABEL
100
AcDbText
 10
114.00000000000009
 20
762.7125000000003
 30
0.0
 40
11.859375
  1
LinkD
 50
90.0
 72
1
 11
114.00000000000009
 21
762.7125000000003
 31
0.0
100
AcDbText
 73
2
  0
LWPOLYLINE
  5
58
330
17
100
AcDbEntity
  8
0
100
AcDbPolyline
 90
4
 70
1
 10
150.00000000000017
 20
288.60000000000014
 10
150.0000000000001
 20
48.0
 42
0.9999999999999999
 10
210.00000000000014
 20
48.0
 10
210.00000000000017
 20
288.60000000000014
 42
0.9999999999999999
  0
CIRCLE
  5
59
330
17
100
AcDbEntity
  8
0
100
AcDbCircle
 10
180.00000000000017
 20
288.60000000000014
 30
0.0
 40
11.0
  0
CIRCLE
  5
5A
330
17
100
AcDbEntity
  8
0
100
AcDbCircle
 10
180.00000000000014
 20
48.0
 30
0.0
 40
11.0
  0
TEXT
  5
5B
330
17
100
AcDbEntity
  8
LABEL
100
AcDbText
 10
180.00000000000014
 20
149.51250000000005
 30
0.0
 40
11.859375
  1
LinkD
 50
90.0
 72
1
 11
180.00000000000014
 21
149.51250000000005
 31
0.0
100
AcDbText
 73
2
  0
LWPOLYLINE
  5
5C
330
17
100
AcDbEntity
  8
0
100
AcDbPolyline
 90
4
 70
1
 10
150.00000000000017
 20
595.2000000000003
 10
150.0000000000001
 20
354.60000000000014
 42
0.9999999999999999
 10
210.00000000000014
 20
354.60000000000014
 10
210.00000000000017
 20
595.2000000000003
 42
0.9999999999999999
  0
CIRCLE
  5
5D
330
17
100
AcDbEntity
  8
0
100
AcDbCircle
 10
180.00000000000017
 20
595.2000000000003
 30
0.0
 40
11.0
  0
CIRCLE
  5
5E
330
17
100
AcDbEntity
  8
0
100
AcDbCircle
 10
180.00000000000014
 20
354.60000000000014
 30
0.0
 40
11.0
  0
TEXT
  5
5F
330
17
100
AcDbEntity
  8
LABEL
100
AcDbText
 10
180.00000000000014
 20
456.1125000000002
 30
0.0
 40
11.859375
  1
LinkD
 50
90.0
 72
1
 11
180.00000000000014
 21
456.1125000000002
 31
0.0
100
AcDbText
 73
2
  0
LWPOLYLINE
  5
60
330
17
100
AcDbEntity
  8
0
100
AcDbPolyline
 90
4
 70
1
 10
150.00000000000017
 20
901.8000000000004
 10
150.0000000000001
 20
661.2000000000003
 42
0.9999999999999999
 10
210.00000000000014
 20
661.2000000000003
 10
210.00000000000017
 20
901.8000000000004
 42
0.9999999999999999
  0
CIRCLE
  5
61
330
17
100
AcDbEntity
  8
0
100
AcDbCircle
 10
180.00000000000017
 20
901.8000000000004
 30
0.0
 40
11.0
  0
CIRCLE
  5
62
330
17
100
AcDbEntity
  8
0
100
AcDbCircle
 10
180.00000000000014
 20
661.2000000000003
 30
0.0
 40
11.0
  0
TEXT
  5
63
330
17
100
AcDbEntity
  8
LABEL
100
AcDbText
 10
180.00000000000014
 20
762.7125000000003
 30
0.0
 40
11.859375
  1
LinkD
 50
90.0
 72
1
 11
180.00000000000014
 21
762.7125000000003
 31
0.0
100
AcDbText
 73
2
  0
LWPOLYLINE
  5
64
330
17
100
AcDbEntity
  8
0
100
AcDbPolyline
 90
4
 70
1
 10
216.00000000000023
 20
288.60000000000014
 10
216.00000000000017
 20
48.0
 42
0.9999999999999999
 10
276.0000000000002
 20
48.0
 10
276.0000000000002
 20
288.60000000000014
 42
0.9999999999999999
  0
CIRCLE
  5
65
330
17
100
AcDbEntity
  8
0
100
AcDbCircle
 10
246.00000000000023
 20
288.60000000000014
 30
0.0
 40
11.0
  0
CIRCLE
  5
66
330
17
100
AcDbEntity
  8
0
100
AcDbCircle
 10
246.0000000000002
 20
48.0
 30
0.0
 40
11.0
  0
TEXT
  5
67
330
17
100
AcDbEntity
  8
LABEL
100
AcDbText
 10
246.0000000000002
 20
149.51250000000005
 30
0.0
 40
11.859375
  1
LinkD
 50
90.0
 72
1
 11
246.0000000000002
 21
149.51250000000005
 31
0.0
100
AcDbText
 73
2
  0
LWPOLYLINE
  5
68
330
17
100
AcDbEntity
  8
0
100
AcDbPolyline
 90
4
 70
1
 10
216.00000000000023
 20
595.2000000000003
 10
216.00000000000017
 20
354.60000000000014
 42
0.9999999999999999
 10
276.0000000000002
 20
354.60000000000014
 10
276.0000000000002
 20
595.2000000000003
 42
0.9999999999999999
  0
CIRCLE
  5
69
330
17
100
AcDbEntity
  8
0
100
AcDbCircle
 10
246.00000000000023
 20
595.2000000000003
 30
0.0
 40
11.0
  0
CIRCLE
  5
6A
330
17
100
AcDbEntity
  8
0
100
AcDbCircle
 10
246.0000000000002
 20
354.60000000000014
 30
0.0
 40
11.0
  0
TEXT
  5
6B
330
17
100
AcDbEntity
  8
LABEL
100
AcDbText
 10
246.0000000000002
 20
456.1125000000002
 30
0.0
 40
11.859375
  1
LinkD
 50
90.0
 72
1
 11
246.0000000000002
 21
456.1125000000002
 31
0.0
100
AcDbText
 73
2
  0
LWPOLYLINE
  5
6C
330
17
100
AcDbEntity
  8
0
100
AcDbPolyline
 90
4
 70
1
 10
216.00000000000023
 20
901.8000000000004
 10
216.00000000000017
 20
661.2000000000003
 42
0.9999999999999999
 10
276.0000000000002
 20
661.2000000000003
 10
276.0000000000002
 20
901.8000000000004
 42
0.9999999999999999
  0
CIRCLE
  5
6D
330
17
100
AcDbEntity
  8
0
100
AcDbCircle
 10
246.00000000000023
 20
901.8000000000004
 30
0.0
 40
11.0
  0
CIRCLE
  5
6E
330
17
100
AcDbEntity
  8
0
100
AcDbCircle
 10
246.0000000000002
 20
661.2000000000003
 30
0.0
 40
11.0
  0
TEXT
  5
6F
330
17
100
AcDbEntity
  8
LABEL
100
AcDbText
 10
246.0000000000002
 20
762.7125000000003
 30
0.0
 40
11.859375
  1
LinkD
 50
90.0
 72
1
 11
246.0000000000002
 21
762.7125000000003
 31
0.0
100
AcDbText
 73
2
  0
LWPOLYLINE
  5
70
330
17
100
AcDbEntity
  8
0
100
AcDbPolyline
 90
4
 70
1
 10
282.0000000000003
 20
288.60000000000014
 10
282.0000000000002
 20
48.0
 42
0.9999999999999999
 10
342.0000000000002
 20
48.0
 10
342.0000000000003
 20
288.60000000000014
 42
0.9999999999999999
  0
CIRCLE
  5
71
330
17
100
AcDbEntity
  8
0
100
AcDbCircle
 10
312.0000000000003
 20
288.60000000000014
 30
0.0
 40
11.0
  0
CIRCLE
  5
72
330
17
100
AcDbEntity
  8
0
100
AcDbCircle
 10
312.0000000000002
 20
48.0
 30
0.0
 40
11.0
  0
TEXT
  5
73
330
17
100
AcDbEntity
  8
LABEL
100
AcDbText
 10
312.0000000000002
 20
149.51250000000005
 30
0.0
 40
11.859375
  1
LinkD
 50
90.0
 72
1
 11
312.0000000000002
 21
149.51250000000005
 31
0.0
100
AcDbText
 73
2
  0
LWPOLYLINE
  5
74
330
17
100
AcDbEntity
  8
0
100
AcDbPolyline
 90
4
 70
1
 10
282.0000000000003
 20
595.2000000000003
 10
282.0000000000002
 20
354.60000000000014
 42
0.9999999999999999
 10
342.0000000000002
 20
354.60000000000014
 10
342.0000000000003
 20
595.2000000000003
 42
0.9999999999999999
  0
CIRCLE
  5
75
330
17
100
AcDbEntity
  8
0
100
AcDbCircle
 10
312.0000000000003
 20
595.2000000000003
 30
0.0
 40
11.0
  0
CIRCLE
  5
76
330
17
100
AcDbEntity
  8
0
100
AcDbCircle
 10
312.0000000000002
 20
354.60000000000014
 30
0.0
 40
11.0
  0
TEXT
  5
77
330
17
100
AcDbEntity
  8
LABEL
100
AcDbText
 10
312.0000000000002
 20
456.1125000000002
 30
0.0
 40
11.859375
  1
LinkD
 50
90.0
 72
1
 11
312.0000000000002
 21
456.1125000000002
 31
0.0
100
AcDbText
 73
2
  0
CIRCLE
  5
78
330
17
100
AcDbEntity
  8
0
100
AcDbCircle
 10
312.0000000000002
 20
661.2000000000003
 30
0.0
 40
11.0
  0
CIRCLE
  5
79
330
17
100
AcDbEntity
  8
0
100
AcDbCircle
 10
312.0000000000002
 20
897.0000000000002
 30
0.0
 40
11.0
  0
LWPOLYLINE
  5
7A
330
17
100
AcDbEntity
  8
0
100
AcDbPolyline
 90
4
 70
1
 10
342.0000000000002
 20
897.0000000000002
 42
0.9999999999999999
 10
282.0000000000002
 20
897.0000000000002
 10
282.0000000000002
 20
661.2000000000003
 42
0.9999999999999999
 10
342.0000000000002
 20
661.2000000000003
  0
TEXT
  5
7B
330
17
100
AcDbEntity
  8
LABEL
100
AcDbText
 10
312.0000000000002
 20
853.0500000000003
 30
0.0
 40
11.859375
  1
LinkC
 50
90.0
 72
1
 11
312.0000000000002
 21
853.0500000000003
 31
0.0
100
AcDbText
 73
2
  0
CIRCLE
  5
7C
330
17
100
AcDbEntity
  8
0
100
AcDbCircle
 10
354.6000000000001
 20
963.0000000000002
 30
0.0
 40
11.0
  0
CIRCLE
  5
7D
330
17
100
AcDbEntity
  8
0
100
AcDbCircle
 10
590.4000000000001
 20
963.0000000000002
 30
0.0
 40
11.0
  0
LWPOLYLINE
  5
7E
330
17
100
AcDbEntity
  8
0
100
AcDbPolyline
 90
4
 70
1
 10
590.4000000000001
 20
933.0000000000002
 42
0.9999999999999999
 10
590.4000000000001
 20
993.0000000000002
 10
354.6000000000001
 20
993.0000000000002
 42
0.9999999999999999
 10
354.60000000000014
 20
933.0000000000002
  0
TEXT
  5
7F
330
17
100
AcDbEntity
  8
LABEL
100
AcDbText
 10
546.45
 20
963.0000000000002
 30
0.0
 40
11.859375
  1
LinkC
 72
1
 11
546.45
 21
963.0000000000002
 31
0.0
100
AcDbText
 73
2
  0
CIRCLE
  5
80
330
17
100
AcDbEntity
  8
0
100
AcDbCircle
 10
378.0000000000002
 20
661.2000000000003
 30
0.0
 40
11.0
  0
CIRCLE
  5
81
330
17
100
AcDbEntity
  8
0
100
AcDbCircle
 10
378.0000000000002
 20
897.0000000000002
 30
0.0
 40
11.0
  0
LWPOLYLINE
  5
82
330
17
100
AcDbEntity
  8
0
100
AcDbPolyline
 90
4
 70
1
 10
408.0000000000002
 20
897.0000000000002
 42
0.9999999999999999
 10
348.0000000000002
 20
897.0000000000002
 10
348.0000000000002
 20
661.2000000000003
 42
0.9999999999999999
 10
408.0000000000002
 20
661.2000000000003
  0
TEXT
  5
83
330
17
100
AcDbEntity
  8
LABEL
100
AcDbText
 10
378.0000000000002
 20
853.0500000000003
 30
0.0
 40
11.859375
  1
LinkC
 50
90.0
 72
1
 11
378.0000000000002
 21
853.0500000000003
 31
0.0
100
AcDbText
 73
2
  0
CIRCLE
  5
84
330
17
100
AcDbEntity
  8
0
100
AcDbCircle
 10
354.6000000000001
 20
1029.0000000000002
 30
0.0
 40
11.0
  0
CIRCLE
  5
85
330
17
100
AcDbEntity
  8
0
100
AcDbCircle
 10
590.4000000000001
 20
1029.0000000000002
 30
0.0
 40
11.0
  0
LWPOLYLINE
  5
86
330
17
100
AcDbEntity
  8
0
100
AcDbPolyline
 90
4
 70
1
 10
590.4000000000001
 20
999.0000000000002
 42
0.9999999999999999
 10
590.4000000000001
 20
1059.0000000000002
 10
354.6000000000001
 20
1059.0000000000002
 42
0.9999999999999999
 10
354.60000000000014
 20
999.0000000000002
  0
TEXT
  5
87
330
17
100
AcDbEntity
  8
LABEL
100
AcDbText
 10
546.45
 20
1029.0000000000002
 30
0.0
 40
11.859375
  1
LinkC
 72
1
 11
546.45
 21
1029.0000000000002
 31
0.0
100
AcDbText
 73
2
  0
CIRCLE
  5
88
330
17
100
AcDbEntity
  8
0
100
AcDbCircle
 10
354.6000000000001
 20
1095.0000000000002
 30
0.0
 40
11.0
  0
CIRCLE
  5
89
330
17
100
AcDbEntity
  8
0
100
AcDbCircle
 10
590.4000000000001
 20
1095.0000000000002
 30
0.0
 40
11.0
  0
LWPOLYLINE
  5
8A
330
17
100
AcDbEntity
  8
0
100
AcDbPolyline
 90
4
 70
1
 10
590.4000000000001
 20
1065.0000000000002
 42
0.9999999999999999
 10
590.4000000000001
 20
1125.0000000000002
 10
354.6000000000001
 20
1125.0000000000002
 42
0.9999999999999999
 10
354.60000000000014
 20
1065.0000000000002
  0
TEXT
  5
8B
330
17
100
AcDbEntity
  8
LABEL
100
AcDbText
 10
546.45
 20
1095.0000000000002
 30
0.0
 40
11.859375
  1
LinkC
 72
1
 11
546.45
 21
1095.0000000000002
 31
0.0
100
AcDbText
 73
2
  0
CIRCLE
  5
8C
330
17
100
AcDbEntity
  8
0
100
AcDbCircle
 10
354.6000000000001
 20
1161.0000000000002
 30
0.0
 40
11.0
  0
CIRCLE
  5
8D
330
17
100
AcDbEntity
  8
0
100
AcDbCircle
 10
590.4000000000001
 20
1161.0000000000002
 30
0.0
 40
11.0
  0
LWPOLYLINE
  5
8E
330
17
100
AcDbEntity
  8
0
100
AcDbPolyline
 90
4
 70
1
 10
590.4000000000001
 20
1131.0000000000002
 42
0.9999999999999999
 10
590.4000000000001
 20
1191.0000000000002
 10
354.6000000000001
 20
1191.0000000000002
 42
0.9999999999999999
 10
354.60000000000014
 20
1131.0000000000002
  0
TEXT
  5
8F
330
17
100
AcDbEntity
  8
LABEL
100
AcDbText
 10
546.45
 20
1161.0000000000002
 30
0.0
 40
11.859375
  1
LinkC
 72
1
 11
546.45
 21
1161.0000000000002
 31
0.0
100
AcDbText
 73
2
  0
CIRCLE
  5
90
330
17
100
AcDbEntity
  8
0
100
AcDbCircle
 10
378.0000000000002
 20
47.99999999999994
 30
0.0
 40
11.0
  0
CIRCLE
  5
91
330
17
100
AcDbEntity
  8
0
100
AcDbCircle
 10
378.0000000000002
 20
283.79999999999995
 30
0.0
 40
11.0
  0
LWPOLYLINE
  5
92
330
17
100
AcDbEntity
  8
0
100
AcDbPolyline
 90
4
 70
1
 10
408.0000000000002
 20
283.79999999999995
 42
0.9999999999999999
 10
348.0000000000002
 20
283.79999999999995
 10
348.0000000000002
 20
47.99999999999994
 42
0.9999999999999999
 10
408.0000000000002
 20
48.00000000000003
  0
TEXT
  5
93
330
17
100
AcDbEntity
  8
LABEL
100
AcDbText
 10
378.0000000000002
 20
239.84999999999997
 30
0.0
 40
11.859375
  1
LinkC
 50
90.0
 72
1
 11
378.0000000000002
 21
239.84999999999997
 31
0.0
100
AcDbText
 73
2
  0
CIRCLE
  5
94
330
17
100
AcDbEntity
  8
0
100
AcDbCircle
 10
378.0000000000002
 20
349.7999999999999
 30
0.0
 40
11.0
  0
CIRCLE
  5
95
330
17
100
AcDbEntity
  8
0
100
AcDbCircle
 10
378.0000000000002
 20
585.5999999999999
 30
0.0
 40
11.0
  0
LWPOLYLINE
  5
96
330
17
100
AcDbEntity
  8
0
100
AcDbPolyline
 90
4
 70
1
 10
408.0000000000002
 20
585.5999999999999
 42
0.9999999999999999
 10
348.0000000000002
 20
585.5999999999999
 10
348.0000000000002
 20
349.7999999999999
 42
0.9999999999999999
 10
408.0000000000002
 20
349.79999999999995
  0
TEXT
  5
97
330
17
100
AcDbEntity
  8
LABEL
100
AcDbText
 10
378.0000000000002
 20
541.65
 30
0.0
 40
11.859375
  1
LinkC
 50
90.0
 72
1
 11
378.0000000000002
 21
541.65
 31
0.0
100
AcDbText
 73
2
  0
CIRCLE
  5
98
330
17
100
AcDbEntity
  8
0
100
AcDbCircle
 10
444.0000000000002
 20
651.5999999999999
 30
0.0
 40
11.0
  0
CIRCLE
  5
99
330
17
100
AcDbEntity
  8
0
100
AcDbCircle
 10
444.0000000000002
 20
887.3999999999999
 30
0.0
 40
11.0
  0
LWPOLYLINE
  5
9A
330
17
100
AcDbEntity
  8
0
100
AcDbPolyline
 90
4
 70
1
 10
474.0000000000002
 20
887.3999999999999
 42
0.9999999999999999
 10
414.0000000000002
 20
887.3999999999999
 10
414.0000000000002
 20
651.5999999999999
 42
0.9999999999999999
 10
474.0000000000002
 20
651.5999999999999
  0
TEXT
  5
9B
330
17
100
AcDbEntity
  8
LABEL
100
AcDbText
 10
444.0000000000002
 20
843.4499999999999
 30
0.0
 40
11.859375
  1
LinkC
 50
90.0
 72
1
 11
444.0000000000002
 21
843.4499999999999
 31
0.0
100
AcDbText
 73
2
  0
CIRCLE
  5
9C
330
17
100
AcDbEntity
  8
0
100
AcDbCircle
 10
444.00000000000034
 20
47.99999999999994
 30
0.0
 40
11.0
  0
CIRCLE
  5
9D
330
17
100
AcDbEntity
  8
0
100
AcDbCircle
 10
444.00000000000034
 20
283.79999999999995
 30
0.0
 40
11.0
  0
LWPOLYLINE
  5
9E
330
17
100
AcDbEntity
  8
0
100
AcDbPolyline
 90
4
 70
1
 10
474.00000000000034
 20
283.79999999999995
 42
0.9999999999999999
 10
414.00000000000034
 20
283.79999999999995
 10
414.00000000000034
 20
47.99999999999994
 42
0.9999999999999999
 10
474.00000000000034
 20
48.00000000000003
  0
TEXT
  5
9F
330
17
100
AcDbEntity
  8
LABEL
100
AcDbText
 10
444.00000000000034
 20
239.84999999999997
 30
0.0
 40
11.859375
  1
LinkC
 50
90.0
 72
1
 11
444.00000000000034
 21
239.84999999999997
 31
0.0
100
AcDbText
 73
2
  0
CIRCLE
  5
A0
330
17
100
AcDbEntity
  8
0
100
AcDbCircle
 10
444.00000000000034
 20
349.7999999999999
 30
0.0
 40
11.0
  0
CIRCLE
  5
A1
330
17
100
AcDbEntity
  8
0
100
AcDbCircle
 10
444.00000000000034
 20
585.5999999999999
 30
0.0
 40
11.0
  0
LWPOLYLINE
  5
A2
330
17
100
AcDbEntity
  8
0
100
AcDbPolyline
 90
4
 70
1
 10
474.00000000000034
 20
585.5999999999999
 42
0.9999999999999999
 10
414.00000000000034
 20
585.5999999999999
 10
414.00000000000034
 20
349.7999999999999
 42
0.9999999999999999
 10
474.00000000000034
 20
349.79999999999995
  0
TEXT
  5
A3
330
17
100
AcDbEntity
  8
LABEL
100
AcDbText
 10
444.00000000000034
 20
541.65
 30
0.0
 40
11.859375
  1
LinkC
 50
90.0
 72
1
 11
444.00000000000034
 21
541.65
 31
0.0
100
AcDbText
 73
2
  0
CIRCLE
  5
A4
330
17
100
AcDbEntity
  8
0
100
AcDbCircle
 10
510.0000000000002
 20
651.5999999999999
 30
0.0
 40
11.0
  0
CIRCLE
  5
A5
330
17
100
AcDbEntity
  8
0
100
AcDbCircle
 10
510.0000000000002
 20
887.3999999999999
 30
0.0
 40
11.0
  0
LWPOLYLINE
  5
A6
330
17
100
AcDbEntity
  8
0
100
AcDbPolyline
 90
4
 70
1
 10
540.0000000000002
 20
887.3999999999999
 42
0.9999999999999999
 10
480.0000000000002
 20
887.3999999999999
 10
480.0000000000002
 20
651.5999999999999
 42
0.9999999999999999
 10
540.0000000000002
 20
651.5999999999999
  0
TEXT
  5
A7
330
17
100
AcDbEntity
  8
LABEL
100
AcDbText
 10
510.0000000000002
 20
843.4499999999999
 30
0.0
 40
11.859375
  1
LinkC
 50
90.0
 72
1
 11
510.0000000000002
 21
843.4499999999999
 31
0.0
100
AcDbText
 73
2
  0
CIRCLE
  5
A8
330
17
100
AcDbEntity
  8
0
100
AcDbCircle
 10
510.00000000000034
 20
47.99999999999994
 30
0.0
 40
11.0
  0
CIRCLE
  5
A9
330
17
100
AcDbEntity
  8
0
100
AcDbCircle
 10
510.00000000000034
 20
283.79999999999995
 30
0.0
 40
11.0
  0
LWPOLYLINE
  5
AA
330
17
100
AcDbEntity
  8
0
100
AcDbPolyline
 90
4
 70
1
 10
540.0000000000003
 20
283.79999999999995
 42
0.9999999999999999
 10
480.00000000000034
 20
283.79999999999995
 10
480.00000000000034
 20
47.99999999999994
 42
0.9999999999999999
 10
540.0000000000003
 20
48.00000000000003
  0
TEXT
  5
AB
330
17
100
AcDbEntity
  8
LABEL
100
AcDbText
 10
510.00000000000034
 20
239.84999999999997
 30
0.0
 40
11.859375
  1
LinkC
 50
90.0
 72
1
 11
510.00000000000034
 21
239.84999999999997
 31
0.0
100
AcDbText
 73
2
  0
CIRCLE
  5
AC
330
17
100
AcDbEntity
  8
0
100
AcDbCircle
 10
510.00000000000034
 20
349.7999999999999
 30
0.0
 40
11.0
  0
CIRCLE
  5
AD
330
17
100
AcDbEntity
  8
0
100
AcDbCircle
 10
510.00000000000034
 20
585.5999999999999
 30
0.0
 40
11.0
  0
LWPOLYLINE
  5
AE
330
17
100
AcDbEntity
  8
0
100
AcDbPolyline
 90
4
 70
1
 10
540.0000000000003
 20
585.5999999999999
 42
0.9999999999999999
 10
480.00000000000034
 20
585.5999999999999
 10
480.00000000000034
 20
349.7999999999999
 42
0.9999999999999999
 10
540.0000000000003
 20
349.79999999999995
  0
TEXT
  5
AF
330
17
100
AcDbEntity
  8
LABEL
100
AcDbText
 10
510.00000000000034
 20
541.65
 30
0.0
 40
11.859375
  1
LinkC
 50
90.0
 72
1
 11
510.00000000000034
 21
541.65
 31
0.0
100
AcDbText
 73
2
  0
CIRCLE
  5
B0
330
17
100
AcDbEntity
  8
0
100
AcDbCircle
 10
576.0000000000002
 20
651.5999999999999
 30
0.0
 40
11.0
  0
CIRCLE
  5
B1
330
17
100
AcDbEntity
  8
0
100
AcDbCircle
 10
576.0000000000002
 20
887.3999999999999
 30
0.0
 40
11.0
  0
LWPOLYLINE
  5
B2
330
17
100
AcDbEntity
  8
0
100
AcDbPolyline
 90
4
 70
1
 10
606.0000000000002
 20
887.3999999999999
 42
0.9999999999999999
 10
546.0000000000002
 20
887.3999999999999
 10
546.0000000000002
 20
651.5999999999999
 42
0.9999999999999999
 10
606.0000000000002
 20
651.5999999999999
  0
TEXT
  5
B3
330
17
100
AcDbEntity
  8
LABEL
100
AcDbText
 10
576.0000000000002
 20
843.4499999999999
 30
0.0
 40
11.859375
  1
LinkC
 50
90.0
 72
1
 11
576.0000000000002
 21
843.4499999999999
 31
0.0
100
AcDbText
 73
2
  0
CIRCLE
  5
B4
330
17
100
AcDbEntity
  8
0
100
AcDbCircle
 10
576.0000000000003
 20
47.99999999999994
 30
0.0
 40
11.0
  0
CIRCLE
  5
B5
330
17
100
AcDbEntity
  8
0
100
AcDbCircle
 10
576.0000000000003
 20
283.79999999999995
 30
0.0
 40
11.0
  0
LWPOLYLINE
  5
B6
330
17
100
AcDbEntity
  8
0
100
AcDbPolyline
 90
4
 70
1
 10
606.0000000000003
 20
283.79999999999995
 42
0.9999999999999999
 10
546.0000000000003
 20
283.79999999999995
 10
546.0000000000003
 20
47.99999999999994
 42
0.9999999999999999
 10
606.0000000000003
 20
48.00000000000003
  0
TEXT
  5
B7
330
17
100
AcDbEntity
  8
LABEL
100
AcDbText
 10
576.0000000000003
 20
239.84999999999997
 30
0.0
 40
11.859375
  1
LinkC
 50
90.0
 72
1
 11
576.0000000000003
 21
239.84999999999997
 31
0.0
100
AcDbText
 73
2
  0
CIRCLE
  5
B8
330
17
100
AcDbEntity
  8
0
100
AcDbCircle
 10
576.0000000000003
 20
349.7999999999999
 30
0.0
 40
11.0
  0
CIRCLE
  5
B9
330
17
100
AcDbEntity
  8
0
100
AcDbCircle
 10
576.0000000000003
 20
585.5999999999999
 30
0.0
 40
11.0
  0
LWPOLYLINE
  5
BA
330
17
100
AcDbEntity
  8
0
100
AcDbPolyline
 90
4
 70
1
 10
606.0000000000003
 20
585.5999999999999
 42
0.9999999999999999
 10
546.0000000000003
 20
585.5999999999999
 10
546.0000000000003
 20
349.7999999999999
 42
0.9999999999999999
 10
606.0000000000003
 20
349.79999999999995
  0
TEXT
  5
BB
330
17
100
AcDbEntity
  8
LABEL
100
AcDbText
 10
576.0000000000003
 20
541.65
 30
0.0
 40
11.859375
  1
LinkC
 50
90.0
 72
1
 11
576.0000000000003
 21
541.65
 31
0.0
100
AcDbText
 73
2
  0
CIRCLE
  5
BC
330
17
100
AcDbEntity
  8
0
100
AcDbCircle
 10
642.0000000000002
 20
651.5999999999999
 30
0.0
 40
11.0
  0
CIRCLE
  5
BD
330
17
100
AcDbEntity
  8
0
100
AcDbCircle
 10
642.0000000000002
 20
887.3999999999999
 30
0.0
 40
11.0
  0
LWPOLYLINE
  5
BE
330
17
100
AcDbEntity
  8
0
100
AcDbPolyline
 90
4
 70
1
 10
672.0000000000002
 20
887.3999999999999
 42
0.9999999999999999
 10
612.0000000000002
 20
887.3999999999999
 10
612.0000000000002
 20
651.5999999999999
 42
0.9999999999999999
 10
672.0000000000002
 20
651.5999999999999
  0
TEXT
  5
BF
330
17
100
AcDbEntity
  8
LABEL
100
AcDbText
 10
642.0000000000002
 20
843.4499999999999
 30
0.0
 40
11.859375
  1
LinkC
 50
90.0
 72
1
 11
642.0000000000002
 21
843.4499999999999
 31
0.0
100
AcDbText
 73
2
  0
CIRCLE
  5
C0
330
17
100
AcDbEntity
  8
0
100
AcDbCircle
 10
656.4000000000001
 20
953.3999999999999
 30
0.0
 40
11.0
  0
CIRCLE
  5
C1
330
17
100
AcDbEntity
  8
0
100
AcDbCircle
 10
892.2
 20
953.3999999999999
 30
0.0
 40
11.0
  0
LWPOLYLINE
  5
C2
330
17
100
AcDbEntity
  8
0
100
AcDbPolyline
 90
4
 70
1
 10
892.2
 20
923.3999999999999
 42
0.9999999999999999
 10
892.2
 20
983.3999999999999
 10
656.4000000000001
 20
983.3999999999999
 42
0.9999999999999999
 10
656.4000000000001
 20
923.3999999999999
  0
TEXT
  5
C3
330
17
100
AcDbEntity
  8
LABEL
100
AcDbText
 10
848.25
 20
953.3999999999999
 30
0.0
 40
11.859375
  1
LinkC
 72
1
 11
848.25
 21
953.3999999999999
 31
0.0
100
AcDbText
 73
2
  0
CIRCLE
  5
C4
330
17
100
AcDbEntity
  8
0
100
AcDbCircle
 10
656.4000000000001
 20
1019.3999999999999
 30
0.0
 40
11.0
  0
CIRCLE
  5
C5
330
17
100
AcDbEntity
  8
0
100
AcDbCircle
 10
892.2
 20
1019.3999999999999
 30
0.0
 40
11.0
  0
LWPOLYLINE
  5
C6
330
17
100
AcDbEntity
  8
0
100
AcDbPolyline
 90
4
 70
1
 10
892.2
 20
989.3999999999999
 42
0.9999999999999999
 10
892.2
 20
1049.3999999999999
 10
656.4000000000001
 20
1049.3999999999999
 42
0.9999999999999999
 10
656.4000000000001
 20
989.3999999999999
  0
TEXT
  5
C7
330
17
100
AcDbEntity
  8
LABEL
100
AcDbText
 10
848.25
 20
1019.3999999999999
 30
0.0
 40
11.859375
  1
LinkC
 72
1
 11
848.25
 21
1019.3999999999999
 31
0.0
100
AcDbText
 73
2
  0
CIRCLE
  5
C8
330
17
100
AcDbEntity
  8
0
100
AcDbCircle
 10
656.4000000000001
 20
1085.3999999999999
 30
0.0
 40
11.0
  0
CIRCLE
  5
C9
330
17
100
AcDbEntity
  8
0
100
AcDbCircle
 10
892.2
 20
1085.3999999999999
 30
0.0
 40
11.0
  0
LWPOLYLINE
  5
CA
330
17
100
AcDbEntity
  8
0
100
AcDbPolyline
 90
4
 70
1
 10
892.2
 20
1055.3999999999999
 42
0.9999999999999999
 10
892.2
 20
1115.3999999999999
 10
656.4000000000001
 20
1115.3999999999999
 42
0.9999999999999999
 10
656.4000000000001
 20
1055.3999999999999
  0
TEXT
  5
CB
330
17
100
AcDbEntity
  8
LABEL
100
AcDbText
 10
848.25
 20
1085.3999999999999
 30
0.0
 40
11.859375
  1
LinkC
 72
1
 11
848.25
 21
1085.3999999999999
 31
0.0
100
AcDbText
 73
2
  0
CIRCLE
  5
CC
330
17
100
AcDbEntity
  8
0
100
AcDbCircle
 10
656.4000000000001
 20
1151.3999999999999
 30
0.0
 40
11.0
  0
CIRCLE
  5
CD
330
17
100
AcDbEntity
  8
0
100
AcDbCircle
 10
892.2
 20
1151.3999999999999
 30
0.0
 40
11.0
  0
LWPOLYLINE
  5
CE
330
17
100
AcDbEntity
  8
0
100
AcDbPolyline
 90
4
 70
1
 10
892.2
 20
1121.3999999999999
 42
0.9999999999999999
 10
892.2
 20
1181.3999999999999
 10
656.4000000000001
 20
1181.3999999999999
 42
0.9999999999999999
 10
656.4000000000001
 20
1121.3999999999999
  0
TEXT
  5
CF
330
17
100
AcDbEntity
  8
LABEL
100
AcDbText
 10
848.25
 20
1151.3999999999999
 30
0.0
 40
11.859375
  1
LinkC
 72
1
 11
848.25
 21
1151.3999999999999
 31
0.0
100
AcDbText
 73
2
  0
CIRCLE
  5
D0
330
17
100
AcDbEntity
  8
0
100
AcDbCircle
 10
642.0000000000003
 20
47.99999999999994
 30
0.0
 40
11.0
  0
CIRCLE
  5
D1
330
17
100
AcDbEntity
  8
0
100
AcDbCircle
 10
642.0000000000003
 20
283.79999999999995
 30
0.0
 40
11.0
  0
LWPOLYLINE
  5
D2
330
17
100
AcDbEntity
  8
0
100
AcDbPolyline
 90
4
 70
1
 10
672.0000000000003
 20
283.79999999999995
 42
0.9999999999999999
 10
612.0000000000003
 20
283.79999999999995
 10
612.0000000000003
 20
47.99999999999994
 42
0.9999999999999999
 10
672.0000000000003
 20
48.00000000000003
  0
TEXT
  5
D3
330
17
100
AcDbEntity
  8
LABEL
100
AcDbText
 10
642.0000000000003
 20
239.84999999999997
 30
0.0
 40
11.859375
  1
LinkC
 50
90.0
 72
1
 11
642.0000000000003
 21
239.84999999999997
 31
0.0
100
AcDbText
 73
2
  0
CIRCLE
  5
D4
330
17
100
AcDbEntity
  8
0
100
AcDbCircle
 10
642.0000000000003
 20
349.7999999999999
 30
0.0
 40
11.0
  0
CIRCLE
  5
D5
330
17
100
AcDbEntity
  8
0
100
AcDbCircle
 10
642.0000000000003
 20
585.5999999999999
 30
0.0
 40
11.0
  0
LWPOLYLINE
  5
D6
330
17
100
AcDbEntity
  8
0
100
AcDbPolyline
 90
4
 70
1
 10
672.0000000000003
 20
585.5999999999999
 42
0.9999999999999999
 10
612.0000000000003
 20
585.5999999999999
 10
612.0000000000003
 20
349.7999999999999
 42
0.9999999999999999
 10
672.0000000000003
 20
349.79999999999995
  0
TEXT
  5
D7
330
17
100
AcDbEntity
  8
LABEL
100
AcDbText
 10
642.0000000000003
 20
541.65
 30
0.0
 40
11.859375
  1
LinkC
 50
90.0
 72
1
 11
642.0000000000003
 21
541.65
 31
0.0
100
AcDbText
 73
2
  0
CIRCLE
  5
D8
330
17
100
AcDbEntity
  8
0
100
AcDbCircle
 10
708.0000000000002
 20
651.5999999999999
 30
0.0
 40
11.0
  0
CIRCLE
  5
D9
330
17
100
AcDbEntity
  8
0
100
AcDbCircle
 10
708.0000000000002
 20
887.3999999999999
 30
0.0
 40
11.0
  0
LWPOLYLINE
  5
DA
330
17
100
AcDbEntity
  8
0
100
AcDbPolyline
 90
4
 70
1
 10
738.0000000000002
 20
887.3999999999999
 42
0.9999999999999999
 10
678.0000000000002
 20
887.3999999999999
 10
678.0000000000002
 20
651.5999999999999
 42
0.9999999999999999
 10
738.0000000000002
 20
651.5999999999999
  0
TEXT
  5
DB
330
17
100
AcDbEntity
  8
LABEL
100
AcDbText
 10
708.0000000000002
 20
843.4499999999999
 30
0.0
 40
11.859375
  1
LinkC
 50
90.0
 72
1
 11
708.0000000000002
 21
843.4499999999999
 31
0.0
100
AcDbText
 73
2
  0
CIRCLE
  5
DC
330
17
100
AcDbEntity
  8
0
100
AcDbCircle
 10
708.0000000000003
 20
47.99999999999994
 30
0.0
 40
11.0
  0
CIRCLE
  5
DD
330
17
100
AcDbEntity
  8
0
100
AcDbCircle
 10
708.0000000000003
 20
283.79999999999995
 30
0.0
 40
11.0
  0
LWPOLYLINE
  5
DE
330
17
100
AcDbEntity
  8
0
100
AcDbPolyline
 90
4
 70
1
 10
738.0000000000003
 20
283.79999999999995
 42
0.9999999999999999
 10
678.0000000000003
 20
283.79999999999995
 10
678.0000000000003
 20
47.99999999999994
 42
0.9999999999999999
 10
738.0000000000003
 20
48.00000000000003
  0
TEXT
  5
DF
330
17
100
AcDbEntity
  8
LABEL
100
AcDbText
 10
708.0000000000003
 20
239.84999999999997
 30
0.0
 40
11.859375
  1
LinkC
 50
90.0
 72
1
 11
708.0000000000003
 21
239.84999999999997
 31
0.0
100
AcDbText
 73
2
  0
CIRCLE
  5
E0
330
17
100
AcDbEntity
  8
0
100
AcDbCircle
 10
708.0000000000003
 20
349.7999999999999
 30
0.0
 40
11.0
  0
CIRCLE
  5
E1
330
17
100
AcDbEntity
  8
0
100
AcDbCircle
 10
708.0000000000003
 20
585.5999999999999
 30
0.0
 40
11.0
  0
LWPOLYLINE
  5
E2
330
17
100
AcDbEntity
  8
0
100
AcDbPolyline
 90
4
 70
1
 10
738.0000000000003
 20
585.5999999999999
 42
0.9999999999999999
 10
678.0000000000003
 20
585.5999999999999
 10
678.0000000000003
 20
349.7999999999999
 42
0.9999999999999999
 10
738.0000000000003
 20
349.79999999999995
  0
TEXT
  5
E3
330
17
100
AcDbEntity
  8
LABEL
100
AcDbText
 10
708.0000000000003
 20
541.65
 30
0.0
 40
11.859375
  1
LinkC
 50
90.0
 72
1
 11
708.0000000000003
 21
541.65
 31
0.0
100
AcDbText
 73
2
  0
CIRCLE
  5
E4
330
17
100
AcDbEntity
  8
0
100
AcDbCircle
 10
774.0000000000002
 20
651.5999999999999
 30
0.0
 40
11.0
  0
CIRCLE
  5
E5
330
17
100
AcDbEntity
  8
0
100
AcDbCircle
 10
774.0000000000002
 20
887.3999999999999
 30
0.0
 40
11.0
  0
LWPOLYLINE
  5
E6
330
17
100
AcDbEntity
  8
0
100
AcDbPolyline
 90
4
 70
1
 10
804.0000000000002
 20
887.3999999999999
 42
0.9999999999999999
 10
744.0000000000002
 20
887.3999999999999
 10
744.0000000000002
 20
651.5999999999999
 42
0.9999999999999999
 10
804.0000000000002
 20
651.5999999999999
  0
TEXT
  5
E7
330
17
100
AcDbEntity
  8
LABEL
100
AcDbText
 10
774.0000000000002
 20
843.4499999999999
 30
0.0
 40
11.859375
  1
LinkC
 50
90.0
 72
1
 11
774.0000000000002
 21
843.4499999999999
 31
0.0
100
AcDbText
 73
2
  0
CIRCLE
  5
E8
330
17
100
AcDbEntity
  8
0
100
AcDbCircle
 10
774.0000000000003
 20
47.99999999999994
 30
0.0
 40
11.0
  0
CIRCLE
  5
E9
330
17
100
AcDbEntity
  8
0
100
AcDbCircle
 10
774.0000000000003
 20
283.79999999999995
 30
0.0
 40
11.0
  0
LWPOLYLINE
  5
EA
330
17
100
AcDbEntity
  8
0
100
AcDbPolyline
 90
4
 70
1
 10
804.0000000000003
 20
283.79999999999995
 42
0.9999999999999999
 10
744.0000000000003
 20
283.79999999999995
 10
744.0000000000003
 20
47.99999999999994
 42
0.9999999999999999
 10
804.0000000000003
 20
48.00000000000003
  0
TEXT
  5
EB
330
17
100
AcDbEntity
  8
LABEL
100
AcDbText
 10
774.0000000000003
 20
239.84999999999997
 30
0.0
 40
11.859375
  1
LinkC
 50
90.0
 72
1
 11
774.0000000000003
 21
239.84999999999997
 31
0.0
100
AcDbText
 73
2
  0
CIRCLE
  5
EC
330
17
100
AcDbEntity
  8
0
100
AcDbCircle
 10
774.0000000000003
 20
349.7999999999999
 30
0.0
 40
11.0
  0
CIRCLE
  5
ED
330
17
100
AcDbEntity
  8
0
100
AcDbCircle
 10
774.0000000000003
 20
585.5999999999999
 30
0.0
 40
11.0
  0
LWPOLYLINE
  5
EE
330
17
100
AcDbEntity
  8
0
100
AcDbPolyline
 90
4
 70
1
 10
804.0000000000003
 20
585.5999999999999
 42
0.9999999999999999
 10
744.0000000000003
 20
585.5999999999999
 10
744.0000000000003
 20
349.7999999999999
 42
0.9999999999999999
 10
804.0000000000003
 20
349.79999999999995
  0
TEXT
  5
EF
330
17
100
AcDbEntity
  8
LABEL
100
AcDbText
 10
774.0000000000003
 20
541.65
 30
0.0
 40
11.859375
  1
LinkC
 50
90.0
 72
1
 11
774.0000000000003
 21
541.65
 31
0.0
100
AcDbText
 73
2
  0
CIRCLE
  5
F0
330
17
100
AcDbEntity
  8
0
100
AcDbCircle
 10
840.0000000000002
 20
651.5999999999999
 30
0.0
 40
11.0
  0
CIRCLE
  5
F1
330
17
100
AcDbEntity
  8
0
100
AcDbCircle
 10
840.0000000000002
 20
887.3999999999999
 30
0.0
 40
11.0
  0
LWPOLYLINE
  5
F2
330
17
100
AcDbEntity
  8
0
100
AcDbPolyline
 90
4
 70
1
 10
870.0000000000002
 20
887.3999999999999
 42
0.9999999999999999
 10
810.0000000000002
 20
887.3999999999999
 10
810.0000000000002
 20
651.5999999999999
 42
0.9999999999999999
 10
870.0000000000002
 20
651.5999999999999
  0
TEXT
  5
F3
330
17
100
AcDbEntity
  8
LABEL
100
AcDbText
 10
840.0000000000002
 20
843.4499999999999
 30
0.0
 40
11.859375
  1
LinkC
 50
90.0
 72
1
 11
840.0000000000002
 21
843.4499999999999
 31
0.0
100
AcDbText
 73
2
  0
CIRCLE
  5
F4
330
17
100
AcDbEntity
  8
0
100
AcDbCircle
 10
840.0000000000003
 20
47.99999999999994
 30
0.0
 40
11.0
  0
CIRCLE
  5
F5
330
17
100
AcDbEntity
  8
0
100
AcDbCircle
 10
840.0000000000003
 20
283.79999999999995
 30
0.0
 40
11.0
  0
LWPOLYLINE
  5
F6
330
17
100
AcDbEntity
  8
0
100
AcDbPolyline
 90
4
 70
1
 10
870.0000000000003
 20
283.79999999999995
 42
0.9999999999999999
 10
810.0000000000003
 20
283.79999999999995
 10
810.0000000000003
 20
47.99999999999994
 42
0.9999999999999999
 10
870.0000000000003
 20
48.00000000000003
  0
TEXT
  5
F7
330
17
100
AcDbEntity
  8
LABEL
100
AcDbText
 10
840.0000000000003
 20
239.84999999999997
 30
0.0
 40
11.859375
  1
LinkC
 50
90.0
 72
1
 11
840.0000000000003
 21
239.84999999999997
 31
0.0
100
AcDbText
 73
2
  0
CIRCLE
  5
F8
330
17
100
AcDbEntity
  8
0
100
AcDbCircle
 10
840.0000000000003
 20
349.7999999999999
 30
0.0
 40
11.0
  0
CIRCLE
  5
F9
330
17
100
AcDbEntity
  8
0
100
AcDbCircle
 10
840.0000000000003
 20
585.5999999999999
 30
0.0
 40
11.0
  0
LWPOLYLINE
  5
FA
330
17
100
AcDbEntity
  8
0
100
AcDbPolyline
 90
4
 70
1
 10
870.0000000000003
 20
585.5999999999999
 42
0.9999999999999999
 10
810.0000000000003
 20
585.5999999999999
 10
810.0000000000003
 20
349.7999999999999
 42
0.9999999999999999
 10
870.0000000000003
 20
349.79999999999995
  0
TEXT
  5
FB
330
17
100
AcDbEntity
  8
LABEL
100
AcDbText
 10
840.0000000000003
 20
541.65
 30
0.0
 40
11.859375
  1
LinkC
 50
90.0
 72
1
 11
840.0000000000003
 21
541.65
 31
0.0
100
AcDbText
 73
2
  0
CIRCLE
  5
FC
330
17
100
AcDbEntity
  8
0
100
AcDbCircle
 10
906.0000000000002
 20
651.5999999999999
 30
0.0
 40
11.0
  0
CIRCLE
  5
FD
330
17
100
AcDbEntity
  8
0
100
AcDbCircle
 10
906.0000000000002
 20
887.3999999999999
 30
0.0
 40
11.0
  0
LWPOLYLINE
  5
FE
330
17
100
AcDbEntity
  8
0
100
AcDbPolyline
 90
4
 70
1
 10
936.0000000000002
 20
887.3999999999999
 42
0.9999999999999999
 10
876.0000000000002
 20
887.3999999999999
 10
876.0000000000002
 20
651.5999999999999
 42
0.9999999999999999
 10
936.0000000000002
 20
651.5999999999999
  0
TEXT
  5
FF
330
17
100
AcDbEntity
  8
LABEL
100
AcDbText
 10
906.0000000000002
 20
843.4499999999999
 30
0.0
 40
11.859375
  1
LinkC
 50
90.0
 72
1
 11
906.0000000000002
 21
843.4499999999999
 31
0.0
100
AcDbText
 73
2
  0
CIRCLE
  5
100
330
17
100
AcDbEntity
  8
0
100
AcDbCircle
 10
958.2
 20
953.3999999999999
 30
0.0
 40
11.0
  0
CIRCLE
  5
101
330
17
100
AcDbEntity
  8
0
100
AcDbCircle
 10
1194.0
 20
953.3999999999999
 30
0.0
 40
11.0
  0
LWPOLYLINE
  5
102
330
17
100
AcDbEntity
  8
0
100
AcDbPolyline
 90
4
 70
1
 10
1194.0
 20
923.3999999999999
 42
0.9999999999999999
 10
1194.0
 20
983.3999999999999
 10
958.2
 20
983.3999999999999
 42
0.9999999999999999
 10
958.2
 20
923.3999999999999
  0
TEXT
  5
103
330
17
100
AcDbEntity
  8
LABEL
100
AcDbText
 10
1150.05
 20
953.3999999999999
 30
0.0
 40
11.859375
  1
LinkC
 72
1
 11
1150.05
 21
953.3999999999999
 31
0.0
100
AcDbText
 73
2
  0
CIRCLE
  5
104
330
17
100
AcDbEntity
  8
0
100
AcDbCircle
 10
958.2
 20
1019.3999999999999
 30
0.0
 40
11.0
  0
CIRCLE
  5
105
330
17
100
AcDbEntity
  8
0
100
AcDbCircle
 10
1194.0
 20
1019.3999999999999
 30
0.0
 40
11.0
  0
LWPOLYLINE
  5
106
330
17
100
AcDbEntity
  8
0
100
AcDbPolyline
 90
4
 70
1
 10
1194.0
 20
989.3999999999999
 42
0.9999999999999999
 10
1194.0
 20
1049.3999999999999
 10
958.2
 20
1049.3999999999999
 42
0.9999999999999999
 10
958.2
 20
989.3999999999999
  0
TEXT
  5
107
330
17
100
AcDbEntity
  8
LABEL
100
AcDbText
 10
1150.05
 20
1019.3999999999999
 30
0.0
 40
11.859375
  1
LinkC
 72
1
 11
1150.05
 21
1019.3999999999999
 31
0.0
100
AcDbText
 73
2
  0
CIRCLE
  5
108
330
17
100
AcDbEntity
  8
0
100
AcDbCircle
 10
952.2000036742752
 20
1079.4000462683498
 30
0.0
 40
11.0
  0
LWPOLYLINE
  5
109
330
17
100
AcDbEntity
  8
0
100
AcDbPolyline
 90
4
 70
1
 10
952.2000036742747
 20
1103.40004626835
 42
1.0157787888818275
 10
952.9513189137897
 20
1055.4118090381803
 10
1189.325235446605
 20
1055.4118090381803
 42
0.9809821123639358
 10
1188.7962532441052
 20
1103.4000466259772
  0
CIRCLE
  5
10A
330
17
100
AcDbEntity
  8
0
100
AcDbCircle
 10
1188.6000449802923
 20
1079.4000350924791
 30
0.0
 40
11.0
  0
TEXT
  5
10B
330
17
100
AcDbEntity
  8
LABEL
100
AcDbText
 10
1141.5000247124035
 20
1079.4000233129887
 30
0.0
 40
11.859375
  1
LinkF
 72
1
 11
1141.5000247124035
 21
1079.4000233129887
 31
0.0
100
AcDbText
 73
2
  0
CIRCLE
  5
10C
330
17
100
AcDbEntity
  8
0
100
AcDbCircle
 10
952.2000036742752
 20
1133.400092894327
 30
0.0
 40
11.0
  0
LWPOLYLINE
  5
10D
330
17
100
AcDbEntity
  8
0
100
AcDbPolyline
 90
4
 70
1
 10
952.2000036742747
 20
1157.4000928943274
 42
1.0157787888818275
 10
952.9513189137897
 20
1109.4118556641574
 10
1189.325235446605
 20
1109.4118556641574
 42
0.9809821123639358
 10
1188.7962532441052
 20
1157.4000932519546
  0
CIRCLE
  5
10E
330
17
100
AcDbEntity
  8
0
100
AcDbCircle
 10
1188.6000449802923
 20
1133.4000817184565
 30
0.0
 40
11.0
  0
TEXT
  5
10F
330
17
100
AcDbEntity
  8
LABEL
100
AcDbText
 10
1141.5000247124035
 20
1133.4000699389658
 30
0.0
 40
11.859375
  1
LinkF
 72
1
 11
1141.5000247124035
 21
1133.4000699389658
 31
0.0
100
AcDbText
 73
2
  0
CIRCLE
  5
110
330
17
100
AcDbEntity
  8
0
100
AcDbCircle
 10
1242.6000366241456
 20
1079.4000462683498
 30
0.0
 40
11.0
  0
LWPOLYLINE
  5
111
330
17
100
AcDbEntity
  8
0
100
AcDbPolyline
 90
4
 70
1
 10
1242.600036624145
 20
1103.40004626835
 42
1.0157787888818275
 10
1243.35135186366
 20
1055.4118090381803
 10
1479.7252683964753
 20
1055.4118090381803
 42
0.9809821123639358
 10
1479.1962861939755
 20
1103.4000466259772
  0
CIRCLE
  5
112
330
17
100
AcDbEntity
  8
0
100
AcDbCircle
 10
1479.0000779301627
 20
1079.4000350924791
 30
0.0
 40
11.0
  0
TEXT
  5
113
330
17
100
AcDbEntity
  8
LABEL
100
AcDbText
 10
1431.9000576622739
 20
1079.4000233129887
 30
0.0
 40
11.859375
  1
LinkF
 72
1
 11
1431.9000576622739
 21
1079.4000233129887
 31
0.0
100
AcDbText
 73
2
  0
CIRCLE
  5
114
330
17
100
AcDbEntity
  8
0
100
AcDbCircle
 10
1242.6000366241456
 20
1133.400092894327
 30
0.0
 40
11.0
  0
LWPOLYLINE
  5
115
330
17
100
AcDbEntity
  8
0
100
AcDbPolyline
 90
4
 70
1
 10
1242.600036624145
 20
1157.4000928943274
 42
1.0157787888818275
 10
1243.35135186366
 20
1109.4118556641574
 10
1479.7252683964753
 20
1109.4118556641574
 42
0.9809821123639358
 10
1479.1962861939755
 20
1157.4000932519546
  0
CIRCLE
  5
116
330
17
100
AcDbEntity
  8
0
100
AcDbCircle
 10
1479.0000779301627
 20
1133.4000817184565
 30
0.0
 40
11.0
  0
TEXT
  5
117
330
17
100
AcDbEntity
  8
LABEL
100
AcDbText
 10
1431.9000576622739
 20
1133.4000699389658
 30
0.0
 40
11.859375
  1
LinkF
 72
1
 11
1431.9000576622739
 21
1133.4000699389658
 31
0.0
100
AcDbText
 73
2
  0
CIRCLE
  5
118
330
17
100
AcDbEntity
  8
0
100
AcDbCircle
 10
900.0000003576279
 20
42.00000367427492
 30
0.0
 40
11.0
  0
LWPOLYLINE
  5
119
330
17
100
AcDbEntity
  8
0
100
AcDbPolyline
 90
4
 70
1
 10
876.0000003576275
 20
42.00000367427447
 42
1.0157787888818275
 10
923.9882375877974
 20
42.75131891378942
 10
923.9882375877974
 20
279.1252354466046
 42
0.9809821123639358
 10
876.0000000000003
 20
278.5962532441049
  0
CIRCLE
  5
11A
330
17
100
AcDbEntity
  8
0
100
AcDbCircle
 10
900.0000115334984
 20
278.400044980292
 30
0.0
 40
11.0
  0
TEXT
  5
11B
330
17
100
AcDbEntity
  8
LABEL
100
AcDbText
 10
900.000023312989
 20
231.30002471240323
 30
0.0
 40
11.859375
  1
LinkF
 50
90.0
 72
1
 11
900.000023312989
 21
231.30002471240323
 31
0.0
100
AcDbText
 73
2
  0
CIRCLE
  5
11C
330
17
100
AcDbEntity
  8
0
100
AcDbCircle
 10
900.0000003576279
 20
332.40003662414574
 30
0.0
 40
11.0
  0
LWPOLYLINE
  5
11D
330
17
100
AcDbEntity
  8
0
100
AcDbPolyline
 90
4
 70
1
 10
876.0000003576275
 20
332.4000366241453
 42
1.0157787888818275
 10
923.9882375877974
 20
333.15135186366024
 10
923.9882375877974
 20
569.5252683964754
 42
0.9809821123639358
 10
876.0000000000003
 20
568.9962861939757
  0
CIRCLE
  5
11E
330
17
100
AcDbEntity
  8
0
100
AcDbCircle
 10
900.0000115334984
 20
568.8000779301628
 30
0.0
 40
11.0
  0
TEXT
  5
11F
330
17
100
AcDbEntity
  8
LABEL
100
AcDbText
 10
900.000023312989
 20
521.700057662274
 30
0.0
 40
11.859375
  1
LinkF
 50
90.0
 72
1
 11
900.000023312989
 21
521.700057662274
 31
0.0
100
AcDbText
 73
2
  0
CIRCLE
  5
120
330
17
100
AcDbEntity
  8
0
100
AcDbCircle
 10
954.0000469836052
 20
42.00000367427492
 30
0.0
 40
11.0
  0
LWPOLYLINE
  5
121
330
17
100
AcDbEntity
  8
0
100
AcDbPolyline
 90
4
 70
1
 10
930.0000469836049
 20
42.00000367427447
 42
1.0157787888818275
 10
977.9882842137747
 20
42.75131891378942
 10
977.9882842137747
 20
279.1252354466046
 42
0.9809821123639358
 10
930.0000466259777
 20
278.5962532441049
  0
CIRCLE
  5
122
330
17
100
AcDbEntity
  8
0
100
AcDbCircle
 10
954.0000581594758
 20
278.400044980292
 30
0.0
 40
11.0
  0
TEXT
  5
123
330
17
100
AcDbEntity
  8
LABEL
100
AcDbText
 10
954.0000699389664
 20
231.30002471240323
 30
0.0
 40
11.859375
  1
LinkF
 50
90.0
 72
1
 11
954.0000699389664
 21
231.30002471240323
 31
0.0
100
AcDbText
 73
2
  0
CIRCLE
  5
124
330
17
100
AcDbEntity
  8
0
100
AcDbCircle
 10
954.0000469836052
 20
332.40003662414574
 30
0.0
 40
11.0
  0
LWPOLYLINE
  5
125
330
17
100
AcDbEntity
  8
0
100
AcDbPolyline
 90
4
 70
1
 10
930.0000469836049
 20
332.4000366241453
 42
1.0157787888818275
 10
977.9882842137747
 20
333.15135186366024
 10
977.9882842137747
 20
569.5252683964754
 42
0.9809821123639358
 10
930.0000466259777
 20
568.9962861939757
  0
CIRCLE
  5
126
330
17
100
AcDbEntity
  8
0
100
AcDbCircle
 10
954.0000581594758
 20
568.8000779301628
 30
0.0
 40
11.0
  0
TEXT
  5
127
330
17
100
AcDbEntity
  8
LABEL
100
AcDbText
 10
954.0000699389664
 20
521.700057662274
 30
0.0
 40
11.859375
  1
LinkF
 50
90.0
 72
1
 11
954.0000699389664
 21
521.700057662274
 31
0.0
100
AcDbText
 73
2
  0
CIRCLE
  5
128
330
17
100
AcDbEntity
  8
0
100
AcDbCircle
 10
966.0000003576276
 20
622.8000695740166
 30
0.0
 40
11.0
  0
LWPOLYLINE
  5
129
330
17
100
AcDbEntity
  8
0
100
AcDbPolyline
 90
4
 70
1
 10
942.0000003576273
 20
622.8000695740161
 42
1.0157787888818275
 10
989.9882375877971
 20
623.5513848135311
 10
989.9882375877971
 20
859.9253013463463
 42
0.9809821123639358
 10
942.0000000000001
 20
859.3963191438465
  0
CIRCLE
  5
12A
330
17
100
AcDbEntity
  8
0
100
AcDbCircle
 10
966.0000115334982
 20
859.2001108800337
 30
0.0
 40
11.0
  0
TEXT
  5
12B
330
17
100
AcDbEntity
  8
LABEL
100
AcDbText
 10
966.0000233129888
 20
812.1000906121449
 30
0.0
 40
11.859375
  1
LinkF
 50
90.0
 72
1
 11
966.0000233129888
 21
812.1000906121449
 31
0.0
100
AcDbText
 73
2
  0
CIRCLE
  5
12C
330
17
100
AcDbEntity
  8
0
100
AcDbCircle
 10
1008.0000936095826
 20
42.00000367427492
 30
0.0
 40
11.0
  0
LWPOLYLINE
  5
12D
330
17
100
AcDbEntity
  8
0
100
AcDbPolyline
 90
4
 70
1
 10
984.0000936095822
 20
42.00000367427447
 42
1.0157787888818275
 10
1031.988330839752
 20
42.75131891378942
 10
1031.988330839752
 20
279.1252354466046
 42
0.9809821123639358
 10
984.000093251955
 20
278.5962532441049
  0
CIRCLE
  5
12E
330
17
100
AcDbEntity
  8
0
100
AcDbCircle
 10
1008.0001047854531
 20
278.400044980292
 30
0.0
 40
11.0
  0
TEXT
  5
12F
330
17
100
AcDbEntity
  8
LABEL
100
AcDbText
 10
1008.0001165649437
 20
231.30002471240323
 30
0.0
 40
11.859375
  1
LinkF
 50
90.0
 72
1
 11
1008.0001165649437
 21
231.30002471240323
 31
0.0
100
AcDbText
 73
2
  0
CIRCLE
  5
130
330
17
100
AcDbEntity
  8
0
100
AcDbCircle
 10
1008.0000936095826
 20
332.40003662414574
 30
0.0
 40
11.0
  0
LWPOLYLINE
  5
131
330
17
100
AcDbEntity
  8
0
100
AcDbPolyline
 90
4
 70
1
 10
984.0000936095822
 20
332.4000366241453
 42
1.0157787888818275
 10
1031.988330839752
 20
333.15135186366024
 10
1031.988330839752
 20
569.5252683964754
 42
0.9809821123639358
 10
984.000093251955
 20
568.9962861939757
  0
CIRCLE
  5
132
330
17
100
AcDbEntity
  8
0
100
AcDbCircle
 10
1008.0001047854531
 20
568.8000779301628
 30
0.0
 40
11.0
  0
TEXT
  5
133
330
17
100
AcDbEntity
  8
LABEL
100
AcDbText
 10
1008.0001165649437
 20
521.700057662274
 30
0.0
 40
11.859375
  1
LinkF
 50
90.0
 72
1
 11
1008.0001165649437
 21
521.700057662274
 31
0.0
100
AcDbText
 73
2
  0
CIRCLE
  5
134
330
17
100
AcDbEntity
  8
0
100
AcDbCircle
 10
1020.0000469836052
 20
622.8000695740166
 30
0.0
 40
11.0
  0
LWPOLYLINE
  5
135
330
17
100
AcDbEntity
  8
0
100
AcDbPolyline
 90
4
 70
1
 10
996.0000469836049
 20
622.8000695740161
 42
1.0157787888818275
 10
1043.9882842137747
 20
623.5513848135311
 10
1043.9882842137747
 20
859.9253013463463
 42
0.9809821123639358
 10
996.0000466259777
 20
859.3963191438465
  0
CIRCLE
  5
136
330
17
100
AcDbEntity
  8
0
100
AcDbCircle
 10
1020.0000581594758
 20
859.2001108800337
 30
0.0
 40
11.0
  0
TEXT
  5
137
330
17
100
AcDbEntity
  8
LABEL
100
AcDbText
 10
1020.0000699389664
 20
812.1000906121449
 30
0.0
 40
11.859375
  1
LinkF
 50
90.0
 72
1
 11
1020.0000699389664
 21
812.1000906121449
 31
0.0
100
AcDbText
 73
2
  0
CIRCLE
  5
138
330
17
100
AcDbEntity
  8
0
100
AcDbCircle
 10
1062.00014023556
 20
42.00000367427492
 30
0.0
 40
11.0
  0
LWPOLYLINE
  5
139
330
17
100
AcDbEntity
  8
0
100
AcDbPolyline
 90
4
 70
1
 10
1038.0001402355597
 20
42.00000367427447
 42
1.0157787888818275
 10
1085.9883774657294
 20
42.75131891378942
 10
1085.9883774657294
 20
279.1252354466046
 42
0.9809821123639358
 10
1038.0001398779323
 20
278.5962532441049
  0
CIRCLE
  5
13A
330
17
100
AcDbEntity
  8
0
100
AcDbCircle
 10
1062.0001514114306
 20
278.400044980292
 30
0.0
 40
11.0
  0
TEXT
  5
13B
330
17
100
AcDbEntity
  8
LABEL
100
AcDbText
 10
1062.000163190921
 20
231.30002471240323
 30
0.0
 40
11.859375
  1
LinkF
 50
90.0
 72
1
 11
1062.000163190921
 21
231.30002471240323
 31
0.0
100
AcDbText
 73
2
  0
CIRCLE
  5
13C
330
17
100
AcDbEntity
  8
0
100
AcDbCircle
 10
1062.00014023556
 20
332.40003662414574
 30
0.0
 40
11.0
  0
LWPOLYLINE
  5
13D
330
17
100
AcDbEntity
  8
0
100
AcDbPolyline
 90
4
 70
1
 10
1038.0001402355597
 20
332.4000366241453
 42
1.0157787888818275
 10
1085.9883774657294
 20
333.15135186366024
 10
1085.9883774657294
 20
569.5252683964754
 42
0.9809821123639358
 10
1038.0001398779323
 20
568.9962861939757
  0
CIRCLE
  5
13E
330
17
100
AcDbEntity
  8
0
100
AcDbCircle
 10
1062.0001514114306
 20
568.8000779301628
 30
0.0
 40
11.0
  0
TEXT
  5
13F
330
17
100
AcDbEntity
  8
LABEL
100
AcDbText
 10
1062.000163190921
 20
521.700057662274
 30
0.0
 40
11.859375
  1
LinkF
 50
90.0
 72
1
 11
1062.000163190921
 21
521.700057662274
 31
0.0
100
AcDbText
 73
2
  0
CIRCLE
  5
140
330
17
100
AcDbEntity
  8
0
100
AcDbCircle
 10
1074.0000936095823
 20
622.8000695740166
 30
0.0
 40
11.0
  0
LWPOLYLINE
  5
141
330
17
100
AcDbEntity
  8
0
100
AcDbPolyline
 90
4
 70
1
 10
1050.000093609582
 20
622.8000695740161
 42
1.0157787888818275
 10
1097.9883308397518
 20
623.5513848135311
 10
1097.9883308397518
 20
859.9253013463463
 42
0.9809821123639358
 10
1050.0000932519547
 20
859.3963191438465
  0
CIRCLE
  5
142
330
17
100
AcDbEntity
  8
0
100
AcDbCircle
 10
1074.000104785453
 20
859.2001108800337
 30
0.0
 40
11.0
  0
TEXT
  5
143
330
17
100
AcDbEntity
  8
LABEL
100
AcDbText
 10
1074.0001165649435
 20
812.1000906121449
 30
0.0
 40
11.859375
  1
LinkF
 50
90.0
 72
1
 11
1074.0001165649435
 21
812.1000906121449
 31
0.0
100
AcDbText
 73
2
  0
CIRCLE
  5
144
330
17
100
AcDbEntity
  8
0
100
AcDbCircle
 10
1116.0001868615375
 20
42.00000367427492
 30
0.0
 40
11.0
  0
LWPOLYLINE
  5
145
330
17
100
AcDbEntity
  8
0
100
AcDbPolyline
 90
4
 70
1
 10
1092.0001868615373
 20
42.00000367427447
 42
1.0157787888818275
 10
1139.988424091707
 20
42.75131891378942
 10
1139.988424091707
 20
279.1252354466046
 42
0.9809821123639358
 10
1092.0001865039098
 20
278.5962532441049
  0
CIRCLE
  5
146
330
17
100
AcDbEntity
  8
0
100
AcDbCircle
 10
1116.0001980374082
 20
278.400044980292
 30
0.0
 40
11.0
  0
TEXT
  5
147
330
17
100
AcDbEntity
  8
LABEL
100
AcDbText
 10
1116.0002098168986
 20
231.30002471240323
 30
0.0
 40
11.859375
  1
LinkF
 50
90.0
 72
1
 11
1116.0002098168986
 21
231.30002471240323
 31
0.0
100
AcDbText
 73
2
  0
CIRCLE
  5
148
330
17
100
AcDbEntity
  8
0
100
AcDbCircle
 10
1116.0001868615375
 20
332.40003662414574
 30
0.0
 40
11.0
  0
LWPOLYLINE
  5
149
330
17
100
AcDbEntity
  8
0
100
AcDbPolyline
 90
4
 70
1
 10
1092.0001868615373
 20
332.4000366241453
 42
1.0157787888818275
 10
1139.988424091707
 20
333.15135186366024
 10
1139.988424091707
 20
569.5252683964754
 42
0.9809821123639358
 10
1092.0001865039098
 20
568.9962861939757
  0
CIRCLE
  5
14A
330
17
100
AcDbEntity
  8
0
100
AcDbCircle
 10
1116.0001980374082
 20
568.8000779301628
 30
0.0
 40
11.0
  0
TEXT
  5
14B
330
17
100
AcDbEntity
  8
LABEL
100
AcDbText
 10
1116.0002098168986
 20
521.700057662274
 30
0.0
 40
11.859375
  1
LinkF
 50
90.0
 72
1
 11
1116.0002098168986
 21
521.700057662274
 31
0.0
100
AcDbText
 73
2
  0
CIRCLE
  5
14C
330
17
100
AcDbEntity
  8
0
100
AcDbCircle
 10
1128.00014023556
 20
622.8000695740166
 30
0.0
 40
11.0
  0
LWPOLYLINE
  5
14D
330
17
100
AcDbEntity
  8
0
100
AcDbPolyline
 90
4
 70
1
 10
1104.0001402355597
 20
622.8000695740161
 42
1.0157787888818275
 10
1151.9883774657294
 20
623.5513848135311
 10
1151.9883774657294
 20
859.9253013463463
 42
0.9809821123639358
 10
1104.0001398779323
 20
859.3963191438465
  0
CIRCLE
  5
14E
330
17
100
AcDbEntity
  8
0
100
AcDbCircle
 10
1128.0001514114306
 20
859.2001108800337
 30
0.0
 40
11.0
  0
TEXT
  5
14F
330
17
100
AcDbEntity
  8
LABEL
100
AcDbText
 10
1128.000163190921
 20
812.1000906121449
 30
0.0
 40
11.859375
  1
LinkF
 50
90.0
 72
1
 11
1128.000163190921
 21
812.1000906121449
 31
0.0
100
AcDbText
 73
2
  0
CIRCLE
  5
150
330
17
100
AcDbEntity
  8
0
100
AcDbCircle
 10
1170.0002334875146
 20
42.00000367427492
 30
0.0
 40
11.0
  0
LWPOLYLINE
  5
151
330
17
100
AcDbEntity
  8
0
100
AcDbPolyline
 90
4
 70
1
 10
1146.0002334875144
 20
42.00000367427447
 42
1.0157787888818275
 10
1193.988470717684
 20
42.75131891378942
 10
1193.988470717684
 20
279.1252354466046
 42
0.9809821123639358
 10
1146.000233129887
 20
278.5962532441049
  0
CIRCLE
  5
152
330
17
100
AcDbEntity
  8
0
100
AcDbCircle
 10
1170.0002446633853
 20
278.400044980292
 30
0.0
 40
11.0
  0
TEXT
  5
153
330
17
100
AcDbEntity
  8
LABEL
100
AcDbText
 10
1170.0002564428758
 20
231.30002471240323
 30
0.0
 40
11.859375
  1
LinkF
 50
90.0
 72
1
 11
1170.0002564428758
 21
231.30002471240323
 31
0.0
100
AcDbText
 73
2
  0
CIRCLE
  5
154
330
17
100
AcDbEntity
  8
0
100
AcDbCircle
 10
1170.0002334875146
 20
332.40003662414574
 30
0.0
 40
11.0
  0
LWPOLYLINE
  5
155
330
17
100
AcDbEntity
  8
0
100
AcDbPolyline
 90
4
 70
1
 10
1146.0002334875144
 20
332.4000366241453
 42
1.0157787888818275
 10
1193.988470717684
 20
333.15135186366024
 10
1193.988470717684
 20
569.5252683964754
 42
0.9809821123639358
 10
1146.000233129887
 20
568.9962861939757
  0
CIRCLE
  5
156
330
17
100
AcDbEntity
  8
0
100
AcDbCircle
 10
1170.0002446633853
 20
568.8000779301628
 30
0.0
 40
11.0
  0
TEXT
  5
157
330
17
100
AcDbEntity
  8
LABEL
100
AcDbText
 10
1170.0002564428758
 20
521.700057662274
 30
0.0
 40
11.859375
  1
LinkF
 50
90.0
 72
1
 11
1170.0002564428758
 21
521.700057662274
 31
0.0
100
AcDbText
 73
2
  0
CIRCLE
  5
158
330
17
100
AcDbEntity
  8
0
100
AcDbCircle
 10
1182.000186861537
 20
622.8000695740166
 30
0.0
 40
11.0
  0
LWPOLYLINE
  5
159
330
17
100
AcDbEntity
  8
0
100
AcDbPolyline
 90
4
 70
1
 10
1158.0001868615368
 20
622.8000695740161
 42
1.0157787888818275
 10
1205.9884240917065
 20
623.5513848135311
 10
1205.9884240917065
 20
859.9253013463463
 42
0.9809821123639358
 10
1158.0001865039094
 20
859.3963191438465
  0
CIRCLE
  5
15A
330
17
100
AcDbEntity
  8
0
100
AcDbCircle
 10
1182.0001980374077
 20
859.2001108800337
 30
0.0
 40
11.0
  0
TEXT
  5
15B
330
17
100
AcDbEntity
  8
LABEL
100
AcDbText
 10
1182.0002098168982
 20
812.1000906121449
 30
0.0
 40
11.859375
  1
LinkF
 50
90.0
 72
1
 11
1182.0002098168982
 21
812.1000906121449
 31
0.0
100
AcDbText
 73
2
  0
CIRCLE
  5
15C
330
17
100
AcDbEntity
  8
0
100
AcDbCircle
 10
1224.0002801134922
 20
42.00000367427492
 30
0.0
 40
11.0
  0
LWPOLYLINE
  5
15D
330
17
100
AcDbEntity
  8
0
100
AcDbPolyline
 90
4
 70
1
 10
1200.000280113492
 20
42.00000367427447
 42
1.0157787888818275
 10
1247.9885173436617
 20
42.75131891378942
 10
1247.9885173436617
 20
279.1252354466046
 42
0.9809821123639358
 10
1200.0002797558645
 20
278.5962532441049
  0
CIRCLE
  5
15E
330
17
100
AcDbEntity
  8
0
100
AcDbCircle
 10
1224.0002912893628
 20
278.400044980292
 30
0.0
 40
11.0
  0
TEXT
  5
15F
330
17
100
AcDbEntity
  8
LABEL
100
AcDbText
 10
1224.0003030688533
 20
231.30002471240323
 30
0.0
 40
11.859375
  1
LinkF
 50
90.0
 72
1
 11
1224.0003030688533
 21
231.30002471240323
 31
0.0
100
AcDbText
 73
2
  0
CIRCLE
  5
160
330
17
100
AcDbEntity
  8
0
100
AcDbCircle
 10
1224.0002801134922
 20
332.40003662414574
 30
0.0
 40
11.0
  0
LWPOLYLINE
  5
161
330
17
100
AcDbEntity
  8
0
100
AcDbPolyline
 90
4
 70
1
 10
1200.000280113492
 20
332.4000366241453
 42
1.0157787888818275
 10
1247.9885173436617
 20
333.15135186366024
 10
1247.9885173436617
 20
569.5252683964754
 42
0.9809821123639358
 10
1200.0002797558645
 20
568.9962861939757
  0
CIRCLE
  5
162
330
17
100
AcDbEntity
  8
0
100
AcDbCircle
 10
1224.0002912893628
 20
568.8000779301628
 30
0.0
 40
11.0
  0
TEXT
  5
163
330
17
100
AcDbEntity
  8
LABEL
100
AcDbText
 10
1224.0003030688533
 20
521.700057662274
 30
0.0
 40
11.859375
  1
LinkF
 50
90.0
 72
1
 11
1224.0003030688533
 21
521.700057662274
 31
0.0
100
AcDbText
 73
2
  0
CIRCLE
  5
164
330
17
100
AcDbEntity
  8
0
100
AcDbCircle
 10
1236.0002334875146
 20
622.8000695740166
 30
0.0
 40
11.0
  0
LWPOLYLINE
  5
165
330
17
100
AcDbEntity
  8
0
100
AcDbPolyline
 90
4
 70
1
 10
1212.0002334875144
 20
622.8000695740161
 42
1.0157787888818275
 10
1259.988470717684
 20
623.5513848135311
 10
1259.988470717684
 20
859.9253013463463
 42
0.9809821123639358
 10
1212.000233129887
 20
859.3963191438465
  0
CIRCLE
  5
166
330
17
100
AcDbEntity
  8
0
100
AcDbCircle
 10
1236.0002446633853
 20
859.2001108800337
 30
0.0
 40
11.0
  0
TEXT
  5
167
330
17
100
AcDbEntity
  8
LABEL
100
AcDbText
 10
1236.0002564428758
 20
812.1000906121449
 30
0.0
 40
11.859375
  1
LinkF
 50
90.0
 72
1
 11
1236.0002564428758
 21
812.1000906121449
 31
0.0
100
AcDbText
 73
2
  0
CIRCLE
  5
168
330
17
100
AcDbEntity
  8
0
100
AcDbCircle
 10
1254.000003674275
 20
913.2001451179623
 30
0.0
 40
11.0
  0
LWPOLYLINE
  5
169
330
17
100
AcDbEntity
  8
0
100
AcDbPolyline
 90
4
 70
1
 10
1254.0000036742745
 20
937.2001451179626
 42
1.0157787888818275
 10
1254.7513189137894
 20
889.2119078877928
 10
1491.1252354466046
 20
889.2119078877928
 42
0.9809821123639358
 10
1490.596253244105
 20
937.2001454755898
  0
CIRCLE
  5
16A
330
17
100
AcDbEntity
  8
0
100
AcDbCircle
 10
1490.400044980292
 20
913.2001339420917
 30
0.0
 40
11.0
  0
TEXT
  5
16B
330
17
100
AcDbEntity
  8
LABEL
100
AcDbText
 10
1443.3000247124032
 20
913.2001221626011
 30
0.0
 40
11.859375
  1
LinkF
 72
1
 11
1443.3000247124032
 21
913.2001221626011
 31
0.0
100
AcDbText
 73
2
  0
CIRCLE
  5
16C
330
17
100
AcDbEntity
  8
0
100
AcDbCircle
 10
1254.000003674275
 20
967.2001917439396
 30
0.0
 40
11.0
  0
LWPOLYLINE
  5
16D
330
17
100
AcDbEntity
  8
0
100
AcDbPolyline
 90
4
 70
1
 10
1254.0000036742745
 20
991.20019174394
 42
1.0157787888818275
 10
1254.7513189137894
 20
943.2119545137701
 10
1491.1252354466046
 20
943.2119545137701
 42
0.9809821123639358
 10
1490.596253244105
 20
991.2001921015672
  0
CIRCLE
  5
16E
330
17
100
AcDbEntity
  8
0
100
AcDbCircle
 10
1490.400044980292
 20
967.2001805680691
 30
0.0
 40
11.0
  0
TEXT
  5
16F
330
17
100
AcDbEntity
  8
LABEL
100
AcDbText
 10
1443.3000247124032
 20
967.2001687885785
 30
0.0
 40
11.859375
  1
LinkF
 72
1
 11
1443.3000247124032
 21
967.2001687885785
 31
0.0
100
AcDbText
 73
2
  0
CIRCLE
  5
170
330
17
100
AcDbEntity
  8
0
100
AcDbCircle
 10
1254.000003674275
 20
1021.200238369917
 30
0.0
 40
11.0
  0
LWPOLYLINE
  5
171
330
17
100
AcDbEntity
  8
0
100
AcDbPolyline
 90
4
 70
1
 10
1254.0000036742745
 20
1045.2002383699173
 42
1.0157787888818275
 10
1254.7513189137894
 20
997.2120011397475
 10
1491.1252354466046
 20
997.2120011397475
 42
0.9809821123639358
 10
1490.596253244105
 20
1045.2002387275445
  0
CIRCLE
  5
172
330
17
100
AcDbEntity
  8
0
100
AcDbCircle
 10
1490.400044980292
 20
1021.2002271940464
 30
0.0
 40
11.0
  0
TEXT
  5
173
330
17
100
AcDbEntity
  8
LABEL
100
AcDbText
 10
1443.3000247124032
 20
1021.2002154145558
 30
0.0
 40
11.859375
  1
LinkF
 72
1
 11
1443.3000247124032
 21
1021.2002154145558
 31
0.0
100
AcDbText
 73
2
  0
CIRCLE
  5
174
330
17
100
AcDbEntity
  8
0
100
AcDbCircle
 10
1533.0000695740168
 20
1075.2002849958944
 30
0.0
 40
11.0
  0
LWPOLYLINE
  5
175
330
17
100
AcDbEntity
  8
0
100
AcDbPolyline
 90
4
 70
1
 10
1533.0000695740164
 20
1099.2002849958947
 42
1.0157787888818275
 10
1533.7513848135313
 20
1051.212047765725
 10
1770.1253013463465
 20
1051.212047765725
 42
0.9809821123639358
 10
1769.5963191438468
 20
1099.2002853535218
  0
CIRCLE
  5
176
330
17
100
AcDbEntity
  8
0
100
AcDbCircle
 10
1769.400110880034
 20
1075.2002738200238
 30
0.0
 40
11.0
  0
TEXT
  5
177
330
17
100
AcDbEntity
  8
LABEL
100
AcDbText
 10
1722.3000906121451
 20
1075.2002620405333
 30
0.0
 40
11.859375
  1
LinkF
 72
1
 11
1722.3000906121451
 21
1075.2002620405333
 31
0.0
100
AcDbText
 73
2
  0
CIRCLE
  5
178
330
17
100
AcDbEntity
  8
0
100
AcDbCircle
 10
1533.0000695740168
 20
1129.2003316218716
 30
0.0
 40
11.0
  0
LWPOLYLINE
  5
179
330
17
100
AcDbEntity
  8
0
100
AcDbPolyline
 90
4
 70
1
 10
1533.0000695740164
 20
1153.200331621872
 42
1.0157787888818275
 10
1533.7513848135313
 20
1105.212094391702
 10
1770.1253013463465
 20
1105.212094391702
 42
0.9809821123639358
 10
1769.5963191438468
 20
1153.2003319794992
  0
CIRCLE
  5
17A
330
17
100
AcDbEntity
  8
0
100
AcDbCircle
 10
1769.400110880034
 20
1129.2003204460011
 30
0.0
 40
11.0
  0
TEXT
  5
17B
330
17
100
AcDbEntity
  8
LABEL
100
AcDbText
 10
1722.3000906121451
 20
1129.2003086665104
 30
0.0
 40
11.859375
  1
LinkF
 72
1
 11
1722.3000906121451
 21
1129.2003086665104
 31
0.0
100
AcDbText
 73
2
  0
CIRCLE
  5
17C
330
17
100
AcDbEntity
  8
0
100
AcDbCircle
 10
1278.0003267394693
 20
42.00000367427492
 30
0.0
 40
11.0
  0
LWPOLYLINE
  5
17D
330
17
100
AcDbEntity
  8
0
100
AcDbPolyline
 90
4
 70
1
 10
1254.000326739469
 20
42.00000367427447
 42
1.0157787888818275
 10
1301.9885639696388
 20
42.75131891378942
 10
1301.9885639696388
 20
279.1252354466046
 42
0.9809821123639358
 10
1254.0003263818417
 20
278.5962532441049
  0
CIRCLE
  5
17E
330
17
100
AcDbEntity
  8
0
100
AcDbCircle
 10
1278.00033791534
 20
278.400044980292
 30
0.0
 40
11.0
  0
TEXT
  5
17F
330
17
100
AcDbEntity
  8
LABEL
100
AcDbText
 10
1278.0003496948304
 20
231.30002471240323
 30
0.0
 40
11.859375
  1
LinkF
 50
90.0
 72
1
 11
1278.0003496948304
 21
231.30002471240323
 31
0.0
100
AcDbText
 73
2
  0
CIRCLE
  5
180
330
17
100
AcDbEntity
  8
0
100
AcDbCircle
 10
1278.0003267394693
 20
332.40003662414574
 30
0.0
 40
11.0
  0
LWPOLYLINE
  5
181
330
17
100
AcDbEntity
  8
0
100
AcDbPolyline
 90
4
 70
1
 10
1254.000326739469
 20
332.4000366241453
 42
1.0157787888818275
 10
1301.9885639696388
 20
333.15135186366024
 10
1301.9885639696388
 20
569.5252683964754
 42
0.9809821123639358
 10
1254.0003263818417
 20
568.9962861939757
  0
CIRCLE
  5
182
330
17
100
AcDbEntity
  8
0
100
AcDbCircle
 10
1278.00033791534
 20
568.8000779301628
 30
0.0
 40
11.0
  0
TEXT
  5
183
330
17
100
AcDbEntity
  8
LABEL
100
AcDbText
 10
1278.0003496948304
 20
521.700057662274
 30
0.0
 40
11.859375
  1
LinkF
 50
90.0
 72
1
 11
1278.0003496948304
 21
521.700057662274
 31
0.0
100
AcDbText
 73
2
  0
CIRCLE
  5
184
330
17
100
AcDbEntity
  8
0
100
AcDbCircle
 10
1290.0002797558643
 20
838.7580658997417
 30
0.0
 40
4.0
  0
CIRCLE
  5
185
330
17
100
AcDbEntity
  8
0
100
AcDbCircle
 10
1290.0002797558643
 20
622.8000658997416
 30
0.0
 40
11.0
  0
LWPOLYLINE
  5
186
330
17
100
AcDbEntity
  8
0
100
AcDbPolyline
 90
4
 70
1
 10
1266.0002797558643
 20
622.8000658997416
 42
0.9999999999999999
 10
1314.0002797558643
 20
622.8000658997416
 10
1314.000273428314
 20
838.7754935324162
 42
0.9992741120950986
 10
1266.0002860834147
 20
838.7754935324162
  0
TEXT
  5
187
330
17
100
AcDbEntity
  8
LABEL
100
AcDbText
 10
1290.0002797558643
 20
664.7895658997415
 30
0.0
 40
11.859375
  1
spacer
 50
90.0
 72
1
 11
1290.0002797558643
 21
664.7895658997415
 31
0.0
100
AcDbText
 73
2
  0
CIRCLE
  5
188
330
17
100
AcDbEntity
  8
0
100
AcDbCircle
 10
1332.0003730078192
 20
257.958
 30
0.0
 40
4.0
  0
CIRCLE
  5
189
330
17
100
AcDbEntity
  8
0
100
AcDbCircle
 10
1332.0003730078192
 20
42.0
 30
0.0
 40
11.0
  0
LWPOLYLINE
  5
18A
330
17
100
AcDbEntity
  8
0
100
AcDbPolyline
 90
4
 70
1
 10
1308.0003730078192
 20
42.00000000000001
 42
0.9999999999999999
 10
1356.0003730078192
 20
41.99999999999999
 10
1356.0003666802688
 20
257.9754276326746
 42
0.9992741120950986
 10
1308.0003793353696
 20
257.9754276326746
  0
TEXT
  5
18B
330
17
100
AcDbEntity
  8
LABEL
100
AcDbText
 10
1332.0003730078192
 20
83.98949999999991
 30
0.0
 40
11.859375
  1
spacer
 50
90.0
 72
1
 11
1332.0003730078192
 21
83.98949999999991
 31
0.0
100
AcDbText
 73
2
  0
CIRCLE
  5
18C
330
17
100
AcDbEntity
  8
0
100
AcDbCircle
 10
1332.0003730078192
 20
527.9159999999997
 30
0.0
 40
4.0
  0
CIRCLE
  5
18D
330
17
100
AcDbEntity
  8
0
100
AcDbCircle
 10
1332.0003730078192
 20
311.95799999999963
 30
0.0
 40
11.0
  0
LWPOLYLINE
  5
18E
330
17
100
AcDbEntity
  8
0
100
AcDbPolyline
 90
4
 70
1
 10
1308.0003730078192
 20
311.95799999999963
 42
0.9999999999999999
 10
1356.0003730078192
 20
311.95799999999963
 10
1356.0003666802688
 20
527.9334276326742
 42
0.9992741120950986
 10
1308.0003793353696
 20
527.9334276326742
  0
TEXT
  5
18F
330
17
100
AcDbEntity
  8
LABEL
100
AcDbText
 10
1332.0003730078192
 20
353.94749999999954
 30
0.0
 40
11.859375
  1
spacer
 50
90.0
 72
1
 11
1332.0003730078192
 21
353.94749999999954
 31
0.0
100
AcDbText
 73
2
  0
CIRCLE
  5
190
330
17
100
AcDbEntity
  8
0
100
AcDbCircle
 10
1344.0002797558643
 20
797.8739999999993
 30
0.0
 40
4.0
  0
CIRCLE
  5
191
330
17
100
AcDbEntity
  8
0
100
AcDbCircle
 10
1344.0002797558643
 20
581.9159999999993
 30
0.0
 40
11.0
  0
LWPOLYLINE
  5
192
330
17
100
AcDbEntity
  8
0
100
AcDbPolyline
 90
4
 70
1
 10
1320.0002797558643
 20
581.9159999999993
 42
0.9999999999999999
 10
1368.0002797558643
 20
581.9159999999993
 10
1368.000273428314
 20
797.8914276326739
 42
0.9992741120950986
 10
1320.0002860834147
 20
797.8914276326739
  0
TEXT
  5
193
330
17
100
AcDbEntity
  8
LABEL
100
AcDbText
 10
1344.0002797558643
 20
623.9054999999992
 30
0.0
 40
11.859375
  1
spacer
 50
90.0
 72
1
 11
1344.0002797558643
 21
623.9054999999992
 31
0.0
100
AcDbText
 73
2
  0
CIRCLE
  5
194
330
17
100
AcDbEntity
  8
0
100
AcDbCircle
 10
1559.9582797558644
 20
851.8739999999989
 30
0.0
 40
4.0
  0
CIRCLE
  5
195
330
17
100
AcDbEntity
  8
0
100
AcDbCircle
 10
1344.0002797558643
 20
851.8739999999989
 30
0.0
 40
11.0
  0
LWPOLYLINE
  5
196
330
17
100
AcDbEntity
  8
0
100
AcDbPolyline
 90
4
 70
1
 10
1344.0002797558643
 20
875.8739999999989
 42
0.9999999999999999
 10
1344.0002797558643
 20
827.8739999999989
 10
1559.975707388539
 20
827.8740063275493
 42
0.9992741120950986
 10
1559.975707388539
 20
875.8739936724485
  0
TEXT
  5
197
330
17
100
AcDbEntity
  8
LABEL
100
AcDbText
 10
1385.9897797558642
 20
851.8739999999989
 30
0.0
 40
11.859375
  1
spacer
 72
1
 11
1385.9897797558642
 21
851.8739999999989
 31
0.0
100
AcDbText
 73
2
  0
CIRCLE
  5
198
330
17
100
AcDbEntity
  8
0
100
AcDbCircle
 10
1760.358032949871
 20
905.8739999999989
 30
0.0
 40
4.0
  0
CIRCLE
  5
199
330
17
100
AcDbEntity
  8
0
100
AcDbCircle
 10
1544.4000329498708
 20
905.8739999999989
 30
0.0
 40
11.0
  0
LWPOLYLINE
  5
19A
330
17
100
AcDbEntity
  8
0
100
AcDbPolyline
 90
4
 70
1
 10
1544.4000329498708
 20
929.8739999999989
 42
0.9999999999999999
 10
1544.4000329498708
 20
881.8739999999989
 10
1760.3754605825454
 20
881.8740063275493
 42
0.9992741120950986
 10
1760.3754605825454
 20
929.8739936724485
  0
TEXT
  5
19B
330
17
100
AcDbEntity
  8
LABEL
100
AcDbText
 10
1586.3895329498707
 20
905.8739999999989
 30
0.0
 40
11.859375
  1
spacer
 72
1
 11
1586.3895329498707
 21
905.8739999999989
 31
0.0
100
AcDbText
 73
2
  0
CIRCLE
  5
19C
330
17
100
AcDbEntity
  8
0
100
AcDbCircle
 10
1760.358032949871
 20
959.8739999999989
 30
0.0
 40
4.0
  0
CIRCLE
  5
19D
330
17
100
AcDbEntity
  8
0
100
AcDbCircle
 10
1544.4000329498708
 20
959.8739999999989
 30
0.0
 40
11.0
  0
LWPOLYLINE
  5
19E
330
17
100
AcDbEntity
  8
0
100
AcDbPolyline
 90
4
 70
1
 10
1544.4000329498708
 20
983.8739999999989
 42
0.9999999999999999
 10
1544.4000329498708
 20
935.8739999999989
 10
1760.3754605825454
 20
935.8740063275493
 42
0.9992741120950986
 10
1760.3754605825454
 20
983.8739936724485
  0
TEXT
  5
19F
330
17
100
AcDbEntity
  8
LABEL
100
AcDbText
 10
1586.3895329498707
 20
959.8739999999989
 30
0.0
 40
11.859375
  1
spacer
 72
1
 11
1586.3895329498707
 21
959.8739999999989
 31
0.0
100
AcDbText
 73
2
  0
CIRCLE
  5
1A0
330
17
100
AcDbEntity
  8
0
100
AcDbCircle
 10
1760.358032949871
 20
1013.8739999999989
 30
0.0
 40
4.0
  0
CIRCLE
  5
1A1
330
17
100
AcDbEntity
  8
0
100
AcDbCircle
 10
1544.4000329498708
 20
1013.8739999999989
 30
0.0
 40
11.0
  0
LWPOLYLINE
  5
1A2
330
17
100
AcDbEntity
  8
0
100
AcDbPolyline
 90
4
 70
1
 10
1544.4000329498708
 20
1037.873999999999
 42
0.9999999999999999
 10
1544.4000329498708
 20
989.8739999999989
 10
1760.3754605825454
 20
989.8740063275493
 42
0.9992741120950986
 10
1760.3754605825454
 20
1037.8739936724485
  0
TEXT
  5
1A3
330
17
100
AcDbEntity
  8
LABEL
100
AcDbText
 10
1586.3895329498707
 20
1013.8739999999989
 30
0.0
 40
11.859375
  1
spacer
 72
1
 11
1586.3895329498707
 21
1013.8739999999989
 31
0.0
100
AcDbText
 73
2
  0
CIRCLE
  5
1A4
330
17
100
AcDbEntity
  8
0
100
AcDbCircle
 10
1386.0003730078192
 20
257.958
 30
0.0
 40
4.0
  0
CIRCLE
  5
1A5
330
17
100
AcDbEntity
  8
0
100
AcDbCircle
 10
1386.0003730078192
 20
42.0
 30
0.0
 40
11.0
  0
LWPOLYLINE
  5
1A6
330
17
100
AcDbEntity
  8
0
100
AcDbPolyline
 90
4
 70
1
 10
1362.0003730078192
 20
42.00000000000001
 42
0.9999999999999999
 10
1410.0003730078192
 20
41.99999999999999
 10
1410.0003666802688
 20
257.9754276326746
 42
0.9992741120950986
 10
1362.0003793353696
 20
257.9754276326746
  0
TEXT
  5
1A7
330
17
100
AcDbEntity
  8
LABEL
100
AcDbText
 10
1386.0003730078192
 20
83.98949999999991
 30
0.0
 40
11.859375
  1
spacer
 50
90.0
 72
1
 11
1386.0003730078192
 21
83.98949999999991
 31
0.0
100
AcDbText
 73
2
  0
CIRCLE
  5
1A8
330
17
100
AcDbEntity
  8
0
100
AcDbCircle
 10
1386.0003730078192
 20
527.9159999999997
 30
0.0
 40
4.0
  0
CIRCLE
  5
1A9
330
17
100
AcDbEntity
  8
0
100
AcDbCircle
 10
1386.0003730078192
 20
311.95799999999963
 30
0.0
 40
11.0
  0
LWPOLYLINE
  5
1AA
330
17
100
AcDbEntity
  8
0
100
AcDbPolyline
 90
4
 70
1
 10
1362.0003730078192
 20
311.95799999999963
 42
0.9999999999999999
 10
1410.0003730078192
 20
311.95799999999963
 10
1410.0003666802688
 20
527.9334276326742
 42
0.9992741120950986
 10
1362.0003793353696
 20
527.9334276326742
  0
TEXT
  5
1AB
330
17
100
AcDbEntity
  8
LABEL
100
AcDbText
 10
1386.0003730078192
 20
353.94749999999954
 30
0.0
 40
11.859375
  1
spacer
 50
90.0
 72
1
 11
1386.0003730078192
 21
353.94749999999954
 31
0.0
100
AcDbText
 73
2
  0
CIRCLE
  5
1AC
330
17
100
AcDbEntity
  8
0
100
AcDbCircle
 10
1398.0002797558643
 20
797.8739999999993
 30
0.0
 40
4.0
  0
CIRCLE
  5
1AD
330
17
100
AcDbEntity
  8
0
100
AcDbCircle
 10
1398.0002797558643
 20
581.9159999999993
 30
0.0
 40
11.0
  0
LWPOLYLINE
  5
1AE
330
17
100
AcDbEntity
  8
0
100
AcDbPolyline
 90
4
 70
1
 10
1374.0002797558643
 20
581.9159999999993
 42
0.9999999999999999
 10
1422.0002797558643
 20
581.9159999999993
 10
1422.000273428314
 20
797.8914276326739
 42
0.9992741120950986
 10
1374.0002860834147
 20
797.8914276326739
  0
TEXT
  5
1AF
330
17
100
AcDbEntity
  8
LABEL
100
AcDbText
 10
1398.0002797558643
 20
623.9054999999992
 30
0.0
 40
11.859375
  1
spacer
 50
90.0
 72
1
 11
1398.0002797558643
 21
623.9054999999992
 31
0.0
100
AcDbText
 73
2
  0
CIRCLE
  5
1B0
330
17
100
AcDbEntity
  8
0
100
AcDbCircle
 10
1440.0003730078192
 20
257.958
 30
0.0
 40
4.0
  0
CIRCLE
  5
1B1
330
17
100
AcDbEntity
  8
0
100
AcDbCircle
 10
1440.0003730078192
 20
42.0
 30
0.0
 40
11.0
  0
LWPOLYLINE
  5
1B2
330
17
100
AcDbEntity
  8
0
100
AcDbPolyline
 90
4
 70
1
 10
1416.0003730078192
 20
42.00000000000001
 42
0.9999999999999999
 10
1464.0003730078192
 20
41.99999999999999
 10
1464.0003666802688
 20
257.9754276326746
 42
0.9992741120950986
 10
1416.0003793353696
 20
257.9754276326746
  0
TEXT
  5
1B3
330
17
100
AcDbEntity
  8
LABEL
100
AcDbText
 10
1440.0003730078192
 20
83.98949999999991
 30
0.0
 40
11.859375
  1
spacer
 50
90.0
 72
1
 11
1440.0003730078192
 21
83.98949999999991
 31
0.0
100
AcDbText
 73
2
  0
CIRCLE
  5
1B4
330
17
100
AcDbEntity
  8
0
100
AcDbCircle
 10
1440.0003730078192
 20
527.9159999999997
 30
0.0
 40
4.0
  0
CIRCLE
  5
1B5
330
17
100
AcDbEntity
  8
0
100
AcDbCircle
 10
1440.0003730078192
 20
311.95799999999963
 30
0.0
 40
11.0
  0
LWPOLYLINE
  5
1B6
330
17
100
AcDbEntity
  8
0
100
AcDbPolyline
 90
4
 70
1
 10
1416.0003730078192
 20
311.95799999999963
 42
0.9999999999999999
 10
1464.0003730078192
 20
311.95799999999963
 10
1464.0003666802688
 20
527.9334276326742
 42
0.9992741120950986
 10
1416.0003793353696
 20
527.9334276326742
  0
TEXT
  5
1B7
330
17
100
AcDbEntity
  8
LABEL
100
AcDbText
 10
1440.0003730078192
 20
353.94749999999954
 30
0.0
 40
11.859375
  1
spacer
 50
90.0
 72
1
 11
1440.0003730078192
 21
353.94749999999954
 31
0.0
100
AcDbText
 73
2
  0
CIRCLE
  5
1B8
330
17
100
AcDbEntity
  8
0
100
AcDbCircle
 10
1452.0002797558643
 20
797.8739999999993
 30
0.0
 40
4.0
  0
CIRCLE
  5
1B9
330
17
100
AcDbEntity
  8
0
100
AcDbCircle
 10
1452.0002797558643
 20
581.9159999999993
 30
0.0
 40
11.0
  0
LWPOLYLINE
  5
1BA
330
17
100
AcDbEntity
  8
0
100
AcDbPolyline
 90
4
 70
1
 10
1428.0002797558643
 20
581.9159999999993
 42
0.9999999999999999
 10
1476.0002797558643
 20
581.9159999999993
 10
1476.000273428314
 20
797.8914276326739
 42
0.9992741120950986
 10
1428.0002860834147
 20
797.8914276326739
  0
TEXT
  5
1BB
330
17
100
AcDbEntity
  8
LABEL
100
AcDbText
 10
1452.0002797558643
 20
623.9054999999992
 30
0.0
 40
11.859375
  1
spacer
 50
90.0
 72
1
 11
1452.0002797558643
 21
623.9054999999992
 31
0.0
100
AcDbText
 73
2
  0
CIRCLE
  5
1BC
330
17
100
AcDbEntity
  8
0
100
AcDbCircle
 10
1494.0003730078192
 20
257.958
 30
0.0
 40
4.0
  0
CIRCLE
  5
1BD
330
17
100
AcDbEntity
  8
0
100
AcDbCircle
 10
1494.0003730078192
 20
42.0
 30
0.0
 40
11.0
  0
LWPOLYLINE
  5
1BE
330
17
100
AcDbEntity
  8
0
100
AcDbPolyline
 90
4
 70
1
 10
1470.0003730078192
 20
42.00000000000001
 42
0.9999999999999999
 10
1518.0003730078192
 20
41.99999999999999
 10
1518.0003666802688
 20
257.9754276326746
 42
0.9992741120950986
 10
1470.0003793353696
 20
257.9754276326746
  0
TEXT
  5
1BF
330
17
100
AcDbEntity
  8
LABEL
100
AcDbText
 10
1494.0003730078192
 20
83.98949999999991
 30
0.0
 40
11.859375
  1
spacer
 50
90.0
 72
1
 11
1494.0003730078192
 21
83.98949999999991
 31
0.0
100
AcDbText
 73
2
  0
CIRCLE
  5
1C0
330
17
100
AcDbEntity
  8
0
100
AcDbCircle
 10
1494.0003730078192
 20
527.9159999999997
 30
0.0
 40
4.0
  0
CIRCLE
  5
1C1
330
17
100
AcDbEntity
  8
0
100
AcDbCircle
 10
1494.0003730078192
 20
311.95799999999963
 30
0.0
 40
11.0
  0
LWPOLYLINE
  5
1C2
330
17
100
AcDbEntity
  8
0
100
AcDbPolyline
 90
4
 70
1
 10
1470.0003730078192
 20
311.95799999999963
 42
0.9999999999999999
 10
1518.0003730078192
 20
311.95799999999963
 10
1518.0003666802688
 20
527.9334276326742
 42
0.9992741120950986
 10
1470.0003793353696
 20
527.9334276326742
  0
TEXT
  5
1C3
330
17
100
AcDbEntity
  8
LABEL
100
AcDbText
 10
1494.0003730078192
 20
353.94749999999954
 30
0.0
 40
11.859375
  1
spacer
 50
90.0
 72
1
 11
1494.0003730078192
 21
353.94749999999954
 31
0.0
100
AcDbText
 73
2
  0
CIRCLE
  5
1C4
330
17
100
AcDbEntity
  8
0
100
AcDbCircle
 10
1506.0002797558643
 20
797.8739999999993
 30
0.0
 40
4.0
  0
CIRCLE
  5
1C5
330
17
100
AcDbEntity
  8
0
100
AcDbCircle
 10
1506.0002797558643
 20
581.9159999999993
 30
0.0
 40
11.0
  0
LWPOLYLINE
  5
1C6
330
17
100
AcDbEntity
  8
0
100
AcDbPolyline
 90
4
 70
1
 10
1482.0002797558643
 20
581.9159999999993
 42
0.9999999999999999
 10
1530.0002797558643
 20
581.9159999999993
 10
1530.000273428314
 20
797.8914276326739
 42
0.9992741120950986
 10
1482.0002860834147
 20
797.8914276326739
  0
TEXT
  5
1C7
330
17
100
AcDbEntity
  8
LABEL
100
AcDbText
 10
1506.0002797558643
 20
623.9054999999992
 30
0.0
 40
11.859375
  1
spacer
 50
90.0
 72
1
 11
1506.0002797558643
 21
623.9054999999992
 31
0.0
100
AcDbText
 73
2
  0
CIRCLE
  5
1C8
330
17
100
AcDbEntity
  8
0
100
AcDbCircle
 10
1548.0003730078192
 20
257.958
 30
0.0
 40
4.0
  0
CIRCLE
  5
1C9
330
17
100
AcDbEntity
  8
0
100
AcDbCircle
 10
1548.0003730078192
 20
42.0
 30
0.0
 40
11.0
  0
LWPOLYLINE
  5
1CA
330
17
100
AcDbEntity
  8
0
100
AcDbPolyline
 90
4
 70
1
 10
1524.0003730078192
 20
42.00000000000001
 42
0.9999999999999999
 10
1572.0003730078192
 20
41.99999999999999
 10
1572.0003666802688
 20
257.9754276326746
 42
0.9992741120950986
 10
1524.0003793353696
 20
257.9754276326746
  0
TEXT
  5
1CB
330
17
100
AcDbEntity
  8
LABEL
100
AcDbText
 10
1548.0003730078192
 20
83.98949999999991
 30
0.0
 40
11.859375
  1
spacer
 50
90.0
 72
1
 11
1548.0003730078192
 21
83.98949999999991
 31
0.0
100
AcDbText
 73
2
  0
ENDSEC
  0
SECTION
  2
OBJECTS
  0
DICTIONARY
  5
A
330
0
100
AcDbDictionary
281
1
  3
ACAD_COLOR
350
B
  3
ACAD_GROUP
350
C
  3
ACAD_LAYOUT
350
D
  3
ACAD_MATERIAL
350
E
  3
ACAD_MLEADERSTYLE
350
F
  3
ACAD_MLINESTYLE
350
10
  3
ACAD_PLOTSETTINGS
350
11
  3
ACAD_PLOTSTYLENAME
350
12
  3
ACAD_SCALELIST
350
14
  3
ACAD_TABLESTYLE
350
15
  3
ACAD_VISUALSTYLE
350
16
  3
EZDXF_META
350
2D
  0
DICTIONARY
  5
B
330
A
100
AcDbDictionary
281
1
  0
DICTIONARY
  5
C
330
A
100
AcDbDictionary
281
1
  0
DICTIONARY
  5
D
330
A
100
AcDbDictionary
281
1
  3
Model
350
1A
  3
Layout1
350
1E
  0
DICTIONARY
  5
E
330
A
100
AcDbDictionary
281
1
  3
ByBlock
350
1F
  3
ByLayer
350
20
  3
Global
350
21
  0
DICTIONARY
  5
F
330
A
100
AcDbDictionary
281
1
  3
Standard
350
2C
  0
DICTIONARY
  5
10
330
A
100
AcDbDictionary
281
1
  3
Standard
350
22
  0
DICTIONARY
  5
11
330
A
100
AcDbDictionary
281
1
  0
ACDBDICTIONARYWDFLT
  5
12
330
A
100
AcDbDictionary
281
1
  3
Normal
350
13
100
AcDbDictionaryWithDefault
340
13
  0
ACDBPLACEHOLDER
  5
13
330
12
  0
DICTIONARY
  5
14
330
A
100
AcDbDictionary
281
1
  0
DICTIONARY
  5
15
330
A
100
AcDbDictionary
281
1
  0
DICTIONARY
  5
16
330
A
100
AcDbDictionary
281
1
  0
LAYOUT
  5
1A
330
D
100
AcDbPlotSettings
  1

  4
A3
  6

 40
7.5
 41
20.0
 42
7.5
 43
20.0
 44
420.0
 45
297.0
 46
0.0
 47
0.0
 48
0.0
 49
0.0
140
0.0
141
0.0
142
1.0
143
1.0
 70
1024
 72
1
 73
0
 74
5
  7

 75
16
 76
0
 77
2
 78
300
147
1.0
148
0.0
149
0.0
100
AcDbLayout
  1
Model
 70
1
 71
0
 10
0.0
 20
0.0
 11
420.0
 21
297.0
 12
0.0
 22
0.0
 32
0.0
 14
1e+20
 24
1e+20
 34
1e+20
 15
-1e+20
 25
-1e+20
 35
-1e+20
146
0.0
 13
0.0
 23
0.0
 33
0.0
 16
1.0
 26
0.0
 36
0.0
 17
0.0
 27
1.0
 37
0.0
 76
1
330
17
  0
LAYOUT
  5
1E
330
D
100
AcDbPlotSettings
  1

  4
A3
  6

 40
7.5
 41
20.0
 42
7.5
 43
20.0
 44
420.0
 45
297.0
 46
0.0
 47
0.0
 48
0.0
 49
0.0
140
0.0
141
0.0
142
1.0
143
1.0
 70
0
 72
1
 73
0
 74
5
  7

 75
16
 76
0
 77
2
 78
300
147
1.0
148
0.0
149
0.0
100
AcDbLayout
  1
Layout1
 70
1
 71
1
 10
0.0
 20
0.0
 11
420.0
 21
297.0
 12
0.0
 22
0.0
 32
0.0
 14
1e+20
 24
1e+20
 34
1e+20
 15
-1e+20
 25
-1e+20
 35
-1e+20
146
0.0
 13
0.0
 23
0.0
 33
0.0
 16
1.0
 26
0.0
 36
0.0
 17
0.0
 27
1.0
 37
0.0
 76
1
330
1B
  0
MATERIAL
  5
1F
102
{ACAD_REACTORS
330
E
102
}
330
E
100
AcDbMaterial
  1
ByBlock
  2

 70
0
 40
1.0
 71
1
 41
1.0
 91
-1023410177
 42
1.0
 72
1
  3

 73
1
 74
1
 75
1
 44
0.5
 73
0
 45
1.0
 46
1.0
 77
1
  4

 78
1
 79
1
170
1
 48
1.0
171
1
  6

172
1
173
1
174
1
140
1.0
141
1.0
175
1
  7

176
1
177
1
178
1
143
1.0
179
1
  8

270
1
271
1
272
1
145
1.0
146
1.0
273
1
  9

274
1
275
1
276
1
 42
1.0
 72
1
  3

 73
1
 74
1
 75
1
 94
63
  0
MATERIAL
  5
20
102
{ACAD_REACTORS
330
E
102
}
330
E
100
AcDbMaterial
  1
ByLayer
  2

 70
0
 40
1.0
 71
1
 41
1.0
 91
-1023410177
 42
1.0
 72
1
  3

 73
1
 74
1
 75
1
 44
0.5
 73
0
 45
1.0
 46
1.0
 77
1
  4

 78
1
 79
1
170
1
 48
1.0
171
1
  6

172
1
173
1
174
1
140
1.0
141
1.0
175
1
  7

176
1
177
1
178
1
143
1.0
179
1
  8

270
1
271
1
272
1
145
1.0
146
1.0
273
1
  9

274
1
275
1
276
1
 42
1.0
 72
1
  3

 73
1
 74
1
 75
1
 94
63
  0
MATERIAL
  5
21
102
{ACAD_REACTORS
330
E
102
}
330
E
100
AcDbMaterial
  1
Global
  2

 70
0
 40
1.0
 71
1
 41
1.0
 91
-1023410177
 42
1.0
 72
1
  3

 73
1
 74
1
 75
1
 44
0.5
 73
0
 45
1.0
 46
1.0
 77
1
  4

 78
1
 79
1
170
1
 48
1.0
171
1
  6

172
1
173
1
174
1
140
1.0
141
1.0
175
1
  7

176
1
177
1
178
1
143
1.0
179
1
  8

270
1
271
1
272
1
145
1.0
146
1.0
273
1
  9

274
1
275
1
276
1
 42
1.0
 72
1
  3

 73
1
 74
1
 75
1
 94
63
  0
MLINESTYLE
  5
22
102
{ACAD_REACTORS
330
10
102
}
330
10
100
AcDbMlineStyle
  2
Standard
 70
0
  3

 62
256
 51
90.0
 52
90.0
 71
2
 49
0.5
 62
256
  6
BYLAYER
 49
-0.5
 62
256
  6
BYLAYER
  0
MLEADERSTYLE
  5
2C
102
{ACAD_REACTORS
330
F
102
}
330
F
100
AcDbMLeaderStyle
179
2
170
2
171
1
172
0
 90
2
 40
0.0
 41
0.0
173
1
 91
-1056964608
 92
-2
290
1
 42
2.0
291
1
 43
8.0
  3
Standard
 44
4.0
300

342
29
174
1
175
1
176
0
178
1
 93
-1056964608
 45
4.0
292
0
297
0
 46
4.0
 94
-1056964608
 47
1.0
 49
1.0
140
1.0
294
1
141
0.0
177
0
142
1.0
295
0
296
0
143
3.75
271
0
272
9
273
9
  0
DICTIONARY
  5
2D
330
A
100
AcDbDictionary
280
1
281
1
  3
CREATED_BY_EZDXF
350
2E
  3
WRITTEN_BY_EZDXF
350
1CE
  0
DICTIONARYVAR
  5
2E
330
2D
100
DictionaryVariables
280
0
  1
1.4.4 @ 2026-08-07T14:00:32.563757+00:00
  0
DICTIONARYVAR
  5
1CE
330
2D
100
DictionaryVariables
280
0
  1
1.4.4 @ 2026-08-07T14:00:34.807665+00:00
  0
ENDSEC
  0
EOF
