  0
SECTION
  2
HEADER
  9
$ACADVER
  1
AC1027
  9
$ACADMAINTVER
 70
105
  9
$DWGCODEPAGE
  3
ANSI_1252
  9
$LASTSAVEDBY
  1
ezdxf
  9
$REQUIREDVERSIONS
160
0
  9
$INSBASE
 10
0.0
 20
0.0
 30
0.0
  9
$EXTMIN
 10
1e+20
 20
1e+20
 30
1e+20
  9
$EXTMAX
 10
-1e+20
 20
-1e+20
 30
-1e+20
  9
$LIMMIN
 10
0.0
 20
0.0
  9
$LIMMAX
 10
420.0
 20
297.0
  9
$ORTHOMODE
 70
0
  9
$REGENMODE
 70
1
  9
$FILLMODE
 70
1
  9
$QTEXTMODE
 70
0
  9
$MIRRTEXT
 70
1
  9
$LTSCALE
 40
1.0
  9
$ATTMODE
 70
1
  9
$TEXTSIZE
 40
2.5
  9
$TRACEWID
 40
1.0
  9
$TEXTSTYLE
  7
Standard
  9
$CLAYER
  8
0
  9
$CELTYPE
  6
ByLayer
  9
$CECOLOR
 62
256
  9
$CELTSCALE
 40
1.0
  9
$DISPSILH
 70
0
  9
$DIMSCALE
 40
1.0
  9
$DIMASZ
 40
2.5
  9
$DIMEXO
 40
0.625
  9
$DIMDLI
 40
3.75
  9
$DIMRND
 40
0.0
  9
$DIMDLE
 40
0.0
  9
$DIMEXE
 40
1.25
  9
$DIMTP
 40
0.0
  9
$DIMTM
 40
0.0
  9
$DIMTXT
 40
2.5
  9
$DIMCEN
 40
2.5
  9
$DIMTSZ
 40
0.0
  9
$DIMTOL
 70
0
  9
$DIMLIM
 70
0
  9
$DIMTIH
 70
0
  9
$DIMTOH
 70
0
  9
$DIMSE1
 70
0
  9
$DIMSE2
 70
0
  9
$DIMTAD
 70
1
  9
$DIMZIN
 70
8
  9
$DIMBLK
  1

  9
$DIMASO
 70
1
  9
$DIMSHO
 70
1
  9
$DIMPOST
  1

  9
$DIMAPOST
  1

  9
$DIMALT
 70
0
  9
$DIMALTD
 70
3
  9
$DIMALTF
 40
0.03937007874
  9
$DIMLFAC
 40
1.0
  9
$DIMTOFL
 70
1
  9
$DIMTVP
 40
0.0
  9
$DIMTIX
 70
0
  9
$DIMSOXD
 70
0
  9
$DIMSAH
 70
0
  9
$DIMBLK1
  1

  9
$DIMBLK2
  1

  9
$DIMSTYLE
  2
ISO-25
  9
$DIMCLRD
 70
0
  9
$DIMCLRE
 70
0
  9
$DIMCLRT
 70
0
  9
$DIMTFAC
 40
1.0
  9
$DIMGAP
 40
0.625
  9
$DIMJUST
 70
0
  9
$DIMSD1
 70
0
  9
$DIMSD2
 70
0
  9
$DIMTOLJ
 70
0
  9
$DIMTZIN
 70
8
  9
$DIMALTZ
 70
0
  9
$DIMALTTZ
 70
0
  9
$DIMUPT
 70
0
  9
$DIMDEC
 70
2
  9
$DIMTDEC
 70
2
  9
$DIMALTU
 70
2
  9
$DIMALTTD
 70
3
  9
$DIMTXSTY
  7
Standard
  9
$DIMAUNIT
 70
0
  9
$DIMADEC
 70
0
  9
$DIMALTRND
 40
0.0
  9
$DIMAZIN
 70
0
  9
$DIMDSEP
 70
44
  9
$DIMATFIT
 70
3
  9
$DIMFRAC
 70
0
  9
$DIMLDRBLK
  1

  9
$DIMLUNIT
 70
2
  9
$DIMLWD
 70
-2
  9
$DIMLWE
 70
-2
  9
$DIMTMOVE
 70
0
  9
$DIMFXL
 40
1.0
  9
$DIMFXLON
 70
0
  9
$DIMJOGANG
 40
0.785398163397
  9
$DIMTFILL
 70
0
  9
$DIMTFILLCLR
 70
0
  9
$DIMARCSYM
 70
0
  9
$DIMLTYPE
  6

  9
$DIMLTEX1
  6

  9
$DIMLTEX2
  6

  9
$DIMTXTDIRECTION
 70
0
  9
$LUNITS
 70
2
  9
$LUPREC
 70
4
  9
$SKETCHINC
 40
1.0
  9
$FILLETRAD
 40
10.0
  9
$AUNITS
 70
0
  9
$AUPREC
 70
2
  9
$MENU
  1
.
  9
$ELEVATION
 40
0.0
  9
$PELEVATION
 40
0.0
  9
$THICKNESS
 40
0.0
  9
$LIMCHECK
 70
0
  9
$CHAMFERA
 40
0.0
  9
$CHAMFERB
 40
0.0
  9
$CHAMFERC
 40
0.0
  9
$CHAMFERD
 40
0.0
  9
$SKPOLY
 70
0
  9
$TDCREATE
 40
2461260.5606712964
  9
$TDUCREATE
 40
2458532.153996898
  9
$TDUPDATE
 40
2461260.5606944445
  9
$TDUUPDATE
 40
2458532.1544311
  9
$TDINDWG
 40
0.0
  9
$TDUSRTIMER
 40
0.0
  9
$USRTIMER
 70
1
  9
$ANGBASE
 50
0.0
  9
$ANGDIR
 70
0
  9
$PDMODE
 70
0
  9
$PDSIZE
 40
0.0
  9
$PLINEWID
 40
0.0
  9
$SPLFRAME
 70
0
  9
$SPLINETYPE
 70
6
  9
$SPLINESEGS
 70
8
  9
$HANDSEED
  5
223
  9
$SURFTAB1
 70
6
  9
$SURFTAB2
 70
6
  9
$SURFTYPE
 70
6
  9
$SURFU
 70
6
  9
$SURFV
 70
6
  9
$UCSBASE
  2

  9
$UCSNAME
  2

  9
$UCSORG
 10
0.0
 20
0.0
 30
0.0
  9
$UCSXDIR
 10
1.0
 20
0.0
 30
0.0
  9
$UCSYDIR
 10
0.0
 20
1.0
 30
0.0
  9
$UCSORTHOREF
  2

  9
$UCSORTHOVIEW
 70
0
  9
$UCSORGTOP
 10
0.0
 20
0.0
 30
0.0
  9
$UCSORGBOTTOM
 10
0.0
 20
0.0
 30
0.0
  9
$UCSORGLEFT
 10
0.0
 20
0.0
 30
0.0
  9
$UCSORGRIGHT
 10
0.0
 20
0.0
 30
0.0
  9
$UCSORGFRONT
 10
0.0
 20
0.0
 30
0.0
  9
$UCSORGBACK
 10
0.0
 20
0.0
 30
0.0
  9
$PUCSBASE
  2

  9
$PUCSNAME
  2

  9
$PUCSORG
 10
0.0
 20
0.0
 30
0.0
  9
$PUCSXDIR
 10
1.0
 20
0.0
 30
0.0
  9
$PUCSYDIR
 10
0.0
 20
1.0
 30
0.0
  9
$PUCSORTHOREF
  2

  9
$PUCSORTHOVIEW
 70
0
  9
$PUCSORGTOP
 10
0.0
 20
0.0
 30
0.0
  9
$PUCSORGBOTTOM
 10
0.0
 20
0.0
 30
0.0
  9
$PUCSORGLEFT
 10
0.0
 20
0.0
 30
0.0
  9
$PUCSORGRIGHT
 10
0.0
 20
0.0
 30
0.0
  9
$PUCSORGFRONT
 10
0.0
 20
0.0
 30
0.0
  9
$PUCSORGBACK
 10
0.0
 20
0.0
 30
0.0
  9
$USERI1
 70
0
  9
$USERI2
 70
0
  9
$USERI3
 70
0
  9
$USERI4
 70
0
  9
$USERI5
 70
0
  9
$USERR1
 40
0.0
  9
$USERR2
 40
0.0
  9
$USERR3
 40
0.0
  9
$USERR4
 40
0.0
  9
$USERR5
 40
0.0
  9
$WORLDVIEW
 70
1
  9
$SHADEDGE
 70
3
  9
$SHADEDIF
 70
70
  9
$TILEMODE
 70
1
  9
$MAXACTVP
 70
64
  9
$PINSBASE
 10
0.0
 20
0.0
 30
0.0
  9
$PLIMCHECK
 70
0
  9
$PEXTMIN
 10
1e+20
 20
1e+20
 30
1e+20
  9
$PEXTMAX
 10
-1e+20
 20
-1e+20
 30
-1e+20
  9
$PLIMMIN
 10
0.0
 20
0.0
  9
$PLIMMAX
 10
420.0
 20
297.0
  9
$UNITMODE
 70
0
  9
$VISRETAIN
 70
1
  9
$PLINEGEN
 70
0
  9
$PSLTSCALE
 70
1
  9
$TREEDEPTH
 70
3020
  9
$CMLSTYLE
  2
Standard
  9
$CMLJUST
 70
0
  9
$CMLSCALE
 40
20.0
  9
$PROXYGRAPHICS
 70
1
  9
$MEASUREMENT
 70
1
  9
$CELWEIGHT
370
-1
  9
$ENDCAPS
280
0
  9
$JOINSTYLE
280
0
  9
$LWDISPLAY
290
0
  9
$INSUNITS
 70
4
  9
$HYPERLINKBASE
  1

  9
$STYLESHEET
  1

  9
$XEDIT
290
1
  9
$CEPSNTYPE
380
0
  9
$PSTYLEMODE
290
1
  9
$FINGERPRINTGUID
  2
{5D7FB2F6-0E9E-411A-B5D0-1D71869D62F6}
  9
$VERSIONGUID
  2
{EB6C49A2-6968-4C49-8624-C3B11EBF9E35}
  9
$EXTNAMES
290
1
  9
$PSVPSCALE
 40
0.0
  9
$OLESTARTUP
290
0
  9
$SORTENTS
280
127
  9
$INDEXCTL
280
0
  9
$HIDETEXT
280
1
  9
$XCLIPFRAME
280
1
  9
$HALOGAP
280
0
  9
$OBSCOLOR
 70
257
  9
$OBSLTYPE
280
0
  9
$INTERSECTIONDISPLAY
280
0
  9
$INTERSECTIONCOLOR
 70
257
  9
$DIMASSOC
280
2
  9
$PROJECTNAME
  1

  9
$CAMERADISPLAY
290
0
  9
$LENSLENGTH
 40
50.0
  9
$CAMERAHEIGHT
 40
0.0
  9
$STEPSPERSEC
 40
24.0
  9
$STEPSIZE
 40
100.0
  9
$3DDWFPREC
 40
2.0
  9
$PSOLWIDTH
 40
0.005
  9
$PSOLHEIGHT
 40
0.08
  9
$LOFTANG1
 40
1.570796326795
  9
$LOFTANG2
 40
1.570796326795
  9
$LOFTMAG1
 40
0.0
  9
$LOFTMAG2
 40
0.0
  9
$LOFTPARAM
 70
7
  9
$LOFTNORMALS
280
1
  9
$LATITUDE
 40
37.795
  9
$LONGITUDE
 40
-122.394
  9
$NORTHDIRECTION
 40
0.0
  9
$TIMEZONE
 70
-8000
  9
$LIGHTGLYPHDISPLAY
280
1
  9
$TILEMODELIGHTSYNCH
280
1
  9
$CMATERIAL
347
20
  9
$SOLIDHIST
280
0
  9
$SHOWHIST
280
1
  9
$DWFFRAME
280
2
  9
$DGNFRAME
280
2
  9
$REALWORLDSCALE
290
1
  9
$INTERFERECOLOR
 62
256
  9
$CSHADOW
280
0
  9
$SHADOWPLANELOCATION
 40
0.0
  0
ENDSEC
  0
SECTION
  2
CLASSES
  0
CLASS
  1
ACDBDICTIONARYWDFLT
  2
AcDbDictionaryWithDefault
  3
ObjectDBX Classes
 90
0
 91
0
280
0
281
0
  0
CLASS
  1
SUN
  2
AcDbSun
  3
SCENEOE
 90
1153
 91
0
280
0
281
0
  0
CLASS
  1
VISUALSTYLE
  2
AcDbVisualStyle
  3
ObjectDBX Classes
 90
4095
 91
0
280
0
281
0
  0
CLASS
  1
MATERIAL
  2
AcDbMaterial
  3
ObjectDBX Classes
 90
1153
 91
0
280
0
281
0
  0
CLASS
  1
SCALE
  2
AcDbScale
  3
ObjectDBX Classes
 90
1153
 91
0
280
0
281
0
  0
CLASS
  1
TABLESTYLE
  2
AcDbTableStyle
  3
ObjectDBX Classes
 90
4095
 91
0
280
0
281
0
  0
CLASS
  1
MLEADERSTYLE
  2
AcDbMLeaderStyle
  3
ACDB_MLEADERSTYLE_CLASS
 90
4095
 91
0
280
0
281
0
  0
CLASS
  1
DICTIONARYVAR
  2
AcDbDictionaryVar
  3
ObjectDBX Classes
 90
0
 91
0
280
0
281
0
  0
CLASS
  1
CELLSTYLEMAP
  2
AcDbCellStyleMap
  3
ObjectDBX Classes
 90
1152
 91
0
280
0
281
0
  0
CLASS
  1
MENTALRAYRENDERSETTINGS
  2
AcDbMentalRayRenderSettings
  3
SCENEOE
 90
1024
 91
0
280
0
281
0
  0
CLASS
  1
ACDBDETAILVIEWSTYLE
  2
AcDbDetailViewStyle
  3
ObjectDBX Classes
 90
1025
 91
0
280
0
281
0
  0
CLASS
  1
ACDBSECTIONVIEWSTYLE
  2
AcDbSectionViewStyle
  3
ObjectDBX Classes
 90
1025
 91
0
280
0
281
0
  0
CLASS
  1
RASTERVARIABLES
  2
AcDbRasterVariables
  3
ISM
 90
0
 91
0
280
0
281
0
  0
CLASS
  1
LAYOUT
  2
AcDbLayout
  3
ObjectDBX Classes
 90
0
 91
0
280
0
281
0
  0
CLASS
  1
ACDBPLACEHOLDER
  2
AcDbPlaceHolder
  3
ObjectDBX Classes
 90
0
 91
0
280
0
281
0
  0
ENDSEC
  0
SECTION
  2
TABLES
  0
TABLE
  2
VPORT
  5
8
330
0
100
AcDbSymbolTable
 70
1
  0
VPORT
  5
23
330
8
100
AcDbSymbolTableRecord
100
AcDbViewportTableRecord
  2
*Active
 70
0
 10
0.0
 20
0.0
 11
1.0
 21
1.0
 12
0.0
 22
0.0
 13
0.0
 23
0.0
 14
0.5
 24
0.5
 15
0.5
 25
0.5
 16
0.0
 26
0.0
 36
1.0
 17
0.0
 27
0.0
 37
0.0
 40
1000.0
 41
1.34
 42
50.0
 43
0.0
 44
0.0
 50
0.0
 51
0.0
 71
0
 72
1000
 73
1
 74
3
 75
0
 76
0
 77
0
 78
0
281
0
 65
0
146
0.0
  0
ENDTAB
  0
TABLE
  2
LTYPE
  5
2
330
0
100
AcDbSymbolTable
 70
3
  0
LTYPE
  5
24
330
2
100
AcDbSymbolTableRecord
100
AcDbLinetypeTableRecord
  2
ByBlock
 70
0
  3

 72
65
 73
0
 40
0.0
  0
LTYPE
  5
25
330
2
100
AcDbSymbolTableRecord
100
AcDbLinetypeTableRecord
  2
ByLayer
 70
0
  3

 72
65
 73
0
 40
0.0
  0
LTYPE
  5
26
330
2
100
AcDbSymbolTableRecord
100
AcDbLinetypeTableRecord
  2
Continuous
 70
0
  3

 72
65
 73
0
 40
0.0
  0
ENDTAB
  0
TABLE
  2
LAYER
  5
1
330
0
100
AcDbSymbolTable
 70
3
  0
LAYER
  5
27
330
1
100
AcDbSymbolTableRecord
100
AcDbLayerTableRecord
  2
0
 70
0
 62
7
  6
Continuous
370
-3
390
13
347
21
  0
LAYER
  5
28
330
1
100
AcDbSymbolTableRecord
100
AcDbLayerTableRecord
  2
Defpoints
 70
0
 62
7
  6
Continuous
290
0
370
-3
390
13
347
21
  0
LAYER
  5
2F
330
1
100
AcDbSymbolTableRecord
100
AcDbLayerTableRecord
  2
LABEL
 70
0
 62
1
  6
Continuous
370
-3
390
13
347
21
  0
ENDTAB
  0
TABLE
  2
STYLE
  5
5
330
0
100
AcDbSymbolTable
 70
1
  0
STYLE
  5
29
330
5
100
AcDbSymbolTableRecord
100
AcDbTextStyleTableRecord
  2
Standard
 70
0
 40
0.0
 41
1.0
 50
0.0
 71
0
 42
2.5
  3
txt
  4

  0
ENDTAB
  0
TABLE
  2
VIEW
  5
7
330
0
100
AcDbSymbolTable
 70
0
  0
ENDTAB
  0
TABLE
  2
UCS
  5
6
330
0
100
AcDbSymbolTable
 70
0
  0
ENDTAB
  0
TABLE
  2
APPID
  5
3
330
0
100
AcDbSymbolTable
 70
3
  0
APPID
  5
2A
330
3
100
AcDbSymbolTableRecord
100
AcDbRegAppTableRecord
  2
ACAD
 70
0
  0
APPID
  5
220
330
3
100
AcDbSymbolTableRecord
100
AcDbRegAppTableRecord
  2
HATCHBACKGROUNDCOLOR
 70
0
  0
APPID
  5
221
330
3
100
AcDbSymbolTableRecord
100
AcDbRegAppTableRecord
  2
EZDXF
 70
0
  0
ENDTAB
  0
TABLE
  2
DIMSTYLE
  5
4
330
0
100
AcDbSymbolTable
 70
1
100
AcDbDimStyleTable
  0
DIMSTYLE
105
2B
330
4
100
AcDbSymbolTableRecord
100
AcDbDimStyleTableRecord
  2
Standard
 70
0
 40
1.0
 41
2.5
 42
0.625
 43
3.75
 44
1.25
 45
0.0
 46
0.0
 47
0.0
 48
0.0
 49
2.5
140
2.5
141
2.5
142
0.0
143
0.03937007874
144
1.0
145
0.0
146
1.0
147
0.625
148
0.0
 69
0
 70
0
 71
0
 72
0
 73
0
 74
0
 75
0
 76
0
 77
1
 78
8
 79
3
170
0
171
3
172
1
173
0
174
0
175
0
176
0
177
0
178
0
179
2
271
2
272
2
273
2
274
3
275
0
276
0
277
2
278
44
279
0
280
0
281
0
282
0
283
0
284
8
285
0
286
0
288
0
289
3
290
0
371
-2
372
-2
  0
ENDTAB
  0
TABLE
  2
BLOCK_RECORD
  5
9
330
0
100
AcDbSymbolTable
 70
2
  0
BLOCK_RECORD
  5
17
330
9
100
AcDbSymbolTableRecord
100
AcDbBlockTableRecord
  2
*Model_Space
340
1A
 70
0
280
1
281
0
  0
BLOCK_RECORD
  5
1B
330
9
100
AcDbSymbolTableRecord
100
AcDbBlockTableRecord
  2
*Paper_Space
340
1E
 70
0
280
1
281
0
  0
ENDTAB
  0
ENDSEC
  0
SECTION
  2
BLOCKS
  0
BLOCK
  5
18
330
17
100
AcDbEntity
  8
0
100
AcDbBlockBegin
  2
*Model_Space
 70
0
 10
0.0
 20
0.0
 30
0.0
  3
*Model_Space
  1

  0
ENDBLK
  5
19
330
17
100
AcDbEntity
  8
0
100
AcDbBlockEnd
  0
BLOCK
  5
1C
330
1B
100
AcDbEntity
  8
0
100
AcDbBlockBegin
  2
*Paper_Space
 70
0
 10
0.0
 20
0.0
 30
0.0
  3
*Paper_Space
  1

  0
ENDBLK
  5
1D
330
1B
100
AcDbEntity
  8
0
100
AcDbBlockEnd
  0
ENDSEC
  0
SECTION
  2
ENTITIES
  0
LWPOLYLINE
  5
30
330
17
100
AcDbEntity
  8
0
100
AcDbPolyline
 90
4
 70
1
 10
18.00000000000003
 20
382.80000000000007
 10
18.0
 20
48.00000000000003
 42
0.9999999999999999
 10
78.00000000000003
 20
47.99999999999994
 10
78.00000000000004
 20
382.80000000000007
 42
0.9999999999999999
  0
CIRCLE
  5
31
330
17
100
AcDbEntity
  8
0
100
AcDbCircle
 10
48.00000000000003
 20
382.80000000000007
 30
3.0385816786431356e-63
 40
11.0
  0
CIRCLE
  5
32
330
17
100
AcDbEntity
  8
0
100
AcDbCircle
 10
48.0
 20
47.99999999999994
 30
0.0
 40
11.0
  0
TEXT
  5
33
330
17
100
AcDbEntity
  8
LABEL
100
AcDbText
 10
48.00000000000003
 20
338.775
 30
0.0
 40
11.859375
  1
LinkE
 50
90.0
 72
1
 11
48.00000000000003
 21
338.775
 31
0.0
100
AcDbText
 73
2
  0
LWPOLYLINE
  5
34
330
17
100
AcDbEntity
  8
0
100
AcDbPolyline
 90
4
 70
1
 10
18.00000000000003
 20
783.6000000000001
 10
18.0
 20
448.80000000000007
 42
0.9999999999999999
 10
78.00000000000003
 20
448.8
 10
78.00000000000004
 20
783.6000000000001
 42
0.9999999999999999
  0
CIRCLE
  5
35
330
17
100
AcDbEntity
  8
0
100
AcDbCircle
 10
48.00000000000003
 20
783.6000000000001
 30
3.0385816786431356e-63
 40
11.0
  0
CIRCLE
  5
36
330
17
100
AcDbEntity
  8
0
100
AcDbCircle
 10
48.0
 20
448.8
 30
0.0
 40
11.0
  0
TEXT
  5
37
330
17
100
AcDbEntity
  8
LABEL
100
AcDbText
 10
48.00000000000003
 20
739.575
 30
0.0
 40
11.859375
  1
LinkE
 50
90.0
 72
1
 11
48.00000000000003
 21
739.575
 31
0.0
100
AcDbText
 73
2
  0
LWPOLYLINE
  5
38
330
17
100
AcDbEntity
  8
0
100
AcDbPolyline
 90
4
 70
1
 10
382.80000000000007
 20
879.6000000000001
 10
48.00000000000006
 20
879.6000000000001
 42
0.9999999999999999
 10
47.99999999999997
 20
819.6000000000001
 10
382.80000000000007
 20
819.6000000000001
 42
0.9999999999999999
  0
CIRCLE
  5
39
330
17
100
AcDbEntity
  8
0
100
AcDbCircle
 10
382.80000000000007
 20
849.6000000000001
 30
3.0385816786431356e-63
 40
11.0
  0
CIRCLE
  5
3A
330
17
100
AcDbEntity
  8
0
100
AcDbCircle
 10
47.99999999999997
 20
849.6000000000001
 30
0.0
 40
11.0
  0
TEXT
  5
3B
330
17
100
AcDbEntity
  8
LABEL
100
AcDbText
 10
338.775
 20
849.6000000000001
 30
0.0
 40
11.859375
  1
LinkE
 72
1
 11
338.775
 21
849.6000000000001
 31
0.0
100
AcDbText
 73
2
  0
LWPOLYLINE
  5
3C
330
17
100
AcDbEntity
  8
0
100
AcDbPolyline
 90
4
 70
1
 10
382.80000000000007
 20
945.6000000000001
 10
48.00000000000006
 20
945.6000000000001
 42
0.9999999999999999
 10
47.99999999999997
 20
885.6000000000001
 10
382.80000000000007
 20
885.6000000000001
 42
0.9999999999999999
  0
CIRCLE
  5
3D
330
17
100
AcDbEntity
  8
0
100
AcDbCircle
 10
382.80000000000007
 20
915.6000000000001
 30
3.0385816786431356e-63
 40
11.0
  0
CIRCLE
  5
3E
330
17
100
AcDbEntity
  8
0
100
AcDbCircle
 10
47.99999999999997
 20
915.6000000000001
 30
0.0
 40
11.0
  0
TEXT
  5
3F
330
17
100
AcDbEntity
  8
LABEL
100
AcDbText
 10
338.775
 20
915.6000000000001
 30
0.0
 40
11.859375
  1
LinkE
 72
1
 11
338.775
 21
915.6000000000001
 31
0.0
100
AcDbText
 73
2
  0
LWPOLYLINE
  5
40
330
17
100
AcDbEntity
  8
0
100
AcDbPolyline
 90
4
 70
1
 10
382.80000000000007
 20
1011.6000000000001
 10
48.00000000000006
 20
1011.6000000000001
 42
0.9999999999999999
 10
47.99999999999997
 20
951.6000000000001
 10
382.80000000000007
 20
951.6000000000001
 42
0.9999999999999999
  0
CIRCLE
  5
41
330
17
100
AcDbEntity
  8
0
100
AcDbCircle
 10
382.80000000000007
 20
981.6000000000001
 30
3.0385816786431356e-63
 40
11.0
  0
CIRCLE
  5
42
330
17
100
AcDbEntity
  8
0
100
AcDbCircle
 10
47.99999999999997
 20
981.6000000000001
 30
0.0
 40
11.0
  0
TEXT
  5
43
330
17
100
AcDbEntity
  8
LABEL
100
AcDbText
 10
338.775
 20
981.6000000000001
 30
0.0
 40
11.859375
  1
LinkE
 72
1
 11
338.775
 21
981.6000000000001
 31
0.0
100
AcDbText
 73
2
  0
LWPOLYLINE
  5
44
330
17
100
AcDbEntity
  8
0
100
AcDbPolyline
 90
4
 70
1
 10
382.80000000000007
 20
1077.6000000000001
 10
48.00000000000006
 20
1077.6000000000001
 42
0.9999999999999999
 10
47.99999999999997
 20
1017.6000000000001
 10
382.80000000000007
 20
1017.6000000000001
 42
0.9999999999999999
  0
CIRCLE
  5
45
330
17
100
AcDbEntity
  8
0
100
AcDbCircle
 10
382.80000000000007
 20
1047.6000000000001
 30
3.0385816786431356e-63
 40
11.0
  0
CIRCLE
  5
46
330
17
100
AcDbEntity
  8
0
100
AcDbCircle
 10
47.99999999999997
 20
1047.6000000000001
 30
0.0
 40
11.0
  0
TEXT
  5
47
330
17
100
AcDbEntity
  8
LABEL
100
AcDbText
 10
338.775
 20
1047.6000000000001
 30
0.0
 40
11.859375
  1
LinkE
 72
1
 11
338.775
 21
1047.6000000000001
 31
0.0
100
AcDbText
 73
2
  0
LWPOLYLINE
  5
48
330
17
100
AcDbEntity
  8
0
100
AcDbPolyline
 90
4
 70
1
 10
382.80000000000007
 20
1143.6000000000001
 10
48.00000000000006
 20
1143.6000000000001
 42
0.9999999999999999
 10
47.99999999999997
 20
1083.6000000000001
 10
382.80000000000007
 20
1083.6000000000001
 42
0.9999999999999999
  0
CIRCLE
  5
49
330
17
100
AcDbEntity
  8
0
100
AcDbCircle
 10
382.80000000000007
 20
1113.6000000000001
 30
3.0385816786431356e-63
 40
11.0
  0
CIRCLE
  5
4A
330
17
100
AcDbEntity
  8
0
100
AcDbCircle
 10
47.99999999999997
 20
1113.6000000000001
 30
0.0
 40
11.0
  0
TEXT
  5
4B
330
17
100
AcDbEntity
  8
LABEL
100
AcDbText
 10
338.775
 20
1113.6000000000001
 30
0.0
 40
11.859375
  1
LinkE
 72
1
 11
338.775
 21
1113.6000000000001
 31
0.0
100
AcDbText
 73
2
  0
LWPOLYLINE
  5
4C
330
17
100
AcDbEntity
  8
0
100
AcDbPolyline
 90
4
 70
1
 10
84.00000000000003
 20
382.80000000000007
 10
84.0
 20
48.00000000000003
 42
0.9999999999999999
 10
144.00000000000003
 20
47.99999999999994
 10
144.00000000000006
 20
382.80000000000007
 42
0.9999999999999999
  0
CIRCLE
  5
4D
330
17
100
AcDbEntity
  8
0
100
AcDbCircle
 10
114.00000000000003
 20
382.80000000000007
 30
3.0385816786431356e-63
 40
11.0
  0
CIRCLE
  5
4E
330
17
100
AcDbEntity
  8
0
100
AcDbCircle
 10
114.0
 20
47.99999999999994
 30
0.0
 40
11.0
  0
TEXT
  5
4F
330
17
100
AcDbEntity
  8
LABEL
100
AcDbText
 10
114.00000000000003
 20
338.775
 30
0.0
 40
11.859375
  1
LinkE
 50
90.0
 72
1
 11
114.00000000000003
 21
338.775
 31
0.0
100
AcDbText
 73
2
  0
LWPOLYLINE
  5
50
330
17
100
AcDbEntity
  8
0
100
AcDbPolyline
 90
4
 70
1
 10
84.00000000000003
 20
783.6000000000001
 10
84.0
 20
448.80000000000007
 42
0.9999999999999999
 10
144.00000000000003
 20
448.8
 10
144.00000000000006
 20
783.6000000000001
 42
0.9999999999999999
  0
CIRCLE
  5
51
330
17
100
AcDbEntity
  8
0
100
AcDbCircle
 10
114.00000000000003
 20
783.6000000000001
 30
3.0385816786431356e-63
 40
11.0
  0
CIRCLE
  5
52
330
17
100
AcDbEntity
  8
0
100
AcDbCircle
 10
114.0
 20
448.8
 30
0.0
 40
11.0
  0
TEXT
  5
53
330
17
100
AcDbEntity
  8
LABEL
100
AcDbText
 10
114.00000000000003
 20
739.575
 30
0.0
 40
11.859375
  1
LinkE
 50
90.0
 72
1
 11
114.00000000000003
 21
739.575
 31
0.0
100
AcDbText
 73
2
  0
LWPOLYLINE
  5
54
330
17
100
AcDbEntity
  8
0
100
AcDbPolyline
 90
4
 70
1
 10
150.00000000000009
 20
382.80000000000007
 10
150.00000000000006
 20
48.00000000000003
 42
0.9999999999999999
 10
210.00000000000009
 20
47.99999999999994
 10
210.0000000000001
 20
382.80000000000007
 42
0.9999999999999999
  0
CIRCLE
  5
55
330
17
100
AcDbEntity
  8
0
100
AcDbCircle
 10
180.00000000000009
 20
382.80000000000007
 30
3.0385816786431356e-63
 40
11.0
  0
CIRCLE
  5
56
330
17
100
AcDbEntity
  8
0
100
AcDbCircle
 10
180.00000000000006
 20
47.99999999999994
 30
0.0
 40
11.0
  0
TEXT
  5
57
330
17
100
AcDbEntity
  8
LABEL
100
AcDbText
 10
180.00000000000009
 20
338.775
 30
0.0
 40
11.859375
  1
LinkE
 50
90.0
 72
1
 11
180.00000000000009
 21
338.775
 31
0.0
100
AcDbText
 73
2
  0
LWPOLYLINE
  5
58
330
17
100
AcDbEntity
  8
0
100
AcDbPolyline
 90
4
 70
1
 10
150.00000000000009
 20
783.6000000000001
 10
150.00000000000006
 20
448.80000000000007
 42
0.9999999999999999
 10
210.00000000000009
 20
448.8
 10
210.0000000000001
 20
783.6000000000001
 42
0.9999999999999999
  0
CIRCLE
  5
59
330
17
100
AcDbEntity
  8
0
100
AcDbCircle
 10
180.00000000000009
 20
783.6000000000001
 30
3.0385816786431356e-63
 40
11.0
  0
CIRCLE
  5
5A
330
17
100
AcDbEntity
  8
0
100
AcDbCircle
 10
180.00000000000006
 20
448.8
 30
0.0
 40
11.0
  0
TEXT
  5
5B
330
17
100
AcDbEntity
  8
LABEL
100
AcDbText
 10
180.00000000000009
 20
739.575
 30
0.0
 40
11.859375
  1
LinkE
 50
90.0
 72
1
 11
180.00000000000009
 21
739.575
 31
0.0
100
AcDbText
 73
2
  0
LWPOLYLINE
  5
5C
330
17
100
AcDbEntity
  8
0
100
AcDbPolyline
 90
4
 70
1
 10
216.00000000000009
 20
382.80000000000007
 10
216.00000000000006
 20
48.00000000000003
 42
0.9999999999999999
 10
276.0000000000001
 20
47.99999999999994
 10
276.0000000000001
 20
382.80000000000007
 42
0.9999999999999999
  0
CIRCLE
  5
5D
330
17
100
AcDbEntity
  8
0
100
AcDbCircle
 10
246.00000000000009
 20
382.80000000000007
 30
3.0385816786431356e-63
 40
11.0
  0
CIRCLE
  5
5E
330
17
100
AcDbEntity
  8
0
100
AcDbCircle
 10
246.00000000000006
 20
47.99999999999994
 30
0.0
 40
11.0
  0
TEXT
  5
5F
330
17
100
AcDbEntity
  8
LABEL
100
AcDbText
 10
246.00000000000009
 20
338.775
 30
0.0
 40
11.859375
  1
LinkE
 50
90.0
 72
1
 11
246.00000000000009
 21
338.775
 31
0.0
100
AcDbText
 73
2
  0
LWPOLYLINE
  5
60
330
17
100
AcDbEntity
  8
0
100
AcDbPolyline
 90
4
 70
1
 10
216.00000000000009
 20
783.6000000000001
 10
216.00000000000006
 20
448.80000000000007
 42
0.9999999999999999
 10
276.0000000000001
 20
448.8
 10
276.0000000000001
 20
783.6000000000001
 42
0.9999999999999999
  0
CIRCLE
  5
61
330
17
100
AcDbEntity
  8
0
100
AcDbCircle
 10
246.00000000000009
 20
783.6000000000001
 30
3.0385816786431356e-63
 40
11.0
  0
CIRCLE
  5
62
330
17
100
AcDbEntity
  8
0
100
AcDbCircle
 10
246.00000000000006
 20
448.8
 30
0.0
 40
11.0
  0
TEXT
  5
63
330
17
100
AcDbEntity
  8
LABEL
100
AcDbText
 10
246.00000000000009
 20
739.575
 30
0.0
 40
11.859375
  1
LinkE
 50
90.0
 72
1
 11
246.00000000000009
 21
739.575
 31
0.0
100
AcDbText
 73
2
  0
LWPOLYLINE
  5
64
330
17
100
AcDbEntity
  8
0
100
AcDbPolyline
 90
4
 70
1
 10
282.0000000000001
 20
382.80000000000007
 10
282.00000000000006
 20
48.00000000000003
 42
0.9999999999999999
 10
342.0000000000001
 20
47.99999999999994
 10
342.0000000000001
 20
382.80000000000007
 42
0.9999999999999999
  0
CIRCLE
  5
65
330
17
100
AcDbEntity
  8
0
100
AcDbCircle
 10
312.0000000000001
 20
382.80000000000007
 30
3.0385816786431356e-63
 40
11.0
  0
CIRCLE
  5
66
330
17
100
AcDbEntity
  8
0
100
AcDbCircle
 10
312.00000000000006
 20
47.99999999999994
 30
0.0
 40
11.0
  0
TEXT
  5
67
330
17
100
AcDbEntity
  8
LABEL
100
AcDbText
 10
312.0000000000001
 20
338.775
 30
0.0
 40
11.859375
  1
LinkE
 50
90.0
 72
1
 11
312.0000000000001
 21
338.775
 31
0.0
100
AcDbText
 73
2
  0
CIRCLE
  5
68
330
17
100
AcDbEntity
  8
0
100
AcDbCircle
 10
312.00000000000006
 20
748.8000000000002
 30
0.0
 40
11.0
  0
CIRCLE
  5
69
330
17
100
AcDbEntity
  8
0
100
AcDbCircle
 10
312.00000000000006
 20
448.8000000000002
 30
0.0
 40
11.0
  0
LWPOLYLINE
  5
6A
330
17
100
AcDbEntity
  8
0
100
AcDbPolyline
 90
4
 70
1
 10
282.00000000000006
 20
748.8000000000002
 10
282.00000000000006
 20
448.8000000000002
 42
0.9999999999999999
 10
342.00000000000006
 20
448.8000000000002
 10
342.0
 20
748.8000000000002
 42
0.9999999999999999
  0
TEXT
  5
6B
330
17
100
AcDbEntity
  8
LABEL
100
AcDbText
 10
312.00000000000006
 20
598.8000000000002
 30
0.0
 40
11.859375
  1
LinkJ
 50
90.0
 72
1
 11
312.00000000000006
 21
598.8000000000002
 31
0.0
100
AcDbText
 73
2
  0
CIRCLE
  5
6C
330
17
100
AcDbEntity
  8
0
100
AcDbCircle
 10
378.00000000000006
 20
348.0
 30
0.0
 40
11.0
  0
CIRCLE
  5
6D
330
17
100
AcDbEntity
  8
0
100
AcDbCircle
 10
378.00000000000006
 20
48.0
 30
0.0
 40
11.0
  0
LWPOLYLINE
  5
6E
330
17
100
AcDbEntity
  8
0
100
AcDbPolyline
 90
4
 70
1
 10
348.00000000000006
 20
348.0
 10
348.00000000000006
 20
48.0
 42
0.9999999999999999
 10
408.00000000000006
 20
48.0
 10
408.0
 20
348.0
 42
0.9999999999999999
  0
TEXT
  5
6F
330
17
100
AcDbEntity
  8
LABEL
100
AcDbText
 10
378.00000000000006
 20
198.0
 30
0.0
 40
11.859375
  1
LinkJ
 50
90.0
 72
1
 11
378.00000000000006
 21
198.0
 31
0.0
100
AcDbText
 73
2
  0
CIRCLE
  5
70
330
17
100
AcDbEntity
  8
0
100
AcDbCircle
 10
378.00000000000006
 20
714.0
 30
0.0
 40
11.0
  0
CIRCLE
  5
71
330
17
100
AcDbEntity
  8
0
100
AcDbCircle
 10
378.00000000000006
 20
414.0
 30
0.0
 40
11.0
  0
LWPOLYLINE
  5
72
330
17
100
AcDbEntity
  8
0
100
AcDbPolyline
 90
4
 70
1
 10
348.00000000000006
 20
714.0
 10
348.00000000000006
 20
414.0
 42
0.9999999999999999
 10
408.00000000000006
 20
414.0
 10
408.0
 20
714.0
 42
0.9999999999999999
  0
TEXT
  5
73
330
17
100
AcDbEntity
  8
LABEL
100
AcDbText
 10
378.00000000000006
 20
564.0
 30
0.0
 40
11.859375
  1
LinkJ
 50
90.0
 72
1
 11
378.00000000000006
 21
564.0
 31
0.0
100
AcDbText
 73
2
  0
CIRCLE
  5
74
330
17
100
AcDbEntity
  8
0
100
AcDbCircle
 10
378.0
 20
780.0
 30
0.0
 40
11.0
  0
CIRCLE
  5
75
330
17
100
AcDbEntity
  8
0
100
AcDbCircle
 10
678.0
 20
780.0
 30
0.0
 40
11.0
  0
LWPOLYLINE
  5
76
330
17
100
AcDbEntity
  8
0
100
AcDbPolyline
 90
4
 70
1
 10
378.0
 20
750.0
 10
678.0
 20
750.0
 42
0.9999999999999999
 10
678.0
 20
810.0
 10
378.0
 20
810.0
 42
0.9999999999999999
  0
TEXT
  5
77
330
17
100
AcDbEntity
  8
LABEL
100
AcDbText
 10
528.0
 20
780.0
 30
0.0
 40
11.859375
  1
LinkJ
 72
1
 11
528.0
 21
780.0
 31
0.0
100
AcDbText
 73
2
  0
CIRCLE
  5
78
330
17
100
AcDbEntity
  8
0
100
AcDbCircle
 10
448.80000000000007
 20
1146.0
 30
0.0
 40
11.0
  0
CIRCLE
  5
79
330
17
100
AcDbEntity
  8
0
100
AcDbCircle
 10
448.80000000000007
 20
846.0
 30
0.0
 40
11.0
  0
LWPOLYLINE
  5
7A
330
17
100
AcDbEntity
  8
0
100
AcDbPolyline
 90
4
 70
1
 10
418.80000000000007
 20
1146.0
 10
418.80000000000007
 20
846.0
 42
0.9999999999999999
 10
478.80000000000007
 20
846.0
 10
478.8
 20
1146.0
 42
0.9999999999999999
  0
TEXT
  5
7B
330
17
100
AcDbEntity
  8
LABEL
100
AcDbText
 10
448.80000000000007
 20
996.0
 30
0.0
 40
11.859375
  1
LinkJ
 50
90.0
 72
1
 11
448.80000000000007
 21
996.0
 31
0.0
100
AcDbText
 73
2
  0
CIRCLE
  5
7C
330
17
100
AcDbEntity
  8
0
100
AcDbCircle
 10
514.8000000000001
 20
1146.0
 30
0.0
 40
11.0
  0
CIRCLE
  5
7D
330
17
100
AcDbEntity
  8
0
100
AcDbCircle
 10
514.8000000000001
 20
846.0
 30
0.0
 40
11.0
  0
LWPOLYLINE
  5
7E
330
17
100
AcDbEntity
  8
0
100
AcDbPolyline
 90
4
 70
1
 10
484.80000000000007
 20
1146.0
 10
484.80000000000007
 20
846.0
 42
0.9999999999999999
 10
544.8000000000001
 20
846.0
 10
544.8
 20
1146.0
 42
0.9999999999999999
  0
TEXT
  5
7F
330
17
100
AcDbEntity
  8
LABEL
100
AcDbText
 10
514.8000000000001
 20
996.0
 30
0.0
 40
11.859375
  1
LinkJ
 50
90.0
 72
1
 11
514.8000000000001
 21
996.0
 31
0.0
100
AcDbText
 73
2
  0
CIRCLE
  5
80
330
17
100
AcDbEntity
  8
0
100
AcDbCircle
 10
580.8000000000001
 20
1146.0
 30
0.0
 40
11.0
  0
CIRCLE
  5
81
330
17
100
AcDbEntity
  8
0
100
AcDbCircle
 10
580.8000000000001
 20
846.0
 30
0.0
 40
11.0
  0
LWPOLYLINE
  5
82
330
17
100
AcDbEntity
  8
0
100
AcDbPolyline
 90
4
 70
1
 10
550.8000000000001
 20
1146.0
 10
550.8000000000001
 20
846.0
 42
0.9999999999999999
 10
610.8000000000001
 20
846.0
 10
610.8
 20
1146.0
 42
0.9999999999999999
  0
TEXT
  5
83
330
17
100
AcDbEntity
  8
LABEL
100
AcDbText
 10
580.8000000000001
 20
996.0
 30
0.0
 40
11.859375
  1
LinkJ
 50
90.0
 72
1
 11
580.8000000000001
 21
996.0
 31
0.0
100
AcDbText
 73
2
  0
CIRCLE
  5
84
330
17
100
AcDbEntity
  8
0
100
AcDbCircle
 10
646.8000000000001
 20
1146.0
 30
0.0
 40
11.0
  0
CIRCLE
  5
85
330
17
100
AcDbEntity
  8
0
100
AcDbCircle
 10
646.8000000000001
 20
846.0
 30
0.0
 40
11.0
  0
LWPOLYLINE
  5
86
330
17
100
AcDbEntity
  8
0
100
AcDbPolyline
 90
4
 70
1
 10
616.8000000000001
 20
1146.0
 10
616.8000000000001
 20
846.0
 42
0.9999999999999999
 10
676.8000000000001
 20
846.0
 10
676.8
 20
1146.0
 42
0.9999999999999999
  0
TEXT
  5
87
330
17
100
AcDbEntity
  8
LABEL
100
AcDbText
 10
646.8000000000001
 20
996.0
 30
0.0
 40
11.859375
  1
LinkJ
 50
90.0
 72
1
 11
646.8000000000001
 21
996.0
 31
0.0
100
AcDbText
 73
2
  0
CIRCLE
  5
88
330
17
100
AcDbEntity
  8
0
100
AcDbCircle
 10
712.8000000000001
 20
1146.0
 30
0.0
 40
11.0
  0
CIRCLE
  5
89
330
17
100
AcDbEntity
  8
0
100
AcDbCircle
 10
712.8000000000001
 20
846.0
 30
0.0
 40
11.0
  0
LWPOLYLINE
  5
8A
330
17
100
AcDbEntity
  8
0
100
AcDbPolyline
 90
4
 70
1
 10
682.8000000000001
 20
1146.0
 10
682.8000000000001
 20
846.0
 42
0.9999999999999999
 10
742.8000000000001
 20
846.0
 10
742.8
 20
1146.0
 42
0.9999999999999999
  0
TEXT
  5
8B
330
17
100
AcDbEntity
  8
LABEL
100
AcDbText
 10
712.8000000000001
 20
996.0
 30
0.0
 40
11.859375
  1
LinkJ
 50
90.0
 72
1
 11
712.8000000000001
 21
996.0
 31
0.0
100
AcDbText
 73
2
  0
CIRCLE
  5
8C
330
17
100
AcDbEntity
  8
0
100
AcDbCircle
 10
444.00000000000006
 20
348.0
 30
0.0
 40
11.0
  0
CIRCLE
  5
8D
330
17
100
AcDbEntity
  8
0
100
AcDbCircle
 10
444.00000000000006
 20
48.0
 30
0.0
 40
11.0
  0
LWPOLYLINE
  5
8E
330
17
100
AcDbEntity
  8
0
100
AcDbPolyline
 90
4
 70
1
 10
414.00000000000006
 20
348.0
 10
414.00000000000006
 20
48.0
 42
0.9999999999999999
 10
474.00000000000006
 20
48.0
 10
474.0
 20
348.0
 42
0.9999999999999999
  0
TEXT
  5
8F
330
17
100
AcDbEntity
  8
LABEL
100
AcDbText
 10
444.00000000000006
 20
198.0
 30
0.0
 40
11.859375
  1
LinkJ
 50
90.0
 72
1
 11
444.00000000000006
 21
198.0
 31
0.0
100
AcDbText
 73
2
  0
CIRCLE
  5
90
330
17
100
AcDbEntity
  8
0
100
AcDbCircle
 10
444.00000000000006
 20
714.0
 30
0.0
 40
11.0
  0
CIRCLE
  5
91
330
17
100
AcDbEntity
  8
0
100
AcDbCircle
 10
444.00000000000006
 20
414.0
 30
0.0
 40
11.0
  0
LWPOLYLINE
  5
92
330
17
100
AcDbEntity
  8
0
100
AcDbPolyline
 90
4
 70
1
 10
414.00000000000006
 20
714.0
 10
414.00000000000006
 20
414.0
 42
0.9999999999999999
 10
474.00000000000006
 20
414.0
 10
474.0
 20
714.0
 42
0.9999999999999999
  0
TEXT
  5
93
330
17
100
AcDbEntity
  8
LABEL
100
AcDbText
 10
444.00000000000006
 20
564.0
 30
0.0
 40
11.859375
  1
LinkJ
 50
90.0
 72
1
 11
444.00000000000006
 21
564.0
 31
0.0
100
AcDbText
 73
2
  0
CIRCLE
  5
94
330
17
100
AcDbEntity
  8
0
100
AcDbCircle
 10
510.00000000000006
 20
348.0
 30
0.0
 40
11.0
  0
CIRCLE
  5
95
330
17
100
AcDbEntity
  8
0
100
AcDbCircle
 10
510.00000000000006
 20
48.0
 30
0.0
 40
11.0
  0
LWPOLYLINE
  5
96
330
17
100
AcDbEntity
  8
0
100
AcDbPolyline
 90
4
 70
1
 10
480.00000000000006
 20
348.0
 10
480.00000000000006
 20
48.0
 42
0.9999999999999999
 10
540.0
 20
48.0
 10
540.0
 20
348.0
 42
0.9999999999999999
  0
TEXT
  5
97
330
17
100
AcDbEntity
  8
LABEL
100
AcDbText
 10
510.00000000000006
 20
198.0
 30
0.0
 40
11.859375
  1
LinkJ
 50
90.0
 72
1
 11
510.00000000000006
 21
198.0
 31
0.0
100
AcDbText
 73
2
  0
CIRCLE
  5
98
330
17
100
AcDbEntity
  8
0
100
AcDbCircle
 10
510.00000000000006
 20
714.0
 30
0.0
 40
11.0
  0
CIRCLE
  5
99
330
17
100
AcDbEntity
  8
0
100
AcDbCircle
 10
510.00000000000006
 20
414.0
 30
0.0
 40
11.0
  0
LWPOLYLINE
  5
9A
330
17
100
AcDbEntity
  8
0
100
AcDbPolyline
 90
4
 70
1
 10
480.00000000000006
 20
714.0
 10
480.00000000000006
 20
414.0
 42
0.9999999999999999
 10
540.0
 20
414.0
 10
540.0
 20
714.0
 42
0.9999999999999999
  0
TEXT
  5
9B
330
17
100
AcDbEntity
  8
LABEL
100
AcDbText
 10
510.00000000000006
 20
564.0
 30
0.0
 40
11.859375
  1
LinkJ
 50
90.0
 72
1
 11
510.00000000000006
 21
564.0
 31
0.0
100
AcDbText
 73
2
  0
CIRCLE
  5
9C
330
17
100
AcDbEntity
  8
0
100
AcDbCircle
 10
576.0
 20
348.0
 30
0.0
 40
11.0
  0
CIRCLE
  5
9D
330
17
100
AcDbEntity
  8
0
100
AcDbCircle
 10
576.0
 20
48.0
 30
0.0
 40
11.0
  0
LWPOLYLINE
  5
9E
330
17
100
AcDbEntity
  8
0
100
AcDbPolyline
 90
4
 70
1
 10
546.0
 20
348.0
 10
546.0
 20
48.0
 42
0.9999999999999999
 10
606.0
 20
48.0
 10
606.0
 20
348.0
 42
0.9999999999999999
  0
TEXT
  5
9F
330
17
100
AcDbEntity
  8
LABEL
100
AcDbText
 10
576.0
 20
198.0
 30
0.0
 40
11.859375
  1
LinkJ
 50
90.0
 72
1
 11
576.0
 21
198.0
 31
0.0
100
AcDbText
 73
2
  0
CIRCLE
  5
A0
330
17
100
AcDbEntity
  8
0
100
AcDbCircle
 10
576.0
 20
714.0
 30
0.0
 40
11.0
  0
CIRCLE
  5
A1
330
17
100
AcDbEntity
  8
0
100
AcDbCircle
 10
576.0
 20
414.0
 30
0.0
 40
11.0
  0
LWPOLYLINE
  5
A2
330
17
100
AcDbEntity
  8
0
100
AcDbPolyline
 90
4
 70
1
 10
546.0
 20
714.0
 10
546.0
 20
414.0
 42
0.9999999999999999
 10
606.0
 20
414.0
 10
606.0
 20
714.0
 42
0.9999999999999999
  0
TEXT
  5
A3
330
17
100
AcDbEntity
  8
LABEL
100
AcDbText
 10
576.0
 20
564.0
 30
0.0
 40
11.859375
  1
LinkJ
 50
90.0
 72
1
 11
576.0
 21
564.0
 31
0.0
100
AcDbText
 73
2
  0
CIRCLE
  5
A4
330
17
100
AcDbEntity
  8
0
100
AcDbCircle
 10
642.0
 20
348.0
 30
0.0
 40
11.0
  0
CIRCLE
  5
A5
330
17
100
AcDbEntity
  8
0
100
AcDbCircle
 10
642.0
 20
48.0
 30
0.0
 40
11.0
  0
LWPOLYLINE
  5
A6
330
17
100
AcDbEntity
  8
0
100
AcDbPolyline
 90
4
 70
1
 10
612.0
 20
348.0
 10
612.0
 20
48.0
 42
0.9999999999999999
 10
672.0
 20
48.0
 10
672.0
 20
348.0
 42
0.9999999999999999
  0
TEXT
  5
A7
330
17
100
AcDbEntity
  8
LABEL
100
AcDbText
 10
642.0
 20
198.0
 30
0.0
 40
11.859375
  1
LinkJ
 50
90.0
 72
1
 11
642.0
 21
198.0
 31
0.0
100
AcDbText
 73
2
  0
CIRCLE
  5
A8
330
17
100
AcDbEntity
  8
0
100
AcDbCircle
 10
642.0
 20
714.0
 30
0.0
 40
11.0
  0
CIRCLE
  5
A9
330
17
100
AcDbEntity
  8
0
100
AcDbCircle
 10
642.0
 20
414.0
 30
0.0
 40
11.0
  0
LWPOLYLINE
  5
AA
330
17
100
AcDbEntity
  8
0
100
AcDbPolyline
 90
4
 70
1
 10
612.0
 20
714.0
 10
612.0
 20
414.0
 42
0.9999999999999999
 10
672.0
 20
414.0
 10
672.0
 20
714.0
 42
0.9999999999999999
  0
TEXT
  5
AB
330
17
100
AcDbEntity
  8
LABEL
100
AcDbText
 10
642.0
 20
564.0
 30
0.0
 40
11.859375
  1
LinkJ
 50
90.0
 72
1
 11
642.0
 21
564.0
 31
0.0
100
AcDbText
 73
2
  0
CIRCLE
  5
AC
330
17
100
AcDbEntity
  8
0
100
AcDbCircle
 10
708.0
 20
348.0
 30
0.0
 40
11.0
  0
CIRCLE
  5
AD
330
17
100
AcDbEntity
  8
0
100
AcDbCircle
 10
708.0
 20
48.0
 30
0.0
 40
11.0
  0
LWPOLYLINE
  5
AE
330
17
100
AcDbEntity
  8
0
100
AcDbPolyline
 90
4
 70
1
 10
678.0
 20
348.0
 10
678.0
 20
48.0
 42
0.9999999999999999
 10
738.0
 20
48.0
 10
738.0
 20
348.0
 42
0.9999999999999999
  0
TEXT
  5
AF
330
17
100
AcDbEntity
  8
LABEL
100
AcDbText
 10
708.0
 20
198.0
 30
0.0
 40
11.859375
  1
LinkJ
 50
90.0
 72
1
 11
708.0
 21
198.0
 31
0.0
100
AcDbText
 73
2
  0
CIRCLE
  5
B0
330
17
100
AcDbEntity
  8
0
100
AcDbCircle
 10
708.0
 20
714.0
 30
0.0
 40
11.0
  0
CIRCLE
  5
B1
330
17
100
AcDbEntity
  8
0
100
AcDbCircle
 10
708.0
 20
414.0
 30
0.0
 40
11.0
  0
LWPOLYLINE
  5
B2
330
17
100
AcDbEntity
  8
0
100
AcDbPolyline
 90
4
 70
1
 10
678.0
 20
714.0
 10
678.0
 20
414.0
 42
0.9999999999999999
 10
738.0
 20
414.0
 10
738.0
 20
714.0
 42
0.9999999999999999
  0
TEXT
  5
B3
330
17
100
AcDbEntity
  8
LABEL
100
AcDbText
 10
708.0
 20
564.0
 30
0.0
 40
11.859375
  1
LinkJ
 50
90.0
 72
1
 11
708.0
 21
564.0
 31
0.0
100
AcDbText
 73
2
  0
CIRCLE
  5
B4
330
17
100
AcDbEntity
  8
0
100
AcDbCircle
 10
744.0
 20
780.0
 30
0.0
 40
11.0
  0
CIRCLE
  5
B5
330
17
100
AcDbEntity
  8
0
100
AcDbCircle
 10
1044.0
 20
780.0
 30
0.0
 40
11.0
  0
LWPOLYLINE
  5
B6
330
17
100
AcDbEntity
  8
0
100
AcDbPolyline
 90
4
 70
1
 10
744.0
 20
750.0
 10
1044.0
 20
750.0
 42
0.9999999999999999
 10
1044.0
 20
810.0
 10
744.0
 20
810.0
 42
0.9999999999999999
  0
TEXT
  5
B7
330
17
100
AcDbEntity
  8
LABEL
100
AcDbText
 10
894.0
 20
780.0
 30
0.0
 40
11.859375
  1
LinkJ
 72
1
 11
894.0
 21
780.0
 31
0.0
100
AcDbText
 73
2
  0
CIRCLE
  5
B8
330
17
100
AcDbEntity
  8
0
100
AcDbCircle
 10
778.8000000000001
 20
1146.0
 30
0.0
 40
11.0
  0
CIRCLE
  5
B9
330
17
100
AcDbEntity
  8
0
100
AcDbCircle
 10
778.8000000000001
 20
846.0
 30
0.0
 40
11.0
  0
LWPOLYLINE
  5
BA
330
17
100
AcDbEntity
  8
0
100
AcDbPolyline
 90
4
 70
1
 10
748.8000000000001
 20
1146.0
 10
748.8000000000001
 20
846.0
 42
0.9999999999999999
 10
808.8000000000001
 20
846.0
 10
808.8
 20
1146.0
 42
0.9999999999999999
  0
TEXT
  5
BB
330
17
100
AcDbEntity
  8
LABEL
100
AcDbText
 10
778.8000000000001
 20
996.0
 30
0.0
 40
11.859375
  1
LinkJ
 50
90.0
 72
1
 11
778.8000000000001
 21
996.0
 31
0.0
100
AcDbText
 73
2
  0
CIRCLE
  5
BC
330
17
100
AcDbEntity
  8
0
100
AcDbCircle
 10
844.8000000000001
 20
1146.0
 30
0.0
 40
11.0
  0
CIRCLE
  5
BD
330
17
100
AcDbEntity
  8
0
100
AcDbCircle
 10
844.8000000000001
 20
846.0
 30
0.0
 40
11.0
  0
LWPOLYLINE
  5
BE
330
17
100
AcDbEntity
  8
0
100
AcDbPolyline
 90
4
 70
1
 10
814.8000000000001
 20
1146.0
 10
814.8000000000001
 20
846.0
 42
0.9999999999999999
 10
874.8000000000001
 20
846.0
 10
874.8
 20
1146.0
 42
0.9999999999999999
  0
TEXT
  5
BF
330
17
100
AcDbEntity
  8
LABEL
100
AcDbText
 10
844.8000000000001
 20
996.0
 30
0.0
 40
11.859375
  1
LinkJ
 50
90.0
 72
1
 11
844.8000000000001
 21
996.0
 31
0.0
100
AcDbText
 73
2
  0
CIRCLE
  5
C0
330
17
100
AcDbEntity
  8
0
100
AcDbCircle
 10
910.8000000000001
 20
1146.0
 30
0.0
 40
11.0
  0
CIRCLE
  5
C1
330
17
100
AcDbEntity
  8
0
100
AcDbCircle
 10
910.8000000000001
 20
846.0
 30
0.0
 40
11.0
  0
LWPOLYLINE
  5
C2
330
17
100
AcDbEntity
  8
0
100
AcDbPolyline
 90
4
 70
1
 10
880.8000000000001
 20
1146.0
 10
880.8000000000001
 20
846.0
 42
0.9999999999999999
 10
940.8000000000001
 20
846.0
 10
940.8
 20
1146.0
 42
0.9999999999999999
  0
TEXT
  5
C3
330
17
100
AcDbEntity
  8
LABEL
100
AcDbText
 10
910.8000000000001
 20
996.0
 30
0.0
 40
11.859375
  1
LinkJ
 50
90.0
 72
1
 11
910.8000000000001
 21
996.0
 31
0.0
100
AcDbText
 73
2
  0
CIRCLE
  5
C4
330
17
100
AcDbEntity
  8
0
100
AcDbCircle
 10
976.8000000000001
 20
1146.0
 30
0.0
 40
11.0
  0
CIRCLE
  5
C5
330
17
100
AcDbEntity
  8
0
100
AcDbCircle
 10
976.8000000000001
 20
846.0
 30
0.0
 40
11.0
  0
LWPOLYLINE
  5
C6
330
17
100
AcDbEntity
  8
0
100
AcDbPolyline
 90
4
 70
1
 10
946.8000000000001
 20
1146.0
 10
946.8000000000001
 20
846.0
 42
0.9999999999999999
 10
1006.8000000000001
 20
846.0
 10
1006.8
 20
1146.0
 42
0.9999999999999999
  0
TEXT
  5
C7
330
17
100
AcDbEntity
  8
LABEL
100
AcDbText
 10
976.8000000000001
 20
996.0
 30
0.0
 40
11.859375
  1
LinkJ
 50
90.0
 72
1
 11
976.8000000000001
 21
996.0
 31
0.0
100
AcDbText
 73
2
  0
CIRCLE
  5
C8
330
17
100
AcDbEntity
  8
0
100
AcDbCircle
 10
1042.8000000000002
 20
1146.0
 30
0.0
 40
11.0
  0
CIRCLE
  5
C9
330
17
100
AcDbEntity
  8
0
100
AcDbCircle
 10
1042.8000000000002
 20
846.0
 30
0.0
 40
11.0
  0
LWPOLYLINE
  5
CA
330
17
100
AcDbEntity
  8
0
100
AcDbPolyline
 90
4
 70
1
 10
1012.8000000000001
 20
1146.0
 10
1012.8000000000001
 20
846.0
 42
0.9999999999999999
 10
1072.8000000000002
 20
846.0
 10
1072.8
 20
1146.0
 42
0.9999999999999999
  0
TEXT
  5
CB
330
17
100
AcDbEntity
  8
LABEL
100
AcDbText
 10
1042.8000000000002
 20
996.0
 30
0.0
 40
11.859375
  1
LinkJ
 50
90.0
 72
1
 11
1042.8000000000002
 21
996.0
 31
0.0
100
AcDbText
 73
2
  0
CIRCLE
  5
CC
330
17
100
AcDbEntity
  8
0
100
AcDbCircle
 10
1108.8000000000002
 20
1146.0
 30
0.0
 40
11.0
  0
CIRCLE
  5
CD
330
17
100
AcDbEntity
  8
0
100
AcDbCircle
 10
1108.8000000000002
 20
846.0
 30
0.0
 40
11.0
  0
LWPOLYLINE
  5
CE
330
17
100
AcDbEntity
  8
0
100
AcDbPolyline
 90
4
 70
1
 10
1078.8000000000002
 20
1146.0
 10
1078.8000000000002
 20
846.0
 42
0.9999999999999999
 10
1138.8000000000002
 20
846.0
 10
1138.8000000000002
 20
1146.0
 42
0.9999999999999999
  0
TEXT
  5
CF
330
17
100
AcDbEntity
  8
LABEL
100
AcDbText
 10
1108.8000000000002
 20
996.0
 30
0.0
 40
11.859375
  1
LinkJ
 50
90.0
 72
1
 11
1108.8000000000002
 21
996.0
 31
0.0
100
AcDbText
 73
2
  0
CIRCLE
  5
D0
330
17
100
AcDbEntity
  8
0
100
AcDbCircle
 10
774.0
 20
348.0
 30
0.0
 40
11.0
  0
CIRCLE
  5
D1
330
17
100
AcDbEntity
  8
0
100
AcDbCircle
 10
774.0
 20
48.0
 30
0.0
 40
11.0
  0
LWPOLYLINE
  5
D2
330
17
100
AcDbEntity
  8
0
100
AcDbPolyline
 90
4
 70
1
 10
744.0
 20
348.0
 10
744.0
 20
48.0
 42
0.9999999999999999
 10
804.0
 20
48.0
 10
804.0
 20
348.0
 42
0.9999999999999999
  0
TEXT
  5
D3
330
17
100
AcDbEntity
  8
LABEL
100
AcDbText
 10
774.0
 20
198.0
 30
0.0
 40
11.859375
  1
LinkJ
 50
90.0
 72
1
 11
774.0
 21
198.0
 31
0.0
100
AcDbText
 73
2
  0
CIRCLE
  5
D4
330
17
100
AcDbEntity
  8
0
100
AcDbCircle
 10
774.0
 20
714.0
 30
0.0
 40
11.0
  0
CIRCLE
  5
D5
330
17
100
AcDbEntity
  8
0
100
AcDbCircle
 10
774.0
 20
414.0
 30
0.0
 40
11.0
  0
LWPOLYLINE
  5
D6
330
17
100
AcDbEntity
  8
0
100
AcDbPolyline
 90
4
 70
1
 10
744.0
 20
714.0
 10
744.0
 20
414.0
 42
0.9999999999999999
 10
804.0
 20
414.0
 10
804.0
 20
714.0
 42
0.9999999999999999
  0
TEXT
  5
D7
330
17
100
AcDbEntity
  8
LABEL
100
AcDbText
 10
774.0
 20
564.0
 30
0.0
 40
11.859375
  1
LinkJ
 50
90.0
 72
1
 11
774.0
 21
564.0
 31
0.0
100
AcDbText
 73
2
  0
CIRCLE
  5
D8
330
17
100
AcDbEntity
  8
0
100
AcDbCircle
 10
840.0
 20
348.0
 30
0.0
 40
11.0
  0
CIRCLE
  5
D9
330
17
100
AcDbEntity
  8
0
100
AcDbCircle
 10
840.0
 20
48.0
 30
0.0
 40
11.0
  0
LWPOLYLINE
  5
DA
330
17
100
AcDbEntity
  8
0
100
AcDbPolyline
 90
4
 70
1
 10
810.0
 20
348.0
 10
810.0
 20
48.0
 42
0.9999999999999999
 10
870.0
 20
48.0
 10
870.0
 20
348.0
 42
0.9999999999999999
  0
TEXT
  5
DB
330
17
100
AcDbEntity
  8
LABEL
100
AcDbText
 10
840.0
 20
198.0
 30
0.0
 40
11.859375
  1
LinkJ
 50
90.0
 72
1
 11
840.0
 21
198.0
 31
0.0
100
AcDbText
 73
2
  0
CIRCLE
  5
DC
330
17
100
AcDbEntity
  8
0
100
AcDbCircle
 10
840.0
 20
714.0
 30
0.0
 40
11.0
  0
CIRCLE
  5
DD
330
17
100
AcDbEntity
  8
0
100
AcDbCircle
 10
840.0
 20
414.0
 30
0.0
 40
11.0
  0
LWPOLYLINE
  5
DE
330
17
100
AcDbEntity
  8
0
100
AcDbPolyline
 90
4
 70
1
 10
810.0
 20
714.0
 10
810.0
 20
414.0
 42
0.9999999999999999
 10
870.0
 20
414.0
 10
870.0
 20
714.0
 42
0.9999999999999999
  0
TEXT
  5
DF
330
17
100
AcDbEntity
  8
LABEL
100
AcDbText
 10
840.0
 20
564.0
 30
0.0
 40
11.859375
  1
LinkJ
 50
90.0
 72
1
 11
840.0
 21
564.0
 31
0.0
100
AcDbText
 73
2
  0
CIRCLE
  5
E0
330
17
100
AcDbEntity
  8
0
100
AcDbCircle
 10
906.0
 20
348.0
 30
0.0
 40
11.0
  0
CIRCLE
  5
E1
330
17
100
AcDbEntity
  8
0
100
AcDbCircle
 10
906.0
 20
48.0
 30
0.0
 40
11.0
  0
LWPOLYLINE
  5
E2
330
17
100
AcDbEntity
  8
0
100
AcDbPolyline
 90
4
 70
1
 10
876.0
 20
348.0
 10
876.0
 20
48.0
 42
0.9999999999999999
 10
936.0
 20
48.0
 10
936.0
 20
348.0
 42
0.9999999999999999
  0
TEXT
  5
E3
330
17
100
AcDbEntity
  8
LABEL
100
AcDbText
 10
906.0
 20
198.0
 30
0.0
 40
11.859375
  1
LinkJ
 50
90.0
 72
1
 11
906.0
 21
198.0
 31
0.0
100
AcDbText
 73
2
  0
CIRCLE
  5
E4
330
17
100
AcDbEntity
  8
0
100
AcDbCircle
 10
906.0
 20
714.0
 30
0.0
 40
11.0
  0
CIRCLE
  5
E5
330
17
100
AcDbEntity
  8
0
100
AcDbCircle
 10
906.0
 20
414.0
 30
0.0
 40
11.0
  0
LWPOLYLINE
  5
E6
330
17
100
AcDbEntity
  8
0
100
AcDbPolyline
 90
4
 70
1
 10
876.0
 20
714.0
 10
876.0
 20
414.0
 42
0.9999999999999999
 10
936.0
 20
414.0
 10
936.0
 20
714.0
 42
0.9999999999999999
  0
TEXT
  5
E7
330
17
100
AcDbEntity
  8
LABEL
100
AcDbText
 10
906.0
 20
564.0
 30
0.0
 40
11.859375
  1
LinkJ
 50
90.0
 72
1
 11
906.0
 21
564.0
 31
0.0
100
AcDbText
 73
2
  0
CIRCLE
  5
E8
330
17
100
AcDbEntity
  8
0
100
AcDbCircle
 10
972.0
 20
348.0
 30
0.0
 40
11.0
  0
CIRCLE
  5
E9
330
17
100
AcDbEntity
  8
0
100
AcDbCircle
 10
972.0
 20
48.0
 30
0.0
 40
11.0
  0
LWPOLYLINE
  5
EA
330
17
100
AcDbEntity
  8
0
100
AcDbPolyline
 90
4
 70
1
 10
942.0
 20
348.0
 10
942.0
 20
48.0
 42
0.9999999999999999
 10
1002.0
 20
48.0
 10
1002.0
 20
348.0
 42
0.9999999999999999
  0
TEXT
  5
EB
330
17
100
AcDbEntity
  8
LABEL
100
AcDbText
 10
972.0
 20
198.0
 30
0.0
 40
11.859375
  1
LinkJ
 50
90.0
 72
1
 11
972.0
 21
198.0
 31
0.0
100
AcDbText
 73
2
  0
CIRCLE
  5
EC
330
17
100
AcDbEntity
  8
0
100
AcDbCircle
 10
972.0
 20
714.0
 30
0.0
 40
11.0
  0
CIRCLE
  5
ED
330
17
100
AcDbEntity
  8
0
100
AcDbCircle
 10
972.0
 20
414.0
 30
0.0
 40
11.0
  0
LWPOLYLINE
  5
EE
330
17
100
AcDbEntity
  8
0
100
AcDbPolyline
 90
4
 70
1
 10
942.0
 20
714.0
 10
942.0
 20
414.0
 42
0.9999999999999999
 10
1002.0
 20
414.0
 10
1002.0
 20
714.0
 42
0.9999999999999999
  0
TEXT
  5
EF
330
17
100
AcDbEntity
  8
LABEL
100
AcDbText
 10
972.0
 20
564.0
 30
0.0
 40
11.859375
  1
LinkJ
 50
90.0
 72
1
 11
972.0
 21
564.0
 31
0.0
100
AcDbText
 73
2
  0
CIRCLE
  5
F0
330
17
100
AcDbEntity
  8
0
100
AcDbCircle
 10
1038.0
 20
348.0
 30
0.0
 40
11.0
  0
CIRCLE
  5
F1
330
17
100
AcDbEntity
  8
0
100
AcDbCircle
 10
1038.0
 20
48.0
 30
0.0
 40
11.0
  0
LWPOLYLINE
  5
F2
330
17
100
AcDbEntity
  8
0
100
AcDbPolyline
 90
4
 70
1
 10
1008.0
 20
348.0
 10
1008.0
 20
48.0
 42
0.9999999999999999
 10
1068.0
 20
48.0
 10
1068.0
 20
348.0
 42
0.9999999999999999
  0
TEXT
  5
F3
330
17
100
AcDbEntity
  8
LABEL
100
AcDbText
 10
1038.0
 20
198.0
 30
0.0
 40
11.859375
  1
LinkJ
 50
90.0
 72
1
 11
1038.0
 21
198.0
 31
0.0
100
AcDbText
 73
2
  0
LWPOLYLINE
  5
F4
330
17
100
AcDbEntity
  8
0
100
AcDbPolyline
 90
4
 70
1
 10
1068.0
 20
663.0
 42
0.9999999999999999
 10
1008.0
 20
663.0000000000001
 10
1008.0
 20
414.0
 42
0.9999999999999999
 10
1068.0
 20
414.00000000000006
  0
CIRCLE
  5
F5
330
17
100
AcDbEntity
  8
0
100
AcDbCircle
 10
1038.0
 20
663.0
 30
-2.7755575615628914e-16
 40
11.0
  0
CIRCLE
  5
F6
330
17
100
AcDbEntity
  8
0
100
AcDbCircle
 10
1038.0
 20
414.00000000000006
 30
-2.7755575615628914e-16
 40
11.0
  0
TEXT
  5
F7
330
17
100
AcDbEntity
  8
LABEL
100
AcDbText
 10
1038.0
 20
557.8125
 30
0.0
 40
11.859375
  1
LinkB
 50
90.0
 72
1
 11
1038.0
 21
557.8125
 31
0.0
100
AcDbText
 73
2
  0
LWPOLYLINE
  5
F8
330
17
100
AcDbEntity
  8
0
100
AcDbPolyline
 90
4
 70
1
 10
1134.0000000000002
 20
297.0
 42
0.9999999999999999
 10
1074.0000000000002
 20
297.0
 10
1074.0
 20
47.99999999999997
 42
0.9999999999999999
 10
1134.0
 20
48.0
  0
CIRCLE
  5
F9
330
17
100
AcDbEntity
  8
0
100
AcDbCircle
 10
1104.0000000000002
 20
297.0
 30
-2.7755575615628914e-16
 40
11.0
  0
CIRCLE
  5
FA
330
17
100
AcDbEntity
  8
0
100
AcDbCircle
 10
1104.0
 20
48.0
 30
-2.7755575615628914e-16
 40
11.0
  0
TEXT
  5
FB
330
17
100
AcDbEntity
  8
LABEL
100
AcDbText
 10
1104.0000000000002
 20
191.8125
 30
0.0
 40
11.859375
  1
LinkB
 50
90.0
 72
1
 11
1104.0000000000002
 21
191.8125
 31
0.0
100
AcDbText
 73
2
  0
LWPOLYLINE
  5
FC
330
17
100
AcDbEntity
  8
0
100
AcDbPolyline
 90
4
 70
1
 10
1134.0000000000002
 20
612.0
 42
0.9999999999999999
 10
1074.0000000000002
 20
612.0000000000001
 10
1074.0
 20
363.0
 42
0.9999999999999999
 10
1134.0
 20
363.00000000000006
  0
CIRCLE
  5
FD
330
17
100
AcDbEntity
  8
0
100
AcDbCircle
 10
1104.0000000000002
 20
612.0
 30
-2.7755575615628914e-16
 40
11.0
  0
CIRCLE
  5
FE
330
17
100
AcDbEntity
  8
0
100
AcDbCircle
 10
1104.0
 20
363.00000000000006
 30
-2.7755575615628914e-16
 40
11.0
  0
TEXT
  5
FF
330
17
100
AcDbEntity
  8
LABEL
100
AcDbText
 10
1104.0000000000002
 20
506.81250000000006
 30
0.0
 40
11.859375
  1
LinkB
 50
90.0
 72
1
 11
1104.0000000000002
 21
506.81250000000006
 31
0.0
100
AcDbText
 73
2
  0
LWPOLYLINE
  5
100
330
17
100
AcDbEntity
  8
0
100
AcDbPolyline
 90
4
 70
1
 10
1353.0
 20
648.0
 42
0.9999999999999999
 10
1353.0
 20
708.0
 10
1104.0
 20
708.0
 42
0.9999999999999999
 10
1104.0
 20
648.0
  0
CIRCLE
  5
101
330
17
100
AcDbEntity
  8
0
100
AcDbCircle
 10
1353.0
 20
678.0
 30
-2.7755575615628914e-16
 40
11.0
  0
CIRCLE
  5
102
330
17
100
AcDbEntity
  8
0
100
AcDbCircle
 10
1104.0
 20
678.0
 30
-2.7755575615628914e-16
 40
11.0
  0
TEXT
  5
103
330
17
100
AcDbEntity
  8
LABEL
100
AcDbText
 10
1247.8125
 20
678.0
 30
0.0
 40
11.859375
  1
LinkB
 72
1
 11
1247.8125
 21
678.0
 31
0.0
100
AcDbText
 73
2
  0
LWPOLYLINE
  5
104
330
17
100
AcDbEntity
  8
0
100
AcDbPolyline
 90
4
 70
1
 10
1359.0
 20
714.0
 42
0.9999999999999999
 10
1359.0
 20
774.0
 10
1110.0
 20
774.0
 42
0.9999999999999999
 10
1110.0
 20
714.0
  0
CIRCLE
  5
105
330
17
100
AcDbEntity
  8
0
100
AcDbCircle
 10
1359.0
 20
744.0
 30
-2.7755575615628914e-16
 40
11.0
  0
CIRCLE
  5
106
330
17
100
AcDbEntity
  8
0
100
AcDbCircle
 10
1110.0
 20
744.0
 30
-2.7755575615628914e-16
 40
11.0
  0
TEXT
  5
107
330
17
100
AcDbEntity
  8
LABEL
100
AcDbText
 10
1253.8125
 20
744.0
 30
0.0
 40
11.859375
  1
LinkB
 72
1
 11
1253.8125
 21
744.0
 31
0.0
100
AcDbText
 73
2
  0
LWPOLYLINE
  5
108
330
17
100
AcDbEntity
  8
0
100
AcDbPolyline
 90
4
 70
1
 10
1204.8000000000004
 20
1059.0
 42
0.9999999999999999
 10
1144.8000000000004
 20
1059.0
 10
1144.8000000000002
 20
810.0
 42
0.9999999999999999
 10
1204.8000000000002
 20
810.0
  0
CIRCLE
  5
109
330
17
100
AcDbEntity
  8
0
100
AcDbCircle
 10
1174.8000000000004
 20
1059.0
 30
-2.7755575615628914e-16
 40
11.0
  0
CIRCLE
  5
10A
330
17
100
AcDbEntity
  8
0
100
AcDbCircle
 10
1174.8000000000002
 20
810.0
 30
-2.7755575615628914e-16
 40
11.0
  0
TEXT
  5
10B
330
17
100
AcDbEntity
  8
LABEL
100
AcDbText
 10
1174.8000000000004
 20
953.8125
 30
0.0
 40
11.859375
  1
LinkB
 50
90.0
 72
1
 11
1174.8000000000004
 21
953.8125
 31
0.0
100
AcDbText
 73
2
  0
LWPOLYLINE
  5
10C
330
17
100
AcDbEntity
  8
0
100
AcDbPolyline
 90
4
 70
1
 10
1423.8000000000002
 20
1095.0
 42
0.9999999999999999
 10
1423.8000000000002
 20
1155.0
 10
1174.8000000000002
 20
1155.0000000000002
 42
0.9999999999999999
 10
1174.8000000000002
 20
1095.0000000000002
  0
CIRCLE
  5
10D
330
17
100
AcDbEntity
  8
0
100
AcDbCircle
 10
1423.8000000000002
 20
1125.0
 30
-2.7755575615628914e-16
 40
11.0
  0
CIRCLE
  5
10E
330
17
100
AcDbEntity
  8
0
100
AcDbCircle
 10
1174.8000000000002
 20
1125.0000000000002
 30
-2.7755575615628914e-16
 40
11.0
  0
TEXT
  5
10F
330
17
100
AcDbEntity
  8
LABEL
100
AcDbText
 10
1318.6125000000002
 20
1125.0
 30
0.0
 40
11.859375
  1
LinkB
 72
1
 11
1318.6125000000002
 21
1125.0
 31
0.0
100
AcDbText
 73
2
  0
LWPOLYLINE
  5
110
330
17
100
AcDbEntity
  8
0
100
AcDbPolyline
 90
4
 70
1
 10
1270.8000000000004
 20
1059.0
 42
0.9999999999999999
 10
1210.8000000000004
 20
1059.0
 10
1210.8000000000002
 20
810.0
 42
0.9999999999999999
 10
1270.8000000000002
 20
810.0
  0
CIRCLE
  5
111
330
17
100
AcDbEntity
  8
0
100
AcDbCircle
 10
1240.8000000000004
 20
1059.0
 30
-2.7755575615628914e-16
 40
11.0
  0
CIRCLE
  5
112
330
17
100
AcDbEntity
  8
0
100
AcDbCircle
 10
1240.8000000000002
 20
810.0
 30
-2.7755575615628914e-16
 40
11.0
  0
TEXT
  5
113
330
17
100
AcDbEntity
  8
LABEL
100
AcDbText
 10
1240.8000000000004
 20
953.8125
 30
0.0
 40
11.859375
  1
LinkB
 50
90.0
 72
1
 11
1240.8000000000004
 21
953.8125
 31
0.0
100
AcDbText
 73
2
  0
LWPOLYLINE
  5
114
330
17
100
AcDbEntity
  8
0
100
AcDbPolyline
 90
4
 70
1
 10
1336.8000000000004
 20
1059.0
 42
0.9999999999999999
 10
1276.8000000000004
 20
1059.0
 10
1276.8000000000002
 20
810.0
 42
0.9999999999999999
 10
1336.8000000000002
 20
810.0
  0
CIRCLE
  5
115
330
17
100
AcDbEntity
  8
0
100
AcDbCircle
 10
1306.8000000000004
 20
1059.0
 30
-2.7755575615628914e-16
 40
11.0
  0
CIRCLE
  5
116
330
17
100
AcDbEntity
  8
0
100
AcDbCircle
 10
1306.8000000000002
 20
810.0
 30
-2.7755575615628914e-16
 40
11.0
  0
TEXT
  5
117
330
17
100
AcDbEntity
  8
LABEL
100
AcDbText
 10
1306.8000000000004
 20
953.8125
 30
0.0
 40
11.859375
  1
LinkB
 50
90.0
 72
1
 11
1306.8000000000004
 21
953.8125
 31
0.0
100
AcDbText
 73
2
  0
LWPOLYLINE
  5
118
330
17
100
AcDbEntity
  8
0
100
AcDbPolyline
 90
4
 70
1
 10
1402.8000000000004
 20
1059.0
 42
0.9999999999999999
 10
1342.8000000000004
 20
1059.0
 10
1342.8000000000002
 20
810.0
 42
0.9999999999999999
 10
1402.8000000000002
 20
810.0
  0
CIRCLE
  5
119
330
17
100
AcDbEntity
  8
0
100
AcDbCircle
 10
1372.8000000000004
 20
1059.0
 30
-2.7755575615628914e-16
 40
11.0
  0
CIRCLE
  5
11A
330
17
100
AcDbEntity
  8
0
100
AcDbCircle
 10
1372.8000000000002
 20
810.0
 30
-2.7755575615628914e-16
 40
11.0
  0
TEXT
  5
11B
330
17
100
AcDbEntity
  8
LABEL
100
AcDbText
 10
1372.8000000000004
 20
953.8125
 30
0.0
 40
11.859375
  1
LinkB
 50
90.0
 72
1
 11
1372.8000000000004
 21
953.8125
 31
0.0
100
AcDbText
 73
2
  0
LWPOLYLINE
  5
11C
330
17
100
AcDbEntity
  8
0
100
AcDbPolyline
 90
4
 70
1
 10
1200.0000000000002
 20
297.0
 42
0.9999999999999999
 10
1140.0000000000002
 20
297.0
 10
1140.0
 20
47.99999999999997
 42
0.9999999999999999
 10
1200.0
 20
48.0
  0
CIRCLE
  5
11D
330
17
100
AcDbEntity
  8
0
100
AcDbCircle
 10
1170.0000000000002
 20
297.0
 30
-2.7755575615628914e-16
 40
11.0
  0
CIRCLE
  5
11E
330
17
100
AcDbEntity
  8
0
100
AcDbCircle
 10
1170.0
 20
48.0
 30
-2.7755575615628914e-16
 40
11.0
  0
TEXT
  5
11F
330
17
100
AcDbEntity
  8
LABEL
100
AcDbText
 10
1170.0000000000002
 20
191.8125
 30
0.0
 40
11.859375
  1
LinkB
 50
90.0
 72
1
 11
1170.0000000000002
 21
191.8125
 31
0.0
100
AcDbText
 73
2
  0
LWPOLYLINE
  5
120
330
17
100
AcDbEntity
  8
0
100
AcDbPolyline
 90
4
 70
1
 10
1200.0000000000002
 20
612.0
 42
0.9999999999999999
 10
1140.0000000000002
 20
612.0000000000001
 10
1140.0
 20
363.0
 42
0.9999999999999999
 10
1200.0
 20
363.00000000000006
  0
CIRCLE
  5
121
330
17
100
AcDbEntity
  8
0
100
AcDbCircle
 10
1170.0000000000002
 20
612.0
 30
-2.7755575615628914e-16
 40
11.0
  0
CIRCLE
  5
122
330
17
100
AcDbEntity
  8
0
100
AcDbCircle
 10
1170.0
 20
363.00000000000006
 30
-2.7755575615628914e-16
 40
11.0
  0
TEXT
  5
123
330
17
100
AcDbEntity
  8
LABEL
100
AcDbText
 10
1170.0000000000002
 20
506.81250000000006
 30
0.0
 40
11.859375
  1
LinkB
 50
90.0
 72
1
 11
1170.0000000000002
 21
506.81250000000006
 31
0.0
100
AcDbText
 73
2
  0
LWPOLYLINE
  5
124
330
17
100
AcDbEntity
  8
0
100
AcDbPolyline
 90
4
 70
1
 10
1266.0000000000002
 20
297.0
 42
0.9999999999999999
 10
1206.0000000000002
 20
297.0
 10
1206.0
 20
47.99999999999997
 42
0.9999999999999999
 10
1266.0
 20
48.0
  0
CIRCLE
  5
125
330
17
100
AcDbEntity
  8
0
100
AcDbCircle
 10
1236.0000000000002
 20
297.0
 30
-2.7755575615628914e-16
 40
11.0
  0
CIRCLE
  5
126
330
17
100
AcDbEntity
  8
0
100
AcDbCircle
 10
1236.0
 20
48.0
 30
-2.7755575615628914e-16
 40
11.0
  0
TEXT
  5
127
330
17
100
AcDbEntity
  8
LABEL
100
AcDbText
 10
1236.0000000000002
 20
191.8125
 30
0.0
 40
11.859375
  1
LinkB
 50
90.0
 72
1
 11
1236.0000000000002
 21
191.8125
 31
0.0
100
AcDbText
 73
2
  0
LWPOLYLINE
  5
128
330
17
100
AcDbEntity
  8
0
100
AcDbPolyline
 90
4
 70
1
 10
1266.0000000000002
 20
612.0
 42
0.9999999999999999
 10
1206.0000000000002
 20
612.0000000000001
 10
1206.0
 20
363.0
 42
0.9999999999999999
 10
1266.0
 20
363.00000000000006
  0
CIRCLE
  5
129
330
17
100
AcDbEntity
  8
0
100
AcDbCircle
 10
1236.0000000000002
 20
612.0
 30
-2.7755575615628914e-16
 40
11.0
  0
CIRCLE
  5
12A
330
17
100
AcDbEntity
  8
0
100
AcDbCircle
 10
1236.0
 20
363.00000000000006
 30
-2.7755575615628914e-16
 40
11.0
  0
TEXT
  5
12B
330
17
100
AcDbEntity
  8
LABEL
100
AcDbText
 10
1236.0000000000002
 20
506.81250000000006
 30
0.0
 40
11.859375
  1
LinkB
 50
90.0
 72
1
 11
1236.0000000000002
 21
506.81250000000006
 31
0.0
100
AcDbText
 73
2
  0
LWPOLYLINE
  5
12C
330
17
100
AcDbEntity
  8
0
100
AcDbPolyline
 90
4
 70
1
 10
1332.0000000000002
 20
297.0
 42
0.9999999999999999
 10
1272.0000000000002
 20
297.0
 10
1272.0
 20
47.99999999999997
 42
0.9999999999999999
 10
1332.0
 20
48.0
  0
CIRCLE
  5
12D
330
17
100
AcDbEntity
  8
0
100
AcDbCircle
 10
1302.0000000000002
 20
297.0
 30
-2.7755575615628914e-16
 40
11.0
  0
CIRCLE
  5
12E
330
17
100
AcDbEntity
  8
0
100
AcDbCircle
 10
1302.0
 20
48.0
 30
-2.7755575615628914e-16
 40
11.0
  0
TEXT
  5
12F
330
17
100
AcDbEntity
  8
LABEL
100
AcDbText
 10
1302.0000000000002
 20
191.8125
 30
0.0
 40
11.859375
  1
LinkB
 50
90.0
 72
1
 11
1302.0000000000002
 21
191.8125
 31
0.0
100
AcDbText
 73
2
  0
LWPOLYLINE
  5
130
330
17
100
AcDbEntity
  8
0
100
AcDbPolyline
 90
4
 70
1
 10
1332.0000000000002
 20
612.0
 42
0.9999999999999999
 10
1272.0000000000002
 20
612.0000000000001
 10
1272.0
 20
363.0
 42
0.9999999999999999
 10
1332.0
 20
363.00000000000006
  0
CIRCLE
  5
131
330
17
100
AcDbEntity
  8
0
100
AcDbCircle
 10
1302.0000000000002
 20
612.0
 30
-2.7755575615628914e-16
 40
11.0
  0
CIRCLE
  5
132
330
17
100
AcDbEntity
  8
0
100
AcDbCircle
 10
1302.0
 20
363.00000000000006
 30
-2.7755575615628914e-16
 40
11.0
  0
TEXT
  5
133
330
17
100
AcDbEntity
  8
LABEL
100
AcDbText
 10
1302.0000000000002
 20
506.81250000000006
 30
0.0
 40
11.859375
  1
LinkB
 50
90.0
 72
1
 11
1302.0000000000002
 21
506.81250000000006
 31
0.0
100
AcDbText
 73
2
  0
LWPOLYLINE
  5
134
330
17
100
AcDbEntity
  8
0
100
AcDbPolyline
 90
4
 70
1
 10
1398.0000000000002
 20
297.0
 42
0.9999999999999999
 10
1338.0000000000002
 20
297.0
 10
1338.0
 20
47.99999999999997
 42
0.9999999999999999
 10
1398.0
 20
48.0
  0
CIRCLE
  5
135
330
17
100
AcDbEntity
  8
0
100
AcDbCircle
 10
1368.0000000000002
 20
297.0
 30
-2.7755575615628914e-16
 40
11.0
  0
CIRCLE
  5
136
330
17
100
AcDbEntity
  8
0
100
AcDbCircle
 10
1368.0
 20
48.0
 30
-2.7755575615628914e-16
 40
11.0
  0
TEXT
  5
137
330
17
100
AcDbEntity
  8
LABEL
100
AcDbText
 10
1368.0000000000002
 20
191.8125
 30
0.0
 40
11.859375
  1
LinkB
 50
90.0
 72
1
 11
1368.0000000000002
 21
191.8125
 31
0.0
100
AcDbText
 73
2
  0
LWPOLYLINE
  5
138
330
17
100
AcDbEntity
  8
0
100
AcDbPolyline
 90
4
 70
1
 10
1398.0000000000002
 20
612.0
 42
0.9999999999999999
 10
1338.0000000000002
 20
612.0000000000001
 10
1338.0
 20
363.0
 42
0.9999999999999999
 10
1398.0
 20
363.00000000000006
  0
CIRCLE
  5
139
330
17
100
AcDbEntity
  8
0
100
AcDbCircle
 10
1368.0000000000002
 20
612.0
 30
-2.7755575615628914e-16
 40
11.0
  0
CIRCLE
  5
13A
330
17
100
AcDbEntity
  8
0
100
AcDbCircle
 10
1368.0
 20
363.00000000000006
 30
-2.7755575615628914e-16
 40
11.0
  0
TEXT
  5
13B
330
17
100
AcDbEntity
  8
LABEL
100
AcDbText
 10
1368.0000000000002
 20
506.81250000000006
 30
0.0
 40
11.859375
  1
LinkB
 50
90.0
 72
1
 11
1368.0000000000002
 21
506.81250000000006
 31
0.0
100
AcDbText
 73
2
  0
LWPOLYLINE
  5
13C
330
17
100
AcDbEntity
  8
0
100
AcDbPolyline
 90
4
 70
1
 10
1674.0
 20
648.0
 42
0.9999999999999999
 10
1674.0
 20
708.0
 10
1425.0
 20
708.0
 42
0.9999999999999999
 10
1425.0
 20
648.0
  0
CIRCLE
  5
13D
330
17
100
AcDbEntity
  8
0
100
AcDbCircle
 10
1674.0
 20
678.0
 30
-2.7755575615628914e-16
 40
11.0
  0
CIRCLE
  5
13E
330
17
100
AcDbEntity
  8
0
100
AcDbCircle
 10
1425.0
 20
678.0
 30
-2.7755575615628914e-16
 40
11.0
  0
TEXT
  5
13F
330
17
100
AcDbEntity
  8
LABEL
100
AcDbText
 10
1568.8125
 20
678.0
 30
0.0
 40
11.859375
  1
LinkB
 72
1
 11
1568.8125
 21
678.0
 31
0.0
100
AcDbText
 73
2
  0
LWPOLYLINE
  5
140
330
17
100
AcDbEntity
  8
0
100
AcDbPolyline
 90
4
 70
1
 10
1468.8000000000004
 20
993.0
 42
0.9999999999999999
 10
1408.8000000000004
 20
993.0000000000001
 10
1408.8000000000002
 20
744.0
 42
0.9999999999999999
 10
1468.8000000000002
 20
744.0
  0
CIRCLE
  5
141
330
17
100
AcDbEntity
  8
0
100
AcDbCircle
 10
1438.8000000000004
 20
993.0
 30
-2.7755575615628914e-16
 40
11.0
  0
CIRCLE
  5
142
330
17
100
AcDbEntity
  8
0
100
AcDbCircle
 10
1438.8000000000002
 20
744.0
 30
-2.7755575615628914e-16
 40
11.0
  0
TEXT
  5
143
330
17
100
AcDbEntity
  8
LABEL
100
AcDbText
 10
1438.8000000000004
 20
887.8125
 30
0.0
 40
11.859375
  1
LinkB
 50
90.0
 72
1
 11
1438.8000000000004
 21
887.8125
 31
0.0
100
AcDbText
 73
2
  0
LWPOLYLINE
  5
144
330
17
100
AcDbEntity
  8
0
100
AcDbPolyline
 90
4
 70
1
 10
1738.8000000000002
 20
1029.0
 42
0.9999999999999999
 10
1738.8000000000002
 20
1089.0
 10
1489.8000000000002
 20
1089.0000000000002
 42
0.9999999999999999
 10
1489.8000000000002
 20
1029.0000000000002
  0
CIRCLE
  5
145
330
17
100
AcDbEntity
  8
0
100
AcDbCircle
 10
1738.8000000000002
 20
1059.0
 30
-2.7755575615628914e-16
 40
11.0
  0
CIRCLE
  5
146
330
17
100
AcDbEntity
  8
0
100
AcDbCircle
 10
1489.8000000000002
 20
1059.0000000000002
 30
-2.7755575615628914e-16
 40
11.0
  0
TEXT
  5
147
330
17
100
AcDbEntity
  8
LABEL
100
AcDbText
 10
1633.6125000000002
 20
1059.0
 30
0.0
 40
11.859375
  1
LinkB
 72
1
 11
1633.6125000000002
 21
1059.0
 31
0.0
100
AcDbText
 73
2
  0
LWPOLYLINE
  5
148
330
17
100
AcDbEntity
  8
0
100
AcDbPolyline
 90
4
 70
1
 10
1534.8000000000004
 20
993.0
 42
0.9999999999999999
 10
1474.8000000000004
 20
993.0000000000001
 10
1474.8000000000002
 20
744.0
 42
0.9999999999999999
 10
1534.8000000000002
 20
744.0
  0
CIRCLE
  5
149
330
17
100
AcDbEntity
  8
0
100
AcDbCircle
 10
1504.8000000000004
 20
993.0
 30
-2.7755575615628914e-16
 40
11.0
  0
CIRCLE
  5
14A
330
17
100
AcDbEntity
  8
0
100
AcDbCircle
 10
1504.8000000000002
 20
744.0
 30
-2.7755575615628914e-16
 40
11.0
  0
TEXT
  5
14B
330
17
100
AcDbEntity
  8
LABEL
100
AcDbText
 10
1504.8000000000004
 20
887.8125
 30
0.0
 40
11.859375
  1
LinkB
 50
90.0
 72
1
 11
1504.8000000000004
 21
887.8125
 31
0.0
100
AcDbText
 73
2
  0
LWPOLYLINE
  5
14C
330
17
100
AcDbEntity
  8
0
100
AcDbPolyline
 90
4
 70
1
 10
1600.8000000000004
 20
993.0
 42
0.9999999999999999
 10
1540.8000000000004
 20
993.0000000000001
 10
1540.8000000000002
 20
744.0
 42
0.9999999999999999
 10
1600.8000000000002
 20
744.0
  0
CIRCLE
  5
14D
330
17
100
AcDbEntity
  8
0
100
AcDbCircle
 10
1570.8000000000004
 20
993.0
 30
-2.7755575615628914e-16
 40
11.0
  0
CIRCLE
  5
14E
330
17
100
AcDbEntity
  8
0
100
AcDbCircle
 10
1570.8000000000002
 20
744.0
 30
-2.7755575615628914e-16
 40
11.0
  0
TEXT
  5
14F
330
17
100
AcDbEntity
  8
LABEL
100
AcDbText
 10
1570.8000000000004
 20
887.8125
 30
0.0
 40
11.859375
  1
LinkB
 50
90.0
 72
1
 11
1570.8000000000004
 21
887.8125
 31
0.0
100
AcDbText
 73
2
  0
LWPOLYLINE
  5
150
330
17
100
AcDbEntity
  8
0
100
AcDbPolyline
 90
4
 70
1
 10
1666.8000000000004
 20
993.0
 42
0.9999999999999999
 10
1606.8000000000004
 20
993.0000000000001
 10
1606.8000000000002
 20
744.0
 42
0.9999999999999999
 10
1666.8000000000002
 20
744.0
  0
CIRCLE
  5
151
330
17
100
AcDbEntity
  8
0
100
AcDbCircle
 10
1636.8000000000004
 20
993.0
 30
-2.7755575615628914e-16
 40
11.0
  0
CIRCLE
  5
152
330
17
100
AcDbEntity
  8
0
100
AcDbCircle
 10
1636.8000000000002
 20
744.0
 30
-2.7755575615628914e-16
 40
11.0
  0
TEXT
  5
153
330
17
100
AcDbEntity
  8
LABEL
100
AcDbText
 10
1636.8000000000004
 20
887.8125
 30
0.0
 40
11.859375
  1
LinkB
 50
90.0
 72
1
 11
1636.8000000000004
 21
887.8125
 31
0.0
100
AcDbText
 73
2
  0
LWPOLYLINE
  5
154
330
17
100
AcDbEntity
  8
0
100
AcDbPolyline
 90
4
 70
1
 10
1732.8000000000004
 20
993.0
 42
0.9999999999999999
 10
1672.8000000000004
 20
993.0000000000001
 10
1672.8000000000002
 20
744.0
 42
0.9999999999999999
 10
1732.8000000000002
 20
744.0
  0
CIRCLE
  5
155
330
17
100
AcDbEntity
  8
0
100
AcDbCircle
 10
1702.8000000000004
 20
993.0
 30
-2.7755575615628914e-16
 40
11.0
  0
CIRCLE
  5
156
330
17
100
AcDbEntity
  8
0
100
AcDbCircle
 10
1702.8000000000002
 20
744.0
 30
-2.7755575615628914e-16
 40
11.0
  0
TEXT
  5
157
330
17
100
AcDbEntity
  8
LABEL
100
AcDbText
 10
1702.8000000000004
 20
887.8125
 30
0.0
 40
11.859375
  1
LinkB
 50
90.0
 72
1
 11
1702.8000000000004
 21
887.8125
 31
0.0
100
AcDbText
 73
2
  0
LWPOLYLINE
  5
158
330
17
100
AcDbEntity
  8
0
100
AcDbPolyline
 90
4
 70
1
 10
1738.8000000000002
 20
1095.0
 42
0.9999999999999999
 10
1738.8000000000002
 20
1155.0
 10
1489.8000000000002
 20
1155.0000000000002
 42
0.9999999999999999
 10
1489.8000000000002
 20
1095.0000000000002
  0
CIRCLE
  5
159
330
17
100
AcDbEntity
  8
0
100
AcDbCircle
 10
1738.8000000000002
 20
1125.0
 30
-2.7755575615628914e-16
 40
11.0
  0
CIRCLE
  5
15A
330
17
100
AcDbEntity
  8
0
100
AcDbCircle
 10
1489.8000000000002
 20
1125.0000000000002
 30
-2.7755575615628914e-16
 40
11.0
  0
TEXT
  5
15B
330
17
100
AcDbEntity
  8
LABEL
100
AcDbText
 10
1633.6125000000002
 20
1125.0
 30
0.0
 40
11.859375
  1
LinkB
 72
1
 11
1633.6125000000002
 21
1125.0
 31
0.0
100
AcDbText
 73
2
  0
LWPOLYLINE
  5
15C
330
17
100
AcDbEntity
  8
0
100
AcDbPolyline
 90
4
 70
1
 10
1464.0000000000002
 20
297.0
 42
0.9999999999999999
 10
1404.0000000000002
 20
297.0
 10
1404.0
 20
47.99999999999997
 42
0.9999999999999999
 10
1464.0
 20
48.0
  0
CIRCLE
  5
15D
330
17
100
AcDbEntity
  8
0
100
AcDbCircle
 10
1434.0000000000002
 20
297.0
 30
-2.7755575615628914e-16
 40
11.0
  0
CIRCLE
  5
15E
330
17
100
AcDbEntity
  8
0
100
AcDbCircle
 10
1434.0
 20
48.0
 30
-2.7755575615628914e-16
 40
11.0
  0
TEXT
  5
15F
330
17
100
AcDbEntity
  8
LABEL
100
AcDbText
 10
1434.0000000000002
 20
191.8125
 30
0.0
 40
11.859375
  1
LinkB
 50
90.0
 72
1
 11
1434.0000000000002
 21
191.8125
 31
0.0
100
AcDbText
 73
2
  0
LWPOLYLINE
  5
160
330
17
100
AcDbEntity
  8
0
100
AcDbPolyline
 90
4
 70
1
 10
1464.0000000000002
 20
612.0
 42
0.9999999999999999
 10
1404.0000000000002
 20
612.0000000000001
 10
1404.0
 20
363.0
 42
0.9999999999999999
 10
1464.0
 20
363.00000000000006
  0
CIRCLE
  5
161
330
17
100
AcDbEntity
  8
0
100
AcDbCircle
 10
1434.0000000000002
 20
612.0
 30
-2.7755575615628914e-16
 40
11.0
  0
CIRCLE
  5
162
330
17
100
AcDbEntity
  8
0
100
AcDbCircle
 10
1434.0
 20
363.00000000000006
 30
-2.7755575615628914e-16
 40
11.0
  0
TEXT
  5
163
330
17
100
AcDbEntity
  8
LABEL
100
AcDbText
 10
1434.0000000000002
 20
506.81250000000006
 30
0.0
 40
11.859375
  1
LinkB
 50
90.0
 72
1
 11
1434.0000000000002
 21
506.81250000000006
 31
0.0
100
AcDbText
 73
2
  0
LWPOLYLINE
  5
164
330
17
100
AcDbEntity
  8
0
100
AcDbPolyline
 90
4
 70
1
 10
1530.0000000000002
 20
297.0
 42
0.9999999999999999
 10
1470.0000000000002
 20
297.0
 10
1470.0
 20
47.99999999999997
 42
0.9999999999999999
 10
1530.0
 20
48.0
  0
CIRCLE
  5
165
330
17
100
AcDbEntity
  8
0
100
AcDbCircle
 10
1500.0000000000002
 20
297.0
 30
-2.7755575615628914e-16
 40
11.0
  0
CIRCLE
  5
166
330
17
100
AcDbEntity
  8
0
100
AcDbCircle
 10
1500.0
 20
48.0
 30
-2.7755575615628914e-16
 40
11.0
  0
TEXT
  5
167
330
17
100
AcDbEntity
  8
LABEL
100
AcDbText
 10
1500.0000000000002
 20
191.8125
 30
0.0
 40
11.859375
  1
LinkB
 50
90.0
 72
1
 11
1500.0000000000002
 21
191.8125
 31
0.0
100
AcDbText
 73
2
  0
LWPOLYLINE
  5
168
330
17
100
AcDbEntity
  8
0
100
AcDbPolyline
 90
4
 70
1
 10
1530.0000000000002
 20
612.0
 42
0.9999999999999999
 10
1470.0000000000002
 20
612.0000000000001
 10
1470.0
 20
363.0
 42
0.9999999999999999
 10
1530.0
 20
363.00000000000006
  0
CIRCLE
  5
169
330
17
100
AcDbEntity
  8
0
100
AcDbCircle
 10
1500.0000000000002
 20
612.0
 30
-2.7755575615628914e-16
 40
11.0
  0
CIRCLE
  5
16A
330
17
100
AcDbEntity
  8
0
100
AcDbCircle
 10
1500.0
 20
363.00000000000006
 30
-2.7755575615628914e-16
 40
11.0
  0
TEXT
  5
16B
330
17
100
AcDbEntity
  8
LABEL
100
AcDbText
 10
1500.0000000000002
 20
506.81250000000006
 30
0.0
 40
11.859375
  1
LinkB
 50
90.0
 72
1
 11
1500.0000000000002
 21
506.81250000000006
 31
0.0
100
AcDbText
 73
2
  0
LWPOLYLINE
  5
16C
330
17
100
AcDbEntity
  8
0
100
AcDbPolyline
 90
4
 70
1
 10
1596.0000000000002
 20
297.0
 42
0.9999999999999999
 10
1536.0000000000002
 20
297.0
 10
1536.0
 20
47.99999999999997
 42
0.9999999999999999
 10
1596.0
 20
48.0
  0
CIRCLE
  5
16D
330
17
100
AcDbEntity
  8
0
100
AcDbCircle
 10
1566.0000000000002
 20
297.0
 30
-2.7755575615628914e-16
 40
11.0
  0
CIRCLE
  5
16E
330
17
100
AcDbEntity
  8
0
100
AcDbCircle
 10
1566.0
 20
48.0
 30
-2.7755575615628914e-16
 40
11.0
  0
TEXT
  5
16F
330
17
100
AcDbEntity
  8
LABEL
100
AcDbText
 10
1566.0000000000002
 20
191.8125
 30
0.0
 40
11.859375
  1
LinkB
 50
90.0
 72
1
 11
1566.0000000000002
 21
191.8125
 31
0.0
100
AcDbText
 73
2
  0
LWPOLYLINE
  5
170
330
17
100
AcDbEntity
  8
0
100
AcDbPolyline
 90
4
 70
1
 10
1596.0000000000002
 20
612.0
 42
0.9999999999999999
 10
1536.0000000000002
 20
612.0000000000001
 10
1536.0
 20
363.0
 42
0.9999999999999999
 10
1596.0
 20
363.00000000000006
  0
CIRCLE
  5
171
330
17
100
AcDbEntity
  8
0
100
AcDbCircle
 10
1566.0000000000002
 20
612.0
 30
-2.7755575615628914e-16
 40
11.0
  0
CIRCLE
  5
172
330
17
100
AcDbEntity
  8
0
100
AcDbCircle
 10
1566.0
 20
363.00000000000006
 30
-2.7755575615628914e-16
 40
11.0
  0
TEXT
  5
173
330
17
100
AcDbEntity
  8
LABEL
100
AcDbText
 10
1566.0000000000002
 20
506.81250000000006
 30
0.0
 40
11.859375
  1
LinkB
 50
90.0
 72
1
 11
1566.0000000000002
 21
506.81250000000006
 31
0.0
100
AcDbText
 73
2
  0
LWPOLYLINE
  5
174
330
17
100
AcDbEntity
  8
0
100
AcDbPolyline
 90
4
 70
1
 10
1662.0000000000002
 20
297.0
 42
0.9999999999999999
 10
1602.0000000000002
 20
297.0
 10
1602.0
 20
47.99999999999997
 42
0.9999999999999999
 10
1662.0
 20
48.0
  0
CIRCLE
  5
175
330
17
100
AcDbEntity
  8
0
100
AcDbCircle
 10
1632.0000000000002
 20
297.0
 30
-2.7755575615628914e-16
 40
11.0
  0
CIRCLE
  5
176
330
17
100
AcDbEntity
  8
0
100
AcDbCircle
 10
1632.0
 20
48.0
 30
-2.7755575615628914e-16
 40
11.0
  0
TEXT
  5
177
330
17
100
AcDbEntity
  8
LABEL
100
AcDbText
 10
1632.0000000000002
 20
191.8125
 30
0.0
 40
11.859375
  1
LinkB
 50
90.0
 72
1
 11
1632.0000000000002
 21
191.8125
 31
0.0
100
AcDbText
 73
2
  0
LWPOLYLINE
  5
178
330
17
100
AcDbEntity
  8
0
100
AcDbPolyline
 90
4
 70
1
 10
1662.0000000000002
 20
612.0
 42
0.9999999999999999
 10
1602.0000000000002
 20
612.0000000000001
 10
1602.0
 20
363.0
 42
0.9999999999999999
 10
1662.0
 20
363.00000000000006
  0
CIRCLE
  5
179
330
17
100
AcDbEntity
  8
0
100
AcDbCircle
 10
1632.0000000000002
 20
612.0
 30
-2.7755575615628914e-16
 40
11.0
  0
CIRCLE
  5
17A
330
17
100
AcDbEntity
  8
0
100
AcDbCircle
 10
1632.0
 20
363.00000000000006
 30
-2.7755575615628914e-16
 40
11.0
  0
TEXT
  5
17B
330
17
100
AcDbEntity
  8
LABEL
100
AcDbText
 10
1632.0000000000002
 20
506.81250000000006
 30
0.0
 40
11.859375
  1
LinkB
 50
90.0
 72
1
 11
1632.0000000000002
 21
506.81250000000006
 31
0.0
100
AcDbText
 73
2
  0
LWPOLYLINE
  5
17C
330
17
100
AcDbEntity
  8
0
100
AcDbPolyline
 90
4
 70
1
 10
1728.0000000000002
 20
297.0
 42
0.9999999999999999
 10
1668.0000000000002
 20
297.0
 10
1668.0
 20
47.99999999999997
 42
0.9999999999999999
 10
1728.0
 20
48.0
  0
CIRCLE
  5
17D
330
17
100
AcDbEntity
  8
0
100
AcDbCircle
 10
1698.0000000000002
 20
297.0
 30
-2.7755575615628914e-16
 40
11.0
  0
CIRCLE
  5
17E
330
17
100
AcDbEntity
  8
0
100
AcDbCircle
 10
1698.0
 20
48.0
 30
-2.7755575615628914e-16
 40
11.0
  0
TEXT
  5
17F
330
17
100
AcDbEntity
  8
LABEL
100
AcDbText
 10
1698.0000000000002
 20
191.8125
 30
0.0
 40
11.859375
  1
LinkB
 50
90.0
 72
1
 11
1698.0000000000002
 21
191.8125
 31
0.0
100
AcDbText
 73
2
  0
LWPOLYLINE
  5
180
330
17
100
AcDbEntity
  8
0
100
AcDbPolyline
 90
4
 70
1
 10
1728.0000000000002
 20
612.0
 42
0.9999999999999999
 10
1668.0000000000002
 20
612.0000000000001
 10
1668.0
 20
363.0
 42
0.9999999999999999
 10
1728.0
 20
363.00000000000006
  0
CIRCLE
  5
181
330
17
100
AcDbEntity
  8
0
100
AcDbCircle
 10
1698.0000000000002
 20
612.0
 30
-2.7755575615628914e-16
 40
11.0
  0
CIRCLE
  5
182
330
17
100
AcDbEntity
  8
0
100
AcDbCircle
 10
1698.0
 20
363.00000000000006
 30
-2.7755575615628914e-16
 40
11.0
  0
TEXT
  5
183
330
17
100
AcDbEntity
  8
LABEL
100
AcDbText
 10
1698.0000000000002
 20
506.81250000000006
 30
0.0
 40
11.859375
  1
LinkB
 50
90.0
 72
1
 11
1698.0000000000002
 21
506.81250000000006
 31
0.0
100
AcDbText
 73
2
  0
LWPOLYLINE
  5
184
330
17
100
AcDbEntity
  8
0
100
AcDbPolyline
 90
4
 70
1
 10
2045.4
 20
78.00000000000001
 10
1804.8
 20
78.00000000000006
 42
0.9999999999999999
 10
1804.8
 20
18.000000000000014
 10
2045.4
 20
18.000000000000014
 42
0.9999999999999999
  0
CIRCLE
  5
185
330
17
100
AcDbEntity
  8
0
100
AcDbCircle
 10
2045.4
 20
48.0
 30
0.0
 40
11.0
  0
CIRCLE
  5
186
330
17
100
AcDbEntity
  8
0
100
AcDbCircle
 10
1804.8
 20
48.000000000000014
 30
0.0
 40
11.0
  0
TEXT
  5
187
330
17
100
AcDbEntity
  8
LABEL
100
AcDbText
 10
1906.3125
 20
48.00000000000003
 30
0.0
 40
11.859375
  1
LinkD
 72
1
 11
1906.3125
 21
48.00000000000003
 31
0.0
100
AcDbText
 73
2
  0
LWPOLYLINE
  5
188
330
17
100
AcDbEntity
  8
0
100
AcDbPolyline
 90
4
 70
1
 10
2352.0000000000005
 20
78.00000000000001
 10
2111.4000000000005
 20
78.00000000000006
 42
0.9999999999999999
 10
2111.4000000000005
 20
18.000000000000014
 10
2352.0000000000005
 20
18.000000000000014
 42
0.9999999999999999
  0
CIRCLE
  5
189
330
17
100
AcDbEntity
  8
0
100
AcDbCircle
 10
2352.0000000000005
 20
48.0
 30
0.0
 40
11.0
  0
CIRCLE
  5
18A
330
17
100
AcDbEntity
  8
0
100
AcDbCircle
 10
2111.4000000000005
 20
48.000000000000014
 30
0.0
 40
11.0
  0
TEXT
  5
18B
330
17
100
AcDbEntity
  8
LABEL
100
AcDbText
 10
2212.9125000000004
 20
48.00000000000003
 30
0.0
 40
11.859375
  1
LinkD
 72
1
 11
2212.9125000000004
 21
48.00000000000003
 31
0.0
100
AcDbText
 73
2
  0
LWPOLYLINE
  5
18C
330
17
100
AcDbEntity
  8
0
100
AcDbPolyline
 90
4
 70
1
 10
1734.0
 20
354.60000000000014
 10
1734.0
 20
114.0
 42
0.9999999999999999
 10
1794.0
 20
114.0
 10
1794.0
 20
354.60000000000014
 42
0.9999999999999999
  0
CIRCLE
  5
18D
330
17
100
AcDbEntity
  8
0
100
AcDbCircle
 10
1764.0
 20
354.60000000000014
 30
0.0
 40
11.0
  0
CIRCLE
  5
18E
330
17
100
AcDbEntity
  8
0
100
AcDbCircle
 10
1764.0
 20
114.0
 30
0.0
 40
11.0
  0
TEXT
  5
18F
330
17
100
AcDbEntity
  8
LABEL
100
AcDbText
 10
1764.0
 20
215.51250000000005
 30
0.0
 40
11.859375
  1
LinkD
 50
90.0
 72
1
 11
1764.0
 21
215.51250000000005
 31
0.0
100
AcDbText
 73
2
  0
LWPOLYLINE
  5
190
330
17
100
AcDbEntity
  8
0
100
AcDbPolyline
 90
4
 70
1
 10
1734.0
 20
661.2000000000003
 10
1734.0
 20
420.60000000000014
 42
0.9999999999999999
 10
1794.0
 20
420.60000000000014
 10
1794.0
 20
661.2000000000003
 42
0.9999999999999999
  0
CIRCLE
  5
191
330
17
100
AcDbEntity
  8
0
100
AcDbCircle
 10
1764.0
 20
661.2000000000003
 30
0.0
 40
11.0
  0
CIRCLE
  5
192
330
17
100
AcDbEntity
  8
0
100
AcDbCircle
 10
1764.0
 20
420.60000000000014
 30
0.0
 40
11.0
  0
TEXT
  5
193
330
17
100
AcDbEntity
  8
LABEL
100
AcDbText
 10
1764.0
 20
522.1125000000002
 30
0.0
 40
11.859375
  1
LinkD
 50
90.0
 72
1
 11
1764.0
 21
522.1125000000002
 31
0.0
100
AcDbText
 73
2
  0
LWPOLYLINE
  5
194
330
17
100
AcDbEntity
  8
0
100
AcDbPolyline
 90
4
 70
1
 10
1738.8000000000002
 20
967.8000000000004
 10
1738.8000000000002
 20
727.2000000000003
 42
0.9999999999999999
 10
1798.8000000000002
 20
727.2000000000003
 10
1798.8000000000002
 20
967.8000000000004
 42
0.9999999999999999
  0
CIRCLE
  5
195
330
17
100
AcDbEntity
  8
0
100
AcDbCircle
 10
1768.8000000000002
 20
967.8000000000004
 30
0.0
 40
11.0
  0
CIRCLE
  5
196
330
17
100
AcDbEntity
  8
0
100
AcDbCircle
 10
1768.8000000000002
 20
727.2000000000003
 30
0.0
 40
11.0
  0
TEXT
  5
197
330
17
100
AcDbEntity
  8
LABEL
100
AcDbText
 10
1768.8000000000002
 20
828.7125000000003
 30
0.0
 40
11.859375
  1
LinkD
 50
90.0
 72
1
 11
1768.8000000000002
 21
828.7125000000003
 31
0.0
100
AcDbText
 73
2
  0
LWPOLYLINE
  5
198
330
17
100
AcDbEntity
  8
0
100
AcDbPolyline
 90
4
 70
1
 10
2045.4
 20
1063.8000000000004
 10
1804.8
 20
1063.8000000000004
 42
0.9999999999999999
 10
1804.8
 20
1003.8000000000004
 10
2045.4
 20
1003.8000000000004
 42
0.9999999999999999
  0
CIRCLE
  5
199
330
17
100
AcDbEntity
  8
0
100
AcDbCircle
 10
2045.4
 20
1033.8000000000004
 30
0.0
 40
11.0
  0
CIRCLE
  5
19A
330
17
100
AcDbEntity
  8
0
100
AcDbCircle
 10
1804.8
 20
1033.8000000000004
 30
0.0
 40
11.0
  0
TEXT
  5
19B
330
17
100
AcDbEntity
  8
LABEL
100
AcDbText
 10
1906.3125
 20
1033.8000000000004
 30
0.0
 40
11.859375
  1
LinkD
 72
1
 11
1906.3125
 21
1033.8000000000004
 31
0.0
100
AcDbText
 73
2
  0
LWPOLYLINE
  5
19C
330
17
100
AcDbEntity
  8
0
100
AcDbPolyline
 90
4
 70
1
 10
2352.0000000000005
 20
144.00000000000006
 10
2111.4000000000005
 20
144.0000000000001
 42
0.9999999999999999
 10
2111.4000000000005
 20
84.00000000000007
 10
2352.0000000000005
 20
84.00000000000007
 42
0.9999999999999999
  0
CIRCLE
  5
19D
330
17
100
AcDbEntity
  8
0
100
AcDbCircle
 10
2352.0000000000005
 20
114.00000000000006
 30
0.0
 40
11.0
  0
CIRCLE
  5
19E
330
17
100
AcDbEntity
  8
0
100
AcDbCircle
 10
2111.4000000000005
 20
114.00000000000007
 30
0.0
 40
11.0
  0
TEXT
  5
19F
330
17
100
AcDbEntity
  8
LABEL
100
AcDbText
 10
2212.9125000000004
 20
114.00000000000009
 30
0.0
 40
11.859375
  1
LinkD
 72
1
 11
2212.9125000000004
 21
114.00000000000009
 31
0.0
100
AcDbText
 73
2
  0
LWPOLYLINE
  5
1A0
330
17
100
AcDbEntity
  8
0
100
AcDbPolyline
 90
4
 70
1
 10
2352.0000000000005
 20
210.0000000000001
 10
2111.4000000000005
 20
210.00000000000017
 42
0.9999999999999999
 10
2111.4000000000005
 20
150.0000000000001
 10
2352.0000000000005
 20
150.0000000000001
 42
0.9999999999999999
  0
CIRCLE
  5
1A1
330
17
100
AcDbEntity
  8
0
100
AcDbCircle
 10
2352.0000000000005
 20
180.0000000000001
 30
0.0
 40
11.0
  0
CIRCLE
  5
1A2
330
17
100
AcDbEntity
  8
0
100
AcDbCircle
 10
2111.4000000000005
 20
180.0000000000001
 30
0.0
 40
11.0
  0
TEXT
  5
1A3
330
17
100
AcDbEntity
  8
LABEL
100
AcDbText
 10
2212.9125000000004
 20
180.00000000000014
 30
0.0
 40
11.859375
  1
LinkD
 72
1
 11
2212.9125000000004
 21
180.00000000000014
 31
0.0
100
AcDbText
 73
2
  0
LWPOLYLINE
  5
1A4
330
17
100
AcDbEntity
  8
0
100
AcDbPolyline
 90
4
 70
1
 10
2352.0000000000005
 20
276.00000000000017
 10
2111.4000000000005
 20
276.0000000000002
 42
0.9999999999999999
 10
2111.4000000000005
 20
216.00000000000017
 10
2352.0000000000005
 20
216.00000000000017
 42
0.9999999999999999
  0
CIRCLE
  5
1A5
330
17
100
AcDbEntity
  8
0
100
AcDbCircle
 10
2352.0000000000005
 20
246.00000000000017
 30
0.0
 40
11.0
  0
CIRCLE
  5
1A6
330
17
100
AcDbEntity
  8
0
100
AcDbCircle
 10
2111.4000000000005
 20
246.00000000000017
 30
0.0
 40
11.0
  0
TEXT
  5
1A7
330
17
100
AcDbEntity
  8
LABEL
100
AcDbText
 10
2212.9125000000004
 20
246.0000000000002
 30
0.0
 40
11.859375
  1
LinkD
 72
1
 11
2212.9125000000004
 21
246.0000000000002
 31
0.0
100
AcDbText
 73
2
  0
LWPOLYLINE
  5
1A8
330
17
100
AcDbEntity
  8
0
100
AcDbPolyline
 90
4
 70
1
 10
2352.0000000000005
 20
342.0000000000002
 10
2111.4000000000005
 20
342.0000000000003
 42
0.9999999999999999
 10
2111.4000000000005
 20
282.0000000000002
 10
2352.0000000000005
 20
282.0000000000002
 42
0.9999999999999999
  0
CIRCLE
  5
1A9
330
17
100
AcDbEntity
  8
0
100
AcDbCircle
 10
2352.0000000000005
 20
312.0000000000002
 30
0.0
 40
11.0
  0
CIRCLE
  5
1AA
330
17
100
AcDbEntity
  8
0
100
AcDbCircle
 10
2111.4000000000005
 20
312.0000000000002
 30
0.0
 40
11.0
  0
TEXT
  5
1AB
330
17
100
AcDbEntity
  8
LABEL
100
AcDbText
 10
2212.9125000000004
 20
312.0000000000002
 30
0.0
 40
11.859375
  1
LinkD
 72
1
 11
2212.9125000000004
 21
312.0000000000002
 31
0.0
100
AcDbText
 73
2
  0
LWPOLYLINE
  5
1AC
330
17
100
AcDbEntity
  8
0
100
AcDbPolyline
 90
4
 70
1
 10
2352.0000000000005
 20
408.0000000000003
 10
2111.4000000000005
 20
408.00000000000034
 42
0.9999999999999999
 10
2111.4000000000005
 20
348.0000000000003
 10
2352.0000000000005
 20
348.0000000000003
 42
0.9999999999999999
  0
CIRCLE
  5
1AD
330
17
100
AcDbEntity
  8
0
100
AcDbCircle
 10
2352.0000000000005
 20
378.0000000000002
 30
0.0
 40
11.0
  0
CIRCLE
  5
1AE
330
17
100
AcDbEntity
  8
0
100
AcDbCircle
 10
2111.4000000000005
 20
378.0000000000003
 30
0.0
 40
11.0
  0
TEXT
  5
1AF
330
17
100
AcDbEntity
  8
LABEL
100
AcDbText
 10
2212.9125000000004
 20
378.0000000000003
 30
0.0
 40
11.859375
  1
LinkD
 72
1
 11
2212.9125000000004
 21
378.0000000000003
 31
0.0
100
AcDbText
 73
2
  0
LWPOLYLINE
  5
1B0
330
17
100
AcDbEntity
  8
0
100
AcDbPolyline
 90
4
 70
1
 10
2352.0000000000005
 20
474.0000000000004
 10
2111.4000000000005
 20
474.00000000000045
 42
0.9999999999999999
 10
2111.4000000000005
 20
414.0000000000004
 10
2352.0000000000005
 20
414.0000000000004
 42
0.9999999999999999
  0
CIRCLE
  5
1B1
330
17
100
AcDbEntity
  8
0
100
AcDbCircle
 10
2352.0000000000005
 20
444.00000000000034
 30
0.0
 40
11.0
  0
CIRCLE
  5
1B2
330
17
100
AcDbEntity
  8
0
100
AcDbCircle
 10
2111.4000000000005
 20
444.0000000000004
 30
0.0
 40
11.0
  0
TEXT
  5
1B3
330
17
100
AcDbEntity
  8
LABEL
100
AcDbText
 10
2212.9125000000004
 20
444.0000000000004
 30
0.0
 40
11.859375
  1
LinkD
 72
1
 11
2212.9125000000004
 21
444.0000000000004
 31
0.0
100
AcDbText
 73
2
  0
LWPOLYLINE
  5
1B4
330
17
100
AcDbEntity
  8
0
100
AcDbPolyline
 90
4
 70
1
 10
2352.0000000000005
 20
540.0000000000003
 10
2111.4000000000005
 20
540.0000000000005
 42
0.9999999999999999
 10
2111.4000000000005
 20
480.0000000000004
 10
2352.0000000000005
 20
480.0000000000004
 42
0.9999999999999999
  0
CIRCLE
  5
1B5
330
17
100
AcDbEntity
  8
0
100
AcDbCircle
 10
2352.0000000000005
 20
510.00000000000034
 30
0.0
 40
11.0
  0
CIRCLE
  5
1B6
330
17
100
AcDbEntity
  8
0
100
AcDbCircle
 10
2111.4000000000005
 20
510.0000000000004
 30
0.0
 40
11.0
  0
TEXT
  5
1B7
330
17
100
AcDbEntity
  8
LABEL
100
AcDbText
 10
2212.9125000000004
 20
510.0000000000004
 30
0.0
 40
11.859375
  1
LinkD
 72
1
 11
2212.9125000000004
 21
510.0000000000004
 31
0.0
100
AcDbText
 73
2
  0
LWPOLYLINE
  5
1B8
330
17
100
AcDbEntity
  8
0
100
AcDbPolyline
 90
4
 70
1
 10
2352.0000000000005
 20
606.0000000000005
 10
2111.4000000000005
 20
606.0000000000006
 42
0.9999999999999999
 10
2111.4000000000005
 20
546.0000000000005
 10
2352.0000000000005
 20
546.0000000000005
 42
0.9999999999999999
  0
CIRCLE
  5
1B9
330
17
100
AcDbEntity
  8
0
100
AcDbCircle
 10
2352.0000000000005
 20
576.0000000000005
 30
0.0
 40
11.0
  0
CIRCLE
  5
1BA
330
17
100
AcDbEntity
  8
0
100
AcDbCircle
 10
2111.4000000000005
 20
576.0000000000005
 30
0.0
 40
11.0
  0
TEXT
  5
1BB
330
17
100
AcDbEntity
  8
LABEL
100
AcDbText
 10
2212.9125000000004
 20
576.0000000000005
 30
0.0
 40
11.859375
  1
LinkD
 72
1
 11
2212.9125000000004
 21
576.0000000000005
 31
0.0
100
AcDbText
 73
2
  0
LWPOLYLINE
  5
1BC
330
17
100
AcDbEntity
  8
0
100
AcDbPolyline
 90
4
 70
1
 10
2070.6
 20
672.0000000000005
 10
1829.9999999999998
 20
672.0000000000006
 42
0.9999999999999999
 10
1829.9999999999998
 20
612.0000000000005
 10
2070.6
 20
612.0000000000005
 42
0.9999999999999999
  0
CIRCLE
  5
1BD
330
17
100
AcDbEntity
  8
0
100
AcDbCircle
 10
2070.6
 20
642.0000000000005
 30
0.0
 40
11.0
  0
CIRCLE
  5
1BE
330
17
100
AcDbEntity
  8
0
100
AcDbCircle
 10
1829.9999999999998
 20
642.0000000000005
 30
0.0
 40
11.0
  0
TEXT
  5
1BF
330
17
100
AcDbEntity
  8
LABEL
100
AcDbText
 10
1931.5124999999998
 20
642.0000000000005
 30
0.0
 40
11.859375
  1
LinkD
 72
1
 11
1931.5124999999998
 21
642.0000000000005
 31
0.0
100
AcDbText
 73
2
  0
LWPOLYLINE
  5
1C0
330
17
100
AcDbEntity
  8
0
100
AcDbPolyline
 90
4
 70
1
 10
2377.2000000000003
 20
672.0000000000005
 10
2136.6000000000004
 20
672.0000000000006
 42
0.9999999999999999
 10
2136.6000000000004
 20
612.0000000000005
 10
2377.2000000000003
 20
612.0000000000005
 42
0.9999999999999999
  0
CIRCLE
  5
1C1
330
17
100
AcDbEntity
  8
0
100
AcDbCircle
 10
2377.2000000000003
 20
642.0000000000005
 30
0.0
 40
11.0
  0
CIRCLE
  5
1C2
330
17
100
AcDbEntity
  8
0
100
AcDbCircle
 10
2136.6000000000004
 20
642.0000000000005
 30
0.0
 40
11.0
  0
TEXT
  5
1C3
330
17
100
AcDbEntity
  8
LABEL
100
AcDbText
 10
2238.1125
 20
642.0000000000005
 30
0.0
 40
11.859375
  1
LinkD
 72
1
 11
2238.1125
 21
642.0000000000005
 31
0.0
100
AcDbText
 73
2
  0
LWPOLYLINE
  5
1C4
330
17
100
AcDbEntity
  8
0
100
AcDbPolyline
 90
4
 70
1
 10
1804.8000000000002
 20
948.6000000000006
 10
1804.8000000000002
 20
708.0000000000005
 42
0.9999999999999999
 10
1864.8000000000002
 20
708.0000000000005
 10
1864.8000000000002
 20
948.6000000000006
 42
0.9999999999999999
  0
CIRCLE
  5
1C5
330
17
100
AcDbEntity
  8
0
100
AcDbCircle
 10
1834.8000000000002
 20
948.6000000000006
 30
0.0
 40
11.0
  0
CIRCLE
  5
1C6
330
17
100
AcDbEntity
  8
0
100
AcDbCircle
 10
1834.8000000000002
 20
708.0000000000005
 30
0.0
 40
11.0
  0
TEXT
  5
1C7
330
17
100
AcDbEntity
  8
LABEL
100
AcDbText
 10
1834.8000000000002
 20
809.5125000000005
 30
0.0
 40
11.859375
  1
LinkD
 50
90.0
 72
1
 11
1834.8000000000002
 21
809.5125000000005
 31
0.0
100
AcDbText
 73
2
  0
LWPOLYLINE
  5
1C8
330
17
100
AcDbEntity
  8
0
100
AcDbPolyline
 90
4
 70
1
 10
1870.8000000000002
 20
948.6000000000006
 10
1870.8000000000002
 20
708.0000000000005
 42
0.9999999999999999
 10
1930.8000000000002
 20
708.0000000000005
 10
1930.8000000000002
 20
948.6000000000006
 42
0.9999999999999999
  0
CIRCLE
  5
1C9
330
17
100
AcDbEntity
  8
0
100
AcDbCircle
 10
1900.8000000000002
 20
948.6000000000006
 30
0.0
 40
11.0
  0
CIRCLE
  5
1CA
330
17
100
AcDbEntity
  8
0
100
AcDbCircle
 10
1900.8000000000002
 20
708.0000000000005
 30
0.0
 40
11.0
  0
TEXT
  5
1CB
330
17
100
AcDbEntity
  8
LABEL
100
AcDbText
 10
1900.8000000000002
 20
809.5125000000005
 30
0.0
 40
11.859375
  1
LinkD
 50
90.0
 72
1
 11
1900.8000000000002
 21
809.5125000000005
 31
0.0
100
AcDbText
 73
2
  0
LWPOLYLINE
  5
1CC
330
17
100
AcDbEntity
  8
0
100
AcDbPolyline
 90
4
 70
1
 10
1936.8000000000002
 20
948.6000000000006
 10
1936.8000000000002
 20
708.0000000000005
 42
0.9999999999999999
 10
1996.8000000000002
 20
708.0000000000005
 10
1996.8000000000002
 20
948.6000000000006
 42
0.9999999999999999
  0
CIRCLE
  5
1CD
330
17
100
AcDbEntity
  8
0
100
AcDbCircle
 10
1966.8000000000002
 20
948.6000000000006
 30
0.0
 40
11.0
  0
CIRCLE
  5
1CE
330
17
100
AcDbEntity
  8
0
100
AcDbCircle
 10
1966.8000000000002
 20
708.0000000000005
 30
0.0
 40
11.0
  0
TEXT
  5
1CF
330
17
100
AcDbEntity
  8
LABEL
100
AcDbText
 10
1966.8000000000002
 20
809.5125000000005
 30
0.0
 40
11.859375
  1
LinkD
 50
90.0
 72
1
 11
1966.8000000000002
 21
809.5125000000005
 31
0.0
100
AcDbText
 73
2
  0
LWPOLYLINE
  5
1D0
330
17
100
AcDbEntity
  8
0
100
AcDbPolyline
 90
4
 70
1
 10
2002.8000000000002
 20
948.6000000000006
 10
2002.8000000000002
 20
708.0000000000005
 42
0.9999999999999999
 10
2062.8
 20
708.0000000000005
 10
2062.8
 20
948.6000000000006
 42
0.9999999999999999
  0
CIRCLE
  5
1D1
330
17
100
AcDbEntity
  8
0
100
AcDbCircle
 10
2032.8000000000002
 20
948.6000000000006
 30
0.0
 40
11.0
  0
CIRCLE
  5
1D2
330
17
100
AcDbEntity
  8
0
100
AcDbCircle
 10
2032.8000000000002
 20
708.0000000000005
 30
0.0
 40
11.0
  0
TEXT
  5
1D3
330
17
100
AcDbEntity
  8
LABEL
100
AcDbText
 10
2032.8000000000002
 20
809.5125000000005
 30
0.0
 40
11.859375
  1
LinkD
 50
90.0
 72
1
 11
2032.8000000000002
 21
809.5125000000005
 31
0.0
100
AcDbText
 73
2
  0
LWPOLYLINE
  5
1D4
330
17
100
AcDbEntity
  8
0
100
AcDbPolyline
 90
4
 70
1
 10
2068.8
 20
948.6000000000006
 10
2068.8
 20
708.0000000000005
 42
0.9999999999999999
 10
2128.8
 20
708.0000000000005
 10
2128.8
 20
948.6000000000006
 42
0.9999999999999999
  0
CIRCLE
  5
1D5
330
17
100
AcDbEntity
  8
0
100
AcDbCircle
 10
2098.8
 20
948.6000000000006
 30
0.0
 40
11.0
  0
CIRCLE
  5
1D6
330
17
100
AcDbEntity
  8
0
100
AcDbCircle
 10
2098.8
 20
708.0000000000005
 30
0.0
 40
11.0
  0
TEXT
  5
1D7
330
17
100
AcDbEntity
  8
LABEL
100
AcDbText
 10
2098.8
 20
809.5125000000005
 30
0.0
 40
11.859375
  1
LinkD
 50
90.0
 72
1
 11
2098.8
 21
809.5125000000005
 31
0.0
100
AcDbText
 73
2
  0
LWPOLYLINE
  5
1D8
330
17
100
AcDbEntity
  8
0
100
AcDbPolyline
 90
4
 70
1
 10
2352.0000000000005
 20
1044.6000000000006
 10
2111.4000000000005
 20
1044.6000000000006
 42
0.9999999999999999
 10
2111.4000000000005
 20
984.6000000000006
 10
2352.0000000000005
 20
984.6000000000006
 42
0.9999999999999999
  0
CIRCLE
  5
1D9
330
17
100
AcDbEntity
  8
0
100
AcDbCircle
 10
2352.0000000000005
 20
1014.6000000000006
 30
0.0
 40
11.0
  0
CIRCLE
  5
1DA
330
17
100
AcDbEntity
  8
0
100
AcDbCircle
 10
2111.4000000000005
 20
1014.6000000000006
 30
0.0
 40
11.0
  0
TEXT
  5
1DB
330
17
100
AcDbEntity
  8
LABEL
100
AcDbText
 10
2212.9125000000004
 20
1014.6000000000006
 30
0.0
 40
11.859375
  1
LinkD
 72
1
 11
2212.9125000000004
 21
1014.6000000000006
 31
0.0
100
AcDbText
 73
2
  0
LWPOLYLINE
  5
1DC
330
17
100
AcDbEntity
  8
0
100
AcDbPolyline
 90
4
 70
1
 10
2134.8
 20
948.6000000000006
 10
2134.8
 20
708.0000000000005
 42
0.9999999999999999
 10
2194.8
 20
708.0000000000005
 10
2194.8
 20
948.6000000000006
 42
0.9999999999999999
  0
CIRCLE
  5
1DD
330
17
100
AcDbEntity
  8
0
100
AcDbCircle
 10
2164.8
 20
948.6000000000006
 30
0.0
 40
11.0
  0
CIRCLE
  5
1DE
330
17
100
AcDbEntity
  8
0
100
AcDbCircle
 10
2164.8
 20
708.0000000000005
 30
0.0
 40
11.0
  0
TEXT
  5
1DF
330
17
100
AcDbEntity
  8
LABEL
100
AcDbText
 10
2164.8
 20
809.5125000000005
 30
0.0
 40
11.859375
  1
LinkD
 50
90.0
 72
1
 11
2164.8
 21
809.5125000000005
 31
0.0
100
AcDbText
 73
2
  0
LWPOLYLINE
  5
1E0
330
17
100
AcDbEntity
  8
0
100
AcDbPolyline
 90
4
 70
1
 10
2200.8
 20
948.6000000000006
 10
2200.8
 20
708.0000000000005
 42
0.9999999999999999
 10
2260.8
 20
708.0000000000005
 10
2260.8
 20
948.6000000000006
 42
0.9999999999999999
  0
CIRCLE
  5
1E1
330
17
100
AcDbEntity
  8
0
100
AcDbCircle
 10
2230.8
 20
948.6000000000006
 30
0.0
 40
11.0
  0
CIRCLE
  5
1E2
330
17
100
AcDbEntity
  8
0
100
AcDbCircle
 10
2230.8
 20
708.0000000000005
 30
0.0
 40
11.0
  0
TEXT
  5
1E3
330
17
100
AcDbEntity
  8
LABEL
100
AcDbText
 10
2230.8
 20
809.5125000000005
 30
0.0
 40
11.859375
  1
LinkD
 50
90.0
 72
1
 11
2230.8
 21
809.5125000000005
 31
0.0
100
AcDbText
 73
2
  0
LWPOLYLINE
  5
1E4
330
17
100
AcDbEntity
  8
0
100
AcDbPolyline
 90
4
 70
1
 10
2266.8
 20
948.6000000000006
 10
2266.8
 20
708.0000000000005
 42
0.9999999999999999
 10
2326.8
 20
708.0000000000005
 10
2326.8
 20
948.6000000000006
 42
0.9999999999999999
  0
CIRCLE
  5
1E5
330
17
100
AcDbEntity
  8
0
100
AcDbCircle
 10
2296.8
 20
948.6000000000006
 30
0.0
 40
11.0
  0
CIRCLE
  5
1E6
330
17
100
AcDbEntity
  8
0
100
AcDbCircle
 10
2296.8
 20
708.0000000000005
 30
0.0
 40
11.0
  0
TEXT
  5
1E7
330
17
100
AcDbEntity
  8
LABEL
100
AcDbText
 10
2296.8
 20
809.5125000000005
 30
0.0
 40
11.859375
  1
LinkD
 50
90.0
 72
1
 11
2296.8
 21
809.5125000000005
 31
0.0
100
AcDbText
 73
2
  0
LWPOLYLINE
  5
1E8
330
17
100
AcDbEntity
  8
0
100
AcDbPolyline
 90
4
 70
1
 10
2332.8
 20
948.6000000000006
 10
2332.8
 20
708.0000000000005
 42
0.9999999999999999
 10
2392.8
 20
708.0000000000005
 10
2392.8
 20
948.6000000000006
 42
0.9999999999999999
  0
CIRCLE
  5
1E9
330
17
100
AcDbEntity
  8
0
100
AcDbCircle
 10
2362.8
 20
948.6000000000006
 30
0.0
 40
11.0
  0
CIRCLE
  5
1EA
330
17
100
AcDbEntity
  8
0
100
AcDbCircle
 10
2362.8
 20
708.0000000000005
 30
0.0
 40
11.0
  0
TEXT
  5
1EB
330
17
100
AcDbEntity
  8
LABEL
100
AcDbText
 10
2362.8
 20
809.5125000000005
 30
0.0
 40
11.859375
  1
LinkD
 50
90.0
 72
1
 11
2362.8
 21
809.5125000000005
 31
0.0
100
AcDbText
 73
2
  0
LWPOLYLINE
  5
1EC
330
17
100
AcDbEntity
  8
0
100
AcDbPolyline
 90
4
 70
1
 10
2352.0000000000005
 20
1110.6000000000006
 10
2111.4000000000005
 20
1110.6000000000006
 42
0.9999999999999999
 10
2111.4000000000005
 20
1050.6000000000006
 10
2352.0000000000005
 20
1050.6000000000006
 42
0.9999999999999999
  0
CIRCLE
  5
1ED
330
17
100
AcDbEntity
  8
0
100
AcDbCircle
 10
2352.0000000000005
 20
1080.6000000000006
 30
0.0
 40
11.0
  0
CIRCLE
  5
1EE
330
17
100
AcDbEntity
  8
0
100
AcDbCircle
 10
2111.4000000000005
 20
1080.6000000000006
 30
0.0
 40
11.0
  0
TEXT
  5
1EF
330
17
100
AcDbEntity
  8
LABEL
100
AcDbText
 10
2212.9125000000004
 20
1080.6000000000006
 30
0.0
 40
11.859375
  1
LinkD
 72
1
 11
2212.9125000000004
 21
1080.6000000000006
 31
0.0
100
AcDbText
 73
2
  0
LWPOLYLINE
  5
1F0
330
17
100
AcDbEntity
  8
0
100
AcDbPolyline
 90
4
 70
1
 10
2045.4
 20
1129.8000000000004
 10
1804.8
 20
1129.8000000000004
 42
0.9999999999999999
 10
1804.8
 20
1069.8000000000004
 10
2045.4
 20
1069.8000000000004
 42
0.9999999999999999
  0
CIRCLE
  5
1F1
330
17
100
AcDbEntity
  8
0
100
AcDbCircle
 10
2045.4
 20
1099.8000000000004
 30
0.0
 40
11.0
  0
CIRCLE
  5
1F2
330
17
100
AcDbEntity
  8
0
100
AcDbCircle
 10
1804.8
 20
1099.8000000000004
 30
0.0
 40
11.0
  0
TEXT
  5
1F3
330
17
100
AcDbEntity
  8
LABEL
100
AcDbText
 10
1906.3125
 20
1099.8000000000004
 30
0.0
 40
11.859375
  1
LinkD
 72
1
 11
1906.3125
 21
1099.8000000000004
 31
0.0
100
AcDbText
 73
2
  0
LWPOLYLINE
  5
1F4
330
17
100
AcDbEntity
  8
0
100
AcDbPolyline
 90
4
 70
1
 10
2045.4
 20
1195.8000000000004
 10
1804.8
 20
1195.8000000000004
 42
0.9999999999999999
 10
1804.8
 20
1135.8000000000004
 10
2045.4
 20
1135.8000000000004
 42
0.9999999999999999
  0
CIRCLE
  5
1F5
330
17
100
AcDbEntity
  8
0
100
AcDbCircle
 10
2045.4
 20
1165.8000000000004
 30
0.0
 40
11.0
  0
CIRCLE
  5
1F6
330
17
100
AcDbEntity
  8
0
100
AcDbCircle
 10
1804.8
 20
1165.8000000000004
 30
0.0
 40
11.0
  0
TEXT
  5
1F7
330
17
100
AcDbEntity
  8
LABEL
100
AcDbText
 10
1906.3125
 20
1165.8000000000004
 30
0.0
 40
11.859375
  1
LinkD
 72
1
 11
1906.3125
 21
1165.8000000000004
 31
0.0
100
AcDbText
 73
2
  0
LWPOLYLINE
  5
1F8
330
17
100
AcDbEntity
  8
0
100
AcDbPolyline
 90
4
 70
1
 10
2352.0000000000005
 20
1176.6000000000006
 10
2111.4000000000005
 20
1176.6000000000006
 42
0.9999999999999999
 10
2111.4000000000005
 20
1116.6000000000006
 10
2352.0000000000005
 20
1116.6000000000006
 42
0.9999999999999999
  0
CIRCLE
  5
1F9
330
17
100
AcDbEntity
  8
0
100
AcDbCircle
 10
2352.0000000000005
 20
1146.6000000000006
 30
0.0
 40
11.0
  0
CIRCLE
  5
1FA
330
17
100
AcDbEntity
  8
0
100
AcDbCircle
 10
2111.4000000000005
 20
1146.6000000000006
 30
0.0
 40
11.0
  0
TEXT
  5
1FB
330
17
100
AcDbEntity
  8
LABEL
100
AcDbText
 10
2212.9125000000004
 20
1146.6000000000006
 30
0.0
 40
11.859375
  1
LinkD
 72
1
 11
2212.9125000000004
 21
1146.6000000000006
 31
0.0
100
AcDbText
 73
2
  0
LWPOLYLINE
  5
1FC
330
17
100
AcDbEntity
  8
0
100
AcDbPolyline
 90
4
 70
1
 10
1800.0
 20
354.60000000000014
 10
1800.0
 20
114.0
 42
0.9999999999999999
 10
1860.0
 20
114.0
 10
1860.0
 20
354.60000000000014
 42
0.9999999999999999
  0
CIRCLE
  5
1FD
330
17
100
AcDbEntity
  8
0
100
AcDbCircle
 10
1830.0
 20
354.60000000000014
 30
0.0
 40
11.0
  0
CIRCLE
  5
1FE
330
17
100
AcDbEntity
  8
0
100
AcDbCircle
 10
1830.0
 20
114.0
 30
0.0
 40
11.0
  0
TEXT
  5
1FF
330
17
100
AcDbEntity
  8
LABEL
100
AcDbText
 10
1830.0
 20
215.51250000000005
 30
0.0
 40
11.859375
  1
LinkD
 50
90.0
 72
1
 11
1830.0
 21
215.51250000000005
 31
0.0
100
AcDbText
 73
2
  0
LWPOLYLINE
  5
200
330
17
100
AcDbEntity
  8
0
100
AcDbPolyline
 90
4
 70
1
 10
1866.0
 20
354.60000000000014
 10
1866.0
 20
114.0
 42
0.9999999999999999
 10
1926.0
 20
114.0
 10
1926.0
 20
354.60000000000014
 42
0.9999999999999999
  0
CIRCLE
  5
201
330
17
100
AcDbEntity
  8
0
100
AcDbCircle
 10
1896.0
 20
354.60000000000014
 30
0.0
 40
11.0
  0
CIRCLE
  5
202
330
17
100
AcDbEntity
  8
0
100
AcDbCircle
 10
1896.0
 20
114.0
 30
0.0
 40
11.0
  0
TEXT
  5
203
330
17
100
AcDbEntity
  8
LABEL
100
AcDbText
 10
1896.0
 20
215.51250000000005
 30
0.0
 40
11.859375
  1
LinkD
 50
90.0
 72
1
 11
1896.0
 21
215.51250000000005
 31
0.0
100
AcDbText
 73
2
  0
LWPOLYLINE
  5
204
330
17
100
AcDbEntity
  8
0
100
AcDbPolyline
 90
4
 70
1
 10
1932.0
 20
354.60000000000014
 10
1932.0
 20
114.0
 42
0.9999999999999999
 10
1992.0
 20
114.0
 10
1992.0
 20
354.60000000000014
 42
0.9999999999999999
  0
CIRCLE
  5
205
330
17
100
AcDbEntity
  8
0
100
AcDbCircle
 10
1962.0
 20
354.60000000000014
 30
0.0
 40
11.0
  0
CIRCLE
  5
206
330
17
100
AcDbEntity
  8
0
100
AcDbCircle
 10
1962.0
 20
114.0
 30
0.0
 40
11.0
  0
TEXT
  5
207
330
17
100
AcDbEntity
  8
LABEL
100
AcDbText
 10
1962.0
 20
215.51250000000005
 30
0.0
 40
11.859375
  1
LinkD
 50
90.0
 72
1
 11
1962.0
 21
215.51250000000005
 31
0.0
100
AcDbText
 73
2
  0
LWPOLYLINE
  5
208
330
17
100
AcDbEntity
  8
0
100
AcDbPolyline
 90
4
 70
1
 10
1998.0
 20
354.60000000000014
 10
1998.0
 20
114.0
 42
0.9999999999999999
 10
2058.0
 20
114.0
 10
2058.0
 20
354.60000000000014
 42
0.9999999999999999
  0
CIRCLE
  5
209
330
17
100
AcDbEntity
  8
0
100
AcDbCircle
 10
2028.0
 20
354.60000000000014
 30
0.0
 40
11.0
  0
CIRCLE
  5
20A
330
17
100
AcDbEntity
  8
0
100
AcDbCircle
 10
2028.0
 20
114.0
 30
0.0
 40
11.0
  0
TEXT
  5
20B
330
17
100
AcDbEntity
  8
LABEL
100
AcDbText
 10
2028.0
 20
215.51250000000005
 30
0.0
 40
11.859375
  1
LinkD
 50
90.0
 72
1
 11
2028.0
 21
215.51250000000005
 31
0.0
100
AcDbText
 73
2
  0
CIRCLE
  5
20C
330
17
100
AcDbEntity
  8
0
100
AcDbCircle
 10
42.00000367427492
 20
1173.60004626835
 30
0.0
 40
11.0
  0
LWPOLYLINE
  5
20D
330
17
100
AcDbEntity
  8
0
100
AcDbPolyline
 90
4
 70
1
 10
42.00000367427447
 20
1197.6000462683503
 42
1.0157787888818275
 10
42.75131891378942
 20
1149.6118090381806
 10
279.1252354466046
 20
1149.6118090381806
 42
0.9809821123639358
 10
278.5962532441049
 20
1197.6000466259775
  0
CIRCLE
  5
20E
330
17
100
AcDbEntity
  8
0
100
AcDbCircle
 10
278.400044980292
 20
1173.6000350924794
 30
0.0
 40
11.0
  0
TEXT
  5
20F
330
17
100
AcDbEntity
  8
LABEL
100
AcDbText
 10
231.30002471240323
 20
1173.600023312989
 30
0.0
 40
11.859375
  1
LinkF
 72
1
 11
231.30002471240323
 21
1173.600023312989
 31
0.0
100
AcDbText
 73
2
  0
CIRCLE
  5
210
330
17
100
AcDbEntity
  8
0
100
AcDbCircle
 10
2039.958
 20
414.6000000000002
 30
0.0
 40
4.0
  0
CIRCLE
  5
211
330
17
100
AcDbEntity
  8
0
100
AcDbCircle
 10
1824.0
 20
414.6000000000002
 30
0.0
 40
11.0
  0
LWPOLYLINE
  5
212
330
17
100
AcDbEntity
  8
0
100
AcDbPolyline
 90
4
 70
1
 10
1824.0
 20
438.6000000000002
 42
0.9999999999999999
 10
1824.0
 20
390.6000000000002
 10
2039.9754276326746
 20
390.6000063275506
 42
0.9992741120950986
 10
2039.9754276326746
 20
438.5999936724497
  0
TEXT
  5
213
330
17
100
AcDbEntity
  8
LABEL
100
AcDbText
 10
1865.9895
 20
414.6000000000002
 30
0.0
 40
11.859375
  1
spacer
 72
1
 11
1865.9895
 21
414.6000000000002
 31
0.0
100
AcDbText
 73
2
  0
CIRCLE
  5
214
330
17
100
AcDbEntity
  8
0
100
AcDbCircle
 10
2039.958
 20
468.6000000000002
 30
0.0
 40
4.0
  0
CIRCLE
  5
215
330
17
100
AcDbEntity
  8
0
100
AcDbCircle
 10
1824.0
 20
468.6000000000002
 30
0.0
 40
11.0
  0
LWPOLYLINE
  5
216
330
17
100
AcDbEntity
  8
0
100
AcDbPolyline
 90
4
 70
1
 10
1824.0
 20
492.6000000000002
 42
0.9999999999999999
 10
1824.0
 20
444.6000000000002
 10
2039.9754276326746
 20
444.6000063275506
 42
0.9992741120950986
 10
2039.9754276326746
 20
492.5999936724497
  0
TEXT
  5
217
330
17
100
AcDbEntity
  8
LABEL
100
AcDbText
 10
1865.9895
 20
468.6000000000002
 30
0.0
 40
11.859375
  1
spacer
 72
1
 11
1865.9895
 21
468.6000000000002
 31
0.0
100
AcDbText
 73
2
  0
CIRCLE
  5
218
330
17
100
AcDbEntity
  8
0
100
AcDbCircle
 10
2039.958
 20
522.6000000000001
 30
0.0
 40
4.0
  0
CIRCLE
  5
219
330
17
100
AcDbEntity
  8
0
100
AcDbCircle
 10
1824.0
 20
522.6000000000001
 30
0.0
 40
11.0
  0
LWPOLYLINE
  5
21A
330
17
100
AcDbEntity
  8
0
100
AcDbPolyline
 90
4
 70
1
 10
1824.0
 20
546.6000000000001
 42
0.9999999999999999
 10
1824.0
 20
498.60000000000014
 10
2039.9754276326746
 20
498.60000632755055
 42
0.9992741120950986
 10
2039.9754276326746
 20
546.5999936724497
  0
TEXT
  5
21B
330
17
100
AcDbEntity
  8
LABEL
100
AcDbText
 10
1865.9895
 20
522.6000000000001
 30
0.0
 40
11.859375
  1
spacer
 72
1
 11
1865.9895
 21
522.6000000000001
 31
0.0
100
AcDbText
 73
2
  0
CIRCLE
  5
21C
330
17
100
AcDbEntity
  8
0
100
AcDbCircle
 10
2039.958
 20
576.6000000000001
 30
0.0
 40
4.0
  0
CIRCLE
  5
21D
330
17
100
AcDbEntity
  8
0
100
AcDbCircle
 10
1824.0
 20
576.6000000000001
 30
0.0
 40
11.0
  0
LWPOLYLINE
  5
21E
330
17
100
AcDbEntity
  8
0
100
AcDbPolyline
 90
4
 70
1
 10
1824.0
 20
600.6000000000001
 42
0.9999999999999999
 10
1824.0
 20
552.6000000000001
 10
2039.9754276326746
 20
552.6000063275505
 42
0.9992741120950986
 10
2039.9754276326746
 20
600.5999936724497
  0
TEXT
  5
21F
330
17
100
AcDbEntity
  8
LABEL
100
AcDbText
 10
1865.9895
 20
576.6000000000001
 30
0.0
 40
11.859375
  1
spacer
 72
1
 11
1865.9895
 21
576.6000000000001
 31
0.0
100
AcDbText
 73
2
  0
ENDSEC
  0
SECTION
  2
OBJECTS
  0
DICTIONARY
  5
A
330
0
100
AcDbDictionary
281
1
  3
ACAD_COLOR
350
B
  3
ACAD_GROUP
350
C
  3
ACAD_LAYOUT
350
D
  3
ACAD_MATERIAL
350
E
  3
ACAD_MLEADERSTYLE
350
F
  3
ACAD_MLINESTYLE
350
10
  3
ACAD_PLOTSETTINGS
350
11
  3
ACAD_PLOTSTYLENAME
350
12
  3
ACAD_SCALELIST
350
14
  3
ACAD_TABLESTYLE
350
15
  3
ACAD_VISUALSTYLE
350
16
  3
EZDXF_META
350
2D
  0
DICTIONARY
  5
B
330
A
100
AcDbDictionary
281
1
  0
DICTIONARY
  5
C
330
A
100
AcDbDictionary
281
1
  0
DICTIONARY
  5
D
330
A
100
AcDbDictionary
281
1
  3
Model
350
1A
  3
Layout1
350
1E
  0
DICTIONARY
  5
E
330
A
100
AcDbDictionary
281
1
  3
ByBlock
350
1F
  3
ByLayer
350
20
  3
Global
350
21
  0
DICTIONARY
  5
F
330
A
100
AcDbDictionary
281
1
  3
Standard
350
2C
  0
DICTIONARY
  5
10
330
A
100
AcDbDictionary
281
1
  3
Standard
350
22
  0
DICTIONARY
  5
11
330
A
100
AcDbDictionary
281
1
  0
ACDBDICTIONARYWDFLT
  5
12
330
A
100
AcDbDictionary
281
1
  3
Normal
350
13
100
AcDbDictionaryWithDefault
340
13
  0
ACDBPLACEHOLDER
  5
13
330
12
  0
DICTIONARY
  5
14
330
A
100
AcDbDictionary
281
1
  0
DICTIONARY
  5
15
330
A
100
AcDbDictionary
281
1
  0
DICTIONARY
  5
16
330
A
100
AcDbDictionary
281
1
  0
LAYOUT
  5
1A
330
D
100
AcDbPlotSettings
  1

  4
A3
  6

 40
7.5
 41
20.0
 42
7.5
 43
20.0
 44
420.0
 45
297.0
 46
0.0
 47
0.0
 48
0.0
 49
0.0
140
0.0
141
0.0
142
1.0
143
1.0
 70
1024
 72
1
 73
0
 74
5
  7

 75
16
 76
0
 77
2
 78
300
147
1.0
148
0.0
149
0.0
100
AcDbLayout
  1
Model
 70
1
 71
0
 10
0.0
 20
0.0
 11
420.0
 21
297.0
 12
0.0
 22
0.0
 32
0.0
 14
1e+20
 24
1e+20
 34
1e+20
 15
-1e+20
 25
-1e+20
 35
-1e+20
146
0.0
 13
0.0
 23
0.0
 33
0.0
 16
1.0
 26
0.0
 36
0.0
 17
0.0
 27
1.0
 37
0.0
 76
1
330
17
  0
LAYOUT
  5
1E
330
D
100
AcDbPlotSettings
  1

  4
A3
  6

 40
7.5
 41
20.0
 42
7.5
 43
20.0
 44
420.0
 45
297.0
 46
0.0
 47
0.0
 48
0.0
 49
0.0
140
0.0
141
0.0
142
1.0
143
1.0
 70
0
 72
1
 73
0
 74
5
  7

 75
16
 76
0
 77
2
 78
300
147
1.0
148
0.0
149
0.0
100
AcDbLayout
  1
Layout1
 70
1
 71
1
 10
0.0
 20
0.0
 11
420.0
 21
297.0
 12
0.0
 22
0.0
 32
0.0
 14
1e+20
 24
1e+20
 34
1e+20
 15
-1e+20
 25
-1e+20
 35
-1e+20
146
0.0
 13
0.0
 23
0.0
 33
0.0
 16
1.0
 26
0.0
 36
0.0
 17
0.0
 27
1.0
 37
0.0
 76
1
330
1B
  0
MATERIAL
  5
1F
102
{ACAD_REACTORS
330
E
102
}
330
E
100
AcDbMaterial
  1
ByBlock
  2

 70
0
 40
1.0
 71
1
 41
1.0
 91
-1023410177
 42
1.0
 72
1
  3

 73
1
 74
1
 75
1
 44
0.5
 73
0
 45
1.0
 46
1.0
 77
1
  4

 78
1
 79
1
170
1
 48
1.0
171
1
  6

172
1
173
1
174
1
140
1.0
141
1.0
175
1
  7

176
1
177
1
178
1
143
1.0
179
1
  8

270
1
271
1
272
1
145
1.0
146
1.0
273
1
  9

274
1
275
1
276
1
 42
1.0
 72
1
  3

 73
1
 74
1
 75
1
 94
63
  0
MATERIAL
  5
20
102
{ACAD_REACTORS
330
E
102
}
330
E
100
AcDbMaterial
  1
ByLayer
  2

 70
0
 40
1.0
 71
1
 41
1.0
 91
-1023410177
 42
1.0
 72
1
  3

 73
1
 74
1
 75
1
 44
0.5
 73
0
 45
1.0
 46
1.0
 77
1
  4

 78
1
 79
1
170
1
 48
1.0
171
1
  6

172
1
173
1
174
1
140
1.0
141
1.0
175
1
  7

176
1
177
1
178
1
143
1.0
179
1
  8

270
1
271
1
272
1
145
1.0
146
1.0
273
1
  9

274
1
275
1
276
1
 42
1.0
 72
1
  3

 73
1
 74
1
 75
1
 94
63
  0
MATERIAL
  5
21
102
{ACAD_REACTORS
330
E
102
}
330
E
100
AcDbMaterial
  1
Global
  2

 70
0
 40
1.0
 71
1
 41
1.0
 91
-1023410177
 42
1.0
 72
1
  3

 73
1
 74
1
 75
1
 44
0.5
 73
0
 45
1.0
 46
1.0
 77
1
  4

 78
1
 79
1
170
1
 48
1.0
171
1
  6

172
1
173
1
174
1
140
1.0
141
1.0
175
1
  7

176
1
177
1
178
1
143
1.0
179
1
  8

270
1
271
1
272
1
145
1.0
146
1.0
273
1
  9

274
1
275
1
276
1
 42
1.0
 72
1
  3

 73
1
 74
1
 75
1
 94
63
  0
MLINESTYLE
  5
22
102
{ACAD_REACTORS
330
10
102
}
330
10
100
AcDbMlineStyle
  2
Standard
 70
0
  3

 62
256
 51
90.0
 52
90.0
 71
2
 49
0.5
 62
256
  6
BYLAYER
 49
-0.5
 62
256
  6
BYLAYER
  0
MLEADERSTYLE
  5
2C
102
{ACAD_REACTORS
330
F
102
}
330
F
100
AcDbMLeaderStyle
179
2
170
2
171
1
172
0
 90
2
 40
0.0
 41
0.0
173
1
 91
-1056964608
 92
-2
290
1
 42
2.0
291
1
 43
8.0
  3
Standard
 44
4.0
300

342
29
174
1
175
1
176
0
178
1
 93
-1056964608
 45
4.0
292
0
297
0
 46
4.0
 94
-1056964608
 47
1.0
 49
1.0
140
1.0
294
1
141
0.0
177
0
142
1.0
295
0
296
0
143
3.75
271
0
272
9
273
9
  0
DICTIONARY
  5
2D
330
A
100
AcDbDictionary
280
1
281
1
  3
CREATED_BY_EZDXF
350
2E
  3
WRITTEN_BY_EZDXF
350
222
  0
DICTIONARYVAR
  5
2E
330
2D
100
DictionaryVariables
280
0
  1
1.4.4 @ 2026-08-07T12:27:22.519455+00:00
  0
DICTIONARYVAR
  5
222
330
2D
100
DictionaryVariables
280
0
  1
1.4.4 @ 2026-08-07T12:27:24.406325+00:00
  0
ENDSEC
  0
EOF
