  0
SECTION
  2
HEADER
  9
$ACADVER
  1
AC1027
  9
$ACADMAINTVER
 70
105
  9
$DWGCODEPAGE
  3
ANSI_1252
  9
$LASTSAVEDBY
  1
ezdxf
  9
$REQUIREDVERSIONS
160
0
  9
$INSBASE
 10
0.0
 20
0.0
 30
0.0
  9
$EXTMIN
 10
1e+20
 20
1e+20
 30
1e+20
  9
$EXTMAX
 10
-1e+20
 20
-1e+20
 30
-1e+20
  9
$LIMMIN
 10
0.0
 20
0.0
  9
$LIMMAX
 10
420.0
 20
297.0
  9
$ORTHOMODE
 70
0
  9
$REGENMODE
 70
1
  9
$FILLMODE
 70
1
  9
$QTEXTMODE
 70
0
  9
$MIRRTEXT
 70
1
  9
$LTSCALE
 40
1.0
  9
$ATTMODE
 70
1
  9
$TEXTSIZE
 40
2.5
  9
$TRACEWID
 40
1.0
  9
$TEXTSTYLE
  7
Standard
  9
$CLAYER
  8
0
  9
$CELTYPE
  6
ByLayer
  9
$CECOLOR
 62
256
  9
$CELTSCALE
 40
1.0
  9
$DISPSILH
 70
0
  9
$DIMSCALE
 40
1.0
  9
$DIMASZ
 40
2.5
  9
$DIMEXO
 40
0.625
  9
$DIMDLI
 40
3.75
  9
$DIMRND
 40
0.0
  9
$DIMDLE
 40
0.0
  9
$DIMEXE
 40
1.25
  9
$DIMTP
 40
0.0
  9
$DIMTM
 40
0.0
  9
$DIMTXT
 40
2.5
  9
$DIMCEN
 40
2.5
  9
$DIMTSZ
 40
0.0
  9
$DIMTOL
 70
0
  9
$DIMLIM
 70
0
  9
$DIMTIH
 70
0
  9
$DIMTOH
 70
0
  9
$DIMSE1
 70
0
  9
$DIMSE2
 70
0
  9
$DIMTAD
 70
1
  9
$DIMZIN
 70
8
  9
$DIMBLK
  1

  9
$DIMASO
 70
1
  9
$DIMSHO
 70
1
  9
$DIMPOST
  1

  9
$DIMAPOST
  1

  9
$DIMALT
 70
0
  9
$DIMALTD
 70
3
  9
$DIMALTF
 40
0.03937007874
  9
$DIMLFAC
 40
1.0
  9
$DIMTOFL
 70
1
  9
$DIMTVP
 40
0.0
  9
$DIMTIX
 70
0
  9
$DIMSOXD
 70
0
  9
$DIMSAH
 70
0
  9
$DIMBLK1
  1

  9
$DIMBLK2
  1

  9
$DIMSTYLE
  2
ISO-25
  9
$DIMCLRD
 70
0
  9
$DIMCLRE
 70
0
  9
$DIMCLRT
 70
0
  9
$DIMTFAC
 40
1.0
  9
$DIMGAP
 40
0.625
  9
$DIMJUST
 70
0
  9
$DIMSD1
 70
0
  9
$DIMSD2
 70
0
  9
$DIMTOLJ
 70
0
  9
$DIMTZIN
 70
8
  9
$DIMALTZ
 70
0
  9
$DIMALTTZ
 70
0
  9
$DIMUPT
 70
0
  9
$DIMDEC
 70
2
  9
$DIMTDEC
 70
2
  9
$DIMALTU
 70
2
  9
$DIMALTTD
 70
3
  9
$DIMTXSTY
  7
Standard
  9
$DIMAUNIT
 70
0
  9
$DIMADEC
 70
0
  9
$DIMALTRND
 40
0.0
  9
$DIMAZIN
 70
0
  9
$DIMDSEP
 70
44
  9
$DIMATFIT
 70
3
  9
$DIMFRAC
 70
0
  9
$DIMLDRBLK
  1

  9
$DIMLUNIT
 70
2
  9
$DIMLWD
 70
-2
  9
$DIMLWE
 70
-2
  9
$DIMTMOVE
 70
0
  9
$DIMFXL
 40
1.0
  9
$DIMFXLON
 70
0
  9
$DIMJOGANG
 40
0.785398163397
  9
$DIMTFILL
 70
0
  9
$DIMTFILLCLR
 70
0
  9
$DIMARCSYM
 70
0
  9
$DIMLTYPE
  6

  9
$DIMLTEX1
  6

  9
$DIMLTEX2
  6

  9
$DIMTXTDIRECTION
 70
0
  9
$LUNITS
 70
2
  9
$LUPREC
 70
4
  9
$SKETCHINC
 40
1.0
  9
$FILLETRAD
 40
10.0
  9
$AUNITS
 70
0
  9
$AUPREC
 70
2
  9
$MENU
  1
.
  9
$ELEVATION
 40
0.0
  9
$PELEVATION
 40
0.0
  9
$THICKNESS
 40
0.0
  9
$LIMCHECK
 70
0
  9
$CHAMFERA
 40
0.0
  9
$CHAMFERB
 40
0.0
  9
$CHAMFERC
 40
0.0
  9
$CHAMFERD
 40
0.0
  9
$SKPOLY
 70
0
  9
$TDCREATE
 40
2461260.5397569444
  9
$TDUCREATE
 40
2458532.153996898
  9
$TDUPDATE
 40
2461260.5397569444
  9
$TDUUPDATE
 40
2458532.1544311
  9
$TDINDWG
 40
0.0
  9
$TDUSRTIMER
 40
0.0
  9
$USRTIMER
 70
1
  9
$ANGBASE
 50
0.0
  9
$ANGDIR
 70
0
  9
$PDMODE
 70
0
  9
$PDSIZE
 40
0.0
  9
$PLINEWID
 40
0.0
  9
$SPLFRAME
 70
0
  9
$SPLINETYPE
 70
6
  9
$SPLINESEGS
 70
8
  9
$HANDSEED
  5
A3
  9
$SURFTAB1
 70
6
  9
$SURFTAB2
 70
6
  9
$SURFTYPE
 70
6
  9
$SURFU
 70
6
  9
$SURFV
 70
6
  9
$UCSBASE
  2

  9
$UCSNAME
  2

  9
$UCSORG
 10
0.0
 20
0.0
 30
0.0
  9
$UCSXDIR
 10
1.0
 20
0.0
 30
0.0
  9
$UCSYDIR
 10
0.0
 20
1.0
 30
0.0
  9
$UCSORTHOREF
  2

  9
$UCSORTHOVIEW
 70
0
  9
$UCSORGTOP
 10
0.0
 20
0.0
 30
0.0
  9
$UCSORGBOTTOM
 10
0.0
 20
0.0
 30
0.0
  9
$UCSORGLEFT
 10
0.0
 20
0.0
 30
0.0
  9
$UCSORGRIGHT
 10
0.0
 20
0.0
 30
0.0
  9
$UCSORGFRONT
 10
0.0
 20
0.0
 30
0.0
  9
$UCSORGBACK
 10
0.0
 20
0.0
 30
0.0
  9
$PUCSBASE
  2

  9
$PUCSNAME
  2

  9
$PUCSORG
 10
0.0
 20
0.0
 30
0.0
  9
$PUCSXDIR
 10
1.0
 20
0.0
 30
0.0
  9
$PUCSYDIR
 10
0.0
 20
1.0
 30
0.0
  9
$PUCSORTHOREF
  2

  9
$PUCSORTHOVIEW
 70
0
  9
$PUCSORGTOP
 10
0.0
 20
0.0
 30
0.0
  9
$PUCSORGBOTTOM
 10
0.0
 20
0.0
 30
0.0
  9
$PUCSORGLEFT
 10
0.0
 20
0.0
 30
0.0
  9
$PUCSORGRIGHT
 10
0.0
 20
0.0
 30
0.0
  9
$PUCSORGFRONT
 10
0.0
 20
0.0
 30
0.0
  9
$PUCSORGBACK
 10
0.0
 20
0.0
 30
0.0
  9
$USERI1
 70
0
  9
$USERI2
 70
0
  9
$USERI3
 70
0
  9
$USERI4
 70
0
  9
$USERI5
 70
0
  9
$USERR1
 40
0.0
  9
$USERR2
 40
0.0
  9
$USERR3
 40
0.0
  9
$USERR4
 40
0.0
  9
$USERR5
 40
0.0
  9
$WORLDVIEW
 70
1
  9
$SHADEDGE
 70
3
  9
$SHADEDIF
 70
70
  9
$TILEMODE
 70
1
  9
$MAXACTVP
 70
64
  9
$PINSBASE
 10
0.0
 20
0.0
 30
0.0
  9
$PLIMCHECK
 70
0
  9
$PEXTMIN
 10
1e+20
 20
1e+20
 30
1e+20
  9
$PEXTMAX
 10
-1e+20
 20
-1e+20
 30
-1e+20
  9
$PLIMMIN
 10
0.0
 20
0.0
  9
$PLIMMAX
 10
420.0
 20
297.0
  9
$UNITMODE
 70
0
  9
$VISRETAIN
 70
1
  9
$PLINEGEN
 70
0
  9
$PSLTSCALE
 70
1
  9
$TREEDEPTH
 70
3020
  9
$CMLSTYLE
  2
Standard
  9
$CMLJUST
 70
0
  9
$CMLSCALE
 40
20.0
  9
$PROXYGRAPHICS
 70
1
  9
$MEASUREMENT
 70
1
  9
$CELWEIGHT
370
-1
  9
$ENDCAPS
280
0
  9
$JOINSTYLE
280
0
  9
$LWDISPLAY
290
0
  9
$INSUNITS
 70
4
  9
$HYPERLINKBASE
  1

  9
$STYLESHEET
  1

  9
$XEDIT
290
1
  9
$CEPSNTYPE
380
0
  9
$PSTYLEMODE
290
1
  9
$FINGERPRINTGUID
  2
{15512642-A384-4120-888D-4C6EAC455C36}
  9
$VERSIONGUID
  2
{063F84EC-4792-4A5E-92F8-B9565BB0F0EB}
  9
$EXTNAMES
290
1
  9
$PSVPSCALE
 40
0.0
  9
$OLESTARTUP
290
0
  9
$SORTENTS
280
127
  9
$INDEXCTL
280
0
  9
$HIDETEXT
280
1
  9
$XCLIPFRAME
280
1
  9
$HALOGAP
280
0
  9
$OBSCOLOR
 70
257
  9
$OBSLTYPE
280
0
  9
$INTERSECTIONDISPLAY
280
0
  9
$INTERSECTIONCOLOR
 70
257
  9
$DIMASSOC
280
2
  9
$PROJECTNAME
  1

  9
$CAMERADISPLAY
290
0
  9
$LENSLENGTH
 40
50.0
  9
$CAMERAHEIGHT
 40
0.0
  9
$STEPSPERSEC
 40
24.0
  9
$STEPSIZE
 40
100.0
  9
$3DDWFPREC
 40
2.0
  9
$PSOLWIDTH
 40
0.005
  9
$PSOLHEIGHT
 40
0.08
  9
$LOFTANG1
 40
1.570796326795
  9
$LOFTANG2
 40
1.570796326795
  9
$LOFTMAG1
 40
0.0
  9
$LOFTMAG2
 40
0.0
  9
$LOFTPARAM
 70
7
  9
$LOFTNORMALS
280
1
  9
$LATITUDE
 40
37.795
  9
$LONGITUDE
 40
-122.394
  9
$NORTHDIRECTION
 40
0.0
  9
$TIMEZONE
 70
-8000
  9
$LIGHTGLYPHDISPLAY
280
1
  9
$TILEMODELIGHTSYNCH
280
1
  9
$CMATERIAL
347
20
  9
$SOLIDHIST
280
0
  9
$SHOWHIST
280
1
  9
$DWFFRAME
280
2
  9
$DGNFRAME
280
2
  9
$REALWORLDSCALE
290
1
  9
$INTERFERECOLOR
 62
256
  9
$CSHADOW
280
0
  9
$SHADOWPLANELOCATION
 40
0.0
  0
ENDSEC
  0
SECTION
  2
CLASSES
  0
CLASS
  1
ACDBDICTIONARYWDFLT
  2
AcDbDictionaryWithDefault
  3
ObjectDBX Classes
 90
0
 91
0
280
0
281
0
  0
CLASS
  1
SUN
  2
AcDbSun
  3
SCENEOE
 90
1153
 91
0
280
0
281
0
  0
CLASS
  1
VISUALSTYLE
  2
AcDbVisualStyle
  3
ObjectDBX Classes
 90
4095
 91
0
280
0
281
0
  0
CLASS
  1
MATERIAL
  2
AcDbMaterial
  3
ObjectDBX Classes
 90
1153
 91
0
280
0
281
0
  0
CLASS
  1
SCALE
  2
AcDbScale
  3
ObjectDBX Classes
 90
1153
 91
0
280
0
281
0
  0
CLASS
  1
TABLESTYLE
  2
AcDbTableStyle
  3
ObjectDBX Classes
 90
4095
 91
0
280
0
281
0
  0
CLASS
  1
MLEADERSTYLE
  2
AcDbMLeaderStyle
  3
ACDB_MLEADERSTYLE_CLASS
 90
4095
 91
0
280
0
281
0
  0
CLASS
  1
DICTIONARYVAR
  2
AcDbDictionaryVar
  3
ObjectDBX Classes
 90
0
 91
0
280
0
281
0
  0
CLASS
  1
CELLSTYLEMAP
  2
AcDbCellStyleMap
  3
ObjectDBX Classes
 90
1152
 91
0
280
0
281
0
  0
CLASS
  1
MENTALRAYRENDERSETTINGS
  2
AcDbMentalRayRenderSettings
  3
SCENEOE
 90
1024
 91
0
280
0
281
0
  0
CLASS
  1
ACDBDETAILVIEWSTYLE
  2
AcDbDetailViewStyle
  3
ObjectDBX Classes
 90
1025
 91
0
280
0
281
0
  0
CLASS
  1
ACDBSECTIONVIEWSTYLE
  2
AcDbSectionViewStyle
  3
ObjectDBX Classes
 90
1025
 91
0
280
0
281
0
  0
CLASS
  1
RASTERVARIABLES
  2
AcDbRasterVariables
  3
ISM
 90
0
 91
0
280
0
281
0
  0
CLASS
  1
LAYOUT
  2
AcDbLayout
  3
ObjectDBX Classes
 90
0
 91
0
280
0
281
0
  0
CLASS
  1
ACDBPLACEHOLDER
  2
AcDbPlaceHolder
  3
ObjectDBX Classes
 90
0
 91
0
280
0
281
0
  0
ENDSEC
  0
SECTION
  2
TABLES
  0
TABLE
  2
VPORT
  5
8
330
0
100
AcDbSymbolTable
 70
1
  0
VPORT
  5
23
330
8
100
AcDbSymbolTableRecord
100
AcDbViewportTableRecord
  2
*Active
 70
0
 10
0.0
 20
0.0
 11
1.0
 21
1.0
 12
0.0
 22
0.0
 13
0.0
 23
0.0
 14
0.5
 24
0.5
 15
0.5
 25
0.5
 16
0.0
 26
0.0
 36
1.0
 17
0.0
 27
0.0
 37
0.0
 40
1000.0
 41
1.34
 42
50.0
 43
0.0
 44
0.0
 50
0.0
 51
0.0
 71
0
 72
1000
 73
1
 74
3
 75
0
 76
0
 77
0
 78
0
281
0
 65
0
146
0.0
  0
ENDTAB
  0
TABLE
  2
LTYPE
  5
2
330
0
100
AcDbSymbolTable
 70
3
  0
LTYPE
  5
24
330
2
100
AcDbSymbolTableRecord
100
AcDbLinetypeTableRecord
  2
ByBlock
 70
0
  3

 72
65
 73
0
 40
0.0
  0
LTYPE
  5
25
330
2
100
AcDbSymbolTableRecord
100
AcDbLinetypeTableRecord
  2
ByLayer
 70
0
  3

 72
65
 73
0
 40
0.0
  0
LTYPE
  5
26
330
2
100
AcDbSymbolTableRecord
100
AcDbLinetypeTableRecord
  2
Continuous
 70
0
  3

 72
65
 73
0
 40
0.0
  0
ENDTAB
  0
TABLE
  2
LAYER
  5
1
330
0
100
AcDbSymbolTable
 70
3
  0
LAYER
  5
27
330
1
100
AcDbSymbolTableRecord
100
AcDbLayerTableRecord
  2
0
 70
0
 62
7
  6
Continuous
370
-3
390
13
347
21
  0
LAYER
  5
28
330
1
100
AcDbSymbolTableRecord
100
AcDbLayerTableRecord
  2
Defpoints
 70
0
 62
7
  6
Continuous
290
0
370
-3
390
13
347
21
  0
LAYER
  5
2F
330
1
100
AcDbSymbolTableRecord
100
AcDbLayerTableRecord
  2
LABEL
 70
0
 62
1
  6
Continuous
370
-3
390
13
347
21
  0
ENDTAB
  0
TABLE
  2
STYLE
  5
5
330
0
100
AcDbSymbolTable
 70
1
  0
STYLE
  5
29
330
5
100
AcDbSymbolTableRecord
100
AcDbTextStyleTableRecord
  2
Standard
 70
0
 40
0.0
 41
1.0
 50
0.0
 71
0
 42
2.5
  3
txt
  4

  0
ENDTAB
  0
TABLE
  2
VIEW
  5
7
330
0
100
AcDbSymbolTable
 70
0
  0
ENDTAB
  0
TABLE
  2
UCS
  5
6
330
0
100
AcDbSymbolTable
 70
0
  0
ENDTAB
  0
TABLE
  2
APPID
  5
3
330
0
100
AcDbSymbolTable
 70
3
  0
APPID
  5
2A
330
3
100
AcDbSymbolTableRecord
100
AcDbRegAppTableRecord
  2
ACAD
 70
0
  0
APPID
  5
A0
330
3
100
AcDbSymbolTableRecord
100
AcDbRegAppTableRecord
  2
HATCHBACKGROUNDCOLOR
 70
0
  0
APPID
  5
A1
330
3
100
AcDbSymbolTableRecord
100
AcDbRegAppTableRecord
  2
EZDXF
 70
0
  0
ENDTAB
  0
TABLE
  2
DIMSTYLE
  5
4
330
0
100
AcDbSymbolTable
 70
1
100
AcDbDimStyleTable
  0
DIMSTYLE
105
2B
330
4
100
AcDbSymbolTableRecord
100
AcDbDimStyleTableRecord
  2
Standard
 70
0
 40
1.0
 41
2.5
 42
0.625
 43
3.75
 44
1.25
 45
0.0
 46
0.0
 47
0.0
 48
0.0
 49
2.5
140
2.5
141
2.5
142
0.0
143
0.03937007874
144
1.0
145
0.0
146
1.0
147
0.625
148
0.0
 69
0
 70
0
 71
0
 72
0
 73
0
 74
0
 75
0
 76
0
 77
1
 78
8
 79
3
170
0
171
3
172
1
173
0
174
0
175
0
176
0
177
0
178
0
179
2
271
2
272
2
273
2
274
3
275
0
276
0
277
2
278
44
279
0
280
0
281
0
282
0
283
0
284
8
285
0
286
0
288
0
289
3
290
0
371
-2
372
-2
  0
ENDTAB
  0
TABLE
  2
BLOCK_RECORD
  5
9
330
0
100
AcDbSymbolTable
 70
2
  0
BLOCK_RECORD
  5
17
330
9
100
AcDbSymbolTableRecord
100
AcDbBlockTableRecord
  2
*Model_Space
340
1A
 70
0
280
1
281
0
  0
BLOCK_RECORD
  5
1B
330
9
100
AcDbSymbolTableRecord
100
AcDbBlockTableRecord
  2
*Paper_Space
340
1E
 70
0
280
1
281
0
  0
ENDTAB
  0
ENDSEC
  0
SECTION
  2
BLOCKS
  0
BLOCK
  5
18
330
17
100
AcDbEntity
  8
0
100
AcDbBlockBegin
  2
*Model_Space
 70
0
 10
0.0
 20
0.0
 30
0.0
  3
*Model_Space
  1

  0
ENDBLK
  5
19
330
17
100
AcDbEntity
  8
0
100
AcDbBlockEnd
  0
BLOCK
  5
1C
330
1B
100
AcDbEntity
  8
0
100
AcDbBlockBegin
  2
*Paper_Space
 70
0
 10
0.0
 20
0.0
 30
0.0
  3
*Paper_Space
  1

  0
ENDBLK
  5
1D
330
1B
100
AcDbEntity
  8
0
100
AcDbBlockEnd
  0
ENDSEC
  0
SECTION
  2
ENTITIES
  0
CIRCLE
  5
30
330
17
100
AcDbEntity
  8
0
100
AcDbCircle
 10
308.19051480421314
 20
44.832816129837596
 30
0.0
 40
4.0
  0
CIRCLE
  5
31
330
17
100
AcDbEntity
  8
0
100
AcDbCircle
 10
308.19051480421314
 20
500.8328161298376
 30
0.0
 40
4.0
  0
LWPOLYLINE
  5
32
330
17
100
AcDbEntity
  8
0
100
AcDbPolyline
 90
10
 70
1
 10
242.1905146253992
 20
296.8328197061163
 10
58.59051924204988
 20
296.8328197061163
 42
1.6953422501885593
 10
58.691455820102675
 20
248.88860478529494
 10
230.19051462539926
 20
248.88860478529497
 42
-0.4142135623730962
 10
284.1905146253992
 20
194.88860478529503
 10
284.1905146253992
 20
56.83281666627946
 42
1.618034015706349
 10
332.1905149830271
 20
56.83281666627935
 10
332.19051498302713
 20
488.8328093349081
 42
1.6180343930967274
 10
284.1905146253992
 20
488.83280933490823
 10
284.1905146253992
 20
338.8328197061164
 42
-0.4142135623730954
  0
CIRCLE
  5
33
330
17
100
AcDbEntity
  8
0
100
AcDbCircle
 10
45.39051480421318
 20
272.8328161298376
 30
0.0
 40
11.0
  0
TEXT
  5
34
330
17
100
AcDbEntity
  8
LABEL
100
AcDbText
 10
295.3969038762874
 20
272.8328175292784
 30
0.0
 40
12.0
  1
frame spacer
 72
1
 11
295.3969038762874
 21
272.8328175292784
 31
0.0
100
AcDbText
 73
2
  0
CIRCLE
  5
35
330
17
100
AcDbEntity
  8
0
100
AcDbCircle
 10
308.19051480421314
 20
560.4984511883944
 30
0.0
 40
4.0
  0
CIRCLE
  5
36
330
17
100
AcDbEntity
  8
0
100
AcDbCircle
 10
308.19051480421314
 20
1016.4984511883944
 30
0.0
 40
4.0
  0
LWPOLYLINE
  5
37
330
17
100
AcDbEntity
  8
0
100
AcDbPolyline
 90
10
 70
1
 10
242.1905146253992
 20
812.498454764673
 10
58.59051924204988
 20
812.498454764673
 42
1.6953422501885593
 10
58.691455820102675
 20
764.5542398438517
 10
230.19051462539926
 20
764.5542398438517
 42
-0.4142135623730962
 10
284.1905146253992
 20
710.5542398438517
 10
284.1905146253992
 20
572.4984517248363
 42
1.618034015706349
 10
332.1905149830271
 20
572.4984517248362
 10
332.19051498302713
 20
1004.4984443934649
 42
1.6180343930967274
 10
284.1905146253992
 20
1004.498444393465
 10
284.1905146253992
 20
854.4984547646732
 42
-0.4142135623730954
  0
CIRCLE
  5
38
330
17
100
AcDbEntity
  8
0
100
AcDbCircle
 10
45.39051480421318
 20
788.4984511883944
 30
0.0
 40
11.0
  0
TEXT
  5
39
330
17
100
AcDbEntity
  8
LABEL
100
AcDbText
 10
295.3969038762874
 20
788.4984525878351
 30
0.0
 40
12.0
  1
frame spacer
 72
1
 11
295.3969038762874
 21
788.4984525878351
 31
0.0
100
AcDbText
 73
2
  0
CIRCLE
  5
3A
330
17
100
AcDbEntity
  8
0
100
AcDbCircle
 10
631.2155478056845
 20
44.832816129837596
 30
0.0
 40
4.0
  0
CIRCLE
  5
3B
330
17
100
AcDbEntity
  8
0
100
AcDbCircle
 10
631.2155478056845
 20
500.8328161298376
 30
0.0
 40
4.0
  0
LWPOLYLINE
  5
3C
330
17
100
AcDbEntity
  8
0
100
AcDbPolyline
 90
10
 70
1
 10
565.2155476268706
 20
296.8328197061163
 10
381.6155522435213
 20
296.8328197061163
 42
1.6953422501885593
 10
381.7164888215741
 20
248.88860478529494
 10
553.2155476268706
 20
248.88860478529497
 42
-0.4142135623730962
 10
607.2155476268706
 20
194.88860478529503
 10
607.2155476268706
 20
56.83281666627946
 42
1.618034015706349
 10
655.2155479844985
 20
56.83281666627935
 10
655.2155479844985
 20
488.8328093349081
 42
1.6180343930967274
 10
607.2155476268706
 20
488.83280933490823
 10
607.2155476268706
 20
338.8328197061164
 42
-0.4142135623730954
  0
CIRCLE
  5
3D
330
17
100
AcDbEntity
  8
0
100
AcDbCircle
 10
368.4155478056846
 20
272.8328161298376
 30
0.0
 40
11.0
  0
TEXT
  5
3E
330
17
100
AcDbEntity
  8
LABEL
100
AcDbText
 10
618.4219368777589
 20
272.8328175292784
 30
0.0
 40
12.0
  1
frame spacer
 72
1
 11
618.4219368777589
 21
272.8328175292784
 31
0.0
100
AcDbText
 73
2
  0
CIRCLE
  5
3F
330
17
100
AcDbEntity
  8
0
100
AcDbCircle
 10
631.2155478056845
 20
560.4984511883944
 30
0.0
 40
4.0
  0
CIRCLE
  5
40
330
17
100
AcDbEntity
  8
0
100
AcDbCircle
 10
631.2155478056845
 20
1016.4984511883944
 30
0.0
 40
4.0
  0
LWPOLYLINE
  5
41
330
17
100
AcDbEntity
  8
0
100
AcDbPolyline
 90
10
 70
1
 10
565.2155476268706
 20
812.498454764673
 10
381.6155522435213
 20
812.498454764673
 42
1.6953422501885593
 10
381.7164888215741
 20
764.5542398438517
 10
553.2155476268706
 20
764.5542398438517
 42
-0.4142135623730962
 10
607.2155476268706
 20
710.5542398438517
 10
607.2155476268706
 20
572.4984517248363
 42
1.618034015706349
 10
655.2155479844985
 20
572.4984517248362
 10
655.2155479844985
 20
1004.4984443934649
 42
1.6180343930967274
 10
607.2155476268706
 20
1004.498444393465
 10
607.2155476268706
 20
854.4984547646732
 42
-0.4142135623730954
  0
CIRCLE
  5
42
330
17
100
AcDbEntity
  8
0
100
AcDbCircle
 10
368.4155478056846
 20
788.4984511883944
 30
0.0
 40
11.0
  0
TEXT
  5
43
330
17
100
AcDbEntity
  8
LABEL
100
AcDbText
 10
618.4219368777589
 20
788.4984525878351
 30
0.0
 40
12.0
  1
frame spacer
 72
1
 11
618.4219368777589
 21
788.4984525878351
 31
0.0
100
AcDbText
 73
2
  0
CIRCLE
  5
44
330
17
100
AcDbEntity
  8
0
100
AcDbCircle
 10
954.2405808071558
 20
44.832816129837596
 30
0.0
 40
4.0
  0
CIRCLE
  5
45
330
17
100
AcDbEntity
  8
0
100
AcDbCircle
 10
954.2405808071558
 20
500.8328161298376
 30
0.0
 40
4.0
  0
LWPOLYLINE
  5
46
330
17
100
AcDbEntity
  8
0
100
AcDbPolyline
 90
10
 70
1
 10
888.2405806283418
 20
296.8328197061163
 10
704.6405852449925
 20
296.8328197061163
 42
1.6953422501885593
 10
704.7415218230453
 20
248.88860478529494
 10
876.2405806283418
 20
248.88860478529497
 42
-0.4142135623730962
 10
930.2405806283418
 20
194.88860478529503
 10
930.2405806283418
 20
56.83281666627946
 42
1.618034015706349
 10
978.2405809859697
 20
56.83281666627935
 10
978.2405809859697
 20
488.8328093349081
 42
1.6180343930967274
 10
930.2405806283418
 20
488.83280933490823
 10
930.2405806283418
 20
338.8328197061164
 42
-0.4142135623730954
  0
CIRCLE
  5
47
330
17
100
AcDbEntity
  8
0
100
AcDbCircle
 10
691.4405808071558
 20
272.8328161298376
 30
0.0
 40
11.0
  0
TEXT
  5
48
330
17
100
AcDbEntity
  8
LABEL
100
AcDbText
 10
941.4469698792301
 20
272.8328175292784
 30
0.0
 40
12.0
  1
frame spacer
 72
1
 11
941.4469698792301
 21
272.8328175292784
 31
0.0
100
AcDbText
 73
2
  0
CIRCLE
  5
49
330
17
100
AcDbEntity
  8
0
100
AcDbCircle
 10
954.2405808071558
 20
560.4984511883944
 30
0.0
 40
4.0
  0
CIRCLE
  5
4A
330
17
100
AcDbEntity
  8
0
100
AcDbCircle
 10
954.2405808071558
 20
1016.4984511883944
 30
0.0
 40
4.0
  0
LWPOLYLINE
  5
4B
330
17
100
AcDbEntity
  8
0
100
AcDbPolyline
 90
10
 70
1
 10
888.2405806283418
 20
812.498454764673
 10
704.6405852449925
 20
812.498454764673
 42
1.6953422501885593
 10
704.7415218230453
 20
764.5542398438517
 10
876.2405806283418
 20
764.5542398438517
 42
-0.4142135623730962
 10
930.2405806283418
 20
710.5542398438517
 10
930.2405806283418
 20
572.4984517248363
 42
1.618034015706349
 10
978.2405809859697
 20
572.4984517248362
 10
978.2405809859697
 20
1004.4984443934649
 42
1.6180343930967274
 10
930.2405806283418
 20
1004.498444393465
 10
930.2405806283418
 20
854.4984547646732
 42
-0.4142135623730954
  0
CIRCLE
  5
4C
330
17
100
AcDbEntity
  8
0
100
AcDbCircle
 10
691.4405808071558
 20
788.4984511883944
 30
0.0
 40
11.0
  0
TEXT
  5
4D
330
17
100
AcDbEntity
  8
LABEL
100
AcDbText
 10
941.4469698792301
 20
788.4984525878351
 30
0.0
 40
12.0
  1
frame spacer
 72
1
 11
941.4469698792301
 21
788.4984525878351
 31
0.0
100
AcDbText
 73
2
  0
CIRCLE
  5
4E
330
17
100
AcDbEntity
  8
0
100
AcDbCircle
 10
1277.2656138086272
 20
44.832816129837596
 30
0.0
 40
4.0
  0
CIRCLE
  5
4F
330
17
100
AcDbEntity
  8
0
100
AcDbCircle
 10
1277.2656138086272
 20
500.8328161298376
 30
0.0
 40
4.0
  0
LWPOLYLINE
  5
50
330
17
100
AcDbEntity
  8
0
100
AcDbPolyline
 90
10
 70
1
 10
1211.2656136298133
 20
296.8328197061163
 10
1027.665618246464
 20
296.8328197061163
 42
1.6953422501885593
 10
1027.7665548245168
 20
248.88860478529494
 10
1199.2656136298133
 20
248.88860478529497
 42
-0.4142135623730962
 10
1253.2656136298133
 20
194.88860478529503
 10
1253.2656136298133
 20
56.83281666627946
 42
1.618034015706349
 10
1301.2656139874412
 20
56.83281666627935
 10
1301.2656139874412
 20
488.8328093349081
 42
1.6180343930967274
 10
1253.2656136298133
 20
488.83280933490823
 10
1253.2656136298133
 20
338.8328197061164
 42
-0.4142135623730954
  0
CIRCLE
  5
51
330
17
100
AcDbEntity
  8
0
100
AcDbCircle
 10
1014.4656138086273
 20
272.8328161298376
 30
0.0
 40
11.0
  0
TEXT
  5
52
330
17
100
AcDbEntity
  8
LABEL
100
AcDbText
 10
1264.4720028807014
 20
272.8328175292784
 30
0.0
 40
12.0
  1
frame spacer
 72
1
 11
1264.4720028807014
 21
272.8328175292784
 31
0.0
100
AcDbText
 73
2
  0
CIRCLE
  5
53
330
17
100
AcDbEntity
  8
0
100
AcDbCircle
 10
1277.2656138086272
 20
560.4984511883944
 30
0.0
 40
4.0
  0
CIRCLE
  5
54
330
17
100
AcDbEntity
  8
0
100
AcDbCircle
 10
1277.2656138086272
 20
1016.4984511883944
 30
0.0
 40
4.0
  0
LWPOLYLINE
  5
55
330
17
100
AcDbEntity
  8
0
100
AcDbPolyline
 90
10
 70
1
 10
1211.2656136298133
 20
812.498454764673
 10
1027.665618246464
 20
812.498454764673
 42
1.6953422501885593
 10
1027.7665548245168
 20
764.5542398438517
 10
1199.2656136298133
 20
764.5542398438517
 42
-0.4142135623730962
 10
1253.2656136298133
 20
710.5542398438517
 10
1253.2656136298133
 20
572.4984517248363
 42
1.618034015706349
 10
1301.2656139874412
 20
572.4984517248362
 10
1301.2656139874412
 20
1004.4984443934649
 42
1.6180343930967274
 10
1253.2656136298133
 20
1004.498444393465
 10
1253.2656136298133
 20
854.4984547646732
 42
-0.4142135623730954
  0
CIRCLE
  5
56
330
17
100
AcDbEntity
  8
0
100
AcDbCircle
 10
1014.4656138086273
 20
788.4984511883944
 30
0.0
 40
11.0
  0
TEXT
  5
57
330
17
100
AcDbEntity
  8
LABEL
100
AcDbText
 10
1264.4720028807014
 20
788.4984525878351
 30
0.0
 40
12.0
  1
frame spacer
 72
1
 11
1264.4720028807014
 21
788.4984525878351
 31
0.0
100
AcDbText
 73
2
  0
CIRCLE
  5
58
330
17
100
AcDbEntity
  8
0
100
AcDbCircle
 10
1336.9329481357229
 20
44.83451819725819
 30
0.0
 40
4.0
  0
CIRCLE
  5
59
330
17
100
AcDbEntity
  8
0
100
AcDbCircle
 10
1792.9329481357229
 20
44.83451819725819
 30
0.0
 40
4.0
  0
LWPOLYLINE
  5
5A
330
17
100
AcDbEntity
  8
0
100
AcDbPolyline
 90
10
 70
1
 10
1588.9329517120016
 20
110.83451837607215
 10
1588.9329517120016
 20
294.43451375942146
 42
1.6953422501885593
 10
1540.9887367911801
 20
294.33357718136864
 10
1540.9887367911801
 20
122.8345183760721
 42
-0.4142135623730962
 10
1486.9887367911804
 20
68.83451837607211
 10
1348.9329486721647
 20
68.83451837607211
 42
1.618034015706349
 10
1348.9329486721647
 20
20.834518018444236
 10
1780.9329413407934
 20
20.834518018444257
 42
1.6180343930967274
 10
1780.9329413407936
 20
68.83451837607214
 10
1630.9329517120018
 20
68.83451837607214
 42
-0.4142135623730954
  0
CIRCLE
  5
5B
330
17
100
AcDbEntity
  8
0
100
AcDbCircle
 10
1564.9329481357229
 20
307.63451819725816
 30
0.0
 40
11.0
  0
TEXT
  5
5C
330
17
100
AcDbEntity
  8
LABEL
100
AcDbText
 10
1564.9329495351635
 20
57.62812912518392
 30
0.0
 40
12.0
  1
frame spacer
 72
1
 11
1564.9329495351635
 21
57.62812912518392
 31
0.0
100
AcDbText
 73
2
  0
CIRCLE
  5
5D
330
17
100
AcDbEntity
  8
0
100
AcDbCircle
 10
1852.5985831942796
 20
44.83451819725819
 30
0.0
 40
4.0
  0
CIRCLE
  5
5E
330
17
100
AcDbEntity
  8
0
100
AcDbCircle
 10
2308.59858319428
 20
44.83451819725819
 30
0.0
 40
4.0
  0
LWPOLYLINE
  5
5F
330
17
100
AcDbEntity
  8
0
100
AcDbPolyline
 90
10
 70
1
 10
2104.5985867705585
 20
110.83451837607215
 10
2104.5985867705585
 20
294.43451375942146
 42
1.6953422501885593
 10
2056.654371849737
 20
294.33357718136864
 10
2056.654371849737
 20
122.8345183760721
 42
-0.4142135623730962
 10
2002.6543718497371
 20
68.83451837607211
 10
1864.5985837307214
 20
68.83451837607211
 42
1.618034015706349
 10
1864.5985837307214
 20
20.834518018444236
 10
2296.5985763993503
 20
20.834518018444257
 42
1.6180343930967274
 10
2296.5985763993503
 20
68.83451837607214
 10
2146.5985867705585
 20
68.83451837607214
 42
-0.4142135623730954
  0
CIRCLE
  5
60
330
17
100
AcDbEntity
  8
0
100
AcDbCircle
 10
2080.59858319428
 20
307.63451819725816
 30
0.0
 40
11.0
  0
TEXT
  5
61
330
17
100
AcDbEntity
  8
LABEL
100
AcDbText
 10
2080.5985845937203
 20
57.62812912518392
 30
0.0
 40
12.0
  1
frame spacer
 72
1
 11
2080.5985845937203
 21
57.62812912518392
 31
0.0
100
AcDbText
 73
2
  0
CIRCLE
  5
62
330
17
100
AcDbEntity
  8
0
100
AcDbCircle
 10
1600.2906468100985
 20
367.85784913130897
 30
0.0
 40
4.0
  0
CIRCLE
  5
63
330
17
100
AcDbEntity
  8
0
100
AcDbCircle
 10
1600.2906468100985
 20
823.857849131309
 30
0.0
 40
4.0
  0
LWPOLYLINE
  5
64
330
17
100
AcDbEntity
  8
0
100
AcDbPolyline
 90
10
 70
1
 10
1534.2906466312845
 20
619.8578527075877
 10
1350.6906512479352
 20
619.8578527075877
 42
1.6953422501885593
 10
1350.791587825988
 20
571.9136377867663
 10
1522.2906466312845
 20
571.9136377867663
 42
-0.4142135623730962
 10
1576.2906466312845
 20
517.9136377867665
 10
1576.2906466312845
 20
379.8578496677508
 42
1.618034015706349
 10
1624.2906469889124
 20
379.8578496677507
 10
1624.2906469889124
 20
811.8578423363795
 42
1.6180343930967274
 10
1576.2906466312845
 20
811.8578423363796
 10
1576.2906466312845
 20
661.8578527075878
 42
-0.4142135623730954
  0
CIRCLE
  5
65
330
17
100
AcDbEntity
  8
0
100
AcDbCircle
 10
1337.4906468100985
 20
595.857849131309
 30
0.0
 40
11.0
  0
TEXT
  5
66
330
17
100
AcDbEntity
  8
LABEL
100
AcDbText
 10
1587.4970358821727
 20
595.8578505307497
 30
0.0
 40
12.0
  1
frame spacer
 72
1
 11
1587.4970358821727
 21
595.8578505307497
 31
0.0
100
AcDbText
 73
2
  0
CIRCLE
  5
67
330
17
100
AcDbEntity
  8
0
100
AcDbCircle
 10
1336.9329481357229
 20
883.5251862572862
 30
0.0
 40
4.0
  0
CIRCLE
  5
68
330
17
100
AcDbEntity
  8
0
100
AcDbCircle
 10
1792.9329481357229
 20
883.5251862572862
 30
0.0
 40
4.0
  0
LWPOLYLINE
  5
69
330
17
100
AcDbEntity
  8
0
100
AcDbPolyline
 90
10
 70
1
 10
1588.9329517120016
 20
949.5251864361002
 10
1588.9329517120016
 20
1133.1251818194496
 42
1.6953422501885593
 10
1540.9887367911801
 20
1133.0242452413968
 10
1540.9887367911801
 20
961.5251864361002
 42
-0.4142135623730962
 10
1486.9887367911804
 20
907.5251864361002
 10
1348.9329486721647
 20
907.5251864361002
 42
1.618034015706349
 10
1348.9329486721647
 20
859.5251860784723
 10
1780.9329413407934
 20
859.5251860784723
 42
1.6180343930967274
 10
1780.9329413407936
 20
907.5251864361002
 10
1630.9329517120018
 20
907.5251864361002
 42
-0.4142135623730954
  0
CIRCLE
  5
6A
330
17
100
AcDbEntity
  8
0
100
AcDbCircle
 10
1564.9329481357229
 20
1146.325186257286
 30
0.0
 40
11.0
  0
TEXT
  5
6B
330
17
100
AcDbEntity
  8
LABEL
100
AcDbText
 10
1564.9329495351635
 20
896.3187971852119
 30
0.0
 40
12.0
  1
frame spacer
 72
1
 11
1564.9329495351635
 21
896.3187971852119
 31
0.0
100
AcDbText
 73
2
  0
LWPOLYLINE
  5
6C
330
17
100
AcDbEntity
  8
0
100
AcDbPolyline
 90
3
 70
1
 10
1702.2541631639108
 20
524.8228780235564
 10
1795.2890008557918
 20
665.515896272216
 10
1795.2890008557918
 20
439.3074399782532
  0
CIRCLE
  5
6D
330
17
100
AcDbEntity
  8
0
100
AcDbCircle
 10
1663.1260082237234
 20
520.0405908701171
 30
0.0
 40
11.0
  0
LWPOLYLINE
  5
6E
330
17
100
AcDbEntity
  8
0
100
AcDbPolyline
 90
2
 70
1
 10
1816.4307853995736
 20
379.16865250501786
 42
0.9972646038391172
 10
1834.1027359076008
 20
362.9298765786506
 42
0.9972646038394608
  0
LWPOLYLINE
  5
6F
330
17
100
AcDbEntity
  8
0
100
AcDbPolyline
 90
7
 70
1
 10
1642.8241649854433
 20
497.9536001034188
 10
1804.9426772131199
 20
348.9380707345481
 42
0.4145782399340892
 10
1847.3567683989988
 20
350.75073066882067
 42
0.188241269212927
 10
1855.2890008557918
 20
371.07346758241
 10
1855.2890008557918
 20
765.2734675824099
 42
0.743511322855691
 10
1800.265237925986
 20
781.8207117285781
 10
1638.1022452938942
 20
536.5878350162493
 42
0.3683575668124177
  0
CIRCLE
  5
70
330
17
100
AcDbEntity
  8
0
100
AcDbCircle
 10
1825.2890008557918
 20
765.2734675824103
 30
0.0
 40
11.0
  0
TEXT
  5
71
330
17
100
AcDbEntity
  8
LABEL
100
AcDbText
 10
1809.0048683873679
 20
700.6402439221218
 30
0.0
 40
12.0
  1
Component19
 72
1
 11
1809.0048683873679
 21
700.6402439221218
 31
0.0
100
AcDbText
 73
2
  0
LWPOLYLINE
  5
72
330
17
100
AcDbEntity
  8
0
100
AcDbPolyline
 90
3
 70
1
 10
2045.0868458778768
 20
494.0598706933524
 10
2185.7798641265363
 20
401.02503300147146
 10
1959.5714078325736
 20
401.02503300147146
  0
CIRCLE
  5
73
330
17
100
AcDbEntity
  8
0
100
AcDbCircle
 10
2040.3045587244374
 20
533.1880256335398
 30
0.0
 40
11.0
  0
LWPOLYLINE
  5
74
330
17
100
AcDbEntity
  8
0
100
AcDbPolyline
 90
2
 70
1
 10
1899.4326203593382
 20
379.88324845768966
 42
0.9972646038391172
 10
1883.193844432971
 20
362.21129794966237
 42
0.9972646038394608
  0
LWPOLYLINE
  5
75
330
17
100
AcDbEntity
  8
0
100
AcDbPolyline
 90
7
 70
1
 10
2018.2175679577392
 20
553.4898688718199
 10
1869.2020385888684
 20
391.37135664414336
 42
0.4145782399340892
 10
1871.014698523141
 20
348.9572654582644
 42
0.188241269212927
 10
1891.3374354367304
 20
341.02503300147146
 10
2285.5374354367304
 20
341.02503300147146
 42
0.743511322855691
 10
2302.0846795828984
 20
396.04879593127725
 10
2056.85180287057
 20
558.2117885633692
 42
0.3683575668124177
  0
CIRCLE
  5
76
330
17
100
AcDbEntity
  8
0
100
AcDbCircle
 10
2285.5374354367304
 20
371.02503300147146
 30
0.0
 40
11.0
  0
TEXT
  5
77
330
17
100
AcDbEntity
  8
LABEL
100
AcDbText
 10
2220.904211776442
 20
387.30916546989533
 30
0.0
 40
12.0
  1
Component19
 72
1
 11
2220.904211776442
 21
387.30916546989533
 31
0.0
100
AcDbText
 73
2
  0
LWPOLYLINE
  5
78
330
17
100
AcDbEntity
  8
0
100
AcDbPolyline
 90
3
 70
1
 10
2045.0868458778768
 20
722.2237065417871
 10
2185.7798641265363
 20
629.1888688499062
 10
1959.5714078325736
 20
629.1888688499062
  0
CIRCLE
  5
79
330
17
100
AcDbEntity
  8
0
100
AcDbCircle
 10
2040.3045587244374
 20
761.3518614819745
 30
0.0
 40
11.0
  0
LWPOLYLINE
  5
7A
330
17
100
AcDbEntity
  8
0
100
AcDbPolyline
 90
2
 70
1
 10
1899.4326203593382
 20
608.0470843061244
 42
0.9972646038391172
 10
1883.193844432971
 20
590.3751337980971
 42
0.9972646038394608
  0
LWPOLYLINE
  5
7B
330
17
100
AcDbEntity
  8
0
100
AcDbPolyline
 90
7
 70
1
 10
2018.2175679577392
 20
781.6537047202546
 10
1869.2020385888684
 20
619.5351924925781
 42
0.4145782399340892
 10
1871.014698523141
 20
577.1211013066991
 42
0.188241269212927
 10
1891.3374354367304
 20
569.1888688499062
 10
2285.5374354367304
 20
569.1888688499062
 42
0.743511322855691
 10
2302.0846795828984
 20
624.212631779712
 10
2056.85180287057
 20
786.3756244118039
 42
0.3683575668124177
  0
CIRCLE
  5
7C
330
17
100
AcDbEntity
  8
0
100
AcDbCircle
 10
2285.5374354367304
 20
599.1888688499062
 30
0.0
 40
11.0
  0
TEXT
  5
7D
330
17
100
AcDbEntity
  8
LABEL
100
AcDbText
 10
2220.904211776442
 20
615.47300131833
 30
0.0
 40
12.0
  1
Component19
 72
1
 11
2220.904211776442
 21
615.47300131833
 31
0.0
100
AcDbText
 73
2
  0
LWPOLYLINE
  5
7E
330
17
100
AcDbEntity
  8
0
100
AcDbPolyline
 90
3
 70
1
 10
2045.0868458778768
 20
950.3875423902223
 10
2185.7798641265363
 20
857.3527046983413
 10
1959.5714078325736
 20
857.3527046983413
  0
CIRCLE
  5
7F
330
17
100
AcDbEntity
  8
0
100
AcDbCircle
 10
2040.3045587244374
 20
989.5156973304097
 30
0.0
 40
11.0
  0
LWPOLYLINE
  5
80
330
17
100
AcDbEntity
  8
0
100
AcDbPolyline
 90
2
 70
1
 10
1899.4326203593382
 20
836.2109201545595
 42
0.9972646038391172
 10
1883.193844432971
 20
818.5389696465322
 42
0.9972646038394608
  0
LWPOLYLINE
  5
81
330
17
100
AcDbEntity
  8
0
100
AcDbPolyline
 90
7
 70
1
 10
2018.2175679577392
 20
1009.8175405686898
 10
1869.2020385888684
 20
847.6990283410132
 42
0.4145782399340892
 10
1871.014698523141
 20
805.2849371551342
 42
0.188241269212927
 10
1891.3374354367304
 20
797.3527046983413
 10
2285.5374354367304
 20
797.3527046983413
 42
0.743511322855691
 10
2302.0846795828984
 20
852.3764676281471
 10
2056.85180287057
 20
1014.539460260239
 42
0.3683575668124177
  0
CIRCLE
  5
82
330
17
100
AcDbEntity
  8
0
100
AcDbCircle
 10
2285.5374354367304
 20
827.3527046983413
 30
0.0
 40
11.0
  0
TEXT
  5
83
330
17
100
AcDbEntity
  8
LABEL
100
AcDbText
 10
2220.904211776442
 20
843.6368371667652
 30
0.0
 40
12.0
  1
Component19
 72
1
 11
2220.904211776442
 21
843.6368371667652
 31
0.0
100
AcDbText
 73
2
  0
LWPOLYLINE
  5
84
330
17
100
AcDbEntity
  8
0
100
AcDbPolyline
 90
6
 70
1
 10
372.00000527501106
 20
1094.3312696700787
 10
372.00000527501106
 20
1154.3312705641483
 10
312.0000043809414
 20
1154.3312705641483
 10
18.0
 20
1142.3312703853344
 10
18.0
 20
1106.3312698488926
 10
312.0000043809414
 20
1094.3312696700787
  0
CIRCLE
  5
85
330
17
100
AcDbEntity
  8
0
100
AcDbCircle
 10
342.0000048279762
 20
1124.3312701171135
 30
0.0
 40
75.0
  0
CIRCLE
  5
86
330
17
100
AcDbEntity
  8
0
100
AcDbCircle
 10
48.000000447034836
 20
1124.3312701171135
 30
0.0
 40
4.0
  0
TEXT
  5
87
330
17
100
AcDbEntity
  8
LABEL
100
AcDbText
 10
234.12500261515373
 20
1124.3312701171135
 30
0.0
 40
12.0
  1
crank
 72
1
 11
234.12500261515373
 21
1124.3312701171135
 31
0.0
100
AcDbText
 73
2
  0
LWPOLYLINE
  5
88
330
17
100
AcDbEntity
  8
0
100
AcDbPolyline
 90
6
 70
1
 10
777.0000101029873
 20
1094.3312696700787
 10
777.0000101029873
 20
1154.3312705641483
 10
717.0000092089176
 20
1154.3312705641483
 10
423.0000048279762
 20
1142.3312703853344
 10
423.0000048279762
 20
1106.3312698488926
 10
717.0000092089176
 20
1094.3312696700787
  0
CIRCLE
  5
89
330
17
100
AcDbEntity
  8
0
100
AcDbCircle
 10
747.0000096559525
 20
1124.3312701171135
 30
0.0
 40
75.0
  0
CIRCLE
  5
8A
330
17
100
AcDbEntity
  8
0
100
AcDbCircle
 10
453.00000527501106
 20
1124.3312701171135
 30
0.0
 40
4.0
  0
TEXT
  5
8B
330
17
100
AcDbEntity
  8
LABEL
100
AcDbText
 10
639.12500744313
 20
1124.3312701171135
 30
0.0
 40
12.0
  1
crank
 72
1
 11
639.12500744313
 21
1124.3312701171135
 31
0.0
100
AcDbText
 73
2
  0
LWPOLYLINE
  5
8C
330
17
100
AcDbEntity
  8
0
100
AcDbPolyline
 90
6
 70
1
 10
1182.0000149309635
 20
1094.3312696700787
 10
1182.0000149309635
 20
1154.3312705641483
 10
1122.0000140368938
 20
1154.3312705641483
 10
828.0000096559525
 20
1142.3312703853344
 10
828.0000096559525
 20
1106.3312698488926
 10
1122.0000140368938
 20
1094.3312696700787
  0
CIRCLE
  5
8D
330
17
100
AcDbEntity
  8
0
100
AcDbCircle
 10
1152.0000144839287
 20
1124.3312701171135
 30
0.0
 40
75.0
  0
CIRCLE
  5
8E
330
17
100
AcDbEntity
  8
0
100
AcDbCircle
 10
858.0000101029873
 20
1124.3312701171135
 30
0.0
 40
4.0
  0
TEXT
  5
8F
330
17
100
AcDbEntity
  8
LABEL
100
AcDbText
 10
1044.1250122711062
 20
1124.3312701171135
 30
0.0
 40
12.0
  1
crank
 72
1
 11
1044.1250122711062
 21
1124.3312701171135
 31
0.0
100
AcDbText
 73
2
  0
LWPOLYLINE
  5
90
330
17
100
AcDbEntity
  8
0
100
AcDbPolyline
 90
6
 70
1
 10
2179.765772339453
 20
1070.5165400997412
 10
2179.765772339453
 20
1130.5165409938108
 10
2119.7657714453835
 20
1130.5165409938108
 10
1825.7657670644421
 20
1118.516540814997
 10
1825.7657670644421
 20
1082.516540278555
 10
2119.7657714453835
 20
1070.5165400997412
  0
CIRCLE
  5
91
330
17
100
AcDbEntity
  8
0
100
AcDbCircle
 10
2149.7657718924183
 20
1100.516540546776
 30
0.0
 40
75.0
  0
CIRCLE
  5
92
330
17
100
AcDbEntity
  8
0
100
AcDbCircle
 10
1855.765767511477
 20
1100.516540546776
 30
0.0
 40
4.0
  0
TEXT
  5
93
330
17
100
AcDbEntity
  8
LABEL
100
AcDbText
 10
2041.890769679596
 20
1100.516540546776
 30
0.0
 40
12.0
  1
crank
 72
1
 11
2041.890769679596
 21
1100.516540546776
 31
0.0
100
AcDbText
 73
2
  0
LWPOLYLINE
  5
94
330
17
100
AcDbEntity
  8
0
100
AcDbPolyline
 90
4
 70
1
 10
2341.431402122999
 20
382.80000000000007
 10
2341.431402122999
 20
48.00000000000003
 42
0.9999999999999999
 10
2401.431402122999
 20
47.99999999999994
 10
2401.431402122999
 20
382.80000000000007
 42
0.9999999999999999
  0
CIRCLE
  5
95
330
17
100
AcDbEntity
  8
0
100
AcDbCircle
 10
2371.431402122999
 20
382.80000000000007
 30
3.0385816786431356e-63
 40
11.0
  0
CIRCLE
  5
96
330
17
100
AcDbEntity
  8
0
100
AcDbCircle
 10
2371.431402122999
 20
47.99999999999994
 30
0.0
 40
11.0
  0
TEXT
  5
97
330
17
100
AcDbEntity
  8
LABEL
100
AcDbText
 10
2371.431402122999
 20
100.25
 30
0.0
 40
12.0
  1
LinkE
 72
1
 11
2371.431402122999
 21
100.25
 31
0.0
100
AcDbText
 73
2
  0
LWPOLYLINE
  5
98
330
17
100
AcDbEntity
  8
0
100
AcDbPolyline
 90
4
 70
1
 10
2321.539793597666
 20
783.6000000000001
 10
2321.539793597666
 20
448.80000000000007
 42
0.9999999999999999
 10
2381.539793597666
 20
448.8
 10
2381.539793597666
 20
783.6000000000001
 42
0.9999999999999999
  0
CIRCLE
  5
99
330
17
100
AcDbEntity
  8
0
100
AcDbCircle
 10
2351.539793597666
 20
783.6000000000001
 30
3.0385816786431356e-63
 40
11.0
  0
CIRCLE
  5
9A
330
17
100
AcDbEntity
  8
0
100
AcDbCircle
 10
2351.539793597666
 20
448.8
 30
0.0
 40
11.0
  0
TEXT
  5
9B
330
17
100
AcDbEntity
  8
LABEL
100
AcDbText
 10
2351.539793597666
 20
501.05000000000007
 30
0.0
 40
12.0
  1
LinkE
 72
1
 11
2351.539793597666
 21
501.05000000000007
 31
0.0
100
AcDbText
 73
2
  0
CIRCLE
  5
9C
330
17
100
AcDbEntity
  8
0
100
AcDbCircle
 10
2351.539793597666
 20
1149.6000000000004
 30
0.0
 40
11.0
  0
CIRCLE
  5
9D
330
17
100
AcDbEntity
  8
0
100
AcDbCircle
 10
2351.539793597666
 20
849.6000000000004
 30
0.0
 40
11.0
  0
LWPOLYLINE
  5
9E
330
17
100
AcDbEntity
  8
0
100
AcDbPolyline
 90
4
 70
1
 10
2321.539793597666
 20
1149.6000000000004
 10
2321.539793597666
 20
849.6000000000004
 42
0.9999999999999999
 10
2381.539793597666
 20
849.6000000000004
 10
2381.539793597666
 20
1149.6000000000004
 42
0.9999999999999999
  0
TEXT
  5
9F
330
17
100
AcDbEntity
  8
LABEL
100
AcDbText
 10
2351.539793597666
 20
894.6000000000004
 30
0.0
 40
12.0
  1
LinkJ
 72
1
 11
2351.539793597666
 21
894.6000000000004
 31
0.0
100
AcDbText
 73
2
  0
ENDSEC
  0
SECTION
  2
OBJECTS
  0
DICTIONARY
  5
A
330
0
100
AcDbDictionary
281
1
  3
ACAD_COLOR
350
B
  3
ACAD_GROUP
350
C
  3
ACAD_LAYOUT
350
D
  3
ACAD_MATERIAL
350
E
  3
ACAD_MLEADERSTYLE
350
F
  3
ACAD_MLINESTYLE
350
10
  3
ACAD_PLOTSETTINGS
350
11
  3
ACAD_PLOTSTYLENAME
350
12
  3
ACAD_SCALELIST
350
14
  3
ACAD_TABLESTYLE
350
15
  3
ACAD_VISUALSTYLE
350
16
  3
EZDXF_META
350
2D
  0
DICTIONARY
  5
B
330
A
100
AcDbDictionary
281
1
  0
DICTIONARY
  5
C
330
A
100
AcDbDictionary
281
1
  0
DICTIONARY
  5
D
330
A
100
AcDbDictionary
281
1
  3
Model
350
1A
  3
Layout1
350
1E
  0
DICTIONARY
  5
E
330
A
100
AcDbDictionary
281
1
  3
ByBlock
350
1F
  3
ByLayer
350
20
  3
Global
350
21
  0
DICTIONARY
  5
F
330
A
100
AcDbDictionary
281
1
  3
Standard
350
2C
  0
DICTIONARY
  5
10
330
A
100
AcDbDictionary
281
1
  3
Standard
350
22
  0
DICTIONARY
  5
11
330
A
100
AcDbDictionary
281
1
  0
ACDBDICTIONARYWDFLT
  5
12
330
A
100
AcDbDictionary
281
1
  3
Normal
350
13
100
AcDbDictionaryWithDefault
340
13
  0
ACDBPLACEHOLDER
  5
13
330
12
  0
DICTIONARY
  5
14
330
A
100
AcDbDictionary
281
1
  0
DICTIONARY
  5
15
330
A
100
AcDbDictionary
281
1
  0
DICTIONARY
  5
16
330
A
100
AcDbDictionary
281
1
  0
LAYOUT
  5
1A
330
D
100
AcDbPlotSettings
  1

  4
A3
  6

 40
7.5
 41
20.0
 42
7.5
 43
20.0
 44
420.0
 45
297.0
 46
0.0
 47
0.0
 48
0.0
 49
0.0
140
0.0
141
0.0
142
1.0
143
1.0
 70
1024
 72
1
 73
0
 74
5
  7

 75
16
 76
0
 77
2
 78
300
147
1.0
148
0.0
149
0.0
100
AcDbLayout
  1
Model
 70
1
 71
0
 10
0.0
 20
0.0
 11
420.0
 21
297.0
 12
0.0
 22
0.0
 32
0.0
 14
1e+20
 24
1e+20
 34
1e+20
 15
-1e+20
 25
-1e+20
 35
-1e+20
146
0.0
 13
0.0
 23
0.0
 33
0.0
 16
1.0
 26
0.0
 36
0.0
 17
0.0
 27
1.0
 37
0.0
 76
1
330
17
  0
LAYOUT
  5
1E
330
D
100
AcDbPlotSettings
  1

  4
A3
  6

 40
7.5
 41
20.0
 42
7.5
 43
20.0
 44
420.0
 45
297.0
 46
0.0
 47
0.0
 48
0.0
 49
0.0
140
0.0
141
0.0
142
1.0
143
1.0
 70
0
 72
1
 73
0
 74
5
  7

 75
16
 76
0
 77
2
 78
300
147
1.0
148
0.0
149
0.0
100
AcDbLayout
  1
Layout1
 70
1
 71
1
 10
0.0
 20
0.0
 11
420.0
 21
297.0
 12
0.0
 22
0.0
 32
0.0
 14
1e+20
 24
1e+20
 34
1e+20
 15
-1e+20
 25
-1e+20
 35
-1e+20
146
0.0
 13
0.0
 23
0.0
 33
0.0
 16
1.0
 26
0.0
 36
0.0
 17
0.0
 27
1.0
 37
0.0
 76
1
330
1B
  0
MATERIAL
  5
1F
102
{ACAD_REACTORS
330
E
102
}
330
E
100
AcDbMaterial
  1
ByBlock
  2

 70
0
 40
1.0
 71
1
 41
1.0
 91
-1023410177
 42
1.0
 72
1
  3

 73
1
 74
1
 75
1
 44
0.5
 73
0
 45
1.0
 46
1.0
 77
1
  4

 78
1
 79
1
170
1
 48
1.0
171
1
  6

172
1
173
1
174
1
140
1.0
141
1.0
175
1
  7

176
1
177
1
178
1
143
1.0
179
1
  8

270
1
271
1
272
1
145
1.0
146
1.0
273
1
  9

274
1
275
1
276
1
 42
1.0
 72
1
  3

 73
1
 74
1
 75
1
 94
63
  0
MATERIAL
  5
20
102
{ACAD_REACTORS
330
E
102
}
330
E
100
AcDbMaterial
  1
ByLayer
  2

 70
0
 40
1.0
 71
1
 41
1.0
 91
-1023410177
 42
1.0
 72
1
  3

 73
1
 74
1
 75
1
 44
0.5
 73
0
 45
1.0
 46
1.0
 77
1
  4

 78
1
 79
1
170
1
 48
1.0
171
1
  6

172
1
173
1
174
1
140
1.0
141
1.0
175
1
  7

176
1
177
1
178
1
143
1.0
179
1
  8

270
1
271
1
272
1
145
1.0
146
1.0
273
1
  9

274
1
275
1
276
1
 42
1.0
 72
1
  3

 73
1
 74
1
 75
1
 94
63
  0
MATERIAL
  5
21
102
{ACAD_REACTORS
330
E
102
}
330
E
100
AcDbMaterial
  1
Global
  2

 70
0
 40
1.0
 71
1
 41
1.0
 91
-1023410177
 42
1.0
 72
1
  3

 73
1
 74
1
 75
1
 44
0.5
 73
0
 45
1.0
 46
1.0
 77
1
  4

 78
1
 79
1
170
1
 48
1.0
171
1
  6

172
1
173
1
174
1
140
1.0
141
1.0
175
1
  7

176
1
177
1
178
1
143
1.0
179
1
  8

270
1
271
1
272
1
145
1.0
146
1.0
273
1
  9

274
1
275
1
276
1
 42
1.0
 72
1
  3

 73
1
 74
1
 75
1
 94
63
  0
MLINESTYLE
  5
22
102
{ACAD_REACTORS
330
10
102
}
330
10
100
AcDbMlineStyle
  2
Standard
 70
0
  3

 62
256
 51
90.0
 52
90.0
 71
2
 49
0.5
 62
256
  6
BYLAYER
 49
-0.5
 62
256
  6
BYLAYER
  0
MLEADERSTYLE
  5
2C
102
{ACAD_REACTORS
330
F
102
}
330
F
100
AcDbMLeaderStyle
179
2
170
2
171
1
172
0
 90
2
 40
0.0
 41
0.0
173
1
 91
-1056964608
 92
-2
290
1
 42
2.0
291
1
 43
8.0
  3
Standard
 44
4.0
300

342
29
174
1
175
1
176
0
178
1
 93
-1056964608
 45
4.0
292
0
297
0
 46
4.0
 94
-1056964608
 47
1.0
 49
1.0
140
1.0
294
1
141
0.0
177
0
142
1.0
295
0
296
0
143
3.75
271
0
272
9
273
9
  0
DICTIONARY
  5
2D
330
A
100
AcDbDictionary
280
1
281
1
  3
CREATED_BY_EZDXF
350
2E
  3
WRITTEN_BY_EZDXF
350
A2
  0
DICTIONARYVAR
  5
2E
330
2D
100
DictionaryVariables
280
0
  1
1.4.4 @ 2026-08-07T11:57:15.003617+00:00
  0
DICTIONARYVAR
  5
A2
330
2D
100
DictionaryVariables
280
0
  1
1.4.4 @ 2026-08-07T11:57:15.205369+00:00
  0
ENDSEC
  0
EOF
