  0
SECTION
  2
HEADER
  9
$ACADVER
  1
AC1027
  9
$ACADMAINTVER
 70
105
  9
$DWGCODEPAGE
  3
ANSI_1252
  9
$LASTSAVEDBY
  1
ezdxf
  9
$REQUIREDVERSIONS
160
0
  9
$INSBASE
 10
0.0
 20
0.0
 30
0.0
  9
$EXTMIN
 10
1e+20
 20
1e+20
 30
1e+20
  9
$EXTMAX
 10
-1e+20
 20
-1e+20
 30
-1e+20
  9
$LIMMIN
 10
0.0
 20
0.0
  9
$LIMMAX
 10
420.0
 20
297.0
  9
$ORTHOMODE
 70
0
  9
$REGENMODE
 70
1
  9
$FILLMODE
 70
1
  9
$QTEXTMODE
 70
0
  9
$MIRRTEXT
 70
1
  9
$LTSCALE
 40
1.0
  9
$ATTMODE
 70
1
  9
$TEXTSIZE
 40
2.5
  9
$TRACEWID
 40
1.0
  9
$TEXTSTYLE
  7
Standard
  9
$CLAYER
  8
0
  9
$CELTYPE
  6
ByLayer
  9
$CECOLOR
 62
256
  9
$CELTSCALE
 40
1.0
  9
$DISPSILH
 70
0
  9
$DIMSCALE
 40
1.0
  9
$DIMASZ
 40
2.5
  9
$DIMEXO
 40
0.625
  9
$DIMDLI
 40
3.75
  9
$DIMRND
 40
0.0
  9
$DIMDLE
 40
0.0
  9
$DIMEXE
 40
1.25
  9
$DIMTP
 40
0.0
  9
$DIMTM
 40
0.0
  9
$DIMTXT
 40
2.5
  9
$DIMCEN
 40
2.5
  9
$DIMTSZ
 40
0.0
  9
$DIMTOL
 70
0
  9
$DIMLIM
 70
0
  9
$DIMTIH
 70
0
  9
$DIMTOH
 70
0
  9
$DIMSE1
 70
0
  9
$DIMSE2
 70
0
  9
$DIMTAD
 70
1
  9
$DIMZIN
 70
8
  9
$DIMBLK
  1

  9
$DIMASO
 70
1
  9
$DIMSHO
 70
1
  9
$DIMPOST
  1

  9
$DIMAPOST
  1

  9
$DIMALT
 70
0
  9
$DIMALTD
 70
3
  9
$DIMALTF
 40
0.03937007874
  9
$DIMLFAC
 40
1.0
  9
$DIMTOFL
 70
1
  9
$DIMTVP
 40
0.0
  9
$DIMTIX
 70
0
  9
$DIMSOXD
 70
0
  9
$DIMSAH
 70
0
  9
$DIMBLK1
  1

  9
$DIMBLK2
  1

  9
$DIMSTYLE
  2
ISO-25
  9
$DIMCLRD
 70
0
  9
$DIMCLRE
 70
0
  9
$DIMCLRT
 70
0
  9
$DIMTFAC
 40
1.0
  9
$DIMGAP
 40
0.625
  9
$DIMJUST
 70
0
  9
$DIMSD1
 70
0
  9
$DIMSD2
 70
0
  9
$DIMTOLJ
 70
0
  9
$DIMTZIN
 70
8
  9
$DIMALTZ
 70
0
  9
$DIMALTTZ
 70
0
  9
$DIMUPT
 70
0
  9
$DIMDEC
 70
2
  9
$DIMTDEC
 70
2
  9
$DIMALTU
 70
2
  9
$DIMALTTD
 70
3
  9
$DIMTXSTY
  7
Standard
  9
$DIMAUNIT
 70
0
  9
$DIMADEC
 70
0
  9
$DIMALTRND
 40
0.0
  9
$DIMAZIN
 70
0
  9
$DIMDSEP
 70
44
  9
$DIMATFIT
 70
3
  9
$DIMFRAC
 70
0
  9
$DIMLDRBLK
  1

  9
$DIMLUNIT
 70
2
  9
$DIMLWD
 70
-2
  9
$DIMLWE
 70
-2
  9
$DIMTMOVE
 70
0
  9
$DIMFXL
 40
1.0
  9
$DIMFXLON
 70
0
  9
$DIMJOGANG
 40
0.785398163397
  9
$DIMTFILL
 70
0
  9
$DIMTFILLCLR
 70
0
  9
$DIMARCSYM
 70
0
  9
$DIMLTYPE
  6

  9
$DIMLTEX1
  6

  9
$DIMLTEX2
  6

  9
$DIMTXTDIRECTION
 70
0
  9
$LUNITS
 70
2
  9
$LUPREC
 70
4
  9
$SKETCHINC
 40
1.0
  9
$FILLETRAD
 40
10.0
  9
$AUNITS
 70
0
  9
$AUPREC
 70
2
  9
$MENU
  1
.
  9
$ELEVATION
 40
0.0
  9
$PELEVATION
 40
0.0
  9
$THICKNESS
 40
0.0
  9
$LIMCHECK
 70
0
  9
$CHAMFERA
 40
0.0
  9
$CHAMFERB
 40
0.0
  9
$CHAMFERC
 40
0.0
  9
$CHAMFERD
 40
0.0
  9
$SKPOLY
 70
0
  9
$TDCREATE
 40
2461258.5831828704
  9
$TDUCREATE
 40
2458532.153996898
  9
$TDUPDATE
 40
2461258.5831944444
  9
$TDUUPDATE
 40
2458532.1544311
  9
$TDINDWG
 40
0.0
  9
$TDUSRTIMER
 40
0.0
  9
$USRTIMER
 70
1
  9
$ANGBASE
 50
0.0
  9
$ANGDIR
 70
0
  9
$PDMODE
 70
0
  9
$PDSIZE
 40
0.0
  9
$PLINEWID
 40
0.0
  9
$SPLFRAME
 70
0
  9
$SPLINETYPE
 70
6
  9
$SPLINESEGS
 70
8
  9
$HANDSEED
  5
1A3
  9
$SURFTAB1
 70
6
  9
$SURFTAB2
 70
6
  9
$SURFTYPE
 70
6
  9
$SURFU
 70
6
  9
$SURFV
 70
6
  9
$UCSBASE
  2

  9
$UCSNAME
  2

  9
$UCSORG
 10
0.0
 20
0.0
 30
0.0
  9
$UCSXDIR
 10
1.0
 20
0.0
 30
0.0
  9
$UCSYDIR
 10
0.0
 20
1.0
 30
0.0
  9
$UCSORTHOREF
  2

  9
$UCSORTHOVIEW
 70
0
  9
$UCSORGTOP
 10
0.0
 20
0.0
 30
0.0
  9
$UCSORGBOTTOM
 10
0.0
 20
0.0
 30
0.0
  9
$UCSORGLEFT
 10
0.0
 20
0.0
 30
0.0
  9
$UCSORGRIGHT
 10
0.0
 20
0.0
 30
0.0
  9
$UCSORGFRONT
 10
0.0
 20
0.0
 30
0.0
  9
$UCSORGBACK
 10
0.0
 20
0.0
 30
0.0
  9
$PUCSBASE
  2

  9
$PUCSNAME
  2

  9
$PUCSORG
 10
0.0
 20
0.0
 30
0.0
  9
$PUCSXDIR
 10
1.0
 20
0.0
 30
0.0
  9
$PUCSYDIR
 10
0.0
 20
1.0
 30
0.0
  9
$PUCSORTHOREF
  2

  9
$PUCSORTHOVIEW
 70
0
  9
$PUCSORGTOP
 10
0.0
 20
0.0
 30
0.0
  9
$PUCSORGBOTTOM
 10
0.0
 20
0.0
 30
0.0
  9
$PUCSORGLEFT
 10
0.0
 20
0.0
 30
0.0
  9
$PUCSORGRIGHT
 10
0.0
 20
0.0
 30
0.0
  9
$PUCSORGFRONT
 10
0.0
 20
0.0
 30
0.0
  9
$PUCSORGBACK
 10
0.0
 20
0.0
 30
0.0
  9
$USERI1
 70
0
  9
$USERI2
 70
0
  9
$USERI3
 70
0
  9
$USERI4
 70
0
  9
$USERI5
 70
0
  9
$USERR1
 40
0.0
  9
$USERR2
 40
0.0
  9
$USERR3
 40
0.0
  9
$USERR4
 40
0.0
  9
$USERR5
 40
0.0
  9
$WORLDVIEW
 70
1
  9
$SHADEDGE
 70
3
  9
$SHADEDIF
 70
70
  9
$TILEMODE
 70
1
  9
$MAXACTVP
 70
64
  9
$PINSBASE
 10
0.0
 20
0.0
 30
0.0
  9
$PLIMCHECK
 70
0
  9
$PEXTMIN
 10
1e+20
 20
1e+20
 30
1e+20
  9
$PEXTMAX
 10
-1e+20
 20
-1e+20
 30
-1e+20
  9
$PLIMMIN
 10
0.0
 20
0.0
  9
$PLIMMAX
 10
420.0
 20
297.0
  9
$UNITMODE
 70
0
  9
$VISRETAIN
 70
1
  9
$PLINEGEN
 70
0
  9
$PSLTSCALE
 70
1
  9
$TREEDEPTH
 70
3020
  9
$CMLSTYLE
  2
Standard
  9
$CMLJUST
 70
0
  9
$CMLSCALE
 40
20.0
  9
$PROXYGRAPHICS
 70
1
  9
$MEASUREMENT
 70
1
  9
$CELWEIGHT
370
-1
  9
$ENDCAPS
280
0
  9
$JOINSTYLE
280
0
  9
$LWDISPLAY
290
0
  9
$INSUNITS
 70
4
  9
$HYPERLINKBASE
  1

  9
$STYLESHEET
  1

  9
$XEDIT
290
1
  9
$CEPSNTYPE
380
0
  9
$PSTYLEMODE
290
1
  9
$FINGERPRINTGUID
  2
{2C1DD1DB-A3AD-4431-BB5D-78B95355B3AF}
  9
$VERSIONGUID
  2
{00541161-EE0F-4D96-B41D-6E5A384F1BBC}
  9
$EXTNAMES
290
1
  9
$PSVPSCALE
 40
0.0
  9
$OLESTARTUP
290
0
  9
$SORTENTS
280
127
  9
$INDEXCTL
280
0
  9
$HIDETEXT
280
1
  9
$XCLIPFRAME
280
1
  9
$HALOGAP
280
0
  9
$OBSCOLOR
 70
257
  9
$OBSLTYPE
280
0
  9
$INTERSECTIONDISPLAY
280
0
  9
$INTERSECTIONCOLOR
 70
257
  9
$DIMASSOC
280
2
  9
$PROJECTNAME
  1

  9
$CAMERADISPLAY
290
0
  9
$LENSLENGTH
 40
50.0
  9
$CAMERAHEIGHT
 40
0.0
  9
$STEPSPERSEC
 40
24.0
  9
$STEPSIZE
 40
100.0
  9
$3DDWFPREC
 40
2.0
  9
$PSOLWIDTH
 40
0.005
  9
$PSOLHEIGHT
 40
0.08
  9
$LOFTANG1
 40
1.570796326795
  9
$LOFTANG2
 40
1.570796326795
  9
$LOFTMAG1
 40
0.0
  9
$LOFTMAG2
 40
0.0
  9
$LOFTPARAM
 70
7
  9
$LOFTNORMALS
280
1
  9
$LATITUDE
 40
37.795
  9
$LONGITUDE
 40
-122.394
  9
$NORTHDIRECTION
 40
0.0
  9
$TIMEZONE
 70
-8000
  9
$LIGHTGLYPHDISPLAY
280
1
  9
$TILEMODELIGHTSYNCH
280
1
  9
$CMATERIAL
347
20
  9
$SOLIDHIST
280
0
  9
$SHOWHIST
280
1
  9
$DWFFRAME
280
2
  9
$DGNFRAME
280
2
  9
$REALWORLDSCALE
290
1
  9
$INTERFERECOLOR
 62
256
  9
$CSHADOW
280
0
  9
$SHADOWPLANELOCATION
 40
0.0
  0
ENDSEC
  0
SECTION
  2
CLASSES
  0
CLASS
  1
ACDBDICTIONARYWDFLT
  2
AcDbDictionaryWithDefault
  3
ObjectDBX Classes
 90
0
 91
0
280
0
281
0
  0
CLASS
  1
SUN
  2
AcDbSun
  3
SCENEOE
 90
1153
 91
0
280
0
281
0
  0
CLASS
  1
VISUALSTYLE
  2
AcDbVisualStyle
  3
ObjectDBX Classes
 90
4095
 91
0
280
0
281
0
  0
CLASS
  1
MATERIAL
  2
AcDbMaterial
  3
ObjectDBX Classes
 90
1153
 91
0
280
0
281
0
  0
CLASS
  1
SCALE
  2
AcDbScale
  3
ObjectDBX Classes
 90
1153
 91
0
280
0
281
0
  0
CLASS
  1
TABLESTYLE
  2
AcDbTableStyle
  3
ObjectDBX Classes
 90
4095
 91
0
280
0
281
0
  0
CLASS
  1
MLEADERSTYLE
  2
AcDbMLeaderStyle
  3
ACDB_MLEADERSTYLE_CLASS
 90
4095
 91
0
280
0
281
0
  0
CLASS
  1
DICTIONARYVAR
  2
AcDbDictionaryVar
  3
ObjectDBX Classes
 90
0
 91
0
280
0
281
0
  0
CLASS
  1
CELLSTYLEMAP
  2
AcDbCellStyleMap
  3
ObjectDBX Classes
 90
1152
 91
0
280
0
281
0
  0
CLASS
  1
MENTALRAYRENDERSETTINGS
  2
AcDbMentalRayRenderSettings
  3
SCENEOE
 90
1024
 91
0
280
0
281
0
  0
CLASS
  1
ACDBDETAILVIEWSTYLE
  2
AcDbDetailViewStyle
  3
ObjectDBX Classes
 90
1025
 91
0
280
0
281
0
  0
CLASS
  1
ACDBSECTIONVIEWSTYLE
  2
AcDbSectionViewStyle
  3
ObjectDBX Classes
 90
1025
 91
0
280
0
281
0
  0
CLASS
  1
RASTERVARIABLES
  2
AcDbRasterVariables
  3
ISM
 90
0
 91
0
280
0
281
0
  0
CLASS
  1
LAYOUT
  2
AcDbLayout
  3
ObjectDBX Classes
 90
0
 91
0
280
0
281
0
  0
CLASS
  1
ACDBPLACEHOLDER
  2
AcDbPlaceHolder
  3
ObjectDBX Classes
 90
0
 91
0
280
0
281
0
  0
ENDSEC
  0
SECTION
  2
TABLES
  0
TABLE
  2
VPORT
  5
8
330
0
100
AcDbSymbolTable
 70
1
  0
VPORT
  5
23
330
8
100
AcDbSymbolTableRecord
100
AcDbViewportTableRecord
  2
*Active
 70
0
 10
0.0
 20
0.0
 11
1.0
 21
1.0
 12
0.0
 22
0.0
 13
0.0
 23
0.0
 14
0.5
 24
0.5
 15
0.5
 25
0.5
 16
0.0
 26
0.0
 36
1.0
 17
0.0
 27
0.0
 37
0.0
 40
1000.0
 41
1.34
 42
50.0
 43
0.0
 44
0.0
 50
0.0
 51
0.0
 71
0
 72
1000
 73
1
 74
3
 75
0
 76
0
 77
0
 78
0
281
0
 65
0
146
0.0
  0
ENDTAB
  0
TABLE
  2
LTYPE
  5
2
330
0
100
AcDbSymbolTable
 70
3
  0
LTYPE
  5
24
330
2
100
AcDbSymbolTableRecord
100
AcDbLinetypeTableRecord
  2
ByBlock
 70
0
  3

 72
65
 73
0
 40
0.0
  0
LTYPE
  5
25
330
2
100
AcDbSymbolTableRecord
100
AcDbLinetypeTableRecord
  2
ByLayer
 70
0
  3

 72
65
 73
0
 40
0.0
  0
LTYPE
  5
26
330
2
100
AcDbSymbolTableRecord
100
AcDbLinetypeTableRecord
  2
Continuous
 70
0
  3

 72
65
 73
0
 40
0.0
  0
ENDTAB
  0
TABLE
  2
LAYER
  5
1
330
0
100
AcDbSymbolTable
 70
3
  0
LAYER
  5
27
330
1
100
AcDbSymbolTableRecord
100
AcDbLayerTableRecord
  2
0
 70
0
 62
7
  6
Continuous
370
-3
390
13
347
21
  0
LAYER
  5
28
330
1
100
AcDbSymbolTableRecord
100
AcDbLayerTableRecord
  2
Defpoints
 70
0
 62
7
  6
Continuous
290
0
370
-3
390
13
347
21
  0
LAYER
  5
2F
330
1
100
AcDbSymbolTableRecord
100
AcDbLayerTableRecord
  2
LABEL
 70
0
 62
1
  6
Continuous
370
-3
390
13
347
21
  0
ENDTAB
  0
TABLE
  2
STYLE
  5
5
330
0
100
AcDbSymbolTable
 70
1
  0
STYLE
  5
29
330
5
100
AcDbSymbolTableRecord
100
AcDbTextStyleTableRecord
  2
Standard
 70
0
 40
0.0
 41
1.0
 50
0.0
 71
0
 42
2.5
  3
txt
  4

  0
ENDTAB
  0
TABLE
  2
VIEW
  5
7
330
0
100
AcDbSymbolTable
 70
0
  0
ENDTAB
  0
TABLE
  2
UCS
  5
6
330
0
100
AcDbSymbolTable
 70
0
  0
ENDTAB
  0
TABLE
  2
APPID
  5
3
330
0
100
AcDbSymbolTable
 70
3
  0
APPID
  5
2A
330
3
100
AcDbSymbolTableRecord
100
AcDbRegAppTableRecord
  2
ACAD
 70
0
  0
APPID
  5
1A0
330
3
100
AcDbSymbolTableRecord
100
AcDbRegAppTableRecord
  2
HATCHBACKGROUNDCOLOR
 70
0
  0
APPID
  5
1A1
330
3
100
AcDbSymbolTableRecord
100
AcDbRegAppTableRecord
  2
EZDXF
 70
0
  0
ENDTAB
  0
TABLE
  2
DIMSTYLE
  5
4
330
0
100
AcDbSymbolTable
 70
1
100
AcDbDimStyleTable
  0
DIMSTYLE
105
2B
330
4
100
AcDbSymbolTableRecord
100
AcDbDimStyleTableRecord
  2
Standard
 70
0
 40
1.0
 41
2.5
 42
0.625
 43
3.75
 44
1.25
 45
0.0
 46
0.0
 47
0.0
 48
0.0
 49
2.5
140
2.5
141
2.5
142
0.0
143
0.03937007874
144
1.0
145
0.0
146
1.0
147
0.625
148
0.0
 69
0
 70
0
 71
0
 72
0
 73
0
 74
0
 75
0
 76
0
 77
1
 78
8
 79
3
170
0
171
3
172
1
173
0
174
0
175
0
176
0
177
0
178
0
179
2
271
2
272
2
273
2
274
3
275
0
276
0
277
2
278
44
279
0
280
0
281
0
282
0
283
0
284
8
285
0
286
0
288
0
289
3
290
0
371
-2
372
-2
  0
ENDTAB
  0
TABLE
  2
BLOCK_RECORD
  5
9
330
0
100
AcDbSymbolTable
 70
2
  0
BLOCK_RECORD
  5
17
330
9
100
AcDbSymbolTableRecord
100
AcDbBlockTableRecord
  2
*Model_Space
340
1A
 70
0
280
1
281
0
  0
BLOCK_RECORD
  5
1B
330
9
100
AcDbSymbolTableRecord
100
AcDbBlockTableRecord
  2
*Paper_Space
340
1E
 70
0
280
1
281
0
  0
ENDTAB
  0
ENDSEC
  0
SECTION
  2
BLOCKS
  0
BLOCK
  5
18
330
17
100
AcDbEntity
  8
0
100
AcDbBlockBegin
  2
*Model_Space
 70
0
 10
0.0
 20
0.0
 30
0.0
  3
*Model_Space
  1

  0
ENDBLK
  5
19
330
17
100
AcDbEntity
  8
0
100
AcDbBlockEnd
  0
BLOCK
  5
1C
330
1B
100
AcDbEntity
  8
0
100
AcDbBlockBegin
  2
*Paper_Space
 70
0
 10
0.0
 20
0.0
 30
0.0
  3
*Paper_Space
  1

  0
ENDBLK
  5
1D
330
1B
100
AcDbEntity
  8
0
100
AcDbBlockEnd
  0
ENDSEC
  0
SECTION
  2
ENTITIES
  0
CIRCLE
  5
30
330
17
100
AcDbEntity
  8
0
100
AcDbCircle
 10
48.0
 20
48.00000000000006
 30
0.0
 40
6.5
  0
CIRCLE
  5
31
330
17
100
AcDbEntity
  8
0
100
AcDbCircle
 10
48.0
 20
283.8
 30
0.0
 40
6.5
  0
LWPOLYLINE
  5
32
330
17
100
AcDbEntity
  8
0
100
AcDbPolyline
 90
4
 70
1
 10
78.00000000000001
 20
283.8
 42
0.9999999999999999
 10
18.0
 20
283.8
 10
18.0
 20
48.0
 42
0.9999999999999999
 10
78.00000000000001
 20
48.00000000000006
  0
TEXT
  5
33
330
17
100
AcDbEntity
  8
LABEL
100
AcDbText
 10
48.00000000000001
 20
165.9
 30
0.0
 40
12.0
  1
LinkC
 72
1
 11
48.00000000000001
 21
165.9
 31
0.0
100
AcDbText
 73
2
  0
CIRCLE
  5
34
330
17
100
AcDbEntity
  8
0
100
AcDbCircle
 10
48.0
 20
349.8000000000001
 30
0.0
 40
6.5
  0
CIRCLE
  5
35
330
17
100
AcDbEntity
  8
0
100
AcDbCircle
 10
48.0
 20
585.6000000000001
 30
0.0
 40
6.5
  0
LWPOLYLINE
  5
36
330
17
100
AcDbEntity
  8
0
100
AcDbPolyline
 90
4
 70
1
 10
78.00000000000001
 20
585.6000000000001
 42
0.9999999999999999
 10
18.0
 20
585.6000000000001
 10
18.0
 20
349.80000000000007
 42
0.9999999999999999
 10
78.00000000000001
 20
349.8000000000001
  0
TEXT
  5
37
330
17
100
AcDbEntity
  8
LABEL
100
AcDbText
 10
48.00000000000001
 20
467.70000000000005
 30
0.0
 40
12.0
  1
LinkC
 72
1
 11
48.00000000000001
 21
467.70000000000005
 31
0.0
100
AcDbText
 73
2
  0
CIRCLE
  5
38
330
17
100
AcDbEntity
  8
0
100
AcDbCircle
 10
48.0
 20
651.6000000000001
 30
0.0
 40
6.5
  0
CIRCLE
  5
39
330
17
100
AcDbEntity
  8
0
100
AcDbCircle
 10
48.0
 20
887.4000000000001
 30
0.0
 40
6.5
  0
LWPOLYLINE
  5
3A
330
17
100
AcDbEntity
  8
0
100
AcDbPolyline
 90
4
 70
1
 10
78.00000000000001
 20
887.4000000000001
 42
0.9999999999999999
 10
18.0
 20
887.4000000000001
 10
18.0
 20
651.6
 42
0.9999999999999999
 10
78.00000000000001
 20
651.6000000000001
  0
TEXT
  5
3B
330
17
100
AcDbEntity
  8
LABEL
100
AcDbText
 10
48.00000000000001
 20
769.5
 30
0.0
 40
12.0
  1
LinkC
 72
1
 11
48.00000000000001
 21
769.5
 31
0.0
100
AcDbText
 73
2
  0
CIRCLE
  5
3C
330
17
100
AcDbEntity
  8
0
100
AcDbCircle
 10
48.00000000000006
 20
953.4000000000001
 30
0.0
 40
6.5
  0
CIRCLE
  5
3D
330
17
100
AcDbEntity
  8
0
100
AcDbCircle
 10
283.8
 20
953.4000000000001
 30
0.0
 40
6.5
  0
LWPOLYLINE
  5
3E
330
17
100
AcDbEntity
  8
0
100
AcDbPolyline
 90
4
 70
1
 10
283.8
 20
923.4000000000001
 42
0.9999999999999999
 10
283.8
 20
983.4000000000001
 10
48.0
 20
983.4000000000001
 42
0.9999999999999999
 10
48.00000000000006
 20
923.4000000000001
  0
TEXT
  5
3F
330
17
100
AcDbEntity
  8
LABEL
100
AcDbText
 10
165.9
 20
953.4000000000001
 30
0.0
 40
12.0
  1
LinkC
 72
1
 11
165.9
 21
953.4000000000001
 31
0.0
100
AcDbText
 73
2
  0
CIRCLE
  5
40
330
17
100
AcDbEntity
  8
0
100
AcDbCircle
 10
48.00000000000006
 20
1019.4000000000001
 30
0.0
 40
6.5
  0
CIRCLE
  5
41
330
17
100
AcDbEntity
  8
0
100
AcDbCircle
 10
283.8
 20
1019.4000000000001
 30
0.0
 40
6.5
  0
LWPOLYLINE
  5
42
330
17
100
AcDbEntity
  8
0
100
AcDbPolyline
 90
4
 70
1
 10
283.8
 20
989.4000000000001
 42
0.9999999999999999
 10
283.8
 20
1049.4
 10
48.0
 20
1049.4
 42
0.9999999999999999
 10
48.00000000000006
 20
989.4000000000001
  0
TEXT
  5
43
330
17
100
AcDbEntity
  8
LABEL
100
AcDbText
 10
165.9
 20
1019.4000000000001
 30
0.0
 40
12.0
  1
LinkC
 72
1
 11
165.9
 21
1019.4000000000001
 31
0.0
100
AcDbText
 73
2
  0
CIRCLE
  5
44
330
17
100
AcDbEntity
  8
0
100
AcDbCircle
 10
48.00000000000006
 20
1085.4
 30
0.0
 40
6.5
  0
CIRCLE
  5
45
330
17
100
AcDbEntity
  8
0
100
AcDbCircle
 10
283.8
 20
1085.4
 30
0.0
 40
6.5
  0
LWPOLYLINE
  5
46
330
17
100
AcDbEntity
  8
0
100
AcDbPolyline
 90
4
 70
1
 10
283.8
 20
1055.4
 42
0.9999999999999999
 10
283.8
 20
1115.4
 10
48.0
 20
1115.4
 42
0.9999999999999999
 10
48.00000000000006
 20
1055.4
  0
TEXT
  5
47
330
17
100
AcDbEntity
  8
LABEL
100
AcDbText
 10
165.9
 20
1085.4
 30
0.0
 40
12.0
  1
LinkC
 72
1
 11
165.9
 21
1085.4
 31
0.0
100
AcDbText
 73
2
  0
CIRCLE
  5
48
330
17
100
AcDbEntity
  8
0
100
AcDbCircle
 10
48.00000000000006
 20
1151.4
 30
0.0
 40
6.5
  0
CIRCLE
  5
49
330
17
100
AcDbEntity
  8
0
100
AcDbCircle
 10
283.8
 20
1151.4
 30
0.0
 40
6.5
  0
LWPOLYLINE
  5
4A
330
17
100
AcDbEntity
  8
0
100
AcDbPolyline
 90
4
 70
1
 10
283.8
 20
1121.4
 42
0.9999999999999999
 10
283.8
 20
1181.4
 10
48.0
 20
1181.4
 42
0.9999999999999999
 10
48.00000000000006
 20
1121.4
  0
TEXT
  5
4B
330
17
100
AcDbEntity
  8
LABEL
100
AcDbText
 10
165.9
 20
1151.4
 30
0.0
 40
12.0
  1
LinkC
 72
1
 11
165.9
 21
1151.4
 31
0.0
100
AcDbText
 73
2
  0
CIRCLE
  5
4C
330
17
100
AcDbEntity
  8
0
100
AcDbCircle
 10
114.0
 20
48.00000000000006
 30
0.0
 40
6.5
  0
CIRCLE
  5
4D
330
17
100
AcDbEntity
  8
0
100
AcDbCircle
 10
114.0
 20
283.8
 30
0.0
 40
6.5
  0
LWPOLYLINE
  5
4E
330
17
100
AcDbEntity
  8
0
100
AcDbPolyline
 90
4
 70
1
 10
144.0
 20
283.8
 42
0.9999999999999999
 10
84.0
 20
283.8
 10
84.0
 20
48.0
 42
0.9999999999999999
 10
144.0
 20
48.00000000000006
  0
TEXT
  5
4F
330
17
100
AcDbEntity
  8
LABEL
100
AcDbText
 10
114.00000000000003
 20
165.9
 30
0.0
 40
12.0
  1
LinkC
 72
1
 11
114.00000000000003
 21
165.9
 31
0.0
100
AcDbText
 73
2
  0
CIRCLE
  5
50
330
17
100
AcDbEntity
  8
0
100
AcDbCircle
 10
114.0
 20
349.8000000000001
 30
0.0
 40
6.5
  0
CIRCLE
  5
51
330
17
100
AcDbEntity
  8
0
100
AcDbCircle
 10
114.0
 20
585.6000000000001
 30
0.0
 40
6.5
  0
LWPOLYLINE
  5
52
330
17
100
AcDbEntity
  8
0
100
AcDbPolyline
 90
4
 70
1
 10
144.0
 20
585.6000000000001
 42
0.9999999999999999
 10
84.0
 20
585.6000000000001
 10
84.0
 20
349.80000000000007
 42
0.9999999999999999
 10
144.0
 20
349.8000000000001
  0
TEXT
  5
53
330
17
100
AcDbEntity
  8
LABEL
100
AcDbText
 10
114.00000000000003
 20
467.70000000000005
 30
0.0
 40
12.0
  1
LinkC
 72
1
 11
114.00000000000003
 21
467.70000000000005
 31
0.0
100
AcDbText
 73
2
  0
CIRCLE
  5
54
330
17
100
AcDbEntity
  8
0
100
AcDbCircle
 10
114.0
 20
651.6000000000001
 30
0.0
 40
6.5
  0
CIRCLE
  5
55
330
17
100
AcDbEntity
  8
0
100
AcDbCircle
 10
114.0
 20
887.4000000000001
 30
0.0
 40
6.5
  0
LWPOLYLINE
  5
56
330
17
100
AcDbEntity
  8
0
100
AcDbPolyline
 90
4
 70
1
 10
144.0
 20
887.4000000000001
 42
0.9999999999999999
 10
84.0
 20
887.4000000000001
 10
84.0
 20
651.6
 42
0.9999999999999999
 10
144.0
 20
651.6000000000001
  0
TEXT
  5
57
330
17
100
AcDbEntity
  8
LABEL
100
AcDbText
 10
114.00000000000003
 20
769.5
 30
0.0
 40
12.0
  1
LinkC
 72
1
 11
114.00000000000003
 21
769.5
 31
0.0
100
AcDbText
 73
2
  0
CIRCLE
  5
58
330
17
100
AcDbEntity
  8
0
100
AcDbCircle
 10
180.00000000000006
 20
48.00000000000006
 30
0.0
 40
6.5
  0
CIRCLE
  5
59
330
17
100
AcDbEntity
  8
0
100
AcDbCircle
 10
180.00000000000006
 20
283.8
 30
0.0
 40
6.5
  0
LWPOLYLINE
  5
5A
330
17
100
AcDbEntity
  8
0
100
AcDbPolyline
 90
4
 70
1
 10
210.00000000000006
 20
283.8
 42
0.9999999999999999
 10
150.00000000000006
 20
283.8
 10
150.00000000000006
 20
48.0
 42
0.9999999999999999
 10
210.00000000000006
 20
48.00000000000006
  0
TEXT
  5
5B
330
17
100
AcDbEntity
  8
LABEL
100
AcDbText
 10
180.00000000000006
 20
165.9
 30
0.0
 40
12.0
  1
LinkC
 72
1
 11
180.00000000000006
 21
165.9
 31
0.0
100
AcDbText
 73
2
  0
CIRCLE
  5
5C
330
17
100
AcDbEntity
  8
0
100
AcDbCircle
 10
180.00000000000006
 20
349.8000000000001
 30
0.0
 40
6.5
  0
CIRCLE
  5
5D
330
17
100
AcDbEntity
  8
0
100
AcDbCircle
 10
180.00000000000006
 20
585.6000000000001
 30
0.0
 40
6.5
  0
LWPOLYLINE
  5
5E
330
17
100
AcDbEntity
  8
0
100
AcDbPolyline
 90
4
 70
1
 10
210.00000000000006
 20
585.6000000000001
 42
0.9999999999999999
 10
150.00000000000006
 20
585.6000000000001
 10
150.00000000000006
 20
349.80000000000007
 42
0.9999999999999999
 10
210.00000000000006
 20
349.8000000000001
  0
TEXT
  5
5F
330
17
100
AcDbEntity
  8
LABEL
100
AcDbText
 10
180.00000000000006
 20
467.70000000000005
 30
0.0
 40
12.0
  1
LinkC
 72
1
 11
180.00000000000006
 21
467.70000000000005
 31
0.0
100
AcDbText
 73
2
  0
CIRCLE
  5
60
330
17
100
AcDbEntity
  8
0
100
AcDbCircle
 10
180.00000000000006
 20
651.6000000000001
 30
0.0
 40
6.5
  0
CIRCLE
  5
61
330
17
100
AcDbEntity
  8
0
100
AcDbCircle
 10
180.00000000000006
 20
887.4000000000001
 30
0.0
 40
6.5
  0
LWPOLYLINE
  5
62
330
17
100
AcDbEntity
  8
0
100
AcDbPolyline
 90
4
 70
1
 10
210.00000000000006
 20
887.4000000000001
 42
0.9999999999999999
 10
150.00000000000006
 20
887.4000000000001
 10
150.00000000000006
 20
651.6
 42
0.9999999999999999
 10
210.00000000000006
 20
651.6000000000001
  0
TEXT
  5
63
330
17
100
AcDbEntity
  8
LABEL
100
AcDbText
 10
180.00000000000006
 20
769.5
 30
0.0
 40
12.0
  1
LinkC
 72
1
 11
180.00000000000006
 21
769.5
 31
0.0
100
AcDbText
 73
2
  0
CIRCLE
  5
64
330
17
100
AcDbEntity
  8
0
100
AcDbCircle
 10
246.0000000000001
 20
48.00000000000006
 30
0.0
 40
6.5
  0
CIRCLE
  5
65
330
17
100
AcDbEntity
  8
0
100
AcDbCircle
 10
246.0000000000001
 20
283.8
 30
0.0
 40
6.5
  0
LWPOLYLINE
  5
66
330
17
100
AcDbEntity
  8
0
100
AcDbPolyline
 90
4
 70
1
 10
276.0000000000001
 20
283.8
 42
0.9999999999999999
 10
216.0000000000001
 20
283.8
 10
216.0000000000001
 20
48.0
 42
0.9999999999999999
 10
276.0000000000001
 20
48.00000000000006
  0
TEXT
  5
67
330
17
100
AcDbEntity
  8
LABEL
100
AcDbText
 10
246.00000000000009
 20
165.9
 30
0.0
 40
12.0
  1
LinkC
 72
1
 11
246.00000000000009
 21
165.9
 31
0.0
100
AcDbText
 73
2
  0
CIRCLE
  5
68
330
17
100
AcDbEntity
  8
0
100
AcDbCircle
 10
246.0000000000001
 20
349.8000000000001
 30
0.0
 40
6.5
  0
CIRCLE
  5
69
330
17
100
AcDbEntity
  8
0
100
AcDbCircle
 10
246.0000000000001
 20
585.6000000000001
 30
0.0
 40
6.5
  0
LWPOLYLINE
  5
6A
330
17
100
AcDbEntity
  8
0
100
AcDbPolyline
 90
4
 70
1
 10
276.0000000000001
 20
585.6000000000001
 42
0.9999999999999999
 10
216.0000000000001
 20
585.6000000000001
 10
216.0000000000001
 20
349.80000000000007
 42
0.9999999999999999
 10
276.0000000000001
 20
349.8000000000001
  0
TEXT
  5
6B
330
17
100
AcDbEntity
  8
LABEL
100
AcDbText
 10
246.00000000000009
 20
467.70000000000005
 30
0.0
 40
12.0
  1
LinkC
 72
1
 11
246.00000000000009
 21
467.70000000000005
 31
0.0
100
AcDbText
 73
2
  0
CIRCLE
  5
6C
330
17
100
AcDbEntity
  8
0
100
AcDbCircle
 10
246.0000000000001
 20
651.6000000000001
 30
0.0
 40
6.5
  0
CIRCLE
  5
6D
330
17
100
AcDbEntity
  8
0
100
AcDbCircle
 10
246.0000000000001
 20
887.4000000000001
 30
0.0
 40
6.5
  0
LWPOLYLINE
  5
6E
330
17
100
AcDbEntity
  8
0
100
AcDbPolyline
 90
4
 70
1
 10
276.0000000000001
 20
887.4000000000001
 42
0.9999999999999999
 10
216.0000000000001
 20
887.4000000000001
 10
216.0000000000001
 20
651.6
 42
0.9999999999999999
 10
276.0000000000001
 20
651.6000000000001
  0
TEXT
  5
6F
330
17
100
AcDbEntity
  8
LABEL
100
AcDbText
 10
246.00000000000009
 20
769.5
 30
0.0
 40
12.0
  1
LinkC
 72
1
 11
246.00000000000009
 21
769.5
 31
0.0
100
AcDbText
 73
2
  0
CIRCLE
  5
70
330
17
100
AcDbEntity
  8
0
100
AcDbCircle
 10
312.0000000000001
 20
48.00000000000006
 30
0.0
 40
6.5
  0
CIRCLE
  5
71
330
17
100
AcDbEntity
  8
0
100
AcDbCircle
 10
312.0000000000001
 20
283.8
 30
0.0
 40
6.5
  0
LWPOLYLINE
  5
72
330
17
100
AcDbEntity
  8
0
100
AcDbPolyline
 90
4
 70
1
 10
342.0000000000001
 20
283.8
 42
0.9999999999999999
 10
282.0000000000001
 20
283.8
 10
282.0000000000001
 20
48.0
 42
0.9999999999999999
 10
342.0000000000001
 20
48.00000000000006
  0
TEXT
  5
73
330
17
100
AcDbEntity
  8
LABEL
100
AcDbText
 10
312.0000000000001
 20
165.9
 30
0.0
 40
12.0
  1
LinkC
 72
1
 11
312.0000000000001
 21
165.9
 31
0.0
100
AcDbText
 73
2
  0
CIRCLE
  5
74
330
17
100
AcDbEntity
  8
0
100
AcDbCircle
 10
312.0000000000001
 20
349.8000000000001
 30
0.0
 40
6.5
  0
CIRCLE
  5
75
330
17
100
AcDbEntity
  8
0
100
AcDbCircle
 10
312.0000000000001
 20
585.6000000000001
 30
0.0
 40
6.5
  0
LWPOLYLINE
  5
76
330
17
100
AcDbEntity
  8
0
100
AcDbPolyline
 90
4
 70
1
 10
342.0000000000001
 20
585.6000000000001
 42
0.9999999999999999
 10
282.0000000000001
 20
585.6000000000001
 10
282.0000000000001
 20
349.80000000000007
 42
0.9999999999999999
 10
342.0000000000001
 20
349.8000000000001
  0
TEXT
  5
77
330
17
100
AcDbEntity
  8
LABEL
100
AcDbText
 10
312.0000000000001
 20
467.70000000000005
 30
0.0
 40
12.0
  1
LinkC
 72
1
 11
312.0000000000001
 21
467.70000000000005
 31
0.0
100
AcDbText
 73
2
  0
CIRCLE
  5
78
330
17
100
AcDbEntity
  8
0
100
AcDbCircle
 10
312.0000000000001
 20
651.6000000000001
 30
0.0
 40
6.5
  0
CIRCLE
  5
79
330
17
100
AcDbEntity
  8
0
100
AcDbCircle
 10
312.0000000000001
 20
887.4000000000001
 30
0.0
 40
6.5
  0
LWPOLYLINE
  5
7A
330
17
100
AcDbEntity
  8
0
100
AcDbPolyline
 90
4
 70
1
 10
342.0000000000001
 20
887.4000000000001
 42
0.9999999999999999
 10
282.0000000000001
 20
887.4000000000001
 10
282.0000000000001
 20
651.6
 42
0.9999999999999999
 10
342.0000000000001
 20
651.6000000000001
  0
TEXT
  5
7B
330
17
100
AcDbEntity
  8
LABEL
100
AcDbText
 10
312.0000000000001
 20
769.5
 30
0.0
 40
12.0
  1
LinkC
 72
1
 11
312.0000000000001
 21
769.5
 31
0.0
100
AcDbText
 73
2
  0
CIRCLE
  5
7C
330
17
100
AcDbEntity
  8
0
100
AcDbCircle
 10
349.8000000000001
 20
953.4000000000001
 30
0.0
 40
6.5
  0
CIRCLE
  5
7D
330
17
100
AcDbEntity
  8
0
100
AcDbCircle
 10
585.6
 20
953.4000000000001
 30
0.0
 40
6.5
  0
LWPOLYLINE
  5
7E
330
17
100
AcDbEntity
  8
0
100
AcDbPolyline
 90
4
 70
1
 10
585.6000000000001
 20
923.4000000000001
 42
0.9999999999999999
 10
585.6000000000001
 20
983.4000000000001
 10
349.80000000000007
 20
983.4000000000001
 42
0.9999999999999999
 10
349.8000000000001
 20
923.4000000000001
  0
TEXT
  5
7F
330
17
100
AcDbEntity
  8
LABEL
100
AcDbText
 10
467.70000000000005
 20
953.4000000000001
 30
0.0
 40
12.0
  1
LinkC
 72
1
 11
467.70000000000005
 21
953.4000000000001
 31
0.0
100
AcDbText
 73
2
  0
CIRCLE
  5
80
330
17
100
AcDbEntity
  8
0
100
AcDbCircle
 10
349.8000000000001
 20
1019.4000000000001
 30
0.0
 40
6.5
  0
CIRCLE
  5
81
330
17
100
AcDbEntity
  8
0
100
AcDbCircle
 10
585.6
 20
1019.4000000000001
 30
0.0
 40
6.5
  0
LWPOLYLINE
  5
82
330
17
100
AcDbEntity
  8
0
100
AcDbPolyline
 90
4
 70
1
 10
585.6000000000001
 20
989.4000000000001
 42
0.9999999999999999
 10
585.6000000000001
 20
1049.4
 10
349.80000000000007
 20
1049.4
 42
0.9999999999999999
 10
349.8000000000001
 20
989.4000000000001
  0
TEXT
  5
83
330
17
100
AcDbEntity
  8
LABEL
100
AcDbText
 10
467.70000000000005
 20
1019.4000000000001
 30
0.0
 40
12.0
  1
LinkC
 72
1
 11
467.70000000000005
 21
1019.4000000000001
 31
0.0
100
AcDbText
 73
2
  0
CIRCLE
  5
84
330
17
100
AcDbEntity
  8
0
100
AcDbCircle
 10
349.8000000000001
 20
1085.4
 30
0.0
 40
6.5
  0
CIRCLE
  5
85
330
17
100
AcDbEntity
  8
0
100
AcDbCircle
 10
585.6
 20
1085.4
 30
0.0
 40
6.5
  0
LWPOLYLINE
  5
86
330
17
100
AcDbEntity
  8
0
100
AcDbPolyline
 90
4
 70
1
 10
585.6000000000001
 20
1055.4
 42
0.9999999999999999
 10
585.6000000000001
 20
1115.4
 10
349.80000000000007
 20
1115.4
 42
0.9999999999999999
 10
349.8000000000001
 20
1055.4
  0
TEXT
  5
87
330
17
100
AcDbEntity
  8
LABEL
100
AcDbText
 10
467.70000000000005
 20
1085.4
 30
0.0
 40
12.0
  1
LinkC
 72
1
 11
467.70000000000005
 21
1085.4
 31
0.0
100
AcDbText
 73
2
  0
CIRCLE
  5
88
330
17
100
AcDbEntity
  8
0
100
AcDbCircle
 10
349.8000000000001
 20
1151.4
 30
0.0
 40
6.5
  0
CIRCLE
  5
89
330
17
100
AcDbEntity
  8
0
100
AcDbCircle
 10
585.6
 20
1151.4
 30
0.0
 40
6.5
  0
LWPOLYLINE
  5
8A
330
17
100
AcDbEntity
  8
0
100
AcDbPolyline
 90
4
 70
1
 10
585.6000000000001
 20
1121.4
 42
0.9999999999999999
 10
585.6000000000001
 20
1181.4
 10
349.80000000000007
 20
1181.4
 42
0.9999999999999999
 10
349.8000000000001
 20
1121.4
  0
TEXT
  5
8B
330
17
100
AcDbEntity
  8
LABEL
100
AcDbText
 10
467.70000000000005
 20
1151.4
 30
0.0
 40
12.0
  1
LinkC
 72
1
 11
467.70000000000005
 21
1151.4
 31
0.0
100
AcDbText
 73
2
  0
CIRCLE
  5
8C
330
17
100
AcDbEntity
  8
0
100
AcDbCircle
 10
378.0000000000001
 20
48.00000000000006
 30
0.0
 40
6.5
  0
CIRCLE
  5
8D
330
17
100
AcDbEntity
  8
0
100
AcDbCircle
 10
378.0000000000001
 20
283.8
 30
0.0
 40
6.5
  0
LWPOLYLINE
  5
8E
330
17
100
AcDbEntity
  8
0
100
AcDbPolyline
 90
4
 70
1
 10
408.0000000000001
 20
283.8
 42
0.9999999999999999
 10
348.0000000000001
 20
283.8
 10
348.0000000000001
 20
48.0
 42
0.9999999999999999
 10
408.0000000000001
 20
48.00000000000006
  0
TEXT
  5
8F
330
17
100
AcDbEntity
  8
LABEL
100
AcDbText
 10
378.0000000000001
 20
165.9
 30
0.0
 40
12.0
  1
LinkC
 72
1
 11
378.0000000000001
 21
165.9
 31
0.0
100
AcDbText
 73
2
  0
CIRCLE
  5
90
330
17
100
AcDbEntity
  8
0
100
AcDbCircle
 10
378.0000000000001
 20
349.8000000000001
 30
0.0
 40
6.5
  0
CIRCLE
  5
91
330
17
100
AcDbEntity
  8
0
100
AcDbCircle
 10
378.0000000000001
 20
585.6000000000001
 30
0.0
 40
6.5
  0
LWPOLYLINE
  5
92
330
17
100
AcDbEntity
  8
0
100
AcDbPolyline
 90
4
 70
1
 10
408.0000000000001
 20
585.6000000000001
 42
0.9999999999999999
 10
348.0000000000001
 20
585.6000000000001
 10
348.0000000000001
 20
349.80000000000007
 42
0.9999999999999999
 10
408.0000000000001
 20
349.8000000000001
  0
TEXT
  5
93
330
17
100
AcDbEntity
  8
LABEL
100
AcDbText
 10
378.0000000000001
 20
467.70000000000005
 30
0.0
 40
12.0
  1
LinkC
 72
1
 11
378.0000000000001
 21
467.70000000000005
 31
0.0
100
AcDbText
 73
2
  0
CIRCLE
  5
94
330
17
100
AcDbEntity
  8
0
100
AcDbCircle
 10
378.0000000000001
 20
651.6000000000001
 30
0.0
 40
6.5
  0
CIRCLE
  5
95
330
17
100
AcDbEntity
  8
0
100
AcDbCircle
 10
378.0000000000001
 20
887.4000000000001
 30
0.0
 40
6.5
  0
LWPOLYLINE
  5
96
330
17
100
AcDbEntity
  8
0
100
AcDbPolyline
 90
4
 70
1
 10
408.0000000000001
 20
887.4000000000001
 42
0.9999999999999999
 10
348.0000000000001
 20
887.4000000000001
 10
348.0000000000001
 20
651.6
 42
0.9999999999999999
 10
408.0000000000001
 20
651.6000000000001
  0
TEXT
  5
97
330
17
100
AcDbEntity
  8
LABEL
100
AcDbText
 10
378.0000000000001
 20
769.5
 30
0.0
 40
12.0
  1
LinkC
 72
1
 11
378.0000000000001
 21
769.5
 31
0.0
100
AcDbText
 73
2
  0
CIRCLE
  5
98
330
17
100
AcDbEntity
  8
0
100
AcDbCircle
 10
444.0000000000001
 20
48.00000000000006
 30
0.0
 40
6.5
  0
CIRCLE
  5
99
330
17
100
AcDbEntity
  8
0
100
AcDbCircle
 10
444.0000000000001
 20
283.8
 30
0.0
 40
6.5
  0
LWPOLYLINE
  5
9A
330
17
100
AcDbEntity
  8
0
100
AcDbPolyline
 90
4
 70
1
 10
474.0000000000001
 20
283.8
 42
0.9999999999999999
 10
414.0000000000001
 20
283.8
 10
414.0000000000001
 20
48.0
 42
0.9999999999999999
 10
474.0000000000001
 20
48.00000000000006
  0
TEXT
  5
9B
330
17
100
AcDbEntity
  8
LABEL
100
AcDbText
 10
444.0000000000001
 20
165.9
 30
0.0
 40
12.0
  1
LinkC
 72
1
 11
444.0000000000001
 21
165.9
 31
0.0
100
AcDbText
 73
2
  0
CIRCLE
  5
9C
330
17
100
AcDbEntity
  8
0
100
AcDbCircle
 10
444.0000000000001
 20
349.8000000000001
 30
0.0
 40
6.5
  0
CIRCLE
  5
9D
330
17
100
AcDbEntity
  8
0
100
AcDbCircle
 10
444.0000000000001
 20
585.6000000000001
 30
0.0
 40
6.5
  0
LWPOLYLINE
  5
9E
330
17
100
AcDbEntity
  8
0
100
AcDbPolyline
 90
4
 70
1
 10
474.0000000000001
 20
585.6000000000001
 42
0.9999999999999999
 10
414.0000000000001
 20
585.6000000000001
 10
414.0000000000001
 20
349.80000000000007
 42
0.9999999999999999
 10
474.0000000000001
 20
349.8000000000001
  0
TEXT
  5
9F
330
17
100
AcDbEntity
  8
LABEL
100
AcDbText
 10
444.0000000000001
 20
467.70000000000005
 30
0.0
 40
12.0
  1
LinkC
 72
1
 11
444.0000000000001
 21
467.70000000000005
 31
0.0
100
AcDbText
 73
2
  0
CIRCLE
  5
A0
330
17
100
AcDbEntity
  8
0
100
AcDbCircle
 10
444.0000000000001
 20
651.6000000000001
 30
0.0
 40
6.5
  0
CIRCLE
  5
A1
330
17
100
AcDbEntity
  8
0
100
AcDbCircle
 10
444.0000000000001
 20
887.4000000000001
 30
0.0
 40
6.5
  0
LWPOLYLINE
  5
A2
330
17
100
AcDbEntity
  8
0
100
AcDbPolyline
 90
4
 70
1
 10
474.0000000000001
 20
887.4000000000001
 42
0.9999999999999999
 10
414.0000000000001
 20
887.4000000000001
 10
414.0000000000001
 20
651.6
 42
0.9999999999999999
 10
474.0000000000001
 20
651.6000000000001
  0
TEXT
  5
A3
330
17
100
AcDbEntity
  8
LABEL
100
AcDbText
 10
444.0000000000001
 20
769.5
 30
0.0
 40
12.0
  1
LinkC
 72
1
 11
444.0000000000001
 21
769.5
 31
0.0
100
AcDbText
 73
2
  0
CIRCLE
  5
A4
330
17
100
AcDbEntity
  8
0
100
AcDbCircle
 10
510.0000000000001
 20
48.00000000000006
 30
0.0
 40
6.5
  0
CIRCLE
  5
A5
330
17
100
AcDbEntity
  8
0
100
AcDbCircle
 10
510.0000000000001
 20
283.8
 30
0.0
 40
6.5
  0
LWPOLYLINE
  5
A6
330
17
100
AcDbEntity
  8
0
100
AcDbPolyline
 90
4
 70
1
 10
540.0000000000001
 20
283.8
 42
0.9999999999999999
 10
480.0000000000001
 20
283.8
 10
480.0000000000001
 20
48.0
 42
0.9999999999999999
 10
540.0000000000001
 20
48.00000000000006
  0
TEXT
  5
A7
330
17
100
AcDbEntity
  8
LABEL
100
AcDbText
 10
510.0000000000001
 20
165.9
 30
0.0
 40
12.0
  1
LinkC
 72
1
 11
510.0000000000001
 21
165.9
 31
0.0
100
AcDbText
 73
2
  0
CIRCLE
  5
A8
330
17
100
AcDbEntity
  8
0
100
AcDbCircle
 10
510.0000000000001
 20
349.8000000000001
 30
0.0
 40
6.5
  0
CIRCLE
  5
A9
330
17
100
AcDbEntity
  8
0
100
AcDbCircle
 10
510.0000000000001
 20
585.6000000000001
 30
0.0
 40
6.5
  0
LWPOLYLINE
  5
AA
330
17
100
AcDbEntity
  8
0
100
AcDbPolyline
 90
4
 70
1
 10
540.0000000000001
 20
585.6000000000001
 42
0.9999999999999999
 10
480.0000000000001
 20
585.6000000000001
 10
480.0000000000001
 20
349.80000000000007
 42
0.9999999999999999
 10
540.0000000000001
 20
349.8000000000001
  0
TEXT
  5
AB
330
17
100
AcDbEntity
  8
LABEL
100
AcDbText
 10
510.0000000000001
 20
467.70000000000005
 30
0.0
 40
12.0
  1
LinkC
 72
1
 11
510.0000000000001
 21
467.70000000000005
 31
0.0
100
AcDbText
 73
2
  0
CIRCLE
  5
AC
330
17
100
AcDbEntity
  8
0
100
AcDbCircle
 10
510.0000000000001
 20
651.6000000000001
 30
0.0
 40
6.5
  0
CIRCLE
  5
AD
330
17
100
AcDbEntity
  8
0
100
AcDbCircle
 10
510.0000000000001
 20
887.4000000000001
 30
0.0
 40
6.5
  0
LWPOLYLINE
  5
AE
330
17
100
AcDbEntity
  8
0
100
AcDbPolyline
 90
4
 70
1
 10
540.0000000000001
 20
887.4000000000001
 42
0.9999999999999999
 10
480.0000000000001
 20
887.4000000000001
 10
480.0000000000001
 20
651.6
 42
0.9999999999999999
 10
540.0000000000001
 20
651.6000000000001
  0
TEXT
  5
AF
330
17
100
AcDbEntity
  8
LABEL
100
AcDbText
 10
510.0000000000001
 20
769.5
 30
0.0
 40
12.0
  1
LinkC
 72
1
 11
510.0000000000001
 21
769.5
 31
0.0
100
AcDbText
 73
2
  0
CIRCLE
  5
B0
330
17
100
AcDbEntity
  8
0
100
AcDbCircle
 10
570.000000357628
 20
42.00000367427492
 30
-5.551115123125783e-16
 40
6.5
  0
LWPOLYLINE
  5
B1
330
17
100
AcDbEntity
  8
0
100
AcDbPolyline
 90
3
 70
1
 10
558.0000001788143
 20
278.53878737666173
 42
81.92927544653593
 10
558.0210695913636
 20
279.12419223835286
 10
558.0000001788143
 20
279.12419223835286
  0
LWPOLYLINE
  5
B2
330
17
100
AcDbEntity
  8
0
100
AcDbPolyline
 90
4
 70
1
 10
546.0000003576275
 20
42.00000367427447
 42
1.0157787888818275
 10
593.9882375877975
 20
42.75131891378942
 10
593.9882375877975
 20
279.1252354466046
 42
0.9809821123637654
 10
546.0000000000002
 20
278.59625324410536
  0
TEXT
  5
B3
330
17
100
AcDbEntity
  8
LABEL
100
AcDbText
 10
570.000023312989
 20
160.20001647493382
 30
0.0
 40
12.0
  1
LinkF
 72
1
 11
570.000023312989
 21
160.20001647493382
 31
0.0
100
AcDbText
 73
2
  0
CIRCLE
  5
B4
330
17
100
AcDbEntity
  8
0
100
AcDbCircle
 10
570.000000357628
 20
332.40003662414256
 30
-5.551115123125783e-16
 40
6.5
  0
LWPOLYLINE
  5
B5
330
17
100
AcDbEntity
  8
0
100
AcDbPolyline
 90
3
 70
1
 10
558.0000001788143
 20
568.9388203265294
 42
81.92927544653593
 10
558.0210695913636
 20
569.5242251882205
 10
558.0000001788143
 20
569.5242251882205
  0
LWPOLYLINE
  5
B6
330
17
100
AcDbEntity
  8
0
100
AcDbPolyline
 90
4
 70
1
 10
546.0000003576275
 20
332.4000366241421
 42
1.0157787888818275
 10
593.9882375877975
 20
333.15135186365706
 10
593.9882375877975
 20
569.5252683964723
 42
0.9809821123637654
 10
546.0000000000002
 20
568.996286193973
  0
TEXT
  5
B7
330
17
100
AcDbEntity
  8
LABEL
100
AcDbText
 10
570.000023312989
 20
450.60004942480145
 30
0.0
 40
12.0
  1
LinkF
 72
1
 11
570.000023312989
 21
450.60004942480145
 31
0.0
100
AcDbText
 73
2
  0
CIRCLE
  5
B8
330
17
100
AcDbEntity
  8
0
100
AcDbCircle
 10
570.000000357628
 20
622.8000695740102
 30
-5.551115123125783e-16
 40
6.5
  0
LWPOLYLINE
  5
B9
330
17
100
AcDbEntity
  8
0
100
AcDbPolyline
 90
3
 70
1
 10
558.0000001788143
 20
859.338853276397
 42
81.92927544653593
 10
558.0210695913636
 20
859.9242581380881
 10
558.0000001788143
 20
859.9242581380881
  0
LWPOLYLINE
  5
BA
330
17
100
AcDbEntity
  8
0
100
AcDbPolyline
 90
4
 70
1
 10
546.0000003576275
 20
622.8000695740097
 42
1.0157787888818275
 10
593.9882375877975
 20
623.5513848135247
 10
593.9882375877975
 20
859.9253013463399
 42
0.9809821123637654
 10
546.0000000000002
 20
859.3963191438406
  0
TEXT
  5
BB
330
17
100
AcDbEntity
  8
LABEL
100
AcDbText
 10
570.000023312989
 20
741.0000823746691
 30
0.0
 40
12.0
  1
LinkF
 72
1
 11
570.000023312989
 21
741.0000823746691
 31
0.0
100
AcDbText
 73
2
  0
CIRCLE
  5
BC
330
17
100
AcDbEntity
  8
0
100
AcDbCircle
 10
624.0000469836056
 20
42.00000367427492
 30
-5.551115123125783e-16
 40
6.5
  0
LWPOLYLINE
  5
BD
330
17
100
AcDbEntity
  8
0
100
AcDbPolyline
 90
3
 70
1
 10
612.0000468047919
 20
278.53878737666173
 42
81.92927544653593
 10
612.0211162173412
 20
279.12419223835286
 10
612.0000468047919
 20
279.12419223835286
  0
LWPOLYLINE
  5
BE
330
17
100
AcDbEntity
  8
0
100
AcDbPolyline
 90
4
 70
1
 10
600.0000469836051
 20
42.00000367427447
 42
1.0157787888818275
 10
647.988284213775
 20
42.75131891378942
 10
647.988284213775
 20
279.1252354466046
 42
0.9809821123637654
 10
600.0000466259778
 20
278.59625324410536
  0
TEXT
  5
BF
330
17
100
AcDbEntity
  8
LABEL
100
AcDbText
 10
624.0000699389666
 20
160.20001647493382
 30
0.0
 40
12.0
  1
LinkF
 72
1
 11
624.0000699389666
 21
160.20001647493382
 31
0.0
100
AcDbText
 73
2
  0
CIRCLE
  5
C0
330
17
100
AcDbEntity
  8
0
100
AcDbCircle
 10
624.0000469836056
 20
332.40003662414256
 30
-5.551115123125783e-16
 40
6.5
  0
LWPOLYLINE
  5
C1
330
17
100
AcDbEntity
  8
0
100
AcDbPolyline
 90
3
 70
1
 10
612.0000468047919
 20
568.9388203265294
 42
81.92927544653593
 10
612.0211162173412
 20
569.5242251882205
 10
612.0000468047919
 20
569.5242251882205
  0
LWPOLYLINE
  5
C2
330
17
100
AcDbEntity
  8
0
100
AcDbPolyline
 90
4
 70
1
 10
600.0000469836051
 20
332.4000366241421
 42
1.0157787888818275
 10
647.988284213775
 20
333.15135186365706
 10
647.988284213775
 20
569.5252683964723
 42
0.9809821123637654
 10
600.0000466259778
 20
568.996286193973
  0
TEXT
  5
C3
330
17
100
AcDbEntity
  8
LABEL
100
AcDbText
 10
624.0000699389666
 20
450.60004942480145
 30
0.0
 40
12.0
  1
LinkF
 72
1
 11
624.0000699389666
 21
450.60004942480145
 31
0.0
100
AcDbText
 73
2
  0
CIRCLE
  5
C4
330
17
100
AcDbEntity
  8
0
100
AcDbCircle
 10
624.0000469836056
 20
622.8000695740102
 30
-5.551115123125783e-16
 40
6.5
  0
LWPOLYLINE
  5
C5
330
17
100
AcDbEntity
  8
0
100
AcDbPolyline
 90
3
 70
1
 10
612.0000468047919
 20
859.338853276397
 42
81.92927544653593
 10
612.0211162173412
 20
859.9242581380881
 10
612.0000468047919
 20
859.9242581380881
  0
LWPOLYLINE
  5
C6
330
17
100
AcDbEntity
  8
0
100
AcDbPolyline
 90
4
 70
1
 10
600.0000469836051
 20
622.8000695740097
 42
1.0157787888818275
 10
647.988284213775
 20
623.5513848135247
 10
647.988284213775
 20
859.9253013463399
 42
0.9809821123637654
 10
600.0000466259778
 20
859.3963191438406
  0
TEXT
  5
C7
330
17
100
AcDbEntity
  8
LABEL
100
AcDbText
 10
624.0000699389666
 20
741.0000823746691
 30
0.0
 40
12.0
  1
LinkF
 72
1
 11
624.0000699389666
 21
741.0000823746691
 31
0.0
100
AcDbText
 73
2
  0
CIRCLE
  5
C8
330
17
100
AcDbEntity
  8
0
100
AcDbCircle
 10
645.6000003576279
 20
913.2001025238778
 30
-5.551115123125783e-16
 40
6.5
  0
LWPOLYLINE
  5
C9
330
17
100
AcDbEntity
  8
0
100
AcDbPolyline
 90
3
 70
1
 10
633.6000001788142
 20
1149.7388862262646
 42
81.92927544653593
 10
633.6210695913635
 20
1150.3242910879558
 10
633.6000001788142
 20
1150.3242910879558
  0
LWPOLYLINE
  5
CA
330
17
100
AcDbEntity
  8
0
100
AcDbPolyline
 90
4
 70
1
 10
621.6000003576274
 20
913.2001025238774
 42
1.0157787888818275
 10
669.5882375877974
 20
913.9514177633923
 10
669.5882375877974
 20
1150.3253342962075
 42
0.9809821123637654
 10
621.6000000000001
 20
1149.7963520937083
  0
TEXT
  5
CB
330
17
100
AcDbEntity
  8
LABEL
100
AcDbText
 10
645.6000233129889
 20
1031.4001153245367
 30
0.0
 40
12.0
  1
LinkF
 72
1
 11
645.6000233129889
 21
1031.4001153245367
 31
0.0
100
AcDbText
 73
2
  0
CIRCLE
  5
CC
330
17
100
AcDbEntity
  8
0
100
AcDbCircle
 10
678.0000936095831
 20
42.00000367427492
 30
-5.551115123125783e-16
 40
6.5
  0
LWPOLYLINE
  5
CD
330
17
100
AcDbEntity
  8
0
100
AcDbPolyline
 90
3
 70
1
 10
666.0000934307694
 20
278.53878737666173
 42
81.92927544653593
 10
666.0211628433187
 20
279.12419223835286
 10
666.0000934307694
 20
279.12419223835286
  0
LWPOLYLINE
  5
CE
330
17
100
AcDbEntity
  8
0
100
AcDbPolyline
 90
4
 70
1
 10
654.0000936095827
 20
42.00000367427447
 42
1.0157787888818275
 10
701.9883308397526
 20
42.75131891378942
 10
701.9883308397526
 20
279.1252354466046
 42
0.9809821123637654
 10
654.0000932519554
 20
278.59625324410536
  0
TEXT
  5
CF
330
17
100
AcDbEntity
  8
LABEL
100
AcDbText
 10
678.0001165649444
 20
160.20001647493382
 30
0.0
 40
12.0
  1
LinkF
 72
1
 11
678.0001165649444
 21
160.20001647493382
 31
0.0
100
AcDbText
 73
2
  0
CIRCLE
  5
D0
330
17
100
AcDbEntity
  8
0
100
AcDbCircle
 10
678.0000936095831
 20
332.40003662414256
 30
-5.551115123125783e-16
 40
6.5
  0
LWPOLYLINE
  5
D1
330
17
100
AcDbEntity
  8
0
100
AcDbPolyline
 90
3
 70
1
 10
666.0000934307694
 20
568.9388203265294
 42
81.92927544653593
 10
666.0211628433187
 20
569.5242251882205
 10
666.0000934307694
 20
569.5242251882205
  0
LWPOLYLINE
  5
D2
330
17
100
AcDbEntity
  8
0
100
AcDbPolyline
 90
4
 70
1
 10
654.0000936095827
 20
332.4000366241421
 42
1.0157787888818275
 10
701.9883308397526
 20
333.15135186365706
 10
701.9883308397526
 20
569.5252683964723
 42
0.9809821123637654
 10
654.0000932519554
 20
568.996286193973
  0
TEXT
  5
D3
330
17
100
AcDbEntity
  8
LABEL
100
AcDbText
 10
678.0001165649444
 20
450.60004942480145
 30
0.0
 40
12.0
  1
LinkF
 72
1
 11
678.0001165649444
 21
450.60004942480145
 31
0.0
100
AcDbText
 73
2
  0
CIRCLE
  5
D4
330
17
100
AcDbEntity
  8
0
100
AcDbCircle
 10
678.0000936095831
 20
622.8000695740102
 30
-5.551115123125783e-16
 40
6.5
  0
LWPOLYLINE
  5
D5
330
17
100
AcDbEntity
  8
0
100
AcDbPolyline
 90
3
 70
1
 10
666.0000934307694
 20
859.338853276397
 42
81.92927544653593
 10
666.0211628433187
 20
859.9242581380881
 10
666.0000934307694
 20
859.9242581380881
  0
LWPOLYLINE
  5
D6
330
17
100
AcDbEntity
  8
0
100
AcDbPolyline
 90
4
 70
1
 10
654.0000936095827
 20
622.8000695740097
 42
1.0157787888818275
 10
701.9883308397526
 20
623.5513848135247
 10
701.9883308397526
 20
859.9253013463399
 42
0.9809821123637654
 10
654.0000932519554
 20
859.3963191438406
  0
TEXT
  5
D7
330
17
100
AcDbEntity
  8
LABEL
100
AcDbText
 10
678.0001165649444
 20
741.0000823746691
 30
0.0
 40
12.0
  1
LinkF
 72
1
 11
678.0001165649444
 21
741.0000823746691
 31
0.0
100
AcDbText
 73
2
  0
CIRCLE
  5
D8
330
17
100
AcDbEntity
  8
0
100
AcDbCircle
 10
699.6000469836055
 20
913.2001025238778
 30
-5.551115123125783e-16
 40
6.5
  0
LWPOLYLINE
  5
D9
330
17
100
AcDbEntity
  8
0
100
AcDbPolyline
 90
3
 70
1
 10
687.6000468047918
 20
1149.7388862262646
 42
81.92927544653593
 10
687.6211162173411
 20
1150.3242910879558
 10
687.6000468047918
 20
1150.3242910879558
  0
LWPOLYLINE
  5
DA
330
17
100
AcDbEntity
  8
0
100
AcDbPolyline
 90
4
 70
1
 10
675.600046983605
 20
913.2001025238774
 42
1.0157787888818275
 10
723.588284213775
 20
913.9514177633923
 10
723.588284213775
 20
1150.3253342962075
 42
0.9809821123637654
 10
675.6000466259777
 20
1149.7963520937083
  0
TEXT
  5
DB
330
17
100
AcDbEntity
  8
LABEL
100
AcDbText
 10
699.6000699389665
 20
1031.4001153245367
 30
0.0
 40
12.0
  1
LinkF
 72
1
 11
699.6000699389665
 21
1031.4001153245367
 31
0.0
100
AcDbText
 73
2
  0
CIRCLE
  5
DC
330
17
100
AcDbEntity
  8
0
100
AcDbCircle
 10
732.0001402355609
 20
42.00000367427492
 30
-5.551115123125783e-16
 40
6.5
  0
LWPOLYLINE
  5
DD
330
17
100
AcDbEntity
  8
0
100
AcDbPolyline
 90
3
 70
1
 10
720.0001400567472
 20
278.53878737666173
 42
81.92927544653593
 10
720.0212094692965
 20
279.12419223835286
 10
720.0001400567472
 20
279.12419223835286
  0
LWPOLYLINE
  5
DE
330
17
100
AcDbEntity
  8
0
100
AcDbPolyline
 90
4
 70
1
 10
708.0001402355605
 20
42.00000367427447
 42
1.0157787888818275
 10
755.9883774657304
 20
42.75131891378942
 10
755.9883774657304
 20
279.1252354466046
 42
0.9809821123637654
 10
708.0001398779332
 20
278.59625324410536
  0
TEXT
  5
DF
330
17
100
AcDbEntity
  8
LABEL
100
AcDbText
 10
732.000163190922
 20
160.20001647493382
 30
0.0
 40
12.0
  1
LinkF
 72
1
 11
732.000163190922
 21
160.20001647493382
 31
0.0
100
AcDbText
 73
2
  0
CIRCLE
  5
E0
330
17
100
AcDbEntity
  8
0
100
AcDbCircle
 10
732.0001402355609
 20
332.40003662414256
 30
-5.551115123125783e-16
 40
6.5
  0
LWPOLYLINE
  5
E1
330
17
100
AcDbEntity
  8
0
100
AcDbPolyline
 90
3
 70
1
 10
720.0001400567472
 20
568.9388203265294
 42
81.92927544653593
 10
720.0212094692965
 20
569.5242251882205
 10
720.0001400567472
 20
569.5242251882205
  0
LWPOLYLINE
  5
E2
330
17
100
AcDbEntity
  8
0
100
AcDbPolyline
 90
4
 70
1
 10
708.0001402355605
 20
332.4000366241421
 42
1.0157787888818275
 10
755.9883774657304
 20
333.15135186365706
 10
755.9883774657304
 20
569.5252683964723
 42
0.9809821123637654
 10
708.0001398779332
 20
568.996286193973
  0
TEXT
  5
E3
330
17
100
AcDbEntity
  8
LABEL
100
AcDbText
 10
732.000163190922
 20
450.60004942480145
 30
0.0
 40
12.0
  1
LinkF
 72
1
 11
732.000163190922
 21
450.60004942480145
 31
0.0
100
AcDbText
 73
2
  0
CIRCLE
  5
E4
330
17
100
AcDbEntity
  8
0
100
AcDbCircle
 10
732.0001402355609
 20
622.8000695740102
 30
-5.551115123125783e-16
 40
6.5
  0
LWPOLYLINE
  5
E5
330
17
100
AcDbEntity
  8
0
100
AcDbPolyline
 90
3
 70
1
 10
720.0001400567472
 20
859.338853276397
 42
81.92927544653593
 10
720.0212094692965
 20
859.9242581380881
 10
720.0001400567472
 20
859.9242581380881
  0
LWPOLYLINE
  5
E6
330
17
100
AcDbEntity
  8
0
100
AcDbPolyline
 90
4
 70
1
 10
708.0001402355605
 20
622.8000695740097
 42
1.0157787888818275
 10
755.9883774657304
 20
623.5513848135247
 10
755.9883774657304
 20
859.9253013463399
 42
0.9809821123637654
 10
708.0001398779332
 20
859.3963191438406
  0
TEXT
  5
E7
330
17
100
AcDbEntity
  8
LABEL
100
AcDbText
 10
732.000163190922
 20
741.0000823746691
 30
0.0
 40
12.0
  1
LinkF
 72
1
 11
732.000163190922
 21
741.0000823746691
 31
0.0
100
AcDbText
 73
2
  0
CIRCLE
  5
E8
330
17
100
AcDbEntity
  8
0
100
AcDbCircle
 10
753.600093609583
 20
913.2001025238778
 30
-5.551115123125783e-16
 40
6.5
  0
LWPOLYLINE
  5
E9
330
17
100
AcDbEntity
  8
0
100
AcDbPolyline
 90
3
 70
1
 10
741.6000934307693
 20
1149.7388862262646
 42
81.92927544653593
 10
741.6211628433186
 20
1150.3242910879558
 10
741.6000934307693
 20
1150.3242910879558
  0
LWPOLYLINE
  5
EA
330
17
100
AcDbEntity
  8
0
100
AcDbPolyline
 90
4
 70
1
 10
729.6000936095826
 20
913.2001025238774
 42
1.0157787888818275
 10
777.5883308397525
 20
913.9514177633923
 10
777.5883308397525
 20
1150.3253342962075
 42
0.9809821123637654
 10
729.6000932519553
 20
1149.7963520937083
  0
TEXT
  5
EB
330
17
100
AcDbEntity
  8
LABEL
100
AcDbText
 10
753.6001165649443
 20
1031.4001153245367
 30
0.0
 40
12.0
  1
LinkF
 72
1
 11
753.6001165649443
 21
1031.4001153245367
 31
0.0
100
AcDbText
 73
2
  0
CIRCLE
  5
EC
330
17
100
AcDbEntity
  8
0
100
AcDbCircle
 10
786.0001868615387
 20
42.00000367427492
 30
-5.551115123125783e-16
 40
6.5
  0
LWPOLYLINE
  5
ED
330
17
100
AcDbEntity
  8
0
100
AcDbPolyline
 90
3
 70
1
 10
774.000186682725
 20
278.53878737666173
 42
81.92927544653593
 10
774.0212560952743
 20
279.12419223835286
 10
774.000186682725
 20
279.12419223835286
  0
LWPOLYLINE
  5
EE
330
17
100
AcDbEntity
  8
0
100
AcDbPolyline
 90
4
 70
1
 10
762.0001868615383
 20
42.00000367427447
 42
1.0157787888818275
 10
809.9884240917082
 20
42.75131891378942
 10
809.9884240917082
 20
279.1252354466046
 42
0.9809821123637654
 10
762.000186503911
 20
278.59625324410536
  0
TEXT
  5
EF
330
17
100
AcDbEntity
  8
LABEL
100
AcDbText
 10
786.0002098168998
 20
160.20001647493382
 30
0.0
 40
12.0
  1
LinkF
 72
1
 11
786.0002098168998
 21
160.20001647493382
 31
0.0
100
AcDbText
 73
2
  0
CIRCLE
  5
F0
330
17
100
AcDbEntity
  8
0
100
AcDbCircle
 10
786.0001868615387
 20
332.40003662414256
 30
-5.551115123125783e-16
 40
6.5
  0
LWPOLYLINE
  5
F1
330
17
100
AcDbEntity
  8
0
100
AcDbPolyline
 90
3
 70
1
 10
774.000186682725
 20
568.9388203265294
 42
81.92927544653593
 10
774.0212560952743
 20
569.5242251882205
 10
774.000186682725
 20
569.5242251882205
  0
LWPOLYLINE
  5
F2
330
17
100
AcDbEntity
  8
0
100
AcDbPolyline
 90
4
 70
1
 10
762.0001868615383
 20
332.4000366241421
 42
1.0157787888818275
 10
809.9884240917082
 20
333.15135186365706
 10
809.9884240917082
 20
569.5252683964723
 42
0.9809821123637654
 10
762.000186503911
 20
568.996286193973
  0
TEXT
  5
F3
330
17
100
AcDbEntity
  8
LABEL
100
AcDbText
 10
786.0002098168998
 20
450.60004942480145
 30
0.0
 40
12.0
  1
LinkF
 72
1
 11
786.0002098168998
 21
450.60004942480145
 31
0.0
100
AcDbText
 73
2
  0
CIRCLE
  5
F4
330
17
100
AcDbEntity
  8
0
100
AcDbCircle
 10
786.0001868615387
 20
622.8000695740102
 30
-5.551115123125783e-16
 40
6.5
  0
LWPOLYLINE
  5
F5
330
17
100
AcDbEntity
  8
0
100
AcDbPolyline
 90
3
 70
1
 10
774.000186682725
 20
859.338853276397
 42
81.92927544653593
 10
774.0212560952743
 20
859.9242581380881
 10
774.000186682725
 20
859.9242581380881
  0
LWPOLYLINE
  5
F6
330
17
100
AcDbEntity
  8
0
100
AcDbPolyline
 90
4
 70
1
 10
762.0001868615383
 20
622.8000695740097
 42
1.0157787888818275
 10
809.9884240917082
 20
623.5513848135247
 10
809.9884240917082
 20
859.9253013463399
 42
0.9809821123637654
 10
762.000186503911
 20
859.3963191438406
  0
TEXT
  5
F7
330
17
100
AcDbEntity
  8
LABEL
100
AcDbText
 10
786.0002098168998
 20
741.0000823746691
 30
0.0
 40
12.0
  1
LinkF
 72
1
 11
786.0002098168998
 21
741.0000823746691
 31
0.0
100
AcDbText
 73
2
  0
CIRCLE
  5
F8
330
17
100
AcDbEntity
  8
0
100
AcDbCircle
 10
807.6001402355608
 20
913.2001025238778
 30
-5.551115123125783e-16
 40
6.5
  0
LWPOLYLINE
  5
F9
330
17
100
AcDbEntity
  8
0
100
AcDbPolyline
 90
3
 70
1
 10
795.6001400567471
 20
1149.7388862262646
 42
81.92927544653593
 10
795.6212094692964
 20
1150.3242910879558
 10
795.6001400567471
 20
1150.3242910879558
  0
LWPOLYLINE
  5
FA
330
17
100
AcDbEntity
  8
0
100
AcDbPolyline
 90
4
 70
1
 10
783.6001402355604
 20
913.2001025238774
 42
1.0157787888818275
 10
831.5883774657303
 20
913.9514177633923
 10
831.5883774657303
 20
1150.3253342962075
 42
0.9809821123637654
 10
783.6001398779331
 20
1149.7963520937083
  0
TEXT
  5
FB
330
17
100
AcDbEntity
  8
LABEL
100
AcDbText
 10
807.6001631909219
 20
1031.4001153245367
 30
0.0
 40
12.0
  1
LinkF
 72
1
 11
807.6001631909219
 21
1031.4001153245367
 31
0.0
100
AcDbText
 73
2
  0
CIRCLE
  5
FC
330
17
100
AcDbEntity
  8
0
100
AcDbCircle
 10
840.0002334875163
 20
42.00000367427492
 30
-5.551115123125783e-16
 40
6.5
  0
LWPOLYLINE
  5
FD
330
17
100
AcDbEntity
  8
0
100
AcDbPolyline
 90
3
 70
1
 10
828.0002333087026
 20
278.53878737666173
 42
81.92927544653593
 10
828.0213027212519
 20
279.12419223835286
 10
828.0002333087026
 20
279.12419223835286
  0
LWPOLYLINE
  5
FE
330
17
100
AcDbEntity
  8
0
100
AcDbPolyline
 90
4
 70
1
 10
816.0002334875159
 20
42.00000367427447
 42
1.0157787888818275
 10
863.9884707176858
 20
42.75131891378942
 10
863.9884707176858
 20
279.1252354466046
 42
0.9809821123637654
 10
816.0002331298886
 20
278.59625324410536
  0
TEXT
  5
FF
330
17
100
AcDbEntity
  8
LABEL
100
AcDbText
 10
840.0002564428773
 20
160.20001647493382
 30
0.0
 40
12.0
  1
LinkF
 72
1
 11
840.0002564428773
 21
160.20001647493382
 31
0.0
100
AcDbText
 73
2
  0
CIRCLE
  5
100
330
17
100
AcDbEntity
  8
0
100
AcDbCircle
 10
840.0002334875163
 20
332.40003662414256
 30
-5.551115123125783e-16
 40
6.5
  0
LWPOLYLINE
  5
101
330
17
100
AcDbEntity
  8
0
100
AcDbPolyline
 90
3
 70
1
 10
828.0002333087026
 20
568.9388203265294
 42
81.92927544653593
 10
828.0213027212519
 20
569.5242251882205
 10
828.0002333087026
 20
569.5242251882205
  0
LWPOLYLINE
  5
102
330
17
100
AcDbEntity
  8
0
100
AcDbPolyline
 90
4
 70
1
 10
816.0002334875159
 20
332.4000366241421
 42
1.0157787888818275
 10
863.9884707176858
 20
333.15135186365706
 10
863.9884707176858
 20
569.5252683964723
 42
0.9809821123637654
 10
816.0002331298886
 20
568.996286193973
  0
TEXT
  5
103
330
17
100
AcDbEntity
  8
LABEL
100
AcDbText
 10
840.0002564428773
 20
450.60004942480145
 30
0.0
 40
12.0
  1
LinkF
 72
1
 11
840.0002564428773
 21
450.60004942480145
 31
0.0
100
AcDbText
 73
2
  0
CIRCLE
  5
104
330
17
100
AcDbEntity
  8
0
100
AcDbCircle
 10
840.0002334875163
 20
622.8000695740102
 30
-5.551115123125783e-16
 40
6.5
  0
LWPOLYLINE
  5
105
330
17
100
AcDbEntity
  8
0
100
AcDbPolyline
 90
3
 70
1
 10
828.0002333087026
 20
859.338853276397
 42
81.92927544653593
 10
828.0213027212519
 20
859.9242581380881
 10
828.0002333087026
 20
859.9242581380881
  0
LWPOLYLINE
  5
106
330
17
100
AcDbEntity
  8
0
100
AcDbPolyline
 90
4
 70
1
 10
816.0002334875159
 20
622.8000695740097
 42
1.0157787888818275
 10
863.9884707176858
 20
623.5513848135247
 10
863.9884707176858
 20
859.9253013463399
 42
0.9809821123637654
 10
816.0002331298886
 20
859.3963191438406
  0
TEXT
  5
107
330
17
100
AcDbEntity
  8
LABEL
100
AcDbText
 10
840.0002564428773
 20
741.0000823746691
 30
0.0
 40
12.0
  1
LinkF
 72
1
 11
840.0002564428773
 21
741.0000823746691
 31
0.0
100
AcDbText
 73
2
  0
CIRCLE
  5
108
330
17
100
AcDbEntity
  8
0
100
AcDbCircle
 10
861.6001868615386
 20
913.2001025238778
 30
-5.551115123125783e-16
 40
6.5
  0
LWPOLYLINE
  5
109
330
17
100
AcDbEntity
  8
0
100
AcDbPolyline
 90
3
 70
1
 10
849.6001866827249
 20
1149.7388862262646
 42
81.92927544653593
 10
849.6212560952742
 20
1150.3242910879558
 10
849.6001866827249
 20
1150.3242910879558
  0
LWPOLYLINE
  5
10A
330
17
100
AcDbEntity
  8
0
100
AcDbPolyline
 90
4
 70
1
 10
837.6001868615382
 20
913.2001025238774
 42
1.0157787888818275
 10
885.5884240917081
 20
913.9514177633923
 10
885.5884240917081
 20
1150.3253342962075
 42
0.9809821123637654
 10
837.6001865039109
 20
1149.7963520937083
  0
TEXT
  5
10B
330
17
100
AcDbEntity
  8
LABEL
100
AcDbText
 10
861.6002098168997
 20
1031.4001153245367
 30
0.0
 40
12.0
  1
LinkF
 72
1
 11
861.6002098168997
 21
1031.4001153245367
 31
0.0
100
AcDbText
 73
2
  0
CIRCLE
  5
10C
330
17
100
AcDbEntity
  8
0
100
AcDbCircle
 10
894.0002801134939
 20
42.00000367427492
 30
-5.551115123125783e-16
 40
6.5
  0
LWPOLYLINE
  5
10D
330
17
100
AcDbEntity
  8
0
100
AcDbPolyline
 90
3
 70
1
 10
882.0002799346802
 20
278.53878737666173
 42
81.92927544653593
 10
882.0213493472295
 20
279.12419223835286
 10
882.0002799346802
 20
279.12419223835286
  0
LWPOLYLINE
  5
10E
330
17
100
AcDbEntity
  8
0
100
AcDbPolyline
 90
4
 70
1
 10
870.0002801134934
 20
42.00000367427447
 42
1.0157787888818275
 10
917.9885173436634
 20
42.75131891378942
 10
917.9885173436634
 20
279.1252354466046
 42
0.9809821123637654
 10
870.0002797558661
 20
278.59625324410536
  0
TEXT
  5
10F
330
17
100
AcDbEntity
  8
LABEL
100
AcDbText
 10
894.0003030688551
 20
160.20001647493382
 30
0.0
 40
12.0
  1
LinkF
 72
1
 11
894.0003030688551
 21
160.20001647493382
 31
0.0
100
AcDbText
 73
2
  0
CIRCLE
  5
110
330
17
100
AcDbEntity
  8
0
100
AcDbCircle
 10
894.0002801134939
 20
332.40003662414256
 30
-5.551115123125783e-16
 40
6.5
  0
LWPOLYLINE
  5
111
330
17
100
AcDbEntity
  8
0
100
AcDbPolyline
 90
3
 70
1
 10
882.0002799346802
 20
568.9388203265294
 42
81.92927544653593
 10
882.0213493472295
 20
569.5242251882205
 10
882.0002799346802
 20
569.5242251882205
  0
LWPOLYLINE
  5
112
330
17
100
AcDbEntity
  8
0
100
AcDbPolyline
 90
4
 70
1
 10
870.0002801134934
 20
332.4000366241421
 42
1.0157787888818275
 10
917.9885173436634
 20
333.15135186365706
 10
917.9885173436634
 20
569.5252683964723
 42
0.9809821123637654
 10
870.0002797558661
 20
568.996286193973
  0
TEXT
  5
113
330
17
100
AcDbEntity
  8
LABEL
100
AcDbText
 10
894.0003030688551
 20
450.60004942480145
 30
0.0
 40
12.0
  1
LinkF
 72
1
 11
894.0003030688551
 21
450.60004942480145
 31
0.0
100
AcDbText
 73
2
  0
CIRCLE
  5
114
330
17
100
AcDbEntity
  8
0
100
AcDbCircle
 10
894.0002801134939
 20
622.8000695740102
 30
-5.551115123125783e-16
 40
6.5
  0
LWPOLYLINE
  5
115
330
17
100
AcDbEntity
  8
0
100
AcDbPolyline
 90
3
 70
1
 10
882.0002799346802
 20
859.338853276397
 42
81.92927544653593
 10
882.0213493472295
 20
859.9242581380881
 10
882.0002799346802
 20
859.9242581380881
  0
LWPOLYLINE
  5
116
330
17
100
AcDbEntity
  8
0
100
AcDbPolyline
 90
4
 70
1
 10
870.0002801134934
 20
622.8000695740097
 42
1.0157787888818275
 10
917.9885173436634
 20
623.5513848135247
 10
917.9885173436634
 20
859.9253013463399
 42
0.9809821123637654
 10
870.0002797558661
 20
859.3963191438406
  0
TEXT
  5
117
330
17
100
AcDbEntity
  8
LABEL
100
AcDbText
 10
894.0003030688551
 20
741.0000823746691
 30
0.0
 40
12.0
  1
LinkF
 72
1
 11
894.0003030688551
 21
741.0000823746691
 31
0.0
100
AcDbText
 73
2
  0
CIRCLE
  5
118
330
17
100
AcDbEntity
  8
0
100
AcDbCircle
 10
915.6002334875162
 20
913.2001025238778
 30
-5.551115123125783e-16
 40
6.5
  0
LWPOLYLINE
  5
119
330
17
100
AcDbEntity
  8
0
100
AcDbPolyline
 90
3
 70
1
 10
903.6002333087025
 20
1149.7388862262646
 42
81.92927544653593
 10
903.6213027212518
 20
1150.3242910879558
 10
903.6002333087025
 20
1150.3242910879558
  0
LWPOLYLINE
  5
11A
330
17
100
AcDbEntity
  8
0
100
AcDbPolyline
 90
4
 70
1
 10
891.6002334875158
 20
913.2001025238774
 42
1.0157787888818275
 10
939.5884707176857
 20
913.9514177633923
 10
939.5884707176857
 20
1150.3253342962075
 42
0.9809821123637654
 10
891.6002331298885
 20
1149.7963520937083
  0
TEXT
  5
11B
330
17
100
AcDbEntity
  8
LABEL
100
AcDbText
 10
915.6002564428773
 20
1031.4001153245367
 30
0.0
 40
12.0
  1
LinkF
 72
1
 11
915.6002564428773
 21
1031.4001153245367
 31
0.0
100
AcDbText
 73
2
  0
CIRCLE
  5
11C
330
17
100
AcDbEntity
  8
0
100
AcDbCircle
 10
948.0003267394717
 20
42.00000367427492
 30
-5.551115123125783e-16
 40
6.5
  0
LWPOLYLINE
  5
11D
330
17
100
AcDbEntity
  8
0
100
AcDbPolyline
 90
3
 70
1
 10
936.000326560658
 20
278.53878737666173
 42
81.92927544653593
 10
936.0213959732073
 20
279.12419223835286
 10
936.000326560658
 20
279.12419223835286
  0
LWPOLYLINE
  5
11E
330
17
100
AcDbEntity
  8
0
100
AcDbPolyline
 90
4
 70
1
 10
924.0003267394712
 20
42.00000367427447
 42
1.0157787888818275
 10
971.9885639696412
 20
42.75131891378942
 10
971.9885639696412
 20
279.1252354466046
 42
0.9809821123637654
 10
924.0003263818439
 20
278.59625324410536
  0
TEXT
  5
11F
330
17
100
AcDbEntity
  8
LABEL
100
AcDbText
 10
948.0003496948327
 20
160.20001647493382
 30
0.0
 40
12.0
  1
LinkF
 72
1
 11
948.0003496948327
 21
160.20001647493382
 31
0.0
100
AcDbText
 73
2
  0
CIRCLE
  5
120
330
17
100
AcDbEntity
  8
0
100
AcDbCircle
 10
948.0003267394717
 20
332.40003662414256
 30
-5.551115123125783e-16
 40
6.5
  0
LWPOLYLINE
  5
121
330
17
100
AcDbEntity
  8
0
100
AcDbPolyline
 90
3
 70
1
 10
936.000326560658
 20
568.9388203265294
 42
81.92927544653593
 10
936.0213959732073
 20
569.5242251882205
 10
936.000326560658
 20
569.5242251882205
  0
LWPOLYLINE
  5
122
330
17
100
AcDbEntity
  8
0
100
AcDbPolyline
 90
4
 70
1
 10
924.0003267394712
 20
332.4000366241421
 42
1.0157787888818275
 10
971.9885639696412
 20
333.15135186365706
 10
971.9885639696412
 20
569.5252683964723
 42
0.9809821123637654
 10
924.0003263818439
 20
568.996286193973
  0
TEXT
  5
123
330
17
100
AcDbEntity
  8
LABEL
100
AcDbText
 10
948.0003496948327
 20
450.60004942480145
 30
0.0
 40
12.0
  1
LinkF
 72
1
 11
948.0003496948327
 21
450.60004942480145
 31
0.0
100
AcDbText
 73
2
  0
CIRCLE
  5
124
330
17
100
AcDbEntity
  8
0
100
AcDbCircle
 10
948.0003267394717
 20
622.8000695740102
 30
-5.551115123125783e-16
 40
6.5
  0
LWPOLYLINE
  5
125
330
17
100
AcDbEntity
  8
0
100
AcDbPolyline
 90
3
 70
1
 10
936.000326560658
 20
859.338853276397
 42
81.92927544653593
 10
936.0213959732073
 20
859.9242581380881
 10
936.000326560658
 20
859.9242581380881
  0
LWPOLYLINE
  5
126
330
17
100
AcDbEntity
  8
0
100
AcDbPolyline
 90
4
 70
1
 10
924.0003267394712
 20
622.8000695740097
 42
1.0157787888818275
 10
971.9885639696412
 20
623.5513848135247
 10
971.9885639696412
 20
859.9253013463399
 42
0.9809821123637654
 10
924.0003263818439
 20
859.3963191438406
  0
TEXT
  5
127
330
17
100
AcDbEntity
  8
LABEL
100
AcDbText
 10
948.0003496948327
 20
741.0000823746691
 30
0.0
 40
12.0
  1
LinkF
 72
1
 11
948.0003496948327
 21
741.0000823746691
 31
0.0
100
AcDbText
 73
2
  0
CIRCLE
  5
128
330
17
100
AcDbEntity
  8
0
100
AcDbCircle
 10
969.6002801134938
 20
913.2001025238778
 30
-5.551115123125783e-16
 40
6.5
  0
LWPOLYLINE
  5
129
330
17
100
AcDbEntity
  8
0
100
AcDbPolyline
 90
3
 70
1
 10
957.6002799346801
 20
1149.7388862262646
 42
81.92927544653593
 10
957.6213493472294
 20
1150.3242910879558
 10
957.6002799346801
 20
1150.3242910879558
  0
LWPOLYLINE
  5
12A
330
17
100
AcDbEntity
  8
0
100
AcDbPolyline
 90
4
 70
1
 10
945.6002801134933
 20
913.2001025238774
 42
1.0157787888818275
 10
993.5885173436633
 20
913.9514177633923
 10
993.5885173436633
 20
1150.3253342962075
 42
0.9809821123637654
 10
945.600279755866
 20
1149.7963520937083
  0
TEXT
  5
12B
330
17
100
AcDbEntity
  8
LABEL
100
AcDbText
 10
969.600303068855
 20
1031.4001153245367
 30
0.0
 40
12.0
  1
LinkF
 72
1
 11
969.600303068855
 21
1031.4001153245367
 31
0.0
100
AcDbText
 73
2
  0
CIRCLE
  5
12C
330
17
100
AcDbEntity
  8
0
100
AcDbCircle
 10
1002.0003733654495
 20
42.00000367427492
 30
-5.551115123125783e-16
 40
6.5
  0
LWPOLYLINE
  5
12D
330
17
100
AcDbEntity
  8
0
100
AcDbPolyline
 90
3
 70
1
 10
990.0003731866358
 20
278.53878737666173
 42
81.92927544653593
 10
990.0214425991851
 20
279.12419223835286
 10
990.0003731866358
 20
279.12419223835286
  0
LWPOLYLINE
  5
12E
330
17
100
AcDbEntity
  8
0
100
AcDbPolyline
 90
4
 70
1
 10
978.000373365449
 20
42.00000367427447
 42
1.0157787888818275
 10
1025.9886105956189
 20
42.75131891378942
 10
1025.9886105956189
 20
279.1252354466046
 42
0.9809821123637654
 10
978.0003730078217
 20
278.59625324410536
  0
TEXT
  5
12F
330
17
100
AcDbEntity
  8
LABEL
100
AcDbText
 10
1002.0003963208105
 20
160.20001647493382
 30
0.0
 40
12.0
  1
LinkF
 72
1
 11
1002.0003963208105
 21
160.20001647493382
 31
0.0
100
AcDbText
 73
2
  0
CIRCLE
  5
130
330
17
100
AcDbEntity
  8
0
100
AcDbCircle
 10
1002.0003733654495
 20
332.40003662414256
 30
-5.551115123125783e-16
 40
6.5
  0
LWPOLYLINE
  5
131
330
17
100
AcDbEntity
  8
0
100
AcDbPolyline
 90
3
 70
1
 10
990.0003731866358
 20
568.9388203265294
 42
81.92927544653593
 10
990.0214425991851
 20
569.5242251882205
 10
990.0003731866358
 20
569.5242251882205
  0
LWPOLYLINE
  5
132
330
17
100
AcDbEntity
  8
0
100
AcDbPolyline
 90
4
 70
1
 10
978.000373365449
 20
332.4000366241421
 42
1.0157787888818275
 10
1025.9886105956189
 20
333.15135186365706
 10
1025.9886105956189
 20
569.5252683964723
 42
0.9809821123637654
 10
978.0003730078217
 20
568.996286193973
  0
TEXT
  5
133
330
17
100
AcDbEntity
  8
LABEL
100
AcDbText
 10
1002.0003963208105
 20
450.60004942480145
 30
0.0
 40
12.0
  1
LinkF
 72
1
 11
1002.0003963208105
 21
450.60004942480145
 31
0.0
100
AcDbText
 73
2
  0
CIRCLE
  5
134
330
17
100
AcDbEntity
  8
0
100
AcDbCircle
 10
1002.0003733654495
 20
622.8000695740102
 30
-5.551115123125783e-16
 40
6.5
  0
LWPOLYLINE
  5
135
330
17
100
AcDbEntity
  8
0
100
AcDbPolyline
 90
3
 70
1
 10
990.0003731866358
 20
859.338853276397
 42
81.92927544653593
 10
990.0214425991851
 20
859.9242581380881
 10
990.0003731866358
 20
859.9242581380881
  0
LWPOLYLINE
  5
136
330
17
100
AcDbEntity
  8
0
100
AcDbPolyline
 90
4
 70
1
 10
978.000373365449
 20
622.8000695740097
 42
1.0157787888818275
 10
1025.9886105956189
 20
623.5513848135247
 10
1025.9886105956189
 20
859.9253013463399
 42
0.9809821123637654
 10
978.0003730078217
 20
859.3963191438406
  0
TEXT
  5
137
330
17
100
AcDbEntity
  8
LABEL
100
AcDbText
 10
1002.0003963208105
 20
741.0000823746691
 30
0.0
 40
12.0
  1
LinkF
 72
1
 11
1002.0003963208105
 21
741.0000823746691
 31
0.0
100
AcDbText
 73
2
  0
CIRCLE
  5
138
330
17
100
AcDbEntity
  8
0
100
AcDbCircle
 10
1023.6003267394716
 20
913.2001025238778
 30
-5.551115123125783e-16
 40
6.5
  0
LWPOLYLINE
  5
139
330
17
100
AcDbEntity
  8
0
100
AcDbPolyline
 90
3
 70
1
 10
1011.6003265606579
 20
1149.7388862262646
 42
81.92927544653593
 10
1011.6213959732072
 20
1150.3242910879558
 10
1011.6003265606579
 20
1150.3242910879558
  0
LWPOLYLINE
  5
13A
330
17
100
AcDbEntity
  8
0
100
AcDbPolyline
 90
4
 70
1
 10
999.6003267394711
 20
913.2001025238774
 42
1.0157787888818275
 10
1047.5885639696412
 20
913.9514177633923
 10
1047.5885639696412
 20
1150.3253342962075
 42
0.9809821123637654
 10
999.6003263818438
 20
1149.7963520937083
  0
TEXT
  5
13B
330
17
100
AcDbEntity
  8
LABEL
100
AcDbText
 10
1023.6003496948326
 20
1031.4001153245367
 30
0.0
 40
12.0
  1
LinkF
 72
1
 11
1023.6003496948326
 21
1031.4001153245367
 31
0.0
100
AcDbText
 73
2
  0
CIRCLE
  5
13C
330
17
100
AcDbEntity
  8
0
100
AcDbCircle
 10
1056.000419991427
 20
42.00000367427492
 30
-5.551115123125783e-16
 40
6.5
  0
LWPOLYLINE
  5
13D
330
17
100
AcDbEntity
  8
0
100
AcDbPolyline
 90
3
 70
1
 10
1044.0004198126135
 20
278.53878737666173
 42
81.92927544653593
 10
1044.0214892251627
 20
279.12419223835286
 10
1044.0004198126135
 20
279.12419223835286
  0
LWPOLYLINE
  5
13E
330
17
100
AcDbEntity
  8
0
100
AcDbPolyline
 90
4
 70
1
 10
1032.0004199914265
 20
42.00000367427447
 42
1.0157787888818275
 10
1079.9886572215964
 20
42.75131891378942
 10
1079.9886572215964
 20
279.1252354466046
 42
0.9809821123637654
 10
1032.0004196337993
 20
278.59625324410536
  0
TEXT
  5
13F
330
17
100
AcDbEntity
  8
LABEL
100
AcDbText
 10
1056.000442946788
 20
160.20001647493382
 30
0.0
 40
12.0
  1
LinkF
 72
1
 11
1056.000442946788
 21
160.20001647493382
 31
0.0
100
AcDbText
 73
2
  0
CIRCLE
  5
140
330
17
100
AcDbEntity
  8
0
100
AcDbCircle
 10
1056.000419991427
 20
332.40003662414256
 30
-5.551115123125783e-16
 40
6.5
  0
LWPOLYLINE
  5
141
330
17
100
AcDbEntity
  8
0
100
AcDbPolyline
 90
3
 70
1
 10
1044.0004198126135
 20
568.9388203265294
 42
81.92927544653593
 10
1044.0214892251627
 20
569.5242251882205
 10
1044.0004198126135
 20
569.5242251882205
  0
LWPOLYLINE
  5
142
330
17
100
AcDbEntity
  8
0
100
AcDbPolyline
 90
4
 70
1
 10
1032.0004199914265
 20
332.4000366241421
 42
1.0157787888818275
 10
1079.9886572215964
 20
333.15135186365706
 10
1079.9886572215964
 20
569.5252683964723
 42
0.9809821123637654
 10
1032.0004196337993
 20
568.996286193973
  0
TEXT
  5
143
330
17
100
AcDbEntity
  8
LABEL
100
AcDbText
 10
1056.000442946788
 20
450.60004942480145
 30
0.0
 40
12.0
  1
LinkF
 72
1
 11
1056.000442946788
 21
450.60004942480145
 31
0.0
100
AcDbText
 73
2
  0
CIRCLE
  5
144
330
17
100
AcDbEntity
  8
0
100
AcDbCircle
 10
1056.000419991427
 20
622.8000695740102
 30
-5.551115123125783e-16
 40
6.5
  0
LWPOLYLINE
  5
145
330
17
100
AcDbEntity
  8
0
100
AcDbPolyline
 90
3
 70
1
 10
1044.0004198126135
 20
859.338853276397
 42
81.92927544653593
 10
1044.0214892251627
 20
859.9242581380881
 10
1044.0004198126135
 20
859.9242581380881
  0
LWPOLYLINE
  5
146
330
17
100
AcDbEntity
  8
0
100
AcDbPolyline
 90
4
 70
1
 10
1032.0004199914265
 20
622.8000695740097
 42
1.0157787888818275
 10
1079.9886572215964
 20
623.5513848135247
 10
1079.9886572215964
 20
859.9253013463399
 42
0.9809821123637654
 10
1032.0004196337993
 20
859.3963191438406
  0
TEXT
  5
147
330
17
100
AcDbEntity
  8
LABEL
100
AcDbText
 10
1056.000442946788
 20
741.0000823746691
 30
0.0
 40
12.0
  1
LinkF
 72
1
 11
1056.000442946788
 21
741.0000823746691
 31
0.0
100
AcDbText
 73
2
  0
CIRCLE
  5
148
330
17
100
AcDbEntity
  8
0
100
AcDbCircle
 10
1077.6003730078214
 20
1129.158098849603
 30
0.0
 40
4.0
  0
CIRCLE
  5
149
330
17
100
AcDbEntity
  8
0
100
AcDbCircle
 10
1077.6003730078214
 20
913.2000988496029
 30
0.0
 40
4.0
  0
LWPOLYLINE
  5
14A
330
17
100
AcDbEntity
  8
0
100
AcDbPolyline
 90
4
 70
1
 10
1053.6003730078214
 20
913.2000988496029
 42
0.9999999999999999
 10
1101.6003730078214
 20
913.2000988496029
 10
1101.600366680271
 20
1129.1755264822775
 42
0.9992741120950986
 10
1053.6003793353718
 20
1129.1755264822775
  0
TEXT
  5
14B
330
17
100
AcDbEntity
  8
LABEL
100
AcDbText
 10
1077.6003730078214
 20
1021.1790988496027
 30
0.0
 40
12.0
  1
spacer
 72
1
 11
1077.6003730078214
 21
1021.1790988496027
 31
0.0
100
AcDbText
 73
2
  0
CIRCLE
  5
14C
330
17
100
AcDbEntity
  8
0
100
AcDbCircle
 10
1110.000466259777
 20
257.958
 30
0.0
 40
4.0
  0
CIRCLE
  5
14D
330
17
100
AcDbEntity
  8
0
100
AcDbCircle
 10
1110.000466259777
 20
42.0
 30
0.0
 40
4.0
  0
LWPOLYLINE
  5
14E
330
17
100
AcDbEntity
  8
0
100
AcDbPolyline
 90
4
 70
1
 10
1086.000466259777
 20
42.00000000000001
 42
0.9999999999999999
 10
1134.000466259777
 20
41.99999999999999
 10
1134.0004599322267
 20
257.9754276326746
 42
0.9992741120950986
 10
1086.0004725873275
 20
257.9754276326746
  0
TEXT
  5
14F
330
17
100
AcDbEntity
  8
LABEL
100
AcDbText
 10
1110.000466259777
 20
149.97899999999981
 30
0.0
 40
12.0
  1
spacer
 72
1
 11
1110.000466259777
 21
149.97899999999981
 31
0.0
100
AcDbText
 73
2
  0
CIRCLE
  5
150
330
17
100
AcDbEntity
  8
0
100
AcDbCircle
 10
1110.000466259777
 20
527.9159999999997
 30
0.0
 40
4.0
  0
CIRCLE
  5
151
330
17
100
AcDbEntity
  8
0
100
AcDbCircle
 10
1110.000466259777
 20
311.95799999999963
 30
0.0
 40
4.0
  0
LWPOLYLINE
  5
152
330
17
100
AcDbEntity
  8
0
100
AcDbPolyline
 90
4
 70
1
 10
1086.000466259777
 20
311.95799999999963
 42
0.9999999999999999
 10
1134.000466259777
 20
311.95799999999963
 10
1134.0004599322267
 20
527.9334276326742
 42
0.9992741120950986
 10
1086.0004725873275
 20
527.9334276326742
  0
TEXT
  5
153
330
17
100
AcDbEntity
  8
LABEL
100
AcDbText
 10
1110.000466259777
 20
419.93699999999944
 30
0.0
 40
12.0
  1
spacer
 72
1
 11
1110.000466259777
 21
419.93699999999944
 31
0.0
100
AcDbText
 73
2
  0
CIRCLE
  5
154
330
17
100
AcDbEntity
  8
0
100
AcDbCircle
 10
1110.000466259777
 20
797.8739999999993
 30
0.0
 40
4.0
  0
CIRCLE
  5
155
330
17
100
AcDbEntity
  8
0
100
AcDbCircle
 10
1110.000466259777
 20
581.9159999999993
 30
0.0
 40
4.0
  0
LWPOLYLINE
  5
156
330
17
100
AcDbEntity
  8
0
100
AcDbPolyline
 90
4
 70
1
 10
1086.000466259777
 20
581.9159999999993
 42
0.9999999999999999
 10
1134.000466259777
 20
581.9159999999993
 10
1134.0004599322267
 20
797.8914276326739
 42
0.9992741120950986
 10
1086.0004725873275
 20
797.8914276326739
  0
TEXT
  5
157
330
17
100
AcDbEntity
  8
LABEL
100
AcDbText
 10
1110.000466259777
 20
689.8949999999991
 30
0.0
 40
12.0
  1
spacer
 72
1
 11
1110.000466259777
 21
689.8949999999991
 31
0.0
100
AcDbText
 73
2
  0
CIRCLE
  5
158
330
17
100
AcDbEntity
  8
0
100
AcDbCircle
 10
1325.9584662597772
 20
851.8739999999989
 30
0.0
 40
4.0
  0
CIRCLE
  5
159
330
17
100
AcDbEntity
  8
0
100
AcDbCircle
 10
1110.000466259777
 20
851.8739999999989
 30
0.0
 40
4.0
  0
LWPOLYLINE
  5
15A
330
17
100
AcDbEntity
  8
0
100
AcDbPolyline
 90
4
 70
1
 10
1110.000466259777
 20
875.8739999999989
 42
0.9999999999999999
 10
1110.000466259777
 20
827.8739999999989
 10
1325.9758938924517
 20
827.8740063275493
 42
0.9992741120950986
 10
1325.9758938924517
 20
875.8739936724485
  0
TEXT
  5
15B
330
17
100
AcDbEntity
  8
LABEL
100
AcDbText
 10
1217.979466259777
 20
851.8739999999989
 30
0.0
 40
12.0
  1
spacer
 72
1
 11
1217.979466259777
 21
851.8739999999989
 31
0.0
100
AcDbText
 73
2
  0
CIRCLE
  5
15C
330
17
100
AcDbEntity
  8
0
100
AcDbCircle
 10
1131.6003730078214
 20
1121.831999999999
 30
0.0
 40
4.0
  0
CIRCLE
  5
15D
330
17
100
AcDbEntity
  8
0
100
AcDbCircle
 10
1131.6003730078214
 20
905.8739999999989
 30
0.0
 40
4.0
  0
LWPOLYLINE
  5
15E
330
17
100
AcDbEntity
  8
0
100
AcDbPolyline
 90
4
 70
1
 10
1107.6003730078214
 20
905.8739999999989
 42
0.9999999999999999
 10
1155.6003730078214
 20
905.8739999999989
 10
1155.600366680271
 20
1121.8494276326735
 42
0.9992741120950986
 10
1107.6003793353718
 20
1121.8494276326735
  0
TEXT
  5
15F
330
17
100
AcDbEntity
  8
LABEL
100
AcDbText
 10
1131.6003730078214
 20
1013.8529999999987
 30
0.0
 40
12.0
  1
spacer
 72
1
 11
1131.6003730078214
 21
1013.8529999999987
 31
0.0
100
AcDbText
 73
2
  0
CIRCLE
  5
160
330
17
100
AcDbEntity
  8
0
100
AcDbCircle
 10
1347.5583730078215
 20
1175.8319999999985
 30
0.0
 40
4.0
  0
CIRCLE
  5
161
330
17
100
AcDbEntity
  8
0
100
AcDbCircle
 10
1131.6003730078214
 20
1175.8319999999985
 30
0.0
 40
4.0
  0
LWPOLYLINE
  5
162
330
17
100
AcDbEntity
  8
0
100
AcDbPolyline
 90
4
 70
1
 10
1131.6003730078214
 20
1199.8319999999985
 42
0.9999999999999999
 10
1131.6003730078214
 20
1151.8319999999985
 10
1347.575800640496
 20
1151.832006327549
 42
0.9992741120950986
 10
1347.575800640496
 20
1199.831993672448
  0
TEXT
  5
163
330
17
100
AcDbEntity
  8
LABEL
100
AcDbText
 10
1239.5793730078212
 20
1175.8319999999985
 30
0.0
 40
12.0
  1
spacer
 72
1
 11
1239.5793730078212
 21
1175.8319999999985
 31
0.0
100
AcDbText
 73
2
  0
CIRCLE
  5
164
330
17
100
AcDbEntity
  8
0
100
AcDbCircle
 10
1185.6003730078214
 20
1121.831999999999
 30
0.0
 40
4.0
  0
CIRCLE
  5
165
330
17
100
AcDbEntity
  8
0
100
AcDbCircle
 10
1185.6003730078214
 20
905.8739999999989
 30
0.0
 40
4.0
  0
LWPOLYLINE
  5
166
330
17
100
AcDbEntity
  8
0
100
AcDbPolyline
 90
4
 70
1
 10
1161.6003730078214
 20
905.8739999999989
 42
0.9999999999999999
 10
1209.6003730078214
 20
905.8739999999989
 10
1209.600366680271
 20
1121.8494276326735
 42
0.9992741120950986
 10
1161.6003793353718
 20
1121.8494276326735
  0
TEXT
  5
167
330
17
100
AcDbEntity
  8
LABEL
100
AcDbText
 10
1185.6003730078214
 20
1013.8529999999987
 30
0.0
 40
12.0
  1
spacer
 72
1
 11
1185.6003730078214
 21
1013.8529999999987
 31
0.0
100
AcDbText
 73
2
  0
CIRCLE
  5
168
330
17
100
AcDbEntity
  8
0
100
AcDbCircle
 10
1239.6003730078214
 20
1121.831999999999
 30
0.0
 40
4.0
  0
CIRCLE
  5
169
330
17
100
AcDbEntity
  8
0
100
AcDbCircle
 10
1239.6003730078214
 20
905.8739999999989
 30
0.0
 40
4.0
  0
LWPOLYLINE
  5
16A
330
17
100
AcDbEntity
  8
0
100
AcDbPolyline
 90
4
 70
1
 10
1215.6003730078214
 20
905.8739999999989
 42
0.9999999999999999
 10
1263.6003730078214
 20
905.8739999999989
 10
1263.600366680271
 20
1121.8494276326735
 42
0.9992741120950986
 10
1215.6003793353718
 20
1121.8494276326735
  0
TEXT
  5
16B
330
17
100
AcDbEntity
  8
LABEL
100
AcDbText
 10
1239.6003730078214
 20
1013.8529999999987
 30
0.0
 40
12.0
  1
spacer
 72
1
 11
1239.6003730078214
 21
1013.8529999999987
 31
0.0
100
AcDbText
 73
2
  0
CIRCLE
  5
16C
330
17
100
AcDbEntity
  8
0
100
AcDbCircle
 10
1293.6003730078214
 20
1121.831999999999
 30
0.0
 40
4.0
  0
CIRCLE
  5
16D
330
17
100
AcDbEntity
  8
0
100
AcDbCircle
 10
1293.6003730078214
 20
905.8739999999989
 30
0.0
 40
4.0
  0
LWPOLYLINE
  5
16E
330
17
100
AcDbEntity
  8
0
100
AcDbPolyline
 90
4
 70
1
 10
1269.6003730078214
 20
905.8739999999989
 42
0.9999999999999999
 10
1317.6003730078214
 20
905.8739999999989
 10
1317.600366680271
 20
1121.8494276326735
 42
0.9992741120950986
 10
1269.6003793353718
 20
1121.8494276326735
  0
TEXT
  5
16F
330
17
100
AcDbEntity
  8
LABEL
100
AcDbText
 10
1293.6003730078214
 20
1013.8529999999987
 30
0.0
 40
12.0
  1
spacer
 72
1
 11
1293.6003730078214
 21
1013.8529999999987
 31
0.0
100
AcDbText
 73
2
  0
CIRCLE
  5
170
330
17
100
AcDbEntity
  8
0
100
AcDbCircle
 10
1347.6003730078214
 20
1121.831999999999
 30
0.0
 40
4.0
  0
CIRCLE
  5
171
330
17
100
AcDbEntity
  8
0
100
AcDbCircle
 10
1347.6003730078214
 20
905.8739999999989
 30
0.0
 40
4.0
  0
LWPOLYLINE
  5
172
330
17
100
AcDbEntity
  8
0
100
AcDbPolyline
 90
4
 70
1
 10
1323.6003730078214
 20
905.8739999999989
 42
0.9999999999999999
 10
1371.6003730078214
 20
905.8739999999989
 10
1371.600366680271
 20
1121.8494276326735
 42
0.9992741120950986
 10
1323.6003793353718
 20
1121.8494276326735
  0
TEXT
  5
173
330
17
100
AcDbEntity
  8
LABEL
100
AcDbText
 10
1347.6003730078214
 20
1013.8529999999987
 30
0.0
 40
12.0
  1
spacer
 72
1
 11
1347.6003730078214
 21
1013.8529999999987
 31
0.0
100
AcDbText
 73
2
  0
CIRCLE
  5
174
330
17
100
AcDbEntity
  8
0
100
AcDbCircle
 10
1617.5163730078211
 20
1175.8319999999985
 30
0.0
 40
4.0
  0
CIRCLE
  5
175
330
17
100
AcDbEntity
  8
0
100
AcDbCircle
 10
1401.558373007821
 20
1175.8319999999985
 30
0.0
 40
4.0
  0
LWPOLYLINE
  5
176
330
17
100
AcDbEntity
  8
0
100
AcDbPolyline
 90
4
 70
1
 10
1401.558373007821
 20
1199.8319999999985
 42
0.9999999999999999
 10
1401.558373007821
 20
1151.8319999999985
 10
1617.5338006404957
 20
1151.832006327549
 42
0.9992741120950986
 10
1617.5338006404957
 20
1199.831993672448
  0
TEXT
  5
177
330
17
100
AcDbEntity
  8
LABEL
100
AcDbText
 10
1509.5373730078209
 20
1175.8319999999985
 30
0.0
 40
12.0
  1
spacer
 72
1
 11
1509.5373730078209
 21
1175.8319999999985
 31
0.0
100
AcDbText
 73
2
  0
CIRCLE
  5
178
330
17
100
AcDbEntity
  8
0
100
AcDbCircle
 10
1887.4743730078208
 20
42.0
 30
0.0
 40
4.0
  0
CIRCLE
  5
179
330
17
100
AcDbEntity
  8
0
100
AcDbCircle
 10
1671.5163730078207
 20
42.0
 30
0.0
 40
4.0
  0
LWPOLYLINE
  5
17A
330
17
100
AcDbEntity
  8
0
100
AcDbPolyline
 90
4
 70
1
 10
1671.5163730078207
 20
66.0
 42
0.9999999999999999
 10
1671.5163730078207
 20
18.0
 10
1887.4918006404953
 20
18.00000632755043
 42
0.9992741120950986
 10
1887.4918006404953
 20
65.99999367244956
  0
TEXT
  5
17B
330
17
100
AcDbEntity
  8
LABEL
100
AcDbText
 10
1779.4953730078205
 20
42.0
 30
0.0
 40
12.0
  1
spacer
 72
1
 11
1779.4953730078205
 21
42.0
 31
0.0
100
AcDbText
 73
2
  0
CIRCLE
  5
17C
330
17
100
AcDbEntity
  8
0
100
AcDbCircle
 10
1595.9164662597768
 20
42.0
 30
0.0
 40
4.0
  0
CIRCLE
  5
17D
330
17
100
AcDbEntity
  8
0
100
AcDbCircle
 10
1379.9584662597767
 20
42.0
 30
0.0
 40
4.0
  0
LWPOLYLINE
  5
17E
330
17
100
AcDbEntity
  8
0
100
AcDbPolyline
 90
4
 70
1
 10
1379.9584662597767
 20
66.0
 42
0.9999999999999999
 10
1379.9584662597767
 20
18.0
 10
1595.9338938924514
 20
18.00000632755043
 42
0.9992741120950986
 10
1595.9338938924514
 20
65.99999367244956
  0
TEXT
  5
17F
330
17
100
AcDbEntity
  8
LABEL
100
AcDbText
 10
1487.9374662597766
 20
42.0
 30
0.0
 40
12.0
  1
spacer
 72
1
 11
1487.9374662597766
 21
42.0
 31
0.0
100
AcDbText
 73
2
  0
CIRCLE
  5
180
330
17
100
AcDbEntity
  8
0
100
AcDbCircle
 10
1164.000466259777
 20
257.958
 30
0.0
 40
4.0
  0
CIRCLE
  5
181
330
17
100
AcDbEntity
  8
0
100
AcDbCircle
 10
1164.000466259777
 20
42.0
 30
0.0
 40
4.0
  0
LWPOLYLINE
  5
182
330
17
100
AcDbEntity
  8
0
100
AcDbPolyline
 90
4
 70
1
 10
1140.000466259777
 20
42.00000000000001
 42
0.9999999999999999
 10
1188.000466259777
 20
41.99999999999999
 10
1188.0004599322267
 20
257.9754276326746
 42
0.9992741120950986
 10
1140.0004725873275
 20
257.9754276326746
  0
TEXT
  5
183
330
17
100
AcDbEntity
  8
LABEL
100
AcDbText
 10
1164.000466259777
 20
149.97899999999981
 30
0.0
 40
12.0
  1
spacer
 72
1
 11
1164.000466259777
 21
149.97899999999981
 31
0.0
100
AcDbText
 73
2
  0
CIRCLE
  5
184
330
17
100
AcDbEntity
  8
0
100
AcDbCircle
 10
1218.000466259777
 20
257.958
 30
0.0
 40
4.0
  0
CIRCLE
  5
185
330
17
100
AcDbEntity
  8
0
100
AcDbCircle
 10
1218.000466259777
 20
42.0
 30
0.0
 40
4.0
  0
LWPOLYLINE
  5
186
330
17
100
AcDbEntity
  8
0
100
AcDbPolyline
 90
4
 70
1
 10
1194.000466259777
 20
42.00000000000001
 42
0.9999999999999999
 10
1242.000466259777
 20
41.99999999999999
 10
1242.0004599322267
 20
257.9754276326746
 42
0.9992741120950986
 10
1194.0004725873275
 20
257.9754276326746
  0
TEXT
  5
187
330
17
100
AcDbEntity
  8
LABEL
100
AcDbText
 10
1218.000466259777
 20
149.97899999999981
 30
0.0
 40
12.0
  1
spacer
 72
1
 11
1218.000466259777
 21
149.97899999999981
 31
0.0
100
AcDbText
 73
2
  0
CIRCLE
  5
188
330
17
100
AcDbEntity
  8
0
100
AcDbCircle
 10
1272.000466259777
 20
257.958
 30
0.0
 40
4.0
  0
CIRCLE
  5
189
330
17
100
AcDbEntity
  8
0
100
AcDbCircle
 10
1272.000466259777
 20
42.0
 30
0.0
 40
4.0
  0
LWPOLYLINE
  5
18A
330
17
100
AcDbEntity
  8
0
100
AcDbPolyline
 90
4
 70
1
 10
1248.000466259777
 20
42.00000000000001
 42
0.9999999999999999
 10
1296.000466259777
 20
41.99999999999999
 10
1296.0004599322267
 20
257.9754276326746
 42
0.9992741120950986
 10
1248.0004725873275
 20
257.9754276326746
  0
TEXT
  5
18B
330
17
100
AcDbEntity
  8
LABEL
100
AcDbText
 10
1272.000466259777
 20
149.97899999999981
 30
0.0
 40
12.0
  1
spacer
 72
1
 11
1272.000466259777
 21
149.97899999999981
 31
0.0
100
AcDbText
 73
2
  0
CIRCLE
  5
18C
330
17
100
AcDbEntity
  8
0
100
AcDbCircle
 10
2157.4323730078204
 20
42.0
 30
0.0
 40
4.0
  0
CIRCLE
  5
18D
330
17
100
AcDbEntity
  8
0
100
AcDbCircle
 10
1941.4743730078203
 20
42.0
 30
0.0
 40
4.0
  0
LWPOLYLINE
  5
18E
330
17
100
AcDbEntity
  8
0
100
AcDbPolyline
 90
4
 70
1
 10
1941.4743730078203
 20
66.0
 42
0.9999999999999999
 10
1941.4743730078203
 20
18.0
 10
2157.4498006404947
 20
18.00000632755043
 42
0.9992741120950986
 10
2157.4498006404947
 20
65.99999367244956
  0
TEXT
  5
18F
330
17
100
AcDbEntity
  8
LABEL
100
AcDbText
 10
2049.45337300782
 20
42.0
 30
0.0
 40
12.0
  1
spacer
 72
1
 11
2049.45337300782
 21
42.0
 31
0.0
100
AcDbText
 73
2
  0
CIRCLE
  5
190
330
17
100
AcDbEntity
  8
0
100
AcDbCircle
 10
2211.43237300782
 20
257.958
 30
0.0
 40
4.0
  0
CIRCLE
  5
191
330
17
100
AcDbEntity
  8
0
100
AcDbCircle
 10
2211.43237300782
 20
42.0
 30
0.0
 40
4.0
  0
LWPOLYLINE
  5
192
330
17
100
AcDbEntity
  8
0
100
AcDbPolyline
 90
4
 70
1
 10
2187.43237300782
 20
42.00000000000001
 42
0.9999999999999999
 10
2235.43237300782
 20
41.99999999999999
 10
2235.4323666802693
 20
257.9754276326746
 42
0.9992741120950986
 10
2187.4323793353706
 20
257.9754276326746
  0
TEXT
  5
193
330
17
100
AcDbEntity
  8
LABEL
100
AcDbText
 10
2211.43237300782
 20
149.97899999999981
 30
0.0
 40
12.0
  1
spacer
 72
1
 11
2211.43237300782
 21
149.97899999999981
 31
0.0
100
AcDbText
 73
2
  0
CIRCLE
  5
194
330
17
100
AcDbEntity
  8
0
100
AcDbCircle
 10
2265.43237300782
 20
257.958
 30
0.0
 40
4.0
  0
CIRCLE
  5
195
330
17
100
AcDbEntity
  8
0
100
AcDbCircle
 10
2265.43237300782
 20
42.0
 30
0.0
 40
4.0
  0
LWPOLYLINE
  5
196
330
17
100
AcDbEntity
  8
0
100
AcDbPolyline
 90
4
 70
1
 10
2241.43237300782
 20
42.00000000000001
 42
0.9999999999999999
 10
2289.43237300782
 20
41.99999999999999
 10
2289.4323666802693
 20
257.9754276326746
 42
0.9992741120950986
 10
2241.4323793353706
 20
257.9754276326746
  0
TEXT
  5
197
330
17
100
AcDbEntity
  8
LABEL
100
AcDbText
 10
2265.43237300782
 20
149.97899999999981
 30
0.0
 40
12.0
  1
spacer
 72
1
 11
2265.43237300782
 21
149.97899999999981
 31
0.0
100
AcDbText
 73
2
  0
CIRCLE
  5
198
330
17
100
AcDbEntity
  8
0
100
AcDbCircle
 10
2319.43237300782
 20
257.958
 30
0.0
 40
4.0
  0
CIRCLE
  5
199
330
17
100
AcDbEntity
  8
0
100
AcDbCircle
 10
2319.43237300782
 20
42.0
 30
0.0
 40
4.0
  0
LWPOLYLINE
  5
19A
330
17
100
AcDbEntity
  8
0
100
AcDbPolyline
 90
4
 70
1
 10
2295.43237300782
 20
42.00000000000001
 42
0.9999999999999999
 10
2343.43237300782
 20
41.99999999999999
 10
2343.4323666802693
 20
257.9754276326746
 42
0.9992741120950986
 10
2295.4323793353706
 20
257.9754276326746
  0
TEXT
  5
19B
330
17
100
AcDbEntity
  8
LABEL
100
AcDbText
 10
2319.43237300782
 20
149.97899999999981
 30
0.0
 40
12.0
  1
spacer
 72
1
 11
2319.43237300782
 21
149.97899999999981
 31
0.0
100
AcDbText
 73
2
  0
CIRCLE
  5
19C
330
17
100
AcDbEntity
  8
0
100
AcDbCircle
 10
2373.43237300782
 20
257.958
 30
0.0
 40
4.0
  0
CIRCLE
  5
19D
330
17
100
AcDbEntity
  8
0
100
AcDbCircle
 10
2373.43237300782
 20
42.0
 30
0.0
 40
4.0
  0
LWPOLYLINE
  5
19E
330
17
100
AcDbEntity
  8
0
100
AcDbPolyline
 90
4
 70
1
 10
2349.43237300782
 20
42.00000000000001
 42
0.9999999999999999
 10
2397.43237300782
 20
41.99999999999999
 10
2397.4323666802693
 20
257.9754276326746
 42
0.9992741120950986
 10
2349.4323793353706
 20
257.9754276326746
  0
TEXT
  5
19F
330
17
100
AcDbEntity
  8
LABEL
100
AcDbText
 10
2373.43237300782
 20
149.97899999999981
 30
0.0
 40
12.0
  1
spacer
 72
1
 11
2373.43237300782
 21
149.97899999999981
 31
0.0
100
AcDbText
 73
2
  0
ENDSEC
  0
SECTION
  2
OBJECTS
  0
DICTIONARY
  5
A
330
0
100
AcDbDictionary
281
1
  3
ACAD_COLOR
350
B
  3
ACAD_GROUP
350
C
  3
ACAD_LAYOUT
350
D
  3
ACAD_MATERIAL
350
E
  3
ACAD_MLEADERSTYLE
350
F
  3
ACAD_MLINESTYLE
350
10
  3
ACAD_PLOTSETTINGS
350
11
  3
ACAD_PLOTSTYLENAME
350
12
  3
ACAD_SCALELIST
350
14
  3
ACAD_TABLESTYLE
350
15
  3
ACAD_VISUALSTYLE
350
16
  3
EZDXF_META
350
2D
  0
DICTIONARY
  5
B
330
A
100
AcDbDictionary
281
1
  0
DICTIONARY
  5
C
330
A
100
AcDbDictionary
281
1
  0
DICTIONARY
  5
D
330
A
100
AcDbDictionary
281
1
  3
Model
350
1A
  3
Layout1
350
1E
  0
DICTIONARY
  5
E
330
A
100
AcDbDictionary
281
1
  3
ByBlock
350
1F
  3
ByLayer
350
20
  3
Global
350
21
  0
DICTIONARY
  5
F
330
A
100
AcDbDictionary
281
1
  3
Standard
350
2C
  0
DICTIONARY
  5
10
330
A
100
AcDbDictionary
281
1
  3
Standard
350
22
  0
DICTIONARY
  5
11
330
A
100
AcDbDictionary
281
1
  0
ACDBDICTIONARYWDFLT
  5
12
330
A
100
AcDbDictionary
281
1
  3
Normal
350
13
100
AcDbDictionaryWithDefault
340
13
  0
ACDBPLACEHOLDER
  5
13
330
12
  0
DICTIONARY
  5
14
330
A
100
AcDbDictionary
281
1
  0
DICTIONARY
  5
15
330
A
100
AcDbDictionary
281
1
  0
DICTIONARY
  5
16
330
A
100
AcDbDictionary
281
1
  0
LAYOUT
  5
1A
330
D
100
AcDbPlotSettings
  1

  4
A3
  6

 40
7.5
 41
20.0
 42
7.5
 43
20.0
 44
420.0
 45
297.0
 46
0.0
 47
0.0
 48
0.0
 49
0.0
140
0.0
141
0.0
142
1.0
143
1.0
 70
1024
 72
1
 73
0
 74
5
  7

 75
16
 76
0
 77
2
 78
300
147
1.0
148
0.0
149
0.0
100
AcDbLayout
  1
Model
 70
1
 71
0
 10
0.0
 20
0.0
 11
420.0
 21
297.0
 12
0.0
 22
0.0
 32
0.0
 14
1e+20
 24
1e+20
 34
1e+20
 15
-1e+20
 25
-1e+20
 35
-1e+20
146
0.0
 13
0.0
 23
0.0
 33
0.0
 16
1.0
 26
0.0
 36
0.0
 17
0.0
 27
1.0
 37
0.0
 76
1
330
17
  0
LAYOUT
  5
1E
330
D
100
AcDbPlotSettings
  1

  4
A3
  6

 40
7.5
 41
20.0
 42
7.5
 43
20.0
 44
420.0
 45
297.0
 46
0.0
 47
0.0
 48
0.0
 49
0.0
140
0.0
141
0.0
142
1.0
143
1.0
 70
0
 72
1
 73
0
 74
5
  7

 75
16
 76
0
 77
2
 78
300
147
1.0
148
0.0
149
0.0
100
AcDbLayout
  1
Layout1
 70
1
 71
1
 10
0.0
 20
0.0
 11
420.0
 21
297.0
 12
0.0
 22
0.0
 32
0.0
 14
1e+20
 24
1e+20
 34
1e+20
 15
-1e+20
 25
-1e+20
 35
-1e+20
146
0.0
 13
0.0
 23
0.0
 33
0.0
 16
1.0
 26
0.0
 36
0.0
 17
0.0
 27
1.0
 37
0.0
 76
1
330
1B
  0
MATERIAL
  5
1F
102
{ACAD_REACTORS
330
E
102
}
330
E
100
AcDbMaterial
  1
ByBlock
  2

 70
0
 40
1.0
 71
1
 41
1.0
 91
-1023410177
 42
1.0
 72
1
  3

 73
1
 74
1
 75
1
 44
0.5
 73
0
 45
1.0
 46
1.0
 77
1
  4

 78
1
 79
1
170
1
 48
1.0
171
1
  6

172
1
173
1
174
1
140
1.0
141
1.0
175
1
  7

176
1
177
1
178
1
143
1.0
179
1
  8

270
1
271
1
272
1
145
1.0
146
1.0
273
1
  9

274
1
275
1
276
1
 42
1.0
 72
1
  3

 73
1
 74
1
 75
1
 94
63
  0
MATERIAL
  5
20
102
{ACAD_REACTORS
330
E
102
}
330
E
100
AcDbMaterial
  1
ByLayer
  2

 70
0
 40
1.0
 71
1
 41
1.0
 91
-1023410177
 42
1.0
 72
1
  3

 73
1
 74
1
 75
1
 44
0.5
 73
0
 45
1.0
 46
1.0
 77
1
  4

 78
1
 79
1
170
1
 48
1.0
171
1
  6

172
1
173
1
174
1
140
1.0
141
1.0
175
1
  7

176
1
177
1
178
1
143
1.0
179
1
  8

270
1
271
1
272
1
145
1.0
146
1.0
273
1
  9

274
1
275
1
276
1
 42
1.0
 72
1
  3

 73
1
 74
1
 75
1
 94
63
  0
MATERIAL
  5
21
102
{ACAD_REACTORS
330
E
102
}
330
E
100
AcDbMaterial
  1
Global
  2

 70
0
 40
1.0
 71
1
 41
1.0
 91
-1023410177
 42
1.0
 72
1
  3

 73
1
 74
1
 75
1
 44
0.5
 73
0
 45
1.0
 46
1.0
 77
1
  4

 78
1
 79
1
170
1
 48
1.0
171
1
  6

172
1
173
1
174
1
140
1.0
141
1.0
175
1
  7

176
1
177
1
178
1
143
1.0
179
1
  8

270
1
271
1
272
1
145
1.0
146
1.0
273
1
  9

274
1
275
1
276
1
 42
1.0
 72
1
  3

 73
1
 74
1
 75
1
 94
63
  0
MLINESTYLE
  5
22
102
{ACAD_REACTORS
330
10
102
}
330
10
100
AcDbMlineStyle
  2
Standard
 70
0
  3

 62
256
 51
90.0
 52
90.0
 71
2
 49
0.5
 62
256
  6
BYLAYER
 49
-0.5
 62
256
  6
BYLAYER
  0
MLEADERSTYLE
  5
2C
102
{ACAD_REACTORS
330
F
102
}
330
F
100
AcDbMLeaderStyle
179
2
170
2
171
1
172
0
 90
2
 40
0.0
 41
0.0
173
1
 91
-1056964608
 92
-2
290
1
 42
2.0
291
1
 43
8.0
  3
Standard
 44
4.0
300

342
29
174
1
175
1
176
0
178
1
 93
-1056964608
 45
4.0
292
0
297
0
 46
4.0
 94
-1056964608
 47
1.0
 49
1.0
140
1.0
294
1
141
0.0
177
0
142
1.0
295
0
296
0
143
3.75
271
0
272
9
273
9
  0
DICTIONARY
  5
2D
330
A
100
AcDbDictionary
280
1
281
1
  3
CREATED_BY_EZDXF
350
2E
  3
WRITTEN_BY_EZDXF
350
1A2
  0
DICTIONARYVAR
  5
2E
330
2D
100
DictionaryVariables
280
0
  1
1.4.4 @ 2026-08-05T12:59:47.713655+00:00
  0
DICTIONARYVAR
  5
1A2
330
2D
100
DictionaryVariables
280
0
  1
1.4.4 @ 2026-08-05T12:59:48.665272+00:00
  0
ENDSEC
  0
EOF
