  0
SECTION
  2
HEADER
  9
$ACADVER
  1
AC1027
  9
$ACADMAINTVER
 70
105
  9
$DWGCODEPAGE
  3
ANSI_1252
  9
$LASTSAVEDBY
  1
ezdxf
  9
$REQUIREDVERSIONS
160
0
  9
$INSBASE
 10
0.0
 20
0.0
 30
0.0
  9
$EXTMIN
 10
1e+20
 20
1e+20
 30
1e+20
  9
$EXTMAX
 10
-1e+20
 20
-1e+20
 30
-1e+20
  9
$LIMMIN
 10
0.0
 20
0.0
  9
$LIMMAX
 10
420.0
 20
297.0
  9
$ORTHOMODE
 70
0
  9
$REGENMODE
 70
1
  9
$FILLMODE
 70
1
  9
$QTEXTMODE
 70
0
  9
$MIRRTEXT
 70
1
  9
$LTSCALE
 40
1.0
  9
$ATTMODE
 70
1
  9
$TEXTSIZE
 40
2.5
  9
$TRACEWID
 40
1.0
  9
$TEXTSTYLE
  7
Standard
  9
$CLAYER
  8
0
  9
$CELTYPE
  6
ByLayer
  9
$CECOLOR
 62
256
  9
$CELTSCALE
 40
1.0
  9
$DISPSILH
 70
0
  9
$DIMSCALE
 40
1.0
  9
$DIMASZ
 40
2.5
  9
$DIMEXO
 40
0.625
  9
$DIMDLI
 40
3.75
  9
$DIMRND
 40
0.0
  9
$DIMDLE
 40
0.0
  9
$DIMEXE
 40
1.25
  9
$DIMTP
 40
0.0
  9
$DIMTM
 40
0.0
  9
$DIMTXT
 40
2.5
  9
$DIMCEN
 40
2.5
  9
$DIMTSZ
 40
0.0
  9
$DIMTOL
 70
0
  9
$DIMLIM
 70
0
  9
$DIMTIH
 70
0
  9
$DIMTOH
 70
0
  9
$DIMSE1
 70
0
  9
$DIMSE2
 70
0
  9
$DIMTAD
 70
1
  9
$DIMZIN
 70
8
  9
$DIMBLK
  1

  9
$DIMASO
 70
1
  9
$DIMSHO
 70
1
  9
$DIMPOST
  1

  9
$DIMAPOST
  1

  9
$DIMALT
 70
0
  9
$DIMALTD
 70
3
  9
$DIMALTF
 40
0.03937007874
  9
$DIMLFAC
 40
1.0
  9
$DIMTOFL
 70
1
  9
$DIMTVP
 40
0.0
  9
$DIMTIX
 70
0
  9
$DIMSOXD
 70
0
  9
$DIMSAH
 70
0
  9
$DIMBLK1
  1

  9
$DIMBLK2
  1

  9
$DIMSTYLE
  2
ISO-25
  9
$DIMCLRD
 70
0
  9
$DIMCLRE
 70
0
  9
$DIMCLRT
 70
0
  9
$DIMTFAC
 40
1.0
  9
$DIMGAP
 40
0.625
  9
$DIMJUST
 70
0
  9
$DIMSD1
 70
0
  9
$DIMSD2
 70
0
  9
$DIMTOLJ
 70
0
  9
$DIMTZIN
 70
8
  9
$DIMALTZ
 70
0
  9
$DIMALTTZ
 70
0
  9
$DIMUPT
 70
0
  9
$DIMDEC
 70
2
  9
$DIMTDEC
 70
2
  9
$DIMALTU
 70
2
  9
$DIMALTTD
 70
3
  9
$DIMTXSTY
  7
Standard
  9
$DIMAUNIT
 70
0
  9
$DIMADEC
 70
0
  9
$DIMALTRND
 40
0.0
  9
$DIMAZIN
 70
0
  9
$DIMDSEP
 70
44
  9
$DIMATFIT
 70
3
  9
$DIMFRAC
 70
0
  9
$DIMLDRBLK
  1

  9
$DIMLUNIT
 70
2
  9
$DIMLWD
 70
-2
  9
$DIMLWE
 70
-2
  9
$DIMTMOVE
 70
0
  9
$DIMFXL
 40
1.0
  9
$DIMFXLON
 70
0
  9
$DIMJOGANG
 40
0.785398163397
  9
$DIMTFILL
 70
0
  9
$DIMTFILLCLR
 70
0
  9
$DIMARCSYM
 70
0
  9
$DIMLTYPE
  6

  9
$DIMLTEX1
  6

  9
$DIMLTEX2
  6

  9
$DIMTXTDIRECTION
 70
0
  9
$LUNITS
 70
2
  9
$LUPREC
 70
4
  9
$SKETCHINC
 40
1.0
  9
$FILLETRAD
 40
10.0
  9
$AUNITS
 70
0
  9
$AUPREC
 70
2
  9
$MENU
  1
.
  9
$ELEVATION
 40
0.0
  9
$PELEVATION
 40
0.0
  9
$THICKNESS
 40
0.0
  9
$LIMCHECK
 70
0
  9
$CHAMFERA
 40
0.0
  9
$CHAMFERB
 40
0.0
  9
$CHAMFERC
 40
0.0
  9
$CHAMFERD
 40
0.0
  9
$SKPOLY
 70
0
  9
$TDCREATE
 40
2461258.7669212963
  9
$TDUCREATE
 40
2458532.153996898
  9
$TDUPDATE
 40
2461258.7669328703
  9
$TDUUPDATE
 40
2458532.1544311
  9
$TDINDWG
 40
0.0
  9
$TDUSRTIMER
 40
0.0
  9
$USRTIMER
 70
1
  9
$ANGBASE
 50
0.0
  9
$ANGDIR
 70
0
  9
$PDMODE
 70
0
  9
$PDSIZE
 40
0.0
  9
$PLINEWID
 40
0.0
  9
$SPLFRAME
 70
0
  9
$SPLINETYPE
 70
6
  9
$SPLINESEGS
 70
8
  9
$HANDSEED
  5
257
  9
$SURFTAB1
 70
6
  9
$SURFTAB2
 70
6
  9
$SURFTYPE
 70
6
  9
$SURFU
 70
6
  9
$SURFV
 70
6
  9
$UCSBASE
  2

  9
$UCSNAME
  2

  9
$UCSORG
 10
0.0
 20
0.0
 30
0.0
  9
$UCSXDIR
 10
1.0
 20
0.0
 30
0.0
  9
$UCSYDIR
 10
0.0
 20
1.0
 30
0.0
  9
$UCSORTHOREF
  2

  9
$UCSORTHOVIEW
 70
0
  9
$UCSORGTOP
 10
0.0
 20
0.0
 30
0.0
  9
$UCSORGBOTTOM
 10
0.0
 20
0.0
 30
0.0
  9
$UCSORGLEFT
 10
0.0
 20
0.0
 30
0.0
  9
$UCSORGRIGHT
 10
0.0
 20
0.0
 30
0.0
  9
$UCSORGFRONT
 10
0.0
 20
0.0
 30
0.0
  9
$UCSORGBACK
 10
0.0
 20
0.0
 30
0.0
  9
$PUCSBASE
  2

  9
$PUCSNAME
  2

  9
$PUCSORG
 10
0.0
 20
0.0
 30
0.0
  9
$PUCSXDIR
 10
1.0
 20
0.0
 30
0.0
  9
$PUCSYDIR
 10
0.0
 20
1.0
 30
0.0
  9
$PUCSORTHOREF
  2

  9
$PUCSORTHOVIEW
 70
0
  9
$PUCSORGTOP
 10
0.0
 20
0.0
 30
0.0
  9
$PUCSORGBOTTOM
 10
0.0
 20
0.0
 30
0.0
  9
$PUCSORGLEFT
 10
0.0
 20
0.0
 30
0.0
  9
$PUCSORGRIGHT
 10
0.0
 20
0.0
 30
0.0
  9
$PUCSORGFRONT
 10
0.0
 20
0.0
 30
0.0
  9
$PUCSORGBACK
 10
0.0
 20
0.0
 30
0.0
  9
$USERI1
 70
0
  9
$USERI2
 70
0
  9
$USERI3
 70
0
  9
$USERI4
 70
0
  9
$USERI5
 70
0
  9
$USERR1
 40
0.0
  9
$USERR2
 40
0.0
  9
$USERR3
 40
0.0
  9
$USERR4
 40
0.0
  9
$USERR5
 40
0.0
  9
$WORLDVIEW
 70
1
  9
$SHADEDGE
 70
3
  9
$SHADEDIF
 70
70
  9
$TILEMODE
 70
1
  9
$MAXACTVP
 70
64
  9
$PINSBASE
 10
0.0
 20
0.0
 30
0.0
  9
$PLIMCHECK
 70
0
  9
$PEXTMIN
 10
1e+20
 20
1e+20
 30
1e+20
  9
$PEXTMAX
 10
-1e+20
 20
-1e+20
 30
-1e+20
  9
$PLIMMIN
 10
0.0
 20
0.0
  9
$PLIMMAX
 10
420.0
 20
297.0
  9
$UNITMODE
 70
0
  9
$VISRETAIN
 70
1
  9
$PLINEGEN
 70
0
  9
$PSLTSCALE
 70
1
  9
$TREEDEPTH
 70
3020
  9
$CMLSTYLE
  2
Standard
  9
$CMLJUST
 70
0
  9
$CMLSCALE
 40
20.0
  9
$PROXYGRAPHICS
 70
1
  9
$MEASUREMENT
 70
1
  9
$CELWEIGHT
370
-1
  9
$ENDCAPS
280
0
  9
$JOINSTYLE
280
0
  9
$LWDISPLAY
290
0
  9
$INSUNITS
 70
4
  9
$HYPERLINKBASE
  1

  9
$STYLESHEET
  1

  9
$XEDIT
290
1
  9
$CEPSNTYPE
380
0
  9
$PSTYLEMODE
290
1
  9
$FINGERPRINTGUID
  2
{5EF7A27A-58D9-40F0-A169-314A5CECF33B}
  9
$VERSIONGUID
  2
{AE845B32-1B00-4C86-A681-4B15E6E5876D}
  9
$EXTNAMES
290
1
  9
$PSVPSCALE
 40
0.0
  9
$OLESTARTUP
290
0
  9
$SORTENTS
280
127
  9
$INDEXCTL
280
0
  9
$HIDETEXT
280
1
  9
$XCLIPFRAME
280
1
  9
$HALOGAP
280
0
  9
$OBSCOLOR
 70
257
  9
$OBSLTYPE
280
0
  9
$INTERSECTIONDISPLAY
280
0
  9
$INTERSECTIONCOLOR
 70
257
  9
$DIMASSOC
280
2
  9
$PROJECTNAME
  1

  9
$CAMERADISPLAY
290
0
  9
$LENSLENGTH
 40
50.0
  9
$CAMERAHEIGHT
 40
0.0
  9
$STEPSPERSEC
 40
24.0
  9
$STEPSIZE
 40
100.0
  9
$3DDWFPREC
 40
2.0
  9
$PSOLWIDTH
 40
0.005
  9
$PSOLHEIGHT
 40
0.08
  9
$LOFTANG1
 40
1.570796326795
  9
$LOFTANG2
 40
1.570796326795
  9
$LOFTMAG1
 40
0.0
  9
$LOFTMAG2
 40
0.0
  9
$LOFTPARAM
 70
7
  9
$LOFTNORMALS
280
1
  9
$LATITUDE
 40
37.795
  9
$LONGITUDE
 40
-122.394
  9
$NORTHDIRECTION
 40
0.0
  9
$TIMEZONE
 70
-8000
  9
$LIGHTGLYPHDISPLAY
280
1
  9
$TILEMODELIGHTSYNCH
280
1
  9
$CMATERIAL
347
20
  9
$SOLIDHIST
280
0
  9
$SHOWHIST
280
1
  9
$DWFFRAME
280
2
  9
$DGNFRAME
280
2
  9
$REALWORLDSCALE
290
1
  9
$INTERFERECOLOR
 62
256
  9
$CSHADOW
280
0
  9
$SHADOWPLANELOCATION
 40
0.0
  0
ENDSEC
  0
SECTION
  2
CLASSES
  0
CLASS
  1
ACDBDICTIONARYWDFLT
  2
AcDbDictionaryWithDefault
  3
ObjectDBX Classes
 90
0
 91
0
280
0
281
0
  0
CLASS
  1
SUN
  2
AcDbSun
  3
SCENEOE
 90
1153
 91
0
280
0
281
0
  0
CLASS
  1
VISUALSTYLE
  2
AcDbVisualStyle
  3
ObjectDBX Classes
 90
4095
 91
0
280
0
281
0
  0
CLASS
  1
MATERIAL
  2
AcDbMaterial
  3
ObjectDBX Classes
 90
1153
 91
0
280
0
281
0
  0
CLASS
  1
SCALE
  2
AcDbScale
  3
ObjectDBX Classes
 90
1153
 91
0
280
0
281
0
  0
CLASS
  1
TABLESTYLE
  2
AcDbTableStyle
  3
ObjectDBX Classes
 90
4095
 91
0
280
0
281
0
  0
CLASS
  1
MLEADERSTYLE
  2
AcDbMLeaderStyle
  3
ACDB_MLEADERSTYLE_CLASS
 90
4095
 91
0
280
0
281
0
  0
CLASS
  1
DICTIONARYVAR
  2
AcDbDictionaryVar
  3
ObjectDBX Classes
 90
0
 91
0
280
0
281
0
  0
CLASS
  1
CELLSTYLEMAP
  2
AcDbCellStyleMap
  3
ObjectDBX Classes
 90
1152
 91
0
280
0
281
0
  0
CLASS
  1
MENTALRAYRENDERSETTINGS
  2
AcDbMentalRayRenderSettings
  3
SCENEOE
 90
1024
 91
0
280
0
281
0
  0
CLASS
  1
ACDBDETAILVIEWSTYLE
  2
AcDbDetailViewStyle
  3
ObjectDBX Classes
 90
1025
 91
0
280
0
281
0
  0
CLASS
  1
ACDBSECTIONVIEWSTYLE
  2
AcDbSectionViewStyle
  3
ObjectDBX Classes
 90
1025
 91
0
280
0
281
0
  0
CLASS
  1
RASTERVARIABLES
  2
AcDbRasterVariables
  3
ISM
 90
0
 91
0
280
0
281
0
  0
CLASS
  1
LAYOUT
  2
AcDbLayout
  3
ObjectDBX Classes
 90
0
 91
0
280
0
281
0
  0
CLASS
  1
ACDBPLACEHOLDER
  2
AcDbPlaceHolder
  3
ObjectDBX Classes
 90
0
 91
0
280
0
281
0
  0
ENDSEC
  0
SECTION
  2
TABLES
  0
TABLE
  2
VPORT
  5
8
330
0
100
AcDbSymbolTable
 70
1
  0
VPORT
  5
23
330
8
100
AcDbSymbolTableRecord
100
AcDbViewportTableRecord
  2
*Active
 70
0
 10
0.0
 20
0.0
 11
1.0
 21
1.0
 12
0.0
 22
0.0
 13
0.0
 23
0.0
 14
0.5
 24
0.5
 15
0.5
 25
0.5
 16
0.0
 26
0.0
 36
1.0
 17
0.0
 27
0.0
 37
0.0
 40
1000.0
 41
1.34
 42
50.0
 43
0.0
 44
0.0
 50
0.0
 51
0.0
 71
0
 72
1000
 73
1
 74
3
 75
0
 76
0
 77
0
 78
0
281
0
 65
0
146
0.0
  0
ENDTAB
  0
TABLE
  2
LTYPE
  5
2
330
0
100
AcDbSymbolTable
 70
3
  0
LTYPE
  5
24
330
2
100
AcDbSymbolTableRecord
100
AcDbLinetypeTableRecord
  2
ByBlock
 70
0
  3

 72
65
 73
0
 40
0.0
  0
LTYPE
  5
25
330
2
100
AcDbSymbolTableRecord
100
AcDbLinetypeTableRecord
  2
ByLayer
 70
0
  3

 72
65
 73
0
 40
0.0
  0
LTYPE
  5
26
330
2
100
AcDbSymbolTableRecord
100
AcDbLinetypeTableRecord
  2
Continuous
 70
0
  3

 72
65
 73
0
 40
0.0
  0
ENDTAB
  0
TABLE
  2
LAYER
  5
1
330
0
100
AcDbSymbolTable
 70
3
  0
LAYER
  5
27
330
1
100
AcDbSymbolTableRecord
100
AcDbLayerTableRecord
  2
0
 70
0
 62
7
  6
Continuous
370
-3
390
13
347
21
  0
LAYER
  5
28
330
1
100
AcDbSymbolTableRecord
100
AcDbLayerTableRecord
  2
Defpoints
 70
0
 62
7
  6
Continuous
290
0
370
-3
390
13
347
21
  0
LAYER
  5
2F
330
1
100
AcDbSymbolTableRecord
100
AcDbLayerTableRecord
  2
LABEL
 70
0
 62
1
  6
Continuous
370
-3
390
13
347
21
  0
ENDTAB
  0
TABLE
  2
STYLE
  5
5
330
0
100
AcDbSymbolTable
 70
1
  0
STYLE
  5
29
330
5
100
AcDbSymbolTableRecord
100
AcDbTextStyleTableRecord
  2
Standard
 70
0
 40
0.0
 41
1.0
 50
0.0
 71
0
 42
2.5
  3
txt
  4

  0
ENDTAB
  0
TABLE
  2
VIEW
  5
7
330
0
100
AcDbSymbolTable
 70
0
  0
ENDTAB
  0
TABLE
  2
UCS
  5
6
330
0
100
AcDbSymbolTable
 70
0
  0
ENDTAB
  0
TABLE
  2
APPID
  5
3
330
0
100
AcDbSymbolTable
 70
3
  0
APPID
  5
2A
330
3
100
AcDbSymbolTableRecord
100
AcDbRegAppTableRecord
  2
ACAD
 70
0
  0
APPID
  5
254
330
3
100
AcDbSymbolTableRecord
100
AcDbRegAppTableRecord
  2
HATCHBACKGROUNDCOLOR
 70
0
  0
APPID
  5
255
330
3
100
AcDbSymbolTableRecord
100
AcDbRegAppTableRecord
  2
EZDXF
 70
0
  0
ENDTAB
  0
TABLE
  2
DIMSTYLE
  5
4
330
0
100
AcDbSymbolTable
 70
1
100
AcDbDimStyleTable
  0
DIMSTYLE
105
2B
330
4
100
AcDbSymbolTableRecord
100
AcDbDimStyleTableRecord
  2
Standard
 70
0
 40
1.0
 41
2.5
 42
0.625
 43
3.75
 44
1.25
 45
0.0
 46
0.0
 47
0.0
 48
0.0
 49
2.5
140
2.5
141
2.5
142
0.0
143
0.03937007874
144
1.0
145
0.0
146
1.0
147
0.625
148
0.0
 69
0
 70
0
 71
0
 72
0
 73
0
 74
0
 75
0
 76
0
 77
1
 78
8
 79
3
170
0
171
3
172
1
173
0
174
0
175
0
176
0
177
0
178
0
179
2
271
2
272
2
273
2
274
3
275
0
276
0
277
2
278
44
279
0
280
0
281
0
282
0
283
0
284
8
285
0
286
0
288
0
289
3
290
0
371
-2
372
-2
  0
ENDTAB
  0
TABLE
  2
BLOCK_RECORD
  5
9
330
0
100
AcDbSymbolTable
 70
2
  0
BLOCK_RECORD
  5
17
330
9
100
AcDbSymbolTableRecord
100
AcDbBlockTableRecord
  2
*Model_Space
340
1A
 70
0
280
1
281
0
  0
BLOCK_RECORD
  5
1B
330
9
100
AcDbSymbolTableRecord
100
AcDbBlockTableRecord
  2
*Paper_Space
340
1E
 70
0
280
1
281
0
  0
ENDTAB
  0
ENDSEC
  0
SECTION
  2
BLOCKS
  0
BLOCK
  5
18
330
17
100
AcDbEntity
  8
0
100
AcDbBlockBegin
  2
*Model_Space
 70
0
 10
0.0
 20
0.0
 30
0.0
  3
*Model_Space
  1

  0
ENDBLK
  5
19
330
17
100
AcDbEntity
  8
0
100
AcDbBlockEnd
  0
BLOCK
  5
1C
330
1B
100
AcDbEntity
  8
0
100
AcDbBlockBegin
  2
*Paper_Space
 70
0
 10
0.0
 20
0.0
 30
0.0
  3
*Paper_Space
  1

  0
ENDBLK
  5
1D
330
1B
100
AcDbEntity
  8
0
100
AcDbBlockEnd
  0
ENDSEC
  0
SECTION
  2
ENTITIES
  0
CIRCLE
  5
30
330
17
100
AcDbEntity
  8
0
100
AcDbCircle
 10
48.0
 20
348.0
 30
0.0
 40
6.5
  0
CIRCLE
  5
31
330
17
100
AcDbEntity
  8
0
100
AcDbCircle
 10
48.0
 20
48.0
 30
0.0
 40
6.5
  0
LWPOLYLINE
  5
32
330
17
100
AcDbEntity
  8
0
100
AcDbPolyline
 90
4
 70
1
 10
18.0
 20
348.0
 10
18.0
 20
48.0
 42
0.9999999999999999
 10
78.0
 20
48.0
 10
77.99999999999994
 20
348.0
 42
0.9999999999999999
  0
TEXT
  5
33
330
17
100
AcDbEntity
  8
LABEL
100
AcDbText
 10
48.0
 20
93.0
 30
0.0
 40
12.0
  1
LinkJ
 72
1
 11
48.0
 21
93.0
 31
0.0
100
AcDbText
 73
2
  0
CIRCLE
  5
34
330
17
100
AcDbEntity
  8
0
100
AcDbCircle
 10
48.0
 20
714.0
 30
0.0
 40
6.5
  0
CIRCLE
  5
35
330
17
100
AcDbEntity
  8
0
100
AcDbCircle
 10
48.0
 20
414.0
 30
0.0
 40
6.5
  0
LWPOLYLINE
  5
36
330
17
100
AcDbEntity
  8
0
100
AcDbPolyline
 90
4
 70
1
 10
18.0
 20
714.0
 10
18.0
 20
414.0
 42
0.9999999999999999
 10
78.0
 20
414.0
 10
77.99999999999994
 20
714.0
 42
0.9999999999999999
  0
TEXT
  5
37
330
17
100
AcDbEntity
  8
LABEL
100
AcDbText
 10
48.0
 20
459.0
 30
0.0
 40
12.0
  1
LinkJ
 72
1
 11
48.0
 21
459.0
 31
0.0
100
AcDbText
 73
2
  0
CIRCLE
  5
38
330
17
100
AcDbEntity
  8
0
100
AcDbCircle
 10
48.0
 20
1080.0
 30
0.0
 40
6.5
  0
CIRCLE
  5
39
330
17
100
AcDbEntity
  8
0
100
AcDbCircle
 10
48.0
 20
780.0
 30
0.0
 40
6.5
  0
LWPOLYLINE
  5
3A
330
17
100
AcDbEntity
  8
0
100
AcDbPolyline
 90
4
 70
1
 10
18.0
 20
1080.0
 10
18.0
 20
780.0
 42
0.9999999999999999
 10
78.0
 20
780.0
 10
77.99999999999994
 20
1080.0
 42
0.9999999999999999
  0
TEXT
  5
3B
330
17
100
AcDbEntity
  8
LABEL
100
AcDbText
 10
48.0
 20
825.0
 30
0.0
 40
12.0
  1
LinkJ
 72
1
 11
48.0
 21
825.0
 31
0.0
100
AcDbText
 73
2
  0
CIRCLE
  5
3C
330
17
100
AcDbEntity
  8
0
100
AcDbCircle
 10
48.0
 20
1146.0
 30
0.0
 40
6.5
  0
CIRCLE
  5
3D
330
17
100
AcDbEntity
  8
0
100
AcDbCircle
 10
348.0
 20
1146.0
 30
0.0
 40
6.5
  0
LWPOLYLINE
  5
3E
330
17
100
AcDbEntity
  8
0
100
AcDbPolyline
 90
4
 70
1
 10
48.0
 20
1116.0
 10
348.0
 20
1116.0
 42
0.9999999999999999
 10
348.0
 20
1176.0
 10
48.0
 20
1176.0
 42
0.9999999999999999
  0
TEXT
  5
3F
330
17
100
AcDbEntity
  8
LABEL
100
AcDbText
 10
303.0
 20
1146.0
 30
0.0
 40
12.0
  1
LinkJ
 72
1
 11
303.0
 21
1146.0
 31
0.0
100
AcDbText
 73
2
  0
CIRCLE
  5
40
330
17
100
AcDbEntity
  8
0
100
AcDbCircle
 10
114.0
 20
348.0
 30
0.0
 40
6.5
  0
CIRCLE
  5
41
330
17
100
AcDbEntity
  8
0
100
AcDbCircle
 10
114.0
 20
48.0
 30
0.0
 40
6.5
  0
LWPOLYLINE
  5
42
330
17
100
AcDbEntity
  8
0
100
AcDbPolyline
 90
4
 70
1
 10
84.0
 20
348.0
 10
84.0
 20
48.0
 42
0.9999999999999999
 10
144.0
 20
48.0
 10
143.99999999999994
 20
348.0
 42
0.9999999999999999
  0
TEXT
  5
43
330
17
100
AcDbEntity
  8
LABEL
100
AcDbText
 10
114.0
 20
93.0
 30
0.0
 40
12.0
  1
LinkJ
 72
1
 11
114.0
 21
93.0
 31
0.0
100
AcDbText
 73
2
  0
CIRCLE
  5
44
330
17
100
AcDbEntity
  8
0
100
AcDbCircle
 10
114.0
 20
714.0
 30
0.0
 40
6.5
  0
CIRCLE
  5
45
330
17
100
AcDbEntity
  8
0
100
AcDbCircle
 10
114.0
 20
414.0
 30
0.0
 40
6.5
  0
LWPOLYLINE
  5
46
330
17
100
AcDbEntity
  8
0
100
AcDbPolyline
 90
4
 70
1
 10
84.0
 20
714.0
 10
84.0
 20
414.0
 42
0.9999999999999999
 10
144.0
 20
414.0
 10
143.99999999999994
 20
714.0
 42
0.9999999999999999
  0
TEXT
  5
47
330
17
100
AcDbEntity
  8
LABEL
100
AcDbText
 10
114.0
 20
459.0
 30
0.0
 40
12.0
  1
LinkJ
 72
1
 11
114.0
 21
459.0
 31
0.0
100
AcDbText
 73
2
  0
CIRCLE
  5
48
330
17
100
AcDbEntity
  8
0
100
AcDbCircle
 10
114.0
 20
1080.0
 30
0.0
 40
6.5
  0
CIRCLE
  5
49
330
17
100
AcDbEntity
  8
0
100
AcDbCircle
 10
114.0
 20
780.0
 30
0.0
 40
6.5
  0
LWPOLYLINE
  5
4A
330
17
100
AcDbEntity
  8
0
100
AcDbPolyline
 90
4
 70
1
 10
84.0
 20
1080.0
 10
84.0
 20
780.0
 42
0.9999999999999999
 10
144.0
 20
780.0
 10
143.99999999999994
 20
1080.0
 42
0.9999999999999999
  0
TEXT
  5
4B
330
17
100
AcDbEntity
  8
LABEL
100
AcDbText
 10
114.0
 20
825.0
 30
0.0
 40
12.0
  1
LinkJ
 72
1
 11
114.0
 21
825.0
 31
0.0
100
AcDbText
 73
2
  0
LWPOLYLINE
  5
4C
330
17
100
AcDbEntity
  8
0
100
AcDbPolyline
 90
4
 70
1
 10
210.00000000000003
 20
297.0
 42
0.9999999999999999
 10
150.00000000000003
 20
297.0
 10
150.0
 20
47.99999999999994
 42
0.9999999999999999
 10
210.0
 20
48.0
  0
CIRCLE
  5
4D
330
17
100
AcDbEntity
  8
0
100
AcDbCircle
 10
180.00000000000003
 20
297.0
 30
-2.7755575615628914e-16
 40
6.5
  0
CIRCLE
  5
4E
330
17
100
AcDbEntity
  8
0
100
AcDbCircle
 10
180.0
 20
48.0
 30
-2.7755575615628914e-16
 40
6.5
  0
TEXT
  5
4F
330
17
100
AcDbEntity
  8
LABEL
100
AcDbText
 10
180.0
 20
95.25
 30
0.0
 40
12.0
  1
LinkB
 72
1
 11
180.0
 21
95.25
 31
0.0
100
AcDbText
 73
2
  0
LWPOLYLINE
  5
50
330
17
100
AcDbEntity
  8
0
100
AcDbPolyline
 90
4
 70
1
 10
210.00000000000003
 20
612.0
 42
0.9999999999999999
 10
150.00000000000003
 20
612.0
 10
150.0
 20
362.99999999999994
 42
0.9999999999999999
 10
210.0
 20
363.0
  0
CIRCLE
  5
51
330
17
100
AcDbEntity
  8
0
100
AcDbCircle
 10
180.00000000000003
 20
612.0
 30
-2.7755575615628914e-16
 40
6.5
  0
CIRCLE
  5
52
330
17
100
AcDbEntity
  8
0
100
AcDbCircle
 10
180.0
 20
363.0
 30
-2.7755575615628914e-16
 40
6.5
  0
TEXT
  5
53
330
17
100
AcDbEntity
  8
LABEL
100
AcDbText
 10
180.0
 20
410.25
 30
0.0
 40
12.0
  1
LinkB
 72
1
 11
180.0
 21
410.25
 31
0.0
100
AcDbText
 73
2
  0
LWPOLYLINE
  5
54
330
17
100
AcDbEntity
  8
0
100
AcDbPolyline
 90
4
 70
1
 10
210.00000000000003
 20
927.0
 42
0.9999999999999999
 10
150.00000000000003
 20
927.0
 10
150.0
 20
678.0
 42
0.9999999999999999
 10
210.0
 20
678.0
  0
CIRCLE
  5
55
330
17
100
AcDbEntity
  8
0
100
AcDbCircle
 10
180.00000000000003
 20
927.0
 30
-2.7755575615628914e-16
 40
6.5
  0
CIRCLE
  5
56
330
17
100
AcDbEntity
  8
0
100
AcDbCircle
 10
180.0
 20
678.0
 30
-2.7755575615628914e-16
 40
6.5
  0
TEXT
  5
57
330
17
100
AcDbEntity
  8
LABEL
100
AcDbText
 10
180.0
 20
725.25
 30
0.0
 40
12.0
  1
LinkB
 72
1
 11
180.0
 21
725.25
 31
0.0
100
AcDbText
 73
2
  0
LWPOLYLINE
  5
58
330
17
100
AcDbEntity
  8
0
100
AcDbPolyline
 90
4
 70
1
 10
429.0
 20
963.0000000000001
 42
0.9999999999999999
 10
429.0
 20
1023.0000000000001
 10
179.99999999999994
 20
1023.0000000000001
 42
0.9999999999999999
 10
180.0
 20
963.0000000000001
  0
CIRCLE
  5
59
330
17
100
AcDbEntity
  8
0
100
AcDbCircle
 10
429.0
 20
993.0000000000001
 30
-2.7755575615628914e-16
 40
6.5
  0
CIRCLE
  5
5A
330
17
100
AcDbEntity
  8
0
100
AcDbCircle
 10
180.0
 20
993.0000000000001
 30
-2.7755575615628914e-16
 40
6.5
  0
TEXT
  5
5B
330
17
100
AcDbEntity
  8
LABEL
100
AcDbText
 10
227.25
 20
993.0000000000001
 30
0.0
 40
12.0
  1
LinkB
 72
1
 11
227.25
 21
993.0000000000001
 31
0.0
100
AcDbText
 73
2
  0
LWPOLYLINE
  5
5C
330
17
100
AcDbEntity
  8
0
100
AcDbPolyline
 90
4
 70
1
 10
429.0
 20
1029.0
 42
0.9999999999999999
 10
429.0
 20
1089.0
 10
179.99999999999994
 20
1089.0
 42
0.9999999999999999
 10
180.0
 20
1029.0
  0
CIRCLE
  5
5D
330
17
100
AcDbEntity
  8
0
100
AcDbCircle
 10
429.0
 20
1059.0
 30
-2.7755575615628914e-16
 40
6.5
  0
CIRCLE
  5
5E
330
17
100
AcDbEntity
  8
0
100
AcDbCircle
 10
180.0
 20
1059.0
 30
-2.7755575615628914e-16
 40
6.5
  0
TEXT
  5
5F
330
17
100
AcDbEntity
  8
LABEL
100
AcDbText
 10
227.25
 20
1059.0
 30
0.0
 40
12.0
  1
LinkB
 72
1
 11
227.25
 21
1059.0
 31
0.0
100
AcDbText
 73
2
  0
LWPOLYLINE
  5
60
330
17
100
AcDbEntity
  8
0
100
AcDbPolyline
 90
4
 70
1
 10
663.0
 20
1095.0
 42
0.9999999999999999
 10
663.0
 20
1155.0
 10
413.99999999999994
 20
1155.0
 42
0.9999999999999999
 10
414.0
 20
1095.0
  0
CIRCLE
  5
61
330
17
100
AcDbEntity
  8
0
100
AcDbCircle
 10
663.0
 20
1125.0
 30
-2.7755575615628914e-16
 40
6.5
  0
CIRCLE
  5
62
330
17
100
AcDbEntity
  8
0
100
AcDbCircle
 10
414.0
 20
1125.0
 30
-2.7755575615628914e-16
 40
6.5
  0
TEXT
  5
63
330
17
100
AcDbEntity
  8
LABEL
100
AcDbText
 10
461.25
 20
1125.0
 30
0.0
 40
12.0
  1
LinkB
 72
1
 11
461.25
 21
1125.0
 31
0.0
100
AcDbText
 73
2
  0
LWPOLYLINE
  5
64
330
17
100
AcDbEntity
  8
0
100
AcDbPolyline
 90
4
 70
1
 10
276.00000000000006
 20
297.0
 42
0.9999999999999999
 10
216.00000000000006
 20
297.0
 10
216.0
 20
47.99999999999994
 42
0.9999999999999999
 10
276.0
 20
48.0
  0
CIRCLE
  5
65
330
17
100
AcDbEntity
  8
0
100
AcDbCircle
 10
246.00000000000006
 20
297.0
 30
-2.7755575615628914e-16
 40
6.5
  0
CIRCLE
  5
66
330
17
100
AcDbEntity
  8
0
100
AcDbCircle
 10
246.0
 20
48.0
 30
-2.7755575615628914e-16
 40
6.5
  0
TEXT
  5
67
330
17
100
AcDbEntity
  8
LABEL
100
AcDbText
 10
246.0
 20
95.25
 30
0.0
 40
12.0
  1
LinkB
 72
1
 11
246.0
 21
95.25
 31
0.0
100
AcDbText
 73
2
  0
LWPOLYLINE
  5
68
330
17
100
AcDbEntity
  8
0
100
AcDbPolyline
 90
4
 70
1
 10
276.00000000000006
 20
612.0
 42
0.9999999999999999
 10
216.00000000000006
 20
612.0
 10
216.0
 20
362.99999999999994
 42
0.9999999999999999
 10
276.0
 20
363.0
  0
CIRCLE
  5
69
330
17
100
AcDbEntity
  8
0
100
AcDbCircle
 10
246.00000000000006
 20
612.0
 30
-2.7755575615628914e-16
 40
6.5
  0
CIRCLE
  5
6A
330
17
100
AcDbEntity
  8
0
100
AcDbCircle
 10
246.0
 20
363.0
 30
-2.7755575615628914e-16
 40
6.5
  0
TEXT
  5
6B
330
17
100
AcDbEntity
  8
LABEL
100
AcDbText
 10
246.0
 20
410.25
 30
0.0
 40
12.0
  1
LinkB
 72
1
 11
246.0
 21
410.25
 31
0.0
100
AcDbText
 73
2
  0
LWPOLYLINE
  5
6C
330
17
100
AcDbEntity
  8
0
100
AcDbPolyline
 90
4
 70
1
 10
276.00000000000006
 20
927.0
 42
0.9999999999999999
 10
216.00000000000006
 20
927.0
 10
216.0
 20
678.0
 42
0.9999999999999999
 10
276.0
 20
678.0
  0
CIRCLE
  5
6D
330
17
100
AcDbEntity
  8
0
100
AcDbCircle
 10
246.00000000000006
 20
927.0
 30
-2.7755575615628914e-16
 40
6.5
  0
CIRCLE
  5
6E
330
17
100
AcDbEntity
  8
0
100
AcDbCircle
 10
246.0
 20
678.0
 30
-2.7755575615628914e-16
 40
6.5
  0
TEXT
  5
6F
330
17
100
AcDbEntity
  8
LABEL
100
AcDbText
 10
246.0
 20
725.25
 30
0.0
 40
12.0
  1
LinkB
 72
1
 11
246.0
 21
725.25
 31
0.0
100
AcDbText
 73
2
  0
LWPOLYLINE
  5
70
330
17
100
AcDbEntity
  8
0
100
AcDbPolyline
 90
4
 70
1
 10
342.00000000000006
 20
297.0
 42
0.9999999999999999
 10
282.00000000000006
 20
297.0
 10
282.0
 20
47.99999999999994
 42
0.9999999999999999
 10
342.0
 20
48.0
  0
CIRCLE
  5
71
330
17
100
AcDbEntity
  8
0
100
AcDbCircle
 10
312.00000000000006
 20
297.0
 30
-2.7755575615628914e-16
 40
6.5
  0
CIRCLE
  5
72
330
17
100
AcDbEntity
  8
0
100
AcDbCircle
 10
312.0
 20
48.0
 30
-2.7755575615628914e-16
 40
6.5
  0
TEXT
  5
73
330
17
100
AcDbEntity
  8
LABEL
100
AcDbText
 10
312.0
 20
95.25
 30
0.0
 40
12.0
  1
LinkB
 72
1
 11
312.0
 21
95.25
 31
0.0
100
AcDbText
 73
2
  0
LWPOLYLINE
  5
74
330
17
100
AcDbEntity
  8
0
100
AcDbPolyline
 90
4
 70
1
 10
342.00000000000006
 20
612.0
 42
0.9999999999999999
 10
282.00000000000006
 20
612.0
 10
282.0
 20
362.99999999999994
 42
0.9999999999999999
 10
342.0
 20
363.0
  0
CIRCLE
  5
75
330
17
100
AcDbEntity
  8
0
100
AcDbCircle
 10
312.00000000000006
 20
612.0
 30
-2.7755575615628914e-16
 40
6.5
  0
CIRCLE
  5
76
330
17
100
AcDbEntity
  8
0
100
AcDbCircle
 10
312.0
 20
363.0
 30
-2.7755575615628914e-16
 40
6.5
  0
TEXT
  5
77
330
17
100
AcDbEntity
  8
LABEL
100
AcDbText
 10
312.0
 20
410.25
 30
0.0
 40
12.0
  1
LinkB
 72
1
 11
312.0
 21
410.25
 31
0.0
100
AcDbText
 73
2
  0
LWPOLYLINE
  5
78
330
17
100
AcDbEntity
  8
0
100
AcDbPolyline
 90
4
 70
1
 10
342.00000000000006
 20
927.0
 42
0.9999999999999999
 10
282.00000000000006
 20
927.0
 10
282.0
 20
678.0
 42
0.9999999999999999
 10
342.0
 20
678.0
  0
CIRCLE
  5
79
330
17
100
AcDbEntity
  8
0
100
AcDbCircle
 10
312.00000000000006
 20
927.0
 30
-2.7755575615628914e-16
 40
6.5
  0
CIRCLE
  5
7A
330
17
100
AcDbEntity
  8
0
100
AcDbCircle
 10
312.0
 20
678.0
 30
-2.7755575615628914e-16
 40
6.5
  0
TEXT
  5
7B
330
17
100
AcDbEntity
  8
LABEL
100
AcDbText
 10
312.0
 20
725.25
 30
0.0
 40
12.0
  1
LinkB
 72
1
 11
312.0
 21
725.25
 31
0.0
100
AcDbText
 73
2
  0
LWPOLYLINE
  5
7C
330
17
100
AcDbEntity
  8
0
100
AcDbPolyline
 90
4
 70
1
 10
408.00000000000006
 20
297.0
 42
0.9999999999999999
 10
348.00000000000006
 20
297.0
 10
348.0
 20
47.99999999999994
 42
0.9999999999999999
 10
408.0
 20
48.0
  0
CIRCLE
  5
7D
330
17
100
AcDbEntity
  8
0
100
AcDbCircle
 10
378.00000000000006
 20
297.0
 30
-2.7755575615628914e-16
 40
6.5
  0
CIRCLE
  5
7E
330
17
100
AcDbEntity
  8
0
100
AcDbCircle
 10
378.0
 20
48.0
 30
-2.7755575615628914e-16
 40
6.5
  0
TEXT
  5
7F
330
17
100
AcDbEntity
  8
LABEL
100
AcDbText
 10
378.0
 20
95.25
 30
0.0
 40
12.0
  1
LinkB
 72
1
 11
378.0
 21
95.25
 31
0.0
100
AcDbText
 73
2
  0
LWPOLYLINE
  5
80
330
17
100
AcDbEntity
  8
0
100
AcDbPolyline
 90
4
 70
1
 10
408.00000000000006
 20
612.0
 42
0.9999999999999999
 10
348.00000000000006
 20
612.0
 10
348.0
 20
362.99999999999994
 42
0.9999999999999999
 10
408.0
 20
363.0
  0
CIRCLE
  5
81
330
17
100
AcDbEntity
  8
0
100
AcDbCircle
 10
378.00000000000006
 20
612.0
 30
-2.7755575615628914e-16
 40
6.5
  0
CIRCLE
  5
82
330
17
100
AcDbEntity
  8
0
100
AcDbCircle
 10
378.0
 20
363.0
 30
-2.7755575615628914e-16
 40
6.5
  0
TEXT
  5
83
330
17
100
AcDbEntity
  8
LABEL
100
AcDbText
 10
378.0
 20
410.25
 30
0.0
 40
12.0
  1
LinkB
 72
1
 11
378.0
 21
410.25
 31
0.0
100
AcDbText
 73
2
  0
LWPOLYLINE
  5
84
330
17
100
AcDbEntity
  8
0
100
AcDbPolyline
 90
4
 70
1
 10
408.00000000000006
 20
927.0
 42
0.9999999999999999
 10
348.00000000000006
 20
927.0
 10
348.0
 20
678.0
 42
0.9999999999999999
 10
408.0
 20
678.0
  0
CIRCLE
  5
85
330
17
100
AcDbEntity
  8
0
100
AcDbCircle
 10
378.00000000000006
 20
927.0
 30
-2.7755575615628914e-16
 40
6.5
  0
CIRCLE
  5
86
330
17
100
AcDbEntity
  8
0
100
AcDbCircle
 10
378.0
 20
678.0
 30
-2.7755575615628914e-16
 40
6.5
  0
TEXT
  5
87
330
17
100
AcDbEntity
  8
LABEL
100
AcDbText
 10
378.0
 20
725.25
 30
0.0
 40
12.0
  1
LinkB
 72
1
 11
378.0
 21
725.25
 31
0.0
100
AcDbText
 73
2
  0
LWPOLYLINE
  5
88
330
17
100
AcDbEntity
  8
0
100
AcDbPolyline
 90
4
 70
1
 10
474.00000000000006
 20
297.0
 42
0.9999999999999999
 10
414.00000000000006
 20
297.0
 10
414.0
 20
47.99999999999994
 42
0.9999999999999999
 10
474.0
 20
48.0
  0
CIRCLE
  5
89
330
17
100
AcDbEntity
  8
0
100
AcDbCircle
 10
444.00000000000006
 20
297.0
 30
-2.7755575615628914e-16
 40
6.5
  0
CIRCLE
  5
8A
330
17
100
AcDbEntity
  8
0
100
AcDbCircle
 10
444.0
 20
48.0
 30
-2.7755575615628914e-16
 40
6.5
  0
TEXT
  5
8B
330
17
100
AcDbEntity
  8
LABEL
100
AcDbText
 10
444.0
 20
95.25
 30
0.0
 40
12.0
  1
LinkB
 72
1
 11
444.0
 21
95.25
 31
0.0
100
AcDbText
 73
2
  0
LWPOLYLINE
  5
8C
330
17
100
AcDbEntity
  8
0
100
AcDbPolyline
 90
4
 70
1
 10
474.00000000000006
 20
612.0
 42
0.9999999999999999
 10
414.00000000000006
 20
612.0
 10
414.0
 20
362.99999999999994
 42
0.9999999999999999
 10
474.0
 20
363.0
  0
CIRCLE
  5
8D
330
17
100
AcDbEntity
  8
0
100
AcDbCircle
 10
444.00000000000006
 20
612.0
 30
-2.7755575615628914e-16
 40
6.5
  0
CIRCLE
  5
8E
330
17
100
AcDbEntity
  8
0
100
AcDbCircle
 10
444.0
 20
363.0
 30
-2.7755575615628914e-16
 40
6.5
  0
TEXT
  5
8F
330
17
100
AcDbEntity
  8
LABEL
100
AcDbText
 10
444.0
 20
410.25
 30
0.0
 40
12.0
  1
LinkB
 72
1
 11
444.0
 21
410.25
 31
0.0
100
AcDbText
 73
2
  0
LWPOLYLINE
  5
90
330
17
100
AcDbEntity
  8
0
100
AcDbPolyline
 90
4
 70
1
 10
474.00000000000006
 20
927.0
 42
0.9999999999999999
 10
414.00000000000006
 20
927.0
 10
414.0
 20
678.0
 42
0.9999999999999999
 10
474.0
 20
678.0
  0
CIRCLE
  5
91
330
17
100
AcDbEntity
  8
0
100
AcDbCircle
 10
444.00000000000006
 20
927.0
 30
-2.7755575615628914e-16
 40
6.5
  0
CIRCLE
  5
92
330
17
100
AcDbEntity
  8
0
100
AcDbCircle
 10
444.0
 20
678.0
 30
-2.7755575615628914e-16
 40
6.5
  0
TEXT
  5
93
330
17
100
AcDbEntity
  8
LABEL
100
AcDbText
 10
444.0
 20
725.25
 30
0.0
 40
12.0
  1
LinkB
 72
1
 11
444.0
 21
725.25
 31
0.0
100
AcDbText
 73
2
  0
LWPOLYLINE
  5
94
330
17
100
AcDbEntity
  8
0
100
AcDbPolyline
 90
4
 70
1
 10
744.0
 20
963.0000000000001
 42
0.9999999999999999
 10
744.0
 20
1023.0000000000001
 10
494.99999999999994
 20
1023.0000000000001
 42
0.9999999999999999
 10
495.0
 20
963.0000000000001
  0
CIRCLE
  5
95
330
17
100
AcDbEntity
  8
0
100
AcDbCircle
 10
744.0
 20
993.0000000000001
 30
-2.7755575615628914e-16
 40
6.5
  0
CIRCLE
  5
96
330
17
100
AcDbEntity
  8
0
100
AcDbCircle
 10
495.0
 20
993.0000000000001
 30
-2.7755575615628914e-16
 40
6.5
  0
TEXT
  5
97
330
17
100
AcDbEntity
  8
LABEL
100
AcDbText
 10
542.25
 20
993.0000000000001
 30
0.0
 40
12.0
  1
LinkB
 72
1
 11
542.25
 21
993.0000000000001
 31
0.0
100
AcDbText
 73
2
  0
LWPOLYLINE
  5
98
330
17
100
AcDbEntity
  8
0
100
AcDbPolyline
 90
4
 70
1
 10
978.0
 20
1029.0
 42
0.9999999999999999
 10
978.0
 20
1089.0
 10
729.0
 20
1089.0
 42
0.9999999999999999
 10
729.0
 20
1029.0
  0
CIRCLE
  5
99
330
17
100
AcDbEntity
  8
0
100
AcDbCircle
 10
978.0
 20
1059.0
 30
-2.7755575615628914e-16
 40
6.5
  0
CIRCLE
  5
9A
330
17
100
AcDbEntity
  8
0
100
AcDbCircle
 10
729.0
 20
1059.0
 30
-2.7755575615628914e-16
 40
6.5
  0
TEXT
  5
9B
330
17
100
AcDbEntity
  8
LABEL
100
AcDbText
 10
776.25
 20
1059.0
 30
0.0
 40
12.0
  1
LinkB
 72
1
 11
776.25
 21
1059.0
 31
0.0
100
AcDbText
 73
2
  0
LWPOLYLINE
  5
9C
330
17
100
AcDbEntity
  8
0
100
AcDbPolyline
 90
4
 70
1
 10
978.0
 20
1095.0
 42
0.9999999999999999
 10
978.0
 20
1155.0
 10
729.0
 20
1155.0
 42
0.9999999999999999
 10
729.0
 20
1095.0
  0
CIRCLE
  5
9D
330
17
100
AcDbEntity
  8
0
100
AcDbCircle
 10
978.0
 20
1125.0
 30
-2.7755575615628914e-16
 40
6.5
  0
CIRCLE
  5
9E
330
17
100
AcDbEntity
  8
0
100
AcDbCircle
 10
729.0
 20
1125.0
 30
-2.7755575615628914e-16
 40
6.5
  0
TEXT
  5
9F
330
17
100
AcDbEntity
  8
LABEL
100
AcDbText
 10
776.25
 20
1125.0
 30
0.0
 40
12.0
  1
LinkB
 72
1
 11
776.25
 21
1125.0
 31
0.0
100
AcDbText
 73
2
  0
LWPOLYLINE
  5
A0
330
17
100
AcDbEntity
  8
0
100
AcDbPolyline
 90
4
 70
1
 10
540.0
 20
297.0
 42
0.9999999999999999
 10
480.00000000000006
 20
297.0
 10
480.0
 20
47.99999999999994
 42
0.9999999999999999
 10
540.0
 20
48.0
  0
CIRCLE
  5
A1
330
17
100
AcDbEntity
  8
0
100
AcDbCircle
 10
510.00000000000006
 20
297.0
 30
-2.7755575615628914e-16
 40
6.5
  0
CIRCLE
  5
A2
330
17
100
AcDbEntity
  8
0
100
AcDbCircle
 10
510.0
 20
48.0
 30
-2.7755575615628914e-16
 40
6.5
  0
TEXT
  5
A3
330
17
100
AcDbEntity
  8
LABEL
100
AcDbText
 10
510.0
 20
95.25
 30
0.0
 40
12.0
  1
LinkB
 72
1
 11
510.0
 21
95.25
 31
0.0
100
AcDbText
 73
2
  0
LWPOLYLINE
  5
A4
330
17
100
AcDbEntity
  8
0
100
AcDbPolyline
 90
4
 70
1
 10
540.0
 20
612.0
 42
0.9999999999999999
 10
480.00000000000006
 20
612.0
 10
480.0
 20
362.99999999999994
 42
0.9999999999999999
 10
540.0
 20
363.0
  0
CIRCLE
  5
A5
330
17
100
AcDbEntity
  8
0
100
AcDbCircle
 10
510.00000000000006
 20
612.0
 30
-2.7755575615628914e-16
 40
6.5
  0
CIRCLE
  5
A6
330
17
100
AcDbEntity
  8
0
100
AcDbCircle
 10
510.0
 20
363.0
 30
-2.7755575615628914e-16
 40
6.5
  0
TEXT
  5
A7
330
17
100
AcDbEntity
  8
LABEL
100
AcDbText
 10
510.0
 20
410.25
 30
0.0
 40
12.0
  1
LinkB
 72
1
 11
510.0
 21
410.25
 31
0.0
100
AcDbText
 73
2
  0
LWPOLYLINE
  5
A8
330
17
100
AcDbEntity
  8
0
100
AcDbPolyline
 90
4
 70
1
 10
540.0
 20
927.0
 42
0.9999999999999999
 10
480.00000000000006
 20
927.0
 10
480.0
 20
678.0
 42
0.9999999999999999
 10
540.0
 20
678.0
  0
CIRCLE
  5
A9
330
17
100
AcDbEntity
  8
0
100
AcDbCircle
 10
510.00000000000006
 20
927.0
 30
-2.7755575615628914e-16
 40
6.5
  0
CIRCLE
  5
AA
330
17
100
AcDbEntity
  8
0
100
AcDbCircle
 10
510.0
 20
678.0
 30
-2.7755575615628914e-16
 40
6.5
  0
TEXT
  5
AB
330
17
100
AcDbEntity
  8
LABEL
100
AcDbText
 10
510.0
 20
725.25
 30
0.0
 40
12.0
  1
LinkB
 72
1
 11
510.0
 21
725.25
 31
0.0
100
AcDbText
 73
2
  0
LWPOLYLINE
  5
AC
330
17
100
AcDbEntity
  8
0
100
AcDbPolyline
 90
4
 70
1
 10
606.0
 20
297.0
 42
0.9999999999999999
 10
546.0
 20
297.0
 10
546.0
 20
47.99999999999994
 42
0.9999999999999999
 10
606.0
 20
48.0
  0
CIRCLE
  5
AD
330
17
100
AcDbEntity
  8
0
100
AcDbCircle
 10
576.0
 20
297.0
 30
-2.7755575615628914e-16
 40
6.5
  0
CIRCLE
  5
AE
330
17
100
AcDbEntity
  8
0
100
AcDbCircle
 10
576.0
 20
48.0
 30
-2.7755575615628914e-16
 40
6.5
  0
TEXT
  5
AF
330
17
100
AcDbEntity
  8
LABEL
100
AcDbText
 10
576.0
 20
95.25
 30
0.0
 40
12.0
  1
LinkB
 72
1
 11
576.0
 21
95.25
 31
0.0
100
AcDbText
 73
2
  0
LWPOLYLINE
  5
B0
330
17
100
AcDbEntity
  8
0
100
AcDbPolyline
 90
4
 70
1
 10
606.0
 20
612.0
 42
0.9999999999999999
 10
546.0
 20
612.0
 10
546.0
 20
362.99999999999994
 42
0.9999999999999999
 10
606.0
 20
363.0
  0
CIRCLE
  5
B1
330
17
100
AcDbEntity
  8
0
100
AcDbCircle
 10
576.0
 20
612.0
 30
-2.7755575615628914e-16
 40
6.5
  0
CIRCLE
  5
B2
330
17
100
AcDbEntity
  8
0
100
AcDbCircle
 10
576.0
 20
363.0
 30
-2.7755575615628914e-16
 40
6.5
  0
TEXT
  5
B3
330
17
100
AcDbEntity
  8
LABEL
100
AcDbText
 10
576.0
 20
410.25
 30
0.0
 40
12.0
  1
LinkB
 72
1
 11
576.0
 21
410.25
 31
0.0
100
AcDbText
 73
2
  0
LWPOLYLINE
  5
B4
330
17
100
AcDbEntity
  8
0
100
AcDbPolyline
 90
4
 70
1
 10
606.0
 20
927.0
 42
0.9999999999999999
 10
546.0
 20
927.0
 10
546.0
 20
678.0
 42
0.9999999999999999
 10
606.0
 20
678.0
  0
CIRCLE
  5
B5
330
17
100
AcDbEntity
  8
0
100
AcDbCircle
 10
576.0
 20
927.0
 30
-2.7755575615628914e-16
 40
6.5
  0
CIRCLE
  5
B6
330
17
100
AcDbEntity
  8
0
100
AcDbCircle
 10
576.0
 20
678.0
 30
-2.7755575615628914e-16
 40
6.5
  0
TEXT
  5
B7
330
17
100
AcDbEntity
  8
LABEL
100
AcDbText
 10
576.0
 20
725.25
 30
0.0
 40
12.0
  1
LinkB
 72
1
 11
576.0
 21
725.25
 31
0.0
100
AcDbText
 73
2
  0
LWPOLYLINE
  5
B8
330
17
100
AcDbEntity
  8
0
100
AcDbPolyline
 90
4
 70
1
 10
672.0
 20
297.0
 42
0.9999999999999999
 10
612.0
 20
297.0
 10
612.0
 20
47.99999999999994
 42
0.9999999999999999
 10
672.0
 20
48.0
  0
CIRCLE
  5
B9
330
17
100
AcDbEntity
  8
0
100
AcDbCircle
 10
642.0
 20
297.0
 30
-2.7755575615628914e-16
 40
6.5
  0
CIRCLE
  5
BA
330
17
100
AcDbEntity
  8
0
100
AcDbCircle
 10
642.0
 20
48.0
 30
-2.7755575615628914e-16
 40
6.5
  0
TEXT
  5
BB
330
17
100
AcDbEntity
  8
LABEL
100
AcDbText
 10
642.0
 20
95.25
 30
0.0
 40
12.0
  1
LinkB
 72
1
 11
642.0
 21
95.25
 31
0.0
100
AcDbText
 73
2
  0
LWPOLYLINE
  5
BC
330
17
100
AcDbEntity
  8
0
100
AcDbPolyline
 90
4
 70
1
 10
672.0
 20
612.0
 42
0.9999999999999999
 10
612.0
 20
612.0
 10
612.0
 20
362.99999999999994
 42
0.9999999999999999
 10
672.0
 20
363.0
  0
CIRCLE
  5
BD
330
17
100
AcDbEntity
  8
0
100
AcDbCircle
 10
642.0
 20
612.0
 30
-2.7755575615628914e-16
 40
6.5
  0
CIRCLE
  5
BE
330
17
100
AcDbEntity
  8
0
100
AcDbCircle
 10
642.0
 20
363.0
 30
-2.7755575615628914e-16
 40
6.5
  0
TEXT
  5
BF
330
17
100
AcDbEntity
  8
LABEL
100
AcDbText
 10
642.0
 20
410.25
 30
0.0
 40
12.0
  1
LinkB
 72
1
 11
642.0
 21
410.25
 31
0.0
100
AcDbText
 73
2
  0
LWPOLYLINE
  5
C0
330
17
100
AcDbEntity
  8
0
100
AcDbPolyline
 90
4
 70
1
 10
672.0
 20
927.0
 42
0.9999999999999999
 10
612.0
 20
927.0
 10
612.0
 20
678.0
 42
0.9999999999999999
 10
672.0
 20
678.0
  0
CIRCLE
  5
C1
330
17
100
AcDbEntity
  8
0
100
AcDbCircle
 10
642.0
 20
927.0
 30
-2.7755575615628914e-16
 40
6.5
  0
CIRCLE
  5
C2
330
17
100
AcDbEntity
  8
0
100
AcDbCircle
 10
642.0
 20
678.0
 30
-2.7755575615628914e-16
 40
6.5
  0
TEXT
  5
C3
330
17
100
AcDbEntity
  8
LABEL
100
AcDbText
 10
642.0
 20
725.25
 30
0.0
 40
12.0
  1
LinkB
 72
1
 11
642.0
 21
725.25
 31
0.0
100
AcDbText
 73
2
  0
LWPOLYLINE
  5
C4
330
17
100
AcDbEntity
  8
0
100
AcDbPolyline
 90
4
 70
1
 10
738.0
 20
297.0
 42
0.9999999999999999
 10
678.0
 20
297.0
 10
678.0
 20
47.99999999999994
 42
0.9999999999999999
 10
738.0
 20
48.0
  0
CIRCLE
  5
C5
330
17
100
AcDbEntity
  8
0
100
AcDbCircle
 10
708.0
 20
297.0
 30
-2.7755575615628914e-16
 40
6.5
  0
CIRCLE
  5
C6
330
17
100
AcDbEntity
  8
0
100
AcDbCircle
 10
708.0
 20
48.0
 30
-2.7755575615628914e-16
 40
6.5
  0
TEXT
  5
C7
330
17
100
AcDbEntity
  8
LABEL
100
AcDbText
 10
708.0
 20
95.25
 30
0.0
 40
12.0
  1
LinkB
 72
1
 11
708.0
 21
95.25
 31
0.0
100
AcDbText
 73
2
  0
LWPOLYLINE
  5
C8
330
17
100
AcDbEntity
  8
0
100
AcDbPolyline
 90
4
 70
1
 10
678.0
 20
603.6000000000001
 10
678.0
 20
363.0
 42
0.9999999999999999
 10
738.0
 20
363.0
 10
738.0
 20
603.6000000000001
 42
0.9999999999999999
  0
CIRCLE
  5
C9
330
17
100
AcDbEntity
  8
0
100
AcDbCircle
 10
708.0
 20
603.6000000000001
 30
0.0
 40
6.5
  0
CIRCLE
  5
CA
330
17
100
AcDbEntity
  8
0
100
AcDbCircle
 10
708.0
 20
363.0
 30
0.0
 40
6.5
  0
TEXT
  5
CB
330
17
100
AcDbEntity
  8
LABEL
100
AcDbText
 10
708.0
 20
408.1500000000001
 30
0.0
 40
12.0
  1
LinkD
 72
1
 11
708.0
 21
408.1500000000001
 31
0.0
100
AcDbText
 73
2
  0
LWPOLYLINE
  5
CC
330
17
100
AcDbEntity
  8
0
100
AcDbPolyline
 90
4
 70
1
 10
744.0
 20
288.60000000000014
 10
744.0
 20
48.0
 42
0.9999999999999999
 10
804.0
 20
48.0
 10
804.0
 20
288.60000000000014
 42
0.9999999999999999
  0
CIRCLE
  5
CD
330
17
100
AcDbEntity
  8
0
100
AcDbCircle
 10
774.0
 20
288.60000000000014
 30
0.0
 40
6.5
  0
CIRCLE
  5
CE
330
17
100
AcDbEntity
  8
0
100
AcDbCircle
 10
774.0
 20
48.0
 30
0.0
 40
6.5
  0
TEXT
  5
CF
330
17
100
AcDbEntity
  8
LABEL
100
AcDbText
 10
774.0
 20
93.15000000000009
 30
0.0
 40
12.0
  1
LinkD
 72
1
 11
774.0
 21
93.15000000000009
 31
0.0
100
AcDbText
 73
2
  0
LWPOLYLINE
  5
D0
330
17
100
AcDbEntity
  8
0
100
AcDbPolyline
 90
4
 70
1
 10
678.0
 20
910.2000000000003
 10
678.0
 20
669.6000000000001
 42
0.9999999999999999
 10
738.0
 20
669.6000000000001
 10
738.0
 20
910.2000000000003
 42
0.9999999999999999
  0
CIRCLE
  5
D1
330
17
100
AcDbEntity
  8
0
100
AcDbCircle
 10
708.0
 20
910.2000000000003
 30
0.0
 40
6.5
  0
CIRCLE
  5
D2
330
17
100
AcDbEntity
  8
0
100
AcDbCircle
 10
708.0
 20
669.6000000000001
 30
0.0
 40
6.5
  0
TEXT
  5
D3
330
17
100
AcDbEntity
  8
LABEL
100
AcDbText
 10
708.0
 20
714.7500000000002
 30
0.0
 40
12.0
  1
LinkD
 72
1
 11
708.0
 21
714.7500000000002
 31
0.0
100
AcDbText
 73
2
  0
LWPOLYLINE
  5
D4
330
17
100
AcDbEntity
  8
0
100
AcDbPolyline
 90
4
 70
1
 10
744.0000000000002
 20
595.2000000000003
 10
744.0000000000002
 20
354.60000000000014
 42
0.9999999999999999
 10
804.0000000000002
 20
354.60000000000014
 10
804.0000000000002
 20
595.2000000000003
 42
0.9999999999999999
  0
CIRCLE
  5
D5
330
17
100
AcDbEntity
  8
0
100
AcDbCircle
 10
774.0000000000002
 20
595.2000000000003
 30
0.0
 40
6.5
  0
CIRCLE
  5
D6
330
17
100
AcDbEntity
  8
0
100
AcDbCircle
 10
774.0000000000002
 20
354.60000000000014
 30
0.0
 40
6.5
  0
TEXT
  5
D7
330
17
100
AcDbEntity
  8
LABEL
100
AcDbText
 10
774.0000000000002
 20
399.7500000000002
 30
0.0
 40
12.0
  1
LinkD
 72
1
 11
774.0000000000002
 21
399.7500000000002
 31
0.0
100
AcDbText
 73
2
  0
LWPOLYLINE
  5
D8
330
17
100
AcDbEntity
  8
0
100
AcDbPolyline
 90
4
 70
1
 10
810.0000000000002
 20
288.60000000000014
 10
810.0000000000002
 20
48.0
 42
0.9999999999999999
 10
870.0000000000002
 20
48.0
 10
870.0000000000002
 20
288.60000000000014
 42
0.9999999999999999
  0
CIRCLE
  5
D9
330
17
100
AcDbEntity
  8
0
100
AcDbCircle
 10
840.0000000000002
 20
288.60000000000014
 30
0.0
 40
6.5
  0
CIRCLE
  5
DA
330
17
100
AcDbEntity
  8
0
100
AcDbCircle
 10
840.0000000000002
 20
48.0
 30
0.0
 40
6.5
  0
TEXT
  5
DB
330
17
100
AcDbEntity
  8
LABEL
100
AcDbText
 10
840.0000000000002
 20
93.15000000000009
 30
0.0
 40
12.0
  1
LinkD
 72
1
 11
840.0000000000002
 21
93.15000000000009
 31
0.0
100
AcDbText
 73
2
  0
LWPOLYLINE
  5
DC
330
17
100
AcDbEntity
  8
0
100
AcDbPolyline
 90
4
 70
1
 10
744.0000000000002
 20
901.8000000000004
 10
744.0000000000002
 20
661.2000000000003
 42
0.9999999999999999
 10
804.0000000000002
 20
661.2000000000003
 10
804.0000000000002
 20
901.8000000000004
 42
0.9999999999999999
  0
CIRCLE
  5
DD
330
17
100
AcDbEntity
  8
0
100
AcDbCircle
 10
774.0000000000002
 20
901.8000000000004
 30
0.0
 40
6.5
  0
CIRCLE
  5
DE
330
17
100
AcDbEntity
  8
0
100
AcDbCircle
 10
774.0000000000002
 20
661.2000000000003
 30
0.0
 40
6.5
  0
TEXT
  5
DF
330
17
100
AcDbEntity
  8
LABEL
100
AcDbText
 10
774.0000000000002
 20
706.3500000000004
 30
0.0
 40
12.0
  1
LinkD
 72
1
 11
774.0000000000002
 21
706.3500000000004
 31
0.0
100
AcDbText
 73
2
  0
LWPOLYLINE
  5
E0
330
17
100
AcDbEntity
  8
0
100
AcDbPolyline
 90
4
 70
1
 10
1050.6000000000001
 20
997.8000000000004
 10
810.0
 20
997.8000000000004
 42
0.9999999999999999
 10
810.0
 20
937.8000000000004
 10
1050.6000000000001
 20
937.8000000000004
 42
0.9999999999999999
  0
CIRCLE
  5
E1
330
17
100
AcDbEntity
  8
0
100
AcDbCircle
 10
1050.6000000000001
 20
967.8000000000004
 30
0.0
 40
6.5
  0
CIRCLE
  5
E2
330
17
100
AcDbEntity
  8
0
100
AcDbCircle
 10
810.0
 20
967.8000000000004
 30
0.0
 40
6.5
  0
TEXT
  5
E3
330
17
100
AcDbEntity
  8
LABEL
100
AcDbText
 10
855.1500000000001
 20
967.8000000000004
 30
0.0
 40
12.0
  1
LinkD
 72
1
 11
855.1500000000001
 21
967.8000000000004
 31
0.0
100
AcDbText
 73
2
  0
LWPOLYLINE
  5
E4
330
17
100
AcDbEntity
  8
0
100
AcDbPolyline
 90
4
 70
1
 10
1284.6000000000001
 20
1063.8000000000006
 10
1044.0
 20
1063.8000000000006
 42
0.9999999999999999
 10
1044.0
 20
1003.8000000000006
 10
1284.6000000000001
 20
1003.8000000000006
 42
0.9999999999999999
  0
CIRCLE
  5
E5
330
17
100
AcDbEntity
  8
0
100
AcDbCircle
 10
1284.6000000000001
 20
1033.8000000000006
 30
0.0
 40
6.5
  0
CIRCLE
  5
E6
330
17
100
AcDbEntity
  8
0
100
AcDbCircle
 10
1044.0
 20
1033.8000000000006
 30
0.0
 40
6.5
  0
TEXT
  5
E7
330
17
100
AcDbEntity
  8
LABEL
100
AcDbText
 10
1089.15
 20
1033.8000000000006
 30
0.0
 40
12.0
  1
LinkD
 72
1
 11
1089.15
 21
1033.8000000000006
 31
0.0
100
AcDbText
 73
2
  0
LWPOLYLINE
  5
E8
330
17
100
AcDbEntity
  8
0
100
AcDbPolyline
 90
4
 70
1
 10
1284.6000000000001
 20
1129.8000000000006
 10
1044.0
 20
1129.8000000000006
 42
0.9999999999999999
 10
1044.0
 20
1069.8000000000006
 10
1284.6000000000001
 20
1069.8000000000006
 42
0.9999999999999999
  0
CIRCLE
  5
E9
330
17
100
AcDbEntity
  8
0
100
AcDbCircle
 10
1284.6000000000001
 20
1099.8000000000006
 30
0.0
 40
6.5
  0
CIRCLE
  5
EA
330
17
100
AcDbEntity
  8
0
100
AcDbCircle
 10
1044.0
 20
1099.8000000000006
 30
0.0
 40
6.5
  0
TEXT
  5
EB
330
17
100
AcDbEntity
  8
LABEL
100
AcDbText
 10
1089.15
 20
1099.8000000000006
 30
0.0
 40
12.0
  1
LinkD
 72
1
 11
1089.15
 21
1099.8000000000006
 31
0.0
100
AcDbText
 73
2
  0
LWPOLYLINE
  5
EC
330
17
100
AcDbEntity
  8
0
100
AcDbPolyline
 90
4
 70
1
 10
1284.6000000000001
 20
1195.8000000000006
 10
1044.0
 20
1195.8000000000006
 42
0.9999999999999999
 10
1044.0
 20
1135.8000000000006
 10
1284.6000000000001
 20
1135.8000000000006
 42
0.9999999999999999
  0
CIRCLE
  5
ED
330
17
100
AcDbEntity
  8
0
100
AcDbCircle
 10
1284.6000000000001
 20
1165.8000000000006
 30
0.0
 40
6.5
  0
CIRCLE
  5
EE
330
17
100
AcDbEntity
  8
0
100
AcDbCircle
 10
1044.0
 20
1165.8000000000006
 30
0.0
 40
6.5
  0
TEXT
  5
EF
330
17
100
AcDbEntity
  8
LABEL
100
AcDbText
 10
1089.15
 20
1165.8000000000006
 30
0.0
 40
12.0
  1
LinkD
 72
1
 11
1089.15
 21
1165.8000000000006
 31
0.0
100
AcDbText
 73
2
  0
LWPOLYLINE
  5
F0
330
17
100
AcDbEntity
  8
0
100
AcDbPolyline
 90
4
 70
1
 10
810.0000000000002
 20
595.2000000000003
 10
810.0000000000002
 20
354.60000000000014
 42
0.9999999999999999
 10
870.0000000000002
 20
354.60000000000014
 10
870.0000000000002
 20
595.2000000000003
 42
0.9999999999999999
  0
CIRCLE
  5
F1
330
17
100
AcDbEntity
  8
0
100
AcDbCircle
 10
840.0000000000002
 20
595.2000000000003
 30
0.0
 40
6.5
  0
CIRCLE
  5
F2
330
17
100
AcDbEntity
  8
0
100
AcDbCircle
 10
840.0000000000002
 20
354.60000000000014
 30
0.0
 40
6.5
  0
TEXT
  5
F3
330
17
100
AcDbEntity
  8
LABEL
100
AcDbText
 10
840.0000000000002
 20
399.7500000000002
 30
0.0
 40
12.0
  1
LinkD
 72
1
 11
840.0000000000002
 21
399.7500000000002
 31
0.0
100
AcDbText
 73
2
  0
LWPOLYLINE
  5
F4
330
17
100
AcDbEntity
  8
0
100
AcDbPolyline
 90
4
 70
1
 10
876.0000000000002
 20
288.60000000000014
 10
876.0000000000002
 20
48.0
 42
0.9999999999999999
 10
936.0000000000002
 20
48.0
 10
936.0000000000002
 20
288.60000000000014
 42
0.9999999999999999
  0
CIRCLE
  5
F5
330
17
100
AcDbEntity
  8
0
100
AcDbCircle
 10
906.0000000000002
 20
288.60000000000014
 30
0.0
 40
6.5
  0
CIRCLE
  5
F6
330
17
100
AcDbEntity
  8
0
100
AcDbCircle
 10
906.0000000000002
 20
48.0
 30
0.0
 40
6.5
  0
TEXT
  5
F7
330
17
100
AcDbEntity
  8
LABEL
100
AcDbText
 10
906.0000000000002
 20
93.15000000000009
 30
0.0
 40
12.0
  1
LinkD
 72
1
 11
906.0000000000002
 21
93.15000000000009
 31
0.0
100
AcDbText
 73
2
  0
LWPOLYLINE
  5
F8
330
17
100
AcDbEntity
  8
0
100
AcDbPolyline
 90
4
 70
1
 10
810.0000000000002
 20
901.8000000000004
 10
810.0000000000002
 20
661.2000000000003
 42
0.9999999999999999
 10
870.0000000000002
 20
661.2000000000003
 10
870.0000000000002
 20
901.8000000000004
 42
0.9999999999999999
  0
CIRCLE
  5
F9
330
17
100
AcDbEntity
  8
0
100
AcDbCircle
 10
840.0000000000002
 20
901.8000000000004
 30
0.0
 40
6.5
  0
CIRCLE
  5
FA
330
17
100
AcDbEntity
  8
0
100
AcDbCircle
 10
840.0000000000002
 20
661.2000000000003
 30
0.0
 40
6.5
  0
TEXT
  5
FB
330
17
100
AcDbEntity
  8
LABEL
100
AcDbText
 10
840.0000000000002
 20
706.3500000000004
 30
0.0
 40
12.0
  1
LinkD
 72
1
 11
840.0000000000002
 21
706.3500000000004
 31
0.0
100
AcDbText
 73
2
  0
LWPOLYLINE
  5
FC
330
17
100
AcDbEntity
  8
0
100
AcDbPolyline
 90
4
 70
1
 10
876.0000000000005
 20
595.2000000000003
 10
876.0000000000005
 20
354.60000000000014
 42
0.9999999999999999
 10
936.0000000000005
 20
354.60000000000014
 10
936.0000000000005
 20
595.2000000000003
 42
0.9999999999999999
  0
CIRCLE
  5
FD
330
17
100
AcDbEntity
  8
0
100
AcDbCircle
 10
906.0000000000005
 20
595.2000000000003
 30
0.0
 40
6.5
  0
CIRCLE
  5
FE
330
17
100
AcDbEntity
  8
0
100
AcDbCircle
 10
906.0000000000005
 20
354.60000000000014
 30
0.0
 40
6.5
  0
TEXT
  5
FF
330
17
100
AcDbEntity
  8
LABEL
100
AcDbText
 10
906.0000000000005
 20
399.7500000000002
 30
0.0
 40
12.0
  1
LinkD
 72
1
 11
906.0000000000005
 21
399.7500000000002
 31
0.0
100
AcDbText
 73
2
  0
LWPOLYLINE
  5
100
330
17
100
AcDbEntity
  8
0
100
AcDbPolyline
 90
4
 70
1
 10
942.0000000000005
 20
288.60000000000014
 10
942.0000000000005
 20
48.0
 42
0.9999999999999999
 10
1002.0000000000005
 20
48.0
 10
1002.0000000000005
 20
288.60000000000014
 42
0.9999999999999999
  0
CIRCLE
  5
101
330
17
100
AcDbEntity
  8
0
100
AcDbCircle
 10
972.0000000000005
 20
288.60000000000014
 30
0.0
 40
6.5
  0
CIRCLE
  5
102
330
17
100
AcDbEntity
  8
0
100
AcDbCircle
 10
972.0000000000005
 20
48.0
 30
0.0
 40
6.5
  0
TEXT
  5
103
330
17
100
AcDbEntity
  8
LABEL
100
AcDbText
 10
972.0000000000005
 20
93.15000000000009
 30
0.0
 40
12.0
  1
LinkD
 72
1
 11
972.0000000000005
 21
93.15000000000009
 31
0.0
100
AcDbText
 73
2
  0
LWPOLYLINE
  5
104
330
17
100
AcDbEntity
  8
0
100
AcDbPolyline
 90
4
 70
1
 10
876.0000000000005
 20
901.8000000000004
 10
876.0000000000005
 20
661.2000000000003
 42
0.9999999999999999
 10
936.0000000000005
 20
661.2000000000003
 10
936.0000000000005
 20
901.8000000000004
 42
0.9999999999999999
  0
CIRCLE
  5
105
330
17
100
AcDbEntity
  8
0
100
AcDbCircle
 10
906.0000000000005
 20
901.8000000000004
 30
0.0
 40
6.5
  0
CIRCLE
  5
106
330
17
100
AcDbEntity
  8
0
100
AcDbCircle
 10
906.0000000000005
 20
661.2000000000003
 30
0.0
 40
6.5
  0
TEXT
  5
107
330
17
100
AcDbEntity
  8
LABEL
100
AcDbText
 10
906.0000000000005
 20
706.3500000000004
 30
0.0
 40
12.0
  1
LinkD
 72
1
 11
906.0000000000005
 21
706.3500000000004
 31
0.0
100
AcDbText
 73
2
  0
LWPOLYLINE
  5
108
330
17
100
AcDbEntity
  8
0
100
AcDbPolyline
 90
4
 70
1
 10
942.0000000000005
 20
595.2000000000003
 10
942.0000000000005
 20
354.60000000000014
 42
0.9999999999999999
 10
1002.0000000000005
 20
354.60000000000014
 10
1002.0000000000005
 20
595.2000000000003
 42
0.9999999999999999
  0
CIRCLE
  5
109
330
17
100
AcDbEntity
  8
0
100
AcDbCircle
 10
972.0000000000005
 20
595.2000000000003
 30
0.0
 40
6.5
  0
CIRCLE
  5
10A
330
17
100
AcDbEntity
  8
0
100
AcDbCircle
 10
972.0000000000005
 20
354.60000000000014
 30
0.0
 40
6.5
  0
TEXT
  5
10B
330
17
100
AcDbEntity
  8
LABEL
100
AcDbText
 10
972.0000000000005
 20
399.7500000000002
 30
0.0
 40
12.0
  1
LinkD
 72
1
 11
972.0000000000005
 21
399.7500000000002
 31
0.0
100
AcDbText
 73
2
  0
LWPOLYLINE
  5
10C
330
17
100
AcDbEntity
  8
0
100
AcDbPolyline
 90
4
 70
1
 10
1008.0000000000005
 20
288.60000000000014
 10
1008.0000000000005
 20
48.0
 42
0.9999999999999999
 10
1068.0000000000005
 20
48.0
 10
1068.0000000000005
 20
288.60000000000014
 42
0.9999999999999999
  0
CIRCLE
  5
10D
330
17
100
AcDbEntity
  8
0
100
AcDbCircle
 10
1038.0000000000005
 20
288.60000000000014
 30
0.0
 40
6.5
  0
CIRCLE
  5
10E
330
17
100
AcDbEntity
  8
0
100
AcDbCircle
 10
1038.0000000000005
 20
48.0
 30
0.0
 40
6.5
  0
TEXT
  5
10F
330
17
100
AcDbEntity
  8
LABEL
100
AcDbText
 10
1038.0000000000005
 20
93.15000000000009
 30
0.0
 40
12.0
  1
LinkD
 72
1
 11
1038.0000000000005
 21
93.15000000000009
 31
0.0
100
AcDbText
 73
2
  0
LWPOLYLINE
  5
110
330
17
100
AcDbEntity
  8
0
100
AcDbPolyline
 90
4
 70
1
 10
942.0000000000005
 20
901.8000000000004
 10
942.0000000000005
 20
661.2000000000003
 42
0.9999999999999999
 10
1002.0000000000005
 20
661.2000000000003
 10
1002.0000000000005
 20
901.8000000000004
 42
0.9999999999999999
  0
CIRCLE
  5
111
330
17
100
AcDbEntity
  8
0
100
AcDbCircle
 10
972.0000000000005
 20
901.8000000000004
 30
0.0
 40
6.5
  0
CIRCLE
  5
112
330
17
100
AcDbEntity
  8
0
100
AcDbCircle
 10
972.0000000000005
 20
661.2000000000003
 30
0.0
 40
6.5
  0
TEXT
  5
113
330
17
100
AcDbEntity
  8
LABEL
100
AcDbText
 10
972.0000000000005
 20
706.3500000000004
 30
0.0
 40
12.0
  1
LinkD
 72
1
 11
972.0000000000005
 21
706.3500000000004
 31
0.0
100
AcDbText
 73
2
  0
LWPOLYLINE
  5
114
330
17
100
AcDbEntity
  8
0
100
AcDbPolyline
 90
4
 70
1
 10
1008.0000000000007
 20
595.2000000000003
 10
1008.0000000000007
 20
354.60000000000014
 42
0.9999999999999999
 10
1068.0000000000007
 20
354.60000000000014
 10
1068.0000000000007
 20
595.2000000000003
 42
0.9999999999999999
  0
CIRCLE
  5
115
330
17
100
AcDbEntity
  8
0
100
AcDbCircle
 10
1038.0000000000007
 20
595.2000000000003
 30
0.0
 40
6.5
  0
CIRCLE
  5
116
330
17
100
AcDbEntity
  8
0
100
AcDbCircle
 10
1038.0000000000007
 20
354.60000000000014
 30
0.0
 40
6.5
  0
TEXT
  5
117
330
17
100
AcDbEntity
  8
LABEL
100
AcDbText
 10
1038.0000000000007
 20
399.7500000000002
 30
0.0
 40
12.0
  1
LinkD
 72
1
 11
1038.0000000000007
 21
399.7500000000002
 31
0.0
100
AcDbText
 73
2
  0
LWPOLYLINE
  5
118
330
17
100
AcDbEntity
  8
0
100
AcDbPolyline
 90
4
 70
1
 10
1074.0000000000005
 20
288.60000000000014
 10
1074.0000000000005
 20
48.0
 42
0.9999999999999999
 10
1134.0000000000005
 20
48.0
 10
1134.0000000000005
 20
288.60000000000014
 42
0.9999999999999999
  0
CIRCLE
  5
119
330
17
100
AcDbEntity
  8
0
100
AcDbCircle
 10
1104.0000000000005
 20
288.60000000000014
 30
0.0
 40
6.5
  0
CIRCLE
  5
11A
330
17
100
AcDbEntity
  8
0
100
AcDbCircle
 10
1104.0000000000005
 20
48.0
 30
0.0
 40
6.5
  0
TEXT
  5
11B
330
17
100
AcDbEntity
  8
LABEL
100
AcDbText
 10
1104.0000000000005
 20
93.15000000000009
 30
0.0
 40
12.0
  1
LinkD
 72
1
 11
1104.0000000000005
 21
93.15000000000009
 31
0.0
100
AcDbText
 73
2
  0
LWPOLYLINE
  5
11C
330
17
100
AcDbEntity
  8
0
100
AcDbPolyline
 90
4
 70
1
 10
1008.0000000000007
 20
901.8000000000004
 10
1008.0000000000007
 20
661.2000000000003
 42
0.9999999999999999
 10
1068.0000000000007
 20
661.2000000000003
 10
1068.0000000000007
 20
901.8000000000004
 42
0.9999999999999999
  0
CIRCLE
  5
11D
330
17
100
AcDbEntity
  8
0
100
AcDbCircle
 10
1038.0000000000007
 20
901.8000000000004
 30
0.0
 40
6.5
  0
CIRCLE
  5
11E
330
17
100
AcDbEntity
  8
0
100
AcDbCircle
 10
1038.0000000000007
 20
661.2000000000003
 30
0.0
 40
6.5
  0
TEXT
  5
11F
330
17
100
AcDbEntity
  8
LABEL
100
AcDbText
 10
1038.0000000000007
 20
706.3500000000004
 30
0.0
 40
12.0
  1
LinkD
 72
1
 11
1038.0000000000007
 21
706.3500000000004
 31
0.0
100
AcDbText
 73
2
  0
LWPOLYLINE
  5
120
330
17
100
AcDbEntity
  8
0
100
AcDbPolyline
 90
4
 70
1
 10
1074.0000000000007
 20
595.2000000000003
 10
1074.0000000000007
 20
354.60000000000014
 42
0.9999999999999999
 10
1134.0000000000007
 20
354.60000000000014
 10
1134.0000000000007
 20
595.2000000000003
 42
0.9999999999999999
  0
CIRCLE
  5
121
330
17
100
AcDbEntity
  8
0
100
AcDbCircle
 10
1104.0000000000007
 20
595.2000000000003
 30
0.0
 40
6.5
  0
CIRCLE
  5
122
330
17
100
AcDbEntity
  8
0
100
AcDbCircle
 10
1104.0000000000007
 20
354.60000000000014
 30
0.0
 40
6.5
  0
TEXT
  5
123
330
17
100
AcDbEntity
  8
LABEL
100
AcDbText
 10
1104.0000000000007
 20
399.7500000000002
 30
0.0
 40
12.0
  1
LinkD
 72
1
 11
1104.0000000000007
 21
399.7500000000002
 31
0.0
100
AcDbText
 73
2
  0
LWPOLYLINE
  5
124
330
17
100
AcDbEntity
  8
0
100
AcDbPolyline
 90
4
 70
1
 10
1140.0000000000005
 20
288.60000000000014
 10
1140.0000000000005
 20
48.0
 42
0.9999999999999999
 10
1200.0000000000005
 20
48.0
 10
1200.0000000000005
 20
288.60000000000014
 42
0.9999999999999999
  0
CIRCLE
  5
125
330
17
100
AcDbEntity
  8
0
100
AcDbCircle
 10
1170.0000000000005
 20
288.60000000000014
 30
0.0
 40
6.5
  0
CIRCLE
  5
126
330
17
100
AcDbEntity
  8
0
100
AcDbCircle
 10
1170.0000000000005
 20
48.0
 30
0.0
 40
6.5
  0
TEXT
  5
127
330
17
100
AcDbEntity
  8
LABEL
100
AcDbText
 10
1170.0000000000005
 20
93.15000000000009
 30
0.0
 40
12.0
  1
LinkD
 72
1
 11
1170.0000000000005
 21
93.15000000000009
 31
0.0
100
AcDbText
 73
2
  0
LWPOLYLINE
  5
128
330
17
100
AcDbEntity
  8
0
100
AcDbPolyline
 90
4
 70
1
 10
1074.0000000000007
 20
901.8000000000004
 10
1074.0000000000007
 20
661.2000000000003
 42
0.9999999999999999
 10
1134.0000000000007
 20
661.2000000000003
 10
1134.0000000000007
 20
901.8000000000004
 42
0.9999999999999999
  0
CIRCLE
  5
129
330
17
100
AcDbEntity
  8
0
100
AcDbCircle
 10
1104.0000000000007
 20
901.8000000000004
 30
0.0
 40
6.5
  0
CIRCLE
  5
12A
330
17
100
AcDbEntity
  8
0
100
AcDbCircle
 10
1104.0000000000007
 20
661.2000000000003
 30
0.0
 40
6.5
  0
TEXT
  5
12B
330
17
100
AcDbEntity
  8
LABEL
100
AcDbText
 10
1104.0000000000007
 20
706.3500000000004
 30
0.0
 40
12.0
  1
LinkD
 72
1
 11
1104.0000000000007
 21
706.3500000000004
 31
0.0
100
AcDbText
 73
2
  0
LWPOLYLINE
  5
12C
330
17
100
AcDbEntity
  8
0
100
AcDbPolyline
 90
4
 70
1
 10
1357.2000000000003
 20
997.8000000000004
 10
1116.6000000000001
 20
997.8000000000004
 42
0.9999999999999999
 10
1116.6000000000001
 20
937.8000000000004
 10
1357.2000000000003
 20
937.8000000000004
 42
0.9999999999999999
  0
CIRCLE
  5
12D
330
17
100
AcDbEntity
  8
0
100
AcDbCircle
 10
1357.2000000000003
 20
967.8000000000004
 30
0.0
 40
6.5
  0
CIRCLE
  5
12E
330
17
100
AcDbEntity
  8
0
100
AcDbCircle
 10
1116.6000000000001
 20
967.8000000000004
 30
0.0
 40
6.5
  0
TEXT
  5
12F
330
17
100
AcDbEntity
  8
LABEL
100
AcDbText
 10
1161.7500000000002
 20
967.8000000000004
 30
0.0
 40
12.0
  1
LinkD
 72
1
 11
1161.7500000000002
 21
967.8000000000004
 31
0.0
100
AcDbText
 73
2
  0
LWPOLYLINE
  5
130
330
17
100
AcDbEntity
  8
0
100
AcDbPolyline
 90
4
 70
1
 10
1591.2000000000003
 20
1063.8000000000006
 10
1350.6000000000001
 20
1063.8000000000006
 42
0.9999999999999999
 10
1350.6000000000001
 20
1003.8000000000006
 10
1591.2000000000003
 20
1003.8000000000006
 42
0.9999999999999999
  0
CIRCLE
  5
131
330
17
100
AcDbEntity
  8
0
100
AcDbCircle
 10
1591.2000000000003
 20
1033.8000000000006
 30
0.0
 40
6.5
  0
CIRCLE
  5
132
330
17
100
AcDbEntity
  8
0
100
AcDbCircle
 10
1350.6000000000001
 20
1033.8000000000006
 30
0.0
 40
6.5
  0
TEXT
  5
133
330
17
100
AcDbEntity
  8
LABEL
100
AcDbText
 10
1395.7500000000002
 20
1033.8000000000006
 30
0.0
 40
12.0
  1
LinkD
 72
1
 11
1395.7500000000002
 21
1033.8000000000006
 31
0.0
100
AcDbText
 73
2
  0
LWPOLYLINE
  5
134
330
17
100
AcDbEntity
  8
0
100
AcDbPolyline
 90
4
 70
1
 10
1591.2000000000003
 20
1129.8000000000006
 10
1350.6000000000001
 20
1129.8000000000006
 42
0.9999999999999999
 10
1350.6000000000001
 20
1069.8000000000006
 10
1591.2000000000003
 20
1069.8000000000006
 42
0.9999999999999999
  0
CIRCLE
  5
135
330
17
100
AcDbEntity
  8
0
100
AcDbCircle
 10
1591.2000000000003
 20
1099.8000000000006
 30
0.0
 40
6.5
  0
CIRCLE
  5
136
330
17
100
AcDbEntity
  8
0
100
AcDbCircle
 10
1350.6000000000001
 20
1099.8000000000006
 30
0.0
 40
6.5
  0
TEXT
  5
137
330
17
100
AcDbEntity
  8
LABEL
100
AcDbText
 10
1395.7500000000002
 20
1099.8000000000006
 30
0.0
 40
12.0
  1
LinkD
 72
1
 11
1395.7500000000002
 21
1099.8000000000006
 31
0.0
100
AcDbText
 73
2
  0
LWPOLYLINE
  5
138
330
17
100
AcDbEntity
  8
0
100
AcDbPolyline
 90
4
 70
1
 10
1591.2000000000003
 20
1195.8000000000006
 10
1350.6000000000001
 20
1195.8000000000006
 42
0.9999999999999999
 10
1350.6000000000001
 20
1135.8000000000006
 10
1591.2000000000003
 20
1135.8000000000006
 42
0.9999999999999999
  0
CIRCLE
  5
139
330
17
100
AcDbEntity
  8
0
100
AcDbCircle
 10
1591.2000000000003
 20
1165.8000000000006
 30
0.0
 40
6.5
  0
CIRCLE
  5
13A
330
17
100
AcDbEntity
  8
0
100
AcDbCircle
 10
1350.6000000000001
 20
1165.8000000000006
 30
0.0
 40
6.5
  0
TEXT
  5
13B
330
17
100
AcDbEntity
  8
LABEL
100
AcDbText
 10
1395.7500000000002
 20
1165.8000000000006
 30
0.0
 40
12.0
  1
LinkD
 72
1
 11
1395.7500000000002
 21
1165.8000000000006
 31
0.0
100
AcDbText
 73
2
  0
LWPOLYLINE
  5
13C
330
17
100
AcDbEntity
  8
0
100
AcDbPolyline
 90
4
 70
1
 10
1140.0000000000007
 20
595.2000000000003
 10
1140.0000000000007
 20
354.60000000000014
 42
0.9999999999999999
 10
1200.0000000000007
 20
354.60000000000014
 10
1200.0000000000007
 20
595.2000000000003
 42
0.9999999999999999
  0
CIRCLE
  5
13D
330
17
100
AcDbEntity
  8
0
100
AcDbCircle
 10
1170.0000000000007
 20
595.2000000000003
 30
0.0
 40
6.5
  0
CIRCLE
  5
13E
330
17
100
AcDbEntity
  8
0
100
AcDbCircle
 10
1170.0000000000007
 20
354.60000000000014
 30
0.0
 40
6.5
  0
TEXT
  5
13F
330
17
100
AcDbEntity
  8
LABEL
100
AcDbText
 10
1170.0000000000007
 20
399.7500000000002
 30
0.0
 40
12.0
  1
LinkD
 72
1
 11
1170.0000000000007
 21
399.7500000000002
 31
0.0
100
AcDbText
 73
2
  0
LWPOLYLINE
  5
140
330
17
100
AcDbEntity
  8
0
100
AcDbPolyline
 90
4
 70
1
 10
1206.0000000000005
 20
288.60000000000014
 10
1206.0000000000005
 20
48.0
 42
0.9999999999999999
 10
1266.0000000000005
 20
48.0
 10
1266.0000000000005
 20
288.60000000000014
 42
0.9999999999999999
  0
CIRCLE
  5
141
330
17
100
AcDbEntity
  8
0
100
AcDbCircle
 10
1236.0000000000005
 20
288.60000000000014
 30
0.0
 40
6.5
  0
CIRCLE
  5
142
330
17
100
AcDbEntity
  8
0
100
AcDbCircle
 10
1236.0000000000005
 20
48.0
 30
0.0
 40
6.5
  0
TEXT
  5
143
330
17
100
AcDbEntity
  8
LABEL
100
AcDbText
 10
1236.0000000000005
 20
93.15000000000009
 30
0.0
 40
12.0
  1
LinkD
 72
1
 11
1236.0000000000005
 21
93.15000000000009
 31
0.0
100
AcDbText
 73
2
  0
LWPOLYLINE
  5
144
330
17
100
AcDbEntity
  8
0
100
AcDbPolyline
 90
4
 70
1
 10
1140.0000000000007
 20
901.8000000000004
 10
1140.0000000000007
 20
661.2000000000003
 42
0.9999999999999999
 10
1200.0000000000007
 20
661.2000000000003
 10
1200.0000000000007
 20
901.8000000000004
 42
0.9999999999999999
  0
CIRCLE
  5
145
330
17
100
AcDbEntity
  8
0
100
AcDbCircle
 10
1170.0000000000007
 20
901.8000000000004
 30
0.0
 40
6.5
  0
CIRCLE
  5
146
330
17
100
AcDbEntity
  8
0
100
AcDbCircle
 10
1170.0000000000007
 20
661.2000000000003
 30
0.0
 40
6.5
  0
TEXT
  5
147
330
17
100
AcDbEntity
  8
LABEL
100
AcDbText
 10
1170.0000000000007
 20
706.3500000000004
 30
0.0
 40
12.0
  1
LinkD
 72
1
 11
1170.0000000000007
 21
706.3500000000004
 31
0.0
100
AcDbText
 73
2
  0
LWPOLYLINE
  5
148
330
17
100
AcDbEntity
  8
0
100
AcDbPolyline
 90
4
 70
1
 10
1206.0000000000007
 20
595.2000000000003
 10
1206.0000000000007
 20
354.60000000000014
 42
0.9999999999999999
 10
1266.0000000000007
 20
354.60000000000014
 10
1266.0000000000007
 20
595.2000000000003
 42
0.9999999999999999
  0
CIRCLE
  5
149
330
17
100
AcDbEntity
  8
0
100
AcDbCircle
 10
1236.0000000000007
 20
595.2000000000003
 30
0.0
 40
6.5
  0
CIRCLE
  5
14A
330
17
100
AcDbEntity
  8
0
100
AcDbCircle
 10
1236.0000000000007
 20
354.60000000000014
 30
0.0
 40
6.5
  0
TEXT
  5
14B
330
17
100
AcDbEntity
  8
LABEL
100
AcDbText
 10
1236.0000000000007
 20
399.7500000000002
 30
0.0
 40
12.0
  1
LinkD
 72
1
 11
1236.0000000000007
 21
399.7500000000002
 31
0.0
100
AcDbText
 73
2
  0
LWPOLYLINE
  5
14C
330
17
100
AcDbEntity
  8
0
100
AcDbPolyline
 90
4
 70
1
 10
1272.0000000000005
 20
288.60000000000014
 10
1272.0000000000005
 20
48.0
 42
0.9999999999999999
 10
1332.0000000000005
 20
48.0
 10
1332.0000000000005
 20
288.60000000000014
 42
0.9999999999999999
  0
CIRCLE
  5
14D
330
17
100
AcDbEntity
  8
0
100
AcDbCircle
 10
1302.0000000000005
 20
288.60000000000014
 30
0.0
 40
6.5
  0
CIRCLE
  5
14E
330
17
100
AcDbEntity
  8
0
100
AcDbCircle
 10
1302.0000000000005
 20
48.0
 30
0.0
 40
6.5
  0
TEXT
  5
14F
330
17
100
AcDbEntity
  8
LABEL
100
AcDbText
 10
1302.0000000000005
 20
93.15000000000009
 30
0.0
 40
12.0
  1
LinkD
 72
1
 11
1302.0000000000005
 21
93.15000000000009
 31
0.0
100
AcDbText
 73
2
  0
LWPOLYLINE
  5
150
330
17
100
AcDbEntity
  8
0
100
AcDbPolyline
 90
4
 70
1
 10
1206.0000000000007
 20
901.8000000000004
 10
1206.0000000000007
 20
661.2000000000003
 42
0.9999999999999999
 10
1266.0000000000007
 20
661.2000000000003
 10
1266.0000000000007
 20
901.8000000000004
 42
0.9999999999999999
  0
CIRCLE
  5
151
330
17
100
AcDbEntity
  8
0
100
AcDbCircle
 10
1236.0000000000007
 20
901.8000000000004
 30
0.0
 40
6.5
  0
CIRCLE
  5
152
330
17
100
AcDbEntity
  8
0
100
AcDbCircle
 10
1236.0000000000007
 20
661.2000000000003
 30
0.0
 40
6.5
  0
TEXT
  5
153
330
17
100
AcDbEntity
  8
LABEL
100
AcDbText
 10
1236.0000000000007
 20
706.3500000000004
 30
0.0
 40
12.0
  1
LinkD
 72
1
 11
1236.0000000000007
 21
706.3500000000004
 31
0.0
100
AcDbText
 73
2
  0
LWPOLYLINE
  5
154
330
17
100
AcDbEntity
  8
0
100
AcDbPolyline
 90
4
 70
1
 10
1272.0000000000007
 20
595.2000000000003
 10
1272.0000000000007
 20
354.60000000000014
 42
0.9999999999999999
 10
1332.0000000000007
 20
354.60000000000014
 10
1332.0000000000007
 20
595.2000000000003
 42
0.9999999999999999
  0
CIRCLE
  5
155
330
17
100
AcDbEntity
  8
0
100
AcDbCircle
 10
1302.0000000000007
 20
595.2000000000003
 30
0.0
 40
6.5
  0
CIRCLE
  5
156
330
17
100
AcDbEntity
  8
0
100
AcDbCircle
 10
1302.0000000000007
 20
354.60000000000014
 30
0.0
 40
6.5
  0
TEXT
  5
157
330
17
100
AcDbEntity
  8
LABEL
100
AcDbText
 10
1302.0000000000007
 20
399.7500000000002
 30
0.0
 40
12.0
  1
LinkD
 72
1
 11
1302.0000000000007
 21
399.7500000000002
 31
0.0
100
AcDbText
 73
2
  0
CIRCLE
  5
158
330
17
100
AcDbEntity
  8
0
100
AcDbCircle
 10
1368.0000000000005
 20
48.00000000000006
 30
0.0
 40
6.5
  0
CIRCLE
  5
159
330
17
100
AcDbEntity
  8
0
100
AcDbCircle
 10
1368.0000000000005
 20
283.8
 30
0.0
 40
6.5
  0
LWPOLYLINE
  5
15A
330
17
100
AcDbEntity
  8
0
100
AcDbPolyline
 90
4
 70
1
 10
1398.0000000000005
 20
283.8
 42
0.9999999999999999
 10
1338.0000000000005
 20
283.8
 10
1338.0000000000005
 20
48.0
 42
0.9999999999999999
 10
1398.0000000000005
 20
48.00000000000006
  0
TEXT
  5
15B
330
17
100
AcDbEntity
  8
LABEL
100
AcDbText
 10
1368.0000000000005
 20
178.22500000000002
 30
0.0
 40
12.0
  1
LinkC
 72
1
 11
1368.0000000000005
 21
178.22500000000002
 31
0.0
100
AcDbText
 73
2
  0
CIRCLE
  5
15C
330
17
100
AcDbEntity
  8
0
100
AcDbCircle
 10
1302.0000000000007
 20
661.2000000000003
 30
0.0
 40
6.5
  0
CIRCLE
  5
15D
330
17
100
AcDbEntity
  8
0
100
AcDbCircle
 10
1302.0000000000007
 20
897.0000000000003
 30
0.0
 40
6.5
  0
LWPOLYLINE
  5
15E
330
17
100
AcDbEntity
  8
0
100
AcDbPolyline
 90
4
 70
1
 10
1332.0000000000007
 20
897.0000000000003
 42
0.9999999999999999
 10
1272.0000000000007
 20
897.0000000000003
 10
1272.0000000000007
 20
661.2000000000003
 42
0.9999999999999999
 10
1332.0000000000007
 20
661.2000000000003
  0
TEXT
  5
15F
330
17
100
AcDbEntity
  8
LABEL
100
AcDbText
 10
1302.0000000000007
 20
791.4250000000003
 30
0.0
 40
12.0
  1
LinkC
 72
1
 11
1302.0000000000007
 21
791.4250000000003
 31
0.0
100
AcDbText
 73
2
  0
CIRCLE
  5
160
330
17
100
AcDbEntity
  8
0
100
AcDbCircle
 10
1368.0000000000007
 20
349.8000000000001
 30
0.0
 40
6.5
  0
CIRCLE
  5
161
330
17
100
AcDbEntity
  8
0
100
AcDbCircle
 10
1368.0000000000007
 20
585.6000000000001
 30
0.0
 40
6.5
  0
LWPOLYLINE
  5
162
330
17
100
AcDbEntity
  8
0
100
AcDbPolyline
 90
4
 70
1
 10
1398.0000000000007
 20
585.6000000000001
 42
0.9999999999999999
 10
1338.0000000000007
 20
585.6000000000001
 10
1338.0000000000007
 20
349.80000000000007
 42
0.9999999999999999
 10
1398.0000000000007
 20
349.8000000000001
  0
TEXT
  5
163
330
17
100
AcDbEntity
  8
LABEL
100
AcDbText
 10
1368.0000000000007
 20
480.0250000000001
 30
0.0
 40
12.0
  1
LinkC
 72
1
 11
1368.0000000000007
 21
480.0250000000001
 31
0.0
100
AcDbText
 73
2
  0
CIRCLE
  5
164
330
17
100
AcDbEntity
  8
0
100
AcDbCircle
 10
1434.0000000000005
 20
48.00000000000006
 30
0.0
 40
6.5
  0
CIRCLE
  5
165
330
17
100
AcDbEntity
  8
0
100
AcDbCircle
 10
1434.0000000000005
 20
283.8
 30
0.0
 40
6.5
  0
LWPOLYLINE
  5
166
330
17
100
AcDbEntity
  8
0
100
AcDbPolyline
 90
4
 70
1
 10
1464.0000000000005
 20
283.8
 42
0.9999999999999999
 10
1404.0000000000005
 20
283.8
 10
1404.0000000000005
 20
48.0
 42
0.9999999999999999
 10
1464.0000000000005
 20
48.00000000000006
  0
TEXT
  5
167
330
17
100
AcDbEntity
  8
LABEL
100
AcDbText
 10
1434.0000000000005
 20
178.22500000000002
 30
0.0
 40
12.0
  1
LinkC
 72
1
 11
1434.0000000000005
 21
178.22500000000002
 31
0.0
100
AcDbText
 73
2
  0
CIRCLE
  5
168
330
17
100
AcDbEntity
  8
0
100
AcDbCircle
 10
1368.0000000000007
 20
651.6000000000001
 30
0.0
 40
6.5
  0
CIRCLE
  5
169
330
17
100
AcDbEntity
  8
0
100
AcDbCircle
 10
1368.0000000000007
 20
887.4000000000001
 30
0.0
 40
6.5
  0
LWPOLYLINE
  5
16A
330
17
100
AcDbEntity
  8
0
100
AcDbPolyline
 90
4
 70
1
 10
1398.0000000000007
 20
887.4000000000001
 42
0.9999999999999999
 10
1338.0000000000007
 20
887.4000000000001
 10
1338.0000000000007
 20
651.6
 42
0.9999999999999999
 10
1398.0000000000007
 20
651.6000000000001
  0
TEXT
  5
16B
330
17
100
AcDbEntity
  8
LABEL
100
AcDbText
 10
1368.0000000000007
 20
781.825
 30
0.0
 40
12.0
  1
LinkC
 72
1
 11
1368.0000000000007
 21
781.825
 31
0.0
100
AcDbText
 73
2
  0
CIRCLE
  5
16C
330
17
100
AcDbEntity
  8
0
100
AcDbCircle
 10
1423.2000000000005
 20
953.4000000000001
 30
0.0
 40
6.5
  0
CIRCLE
  5
16D
330
17
100
AcDbEntity
  8
0
100
AcDbCircle
 10
1659.0000000000005
 20
953.4000000000001
 30
0.0
 40
6.5
  0
LWPOLYLINE
  5
16E
330
17
100
AcDbEntity
  8
0
100
AcDbPolyline
 90
4
 70
1
 10
1659.0000000000005
 20
923.4000000000001
 42
0.9999999999999999
 10
1659.0000000000005
 20
983.4000000000001
 10
1423.2000000000003
 20
983.4000000000001
 42
0.9999999999999999
 10
1423.2000000000005
 20
923.4000000000001
  0
TEXT
  5
16F
330
17
100
AcDbEntity
  8
LABEL
100
AcDbText
 10
1553.4250000000004
 20
953.4000000000001
 30
0.0
 40
12.0
  1
LinkC
 72
1
 11
1553.4250000000004
 21
953.4000000000001
 31
0.0
100
AcDbText
 73
2
  0
CIRCLE
  5
170
330
17
100
AcDbEntity
  8
0
100
AcDbCircle
 10
1657.2000000000005
 20
1019.4000000000001
 30
0.0
 40
6.5
  0
CIRCLE
  5
171
330
17
100
AcDbEntity
  8
0
100
AcDbCircle
 10
1893.0000000000005
 20
1019.4000000000001
 30
0.0
 40
6.5
  0
LWPOLYLINE
  5
172
330
17
100
AcDbEntity
  8
0
100
AcDbPolyline
 90
4
 70
1
 10
1893.0000000000005
 20
989.4000000000001
 42
0.9999999999999999
 10
1893.0000000000005
 20
1049.4
 10
1657.2000000000003
 20
1049.4
 42
0.9999999999999999
 10
1657.2000000000005
 20
989.4000000000001
  0
TEXT
  5
173
330
17
100
AcDbEntity
  8
LABEL
100
AcDbText
 10
1787.4250000000004
 20
1019.4000000000001
 30
0.0
 40
12.0
  1
LinkC
 72
1
 11
1787.4250000000004
 21
1019.4000000000001
 31
0.0
100
AcDbText
 73
2
  0
CIRCLE
  5
174
330
17
100
AcDbEntity
  8
0
100
AcDbCircle
 10
1657.2000000000005
 20
1085.4
 30
0.0
 40
6.5
  0
CIRCLE
  5
175
330
17
100
AcDbEntity
  8
0
100
AcDbCircle
 10
1893.0000000000005
 20
1085.4
 30
0.0
 40
6.5
  0
LWPOLYLINE
  5
176
330
17
100
AcDbEntity
  8
0
100
AcDbPolyline
 90
4
 70
1
 10
1893.0000000000005
 20
1055.4
 42
0.9999999999999999
 10
1893.0000000000005
 20
1115.4
 10
1657.2000000000003
 20
1115.4
 42
0.9999999999999999
 10
1657.2000000000005
 20
1055.4
  0
TEXT
  5
177
330
17
100
AcDbEntity
  8
LABEL
100
AcDbText
 10
1787.4250000000004
 20
1085.4
 30
0.0
 40
12.0
  1
LinkC
 72
1
 11
1787.4250000000004
 21
1085.4
 31
0.0
100
AcDbText
 73
2
  0
CIRCLE
  5
178
330
17
100
AcDbEntity
  8
0
100
AcDbCircle
 10
1657.2000000000005
 20
1151.4
 30
0.0
 40
6.5
  0
CIRCLE
  5
179
330
17
100
AcDbEntity
  8
0
100
AcDbCircle
 10
1893.0000000000005
 20
1151.4
 30
0.0
 40
6.5
  0
LWPOLYLINE
  5
17A
330
17
100
AcDbEntity
  8
0
100
AcDbPolyline
 90
4
 70
1
 10
1893.0000000000005
 20
1121.4
 42
0.9999999999999999
 10
1893.0000000000005
 20
1181.4
 10
1657.2000000000003
 20
1181.4
 42
0.9999999999999999
 10
1657.2000000000005
 20
1121.4
  0
TEXT
  5
17B
330
17
100
AcDbEntity
  8
LABEL
100
AcDbText
 10
1787.4250000000004
 20
1151.4
 30
0.0
 40
12.0
  1
LinkC
 72
1
 11
1787.4250000000004
 21
1151.4
 31
0.0
100
AcDbText
 73
2
  0
CIRCLE
  5
17C
330
17
100
AcDbEntity
  8
0
100
AcDbCircle
 10
1959.0000000000002
 20
48.0
 30
0.0
 40
6.5
  0
CIRCLE
  5
17D
330
17
100
AcDbEntity
  8
0
100
AcDbCircle
 10
2194.8
 20
48.00000000000003
 30
0.0
 40
6.5
  0
LWPOLYLINE
  5
17E
330
17
100
AcDbEntity
  8
0
100
AcDbPolyline
 90
4
 70
1
 10
2194.8
 20
18.000000000000014
 42
0.9999999999999999
 10
2194.8
 20
78.00000000000003
 10
1959.0
 20
78.0
 42
0.9999999999999999
 10
1959.0000000000002
 20
18.0
  0
TEXT
  5
17F
330
17
100
AcDbEntity
  8
LABEL
100
AcDbText
 10
2089.225
 20
48.00000000000003
 30
0.0
 40
12.0
  1
LinkC
 72
1
 11
2089.225
 21
48.00000000000003
 31
0.0
100
AcDbText
 73
2
  0
CIRCLE
  5
180
330
17
100
AcDbEntity
  8
0
100
AcDbCircle
 10
2260.8
 20
48.00000000000006
 30
0.0
 40
6.5
  0
CIRCLE
  5
181
330
17
100
AcDbEntity
  8
0
100
AcDbCircle
 10
2260.8
 20
283.8
 30
0.0
 40
6.5
  0
LWPOLYLINE
  5
182
330
17
100
AcDbEntity
  8
0
100
AcDbPolyline
 90
4
 70
1
 10
2290.8
 20
283.8
 42
0.9999999999999999
 10
2230.8
 20
283.8
 10
2230.8
 20
48.0
 42
0.9999999999999999
 10
2290.8
 20
48.00000000000006
  0
TEXT
  5
183
330
17
100
AcDbEntity
  8
LABEL
100
AcDbText
 10
2260.8
 20
178.22500000000002
 30
0.0
 40
12.0
  1
LinkC
 72
1
 11
2260.8
 21
178.22500000000002
 31
0.0
100
AcDbText
 73
2
  0
CIRCLE
  5
184
330
17
100
AcDbEntity
  8
0
100
AcDbCircle
 10
2326.8
 20
48.00000000000006
 30
0.0
 40
6.5
  0
CIRCLE
  5
185
330
17
100
AcDbEntity
  8
0
100
AcDbCircle
 10
2326.8
 20
283.8
 30
0.0
 40
6.5
  0
LWPOLYLINE
  5
186
330
17
100
AcDbEntity
  8
0
100
AcDbPolyline
 90
4
 70
1
 10
2356.8
 20
283.8
 42
0.9999999999999999
 10
2296.8
 20
283.8
 10
2296.8
 20
48.0
 42
0.9999999999999999
 10
2356.8
 20
48.00000000000006
  0
TEXT
  5
187
330
17
100
AcDbEntity
  8
LABEL
100
AcDbText
 10
2326.8
 20
178.22500000000002
 30
0.0
 40
12.0
  1
LinkC
 72
1
 11
2326.8
 21
178.22500000000002
 31
0.0
100
AcDbText
 73
2
  0
CIRCLE
  5
188
330
17
100
AcDbEntity
  8
0
100
AcDbCircle
 10
1500.0000000000007
 20
48.0
 30
0.0
 40
6.5
  0
CIRCLE
  5
189
330
17
100
AcDbEntity
  8
0
100
AcDbCircle
 10
1735.8000000000006
 20
48.00000000000003
 30
0.0
 40
6.5
  0
LWPOLYLINE
  5
18A
330
17
100
AcDbEntity
  8
0
100
AcDbPolyline
 90
4
 70
1
 10
1735.8000000000006
 20
18.000000000000014
 42
0.9999999999999999
 10
1735.8000000000006
 20
78.00000000000003
 10
1500.0000000000005
 20
78.0
 42
0.9999999999999999
 10
1500.0000000000007
 20
18.0
  0
TEXT
  5
18B
330
17
100
AcDbEntity
  8
LABEL
100
AcDbText
 10
1630.2250000000006
 20
48.00000000000003
 30
0.0
 40
12.0
  1
LinkC
 72
1
 11
1630.2250000000006
 21
48.00000000000003
 31
0.0
100
AcDbText
 73
2
  0
CIRCLE
  5
18C
330
17
100
AcDbEntity
  8
0
100
AcDbCircle
 10
1801.8000000000004
 20
48.00000000000006
 30
0.0
 40
6.5
  0
CIRCLE
  5
18D
330
17
100
AcDbEntity
  8
0
100
AcDbCircle
 10
1801.8000000000004
 20
283.8
 30
0.0
 40
6.5
  0
LWPOLYLINE
  5
18E
330
17
100
AcDbEntity
  8
0
100
AcDbPolyline
 90
4
 70
1
 10
1831.8000000000004
 20
283.8
 42
0.9999999999999999
 10
1771.8000000000004
 20
283.8
 10
1771.8000000000004
 20
48.0
 42
0.9999999999999999
 10
1831.8000000000004
 20
48.00000000000006
  0
TEXT
  5
18F
330
17
100
AcDbEntity
  8
LABEL
100
AcDbText
 10
1801.8000000000004
 20
178.22500000000002
 30
0.0
 40
12.0
  1
LinkC
 72
1
 11
1801.8000000000004
 21
178.22500000000002
 31
0.0
100
AcDbText
 73
2
  0
CIRCLE
  5
190
330
17
100
AcDbEntity
  8
0
100
AcDbCircle
 10
1725.0000000000002
 20
114.00000000000006
 30
0.0
 40
6.5
  0
CIRCLE
  5
191
330
17
100
AcDbEntity
  8
0
100
AcDbCircle
 10
1725.0000000000002
 20
349.8
 30
0.0
 40
6.5
  0
LWPOLYLINE
  5
192
330
17
100
AcDbEntity
  8
0
100
AcDbPolyline
 90
4
 70
1
 10
1755.0000000000002
 20
349.8
 42
0.9999999999999999
 10
1695.0000000000002
 20
349.8
 10
1695.0000000000002
 20
114.0
 42
0.9999999999999999
 10
1755.0000000000002
 20
114.00000000000006
  0
TEXT
  5
193
330
17
100
AcDbEntity
  8
LABEL
100
AcDbText
 10
1725.0000000000002
 20
244.22500000000002
 30
0.0
 40
12.0
  1
LinkC
 72
1
 11
1725.0000000000002
 21
244.22500000000002
 31
0.0
100
AcDbText
 73
2
  0
CIRCLE
  5
194
330
17
100
AcDbEntity
  8
0
100
AcDbCircle
 10
1867.8000000000004
 20
48.00000000000006
 30
0.0
 40
6.5
  0
CIRCLE
  5
195
330
17
100
AcDbEntity
  8
0
100
AcDbCircle
 10
1867.8000000000004
 20
283.8
 30
0.0
 40
6.5
  0
LWPOLYLINE
  5
196
330
17
100
AcDbEntity
  8
0
100
AcDbPolyline
 90
4
 70
1
 10
1897.8000000000004
 20
283.8
 42
0.9999999999999999
 10
1837.8000000000004
 20
283.8
 10
1837.8000000000004
 20
48.0
 42
0.9999999999999999
 10
1897.8000000000004
 20
48.00000000000006
  0
TEXT
  5
197
330
17
100
AcDbEntity
  8
LABEL
100
AcDbText
 10
1867.8000000000004
 20
178.22500000000002
 30
0.0
 40
12.0
  1
LinkC
 72
1
 11
1867.8000000000004
 21
178.22500000000002
 31
0.0
100
AcDbText
 73
2
  0
CIRCLE
  5
198
330
17
100
AcDbEntity
  8
0
100
AcDbCircle
 10
1933.8000000000004
 20
114.00000000000003
 30
0.0
 40
6.5
  0
CIRCLE
  5
199
330
17
100
AcDbEntity
  8
0
100
AcDbCircle
 10
2169.6000000000004
 20
114.00000000000006
 30
0.0
 40
6.5
  0
LWPOLYLINE
  5
19A
330
17
100
AcDbEntity
  8
0
100
AcDbPolyline
 90
4
 70
1
 10
2169.6000000000004
 20
84.00000000000004
 42
0.9999999999999999
 10
2169.6000000000004
 20
144.00000000000006
 10
1933.8000000000002
 20
144.00000000000003
 42
0.9999999999999999
 10
1933.8000000000004
 20
84.00000000000003
  0
TEXT
  5
19B
330
17
100
AcDbEntity
  8
LABEL
100
AcDbText
 10
2064.025
 20
114.00000000000006
 30
0.0
 40
12.0
  1
LinkC
 72
1
 11
2064.025
 21
114.00000000000006
 31
0.0
100
AcDbText
 73
2
  0
CIRCLE
  5
19C
330
17
100
AcDbEntity
  8
0
100
AcDbCircle
 10
1933.8000000000004
 20
180.00000000000006
 30
0.0
 40
6.5
  0
CIRCLE
  5
19D
330
17
100
AcDbEntity
  8
0
100
AcDbCircle
 10
2169.6000000000004
 20
180.00000000000009
 30
0.0
 40
6.5
  0
LWPOLYLINE
  5
19E
330
17
100
AcDbEntity
  8
0
100
AcDbPolyline
 90
4
 70
1
 10
2169.6000000000004
 20
150.00000000000006
 42
0.9999999999999999
 10
2169.6000000000004
 20
210.00000000000009
 10
1933.8000000000002
 20
210.00000000000006
 42
0.9999999999999999
 10
1933.8000000000004
 20
150.00000000000006
  0
TEXT
  5
19F
330
17
100
AcDbEntity
  8
LABEL
100
AcDbText
 10
2064.025
 20
180.00000000000009
 30
0.0
 40
12.0
  1
LinkC
 72
1
 11
2064.025
 21
180.00000000000009
 31
0.0
100
AcDbText
 73
2
  0
CIRCLE
  5
1A0
330
17
100
AcDbEntity
  8
0
100
AcDbCircle
 10
1933.8000000000004
 20
246.00000000000009
 30
0.0
 40
6.5
  0
CIRCLE
  5
1A1
330
17
100
AcDbEntity
  8
0
100
AcDbCircle
 10
2169.6000000000004
 20
246.0000000000001
 30
0.0
 40
6.5
  0
LWPOLYLINE
  5
1A2
330
17
100
AcDbEntity
  8
0
100
AcDbPolyline
 90
4
 70
1
 10
2169.6000000000004
 20
216.0000000000001
 42
0.9999999999999999
 10
2169.6000000000004
 20
276.0000000000001
 10
1933.8000000000002
 20
276.0000000000001
 42
0.9999999999999999
 10
1933.8000000000004
 20
216.00000000000009
  0
TEXT
  5
1A3
330
17
100
AcDbEntity
  8
LABEL
100
AcDbText
 10
2064.025
 20
246.0000000000001
 30
0.0
 40
12.0
  1
LinkC
 72
1
 11
2064.025
 21
246.0000000000001
 31
0.0
100
AcDbText
 73
2
  0
CIRCLE
  5
1A4
330
17
100
AcDbEntity
  8
0
100
AcDbCircle
 10
1933.8000000000004
 20
312.0000000000001
 30
0.0
 40
6.5
  0
CIRCLE
  5
1A5
330
17
100
AcDbEntity
  8
0
100
AcDbCircle
 10
2169.6000000000004
 20
312.0000000000001
 30
0.0
 40
6.5
  0
LWPOLYLINE
  5
1A6
330
17
100
AcDbEntity
  8
0
100
AcDbPolyline
 90
4
 70
1
 10
2169.6000000000004
 20
282.0000000000001
 42
0.9999999999999999
 10
2169.6000000000004
 20
342.0000000000001
 10
1933.8000000000002
 20
342.0000000000001
 42
0.9999999999999999
 10
1933.8000000000004
 20
282.0000000000001
  0
TEXT
  5
1A7
330
17
100
AcDbEntity
  8
LABEL
100
AcDbText
 10
2064.025
 20
312.0000000000001
 30
0.0
 40
12.0
  1
LinkC
 72
1
 11
2064.025
 21
312.0000000000001
 31
0.0
100
AcDbText
 73
2
  0
CIRCLE
  5
1A8
330
17
100
AcDbEntity
  8
0
100
AcDbCircle
 10
1791.0000000000002
 20
349.8000000000001
 30
0.0
 40
6.5
  0
CIRCLE
  5
1A9
330
17
100
AcDbEntity
  8
0
100
AcDbCircle
 10
1791.0000000000002
 20
585.6000000000001
 30
0.0
 40
6.5
  0
LWPOLYLINE
  5
1AA
330
17
100
AcDbEntity
  8
0
100
AcDbPolyline
 90
4
 70
1
 10
1821.0000000000002
 20
585.6000000000001
 42
0.9999999999999999
 10
1761.0000000000002
 20
585.6000000000001
 10
1761.0000000000002
 20
349.80000000000007
 42
0.9999999999999999
 10
1821.0000000000002
 20
349.8000000000001
  0
TEXT
  5
1AB
330
17
100
AcDbEntity
  8
LABEL
100
AcDbText
 10
1791.0000000000002
 20
480.0250000000001
 30
0.0
 40
12.0
  1
LinkC
 72
1
 11
1791.0000000000002
 21
480.0250000000001
 31
0.0
100
AcDbText
 73
2
  0
CIRCLE
  5
1AC
330
17
100
AcDbEntity
  8
0
100
AcDbCircle
 10
1434.0000000000007
 20
651.6000000000001
 30
0.0
 40
6.5
  0
CIRCLE
  5
1AD
330
17
100
AcDbEntity
  8
0
100
AcDbCircle
 10
1434.0000000000007
 20
887.4000000000001
 30
0.0
 40
6.5
  0
LWPOLYLINE
  5
1AE
330
17
100
AcDbEntity
  8
0
100
AcDbPolyline
 90
4
 70
1
 10
1464.0000000000007
 20
887.4000000000001
 42
0.9999999999999999
 10
1404.0000000000007
 20
887.4000000000001
 10
1404.0000000000007
 20
651.6
 42
0.9999999999999999
 10
1464.0000000000007
 20
651.6000000000001
  0
TEXT
  5
1AF
330
17
100
AcDbEntity
  8
LABEL
100
AcDbText
 10
1434.0000000000007
 20
781.825
 30
0.0
 40
12.0
  1
LinkC
 72
1
 11
1434.0000000000007
 21
781.825
 31
0.0
100
AcDbText
 73
2
  0
CIRCLE
  5
1B0
330
17
100
AcDbEntity
  8
0
100
AcDbCircle
 10
1434.0000000000007
 20
349.8000000000001
 30
0.0
 40
6.5
  0
CIRCLE
  5
1B1
330
17
100
AcDbEntity
  8
0
100
AcDbCircle
 10
1434.0000000000007
 20
585.6000000000001
 30
0.0
 40
6.5
  0
LWPOLYLINE
  5
1B2
330
17
100
AcDbEntity
  8
0
100
AcDbPolyline
 90
4
 70
1
 10
1464.0000000000007
 20
585.6000000000001
 42
0.9999999999999999
 10
1404.0000000000007
 20
585.6000000000001
 10
1404.0000000000007
 20
349.80000000000007
 42
0.9999999999999999
 10
1464.0000000000007
 20
349.8000000000001
  0
TEXT
  5
1B3
330
17
100
AcDbEntity
  8
LABEL
100
AcDbText
 10
1434.0000000000007
 20
480.0250000000001
 30
0.0
 40
12.0
  1
LinkC
 72
1
 11
1434.0000000000007
 21
480.0250000000001
 31
0.0
100
AcDbText
 73
2
  0
CIRCLE
  5
1B4
330
17
100
AcDbEntity
  8
0
100
AcDbCircle
 10
1500.0000000000007
 20
651.6000000000001
 30
0.0
 40
6.5
  0
CIRCLE
  5
1B5
330
17
100
AcDbEntity
  8
0
100
AcDbCircle
 10
1500.0000000000007
 20
887.4000000000001
 30
0.0
 40
6.5
  0
LWPOLYLINE
  5
1B6
330
17
100
AcDbEntity
  8
0
100
AcDbPolyline
 90
4
 70
1
 10
1530.0000000000007
 20
887.4000000000001
 42
0.9999999999999999
 10
1470.0000000000007
 20
887.4000000000001
 10
1470.0000000000007
 20
651.6
 42
0.9999999999999999
 10
1530.0000000000007
 20
651.6000000000001
  0
TEXT
  5
1B7
330
17
100
AcDbEntity
  8
LABEL
100
AcDbText
 10
1500.0000000000007
 20
781.825
 30
0.0
 40
12.0
  1
LinkC
 72
1
 11
1500.0000000000007
 21
781.825
 31
0.0
100
AcDbText
 73
2
  0
CIRCLE
  5
1B8
330
17
100
AcDbEntity
  8
0
100
AcDbCircle
 10
1566.0000000000007
 20
651.6000000000001
 30
0.0
 40
6.5
  0
CIRCLE
  5
1B9
330
17
100
AcDbEntity
  8
0
100
AcDbCircle
 10
1566.0000000000007
 20
887.4000000000001
 30
0.0
 40
6.5
  0
LWPOLYLINE
  5
1BA
330
17
100
AcDbEntity
  8
0
100
AcDbPolyline
 90
4
 70
1
 10
1596.0000000000007
 20
887.4000000000001
 42
0.9999999999999999
 10
1536.0000000000007
 20
887.4000000000001
 10
1536.0000000000007
 20
651.6
 42
0.9999999999999999
 10
1596.0000000000007
 20
651.6000000000001
  0
TEXT
  5
1BB
330
17
100
AcDbEntity
  8
LABEL
100
AcDbText
 10
1566.0000000000007
 20
781.825
 30
0.0
 40
12.0
  1
LinkC
 72
1
 11
1566.0000000000007
 21
781.825
 31
0.0
100
AcDbText
 73
2
  0
CIRCLE
  5
1BC
330
17
100
AcDbEntity
  8
0
100
AcDbCircle
 10
1632.0000000000007
 20
651.6000000000001
 30
0.0
 40
6.5
  0
CIRCLE
  5
1BD
330
17
100
AcDbEntity
  8
0
100
AcDbCircle
 10
1632.0000000000007
 20
887.4000000000001
 30
0.0
 40
6.5
  0
LWPOLYLINE
  5
1BE
330
17
100
AcDbEntity
  8
0
100
AcDbPolyline
 90
4
 70
1
 10
1662.0000000000007
 20
887.4000000000001
 42
0.9999999999999999
 10
1602.0000000000007
 20
887.4000000000001
 10
1602.0000000000007
 20
651.6
 42
0.9999999999999999
 10
1662.0000000000007
 20
651.6000000000001
  0
TEXT
  5
1BF
330
17
100
AcDbEntity
  8
LABEL
100
AcDbText
 10
1632.0000000000007
 20
781.825
 30
0.0
 40
12.0
  1
LinkC
 72
1
 11
1632.0000000000007
 21
781.825
 31
0.0
100
AcDbText
 73
2
  0
CIRCLE
  5
1C0
330
17
100
AcDbEntity
  8
0
100
AcDbCircle
 10
1698.0000000000007
 20
651.6000000000001
 30
0.0
 40
6.5
  0
CIRCLE
  5
1C1
330
17
100
AcDbEntity
  8
0
100
AcDbCircle
 10
1698.0000000000007
 20
887.4000000000001
 30
0.0
 40
6.5
  0
LWPOLYLINE
  5
1C2
330
17
100
AcDbEntity
  8
0
100
AcDbPolyline
 90
4
 70
1
 10
1728.0000000000007
 20
887.4000000000001
 42
0.9999999999999999
 10
1668.0000000000007
 20
887.4000000000001
 10
1668.0000000000007
 20
651.6
 42
0.9999999999999999
 10
1728.0000000000007
 20
651.6000000000001
  0
TEXT
  5
1C3
330
17
100
AcDbEntity
  8
LABEL
100
AcDbText
 10
1698.0000000000007
 20
781.825
 30
0.0
 40
12.0
  1
LinkC
 72
1
 11
1698.0000000000007
 21
781.825
 31
0.0
100
AcDbText
 73
2
  0
CIRCLE
  5
1C4
330
17
100
AcDbEntity
  8
0
100
AcDbCircle
 10
1857.0000000000002
 20
349.8000000000001
 30
0.0
 40
6.5
  0
CIRCLE
  5
1C5
330
17
100
AcDbEntity
  8
0
100
AcDbCircle
 10
1857.0000000000002
 20
585.6000000000001
 30
0.0
 40
6.5
  0
LWPOLYLINE
  5
1C6
330
17
100
AcDbEntity
  8
0
100
AcDbPolyline
 90
4
 70
1
 10
1887.0000000000002
 20
585.6000000000001
 42
0.9999999999999999
 10
1827.0000000000002
 20
585.6000000000001
 10
1827.0000000000002
 20
349.80000000000007
 42
0.9999999999999999
 10
1887.0000000000002
 20
349.8000000000001
  0
TEXT
  5
1C7
330
17
100
AcDbEntity
  8
LABEL
100
AcDbText
 10
1857.0000000000002
 20
480.0250000000001
 30
0.0
 40
12.0
  1
LinkC
 72
1
 11
1857.0000000000002
 21
480.0250000000001
 31
0.0
100
AcDbText
 73
2
  0
CIRCLE
  5
1C8
330
17
100
AcDbEntity
  8
0
100
AcDbCircle
 10
1764.0000000000007
 20
651.6000000000001
 30
0.0
 40
6.5
  0
CIRCLE
  5
1C9
330
17
100
AcDbEntity
  8
0
100
AcDbCircle
 10
1764.0000000000007
 20
887.4000000000001
 30
0.0
 40
6.5
  0
LWPOLYLINE
  5
1CA
330
17
100
AcDbEntity
  8
0
100
AcDbPolyline
 90
4
 70
1
 10
1794.0000000000007
 20
887.4000000000001
 42
0.9999999999999999
 10
1734.0000000000007
 20
887.4000000000001
 10
1734.0000000000007
 20
651.6
 42
0.9999999999999999
 10
1794.0000000000007
 20
651.6000000000001
  0
TEXT
  5
1CB
330
17
100
AcDbEntity
  8
LABEL
100
AcDbText
 10
1764.0000000000007
 20
781.825
 30
0.0
 40
12.0
  1
LinkC
 72
1
 11
1764.0000000000007
 21
781.825
 31
0.0
100
AcDbText
 73
2
  0
CIRCLE
  5
1CC
330
17
100
AcDbEntity
  8
0
100
AcDbCircle
 10
1830.0000000000007
 20
651.6000000000001
 30
0.0
 40
6.5
  0
CIRCLE
  5
1CD
330
17
100
AcDbEntity
  8
0
100
AcDbCircle
 10
1830.0000000000007
 20
887.4000000000001
 30
0.0
 40
6.5
  0
LWPOLYLINE
  5
1CE
330
17
100
AcDbEntity
  8
0
100
AcDbPolyline
 90
4
 70
1
 10
1860.0000000000007
 20
887.4000000000001
 42
0.9999999999999999
 10
1800.0000000000007
 20
887.4000000000001
 10
1800.0000000000007
 20
651.6
 42
0.9999999999999999
 10
1860.0000000000007
 20
651.6000000000001
  0
TEXT
  5
1CF
330
17
100
AcDbEntity
  8
LABEL
100
AcDbText
 10
1830.0000000000007
 20
781.825
 30
0.0
 40
12.0
  1
LinkC
 72
1
 11
1830.0000000000007
 21
781.825
 31
0.0
100
AcDbText
 73
2
  0
CIRCLE
  5
1D0
330
17
100
AcDbEntity
  8
0
100
AcDbCircle
 10
1896.0000000000007
 20
651.6000000000001
 30
0.0
 40
6.5
  0
CIRCLE
  5
1D1
330
17
100
AcDbEntity
  8
0
100
AcDbCircle
 10
1896.0000000000007
 20
887.4000000000001
 30
0.0
 40
6.5
  0
LWPOLYLINE
  5
1D2
330
17
100
AcDbEntity
  8
0
100
AcDbPolyline
 90
4
 70
1
 10
1926.0000000000007
 20
887.4000000000001
 42
0.9999999999999999
 10
1866.0000000000007
 20
887.4000000000001
 10
1866.0000000000007
 20
651.6
 42
0.9999999999999999
 10
1926.0000000000007
 20
651.6000000000001
  0
TEXT
  5
1D3
330
17
100
AcDbEntity
  8
LABEL
100
AcDbText
 10
1896.0000000000007
 20
781.825
 30
0.0
 40
12.0
  1
LinkC
 72
1
 11
1896.0000000000007
 21
781.825
 31
0.0
100
AcDbText
 73
2
  0
CIRCLE
  5
1D4
330
17
100
AcDbEntity
  8
0
100
AcDbCircle
 10
2235.6000000000004
 20
349.8000000000001
 30
0.0
 40
6.5
  0
CIRCLE
  5
1D5
330
17
100
AcDbEntity
  8
0
100
AcDbCircle
 10
2235.6000000000004
 20
585.6000000000001
 30
0.0
 40
6.5
  0
LWPOLYLINE
  5
1D6
330
17
100
AcDbEntity
  8
0
100
AcDbPolyline
 90
4
 70
1
 10
2265.6000000000004
 20
585.6000000000001
 42
0.9999999999999999
 10
2205.6000000000004
 20
585.6000000000001
 10
2205.6000000000004
 20
349.80000000000007
 42
0.9999999999999999
 10
2265.6000000000004
 20
349.8000000000001
  0
TEXT
  5
1D7
330
17
100
AcDbEntity
  8
LABEL
100
AcDbText
 10
2235.6000000000004
 20
480.0250000000001
 30
0.0
 40
12.0
  1
LinkC
 72
1
 11
2235.6000000000004
 21
480.0250000000001
 31
0.0
100
AcDbText
 73
2
  0
CIRCLE
  5
1D8
330
17
100
AcDbEntity
  8
0
100
AcDbCircle
 10
1923.0000000000002
 20
378.0000000000001
 30
0.0
 40
6.5
  0
CIRCLE
  5
1D9
330
17
100
AcDbEntity
  8
0
100
AcDbCircle
 10
2158.8
 20
378.0000000000001
 30
0.0
 40
6.5
  0
LWPOLYLINE
  5
1DA
330
17
100
AcDbEntity
  8
0
100
AcDbPolyline
 90
4
 70
1
 10
2158.8
 20
348.0000000000001
 42
0.9999999999999999
 10
2158.8
 20
408.0000000000001
 10
1923.0
 20
408.0000000000001
 42
0.9999999999999999
 10
1923.0000000000002
 20
348.0000000000001
  0
TEXT
  5
1DB
330
17
100
AcDbEntity
  8
LABEL
100
AcDbText
 10
2053.225
 20
378.0000000000001
 30
0.0
 40
12.0
  1
LinkC
 72
1
 11
2053.225
 21
378.0000000000001
 31
0.0
100
AcDbText
 73
2
  0
CIRCLE
  5
1DC
330
17
100
AcDbEntity
  8
0
100
AcDbCircle
 10
1923.0000000000002
 20
444.0000000000001
 30
0.0
 40
6.5
  0
CIRCLE
  5
1DD
330
17
100
AcDbEntity
  8
0
100
AcDbCircle
 10
2158.8
 20
444.0000000000001
 30
0.0
 40
6.5
  0
LWPOLYLINE
  5
1DE
330
17
100
AcDbEntity
  8
0
100
AcDbPolyline
 90
4
 70
1
 10
2158.8
 20
414.0000000000001
 42
0.9999999999999999
 10
2158.8
 20
474.0000000000001
 10
1923.0
 20
474.0000000000001
 42
0.9999999999999999
 10
1923.0000000000002
 20
414.0000000000001
  0
TEXT
  5
1DF
330
17
100
AcDbEntity
  8
LABEL
100
AcDbText
 10
2053.225
 20
444.0000000000001
 30
0.0
 40
12.0
  1
LinkC
 72
1
 11
2053.225
 21
444.0000000000001
 31
0.0
100
AcDbText
 73
2
  0
CIRCLE
  5
1E0
330
17
100
AcDbEntity
  8
0
100
AcDbCircle
 10
1923.0000000000002
 20
510.0000000000001
 30
0.0
 40
6.5
  0
CIRCLE
  5
1E1
330
17
100
AcDbEntity
  8
0
100
AcDbCircle
 10
2158.8
 20
510.0000000000001
 30
0.0
 40
6.5
  0
LWPOLYLINE
  5
1E2
330
17
100
AcDbEntity
  8
0
100
AcDbPolyline
 90
4
 70
1
 10
2158.8
 20
480.0000000000001
 42
0.9999999999999999
 10
2158.8
 20
540.0000000000001
 10
1923.0
 20
540.0000000000001
 42
0.9999999999999999
 10
1923.0000000000002
 20
480.0000000000001
  0
TEXT
  5
1E3
330
17
100
AcDbEntity
  8
LABEL
100
AcDbText
 10
2053.225
 20
510.0000000000001
 30
0.0
 40
12.0
  1
LinkC
 72
1
 11
2053.225
 21
510.0000000000001
 31
0.0
100
AcDbText
 73
2
  0
CIRCLE
  5
1E4
330
17
100
AcDbEntity
  8
0
100
AcDbCircle
 10
1923.0000000000002
 20
576.0000000000001
 30
0.0
 40
6.5
  0
CIRCLE
  5
1E5
330
17
100
AcDbEntity
  8
0
100
AcDbCircle
 10
2158.8
 20
576.0000000000001
 30
0.0
 40
6.5
  0
LWPOLYLINE
  5
1E6
330
17
100
AcDbEntity
  8
0
100
AcDbPolyline
 90
4
 70
1
 10
2158.8
 20
546.0000000000001
 42
0.9999999999999999
 10
2158.8
 20
606.0000000000001
 10
1923.0
 20
606.0000000000001
 42
0.9999999999999999
 10
1923.0000000000002
 20
546.0000000000001
  0
TEXT
  5
1E7
330
17
100
AcDbEntity
  8
LABEL
100
AcDbText
 10
2053.225
 20
576.0000000000001
 30
0.0
 40
12.0
  1
LinkC
 72
1
 11
2053.225
 21
576.0000000000001
 31
0.0
100
AcDbText
 73
2
  0
CIRCLE
  5
1E8
330
17
100
AcDbEntity
  8
0
100
AcDbCircle
 10
1494.0000036742754
 20
409.80004626835
 30
-5.551115123125783e-16
 40
6.5
  0
LWPOLYLINE
  5
1E9
330
17
100
AcDbEntity
  8
0
100
AcDbPolyline
 90
3
 70
1
 10
1730.5387873766622
 20
421.8000464471637
 42
81.92927544653593
 10
1731.1241922383533
 20
421.7789770346144
 10
1731.1241922383533
 20
421.8000464471637
  0
LWPOLYLINE
  5
1EA
330
17
100
AcDbEntity
  8
0
100
AcDbPolyline
 90
4
 70
1
 10
1494.000003674275
 20
433.80004626835046
 42
1.0157787888818275
 10
1494.7513189137899
 20
385.8118090381805
 10
1731.125235446605
 20
385.8118090381805
 42
0.9809821123637654
 10
1730.5962532441058
 20
433.80004662597776
  0
TEXT
  5
1EB
330
17
100
AcDbEntity
  8
LABEL
100
AcDbText
 10
1529.2500068645563
 20
409.80002331298886
 30
0.0
 40
12.0
  1
LinkF
 72
1
 11
1529.2500068645563
 21
409.80002331298886
 31
0.0
100
AcDbText
 73
2
  0
CIRCLE
  5
1EC
330
17
100
AcDbEntity
  8
0
100
AcDbCircle
 10
1494.0000036742754
 20
463.8000928943277
 30
-5.551115123125783e-16
 40
6.5
  0
LWPOLYLINE
  5
1ED
330
17
100
AcDbEntity
  8
0
100
AcDbPolyline
 90
3
 70
1
 10
1730.5387873766622
 20
475.8000930731414
 42
81.92927544653593
 10
1731.1241922383533
 20
475.7790236605921
 10
1731.1241922383533
 20
475.8000930731414
  0
LWPOLYLINE
  5
1EE
330
17
100
AcDbEntity
  8
0
100
AcDbPolyline
 90
4
 70
1
 10
1494.000003674275
 20
487.80009289432815
 42
1.0157787888818275
 10
1494.7513189137899
 20
439.8118556641582
 10
1731.125235446605
 20
439.8118556641582
 42
0.9809821123637654
 10
1730.5962532441058
 20
487.80009325195545
  0
TEXT
  5
1EF
330
17
100
AcDbEntity
  8
LABEL
100
AcDbText
 10
1529.2500068645563
 20
463.80006993896654
 30
0.0
 40
12.0
  1
LinkF
 72
1
 11
1529.2500068645563
 21
463.80006993896654
 31
0.0
100
AcDbText
 73
2
  0
CIRCLE
  5
1F0
330
17
100
AcDbEntity
  8
0
100
AcDbCircle
 10
1494.0000036742754
 20
517.8001395203054
 30
-5.551115123125783e-16
 40
6.5
  0
LWPOLYLINE
  5
1F1
330
17
100
AcDbEntity
  8
0
100
AcDbPolyline
 90
3
 70
1
 10
1730.5387873766622
 20
529.8001396991191
 42
81.92927544653593
 10
1731.1241922383533
 20
529.7790702865698
 10
1731.1241922383533
 20
529.8001396991191
  0
LWPOLYLINE
  5
1F2
330
17
100
AcDbEntity
  8
0
100
AcDbPolyline
 90
4
 70
1
 10
1494.000003674275
 20
541.8001395203058
 42
1.0157787888818275
 10
1494.7513189137899
 20
493.8119022901359
 10
1731.125235446605
 20
493.8119022901359
 42
0.9809821123637654
 10
1730.5962532441058
 20
541.8001398779331
  0
TEXT
  5
1F3
330
17
100
AcDbEntity
  8
LABEL
100
AcDbText
 10
1529.2500068645563
 20
517.8001165649442
 30
0.0
 40
12.0
  1
LinkF
 72
1
 11
1529.2500068645563
 21
517.8001165649442
 31
0.0
100
AcDbText
 73
2
  0
CIRCLE
  5
1F4
330
17
100
AcDbEntity
  8
0
100
AcDbCircle
 10
1494.0000036742754
 20
571.8001861462831
 30
-5.551115123125783e-16
 40
6.5
  0
LWPOLYLINE
  5
1F5
330
17
100
AcDbEntity
  8
0
100
AcDbPolyline
 90
3
 70
1
 10
1730.5387873766622
 20
583.8001863250968
 42
81.92927544653593
 10
1731.1241922383533
 20
583.7791169125475
 10
1731.1241922383533
 20
583.8001863250968
  0
LWPOLYLINE
  5
1F6
330
17
100
AcDbEntity
  8
0
100
AcDbPolyline
 90
4
 70
1
 10
1494.000003674275
 20
595.8001861462835
 42
1.0157787888818275
 10
1494.7513189137899
 20
547.8119489161136
 10
1731.125235446605
 20
547.8119489161136
 42
0.9809821123637654
 10
1730.5962532441058
 20
595.8001865039108
  0
TEXT
  5
1F7
330
17
100
AcDbEntity
  8
LABEL
100
AcDbText
 10
1529.2500068645563
 20
571.8001631909219
 30
0.0
 40
12.0
  1
LinkF
 72
1
 11
1529.2500068645563
 21
571.8001631909219
 31
0.0
100
AcDbText
 73
2
  0
CIRCLE
  5
1F8
330
17
100
AcDbEntity
  8
0
100
AcDbCircle
 10
2386.800000357628
 20
42.00000367427492
 30
-5.551115123125783e-16
 40
6.5
  0
LWPOLYLINE
  5
1F9
330
17
100
AcDbEntity
  8
0
100
AcDbPolyline
 90
3
 70
1
 10
2374.8000001788146
 20
278.53878737666173
 42
81.92927544653593
 10
2374.821069591364
 20
279.12419223835286
 10
2374.8000001788146
 20
279.12419223835286
  0
LWPOLYLINE
  5
1FA
330
17
100
AcDbEntity
  8
0
100
AcDbPolyline
 90
4
 70
1
 10
2362.8000003576276
 20
42.00000367427447
 42
1.0157787888818275
 10
2410.7882375877975
 20
42.75131891378942
 10
2410.7882375877975
 20
279.1252354466046
 42
0.9809821123637654
 10
2362.8
 20
278.59625324410536
  0
TEXT
  5
1FB
330
17
100
AcDbEntity
  8
LABEL
100
AcDbText
 10
2386.800023312989
 20
77.25000686455587
 30
0.0
 40
12.0
  1
LinkF
 72
1
 11
2386.800023312989
 21
77.25000686455587
 31
0.0
100
AcDbText
 73
2
  0
CIRCLE
  5
1FC
330
17
100
AcDbEntity
  8
0
100
AcDbCircle
 10
2386.800000357628
 20
332.40003662414256
 30
-5.551115123125783e-16
 40
6.5
  0
LWPOLYLINE
  5
1FD
330
17
100
AcDbEntity
  8
0
100
AcDbPolyline
 90
3
 70
1
 10
2374.8000001788146
 20
568.9388203265294
 42
81.92927544653593
 10
2374.821069591364
 20
569.5242251882205
 10
2374.8000001788146
 20
569.5242251882205
  0
LWPOLYLINE
  5
1FE
330
17
100
AcDbEntity
  8
0
100
AcDbPolyline
 90
4
 70
1
 10
2362.8000003576276
 20
332.4000366241421
 42
1.0157787888818275
 10
2410.7882375877975
 20
333.15135186365706
 10
2410.7882375877975
 20
569.5252683964723
 42
0.9809821123637654
 10
2362.8
 20
568.996286193973
  0
TEXT
  5
1FF
330
17
100
AcDbEntity
  8
LABEL
100
AcDbText
 10
2386.800023312989
 20
367.6500398144235
 30
0.0
 40
12.0
  1
LinkF
 72
1
 11
2386.800023312989
 21
367.6500398144235
 31
0.0
100
AcDbText
 73
2
  0
CIRCLE
  5
200
330
17
100
AcDbEntity
  8
0
100
AcDbCircle
 10
1494.0000003576283
 20
108.00000367427492
 30
-5.551115123125783e-16
 40
6.5
  0
LWPOLYLINE
  5
201
330
17
100
AcDbEntity
  8
0
100
AcDbPolyline
 90
3
 70
1
 10
1482.0000001788148
 20
344.53878737666173
 42
81.92927544653593
 10
1482.021069591364
 20
345.12419223835286
 10
1482.0000001788148
 20
345.12419223835286
  0
LWPOLYLINE
  5
202
330
17
100
AcDbEntity
  8
0
100
AcDbPolyline
 90
4
 70
1
 10
1470.0000003576279
 20
108.00000367427447
 42
1.0157787888818275
 10
1517.9882375877978
 20
108.75131891378942
 10
1517.9882375877978
 20
345.1252354466046
 42
0.9809821123637654
 10
1470.0000000000007
 20
344.59625324410536
  0
TEXT
  5
203
330
17
100
AcDbEntity
  8
LABEL
100
AcDbText
 10
1494.0000233129895
 20
143.25000686455587
 30
0.0
 40
12.0
  1
LinkF
 72
1
 11
1494.0000233129895
 21
143.25000686455587
 31
0.0
100
AcDbText
 73
2
  0
CIRCLE
  5
204
330
17
100
AcDbEntity
  8
0
100
AcDbCircle
 10
1548.000046983606
 20
108.00000367427492
 30
-5.551115123125783e-16
 40
6.5
  0
LWPOLYLINE
  5
205
330
17
100
AcDbEntity
  8
0
100
AcDbPolyline
 90
3
 70
1
 10
1536.0000468047924
 20
344.53878737666173
 42
81.92927544653593
 10
1536.0211162173416
 20
345.12419223835286
 10
1536.0000468047924
 20
345.12419223835286
  0
LWPOLYLINE
  5
206
330
17
100
AcDbEntity
  8
0
100
AcDbPolyline
 90
4
 70
1
 10
1524.0000469836054
 20
108.00000367427447
 42
1.0157787888818275
 10
1571.9882842137754
 20
108.75131891378942
 10
1571.9882842137754
 20
345.1252354466046
 42
0.9809821123637654
 10
1524.0000466259783
 20
344.59625324410536
  0
TEXT
  5
207
330
17
100
AcDbEntity
  8
LABEL
100
AcDbText
 10
1548.000069938967
 20
143.25000686455587
 30
0.0
 40
12.0
  1
LinkF
 72
1
 11
1548.000069938967
 21
143.25000686455587
 31
0.0
100
AcDbText
 73
2
  0
CIRCLE
  5
208
330
17
100
AcDbEntity
  8
0
100
AcDbCircle
 10
1602.000093609584
 20
108.00000367427492
 30
-5.551115123125783e-16
 40
6.5
  0
LWPOLYLINE
  5
209
330
17
100
AcDbEntity
  8
0
100
AcDbPolyline
 90
3
 70
1
 10
1590.0000934307704
 20
344.53878737666173
 42
81.92927544653593
 10
1590.0211628433196
 20
345.12419223835286
 10
1590.0000934307704
 20
345.12419223835286
  0
LWPOLYLINE
  5
20A
330
17
100
AcDbEntity
  8
0
100
AcDbPolyline
 90
4
 70
1
 10
1578.0000936095835
 20
108.00000367427447
 42
1.0157787888818275
 10
1625.9883308397534
 20
108.75131891378942
 10
1625.9883308397534
 20
345.1252354466046
 42
0.9809821123637654
 10
1578.0000932519563
 20
344.59625324410536
  0
TEXT
  5
20B
330
17
100
AcDbEntity
  8
LABEL
100
AcDbText
 10
1602.000116564945
 20
143.25000686455587
 30
0.0
 40
12.0
  1
LinkF
 72
1
 11
1602.000116564945
 21
143.25000686455587
 31
0.0
100
AcDbText
 73
2
  0
CIRCLE
  5
20C
330
17
100
AcDbEntity
  8
0
100
AcDbCircle
 10
1656.000140235561
 20
108.00000367427492
 30
-5.551115123125783e-16
 40
6.5
  0
LWPOLYLINE
  5
20D
330
17
100
AcDbEntity
  8
0
100
AcDbPolyline
 90
3
 70
1
 10
1644.0001400567476
 20
344.53878737666173
 42
81.92927544653593
 10
1644.0212094692968
 20
345.12419223835286
 10
1644.0001400567476
 20
345.12419223835286
  0
LWPOLYLINE
  5
20E
330
17
100
AcDbEntity
  8
0
100
AcDbPolyline
 90
4
 70
1
 10
1632.0001402355606
 20
108.00000367427447
 42
1.0157787888818275
 10
1679.9883774657305
 20
108.75131891378942
 10
1679.9883774657305
 20
345.1252354466046
 42
0.9809821123637654
 10
1632.0001398779334
 20
344.59625324410536
  0
TEXT
  5
20F
330
17
100
AcDbEntity
  8
LABEL
100
AcDbText
 10
1656.0001631909222
 20
143.25000686455587
 30
0.0
 40
12.0
  1
LinkF
 72
1
 11
1656.0001631909222
 21
143.25000686455587
 31
0.0
100
AcDbText
 73
2
  0
CIRCLE
  5
210
330
17
100
AcDbEntity
  8
0
100
AcDbCircle
 10
1719.0000036742754
 20
947.40004626835
 30
-5.551115123125783e-16
 40
6.5
  0
LWPOLYLINE
  5
211
330
17
100
AcDbEntity
  8
0
100
AcDbPolyline
 90
3
 70
1
 10
1955.5387873766622
 20
959.4000464471637
 42
81.92927544653593
 10
1956.1241922383533
 20
959.3789770346144
 10
1956.1241922383533
 20
959.4000464471637
  0
LWPOLYLINE
  5
212
330
17
100
AcDbEntity
  8
0
100
AcDbPolyline
 90
4
 70
1
 10
1719.000003674275
 20
971.4000462683505
 42
1.0157787888818275
 10
1719.7513189137899
 20
923.4118090381805
 10
1956.125235446605
 20
923.4118090381805
 42
0.9809821123637654
 10
1955.5962532441058
 20
971.4000466259778
  0
TEXT
  5
213
330
17
100
AcDbEntity
  8
LABEL
100
AcDbText
 10
1754.2500068645563
 20
947.4000233129889
 30
0.0
 40
12.0
  1
LinkF
 72
1
 11
1754.2500068645563
 21
947.4000233129889
 31
0.0
100
AcDbText
 73
2
  0
CIRCLE
  5
214
330
17
100
AcDbEntity
  8
0
100
AcDbCircle
 10
1956.0000003576283
 20
645.6000036742748
 30
-5.551115123125783e-16
 40
6.5
  0
LWPOLYLINE
  5
215
330
17
100
AcDbEntity
  8
0
100
AcDbPolyline
 90
3
 70
1
 10
1944.0000001788148
 20
882.1387873766616
 42
81.92927544653593
 10
1944.021069591364
 20
882.7241922383528
 10
1944.0000001788148
 20
882.7241922383528
  0
LWPOLYLINE
  5
216
330
17
100
AcDbEntity
  8
0
100
AcDbPolyline
 90
4
 70
1
 10
1932.0000003576279
 20
645.6000036742744
 42
1.0157787888818275
 10
1979.9882375877978
 20
646.3513189137893
 10
1979.9882375877978
 20
882.7252354466045
 42
0.9809821123637654
 10
1932.0000000000007
 20
882.1962532441053
  0
TEXT
  5
217
330
17
100
AcDbEntity
  8
LABEL
100
AcDbText
 10
1956.0000233129895
 20
680.8500068645558
 30
0.0
 40
12.0
  1
LinkF
 72
1
 11
1956.0000233129895
 21
680.8500068645558
 31
0.0
100
AcDbText
 73
2
  0
CIRCLE
  5
218
330
17
100
AcDbEntity
  8
0
100
AcDbCircle
 10
2009.4000333074955
 20
936.0000366241425
 30
-5.551115123125783e-16
 40
6.5
  0
LWPOLYLINE
  5
219
330
17
100
AcDbEntity
  8
0
100
AcDbPolyline
 90
3
 70
1
 10
1997.400033128682
 20
1172.5388203265293
 42
81.92927544653593
 10
1997.4211025412312
 20
1173.1242251882204
 10
1997.400033128682
 20
1173.1242251882204
  0
LWPOLYLINE
  5
21A
330
17
100
AcDbEntity
  8
0
100
AcDbPolyline
 90
4
 70
1
 10
1985.400033307495
 20
936.000036624142
 42
1.0157787888818275
 10
2033.388270537665
 20
936.751351863657
 10
2033.388270537665
 20
1173.1252683964722
 42
0.9809821123637654
 10
1985.4000329498679
 20
1172.596286193973
  0
TEXT
  5
21B
330
17
100
AcDbEntity
  8
LABEL
100
AcDbText
 10
2009.4000562628567
 20
971.2500398144234
 30
0.0
 40
12.0
  1
LinkF
 72
1
 11
2009.4000562628567
 21
971.2500398144234
 31
0.0
100
AcDbText
 73
2
  0
CIRCLE
  5
21C
330
17
100
AcDbEntity
  8
0
100
AcDbCircle
 10
2010.000046983606
 20
645.6000036742748
 30
-5.551115123125783e-16
 40
6.5
  0
LWPOLYLINE
  5
21D
330
17
100
AcDbEntity
  8
0
100
AcDbPolyline
 90
3
 70
1
 10
1998.0000468047924
 20
882.1387873766616
 42
81.92927544653593
 10
1998.0211162173416
 20
882.7241922383528
 10
1998.0000468047924
 20
882.7241922383528
  0
LWPOLYLINE
  5
21E
330
17
100
AcDbEntity
  8
0
100
AcDbPolyline
 90
4
 70
1
 10
1986.0000469836054
 20
645.6000036742744
 42
1.0157787888818275
 10
2033.9882842137754
 20
646.3513189137893
 10
2033.9882842137754
 20
882.7252354466045
 42
0.9809821123637654
 10
1986.0000466259783
 20
882.1962532441053
  0
TEXT
  5
21F
330
17
100
AcDbEntity
  8
LABEL
100
AcDbText
 10
2010.000069938967
 20
680.8500068645558
 30
0.0
 40
12.0
  1
LinkF
 72
1
 11
2010.000069938967
 21
680.8500068645558
 31
0.0
100
AcDbText
 73
2
  0
CIRCLE
  5
220
330
17
100
AcDbEntity
  8
0
100
AcDbCircle
 10
2063.4000799334735
 20
936.0000366241425
 30
-5.551115123125783e-16
 40
6.5
  0
LWPOLYLINE
  5
221
330
17
100
AcDbEntity
  8
0
100
AcDbPolyline
 90
3
 70
1
 10
2051.40007975466
 20
1172.5388203265293
 42
81.92927544653593
 10
2051.4211491672095
 20
1173.1242251882204
 10
2051.40007975466
 20
1173.1242251882204
  0
LWPOLYLINE
  5
222
330
17
100
AcDbEntity
  8
0
100
AcDbPolyline
 90
4
 70
1
 10
2039.400079933473
 20
936.000036624142
 42
1.0157787888818275
 10
2087.388317163643
 20
936.751351863657
 10
2087.388317163643
 20
1173.1252683964722
 42
0.9809821123637654
 10
2039.400079575846
 20
1172.596286193973
  0
TEXT
  5
223
330
17
100
AcDbEntity
  8
LABEL
100
AcDbText
 10
2063.4001028888347
 20
971.2500398144234
 30
0.0
 40
12.0
  1
LinkF
 72
1
 11
2063.4001028888347
 21
971.2500398144234
 31
0.0
100
AcDbText
 73
2
  0
CIRCLE
  5
224
330
17
100
AcDbEntity
  8
0
100
AcDbCircle
 10
2064.000093609584
 20
645.6000036742748
 30
-5.551115123125783e-16
 40
6.5
  0
LWPOLYLINE
  5
225
330
17
100
AcDbEntity
  8
0
100
AcDbPolyline
 90
3
 70
1
 10
2052.0000934307704
 20
882.1387873766616
 42
81.92927544653593
 10
2052.02116284332
 20
882.7241922383528
 10
2052.0000934307704
 20
882.7241922383528
  0
LWPOLYLINE
  5
226
330
17
100
AcDbEntity
  8
0
100
AcDbPolyline
 90
4
 70
1
 10
2040.0000936095835
 20
645.6000036742744
 42
1.0157787888818275
 10
2087.9883308397534
 20
646.3513189137893
 10
2087.9883308397534
 20
882.7252354466045
 42
0.9809821123637654
 10
2040.0000932519563
 20
882.1962532441053
  0
TEXT
  5
227
330
17
100
AcDbEntity
  8
LABEL
100
AcDbText
 10
2064.000116564945
 20
680.8500068645558
 30
0.0
 40
12.0
  1
LinkF
 72
1
 11
2064.000116564945
 21
680.8500068645558
 31
0.0
100
AcDbText
 73
2
  0
CIRCLE
  5
228
330
17
100
AcDbEntity
  8
0
100
AcDbCircle
 10
2117.4001265594507
 20
936.0000366241425
 30
-5.551115123125783e-16
 40
6.5
  0
LWPOLYLINE
  5
229
330
17
100
AcDbEntity
  8
0
100
AcDbPolyline
 90
3
 70
1
 10
2105.400126380637
 20
1172.5388203265293
 42
81.92927544653593
 10
2105.4211957931866
 20
1173.1242251882204
 10
2105.400126380637
 20
1173.1242251882204
  0
LWPOLYLINE
  5
22A
330
17
100
AcDbEntity
  8
0
100
AcDbPolyline
 90
4
 70
1
 10
2093.40012655945
 20
936.000036624142
 42
1.0157787888818275
 10
2141.38836378962
 20
936.751351863657
 10
2141.38836378962
 20
1173.1252683964722
 42
0.9809821123637654
 10
2093.400126201823
 20
1172.596286193973
  0
TEXT
  5
22B
330
17
100
AcDbEntity
  8
LABEL
100
AcDbText
 10
2117.400149514812
 20
971.2500398144234
 30
0.0
 40
12.0
  1
LinkF
 72
1
 11
2117.400149514812
 21
971.2500398144234
 31
0.0
100
AcDbText
 73
2
  0
CIRCLE
  5
22C
330
17
100
AcDbEntity
  8
0
100
AcDbCircle
 10
2118.000140235561
 20
645.6000036742748
 30
-5.551115123125783e-16
 40
6.5
  0
LWPOLYLINE
  5
22D
330
17
100
AcDbEntity
  8
0
100
AcDbPolyline
 90
3
 70
1
 10
2106.0001400567476
 20
882.1387873766616
 42
81.92927544653593
 10
2106.021209469297
 20
882.7241922383528
 10
2106.0001400567476
 20
882.7241922383528
  0
LWPOLYLINE
  5
22E
330
17
100
AcDbEntity
  8
0
100
AcDbPolyline
 90
4
 70
1
 10
2094.0001402355606
 20
645.6000036742744
 42
1.0157787888818275
 10
2141.9883774657305
 20
646.3513189137893
 10
2141.9883774657305
 20
882.7252354466045
 42
0.9809821123637654
 10
2094.000139877933
 20
882.1962532441053
  0
TEXT
  5
22F
330
17
100
AcDbEntity
  8
LABEL
100
AcDbText
 10
2118.000163190922
 20
680.8500068645558
 30
0.0
 40
12.0
  1
LinkF
 72
1
 11
2118.000163190922
 21
680.8500068645558
 31
0.0
100
AcDbText
 73
2
  0
CIRCLE
  5
230
330
17
100
AcDbEntity
  8
0
100
AcDbCircle
 10
2172.000186861539
 20
636.0000036742749
 30
-5.551115123125783e-16
 40
6.5
  0
LWPOLYLINE
  5
231
330
17
100
AcDbEntity
  8
0
100
AcDbPolyline
 90
3
 70
1
 10
2160.0001866827256
 20
872.5387873766617
 42
81.92927544653593
 10
2160.021256095275
 20
873.1241922383529
 10
2160.0001866827256
 20
873.1241922383529
  0
LWPOLYLINE
  5
232
330
17
100
AcDbEntity
  8
0
100
AcDbPolyline
 90
4
 70
1
 10
2148.0001868615386
 20
636.0000036742745
 42
1.0157787888818275
 10
2195.9884240917086
 20
636.7513189137894
 10
2195.9884240917086
 20
873.1252354466046
 42
0.9809821123637654
 10
2148.000186503911
 20
872.5962532441054
  0
TEXT
  5
233
330
17
100
AcDbEntity
  8
LABEL
100
AcDbText
 10
2172.0002098169
 20
671.2500068645559
 30
0.0
 40
12.0
  1
LinkF
 72
1
 11
2172.0002098169
 21
671.2500068645559
 31
0.0
100
AcDbText
 73
2
  0
CIRCLE
  5
234
330
17
100
AcDbEntity
  8
0
100
AcDbCircle
 10
2171.4001731854287
 20
936.0000366241425
 30
-5.551115123125783e-16
 40
6.5
  0
LWPOLYLINE
  5
235
330
17
100
AcDbEntity
  8
0
100
AcDbPolyline
 90
3
 70
1
 10
2159.400173006615
 20
1172.5388203265293
 42
81.92927544653593
 10
2159.4212424191646
 20
1173.1242251882204
 10
2159.400173006615
 20
1173.1242251882204
  0
LWPOLYLINE
  5
236
330
17
100
AcDbEntity
  8
0
100
AcDbPolyline
 90
4
 70
1
 10
2147.4001731854282
 20
936.000036624142
 42
1.0157787888818275
 10
2195.388410415598
 20
936.751351863657
 10
2195.388410415598
 20
1173.1252683964722
 42
0.9809821123637654
 10
2147.400172827801
 20
1172.596286193973
  0
TEXT
  5
237
330
17
100
AcDbEntity
  8
LABEL
100
AcDbText
 10
2171.40019614079
 20
971.2500398144234
 30
0.0
 40
12.0
  1
LinkF
 72
1
 11
2171.40019614079
 21
971.2500398144234
 31
0.0
100
AcDbText
 73
2
  0
CIRCLE
  5
238
330
17
100
AcDbEntity
  8
0
100
AcDbCircle
 10
2225.400219811406
 20
926.4000366241426
 30
-5.551115123125783e-16
 40
6.5
  0
LWPOLYLINE
  5
239
330
17
100
AcDbEntity
  8
0
100
AcDbPolyline
 90
3
 70
1
 10
2213.4002196325923
 20
1162.9388203265294
 42
81.92927544653593
 10
2213.4212890451417
 20
1163.5242251882205
 10
2213.4002196325923
 20
1163.5242251882205
  0
LWPOLYLINE
  5
23A
330
17
100
AcDbEntity
  8
0
100
AcDbPolyline
 90
4
 70
1
 10
2201.4002198114053
 20
926.4000366241421
 42
1.0157787888818275
 10
2249.3884570415753
 20
927.151351863657
 10
2249.3884570415753
 20
1163.5252683964723
 42
0.9809821123637654
 10
2201.400219453778
 20
1162.996286193973
  0
TEXT
  5
23B
330
17
100
AcDbEntity
  8
LABEL
100
AcDbText
 10
2225.400242766767
 20
961.6500398144235
 30
0.0
 40
12.0
  1
LinkF
 72
1
 11
2225.400242766767
 21
961.6500398144235
 31
0.0
100
AcDbText
 73
2
  0
CIRCLE
  5
23C
330
17
100
AcDbEntity
  8
0
100
AcDbCircle
 10
2295.6000003576282
 20
343.8000036742751
 30
-5.551115123125783e-16
 40
6.5
  0
LWPOLYLINE
  5
23D
330
17
100
AcDbEntity
  8
0
100
AcDbPolyline
 90
3
 70
1
 10
2283.6000001788148
 20
580.3387873766619
 42
81.92927544653593
 10
2283.621069591364
 20
580.924192238353
 10
2283.6000001788148
 20
580.924192238353
  0
LWPOLYLINE
  5
23E
330
17
100
AcDbEntity
  8
0
100
AcDbPolyline
 90
4
 70
1
 10
2271.600000357628
 20
343.80000367427465
 42
1.0157787888818275
 10
2319.5882375877977
 20
344.5513189137896
 10
2319.5882375877977
 20
580.9252354466048
 42
0.9809821123637654
 10
2271.6000000000004
 20
580.3962532441055
  0
TEXT
  5
23F
330
17
100
AcDbEntity
  8
LABEL
100
AcDbText
 10
2295.6000233129894
 20
379.05000686455605
 30
0.0
 40
12.0
  1
LinkF
 72
1
 11
2295.6000233129894
 21
379.05000686455605
 31
0.0
100
AcDbText
 73
2
  0
CIRCLE
  5
240
330
17
100
AcDbEntity
  8
0
100
AcDbCircle
 10
2349.6000469836054
 20
622.8000695740102
 30
-5.551115123125783e-16
 40
6.5
  0
LWPOLYLINE
  5
241
330
17
100
AcDbEntity
  8
0
100
AcDbPolyline
 90
3
 70
1
 10
2337.600046804792
 20
859.338853276397
 42
81.92927544653593
 10
2337.6211162173413
 20
859.9242581380881
 10
2337.600046804792
 20
859.9242581380881
  0
LWPOLYLINE
  5
242
330
17
100
AcDbEntity
  8
0
100
AcDbPolyline
 90
4
 70
1
 10
2325.600046983605
 20
622.8000695740097
 42
1.0157787888818275
 10
2373.588284213775
 20
623.5513848135247
 10
2373.588284213775
 20
859.9253013463399
 42
0.9809821123637654
 10
2325.6000466259775
 20
859.3963191438406
  0
TEXT
  5
243
330
17
100
AcDbEntity
  8
LABEL
100
AcDbText
 10
2349.6000699389665
 20
658.0500727642911
 30
0.0
 40
12.0
  1
LinkF
 72
1
 11
2349.6000699389665
 21
658.0500727642911
 31
0.0
100
AcDbText
 73
2
  0
CIRCLE
  5
244
330
17
100
AcDbEntity
  8
0
100
AcDbCircle
 10
2279.400266437384
 20
645.6000036742748
 30
-5.551115123125783e-16
 40
6.5
  0
LWPOLYLINE
  5
245
330
17
100
AcDbEntity
  8
0
100
AcDbPolyline
 90
3
 70
1
 10
2267.4002662585704
 20
882.1387873766616
 42
81.92927544653593
 10
2267.42133567112
 20
882.7241922383528
 10
2267.4002662585704
 20
882.7241922383528
  0
LWPOLYLINE
  5
246
330
17
100
AcDbEntity
  8
0
100
AcDbPolyline
 90
4
 70
1
 10
2255.4002664373834
 20
645.6000036742744
 42
1.0157787888818275
 10
2303.3885036675533
 20
646.3513189137893
 10
2303.3885036675533
 20
882.7252354466045
 42
0.9809821123637654
 10
2255.400266079756
 20
882.1962532441053
  0
TEXT
  5
247
330
17
100
AcDbEntity
  8
LABEL
100
AcDbText
 10
2279.400289392745
 20
680.8500068645558
 30
0.0
 40
12.0
  1
LinkF
 72
1
 11
2279.400289392745
 21
680.8500068645558
 31
0.0
100
AcDbText
 73
2
  0
CIRCLE
  5
248
330
17
100
AcDbEntity
  8
0
100
AcDbCircle
 10
2279.400266437384
 20
936.0000366241425
 30
-5.551115123125783e-16
 40
6.5
  0
LWPOLYLINE
  5
249
330
17
100
AcDbEntity
  8
0
100
AcDbPolyline
 90
3
 70
1
 10
2267.4002662585704
 20
1172.5388203265293
 42
81.92927544653593
 10
2267.42133567112
 20
1173.1242251882204
 10
2267.4002662585704
 20
1173.1242251882204
  0
LWPOLYLINE
  5
24A
330
17
100
AcDbEntity
  8
0
100
AcDbPolyline
 90
4
 70
1
 10
2255.4002664373834
 20
936.000036624142
 42
1.0157787888818275
 10
2303.3885036675533
 20
936.751351863657
 10
2303.3885036675533
 20
1173.1252683964722
 42
0.9809821123637654
 10
2255.400266079756
 20
1172.596286193973
  0
TEXT
  5
24B
330
17
100
AcDbEntity
  8
LABEL
100
AcDbText
 10
2279.400289392745
 20
971.2500398144234
 30
0.0
 40
12.0
  1
LinkF
 72
1
 11
2279.400289392745
 21
971.2500398144234
 31
0.0
100
AcDbText
 73
2
  0
CIRCLE
  5
24C
330
17
100
AcDbEntity
  8
0
100
AcDbCircle
 10
2333.400313063361
 20
913.2001025238778
 30
-5.551115123125783e-16
 40
6.5
  0
LWPOLYLINE
  5
24D
330
17
100
AcDbEntity
  8
0
100
AcDbPolyline
 90
3
 70
1
 10
2321.4003128845475
 20
1149.7388862262646
 42
81.92927544653593
 10
2321.421382297097
 20
1150.3242910879558
 10
2321.4003128845475
 20
1150.3242910879558
  0
LWPOLYLINE
  5
24E
330
17
100
AcDbEntity
  8
0
100
AcDbPolyline
 90
4
 70
1
 10
2309.4003130633605
 20
913.2001025238774
 42
1.0157787888818275
 10
2357.3885502935304
 20
913.9514177633923
 10
2357.3885502935304
 20
1150.3253342962075
 42
0.9809821123637654
 10
2309.400312705733
 20
1149.7963520937083
  0
TEXT
  5
24F
330
17
100
AcDbEntity
  8
LABEL
100
AcDbText
 10
2333.400336018722
 20
948.4501057141588
 30
0.0
 40
12.0
  1
LinkF
 72
1
 11
2333.400336018722
 21
948.4501057141588
 31
0.0
100
AcDbText
 73
2
  0
CIRCLE
  5
250
330
17
100
AcDbEntity
  8
0
100
AcDbCircle
 10
2387.400359689339
 20
913.2001025238778
 30
-5.551115123125783e-16
 40
6.5
  0
LWPOLYLINE
  5
251
330
17
100
AcDbEntity
  8
0
100
AcDbPolyline
 90
3
 70
1
 10
2375.4003595105255
 20
1149.7388862262646
 42
81.92927544653593
 10
2375.421428923075
 20
1150.3242910879558
 10
2375.4003595105255
 20
1150.3242910879558
  0
LWPOLYLINE
  5
252
330
17
100
AcDbEntity
  8
0
100
AcDbPolyline
 90
4
 70
1
 10
2363.4003596893385
 20
913.2001025238774
 42
1.0157787888818275
 10
2411.3885969195085
 20
913.9514177633923
 10
2411.3885969195085
 20
1150.3253342962075
 42
0.9809821123637654
 10
2363.400359331711
 20
1149.7963520937083
  0
TEXT
  5
253
330
17
100
AcDbEntity
  8
LABEL
100
AcDbText
 10
2387.4003826447
 20
948.4501057141588
 30
0.0
 40
12.0
  1
LinkF
 72
1
 11
2387.4003826447
 21
948.4501057141588
 31
0.0
100
AcDbText
 73
2
  0
ENDSEC
  0
SECTION
  2
OBJECTS
  0
DICTIONARY
  5
A
330
0
100
AcDbDictionary
281
1
  3
ACAD_COLOR
350
B
  3
ACAD_GROUP
350
C
  3
ACAD_LAYOUT
350
D
  3
ACAD_MATERIAL
350
E
  3
ACAD_MLEADERSTYLE
350
F
  3
ACAD_MLINESTYLE
350
10
  3
ACAD_PLOTSETTINGS
350
11
  3
ACAD_PLOTSTYLENAME
350
12
  3
ACAD_SCALELIST
350
14
  3
ACAD_TABLESTYLE
350
15
  3
ACAD_VISUALSTYLE
350
16
  3
EZDXF_META
350
2D
  0
DICTIONARY
  5
B
330
A
100
AcDbDictionary
281
1
  0
DICTIONARY
  5
C
330
A
100
AcDbDictionary
281
1
  0
DICTIONARY
  5
D
330
A
100
AcDbDictionary
281
1
  3
Model
350
1A
  3
Layout1
350
1E
  0
DICTIONARY
  5
E
330
A
100
AcDbDictionary
281
1
  3
ByBlock
350
1F
  3
ByLayer
350
20
  3
Global
350
21
  0
DICTIONARY
  5
F
330
A
100
AcDbDictionary
281
1
  3
Standard
350
2C
  0
DICTIONARY
  5
10
330
A
100
AcDbDictionary
281
1
  3
Standard
350
22
  0
DICTIONARY
  5
11
330
A
100
AcDbDictionary
281
1
  0
ACDBDICTIONARYWDFLT
  5
12
330
A
100
AcDbDictionary
281
1
  3
Normal
350
13
100
AcDbDictionaryWithDefault
340
13
  0
ACDBPLACEHOLDER
  5
13
330
12
  0
DICTIONARY
  5
14
330
A
100
AcDbDictionary
281
1
  0
DICTIONARY
  5
15
330
A
100
AcDbDictionary
281
1
  0
DICTIONARY
  5
16
330
A
100
AcDbDictionary
281
1
  0
LAYOUT
  5
1A
330
D
100
AcDbPlotSettings
  1

  4
A3
  6

 40
7.5
 41
20.0
 42
7.5
 43
20.0
 44
420.0
 45
297.0
 46
0.0
 47
0.0
 48
0.0
 49
0.0
140
0.0
141
0.0
142
1.0
143
1.0
 70
1024
 72
1
 73
0
 74
5
  7

 75
16
 76
0
 77
2
 78
300
147
1.0
148
0.0
149
0.0
100
AcDbLayout
  1
Model
 70
1
 71
0
 10
0.0
 20
0.0
 11
420.0
 21
297.0
 12
0.0
 22
0.0
 32
0.0
 14
1e+20
 24
1e+20
 34
1e+20
 15
-1e+20
 25
-1e+20
 35
-1e+20
146
0.0
 13
0.0
 23
0.0
 33
0.0
 16
1.0
 26
0.0
 36
0.0
 17
0.0
 27
1.0
 37
0.0
 76
1
330
17
  0
LAYOUT
  5
1E
330
D
100
AcDbPlotSettings
  1

  4
A3
  6

 40
7.5
 41
20.0
 42
7.5
 43
20.0
 44
420.0
 45
297.0
 46
0.0
 47
0.0
 48
0.0
 49
0.0
140
0.0
141
0.0
142
1.0
143
1.0
 70
0
 72
1
 73
0
 74
5
  7

 75
16
 76
0
 77
2
 78
300
147
1.0
148
0.0
149
0.0
100
AcDbLayout
  1
Layout1
 70
1
 71
1
 10
0.0
 20
0.0
 11
420.0
 21
297.0
 12
0.0
 22
0.0
 32
0.0
 14
1e+20
 24
1e+20
 34
1e+20
 15
-1e+20
 25
-1e+20
 35
-1e+20
146
0.0
 13
0.0
 23
0.0
 33
0.0
 16
1.0
 26
0.0
 36
0.0
 17
0.0
 27
1.0
 37
0.0
 76
1
330
1B
  0
MATERIAL
  5
1F
102
{ACAD_REACTORS
330
E
102
}
330
E
100
AcDbMaterial
  1
ByBlock
  2

 70
0
 40
1.0
 71
1
 41
1.0
 91
-1023410177
 42
1.0
 72
1
  3

 73
1
 74
1
 75
1
 44
0.5
 73
0
 45
1.0
 46
1.0
 77
1
  4

 78
1
 79
1
170
1
 48
1.0
171
1
  6

172
1
173
1
174
1
140
1.0
141
1.0
175
1
  7

176
1
177
1
178
1
143
1.0
179
1
  8

270
1
271
1
272
1
145
1.0
146
1.0
273
1
  9

274
1
275
1
276
1
 42
1.0
 72
1
  3

 73
1
 74
1
 75
1
 94
63
  0
MATERIAL
  5
20
102
{ACAD_REACTORS
330
E
102
}
330
E
100
AcDbMaterial
  1
ByLayer
  2

 70
0
 40
1.0
 71
1
 41
1.0
 91
-1023410177
 42
1.0
 72
1
  3

 73
1
 74
1
 75
1
 44
0.5
 73
0
 45
1.0
 46
1.0
 77
1
  4

 78
1
 79
1
170
1
 48
1.0
171
1
  6

172
1
173
1
174
1
140
1.0
141
1.0
175
1
  7

176
1
177
1
178
1
143
1.0
179
1
  8

270
1
271
1
272
1
145
1.0
146
1.0
273
1
  9

274
1
275
1
276
1
 42
1.0
 72
1
  3

 73
1
 74
1
 75
1
 94
63
  0
MATERIAL
  5
21
102
{ACAD_REACTORS
330
E
102
}
330
E
100
AcDbMaterial
  1
Global
  2

 70
0
 40
1.0
 71
1
 41
1.0
 91
-1023410177
 42
1.0
 72
1
  3

 73
1
 74
1
 75
1
 44
0.5
 73
0
 45
1.0
 46
1.0
 77
1
  4

 78
1
 79
1
170
1
 48
1.0
171
1
  6

172
1
173
1
174
1
140
1.0
141
1.0
175
1
  7

176
1
177
1
178
1
143
1.0
179
1
  8

270
1
271
1
272
1
145
1.0
146
1.0
273
1
  9

274
1
275
1
276
1
 42
1.0
 72
1
  3

 73
1
 74
1
 75
1
 94
63
  0
MLINESTYLE
  5
22
102
{ACAD_REACTORS
330
10
102
}
330
10
100
AcDbMlineStyle
  2
Standard
 70
0
  3

 62
256
 51
90.0
 52
90.0
 71
2
 49
0.5
 62
256
  6
BYLAYER
 49
-0.5
 62
256
  6
BYLAYER
  0
MLEADERSTYLE
  5
2C
102
{ACAD_REACTORS
330
F
102
}
330
F
100
AcDbMLeaderStyle
179
2
170
2
171
1
172
0
 90
2
 40
0.0
 41
0.0
173
1
 91
-1056964608
 92
-2
290
1
 42
2.0
291
1
 43
8.0
  3
Standard
 44
4.0
300

342
29
174
1
175
1
176
0
178
1
 93
-1056964608
 45
4.0
292
0
297
0
 46
4.0
 94
-1056964608
 47
1.0
 49
1.0
140
1.0
294
1
141
0.0
177
0
142
1.0
295
0
296
0
143
3.75
271
0
272
9
273
9
  0
DICTIONARY
  5
2D
330
A
100
AcDbDictionary
280
1
281
1
  3
CREATED_BY_EZDXF
350
2E
  3
WRITTEN_BY_EZDXF
350
256
  0
DICTIONARYVAR
  5
2E
330
2D
100
DictionaryVariables
280
0
  1
1.4.4 @ 2026-08-05T17:24:22.460863+00:00
  0
DICTIONARYVAR
  5
256
330
2D
100
DictionaryVariables
280
0
  1
1.4.4 @ 2026-08-05T17:24:23.842901+00:00
  0
ENDSEC
  0
EOF
