  0
SECTION
  2
HEADER
  9
$ACADVER
  1
AC1018
  9
$ACADMAINTVER
 70
0
  9
$DWGCODEPAGE
  3
ANSI_1252
  9
$LASTSAVEDBY
  1
ezdxf
  9
$INSBASE
 10
0.0
 20
0.0
 30
0.0
  9
$EXTMIN
 10
1e+20
 20
1e+20
 30
1e+20
  9
$EXTMAX
 10
-1e+20
 20
-1e+20
 30
-1e+20
  9
$LIMMIN
 10
0.0
 20
0.0
  9
$LIMMAX
 10
420.0
 20
297.0
  9
$ORTHOMODE
 70
0
  9
$REGENMODE
 70
1
  9
$FILLMODE
 70
1
  9
$QTEXTMODE
 70
0
  9
$MIRRTEXT
 70
1
  9
$LTSCALE
 40
1.0
  9
$ATTMODE
 70
1
  9
$TEXTSIZE
 40
2.5
  9
$TRACEWID
 40
1.0
  9
$TEXTSTYLE
  7
Standard
  9
$CLAYER
  8
0
  9
$CELTYPE
  6
ByLayer
  9
$CECOLOR
 62
256
  9
$CELTSCALE
 40
1.0
  9
$DISPSILH
 70
0
  9
$DIMSCALE
 40
1.0
  9
$DIMASZ
 40
2.5
  9
$DIMEXO
 40
0.625
  9
$DIMDLI
 40
3.75
  9
$DIMRND
 40
0.0
  9
$DIMDLE
 40
0.0
  9
$DIMEXE
 40
1.25
  9
$DIMTP
 40
0.0
  9
$DIMTM
 40
0.0
  9
$DIMTXT
 40
2.5
  9
$DIMCEN
 40
2.5
  9
$DIMTSZ
 40
0.0
  9
$DIMTOL
 70
0
  9
$DIMLIM
 70
0
  9
$DIMTIH
 70
0
  9
$DIMTOH
 70
0
  9
$DIMSE1
 70
0
  9
$DIMSE2
 70
0
  9
$DIMTAD
 70
1
  9
$DIMZIN
 70
8
  9
$DIMBLK
  1

  9
$DIMASO
 70
1
  9
$DIMSHO
 70
1
  9
$DIMPOST
  1

  9
$DIMAPOST
  1

  9
$DIMALT
 70
0
  9
$DIMALTD
 70
3
  9
$DIMALTF
 40
0.03937007874
  9
$DIMLFAC
 40
1.0
  9
$DIMTOFL
 70
1
  9
$DIMTVP
 40
0.0
  9
$DIMTIX
 70
0
  9
$DIMSOXD
 70
0
  9
$DIMSAH
 70
0
  9
$DIMBLK1
  1

  9
$DIMBLK2
  1

  9
$DIMSTYLE
  2
ISO-25
  9
$DIMCLRD
 70
0
  9
$DIMCLRE
 70
0
  9
$DIMCLRT
 70
0
  9
$DIMTFAC
 40
1.0
  9
$DIMGAP
 40
0.625
  9
$DIMJUST
 70
0
  9
$DIMSD1
 70
0
  9
$DIMSD2
 70
0
  9
$DIMTOLJ
 70
0
  9
$DIMTZIN
 70
8
  9
$DIMALTZ
 70
0
  9
$DIMALTTZ
 70
0
  9
$DIMUPT
 70
0
  9
$DIMDEC
 70
2
  9
$DIMTDEC
 70
2
  9
$DIMALTU
 70
2
  9
$DIMALTTD
 70
3
  9
$DIMTXSTY
  7
Standard
  9
$DIMAUNIT
 70
0
  9
$DIMADEC
 70
0
  9
$DIMALTRND
 40
0.0
  9
$DIMAZIN
 70
0
  9
$DIMDSEP
 70
44
  9
$DIMATFIT
 70
3
  9
$DIMFRAC
 70
0
  9
$DIMLDRBLK
  1

  9
$DIMLUNIT
 70
2
  9
$DIMLWD
 70
-2
  9
$DIMLWE
 70
-2
  9
$DIMTMOVE
 70
0
  9
$LUNITS
 70
2
  9
$LUPREC
 70
4
  9
$SKETCHINC
 40
1.0
  9
$FILLETRAD
 40
10.0
  9
$AUNITS
 70
0
  9
$AUPREC
 70
2
  9
$MENU
  1
.
  9
$ELEVATION
 40
0.0
  9
$PELEVATION
 40
0.0
  9
$THICKNESS
 40
0.0
  9
$LIMCHECK
 70
0
  9
$CHAMFERA
 40
0.0
  9
$CHAMFERB
 40
0.0
  9
$CHAMFERC
 40
0.0
  9
$CHAMFERD
 40
0.0
  9
$SKPOLY
 70
0
  9
$TDCREATE
 40
2461260.9895949075
  9
$TDUCREATE
 40
2458532.153996898
  9
$TDUPDATE
 40
2461260.9895949075
  9
$TDUUPDATE
 40
2458532.1544311
  9
$TDINDWG
 40
0.0
  9
$TDUSRTIMER
 40
0.0
  9
$USRTIMER
 70
1
  9
$ANGBASE
 50
0.0
  9
$ANGDIR
 70
0
  9
$PDMODE
 70
0
  9
$PDSIZE
 40
0.0
  9
$PLINEWID
 40
0.0
  9
$SPLFRAME
 70
0
  9
$SPLINETYPE
 70
6
  9
$SPLINESEGS
 70
8
  9
$HANDSEED
  5
88
  9
$SURFTAB1
 70
6
  9
$SURFTAB2
 70
6
  9
$SURFTYPE
 70
6
  9
$SURFU
 70
6
  9
$SURFV
 70
6
  9
$UCSBASE
  2

  9
$UCSNAME
  2

  9
$UCSORG
 10
0.0
 20
0.0
 30
0.0
  9
$UCSXDIR
 10
1.0
 20
0.0
 30
0.0
  9
$UCSYDIR
 10
0.0
 20
1.0
 30
0.0
  9
$UCSORTHOREF
  2

  9
$UCSORTHOVIEW
 70
0
  9
$UCSORGTOP
 10
0.0
 20
0.0
 30
0.0
  9
$UCSORGBOTTOM
 10
0.0
 20
0.0
 30
0.0
  9
$UCSORGLEFT
 10
0.0
 20
0.0
 30
0.0
  9
$UCSORGRIGHT
 10
0.0
 20
0.0
 30
0.0
  9
$UCSORGFRONT
 10
0.0
 20
0.0
 30
0.0
  9
$UCSORGBACK
 10
0.0
 20
0.0
 30
0.0
  9
$PUCSBASE
  2

  9
$PUCSNAME
  2

  9
$PUCSORG
 10
0.0
 20
0.0
 30
0.0
  9
$PUCSXDIR
 10
1.0
 20
0.0
 30
0.0
  9
$PUCSYDIR
 10
0.0
 20
1.0
 30
0.0
  9
$PUCSORTHOREF
  2

  9
$PUCSORTHOVIEW
 70
0
  9
$PUCSORGTOP
 10
0.0
 20
0.0
 30
0.0
  9
$PUCSORGBOTTOM
 10
0.0
 20
0.0
 30
0.0
  9
$PUCSORGLEFT
 10
0.0
 20
0.0
 30
0.0
  9
$PUCSORGRIGHT
 10
0.0
 20
0.0
 30
0.0
  9
$PUCSORGFRONT
 10
0.0
 20
0.0
 30
0.0
  9
$PUCSORGBACK
 10
0.0
 20
0.0
 30
0.0
  9
$USERI1
 70
0
  9
$USERI2
 70
0
  9
$USERI3
 70
0
  9
$USERI4
 70
0
  9
$USERI5
 70
0
  9
$USERR1
 40
0.0
  9
$USERR2
 40
0.0
  9
$USERR3
 40
0.0
  9
$USERR4
 40
0.0
  9
$USERR5
 40
0.0
  9
$WORLDVIEW
 70
1
  9
$SHADEDGE
 70
3
  9
$SHADEDIF
 70
70
  9
$TILEMODE
 70
1
  9
$MAXACTVP
 70
64
  9
$PINSBASE
 10
0.0
 20
0.0
 30
0.0
  9
$PLIMCHECK
 70
0
  9
$PEXTMIN
 10
1e+20
 20
1e+20
 30
1e+20
  9
$PEXTMAX
 10
-1e+20
 20
-1e+20
 30
-1e+20
  9
$PLIMMIN
 10
0.0
 20
0.0
  9
$PLIMMAX
 10
420.0
 20
297.0
  9
$UNITMODE
 70
0
  9
$VISRETAIN
 70
1
  9
$PLINEGEN
 70
0
  9
$PSLTSCALE
 70
1
  9
$TREEDEPTH
 70
3020
  9
$CMLSTYLE
  2
Standard
  9
$CMLJUST
 70
0
  9
$CMLSCALE
 40
20.0
  9
$PROXYGRAPHICS
 70
1
  9
$MEASUREMENT
 70
1
  9
$CELWEIGHT
370
-1
  9
$ENDCAPS
280
0
  9
$JOINSTYLE
280
0
  9
$LWDISPLAY
290
0
  9
$INSUNITS
 70
4
  9
$HYPERLINKBASE
  1

  9
$STYLESHEET
  1

  9
$XEDIT
290
1
  9
$CEPSNTYPE
380
0
  9
$PSTYLEMODE
290
1
  9
$FINGERPRINTGUID
  2
{52E89294-E576-481C-AF9D-FB2EB58C83D4}
  9
$VERSIONGUID
  2
{B8A97C79-4B97-49D8-839A-36A69F020045}
  9
$EXTNAMES
290
1
  9
$PSVPSCALE
 40
0.0
  9
$OLESTARTUP
290
0
  9
$SORTENTS
280
127
  9
$INDEXCTL
280
0
  9
$HIDETEXT
280
1
  9
$XCLIPFRAME
290
1
  9
$HALOGAP
280
0
  9
$OBSCOLOR
 70
257
  9
$OBSLTYPE
280
0
  9
$INTERSECTIONDISPLAY
280
0
  9
$INTERSECTIONCOLOR
 70
257
  9
$DIMASSOC
280
2
  9
$PROJECTNAME
  1

  0
ENDSEC
  0
SECTION
  2
CLASSES
  0
CLASS
  1
ACDBDICTIONARYWDFLT
  2
AcDbDictionaryWithDefault
  3
ObjectDBX Classes
 90
0
 91
0
280
0
281
0
  0
CLASS
  1
SUN
  2
AcDbSun
  3
SCENEOE
 90
1153
 91
0
280
0
281
0
  0
CLASS
  1
VISUALSTYLE
  2
AcDbVisualStyle
  3
ObjectDBX Classes
 90
4095
 91
0
280
0
281
0
  0
CLASS
  1
MATERIAL
  2
AcDbMaterial
  3
ObjectDBX Classes
 90
1153
 91
0
280
0
281
0
  0
CLASS
  1
SCALE
  2
AcDbScale
  3
ObjectDBX Classes
 90
1153
 91
0
280
0
281
0
  0
CLASS
  1
TABLESTYLE
  2
AcDbTableStyle
  3
ObjectDBX Classes
 90
4095
 91
0
280
0
281
0
  0
CLASS
  1
MLEADERSTYLE
  2
AcDbMLeaderStyle
  3
ACDB_MLEADERSTYLE_CLASS
 90
4095
 91
0
280
0
281
0
  0
CLASS
  1
DICTIONARYVAR
  2
AcDbDictionaryVar
  3
ObjectDBX Classes
 90
0
 91
0
280
0
281
0
  0
CLASS
  1
CELLSTYLEMAP
  2
AcDbCellStyleMap
  3
ObjectDBX Classes
 90
1152
 91
0
280
0
281
0
  0
CLASS
  1
MENTALRAYRENDERSETTINGS
  2
AcDbMentalRayRenderSettings
  3
SCENEOE
 90
1024
 91
0
280
0
281
0
  0
CLASS
  1
ACDBDETAILVIEWSTYLE
  2
AcDbDetailViewStyle
  3
ObjectDBX Classes
 90
1025
 91
0
280
0
281
0
  0
CLASS
  1
ACDBSECTIONVIEWSTYLE
  2
AcDbSectionViewStyle
  3
ObjectDBX Classes
 90
1025
 91
0
280
0
281
0
  0
CLASS
  1
RASTERVARIABLES
  2
AcDbRasterVariables
  3
ISM
 90
0
 91
0
280
0
281
0
  0
CLASS
  1
ACDBPLACEHOLDER
  2
AcDbPlaceHolder
  3
ObjectDBX Classes
 90
0
 91
0
280
0
281
0
  0
CLASS
  1
LAYOUT
  2
AcDbLayout
  3
ObjectDBX Classes
 90
0
 91
0
280
0
281
0
  0
ENDSEC
  0
SECTION
  2
TABLES
  0
TABLE
  2
VPORT
  5
8
330
0
100
AcDbSymbolTable
 70
1
  0
VPORT
  5
23
330
8
100
AcDbSymbolTableRecord
100
AcDbViewportTableRecord
  2
*Active
 70
0
 10
0.0
 20
0.0
 11
1.0
 21
1.0
 12
0.0
 22
0.0
 13
0.0
 23
0.0
 14
0.5
 24
0.5
 15
0.5
 25
0.5
 16
0.0
 26
0.0
 36
1.0
 17
0.0
 27
0.0
 37
0.0
 40
1000.0
 41
1.34
 42
50.0
 43
0.0
 44
0.0
 50
0.0
 51
0.0
 71
0
 72
1000
 73
1
 74
3
 75
0
 76
0
 77
0
 78
0
281
0
 65
0
146
0.0
  0
ENDTAB
  0
TABLE
  2
LTYPE
  5
2
330
0
100
AcDbSymbolTable
 70
3
  0
LTYPE
  5
24
330
2
100
AcDbSymbolTableRecord
100
AcDbLinetypeTableRecord
  2
ByBlock
 70
0
  3

 72
65
 73
0
 40
0.0
  0
LTYPE
  5
25
330
2
100
AcDbSymbolTableRecord
100
AcDbLinetypeTableRecord
  2
ByLayer
 70
0
  3

 72
65
 73
0
 40
0.0
  0
LTYPE
  5
26
330
2
100
AcDbSymbolTableRecord
100
AcDbLinetypeTableRecord
  2
Continuous
 70
0
  3

 72
65
 73
0
 40
0.0
  0
ENDTAB
  0
TABLE
  2
LAYER
  5
1
330
0
100
AcDbSymbolTable
 70
4
  0
LAYER
  5
27
330
1
100
AcDbSymbolTableRecord
100
AcDbLayerTableRecord
  2
0
 70
0
 62
7
  6
Continuous
370
-3
390
13
  0
LAYER
  5
28
330
1
100
AcDbSymbolTableRecord
100
AcDbLayerTableRecord
  2
Defpoints
 70
0
 62
7
  6
Continuous
290
0
370
-3
390
13
  0
LAYER
  5
2F
330
1
100
AcDbSymbolTableRecord
100
AcDbLayerTableRecord
  2
cut
 70
0
 62
5
420
255
  6
Continuous
370
-3
390
13
  0
LAYER
  5
30
330
1
100
AcDbSymbolTableRecord
100
AcDbLayerTableRecord
  2
line engraving
 70
0
 62
1
420
16711680
  6
Continuous
370
-3
390
13
  0
ENDTAB
  0
TABLE
  2
STYLE
  5
5
330
0
100
AcDbSymbolTable
 70
1
  0
STYLE
  5
29
330
5
100
AcDbSymbolTableRecord
100
AcDbTextStyleTableRecord
  2
Standard
 70
0
 40
0.0
 41
1.0
 50
0.0
 71
0
 42
2.5
  3
txt
  4

  0
ENDTAB
  0
TABLE
  2
VIEW
  5
7
330
0
100
AcDbSymbolTable
 70
0
  0
ENDTAB
  0
TABLE
  2
UCS
  5
6
330
0
100
AcDbSymbolTable
 70
0
  0
ENDTAB
  0
TABLE
  2
APPID
  5
3
330
0
100
AcDbSymbolTable
 70
3
  0
APPID
  5
2A
330
3
100
AcDbSymbolTableRecord
100
AcDbRegAppTableRecord
  2
ACAD
 70
0
  0
APPID
  5
85
330
3
100
AcDbSymbolTableRecord
100
AcDbRegAppTableRecord
  2
HATCHBACKGROUNDCOLOR
 70
0
  0
APPID
  5
86
330
3
100
AcDbSymbolTableRecord
100
AcDbRegAppTableRecord
  2
EZDXF
 70
0
  0
ENDTAB
  0
TABLE
  2
DIMSTYLE
  5
4
330
0
100
AcDbSymbolTable
 70
1
100
AcDbDimStyleTable
  0
DIMSTYLE
105
2B
330
4
100
AcDbSymbolTableRecord
100
AcDbDimStyleTableRecord
  2
Standard
 70
0
  3

  4

 40
1.0
 41
2.5
 42
0.625
 43
3.75
 44
1.25
 45
0.0
 46
0.0
 47
0.0
 48
0.0
140
2.5
141
2.5
142
0.0
143
0.03937007874
144
1.0
145
0.0
146
1.0
147
0.625
148
0.0
 71
0
 72
0
 73
0
 74
0
 75
0
 76
0
 77
1
 78
8
 79
3
170
0
171
3
172
1
173
0
174
0
175
0
176
0
177
0
178
0
179
2
271
2
272
2
273
2
274
3
275
0
276
0
277
2
278
44
279
0
280
0
281
0
282
0
283
0
284
8
285
0
286
0
288
0
289
3
371
-2
372
-2
  0
ENDTAB
  0
TABLE
  2
BLOCK_RECORD
  5
9
330
0
100
AcDbSymbolTable
 70
2
  0
BLOCK_RECORD
  5
17
330
9
100
AcDbSymbolTableRecord
100
AcDbBlockTableRecord
  2
*Model_Space
340
1A
  0
BLOCK_RECORD
  5
1B
330
9
100
AcDbSymbolTableRecord
100
AcDbBlockTableRecord
  2
*Paper_Space
340
1E
  0
ENDTAB
  0
ENDSEC
  0
SECTION
  2
BLOCKS
  0
BLOCK
  5
18
330
17
100
AcDbEntity
  8
0
100
AcDbBlockBegin
  2
*Model_Space
 70
0
 10
0.0
 20
0.0
 30
0.0
  3
*Model_Space
  1

  0
ENDBLK
  5
19
330
17
100
AcDbEntity
  8
0
100
AcDbBlockEnd
  0
BLOCK
  5
1C
330
1B
100
AcDbEntity
  8
0
100
AcDbBlockBegin
  2
*Paper_Space
 70
0
 10
0.0
 20
0.0
 30
0.0
  3
*Paper_Space
  1

  0
ENDBLK
  5
1D
330
1B
100
AcDbEntity
  8
0
100
AcDbBlockEnd
  0
ENDSEC
  0
SECTION
  2
ENTITIES
  0
CIRCLE
  5
31
330
17
100
AcDbEntity
  8
cut
 62
5
420
255
100
AcDbCircle
 10
47.99999999999994
 20
48.0
 30
0.0
 40
10.9
  0
CIRCLE
  5
32
330
17
100
AcDbEntity
  8
cut
 62
5
420
255
100
AcDbCircle
 10
283.79999999999995
 20
48.00000000000003
 30
0.0
 40
10.9
  0
LWPOLYLINE
  5
33
330
17
100
AcDbEntity
  8
cut
 62
5
420
255
100
AcDbPolyline
 90
4
 70
1
 10
283.79999999999995
 20
18.00000000000003
 42
0.9999999999999999
 10
283.79999999999995
 20
78.00000000000003
 10
47.99999999999994
 20
78.0
 42
0.9999999999999999
 10
48.00000000000003
 20
18.0
  0
LWPOLYLINE
  5
34
330
17
100
AcDbEntity
  8
line engraving
 62
1
420
16711680
100
AcDbPolyline
 90
7
 70
0
 10
219.60573946964524
 20
42.07031250000003
 10
219.60573946964524
 20
53.92968750000003
 10
221.17512470156885
 20
53.92968750000003
 10
221.17512470156885
 20
43.4698158253752
 10
227.01582644099588
 20
43.4698158253752
 10
227.01582644099588
 20
42.07031250000003
 10
219.60573946964524
 20
42.07031250000003
  0
LWPOLYLINE
  5
35
330
17
100
AcDbEntity
  8
line engraving
 62
1
420
16711680
100
AcDbPolyline
 90
5
 70
0
 10
228.70655589188263
 20
52.255137278308354
 10
228.70655589188263
 20
53.92968750000003
 10
230.16268651944063
 20
53.92968750000003
 10
230.16268651944063
 20
52.255137278308354
 10
228.70655589188263
 20
52.255137278308354
  0
LWPOLYLINE
  5
36
330
17
100
AcDbEntity
  8
line engraving
 62
1
420
16711680
100
AcDbPolyline
 90
5
 70
0
 10
228.70655589188263
 20
42.07031250000003
 10
228.70655589188263
 20
50.661483202592116
 10
230.16268651944063
 20
50.661483202592116
 10
230.16268651944063
 20
42.07031250000003
 10
228.70655589188263
 20
42.07031250000003
  0
LWPOLYLINE
  5
37
330
17
100
AcDbEntity
  8
line engraving
 62
1
420
16711680
100
AcDbPolyline
 90
61
 70
0
 10
232.37924091916776
 20
42.07031250000003
 10
232.37924091916776
 20
50.661483202592116
 10
233.68975848396997
 20
50.661483202592116
 10
233.68975848396997
 20
49.43995139836292
 10
233.93952533466916
 20
49.77175199709033
 10
234.21558343281035
 20
50.05931251598741
 10
234.51793277839354
 20
50.30263295505417
 10
234.8465733714188
 20
50.50171331429062
 10
235.20150521188606
 20
50.65655359369674
 10
235.58272829979532
 20
50.76715379327254
 10
235.99024263514661
 20
50.833513913018024
 10
236.42404821793994
 20
50.85563395293318
 10
236.8045129044807
 20
50.838190721457224
 10
237.16930396273872
 20
50.78586102702936
 10
237.51842139271398
 20
50.698644869649584
 10
237.8518651944065
 20
50.5765422493179
 10
238.15699534500763
 20
50.42612597789481
 10
238.4211718217087
 20
50.253968867240815
 10
238.6443946245097
 20
50.06007091735593
 10
238.8266637534106
 20
49.844432128240136
 10
238.97632162346517
 20
49.607305300349616
 10
239.10171064972712
 20
49.34894323414055
 10
239.2028308321964
 20
49.06934592961292
 10
239.2796821708731
 20
48.76851338676674
 10
239.31507423473735
 20
48.52835295340214
 10
239.3403542803547
 20
48.21235238318557
 10
239.35552230772507
 20
47.820511676117015
 10
239.36057831684855
 20
47.35283083219648
 10
239.36057831684855
 20
42.07031250000003
 10
237.90444768929055
 20
42.07031250000003
 10
237.90444768929055
 20
47.29620353001367
 10
237.8938300701313
 20
47.71307148224338
 10
237.86197721265344
 20
48.073817733202624
 10
237.80888911685707
 20
48.3784422828914
 10
237.73456578274212
 20
48.62694513130972
 10
237.63319279981664
 20
48.83626390902118
 10
237.49895575758865
 20
49.02333624658939
 10
237.3318546560581
 20
49.18816214401435
 10
237.13188949522507
 20
49.33074160129607
 10
236.90613868786235
 20
49.44576580885491
 10
236.6616806467428
 20
49.527925957111215
 10
236.39851537186644
 20
49.577222046065
 10
236.11664286323327
 20
49.593654075716266
 10
235.8880480507386
 20
49.58442685906594
 10
235.66741645261337
 20
49.55674520911497
 10
235.4547480688576
 20
49.51060912586335
 10
235.2500428994713
 20
49.44601860931108
 10
235.05330094445446
 20
49.36297365945816
 10
234.8645222038071
 20
49.2614742763046
 10
234.68370667752916
 20
49.14152045985038
 10
234.5108543656207
 20
49.00311221009552
 10
234.3525380799422
 20
48.83891831381099
 10
234.21533063235415
 20
48.64160755776776
 10
234.0992320228566
 20
48.411179941965834
 10
234.00424225144948
 20
48.14763546640521
 10
233.93036131813287
 20
47.85097413108589
 10
233.8775892229067
 20
47.52119593600787
 10
233.845925965771
 20
47.15830088117116
 10
233.83537154672575
 20
46.762288966575746
 10
233.83537154672575
 20
42.07031250000003
 10
232.37924091916776
 20
42.07031250000003
  0
LWPOLYLINE
  5
38
330
17
100
AcDbEntity
  8
line engraving
 62
1
420
16711680
100
AcDbPolyline
 90
13
 70
0
 10
241.60140156036832
 20
42.07031250000003
 10
241.60140156036832
 20
53.92968750000003
 10
243.05753218792628
 20
53.92968750000003
 10
243.05753218792628
 20
47.16676969645296
 10
246.5037080064802
 20
50.661483202592116
 10
248.388588207708
 20
50.661483202592116
 10
245.10420468110502
 20
47.47417505115965
 10
248.72026240620733
 20
42.07031250000003
 10
246.9243679655525
 20
42.07031250000003
 10
244.08491324181443
 20
46.4629732264666
 10
243.05753218792628
 20
45.476040245566196
 10
243.05753218792628
 20
42.07031250000003
 10
241.60140156036832
 20
42.07031250000003
  0
LWPOLYLINE
  5
39
330
17
100
AcDbEntity
  8
line engraving
 62
1
420
16711680
100
AcDbPolyline
 90
151
 70
0
 10
258.5248752984311
 20
46.22837440313782
 10
260.0942605303547
 20
45.831983287858144
 10
259.95856988550366
 20
45.3629752415427
 10
259.7982311961758
 20
44.92266004700293
 10
259.61324446237103
 20
44.51103770423882
 10
259.40360968408936
 20
44.12810821325037
 10
259.1693268613308
 20
43.773871574037585
 10
258.91039599409527
 20
43.44832778660047
 10
258.6268170823829
 20
43.15147685093902
 10
258.31859012619367
 20
42.88331876705323
 10
257.98912793168586
 20
42.64537033768015
 10
257.64184330501786
 20
42.43914836555681
 10
257.2767362461896
 20
42.26465285068322
 10
256.8938067552012
 20
42.12188379305937
 10
256.4930548320525
 20
42.01084119268527
 10
256.07448047674364
 20
41.9315250495609
 10
255.63808368927454
 20
41.88393536368629
 10
255.18386446964524
 20
41.86807213506142
 10
254.7157412249264
 20
41.88026975707178
 10
254.26999082057893
 20
41.91686262310286
 10
253.84661325660275
 20
41.97785073315465
 10
253.4456085329979
 20
42.06323408722717
 10
253.06697664976443
 20
42.173012685320415
 10
252.71071760690225
 20
42.307186527434375
 10
252.37683140441143
 20
42.46575561356905
 10
252.06531804229192
 20
42.64871994372445
 10
251.77396551655224
 20
42.8548155156197
 10
251.50056182320085
 20
43.08277832697394
 10
251.24510696223777
 20
43.33260837778716
 10
251.007600933663
 20
43.604305668059375
 10
250.78804373747653
 20
43.897870197790574
 10
250.58643537367834
 20
44.21330196698076
 10
250.40277584226848
 20
44.55060097562993
 10
250.2370651432469
 20
44.90976722373809
 10
250.0901248780962
 20
45.28327989773408
 10
249.96277664829893
 20
45.663618184046754
 10
249.85502045385508
 20
46.05078208267611
 10
249.76685629476464
 20
46.444771593622136
 10
249.69828417102764
 20
46.84558671688484
 10
249.64930408264408
 20
47.253227452464216
 10
249.61991602961393
 20
47.66769380036028
 10
249.61012001193723
 20
48.08898576057302
 10
249.6211800318948
 20
48.54472178293936
 10
249.65436009176756
 20
48.98566897861957
 10
249.70966019155546
 20
49.411827347613645
 10
249.7870803312585
 20
49.82319688992158
 10
249.88662051087672
 20
50.219777605543385
 10
250.00828073041012
 20
50.60156949447906
 10
250.15206098985865
 20
50.96857255672859
 10
250.31796128922235
 20
51.32078679229198
 10
250.50427522542205
 20
51.655241795809204
 10
250.70929639537854
 20
51.96896716192022
 10
250.9330247990919
 20
52.26196289062503
 10
251.17546043656205
 20
52.53422898192363
 10
251.43660330778903
 20
52.785765435816025
 10
251.7164534127728
 20
53.01657225230221
 10
252.01501075151344
 20
53.22664943138219
 10
252.33227532401088
 20
53.41599697305597
 10
252.66300152079955
 20
53.58379327584097
 10
253.00194373241385
 20
53.729216738254635
 10
253.34910195885377
 20
53.85226736029697
 10
253.70447620011933
 20
53.95294514196797
 10
254.06806645621052
 20
54.031250083267636
 10
254.43987272712735
 20
54.087182184195974
 10
254.8198950128698
 20
54.12074144475297
 10
255.20813331343788
 20
54.13192786493864
 10
255.64421410033677
 20
54.117771039392935
 10
256.0625988553035
 20
54.07530056275583
 10
256.4632875783381
 20
54.00451643502731
 10
256.8462802694406
 20
53.905418656207395
 10
257.21157692861095
 20
53.778007226296076
 10
257.5591775558492
 20
53.62228214529335
 10
257.8890821511553
 20
53.43824341319921
 10
258.2012907145293
 20
53.22589103001367
 10
258.4931488411813
 20
52.987879400526545
 10
258.7620021263216
 20
52.726862929527655
 10
259.00785056995005
 20
52.442841617016995
 10
259.2306941720668
 20
52.13581546299457
 10
259.4305329326718
 20
51.805784467460384
 10
259.60736685176494
 20
51.452748630414426
 10
259.7611959293464
 20
51.0767079518567
 10
259.89202016541606
 20
50.677662431787205
 10
258.3469037772851
 20
50.313629774897706
 10
258.2379467806744
 20
50.62621753895594
 10
258.11736096307976
 20
50.9168116633271
 10
257.98514632450116
 20
51.185412148011196
 10
257.8413028649386
 20
51.432018993008214
 10
257.685830584392
 20
51.65663219831816
 10
257.5187294828615
 20
51.859251763941025
 10
257.339999560347
 20
52.03987768987682
 10
257.14964081684855
 20
52.19850997612554
 10
256.94714765145375
 20
52.3369182258804
 10
256.7320144632503
 20
52.456872042334616
 10
256.5042412522382
 20
52.558371425488176
 10
256.2638280184174
 20
52.641416375341095
 10
256.01077476178796
 20
52.70600689189336
 10
255.7450814823499
 20
52.752142975144984
 10
255.46674818010314
 20
52.779824625095955
 10
255.1757748550477
 20
52.78905184174628
 10
254.84100385096028
 20
52.77881342327126
 10
254.52026327219045
 20
52.74809816784621
 10
254.21355311873822
 20
52.69690607547113
 10
253.92087339060365
 20
52.625237146146006
 10
253.64222408778667
 20
52.533091379870854
 10
253.3776052102873
 20
52.42046877664566
 10
253.12701675810555
 20
52.28736933647044
 10
252.89045873124144
 20
52.13379305934519
 10
252.66944793243198
 20
51.96296315108611
 10
252.4655011644142
 20
51.77810281750941
 10
252.27861842718812
 20
51.5792120586151
 10
252.10879972075372
 20
51.36629087440317
 10
251.95604504511104
 20
51.13933926487362
 10
251.82035440026004
 20
50.89835723002646
 10
251.70172778620073
 20
50.643344769861685
 10
251.6001652029331
 20
50.37430188437929
 10
251.43736170915753
 20
49.817888080341945
 10
251.32107349931783
 20
49.25287906079471
 10
251.25130057341403
 20
48.67927482573758
 10
251.22804293144608
 20
48.09707537517056
 10
251.25559818116898
 20
47.36471245363663
 10
251.33826393033763
 20
46.680381618775606
 10
251.47604017895205
 20
46.04408287058751
 10
251.66892692701225
 20
45.45581620907233
 10
251.78679513970303
 20
45.18260211606308
 10
251.9199577799923
 20
44.927210455214045
 10
252.06841484788004
 20
44.689641226525225
 10
252.23216634336626
 20
44.46989442999662
 10
252.41121226645097
 20
44.26797006562823
 10
252.60555261713418
 20
44.083868133420054
 10
252.81518739541585
 20
43.91758863337209
 10
253.040116601296
 20
43.769131565484344
 10
253.5148758579894
 20
43.524926324820974
 10
254.00884794935195
 20
43.35049401006142
 10
254.52203287538367
 20
43.24583462120569
 10
255.05443063608453
 20
43.21094815825378
 10
255.37776241953014
 20
43.222829779693924
 10
255.68845418016707
 20
43.25847464401435
 10
255.98650591799534
 20
43.317882751215066
 10
256.27191763301494
 20
43.40105410129607
 10
256.54468932522593
 20
43.50798869425736
 10
256.8048209946282
 20
43.63868653009894
 10
257.0523126412218
 20
43.793147608820796
 10
257.28716426500677
 20
43.97137193042295
 10
257.5064686607371
 20
44.17298029422112
 10
257.7073186231667
 20
44.39759349953106
 10
257.88971415229577
 20
44.645211546352776
 10
258.05365524812413
 20
44.915834434686246
 10
258.1991419106518
 20
45.209462164531494
 10
258.3261741398789
 20
45.5260947358885
 10
258.4347519358053
 20
45.865732148757274
 10
258.5248752984311
 20
46.22837440313782
  0
CIRCLE
  5
3A
330
17
100
AcDbEntity
  8
cut
 62
5
420
255
100
AcDbCircle
 10
349.7999999999999
 20
48.0
 30
0.0
 40
10.9
  0
CIRCLE
  5
3B
330
17
100
AcDbEntity
  8
cut
 62
5
420
255
100
AcDbCircle
 10
585.5999999999999
 20
48.00000000000003
 30
0.0
 40
10.9
  0
LWPOLYLINE
  5
3C
330
17
100
AcDbEntity
  8
cut
 62
5
420
255
100
AcDbPolyline
 90
4
 70
1
 10
585.5999999999999
 20
18.00000000000003
 42
0.9999999999999999
 10
585.5999999999999
 20
78.00000000000003
 10
349.7999999999999
 20
78.0
 42
0.9999999999999999
 10
349.79999999999995
 20
18.0
  0
LWPOLYLINE
  5
3D
330
17
100
AcDbEntity
  8
line engraving
 62
1
420
16711680
100
AcDbPolyline
 90
7
 70
0
 10
521.4057394696451
 20
42.07031250000003
 10
521.4057394696451
 20
53.92968750000003
 10
522.9751247015688
 20
53.92968750000003
 10
522.9751247015688
 20
43.4698158253752
 10
528.8158264409958
 20
43.4698158253752
 10
528.8158264409958
 20
42.07031250000003
 10
521.4057394696451
 20
42.07031250000003
  0
LWPOLYLINE
  5
3E
330
17
100
AcDbEntity
  8
line engraving
 62
1
420
16711680
100
AcDbPolyline
 90
5
 70
0
 10
530.5065558918825
 20
52.255137278308354
 10
530.5065558918825
 20
53.92968750000003
 10
531.9626865194405
 20
53.92968750000003
 10
531.9626865194405
 20
52.255137278308354
 10
530.5065558918825
 20
52.255137278308354
  0
LWPOLYLINE
  5
3F
330
17
100
AcDbEntity
  8
line engraving
 62
1
420
16711680
100
AcDbPolyline
 90
5
 70
0
 10
530.5065558918825
 20
42.07031250000003
 10
530.5065558918825
 20
50.661483202592116
 10
531.9626865194405
 20
50.661483202592116
 10
531.9626865194405
 20
42.07031250000003
 10
530.5065558918825
 20
42.07031250000003
  0
LWPOLYLINE
  5
40
330
17
100
AcDbEntity
  8
line engraving
 62
1
420
16711680
100
AcDbPolyline
 90
61
 70
0
 10
534.1792409191677
 20
42.07031250000003
 10
534.1792409191677
 20
50.661483202592116
 10
535.4897584839698
 20
50.661483202592116
 10
535.4897584839698
 20
49.43995139836292
 10
535.739525334669
 20
49.77175199709033
 10
536.0155834328102
 20
50.05931251598741
 10
536.3179327783935
 20
50.30263295505417
 10
536.6465733714186
 20
50.50171331429062
 10
537.001505211886
 20
50.65655359369674
 10
537.3827282997952
 20
50.76715379327254
 10
537.7902426351466
 20
50.833513913018024
 10
538.2240482179399
 20
50.85563395293318
 10
538.6045129044807
 20
50.838190721457224
 10
538.9693039627386
 20
50.78586102702936
 10
539.3184213927138
 20
50.698644869649584
 10
539.6518651944064
 20
50.5765422493179
 10
539.9569953450075
 20
50.42612597789481
 10
540.2211718217086
 20
50.253968867240815
 10
540.4443946245095
 20
50.06007091735593
 10
540.6266637534105
 20
49.844432128240136
 10
540.776321623465
 20
49.607305300349616
 10
540.901710649727
 20
49.34894323414055
 10
541.0028308321963
 20
49.06934592961292
 10
541.079682170873
 20
48.76851338676674
 10
541.1150742347372
 20
48.52835295340214
 10
541.1403542803546
 20
48.21235238318557
 10
541.1555223077249
 20
47.820511676117015
 10
541.1605783168484
 20
47.35283083219648
 10
541.1605783168484
 20
42.07031250000003
 10
539.7044476892904
 20
42.07031250000003
 10
539.7044476892904
 20
47.29620353001367
 10
539.6938300701312
 20
47.71307148224338
 10
539.6619772126533
 20
48.073817733202624
 10
539.608889116857
 20
48.3784422828914
 10
539.534565782742
 20
48.62694513130972
 10
539.4331927998165
 20
48.83626390902118
 10
539.2989557575885
 20
49.02333624658939
 10
539.131854656058
 20
49.18816214401435
 10
538.9318894952249
 20
49.33074160129607
 10
538.7061386878622
 20
49.44576580885491
 10
538.4616806467427
 20
49.527925957111215
 10
538.1985153718663
 20
49.577222046065
 10
537.9166428632332
 20
49.593654075716266
 10
537.6880480507385
 20
49.58442685906594
 10
537.4674164526133
 20
49.55674520911497
 10
537.2547480688576
 20
49.51060912586335
 10
537.0500428994712
 20
49.44601860931108
 10
536.8533009444544
 20
49.36297365945816
 10
536.664522203807
 20
49.2614742763046
 10
536.4837066775291
 20
49.14152045985038
 10
536.3108543656206
 20
49.00311221009552
 10
536.152538079942
 20
48.83891831381099
 10
536.015330632354
 20
48.64160755776776
 10
535.8992320228565
 20
48.411179941965834
 10
535.8042422514494
 20
48.14763546640521
 10
535.7303613181327
 20
47.85097413108589
 10
535.6775892229066
 20
47.52119593600787
 10
535.6459259657709
 20
47.15830088117116
 10
535.6353715467257
 20
46.762288966575746
 10
535.6353715467257
 20
42.07031250000003
 10
534.1792409191677
 20
42.07031250000003
  0
LWPOLYLINE
  5
41
330
17
100
AcDbEntity
  8
line engraving
 62
1
420
16711680
100
AcDbPolyline
 90
13
 70
0
 10
543.4014015603682
 20
42.07031250000003
 10
543.4014015603682
 20
53.92968750000003
 10
544.8575321879262
 20
53.92968750000003
 10
544.8575321879262
 20
47.16676969645296
 10
548.3037080064801
 20
50.661483202592116
 10
550.1885882077079
 20
50.661483202592116
 10
546.9042046811049
 20
47.47417505115965
 10
550.5202624062073
 20
42.07031250000003
 10
548.7243679655523
 20
42.07031250000003
 10
545.8849132418143
 20
46.4629732264666
 10
544.8575321879262
 20
45.476040245566196
 10
544.8575321879262
 20
42.07031250000003
 10
543.4014015603682
 20
42.07031250000003
  0
LWPOLYLINE
  5
42
330
17
100
AcDbEntity
  8
line engraving
 62
1
420
16711680
100
AcDbPolyline
 90
151
 70
0
 10
560.3248752984309
 20
46.22837440313782
 10
561.8942605303546
 20
45.831983287858144
 10
561.7585698855036
 20
45.3629752415427
 10
561.5982311961757
 20
44.92266004700293
 10
561.4132444623709
 20
44.51103770423882
 10
561.2036096840892
 20
44.12810821325037
 10
560.9693268613306
 20
43.773871574037585
 10
560.7103959940952
 20
43.44832778660047
 10
560.4268170823829
 20
43.15147685093902
 10
560.1185901261936
 20
42.88331876705323
 10
559.7891279316858
 20
42.64537033768015
 10
559.4418433050178
 20
42.43914836555681
 10
559.0767362461895
 20
42.26465285068322
 10
558.6938067552011
 20
42.12188379305937
 10
558.2930548320525
 20
42.01084119268527
 10
557.8744804767435
 20
41.9315250495609
 10
557.4380836892744
 20
41.88393536368629
 10
556.9838644696451
 20
41.86807213506142
 10
556.5157412249263
 20
41.88026975707178
 10
556.0699908205788
 20
41.91686262310286
 10
555.6466132566027
 20
41.97785073315465
 10
555.2456085329978
 20
42.06323408722717
 10
554.8669766497643
 20
42.173012685320415
 10
554.5107176069022
 20
42.307186527434375
 10
554.1768314044114
 20
42.46575561356905
 10
553.8653180422918
 20
42.64871994372445
 10
553.5739655165521
 20
42.8548155156197
 10
553.3005618232007
 20
43.08277832697394
 10
553.0451069622377
 20
43.33260837778716
 10
552.8076009336629
 20
43.604305668059375
 10
552.5880437374765
 20
43.897870197790574
 10
552.3864353736783
 20
44.21330196698076
 10
552.2027758422684
 20
44.55060097562993
 10
552.0370651432468
 20
44.90976722373809
 10
551.8901248780961
 20
45.28327989773408
 10
551.7627766482988
 20
45.663618184046754
 10
551.655020453855
 20
46.05078208267611
 10
551.5668562947645
 20
46.444771593622136
 10
551.4982841710275
 20
46.84558671688484
 10
551.449304082644
 20
47.253227452464216
 10
551.4199160296139
 20
47.66769380036028
 10
551.4101200119371
 20
48.08898576057302
 10
551.4211800318947
 20
48.54472178293936
 10
551.4543600917674
 20
48.98566897861957
 10
551.5096601915553
 20
49.411827347613645
 10
551.5870803312584
 20
49.82319688992158
 10
551.6866205108767
 20
50.219777605543385
 10
551.8082807304099
 20
50.60156949447906
 10
551.9520609898585
 20
50.96857255672859
 10
552.1179612892222
 20
51.32078679229198
 10
552.3042752254219
 20
51.655241795809204
 10
552.5092963953784
 20
51.96896716192022
 10
552.7330247990918
 20
52.26196289062503
 10
552.9754604365619
 20
52.53422898192363
 10
553.236603307789
 20
52.785765435816025
 10
553.5164534127728
 20
53.01657225230221
 10
553.8150107515133
 20
53.22664943138219
 10
554.1322753240108
 20
53.41599697305597
 10
554.4630015207995
 20
53.58379327584097
 10
554.8019437324137
 20
53.729216738254635
 10
555.1491019588537
 20
53.85226736029697
 10
555.5044762001193
 20
53.95294514196797
 10
555.8680664562105
 20
54.031250083267636
 10
556.2398727271272
 20
54.087182184195974
 10
556.6198950128697
 20
54.12074144475297
 10
557.0081333134378
 20
54.13192786493864
 10
557.4442141003367
 20
54.117771039392935
 10
557.8625988553034
 20
54.07530056275583
 10
558.263287578338
 20
54.00451643502731
 10
558.6462802694405
 20
53.905418656207395
 10
559.0115769286109
 20
53.778007226296076
 10
559.3591775558491
 20
53.62228214529335
 10
559.6890821511553
 20
53.43824341319921
 10
560.0012907145292
 20
53.22589103001367
 10
560.2931488411813
 20
52.987879400526545
 10
560.5620021263215
 20
52.726862929527655
 10
560.80785056995
 20
52.442841617016995
 10
561.0306941720668
 20
52.13581546299457
 10
561.2305329326717
 20
51.805784467460384
 10
561.4073668517649
 20
51.452748630414426
 10
561.5611959293464
 20
51.0767079518567
 10
561.692020165416
 20
50.677662431787205
 10
560.1469037772849
 20
50.313629774897706
 10
560.0379467806742
 20
50.62621753895594
 10
559.9173609630797
 20
50.9168116633271
 10
559.785146324501
 20
51.185412148011196
 10
559.6413028649384
 20
51.432018993008214
 10
559.4858305843919
 20
51.65663219831816
 10
559.3187294828614
 20
51.859251763941025
 10
559.1399995603468
 20
52.03987768987682
 10
558.9496408168484
 20
52.19850997612554
 10
558.7471476514536
 20
52.3369182258804
 10
558.5320144632502
 20
52.456872042334616
 10
558.3042412522381
 20
52.558371425488176
 10
558.0638280184173
 20
52.641416375341095
 10
557.8107747617879
 20
52.70600689189336
 10
557.5450814823498
 20
52.752142975144984
 10
557.266748180103
 20
52.779824625095955
 10
556.9757748550476
 20
52.78905184174628
 10
556.6410038509601
 20
52.77881342327126
 10
556.3202632721903
 20
52.74809816784621
 10
556.0135531187381
 20
52.69690607547113
 10
555.7208733906035
 20
52.625237146146006
 10
555.4422240877865
 20
52.533091379870854
 10
555.1776052102872
 20
52.42046877664566
 10
554.9270167581054
 20
52.28736933647044
 10
554.6904587312413
 20
52.13379305934519
 10
554.4694479324319
 20
51.96296315108611
 10
554.2655011644141
 20
51.77810281750941
 10
554.078618427188
 20
51.5792120586151
 10
553.9087997207537
 20
51.36629087440317
 10
553.7560450451109
 20
51.13933926487362
 10
553.62035440026
 20
50.89835723002646
 10
553.5017277862007
 20
50.643344769861685
 10
553.4001652029331
 20
50.37430188437929
 10
553.2373617091574
 20
49.817888080341945
 10
553.1210734993177
 20
49.25287906079471
 10
553.0513005734139
 20
48.67927482573758
 10
553.028042931446
 20
48.09707537517056
 10
553.0555981811689
 20
47.36471245363663
 10
553.1382639303375
 20
46.680381618775606
 10
553.2760401789519
 20
46.04408287058751
 10
553.4689269270121
 20
45.45581620907233
 10
553.586795139703
 20
45.18260211606308
 10
553.7199577799922
 20
44.927210455214045
 10
553.86841484788
 20
44.689641226525225
 10
554.0321663433662
 20
44.46989442999662
 10
554.2112122664508
 20
44.26797006562823
 10
554.405552617134
 20
44.083868133420054
 10
554.6151873954158
 20
43.91758863337209
 10
554.8401166012959
 20
43.769131565484344
 10
555.3148758579893
 20
43.524926324820974
 10
555.8088479493518
 20
43.35049401006142
 10
556.3220328753836
 20
43.24583462120569
 10
556.8544306360844
 20
43.21094815825378
 10
557.17776241953
 20
43.222829779693924
 10
557.488454180167
 20
43.25847464401435
 10
557.7865059179952
 20
43.317882751215066
 10
558.0719176330149
 20
43.40105410129607
 10
558.3446893252258
 20
43.50798869425736
 10
558.6048209946281
 20
43.63868653009894
 10
558.8523126412217
 20
43.793147608820796
 10
559.0871642650067
 20
43.97137193042295
 10
559.306468660737
 20
44.17298029422112
 10
559.5073186231666
 20
44.39759349953106
 10
559.6897141522957
 20
44.645211546352776
 10
559.853655248124
 20
44.915834434686246
 10
559.9991419106517
 20
45.209462164531494
 10
560.1261741398788
 20
45.5260947358885
 10
560.2347519358052
 20
45.865732148757274
 10
560.3248752984309
 20
46.22837440313782
  0
CIRCLE
  5
43
330
17
100
AcDbEntity
  8
cut
 62
5
420
255
100
AcDbCircle
 10
651.5999999999999
 20
48.0
 30
0.0
 40
10.9
  0
CIRCLE
  5
44
330
17
100
AcDbEntity
  8
cut
 62
5
420
255
100
AcDbCircle
 10
887.3999999999999
 20
48.00000000000003
 30
0.0
 40
10.9
  0
LWPOLYLINE
  5
45
330
17
100
AcDbEntity
  8
cut
 62
5
420
255
100
AcDbPolyline
 90
4
 70
1
 10
887.3999999999999
 20
18.00000000000003
 42
0.9999999999999999
 10
887.3999999999999
 20
78.00000000000003
 10
651.5999999999999
 20
78.0
 42
0.9999999999999999
 10
651.5999999999999
 20
18.0
  0
LWPOLYLINE
  5
46
330
17
100
AcDbEntity
  8
line engraving
 62
1
420
16711680
100
AcDbPolyline
 90
7
 70
0
 10
823.2057394696451
 20
42.07031250000003
 10
823.2057394696451
 20
53.92968750000003
 10
824.7751247015688
 20
53.92968750000003
 10
824.7751247015688
 20
43.4698158253752
 10
830.6158264409958
 20
43.4698158253752
 10
830.6158264409958
 20
42.07031250000003
 10
823.2057394696451
 20
42.07031250000003
  0
LWPOLYLINE
  5
47
330
17
100
AcDbEntity
  8
line engraving
 62
1
420
16711680
100
AcDbPolyline
 90
5
 70
0
 10
832.3065558918825
 20
52.255137278308354
 10
832.3065558918825
 20
53.92968750000003
 10
833.7626865194404
 20
53.92968750000003
 10
833.7626865194404
 20
52.255137278308354
 10
832.3065558918825
 20
52.255137278308354
  0
LWPOLYLINE
  5
48
330
17
100
AcDbEntity
  8
line engraving
 62
1
420
16711680
100
AcDbPolyline
 90
5
 70
0
 10
832.3065558918825
 20
42.07031250000003
 10
832.3065558918825
 20
50.661483202592116
 10
833.7626865194404
 20
50.661483202592116
 10
833.7626865194404
 20
42.07031250000003
 10
832.3065558918825
 20
42.07031250000003
  0
LWPOLYLINE
  5
49
330
17
100
AcDbEntity
  8
line engraving
 62
1
420
16711680
100
AcDbPolyline
 90
61
 70
0
 10
835.9792409191676
 20
42.07031250000003
 10
835.9792409191676
 20
50.661483202592116
 10
837.2897584839698
 20
50.661483202592116
 10
837.2897584839698
 20
49.43995139836292
 10
837.539525334669
 20
49.77175199709033
 10
837.8155834328102
 20
50.05931251598741
 10
838.1179327783934
 20
50.30263295505417
 10
838.4465733714186
 20
50.50171331429062
 10
838.8015052118859
 20
50.65655359369674
 10
839.1827282997951
 20
50.76715379327254
 10
839.5902426351465
 20
50.833513913018024
 10
840.0240482179398
 20
50.85563395293318
 10
840.4045129044806
 20
50.838190721457224
 10
840.7693039627386
 20
50.78586102702936
 10
841.1184213927138
 20
50.698644869649584
 10
841.4518651944063
 20
50.5765422493179
 10
841.7569953450075
 20
50.42612597789481
 10
842.0211718217085
 20
50.253968867240815
 10
842.2443946245095
 20
50.06007091735593
 10
842.4266637534105
 20
49.844432128240136
 10
842.576321623465
 20
49.607305300349616
 10
842.7017106497269
 20
49.34894323414055
 10
842.8028308321963
 20
49.06934592961292
 10
842.8796821708729
 20
48.76851338676674
 10
842.9150742347372
 20
48.52835295340214
 10
842.9403542803545
 20
48.21235238318557
 10
842.9555223077249
 20
47.820511676117015
 10
842.9605783168483
 20
47.35283083219648
 10
842.9605783168483
 20
42.07031250000003
 10
841.5044476892904
 20
42.07031250000003
 10
841.5044476892904
 20
47.29620353001367
 10
841.4938300701311
 20
47.71307148224338
 10
841.4619772126532
 20
48.073817733202624
 10
841.4088891168569
 20
48.3784422828914
 10
841.334565782742
 20
48.62694513130972
 10
841.2331927998165
 20
48.83626390902118
 10
841.0989557575884
 20
49.02333624658939
 10
840.9318546560579
 20
49.18816214401435
 10
840.7318894952249
 20
49.33074160129607
 10
840.5061386878622
 20
49.44576580885491
 10
840.2616806467427
 20
49.527925957111215
 10
839.9985153718662
 20
49.577222046065
 10
839.7166428632331
 20
49.593654075716266
 10
839.4880480507385
 20
49.58442685906594
 10
839.2674164526132
 20
49.55674520911497
 10
839.0547480688575
 20
49.51060912586335
 10
838.8500428994712
 20
49.44601860931108
 10
838.6533009444544
 20
49.36297365945816
 10
838.464522203807
 20
49.2614742763046
 10
838.283706677529
 20
49.14152045985038
 10
838.1108543656205
 20
49.00311221009552
 10
837.952538079942
 20
48.83891831381099
 10
837.815330632354
 20
48.64160755776776
 10
837.6992320228564
 20
48.411179941965834
 10
837.6042422514494
 20
48.14763546640521
 10
837.5303613181327
 20
47.85097413108589
 10
837.4775892229065
 20
47.52119593600787
 10
837.4459259657708
 20
47.15830088117116
 10
837.4353715467256
 20
46.762288966575746
 10
837.4353715467256
 20
42.07031250000003
 10
835.9792409191676
 20
42.07031250000003
  0
LWPOLYLINE
  5
4A
330
17
100
AcDbEntity
  8
line engraving
 62
1
420
16711680
100
AcDbPolyline
 90
13
 70
0
 10
845.2014015603681
 20
42.07031250000003
 10
845.2014015603681
 20
53.92968750000003
 10
846.6575321879261
 20
53.92968750000003
 10
846.6575321879261
 20
47.16676969645296
 10
850.10370800648
 20
50.661483202592116
 10
851.9885882077078
 20
50.661483202592116
 10
848.7042046811049
 20
47.47417505115965
 10
852.3202624062072
 20
42.07031250000003
 10
850.5243679655523
 20
42.07031250000003
 10
847.6849132418142
 20
46.4629732264666
 10
846.6575321879261
 20
45.476040245566196
 10
846.6575321879261
 20
42.07031250000003
 10
845.2014015603681
 20
42.07031250000003
  0
LWPOLYLINE
  5
4B
330
17
100
AcDbEntity
  8
line engraving
 62
1
420
16711680
100
AcDbPolyline
 90
151
 70
0
 10
862.1248752984309
 20
46.22837440313782
 10
863.6942605303545
 20
45.831983287858144
 10
863.5585698855035
 20
45.3629752415427
 10
863.3982311961756
 20
44.92266004700293
 10
863.2132444623709
 20
44.51103770423882
 10
863.0036096840892
 20
44.12810821325037
 10
862.7693268613306
 20
43.773871574037585
 10
862.5103959940951
 20
43.44832778660047
 10
862.2268170823828
 20
43.15147685093902
 10
861.9185901261935
 20
42.88331876705323
 10
861.5891279316858
 20
42.64537033768015
 10
861.2418433050177
 20
42.43914836555681
 10
860.8767362461895
 20
42.26465285068322
 10
860.493806755201
 20
42.12188379305937
 10
860.0930548320524
 20
42.01084119268527
 10
859.6744804767435
 20
41.9315250495609
 10
859.2380836892744
 20
41.88393536368629
 10
858.7838644696451
 20
41.86807213506142
 10
858.3157412249262
 20
41.88026975707178
 10
857.8699908205788
 20
41.91686262310286
 10
857.4466132566026
 20
41.97785073315465
 10
857.0456085329978
 20
42.06323408722717
 10
856.6669766497643
 20
42.173012685320415
 10
856.3107176069021
 20
42.307186527434375
 10
855.9768314044113
 20
42.46575561356905
 10
855.6653180422918
 20
42.64871994372445
 10
855.3739655165521
 20
42.8548155156197
 10
855.1005618232007
 20
43.08277832697394
 10
854.8451069622377
 20
43.33260837778716
 10
854.6076009336629
 20
43.604305668059375
 10
854.3880437374764
 20
43.897870197790574
 10
854.1864353736783
 20
44.21330196698076
 10
854.0027758422683
 20
44.55060097562993
 10
853.8370651432467
 20
44.90976722373809
 10
853.6901248780961
 20
45.28327989773408
 10
853.5627766482987
 20
45.663618184046754
 10
853.4550204538549
 20
46.05078208267611
 10
853.3668562947645
 20
46.444771593622136
 10
853.2982841710275
 20
46.84558671688484
 10
853.2493040826439
 20
47.253227452464216
 10
853.2199160296138
 20
47.66769380036028
 10
853.2101200119371
 20
48.08898576057302
 10
853.2211800318946
 20
48.54472178293936
 10
853.2543600917674
 20
48.98566897861957
 10
853.3096601915553
 20
49.411827347613645
 10
853.3870803312584
 20
49.82319688992158
 10
853.4866205108766
 20
50.219777605543385
 10
853.6082807304099
 20
50.60156949447906
 10
853.7520609898585
 20
50.96857255672859
 10
853.9179612892221
 20
51.32078679229198
 10
854.1042752254218
 20
51.655241795809204
 10
854.3092963953784
 20
51.96896716192022
 10
854.5330247990918
 20
52.26196289062503
 10
854.7754604365618
 20
52.53422898192363
 10
855.0366033077889
 20
52.785765435816025
 10
855.3164534127727
 20
53.01657225230221
 10
855.6150107515133
 20
53.22664943138219
 10
855.9322753240108
 20
53.41599697305597
 10
856.2630015207994
 20
53.58379327584097
 10
856.6019437324137
 20
53.729216738254635
 10
856.9491019588537
 20
53.85226736029697
 10
857.3044762001192
 20
53.95294514196797
 10
857.6680664562105
 20
54.031250083267636
 10
858.0398727271272
 20
54.087182184195974
 10
858.4198950128697
 20
54.12074144475297
 10
858.8081333134378
 20
54.13192786493864
 10
859.2442141003366
 20
54.117771039392935
 10
859.6625988553034
 20
54.07530056275583
 10
860.063287578338
 20
54.00451643502731
 10
860.4462802694404
 20
53.905418656207395
 10
860.8115769286109
 20
53.778007226296076
 10
861.159177555849
 20
53.62228214529335
 10
861.4890821511552
 20
53.43824341319921
 10
861.8012907145292
 20
53.22589103001367
 10
862.0931488411812
 20
52.987879400526545
 10
862.3620021263215
 20
52.726862929527655
 10
862.60785056995
 20
52.442841617016995
 10
862.8306941720667
 20
52.13581546299457
 10
863.0305329326717
 20
51.805784467460384
 10
863.2073668517648
 20
51.452748630414426
 10
863.3611959293463
 20
51.0767079518567
 10
863.492020165416
 20
50.677662431787205
 10
861.9469037772849
 20
50.313629774897706
 10
861.8379467806742
 20
50.62621753895594
 10
861.7173609630796
 20
50.9168116633271
 10
861.585146324501
 20
51.185412148011196
 10
861.4413028649384
 20
51.432018993008214
 10
861.2858305843919
 20
51.65663219831816
 10
861.1187294828613
 20
51.859251763941025
 10
860.9399995603468
 20
52.03987768987682
 10
860.7496408168483
 20
52.19850997612554
 10
860.5471476514535
 20
52.3369182258804
 10
860.3320144632502
 20
52.456872042334616
 10
860.104241252238
 20
52.558371425488176
 10
859.8638280184173
 20
52.641416375341095
 10
859.6107747617879
 20
52.70600689189336
 10
859.3450814823498
 20
52.752142975144984
 10
859.066748180103
 20
52.779824625095955
 10
858.7757748550475
 20
52.78905184174628
 10
858.4410038509601
 20
52.77881342327126
 10
858.1202632721903
 20
52.74809816784621
 10
857.813553118738
 20
52.69690607547113
 10
857.5208733906035
 20
52.625237146146006
 10
857.2422240877864
 20
52.533091379870854
 10
856.9776052102872
 20
52.42046877664566
 10
856.7270167581054
 20
52.28736933647044
 10
856.4904587312412
 20
52.13379305934519
 10
856.2694479324318
 20
51.96296315108611
 10
856.0655011644141
 20
51.77810281750941
 10
855.8786184271879
 20
51.5792120586151
 10
855.7087997207536
 20
51.36629087440317
 10
855.5560450451109
 20
51.13933926487362
 10
855.42035440026
 20
50.89835723002646
 10
855.3017277862007
 20
50.643344769861685
 10
855.200165202933
 20
50.37430188437929
 10
855.0373617091574
 20
49.817888080341945
 10
854.9210734993177
 20
49.25287906079471
 10
854.8513005734138
 20
48.67927482573758
 10
854.8280429314459
 20
48.09707537517056
 10
854.8555981811688
 20
47.36471245363663
 10
854.9382639303375
 20
46.680381618775606
 10
855.0760401789519
 20
46.04408287058751
 10
855.2689269270121
 20
45.45581620907233
 10
855.3867951397029
 20
45.18260211606308
 10
855.5199577799922
 20
44.927210455214045
 10
855.66841484788
 20
44.689641226525225
 10
855.8321663433661
 20
44.46989442999662
 10
856.0112122664508
 20
44.26797006562823
 10
856.205552617134
 20
44.083868133420054
 10
856.4151873954157
 20
43.91758863337209
 10
856.6401166012959
 20
43.769131565484344
 10
857.1148758579892
 20
43.524926324820974
 10
857.6088479493518
 20
43.35049401006142
 10
858.1220328753835
 20
43.24583462120569
 10
858.6544306360844
 20
43.21094815825378
 10
858.97776241953
 20
43.222829779693924
 10
859.2884541801669
 20
43.25847464401435
 10
859.5865059179952
 20
43.317882751215066
 10
859.8719176330148
 20
43.40105410129607
 10
860.1446893252257
 20
43.50798869425736
 10
860.404820994628
 20
43.63868653009894
 10
860.6523126412217
 20
43.793147608820796
 10
860.8871642650066
 20
43.97137193042295
 10
861.1064686607369
 20
44.17298029422112
 10
861.3073186231666
 20
44.39759349953106
 10
861.4897141522956
 20
44.645211546352776
 10
861.653655248124
 20
44.915834434686246
 10
861.7991419106517
 20
45.209462164531494
 10
861.9261741398788
 20
45.5260947358885
 10
862.0347519358052
 20
45.865732148757274
 10
862.1248752984309
 20
46.22837440313782
  0
CIRCLE
  5
4C
330
17
100
AcDbEntity
  8
cut
 62
5
420
255
100
AcDbCircle
 10
947.4000003576273
 20
42.00000367427492
 30
0.0
 40
10.9
  0
LWPOLYLINE
  5
4D
330
17
100
AcDbEntity
  8
cut
 62
5
420
255
100
AcDbPolyline
 90
4
 70
1
 10
923.4000003576269
 20
42.00000367427447
 42
1.0157787888818275
 10
971.3882375877968
 20
42.75131891378942
 10
971.3882375877968
 20
279.1252354466046
 42
0.9809821123639358
 10
923.3999999999997
 20
278.5962532441049
  0
CIRCLE
  5
4E
330
17
100
AcDbEntity
  8
cut
 62
5
420
255
100
AcDbCircle
 10
947.4000115334978
 20
278.400044980292
 30
0.0
 40
10.9
  0
LWPOLYLINE
  5
4F
330
17
100
AcDbEntity
  8
line engraving
 62
1
420
16711680
100
AcDbPolyline
 90
7
 70
0
 10
953.3297108129884
 20
212.03056274105262
 10
941.4703358129884
 20
212.03056274105262
 10
941.4703358129884
 20
213.59994797297622
 10
951.9302074876133
 20
213.59994797297622
 10
951.9302074876133
 20
219.44064971240323
 10
953.3297108129884
 20
219.44064971240323
 10
953.3297108129884
 20
212.03056274105262
  0
LWPOLYLINE
  5
50
330
17
100
AcDbEntity
  8
line engraving
 62
1
420
16711680
100
AcDbPolyline
 90
5
 70
0
 10
943.1448860346801
 20
221.13137916329
 10
941.4703358129884
 20
221.13137916329
 10
941.4703358129884
 20
222.58750979084797
 10
943.1448860346801
 20
222.58750979084797
 10
943.1448860346801
 20
221.13137916329
  0
LWPOLYLINE
  5
51
330
17
100
AcDbEntity
  8
line engraving
 62
1
420
16711680
100
AcDbPolyline
 90
5
 70
0
 10
953.3297108129884
 20
221.13137916329
 10
944.7385401103963
 20
221.13137916329
 10
944.7385401103963
 20
222.58750979084797
 10
953.3297108129884
 20
222.58750979084797
 10
953.3297108129884
 20
221.13137916329
  0
LWPOLYLINE
  5
52
330
17
100
AcDbEntity
  8
line engraving
 62
1
420
16711680
100
AcDbPolyline
 90
61
 70
0
 10
953.3297108129884
 20
224.80406419057513
 10
944.7385401103963
 20
224.80406419057513
 10
944.7385401103963
 20
226.11458175537732
 10
945.9600719146256
 20
226.11458175537732
 10
945.6282713158981
 20
226.3643486060765
 10
945.3407107970011
 20
226.6404067042177
 10
945.0973903579343
 20
226.94275604980092
 10
944.8983099986979
 20
227.27139664282615
 10
944.7434697192916
 20
227.6263284832934
 10
944.6328695197159
 20
228.0075515712027
 10
944.5665093999704
 20
228.415065906554
 10
944.5443893600552
 20
228.8488714893473
 10
944.5618325915311
 20
229.22933617588805
 10
944.6141622859591
 20
229.59412723414607
 10
944.7013784433389
 20
229.94324466412132
 10
944.8234810636706
 20
230.27668846581386
 10
944.9738973350936
 20
230.581818616415
 10
945.1460544457476
 20
230.84599509311607
 10
945.3399523956325
 20
231.06921789591706
 10
945.5555911847483
 20
231.25148702481798
 10
945.7927180126388
 20
231.40114489487254
 10
946.0510800788479
 20
231.52653392113447
 10
946.3306773833755
 20
231.62765410360376
 10
946.6315099262217
 20
231.70450544228044
 10
946.8716703595863
 20
231.7398975061447
 10
947.1876709298028
 20
231.76517755176204
 10
947.5795116368714
 20
231.78034557913242
 10
948.047192480792
 20
231.7854015882559
 10
953.3297108129884
 20
231.7854015882559
 10
953.3297108129884
 20
230.3292709606979
 10
948.1038197829748
 20
230.3292709606979
 10
947.6869518307451
 20
230.3186533415386
 10
947.3262055797859
 20
230.2868004840608
 10
947.0215810300971
 20
230.2337123882644
 10
946.7730781816788
 20
230.15938905414947
 10
946.5637594039673
 20
230.058016071224
 10
946.3766870663991
 20
229.923779028996
 10
946.2118611689741
 20
229.75667792746546
 10
946.0692817116924
 20
229.55671276663242
 10
945.9542575041336
 20
229.3309619592697
 10
945.8720973558773
 20
229.08650391815016
 10
945.8228012669234
 20
228.82333864327381
 10
945.8063692372722
 20
228.54146613464061
 10
945.8155964539225
 20
228.31287132214595
 10
945.8432781038734
 20
228.09223972402071
 10
945.8894141871251
 20
227.87957134026496
 10
945.9540047036774
 20
227.67486617087866
 10
946.0370496535303
 20
227.4781242158618
 10
946.1385490366838
 20
227.28934547521445
 10
946.258502853138
 20
227.1085299489365
 10
946.3969111028929
 20
226.93567763702805
 10
946.5611049991775
 20
226.77736135134955
 10
946.7584157552207
 20
226.6401539037615
 10
946.9888433710227
 20
226.52405529426395
 10
947.2523878465832
 20
226.42906552285683
 10
947.5490491819025
 20
226.35518458954022
 10
947.8788273769806
 20
226.30241249431404
 10
948.2417224318173
 20
226.27074923717834
 10
948.6377343464127
 20
226.2601948181331
 10
953.3297108129884
 20
226.2601948181331
 10
953.3297108129884
 20
224.80406419057513
  0
LWPOLYLINE
  5
53
330
17
100
AcDbEntity
  8
line engraving
 62
1
420
16711680
100
AcDbPolyline
 90
13
 70
0
 10
953.3297108129884
 20
234.02622483177566
 10
941.4703358129884
 20
234.02622483177566
 10
941.4703358129884
 20
235.48235545933366
 10
948.2332536165355
 20
235.48235545933366
 10
944.7385401103963
 20
238.92853127788754
 10
944.7385401103963
 20
240.81341147911536
 10
947.9258482618288
 20
237.52902795251237
 10
953.3297108129884
 20
241.1450856776147
 10
953.3297108129884
 20
239.34919123695985
 10
948.9370500865218
 20
236.50973651322178
 10
949.9239830674222
 20
235.48235545933366
 10
953.3297108129884
 20
235.48235545933366
 10
953.3297108129884
 20
234.02622483177566
  0
LWPOLYLINE
  5
54
330
17
100
AcDbEntity
  8
line engraving
 62
1
420
16711680
100
AcDbPolyline
 90
11
 70
0
 10
953.3297108129884
 20
242.5688578467825
 10
941.4703358129884
 20
242.5688578467825
 10
941.4703358129884
 20
250.56948668375384
 10
942.8698391383635
 20
250.56948668375384
 10
942.8698391383635
 20
244.1382430787061
 10
946.5425241656487
 20
244.1382430787061
 10
946.5425241656487
 20
249.7038979218166
 10
947.9420274910239
 20
249.7038979218166
 10
947.9420274910239
 20
244.1382430787061
 10
953.3297108129884
 20
244.1382430787061
 10
953.3297108129884
 20
242.5688578467825
  0
CIRCLE
  5
55
330
17
100
AcDbEntity
  8
cut
 62
5
420
255
100
AcDbCircle
 10
1001.4000469836049
 20
42.00000367427492
 30
0.0
 40
10.9
  0
LWPOLYLINE
  5
56
330
17
100
AcDbEntity
  8
cut
 62
5
420
255
100
AcDbPolyline
 90
4
 70
1
 10
977.4000469836045
 20
42.00000367427447
 42
1.0157787888818275
 10
1025.3882842137743
 20
42.75131891378942
 10
1025.3882842137743
 20
279.1252354466046
 42
0.9809821123639358
 10
977.4000466259773
 20
278.5962532441049
  0
CIRCLE
  5
57
330
17
100
AcDbEntity
  8
cut
 62
5
420
255
100
AcDbCircle
 10
1001.4000581594754
 20
278.400044980292
 30
0.0
 40
10.9
  0
LWPOLYLINE
  5
58
330
17
100
AcDbEntity
  8
line engraving
 62
1
420
16711680
100
AcDbPolyline
 90
7
 70
0
 10
1007.329757438966
 20
212.03056274105262
 10
995.470382438966
 20
212.03056274105262
 10
995.470382438966
 20
213.59994797297622
 10
1005.9302541135909
 20
213.59994797297622
 10
1005.9302541135909
 20
219.44064971240323
 10
1007.329757438966
 20
219.44064971240323
 10
1007.329757438966
 20
212.03056274105262
  0
LWPOLYLINE
  5
59
330
17
100
AcDbEntity
  8
line engraving
 62
1
420
16711680
100
AcDbPolyline
 90
5
 70
0
 10
997.1449326606577
 20
221.13137916329
 10
995.470382438966
 20
221.13137916329
 10
995.470382438966
 20
222.58750979084797
 10
997.1449326606577
 20
222.58750979084797
 10
997.1449326606577
 20
221.13137916329
  0
LWPOLYLINE
  5
5A
330
17
100
AcDbEntity
  8
line engraving
 62
1
420
16711680
100
AcDbPolyline
 90
5
 70
0
 10
1007.329757438966
 20
221.13137916329
 10
998.7385867363739
 20
221.13137916329
 10
998.7385867363739
 20
222.58750979084797
 10
1007.329757438966
 20
222.58750979084797
 10
1007.329757438966
 20
221.13137916329
  0
LWPOLYLINE
  5
5B
330
17
100
AcDbEntity
  8
line engraving
 62
1
420
16711680
100
AcDbPolyline
 90
61
 70
0
 10
1007.329757438966
 20
224.80406419057513
 10
998.7385867363739
 20
224.80406419057513
 10
998.7385867363739
 20
226.11458175537732
 10
999.9601185406032
 20
226.11458175537732
 10
999.6283179418757
 20
226.3643486060765
 10
999.3407574229786
 20
226.6404067042177
 10
999.0974369839118
 20
226.94275604980092
 10
998.8983566246754
 20
227.27139664282615
 10
998.7435163452692
 20
227.6263284832934
 10
998.6329161456935
 20
228.0075515712027
 10
998.566556025948
 20
228.415065906554
 10
998.5444359860328
 20
228.8488714893473
 10
998.5618792175087
 20
229.22933617588805
 10
998.6142089119367
 20
229.59412723414607
 10
998.7014250693164
 20
229.94324466412132
 10
998.8235276896481
 20
230.27668846581386
 10
998.9739439610712
 20
230.581818616415
 10
999.1461010717252
 20
230.84599509311607
 10
999.3399990216101
 20
231.06921789591706
 10
999.5556378107259
 20
231.25148702481798
 10
999.7927646386164
 20
231.40114489487254
 10
1000.0511267048255
 20
231.52653392113447
 10
1000.330724009353
 20
231.62765410360376
 10
1000.6315565521993
 20
231.70450544228044
 10
1000.8717169855639
 20
231.7398975061447
 10
1001.1877175557804
 20
231.76517755176204
 10
1001.579558262849
 20
231.78034557913242
 10
1002.0472391067696
 20
231.7854015882559
 10
1007.329757438966
 20
231.7854015882559
 10
1007.329757438966
 20
230.3292709606979
 10
1002.1038664089524
 20
230.3292709606979
 10
1001.6869984567227
 20
230.3186533415386
 10
1001.3262522057635
 20
230.2868004840608
 10
1001.0216276560747
 20
230.2337123882644
 10
1000.7731248076564
 20
230.15938905414947
 10
1000.5638060299449
 20
230.058016071224
 10
1000.3767336923767
 20
229.923779028996
 10
1000.2119077949517
 20
229.75667792746546
 10
1000.06932833767
 20
229.55671276663242
 10
999.9543041301112
 20
229.3309619592697
 10
999.8721439818548
 20
229.08650391815016
 10
999.822847892901
 20
228.82333864327381
 10
999.8064158632498
 20
228.54146613464061
 10
999.8156430799
 20
228.31287132214595
 10
999.843324729851
 20
228.09223972402071
 10
999.8894608131027
 20
227.87957134026496
 10
999.9540513296549
 20
227.67486617087866
 10
1000.0370962795079
 20
227.4781242158618
 10
1000.1385956626614
 20
227.28934547521445
 10
1000.2585494791156
 20
227.1085299489365
 10
1000.3969577288705
 20
226.93567763702805
 10
1000.561151625155
 20
226.77736135134955
 10
1000.7584623811982
 20
226.6401539037615
 10
1000.9888899970002
 20
226.52405529426395
 10
1001.2524344725608
 20
226.42906552285683
 10
1001.5490958078801
 20
226.35518458954022
 10
1001.8788740029581
 20
226.30241249431404
 10
1002.2417690577948
 20
226.27074923717834
 10
1002.6377809723903
 20
226.2601948181331
 10
1007.329757438966
 20
226.2601948181331
 10
1007.329757438966
 20
224.80406419057513
  0
LWPOLYLINE
  5
5C
330
17
100
AcDbEntity
  8
line engraving
 62
1
420
16711680
100
AcDbPolyline
 90
13
 70
0
 10
1007.329757438966
 20
234.02622483177566
 10
995.470382438966
 20
234.02622483177566
 10
995.470382438966
 20
235.48235545933366
 10
1002.2333002425131
 20
235.48235545933366
 10
998.7385867363739
 20
238.92853127788754
 10
998.7385867363739
 20
240.81341147911536
 10
1001.9258948878064
 20
237.52902795251237
 10
1007.329757438966
 20
241.1450856776147
 10
1007.329757438966
 20
239.34919123695985
 10
1002.9370967124994
 20
236.50973651322178
 10
1003.9240296933998
 20
235.48235545933366
 10
1007.329757438966
 20
235.48235545933366
 10
1007.329757438966
 20
234.02622483177566
  0
LWPOLYLINE
  5
5D
330
17
100
AcDbEntity
  8
line engraving
 62
1
420
16711680
100
AcDbPolyline
 90
11
 70
0
 10
1007.329757438966
 20
242.5688578467825
 10
995.470382438966
 20
242.5688578467825
 10
995.470382438966
 20
250.56948668375384
 10
996.8698857643411
 20
250.56948668375384
 10
996.8698857643411
 20
244.1382430787061
 10
1000.5425707916263
 20
244.1382430787061
 10
1000.5425707916263
 20
249.7038979218166
 10
1001.9420741170014
 20
249.7038979218166
 10
1001.9420741170014
 20
244.1382430787061
 10
1007.329757438966
 20
244.1382430787061
 10
1007.329757438966
 20
242.5688578467825
  0
CIRCLE
  5
5E
330
17
100
AcDbEntity
  8
cut
 62
5
420
255
100
AcDbCircle
 10
1055.400093609582
 20
42.00000367427492
 30
0.0
 40
10.9
  0
LWPOLYLINE
  5
5F
330
17
100
AcDbEntity
  8
cut
 62
5
420
255
100
AcDbPolyline
 90
4
 70
1
 10
1031.4000936095817
 20
42.00000367427447
 42
1.0157787888818275
 10
1079.3883308397515
 20
42.75131891378942
 10
1079.3883308397515
 20
279.1252354466046
 42
0.9809821123639358
 10
1031.4000932519543
 20
278.5962532441049
  0
CIRCLE
  5
60
330
17
100
AcDbEntity
  8
cut
 62
5
420
255
100
AcDbCircle
 10
1055.4001047854526
 20
278.400044980292
 30
0.0
 40
10.9
  0
LWPOLYLINE
  5
61
330
17
100
AcDbEntity
  8
line engraving
 62
1
420
16711680
100
AcDbPolyline
 90
7
 70
0
 10
1061.3298040649431
 20
212.03056274105262
 10
1049.4704290649431
 20
212.03056274105262
 10
1049.4704290649431
 20
213.59994797297622
 10
1059.9303007395679
 20
213.59994797297622
 10
1059.9303007395679
 20
219.44064971240323
 10
1061.3298040649431
 20
219.44064971240323
 10
1061.3298040649431
 20
212.03056274105262
  0
LWPOLYLINE
  5
62
330
17
100
AcDbEntity
  8
line engraving
 62
1
420
16711680
100
AcDbPolyline
 90
5
 70
0
 10
1051.144979286635
 20
221.13137916329
 10
1049.4704290649431
 20
221.13137916329
 10
1049.4704290649431
 20
222.58750979084797
 10
1051.144979286635
 20
222.58750979084797
 10
1051.144979286635
 20
221.13137916329
  0
LWPOLYLINE
  5
63
330
17
100
AcDbEntity
  8
line engraving
 62
1
420
16711680
100
AcDbPolyline
 90
5
 70
0
 10
1061.3298040649431
 20
221.13137916329
 10
1052.738633362351
 20
221.13137916329
 10
1052.738633362351
 20
222.58750979084797
 10
1061.3298040649431
 20
222.58750979084797
 10
1061.3298040649431
 20
221.13137916329
  0
LWPOLYLINE
  5
64
330
17
100
AcDbEntity
  8
line engraving
 62
1
420
16711680
100
AcDbPolyline
 90
61
 70
0
 10
1061.3298040649431
 20
224.80406419057513
 10
1052.738633362351
 20
224.80406419057513
 10
1052.738633362351
 20
226.11458175537732
 10
1053.9601651665803
 20
226.11458175537732
 10
1053.628364567853
 20
226.3643486060765
 10
1053.3408040489558
 20
226.6404067042177
 10
1053.097483609889
 20
226.94275604980092
 10
1052.8984032506526
 20
227.27139664282615
 10
1052.7435629712463
 20
227.6263284832934
 10
1052.6329627716705
 20
228.0075515712027
 10
1052.566602651925
 20
228.415065906554
 10
1052.54448261201
 20
228.8488714893473
 10
1052.5619258434858
 20
229.22933617588805
 10
1052.6142555379138
 20
229.59412723414607
 10
1052.7014716952935
 20
229.94324466412132
 10
1052.8235743156251
 20
230.27668846581386
 10
1052.9739905870483
 20
230.581818616415
 10
1053.1461476977024
 20
230.84599509311607
 10
1053.3400456475872
 20
231.06921789591706
 10
1053.555684436703
 20
231.25148702481798
 10
1053.7928112645934
 20
231.40114489487254
 10
1054.0511733308026
 20
231.52653392113447
 10
1054.3307706353303
 20
231.62765410360376
 10
1054.6316031781764
 20
231.70450544228044
 10
1054.871763611541
 20
231.7398975061447
 10
1055.1877641817575
 20
231.76517755176204
 10
1055.579604888826
 20
231.78034557913242
 10
1056.0472857327466
 20
231.7854015882559
 10
1061.3298040649431
 20
231.7854015882559
 10
1061.3298040649431
 20
230.3292709606979
 10
1056.1039130349295
 20
230.3292709606979
 10
1055.6870450826998
 20
230.3186533415386
 10
1055.3262988317406
 20
230.2868004840608
 10
1055.0216742820517
 20
230.2337123882644
 10
1054.7731714336335
 20
230.15938905414947
 10
1054.563852655922
 20
230.058016071224
 10
1054.3767803183537
 20
229.923779028996
 10
1054.2119544209288
 20
229.75667792746546
 10
1054.069374963647
 20
229.55671276663242
 10
1053.9543507560884
 20
229.3309619592697
 10
1053.872190607832
 20
229.08650391815016
 10
1053.8228945188782
 20
228.82333864327381
 10
1053.806462489227
 20
228.54146613464061
 10
1053.8156897058773
 20
228.31287132214595
 10
1053.8433713558284
 20
228.09223972402071
 10
1053.8895074390798
 20
227.87957134026496
 10
1053.9540979556323
 20
227.67486617087866
 10
1054.037142905485
 20
227.4781242158618
 10
1054.1386422886387
 20
227.28934547521445
 10
1054.258596105093
 20
227.1085299489365
 10
1054.3970043548477
 20
226.93567763702805
 10
1054.5611982511323
 20
226.77736135134955
 10
1054.7585090071755
 20
226.6401539037615
 10
1054.9889366229775
 20
226.52405529426395
 10
1055.252481098538
 20
226.42906552285683
 10
1055.5491424338572
 20
226.35518458954022
 10
1055.8789206289352
 20
226.30241249431404
 10
1056.241815683772
 20
226.27074923717834
 10
1056.6378275983675
 20
226.2601948181331
 10
1061.3298040649431
 20
226.2601948181331
 10
1061.3298040649431
 20
224.80406419057513
  0
LWPOLYLINE
  5
65
330
17
100
AcDbEntity
  8
line engraving
 62
1
420
16711680
100
AcDbPolyline
 90
13
 70
0
 10
1061.3298040649431
 20
234.02622483177566
 10
1049.4704290649431
 20
234.02622483177566
 10
1049.4704290649431
 20
235.48235545933366
 10
1056.2333468684901
 20
235.48235545933366
 10
1052.738633362351
 20
238.92853127788754
 10
1052.738633362351
 20
240.81341147911536
 10
1055.9259415137835
 20
237.52902795251237
 10
1061.3298040649431
 20
241.1450856776147
 10
1061.3298040649431
 20
239.34919123695985
 10
1056.9371433384765
 20
236.50973651322178
 10
1057.924076319377
 20
235.48235545933366
 10
1061.3298040649431
 20
235.48235545933366
 10
1061.3298040649431
 20
234.02622483177566
  0
LWPOLYLINE
  5
66
330
17
100
AcDbEntity
  8
line engraving
 62
1
420
16711680
100
AcDbPolyline
 90
11
 70
0
 10
1061.3298040649431
 20
242.5688578467825
 10
1049.4704290649431
 20
242.5688578467825
 10
1049.4704290649431
 20
250.56948668375384
 10
1050.8699323903184
 20
250.56948668375384
 10
1050.8699323903184
 20
244.1382430787061
 10
1054.5426174176034
 20
244.1382430787061
 10
1054.5426174176034
 20
249.7038979218166
 10
1055.9421207429787
 20
249.7038979218166
 10
1055.9421207429787
 20
244.1382430787061
 10
1061.3298040649431
 20
244.1382430787061
 10
1061.3298040649431
 20
242.5688578467825
  0
CIRCLE
  5
67
330
17
100
AcDbEntity
  8
cut
 62
5
420
255
100
AcDbCircle
 10
1109.4001402355595
 20
42.00000367427492
 30
0.0
 40
10.9
  0
LWPOLYLINE
  5
68
330
17
100
AcDbEntity
  8
cut
 62
5
420
255
100
AcDbPolyline
 90
4
 70
1
 10
1085.4001402355593
 20
42.00000367427447
 42
1.0157787888818275
 10
1133.388377465729
 20
42.75131891378942
 10
1133.388377465729
 20
279.1252354466046
 42
0.9809821123639358
 10
1085.400139877932
 20
278.5962532441049
  0
CIRCLE
  5
69
330
17
100
AcDbEntity
  8
cut
 62
5
420
255
100
AcDbCircle
 10
1109.4001514114302
 20
278.400044980292
 30
0.0
 40
10.9
  0
LWPOLYLINE
  5
6A
330
17
100
AcDbEntity
  8
line engraving
 62
1
420
16711680
100
AcDbPolyline
 90
7
 70
0
 10
1115.3298506909207
 20
212.03056274105262
 10
1103.4704756909207
 20
212.03056274105262
 10
1103.4704756909207
 20
213.59994797297622
 10
1113.9303473655455
 20
213.59994797297622
 10
1113.9303473655455
 20
219.44064971240323
 10
1115.3298506909207
 20
219.44064971240323
 10
1115.3298506909207
 20
212.03056274105262
  0
LWPOLYLINE
  5
6B
330
17
100
AcDbEntity
  8
line engraving
 62
1
420
16711680
100
AcDbPolyline
 90
5
 70
0
 10
1105.1450259126125
 20
221.13137916329
 10
1103.4704756909207
 20
221.13137916329
 10
1103.4704756909207
 20
222.58750979084797
 10
1105.1450259126125
 20
222.58750979084797
 10
1105.1450259126125
 20
221.13137916329
  0
LWPOLYLINE
  5
6C
330
17
100
AcDbEntity
  8
line engraving
 62
1
420
16711680
100
AcDbPolyline
 90
5
 70
0
 10
1115.3298506909207
 20
221.13137916329
 10
1106.7386799883286
 20
221.13137916329
 10
1106.7386799883286
 20
222.58750979084797
 10
1115.3298506909207
 20
222.58750979084797
 10
1115.3298506909207
 20
221.13137916329
  0
LWPOLYLINE
  5
6D
330
17
100
AcDbEntity
  8
line engraving
 62
1
420
16711680
100
AcDbPolyline
 90
61
 70
0
 10
1115.3298506909207
 20
224.80406419057513
 10
1106.7386799883286
 20
224.80406419057513
 10
1106.7386799883286
 20
226.11458175537732
 10
1107.9602117925579
 20
226.11458175537732
 10
1107.6284111938305
 20
226.3643486060765
 10
1107.3408506749333
 20
226.6404067042177
 10
1107.0975302358665
 20
226.94275604980092
 10
1106.8984498766301
 20
227.27139664282615
 10
1106.743609597224
 20
227.6263284832934
 10
1106.633009397648
 20
228.0075515712027
 10
1106.5666492779026
 20
228.415065906554
 10
1106.5445292379875
 20
228.8488714893473
 10
1106.5619724694634
 20
229.22933617588805
 10
1106.6143021638914
 20
229.59412723414607
 10
1106.7015183212711
 20
229.94324466412132
 10
1106.8236209416027
 20
230.27668846581386
 10
1106.974037213026
 20
230.581818616415
 10
1107.14619432368
 20
230.84599509311607
 10
1107.3400922735648
 20
231.06921789591706
 10
1107.5557310626805
 20
231.25148702481798
 10
1107.792857890571
 20
231.40114489487254
 10
1108.0512199567802
 20
231.52653392113447
 10
1108.3308172613079
 20
231.62765410360376
 10
1108.631649804154
 20
231.70450544228044
 10
1108.8718102375185
 20
231.7398975061447
 10
1109.187810807735
 20
231.76517755176204
 10
1109.5796515148036
 20
231.78034557913242
 10
1110.0473323587241
 20
231.7854015882559
 10
1115.3298506909207
 20
231.7854015882559
 10
1115.3298506909207
 20
230.3292709606979
 10
1110.103959660907
 20
230.3292709606979
 10
1109.6870917086774
 20
230.3186533415386
 10
1109.3263454577182
 20
230.2868004840608
 10
1109.0217209080292
 20
230.2337123882644
 10
1108.773218059611
 20
230.15938905414947
 10
1108.5638992818995
 20
230.058016071224
 10
1108.3768269443312
 20
229.923779028996
 10
1108.2120010469064
 20
229.75667792746546
 10
1108.0694215896247
 20
229.55671276663242
 10
1107.954397382066
 20
229.3309619592697
 10
1107.8722372338095
 20
229.08650391815016
 10
1107.8229411448558
 20
228.82333864327381
 10
1107.8065091152046
 20
228.54146613464061
 10
1107.8157363318549
 20
228.31287132214595
 10
1107.843417981806
 20
228.09223972402071
 10
1107.8895540650574
 20
227.87957134026496
 10
1107.9541445816099
 20
227.67486617087866
 10
1108.0371895314627
 20
227.4781242158618
 10
1108.1386889146163
 20
227.28934547521445
 10
1108.2586427310705
 20
227.1085299489365
 10
1108.3970509808253
 20
226.93567763702805
 10
1108.5612448771099
 20
226.77736135134955
 10
1108.758555633153
 20
226.6401539037615
 10
1108.988983248955
 20
226.52405529426395
 10
1109.2525277245156
 20
226.42906552285683
 10
1109.5491890598348
 20
226.35518458954022
 10
1109.8789672549128
 20
226.30241249431404
 10
1110.2418623097496
 20
226.27074923717834
 10
1110.637874224345
 20
226.2601948181331
 10
1115.3298506909207
 20
226.2601948181331
 10
1115.3298506909207
 20
224.80406419057513
  0
LWPOLYLINE
  5
6E
330
17
100
AcDbEntity
  8
line engraving
 62
1
420
16711680
100
AcDbPolyline
 90
13
 70
0
 10
1115.3298506909207
 20
234.02622483177566
 10
1103.4704756909207
 20
234.02622483177566
 10
1103.4704756909207
 20
235.48235545933366
 10
1110.2333934944677
 20
235.48235545933366
 10
1106.7386799883286
 20
238.92853127788754
 10
1106.7386799883286
 20
240.81341147911536
 10
1109.925988139761
 20
237.52902795251237
 10
1115.3298506909207
 20
241.1450856776147
 10
1115.3298506909207
 20
239.34919123695985
 10
1110.937189964454
 20
236.50973651322178
 10
1111.9241229453546
 20
235.48235545933366
 10
1115.3298506909207
 20
235.48235545933366
 10
1115.3298506909207
 20
234.02622483177566
  0
LWPOLYLINE
  5
6F
330
17
100
AcDbEntity
  8
line engraving
 62
1
420
16711680
100
AcDbPolyline
 90
11
 70
0
 10
1115.3298506909207
 20
242.5688578467825
 10
1103.4704756909207
 20
242.5688578467825
 10
1103.4704756909207
 20
250.56948668375384
 10
1104.869979016296
 20
250.56948668375384
 10
1104.869979016296
 20
244.1382430787061
 10
1108.542664043581
 20
244.1382430787061
 10
1108.542664043581
 20
249.7038979218166
 10
1109.9421673689562
 20
249.7038979218166
 10
1109.9421673689562
 20
244.1382430787061
 10
1115.3298506909207
 20
244.1382430787061
 10
1115.3298506909207
 20
242.5688578467825
  0
CIRCLE
  5
70
330
17
100
AcDbEntity
  8
cut
 62
5
420
255
100
AcDbCircle
 10
42.00000035762753
 20
332.40003662414574
 30
0.0
 40
10.9
  0
LWPOLYLINE
  5
71
330
17
100
AcDbEntity
  8
cut
 62
5
420
255
100
AcDbPolyline
 90
4
 70
1
 10
18.000000357627187
 20
332.4000366241453
 42
1.0157787888818275
 10
65.98823758779702
 20
333.15135186366024
 10
65.98823758779702
 20
569.5252683964754
 42
0.9809821123639358
 10
18.0
 20
568.9962861939757
  0
CIRCLE
  5
72
330
17
100
AcDbEntity
  8
cut
 62
5
420
255
100
AcDbCircle
 10
42.00001153349808
 20
568.8000779301628
 30
0.0
 40
10.9
  0
LWPOLYLINE
  5
73
330
17
100
AcDbEntity
  8
line engraving
 62
1
420
16711680
100
AcDbPolyline
 90
7
 70
0
 10
47.929710812988674
 20
502.43059569092344
 10
36.070335812988674
 20
502.43059569092344
 10
36.070335812988674
 20
503.99998092284704
 10
46.5302074876135
 20
503.99998092284704
 10
46.5302074876135
 20
509.84068266227405
 10
47.929710812988674
 20
509.84068266227405
 10
47.929710812988674
 20
502.43059569092344
  0
LWPOLYLINE
  5
74
330
17
100
AcDbEntity
  8
line engraving
 62
1
420
16711680
100
AcDbPolyline
 90
5
 70
0
 10
37.74488603468035
 20
511.5314121131608
 10
36.070335812988674
 20
511.5314121131608
 10
36.070335812988674
 20
512.9875427407188
 10
37.74488603468035
 20
512.9875427407188
 10
37.74488603468035
 20
511.5314121131608
  0
LWPOLYLINE
  5
75
330
17
100
AcDbEntity
  8
line engraving
 62
1
420
16711680
100
AcDbPolyline
 90
5
 70
0
 10
47.929710812988674
 20
511.5314121131608
 10
39.338540110396586
 20
511.5314121131608
 10
39.338540110396586
 20
512.9875427407188
 10
47.929710812988674
 20
512.9875427407188
 10
47.929710812988674
 20
511.5314121131608
  0
LWPOLYLINE
  5
76
330
17
100
AcDbEntity
  8
line engraving
 62
1
420
16711680
100
AcDbPolyline
 90
61
 70
0
 10
47.929710812988674
 20
515.2040971404459
 10
39.338540110396586
 20
515.2040971404459
 10
39.338540110396586
 20
516.5146147052482
 10
40.56007191462578
 20
516.5146147052482
 10
40.228271315898375
 20
516.7643815559474
 10
39.940710797001294
 20
517.0404396540886
 10
39.69739035793453
 20
517.3427889996717
 10
39.49830999869808
 20
517.671429592697
 10
39.34346971929196
 20
518.0263614331642
 10
39.23286951971616
 20
518.4075845210735
 10
39.16650939997068
 20
518.8150988564248
 10
39.14438936005552
 20
519.2489044392181
 10
39.16183259153148
 20
519.6293691257589
 10
39.21416228595934
 20
519.9941601840169
 10
39.30137844333912
 20
520.3432776139922
 10
39.4234810636708
 20
520.6767214156847
 10
39.57389733509389
 20
520.9818515662859
 10
39.74605444574789
 20
521.2460280429868
 10
39.93995239563277
 20
521.4692508457879
 10
40.155591184748566
 20
521.6515199746888
 10
40.39271801263909
 20
521.8011778447434
 10
40.65108007884815
 20
521.9265668710053
 10
40.93067738337578
 20
522.0276870534747
 10
41.23150992622196
 20
522.1045383921513
 10
41.47167035958656
 20
522.1399304560156
 10
41.787670929803134
 20
522.1652105016328
 10
42.17951163687169
 20
522.1803785290033
 10
42.64719248079222
 20
522.1854345381267
 10
47.929710812988674
 20
522.1854345381267
 10
47.929710812988674
 20
520.7293039105688
 10
42.70381978297503
 20
520.7293039105688
 10
42.28695183074532
 20
520.7186862914095
 10
41.92620557978608
 20
520.6868334339317
 10
41.6215810300973
 20
520.6337453381353
 10
41.373078181678984
 20
520.5594220040203
 10
41.163759403967525
 20
520.4580490210948
 10
40.976687066399315
 20
520.3238119788668
 10
40.81186116897435
 20
520.1567108773363
 10
40.66928171169263
 20
519.9567457165033
 10
40.554257504133794
 20
519.7309949091406
 10
40.47209735587749
 20
519.486536868021
 10
40.4228012669237
 20
519.2233715931446
 10
40.406369237272436
 20
518.9414990845114
 10
40.41559645392276
 20
518.7129042720168
 10
40.44327810387373
 20
518.4922726738915
 10
40.489414187125355
 20
518.2796042901358
 10
40.55400470367762
 20
518.0748991207495
 10
40.63704965353054
 20
517.8781571657327
 10
40.7385490366841
 20
517.6893784250854
 10
40.85850285313831
 20
517.5085628988074
 10
40.99691110289317
 20
517.3357105868989
 10
41.16110499917771
 20
517.1773943012204
 10
41.35841575522094
 20
517.0401868536323
 10
41.58884337102287
 20
516.9240882441347
 10
41.85238784658349
 20
516.8290984727277
 10
42.14904918190281
 20
516.755217539411
 10
42.47882737698083
 20
516.7024454441848
 10
42.841722431817544
 20
516.6707821870491
 10
43.23773434641296
 20
516.6602277680039
 10
47.929710812988674
 20
516.6602277680039
 10
47.929710812988674
 20
515.2040971404459
  0
LWPOLYLINE
  5
77
330
17
100
AcDbEntity
  8
line engraving
 62
1
420
16711680
100
AcDbPolyline
 90
13
 70
0
 10
47.929710812988674
 20
524.4262577816465
 10
36.070335812988674
 20
524.4262577816465
 10
36.070335812988674
 20
525.8823884092045
 10
42.83325361653574
 20
525.8823884092045
 10
39.338540110396586
 20
529.3285642277583
 10
39.338540110396586
 20
531.2134444289862
 10
42.525848261829054
 20
527.9290609023832
 10
47.929710812988674
 20
531.5451186274855
 10
47.929710812988674
 20
529.7492241868307
 10
43.5370500865221
 20
526.9097694630926
 10
44.523983067422506
 20
525.8823884092045
 10
47.929710812988674
 20
525.8823884092045
 10
47.929710812988674
 20
524.4262577816465
  0
LWPOLYLINE
  5
78
330
17
100
AcDbEntity
  8
line engraving
 62
1
420
16711680
100
AcDbPolyline
 90
11
 70
0
 10
47.929710812988674
 20
532.9688907966533
 10
36.070335812988674
 20
532.9688907966533
 10
36.070335812988674
 20
540.9695196336247
 10
37.469839138363845
 20
540.9695196336247
 10
37.469839138363845
 20
534.5382760285769
 10
41.14252416564897
 20
534.5382760285769
 10
41.14252416564897
 20
540.1039308716875
 10
42.54202749102414
 20
540.1039308716875
 10
42.54202749102414
 20
534.5382760285769
 10
47.929710812988674
 20
534.5382760285769
 10
47.929710812988674
 20
532.9688907966533
  0
CIRCLE
  5
79
330
17
100
AcDbEntity
  8
cut
 62
5
420
255
100
AcDbCircle
 10
257.958
 20
108.00000000000003
 30
0.0
 40
3.9
  0
CIRCLE
  5
7A
330
17
100
AcDbEntity
  8
cut
 62
5
420
255
100
AcDbCircle
 10
42.0
 20
108.00000000000003
 30
0.0
 40
10.9
  0
LWPOLYLINE
  5
7B
330
17
100
AcDbEntity
  8
cut
 62
5
420
255
100
AcDbPolyline
 90
4
 70
1
 10
42.00000000000001
 20
132.00000000000003
 42
0.9999999999999999
 10
42.0
 20
84.00000000000003
 10
257.9754276326746
 20
84.00000632755047
 42
0.9992741120950986
 10
257.9754276326746
 20
131.9999936724496
  0
LWPOLYLINE
  5
7C
330
17
100
AcDbEntity
  8
line engraving
 62
1
420
16711680
100
AcDbPolyline
 90
159
 70
0
 10
59.26763778990441
 20
104.63472032742159
 10
60.707589188267306
 20
104.86122953615282
 10
60.795310946559425
 20
104.45371520080153
 10
60.93713200247262
 20
104.09676095668489
 10
61.1330523560069
 20
103.7903668038029
 10
61.383072007162255
 20
103.53453274215555
 10
61.68769655685104
 20
103.33279797812929
 10
62.04743160598559
 20
103.18870171811054
 10
62.4622771545659
 20
103.10224396209928
 10
62.932233202591995
 20
103.07342471009552
 10
63.17492164051833
 20
103.07980792161389
 10
63.40143084924957
 20
103.09895755616903
 10
63.61176082878572
 20
103.1308736137609
 10
63.805911579126786
 20
103.17555609438952
 10
63.98388310027276
 20
103.2330049980549
 10
64.14567539222365
 20
103.30322032475702
 10
64.29128845497945
 20
103.38620207449588
 10
64.42072228854016
 20
103.48195024727151
 10
64.6330746717257
 20
103.69506103182557
 10
64.78475494542965
 20
103.92586784831175
 10
64.87576310965203
 20
104.17437069673008
 10
64.90609916439281
 20
104.44056957708052
 10
64.87930231603845
 20
104.67415719858461
 10
64.79891177097535
 20
104.88145357264669
 10
64.66492752920352
 20
105.06245869926674
 10
64.47734959072297
 20
105.21717257844477
 10
64.38861663060615
 20
105.26735346899517
 10
64.27207562031028
 20
105.32082076547582
 10
64.12772655983535
 20
105.3775744678867
 10
63.955569449181354
 20
105.43761457622786
 10
63.75560428834831
 20
105.50094109049925
 10
63.5278310773362
 20
105.56755401070092
 10
63.272249816145035
 20
105.63745333683282
 10
62.988860504774806
 20
105.71063906889498
 10
62.603782209908886
 20
105.81005284828511
 10
62.249419170468016
 20
105.9060538215169
 10
61.9257713864522
 20
105.99864198859036
 10
61.63283885786144
 20
106.08781734950549
 10
61.37062158469572
 20
106.17357990426227
 10
61.13911956695506
 20
106.2559296528607
 10
60.938332804639444
 20
106.33486659530081
 10
60.768261297748886
 20
106.41039073158257
 10
60.477540773149634
 20
106.57218302353346
 10
60.22423471606403
 20
106.76228896657574
 10
60.008343126492065
 20
106.98070856070945
 10
59.82986600443374
 20
107.22744180593455
 10
59.69006735216993
 20
107.49515748902203
 10
59.590211171981494
 20
107.77652439674287
 10
59.530297463868436
 20
108.07154252909706
 10
59.510326227830745
 20
108.38021188608461
 10
59.52675825748201
 20
108.6620843947178
 10
59.5760543464358
 20
108.9333392841917
 10
59.6582144946921
 20
109.19397655450634
 10
59.773238702250936
 20
109.44399620566169
 10
59.91657656090118
 20
109.6783422285343
 10
60.0836776624317
 20
109.89195861400071
 10
60.27454200684251
 20
110.0848453620609
 10
60.48916959413361
 20
110.2570024727149
 10
60.67447232850861
 20
110.37758829030955
 10
60.89061671853674
 20
110.48856769056961
 10
61.137602764218016
 20
110.58994067349508
 10
61.41543046555243
 20
110.68170723908598
 10
61.713987804293055
 20
110.75780017639413
 10
62.02316276219295
 20
110.81215227447137
 10
62.34295533925213
 20
110.84476353331773
 10
62.67336553547058
 20
110.85563395293318
 10
63.16354561999053
 20
110.8374323200887
 10
63.622884048857344
 20
110.78282742155528
 10
64.05138082207102
 20
110.69181925733291
 10
64.44903593963156
 20
110.56440782742159
 10
64.80624298420437
 20
110.40590194140096
 10
65.11339553845488
 20
110.22161040885064
 10
65.37049360238309
 20
110.01153322977066
 10
65.577537175989
 20
109.775670404161
 10
65.74539667888804
 20
109.50593231742414
 10
65.88494253069568
 20
109.19422935496252
 10
65.99617473141191
 20
108.84056151677612
 10
66.07909328103675
 20
108.44492880286496
 10
64.65532111186894
 20
108.2507780525239
 10
64.58377858277191
 20
108.56425061817875
 10
64.46622637065134
 20
108.84131991814465
 10
64.30266447550724
 20
109.08198595242159
 10
64.0930928973396
 20
109.28624872100958
 10
63.836500434323746
 20
109.44905221478516
 10
63.53187588463497
 20
109.56534042462485
 10
63.17921924827327
 20
109.63511335052867
 10
62.77853052523865
 20
109.65837099249661
 10
62.53672688890893
 20
109.65318858314507
 10
62.31287208496751
 20
109.63764135509041
 10
62.10696611341439
 20
109.61172930833264
 10
61.919008974249564
 20
109.57545244287178
 10
61.74900066747305
 20
109.52881075870782
 10
61.59694119308484
 20
109.47180425584075
 10
61.46283055108492
 20
109.40443293427057
 10
61.34666874147331
 20
109.3266967939973
 10
61.15909080299275
 20
109.15378128197479
 10
61.025106561220916
 20
108.96670894440658
 10
60.94471601615782
 20
108.76547978129267
 10
60.917919167803454
 20
108.55009379263305
 10
60.92904238787508
 20
108.41206474356244
 10
60.962412048089945
 20
108.2811141072647
 10
61.01802814844807
 20
108.15724188373979
 10
61.09589068894943
 20
108.04044807298774
 10
61.19751647233108
 20
107.92820467044682
 10
61.32442230133006
 20
107.82607328615282
 10
61.47660817594636
 20
107.73405392010577
 10
61.65407409617999
 20
107.65214657230563
 10
61.72195101866251
 20
107.62863612988151
 10
61.816371989043226
 20
107.5985528755969
 10
61.93733700732213
 20
107.56189680945177
 10
62.08484607349923
 20
107.51866793144615
 10
62.258899187574514
 20
107.46886624158
 10
62.459496349548
 20
107.41249173985337
 10
62.68663755941967
 20
107.34954442626623
 10
62.94032281718954
 20
107.28002430081858
 10
63.31200268787828
 20
107.17922011891949
 10
63.65448410587901
 20
107.08309274545961
 10
63.967767071191716
 20
106.99164218043893
 10
64.25185158381642
 20
106.90486842385747
 10
64.50673764375311
 20
106.8227714757152
 10
64.73242525100179
 20
106.74535133601213
 10
64.92891440556245
 20
106.67260800474828
 10
65.09620510743511
 20
106.60454148192363
 10
65.38515602884115
 20
106.45817001779932
 10
65.64124289094465
 20
106.28196809984655
 10
65.86446569374564
 20
106.07593572806535
 10
66.05482443724411
 20
105.84007290245569
 10
66.20701031186042
 20
105.57412682256142
 10
66.3157145080149
 20
105.27784468792636
 10
66.38093702570761
 20
104.95122649855051
 10
66.40267786493851
 20
104.59427225443386
 10
66.37613381704031
 20
104.235548407124
 10
66.29650167334574
 20
103.88744217897343
 10
66.16378143385478
 20
103.54995356998212
 10
65.97797309856745
 20
103.22308258015009
 10
65.74211027295779
 20
102.91972203274219
 10
65.45922656249991
 20
102.65276475102323
 10
65.1293219671938
 20
102.42221073499321
 10
64.75239648703948
 20
102.22805998465215
 10
64.33881494074002
 20
102.07410450684263
 10
63.89894214699855
 20
101.96413630840726
 10
63.43277810581505
 20
101.89815538934603
 10
62.94032281718954
 20
101.87616174965896
 10
62.534135684233156
 20
101.8870321692744
 10
62.15284939620983
 20
101.91964342812076
 10
61.79646395311958
 20
101.97399552619801
 10
61.464979354962395
 20
102.05008846350617
 10
61.15839560173827
 20
102.14792224004522
 10
60.87671269344721
 20
102.26749685581517
 10
60.61993063008922
 20
102.40881231081603
 10
60.3880494116643
 20
102.57186860504778
 10
60.17854103361071
 20
102.75628653782617
 10
59.98887749136672
 20
102.96168690846694
 10
59.81905878493234
 20
103.1880697169701
 10
59.66908491430755
 20
103.43543496333564
 10
59.53895587949236
 20
103.70378264756356
 10
59.42867168048678
 20
103.99311276965385
 10
59.338232317290796
 20
104.30342532960653
 10
59.26763778990441
 20
104.63472032742159
  0
LWPOLYLINE
  5
7D
330
17
100
AcDbEntity
  8
line engraving
 62
1
420
16711680
100
AcDbPolyline
 90
50
 70
0
 10
68.133855388813
 20
98.77783935879948
 10
68.133855388813
 20
110.66148320259211
 10
69.46055218281028
 20
110.66148320259211
 10
69.46055218281028
 20
109.54511638813099
 10
69.70273501982426
 20
109.8522689423815
 10
69.96008588420864
 20
110.11846782273194
 10
70.23260477596342
 20
110.34371302918233
 10
70.52029169508859
 20
110.52800456173263
 10
70.8312362561817
 20
110.67134242038287
 10
71.17352807384029
 20
110.77372660513304
 10
71.54716714806437
 20
110.83515711598314
 10
71.95215347885393
 20
110.85563395293318
 10
72.48606804229186
 20
110.82024188906892
 10
72.9876241473396
 20
110.71406569747614
 10
73.45682179399718
 20
110.53710537815488
 10
73.89366098226458
 20
110.28936093110508
 10
74.2885352948072
 20
109.9771523677311
 10
74.63183831429049
 20
109.60679969943727
 10
74.92357004071444
 20
109.1783029262236
 10
75.16373047407903
 20
108.69166204809007
 10
75.35130841255959
 20
108.16356189514413
 10
75.48529265433143
 20
107.6106872974932
 10
75.56568319939453
 20
107.0330382551373
 10
75.5924800477489
 20
106.43061476807642
 10
75.56290239437662
 20
105.78774320802782
 10
75.4741694342598
 20
105.17773570728176
 10
75.32628116739845
 20
104.60059226583819
 10
75.11923759379255
 20
104.05631288369716
 10
74.99422776821487
 20
103.80009962136556
 10
74.85581951846001
 20
103.55930718686054
 10
74.70401284452797
 20
103.33393558018207
 10
74.53880774641874
 20
103.12398480133018
 10
74.36020422413233
 20
102.92945485030486
 10
74.16820227766874
 20
102.75034572710611
 10
73.96280190702797
 20
102.58665743173393
 10
73.74400311221001
 20
102.4383899641883
 10
73.28719268790493
 20
102.19241512033172
 10
72.81875344261587
 20
102.0167188032913
 10
72.33868537634285
 20
101.91130101306705
 10
71.84698848908586
 20
101.87616174965896
 10
71.49230944907477
 20
101.89537458432812
 10
71.1563376428205
 20
101.95301308833564
 10
70.83907307032307
 20
102.04907726168148
 10
70.54051573158245
 20
102.18356710436565
 10
70.26420483298507
 20
102.34738179996593
 10
70.01367958091737
 20
102.53142053206005
 10
69.78893997537935
 20
102.73568330064805
 10
69.58998601637099
 20
102.9601701057299
 10
69.58998601637099
 20
98.77783935879948
 10
68.133855388813
 20
98.77783935879948
  0
LWPOLYLINE
  5
7E
330
17
100
AcDbEntity
  8
line engraving
 62
1
420
16711680
100
AcDbPolyline
 90
65
 70
0
 10
69.45246256821274
 20
106.3173601637108
 10
69.46295378714393
 20
105.91629223999192
 10
69.4944274439375
 20
105.54227396508358
 10
69.54688353859345
 20
105.19530533898579
 10
69.62032207111179
 20
104.87538636169853
 10
69.7147430414925
 20
104.5825170332218
 10
69.8301464497356
 20
104.31669735355563
 10
69.96653229584106
 20
104.07792732269998
 10
70.12390057980892
 20
103.86620694065488
 10
70.296184090691
 20
103.68039860536753
 10
70.47731561753913
 20
103.51936471478516
 10
70.66729516035335
 20
103.38310526890777
 10
70.86612271913361
 20
103.27162026773536
 10
71.07379829387995
 20
103.18490971126793
 10
71.29032188459234
 20
103.12297359950549
 10
71.5156934912708
 20
103.08581193244801
 10
71.74991311391533
 20
103.07342471009552
 10
71.98824074397267
 20
103.08625433324632
 10
72.21784675829203
 20
103.1247432026987
 10
72.43873115687342
 20
103.18889131845266
 10
72.65089393971682
 20
103.27869868050821
 10
72.85433510682226
 20
103.39416528886535
 10
73.04905465818972
 20
103.53529114352406
 10
73.23505259381919
 20
103.70207624448437
 10
73.4123289137107
 20
103.89452059174627
 10
73.57443720623179
 20
104.11388818759062
 10
73.71493105975009
 20
104.36144303429829
 10
73.83381047426556
 20
104.63718513186927
 10
73.93107544977822
 20
104.94111448030358
 10
74.00672598628807
 20
105.2732310796012
 10
74.06076208379511
 20
105.63353492976213
 10
74.09318374229933
 20
106.0220260307864
 10
74.10399096180073
 20
106.43870438267398
 10
74.0934365427555
 20
106.83635950023451
 10
74.0617732856198
 20
107.20822897126538
 10
74.00900119039363
 20
107.55431279576658
 10
73.93512025707699
 20
107.8746109737381
 10
73.84013048566989
 20
108.16912350517994
 10
73.72403187617232
 20
108.43785039009212
 10
73.58682442858428
 20
108.68079162847462
 10
73.42850814290577
 20
108.89794722032745
 10
73.25552943076922
 20
109.0894435658787
 10
73.07433470380704
 20
109.25540706535645
 10
72.88492396201922
 20
109.39583771876069
 10
72.68729720540577
 20
109.51073552609144
 10
72.4814544339667
 20
109.60010048734868
 10
72.26739564770199
 20
109.66393260253244
 10
72.04512084661165
 20
109.70223187164268
 10
71.81463003069568
 20
109.71499829467943
 10
71.58540321706057
 20
109.70141027016012
 10
71.36287561551407
 20
109.66064619660219
 10
71.14704722605615
 20
109.59270607400562
 10
70.93791804868681
 20
109.49758990237044
 10
70.73548808340607
 20
109.37529768169661
 10
70.53975733021392
 20
109.22582941198418
 10
70.35072578911037
 20
109.0491850932331
 10
70.1683934600954
 20
108.84536472544342
 10
70.00059715731041
 20
108.61563231089596
 10
69.85517369489673
 20
108.36125185187163
 10
69.7321230728544
 20
108.08222334837039
 10
69.63144529118341
 20
107.77854680039226
 10
69.55314034988373
 20
107.45022220793723
 10
69.4972082489554
 20
107.09724957100532
 10
69.4636489883984
 20
106.7196288895965
 10
69.45246256821274
 20
106.3173601637108
  0
LWPOLYLINE
  5
7F
330
17
100
AcDbEntity
  8
line engraving
 62
1
420
16711680
100
AcDbPolyline
 90
128
 70
0
 10
82.95402933151423
 20
103.13005201227834
 10
82.55334060847962
 20
102.81152343750003
 10
82.1602358991302
 20
102.54355495395637
 10
81.77471520346597
 20
102.32614656164736
 10
81.39677852148695
 20
102.15929826057301
 10
81.01580823403384
 20
102.03542603704811
 10
80.62118672194738
 20
101.94694587738748
 10
80.21291398522757
 20
101.8938577815911
 10
79.7909900238744
 20
101.87616174965896
 10
79.44730780370685
 20
101.88696896916036
 10
79.12410242048934
 20
101.91939062766458
 10
78.82137387422186
 20
101.97342672517162
 10
78.53912216490441
 20
102.04907726168148
 10
78.277347292537
 20
102.14634223719413
 10
78.03604925711963
 20
102.26522165170961
 10
77.81522805865228
 20
102.4057155052279
 10
77.61488369713497
 20
102.567823797749
 10
77.43665937553283
 20
102.74674332060563
 10
77.28219829681096
 20
102.93767086513049
 10
77.15150046096937
 20
103.14060643132358
 10
77.04456586800809
 20
103.35555001918489
 10
76.96139451792709
 20
103.58250162871443
 10
76.90198641072637
 20
103.8214612599122
 10
76.86634154640593
 20
104.07242891277821
 10
76.8544599249658
 20
104.33540458731244
 10
76.8724087573541
 20
104.64407394429999
 10
76.926255254519
 20
104.93909207665419
 10
77.01599941646052
 20
105.22045898437503
 10
77.14164124317863
 20
105.48817466746252
 10
77.29635512235666
 20
105.73617191496848
 10
77.47331544167795
 20
105.95838351594477
 10
77.67252220114247
 20
106.1548094703914
 10
77.89397540075025
 20
106.32544977830835
 10
78.13388303365868
 20
106.47359084562588
 10
78.38845309302515
 20
106.60251907827424
 10
78.65768557884967
 20
106.71223447625344
 10
78.94158049113224
 20
106.80273703956347
 10
79.18325772723388
 20
106.85885874083394
 10
79.47953986186894
 20
106.9139692402797
 10
79.83042689503742
 20
106.96806853790078
 10
80.23591882673934
 20
107.02115663369716
 10
80.66226679607554
 20
107.07500313086207
 10
81.05954271295182
 20
107.13137763258871
 10
81.42774657736818
 20
107.19028013887707
 10
81.7668783893246
 20
107.25171064972717
 10
82.07693814882111
 20
107.31566916513901
 10
82.35792585585769
 20
107.38215568511258
 10
82.60984151043435
 20
107.45117020964788
 10
82.83268511255108
 20
107.52271273874491
 10
82.8362243189375
 20
107.65871938416613
 10
82.83875232349922
 20
107.76742358032062
 10
82.84026912623627
 20
107.84882532720842
 10
82.84077472714861
 20
107.9029246248295
 10
82.83432831551619
 20
108.11717301143634
 10
82.81498908061894
 20
108.3149893683919
 10
82.78275702245685
 20
108.49637369569622
 10
82.73763214102992
 20
108.66132599334928
 10
82.67961443633816
 20
108.80984626135107
 10
82.60870390838156
 20
108.9419344997016
 10
82.52490055716012
 20
109.05759070840087
 10
82.42820438267385
 20
109.15681488744887
 10
82.28018971558441
 20
109.27247109614814
 10
82.11523741793135
 20
109.37270647702084
 10
81.93334748971469
 20
109.45752103006697
 10
81.73451993093443
 20
109.52691475528653
 10
81.51875474159056
 20
109.58088765267952
 10
81.28605192168307
 20
109.61943972224594
 10
81.03641147121198
 20
109.64257096398579
 10
80.76983339017727
 20
109.65028137789908
 10
80.521393741873
 20
109.64465656774922
 10
80.28976532390425
 20
109.62778213729966
 10
80.07494813627102
 20
109.59965808655038
 10
79.87694217897331
 20
109.5602844155014
 10
79.69574745201112
 20
109.5096611241527
 10
79.53136395538446
 20
109.44778821250429
 10
79.38379168909331
 20
109.37466568055618
 10
79.2530306531377
 20
109.29029352830835
 10
79.0242462403009
 20
109.07566594101725
 10
78.82731468494192
 20
108.79177102873469
 10
78.6622359870608
 20
108.43860879146064
 10
78.52901014665748
 20
108.01617922919512
 10
77.10523797748968
 20
108.21032997953618
 10
77.21798698094295
 20
108.64539956461037
 10
77.36208324096171
 20
109.0364818703104
 10
77.53752675754596
 20
109.38357689663628
 10
77.74431753069568
 20
109.68668464358802
 10
77.99155637683313
 20
109.9516195216576
 10
78.28834411238054
 20
110.184195941337
 10
78.6346807373379
 20
110.38441390262622
 10
79.03056625170524
 20
110.55227340552527
 10
79.46791104088497
 20
110.68499364501623
 10
79.93862549027958
 20
110.7797938160812
 10
80.44270959988906
 20
110.83667391872018
 10
80.98016336971341
 20
110.85563395293318
 10
81.50447151581676
 20
110.83945472373809
 10
81.97720836886076
 20
110.79091703615282
 10
82.39837392884542
 20
110.71002089017739
 10
82.76796819577072
 20
110.59676628581177
 10
83.08902477511076
 20
110.45899003719734
 10
83.36457727233962
 20
110.30452895847547
 10
83.59462568745728
 20
110.13338304964618
 10
83.77917002046375
 20
109.94555231070945
 10
83.92882789051832
 20
109.73648633345415
 10
84.05421691678026
 20
109.50163470966919
 10
84.15533709924956
 20
109.24099743935456
 10
84.23218843792624
 20
108.95457452251026
 10
84.26404129540407
 20
108.7310989192531
 10
84.28679333645965
 20
108.43279438096866
 10
84.30044456109302
 20
108.05966090765692
 10
84.30499496930413
 20
107.6116984993179
 10
84.30499496930413
 20
105.67019099590726
 10
84.30644857192713
 20
105.18588852199333
 10
84.31080937979611
 20
104.74822773224338
 10
84.31807739291109
 20
104.3572086266574
 10
84.32825261127208
 20
104.01283120523536
 10
84.34133503487904
 20
103.7150954679773
 10
84.357324663732
 20
103.46400141488321
 10
84.37622149783095
 20
103.2595490459531
 10
84.3980255371759
 20
103.10173836118693
 10
84.45591684163958
 20
102.83553948083649
 10
84.53656018715884
 20
102.57490221052186
 10
84.63995557373372
 20
102.31982655024304
 10
84.76610300136417
 20
102.07031250000003
 10
83.24525545702583
 20
102.07031250000003
 10
83.14211287090714
 20
102.30642812606585
 10
83.05919432128232
 20
102.56175658680085
 10
82.99649980815134
 20
102.83629788220502
 10
82.95402933151423
 20
103.13005201227834
  0
LWPOLYLINE
  5
80
330
17
100
AcDbEntity
  8
line engraving
 62
1
420
16711680
100
AcDbPolyline
 90
42
 70
0
 10
82.83268511255108
 20
106.38207708049116
 10
82.62210233255875
 20
106.30269773725276
 10
82.38674510786144
 20
106.22635199948843
 10
82.12661343845916
 20
106.15303986719819
 10
81.84170732435189
 20
106.08276134038202
 10
81.53202676553964
 20
106.01551641903994
 10
81.19757176202242
 20
105.95130510317193
 10
80.83834231380021
 20
105.890127392778
 10
80.45433842087303
 20
105.83198328785815
 10
80.03822887001185
 20
105.7652439674284
 10
79.6878474377557
 20
105.6944598396999
 10
79.40319412410462
 20
105.6196309046726
 10
79.18426892905858
 20
105.54075716234655
 10
79.00882541247434
 20
105.4505073994927
 10
78.85461713420864
 20
105.34155040288202
 10
78.7216440942615
 20
105.21388617251452
 10
78.60990629263293
 20
105.0675147083902
 10
78.52142613297228
 20
104.90749201963253
 10
78.45822601892897
 20
104.73887411536496
 10
78.42030595050298
 20
104.56166099558752
 10
78.40766592769431
 20
104.37585266030017
 10
78.43522117741719
 20
104.09676095668489
 10
78.51788692658585
 20
103.84193809686224
 10
78.65566317520027
 20
103.61138408083222
 10
78.84854992326048
 20
103.40509890859485
 10
79.09452476711706
 20
103.23521700204643
 10
79.39156530312064
 20
103.11387278308325
 10
79.73967153127123
 20
103.04106625170536
 10
80.1388434515688
 20
103.01679740791272
 10
80.54787458965714
 20
103.03980224942448
 10
80.93364808577753
 20
103.10881677395979
 10
81.29616393992998
 20
103.22384098151862
 10
81.6354221521145
 20
103.38487487210098
 10
81.94131070408415
 20
103.58585123475872
 10
82.20371757759199
 20
103.82070285854368
 10
82.42264277263804
 20
104.08942974345587
 10
82.59808628922228
 20
104.39203188949526
 10
82.70072327442863
 20
104.66808998763646
 10
82.77403540671888
 20
105.00279779160985
 10
82.81802268609303
 20
105.39615530141545
 10
82.83268511255108
 20
105.84816251705324
 10
82.83268511255108
 20
106.38207708049116
  0
LWPOLYLINE
  5
81
330
17
100
AcDbEntity
  8
line engraving
 62
1
420
16711680
100
AcDbPolyline
 90
119
 70
0
 10
92.16810035811723
 20
105.21717257844477
 10
93.59996214188259
 20
105.03111144270126
 10
93.52987321540854
 20
104.6710603929965
 10
93.43690584765083
 20
104.3311069795575
 10
93.32106003860943
 20
104.01125120238427
 10
93.18233578828436
 20
103.71149306147683
 10
93.0207330966756
 20
103.43183255683516
 10
92.83625196378317
 20
103.17226968845927
 10
92.62889238960705
 20
102.93280445634915
 10
92.39865437414726
 20
102.7134368605048
 10
92.1500883256149
 20
102.5172005064003
 10
91.8877446522211
 20
102.34712899950975
 10
91.61162335396585
 20
102.20322233983312
 10
91.32172443084916
 20
102.08548052737042
 10
91.01804788287103
 20
101.99390356212166
 10
90.70059371003146
 20
101.92849144408683
 10
90.36936191233043
 20
101.88924417326592
 10
90.02435248976798
 20
101.87616174965896
 10
89.59427571370323
 20
101.8941737821613
 10
89.18581337664128
 20
101.94820987966834
 10
88.79896547858215
 20
102.03827004218007
 10
88.43373201952582
 20
102.16435426969647
 10
88.09011299947232
 20
102.32646256221759
 10
87.76810841842163
 20
102.52459491974338
 10
87.46771827637376
 20
102.75875134227387
 10
87.18894257332869
 20
103.02893182980904
 10
86.93772212000651
 20
103.33273477801525
 10
86.71999772712729
 20
103.66775858255886
 10
86.53576939469103
 20
104.03400324343987
 10
86.38503712269772
 20
104.43146876065828
 10
86.26780091114738
 20
104.86015513421408
 10
86.18406076003998
 20
105.32006236410729
 10
86.13381666937555
 20
105.81119045033789
 10
86.11706863915407
 20
106.33353939290589
 10
86.14588789115783
 20
107.00750540906381
 10
86.23234564716907
 20
107.63798974675991
 10
86.37644190718784
 20
108.22499240599423
 10
86.5781766712141
 20
108.76851338676674
 10
86.70097449280026
 20
109.02125064282596
 10
86.83881394152873
 20
109.25768226946201
 10
86.99169501739951
 20
109.47780826667487
 10
87.1596177204126
 20
109.68162863446456
 10
87.342582050568
 20
109.86914337283108
 10
87.5405880078657
 20
110.04035248177442
 10
87.75363559230571
 20
110.19525596129459
 10
87.98172480388804
 20
110.33385381139158
 10
88.4633096728981
 20
110.56213262331603
 10
88.96562417931437
 20
110.72518891754777
 10
89.48866832313685
 20
110.82302269408683
 10
90.03244210436553
 20
110.85563395293318
 10
90.37435472133987
 20
110.84457393297559
 10
90.70034090957529
 20
110.81139387310286
 10
91.01040066907179
 20
110.75609377331496
 10
91.30453399982937
 20
110.6786736336119
 10
91.58274090184806
 20
110.57913345399368
 10
91.84502137512781
 20
110.4574732344603
 10
92.09137541966865
 20
110.31369297501175
 10
92.32180303547058
 20
110.14779267564805
 10
92.53428181888421
 20
109.9615419395624
 10
92.72678936626014
 20
109.75671036994801
 10
92.8993256775984
 20
109.5332979668049
 10
93.05189075289896
 20
109.29130473013305
 10
93.18448459216184
 20
109.03073065993246
 10
93.29710719538701
 20
108.75157575620312
 10
93.38975856257453
 20
108.45384001894507
 10
93.46243869372434
 20
108.13752344815828
 10
92.04675613915407
 20
107.91910385402458
 10
91.92617032155943
 20
108.32510138663883
 10
91.7666532337141
 20
108.67750522254437
 10
91.5682048756181
 20
108.97631536174117
 10
91.33082524727139
 20
109.22153180422923
 10
91.06058155962218
 20
109.41264894909621
 10
90.7635410236186
 20
109.54916119542978
 10
90.43970363926064
 20
109.6310685432299
 10
90.08906940654833
 20
109.65837099249661
 10
89.82046892186425
 20
109.64604697025817
 10
89.564761260445
 20
109.60907490354283
 10
89.32194642229058
 20
109.54745479235059
 10
89.092024407401
 20
109.46118663668148
 10
88.87499521577625
 20
109.35027043653545
 10
88.67085884741634
 20
109.21470619191254
 10
88.47961530232128
 20
109.05449390281274
 10
88.30126458049104
 20
108.86963356923604
 10
88.14010428968058
 20
108.65810278753307
 10
88.00043203764486
 20
108.41787915405443
 10
87.88224782438385
 20
108.14896266880012
 10
87.78555164989758
 20
107.85135333177016
 10
87.71034351418604
 20
107.52505114296451
 10
87.65662341724922
 20
107.17005610238321
 10
87.62439135908713
 20
106.78636821002625
 10
87.61364733969977
 20
106.37398746589362
 10
87.62401215840288
 20
105.95598191161113
 10
87.65510661451218
 20
105.56755401070092
 10
87.7069307080277
 20
105.20870376316297
 10
87.77948443894942
 20
104.8794311689973
 10
87.87276780727736
 20
104.5797362282039
 10
87.9867808130115
 20
104.30961894078277
 10
88.12152345615185
 20
104.06907930673391
 10
88.27699573669841
 20
103.85811732605733
 10
88.4491528473524
 20
103.67420499419127
 10
88.63394998081505
 20
103.51481430657404
 10
88.83138713708637
 20
103.3799452632056
 10
89.04146431616635
 20
103.26959786408597
 10
89.264181518055
 20
103.18377210921516
 10
89.49953874275229
 20
103.12246799859314
 10
89.74753599025827
 20
103.08568553221993
 10
90.0081732605729
 20
103.07342471009552
 10
90.41922680231062
 20
103.10628876939805
 10
90.79488828018408
 20
103.20488094730561
 10
91.1351576941933
 20
103.36920124381824
 10
91.44003504433825
 20
103.5992496589359
 10
91.57705289158415
 20
103.73955391211206
 10
91.70092511510904
 20
103.89755419722034
 10
91.81165171491294
 20
104.07325051426076
 10
91.90923269099582
 20
104.26664286323332
 10
91.99366804335769
 20
104.47773124413798
 10
92.06495777199854
 20
104.70651565697479
 10
92.12310187691838
 20
104.95299610174372
 10
92.16810035811723
 20
105.21717257844477
  0
LWPOLYLINE
  5
82
330
17
100
AcDbEntity
  8
line engraving
 62
1
420
16711680
100
AcDbPolyline
 90
95
 70
0
 10
100.72691260231915
 20
104.8369606923602
 10
102.2315809174624
 20
104.65089955661668
 10
102.13311513978292
 20
104.33047497841707
 10
102.01568932789043
 20
104.02850483351811
 10
101.87930348178496
 20
103.7449891219198
 10
101.72395760146648
 20
103.47992784362214
 10
101.54965168693502
 20
103.23332099862512
 10
101.35638573819057
 20
103.00516858692875
 10
101.1441597552331
 20
102.79547060853304
 10
100.91297373806266
 20
102.60422706343796
 10
100.663965288732
 20
102.433586755521
 10
100.3982720092939
 20
102.28569848865965
 10
100.11589389974837
 20
102.16056226285389
 10
99.81683096009542
 20
102.05817807810371
 10
99.50108319033501
 20
101.97854593440914
 10
99.16865059046717
 20
101.92166583177016
 10
98.8195331604919
 20
101.88753777018675
 10
98.45373090040918
 20
101.87616174965896
 10
97.99470847211259
 20
101.8943001823894
 10
97.56008128783671
 20
101.94871548058069
 10
97.14984934758155
 20
102.03940764423285
 10
96.76401265134712
 20
102.16637667334587
 10
96.40257119913339
 20
102.32962256791976
 10
96.06552499094039
 20
102.5291453279545
 10
95.75287402676811
 20
102.76494495345011
 10
95.46461830661656
 20
103.03702144440658
 10
95.20581383960918
 20
103.34183559443748
 10
94.98151663486945
 20
103.67584819715641
 10
94.79172669239738
 20
104.03905925256333
 10
94.63644401219295
 20
104.43146876065828
 10
94.51566859425617
 20
104.85307672144124
 10
94.42940043858705
 20
105.30388313491221
 10
94.37763954518557
 20
105.78388800107119
 10
94.36038591405175
 20
106.29309131991818
 10
94.3778291455277
 20
106.81992747058325
 10
94.43015883995557
 20
107.31642756650753
 10
94.51737499733534
 20
107.78259160769102
 10
94.63947761766703
 20
108.21841959413372
 10
94.79646670095062
 20
108.62391152583564
 10
94.98834224718613
 20
108.99906740279675
 10
95.21510425637354
 20
109.34388722501708
 10
95.47675272851286
 20
109.65837099249661
 10
95.76620925083125
 20
109.93897949884894
 10
96.07639541055585
 20
110.1821735376876
 10
96.40731120768665
 20
110.38795310901264
 10
96.75895664222365
 20
110.55631821282404
 10
97.13133171416686
 20
110.68726884912178
 10
97.52443642351628
 20
110.78080501790589
 10
97.93827077027191
 20
110.83692671917635
 10
98.37283475443374
 20
110.85563395293318
 10
98.79374751396222
 20
110.83730591986061
 10
99.19494183790918
 20
110.78232182064293
 10
99.57641772627463
 20
110.69068165528013
 10
99.93817517905856
 20
110.5623854237722
 10
100.28021419626099
 20
110.39743312611914
 10
100.6025347778819
 20
110.19582476232097
 10
100.90513692392129
 20
109.95756033237767
 10
101.18802063437917
 20
109.68263983628925
 10
101.4439810962546
 20
109.37447608021405
 10
101.66581349654663
 20
109.0364818703104
 10
101.85351783525529
 20
108.6686572065783
 10
102.00709411238054
 20
108.27100208901777
 10
102.12654232792241
 20
107.84351651762879
 10
102.21186248188089
 20
107.38620049241135
 10
102.26305457425596
 20
106.89905401336547
 10
102.28011860504766
 20
106.38207708049116
 10
102.27961300413531
 20
106.30927054911326
 10
102.27809620139827
 20
106.22028478854027
 10
102.27556819683655
 20
106.1151197987722
 10
102.27202899045011
 20
105.99377557980904
 10
95.865054229195
 20
105.99377557980904
 10
95.8952638837077
 20
105.65021975986957
 10
95.94544477425809
 20
105.32739357733632
 10
96.01559690084618
 20
105.02529703220927
 10
96.10572026347194
 20
104.74393012448843
 10
96.2158148621354
 20
104.4832928541738
 10
96.34588069683655
 20
104.24338522126537
 10
96.49591776757536
 20
104.02420722576316
 10
96.66592607435189
 20
103.82575886766715
 10
96.85148160918305
 20
103.6494305494863
 10
97.04816036408586
 20
103.49661267372956
 10
97.25596233906028
 20
103.36730524039695
 10
97.47488753410633
 20
103.26150824948843
 10
97.704935949224
 20
103.17922170100404
 10
97.94610758441328
 20
103.12044559494375
 10
98.1984024396742
 20
103.08517993130758
 10
98.46182051500674
 20
103.07342471009552
 10
98.84759401112713
 20
103.09971595753754
 10
99.20404265433143
 20
103.17858969986361
 10
99.53116644461963
 20
103.3100459370737
 10
99.82896538199172
 20
103.49408466916783
 10
100.09743946644772
 20
103.73576190526947
 10
100.33658869798764
 20
104.04013365450209
 10
100.54641307661144
 20
104.40719991686565
 10
100.72691260231915
 20
104.8369606923602
  0
LWPOLYLINE
  5
83
330
17
100
AcDbEntity
  8
line engraving
 62
1
420
16711680
100
AcDbPolyline
 90
34
 70
0
 10
95.94595037517044
 20
107.1910385402456
 10
100.74309183151423
 20
107.1910385402456
 10
100.7132613776858
 20
107.45357181398153
 10
100.67230770378572
 20
107.69916745715385
 10
100.62023080981403
 20
107.92782546976257
 10
100.55703069577072
 20
108.13954585180767
 10
100.48270736165577
 20
108.33432860328917
 10
100.39726080746921
 20
108.51217372420706
 10
100.30069103321102
 20
108.67308121456134
 10
100.19299803888121
 20
108.81705107435201
 10
100.0126249134016
 20
109.01423543016715
 10
99.81935896465714
 20
109.18512853854027
 10
99.61320019264784
 20
109.32973039947137
 10
99.39414859737371
 20
109.44804101296046
 10
99.16220417883474
 20
109.54006037900753
 10
98.91736693703095
 20
109.60578849761258
 10
98.6596368719623
 20
109.6452253687756
 10
98.38901398362883
 20
109.65837099249661
 10
98.14322874011438
 20
109.64787977356542
 10
97.90742911461876
 20
109.61640611677186
 10
97.68161510714201
 20
109.5639500221159
 10
97.46578671768408
 20
109.49051148959757
 10
97.259943946245
 20
109.39609051921686
 10
97.06408679282477
 20
109.28068711097376
 10
96.87821525742338
 20
109.14430126486829
 10
96.70232934004083
 20
108.98693298090043
 10
96.54097944888825
 20
108.81199506522854
 10
96.39871599217675
 20
108.62290032401094
 10
96.27553896990634
 20
108.41964875724764
 10
96.17144838207699
 20
108.20224036493863
 10
96.08644422868873
 20
107.97067514708392
 10
96.02052650974156
 20
107.72495310368352
 10
95.97369522523546
 20
107.46507423473741
 10
95.94595037517044
 20
107.1910385402456
  0
LWPOLYLINE
  5
84
330
17
100
AcDbEntity
  8
line engraving
 62
1
420
16711680
100
AcDbPolyline
 90
35
 70
0
 10
104.04365458731232
 20
102.07031250000003
 10
104.04365458731232
 20
110.66148320259211
 10
105.3541721521145
 20
110.66148320259211
 10
105.3541721521145
 20
109.35905525238748
 10
105.60014699597109
 20
109.77718720689805
 10
105.83651542249308
 20
110.11745662090726
 10
106.0632774316805
 20
110.3798634944151
 10
106.28043302353333
 20
110.56440782742159
 10
106.49809421629851
 20
110.69181925733291
 10
106.72637302822297
 20
110.78282742155528
 10
106.9652694593067
 20
110.8374323200887
 10
107.2147835095497
 20
110.85563395293318
 10
107.58437777647501
 20
110.82630910001708
 10
107.9570056488744
 20
110.73833454126878
 10
108.33266712674786
 20
110.5917102766883
 10
108.7113622100954
 20
110.38643630627561
 10
108.20980610504766
 20
109.0354706684857
 10
107.9428488233287
 20
109.1734997175563
 10
107.67589154160973
 20
109.27209189546387
 10
107.40893425989077
 20
109.33124720220842
 10
107.14197697817181
 20
109.35096563778993
 10
106.90940055849241
 20
109.33301680540163
 10
106.68895856070932
 20
109.27917030823673
 10
106.48065098482255
 20
109.18942614629522
 10
106.2844778308321
 20
109.06378431957711
 10
106.10802311242317
 20
108.90628963538117
 10
105.95887084328095
 20
108.72098690100617
 10
105.83702102340543
 20
108.50787611645211
 10
105.74247365279663
 20
108.26695728171899
 10
105.63629746120387
 20
107.86955496461462
 10
105.56045732435189
 20
107.45395101466579
 10
105.5149532422407
 20
107.02014543187248
 10
105.4997852148703
 20
106.56813821623469
 10
105.4997852148703
 20
102.07031250000003
 10
104.04365458731232
 20
102.07031250000003
  0
ENDSEC
  0
SECTION
  2
OBJECTS
  0
DICTIONARY
  5
A
330
0
100
AcDbDictionary
281
1
  3
ACAD_COLOR
350
B
  3
ACAD_GROUP
350
C
  3
ACAD_LAYOUT
350
D
  3
ACAD_MATERIAL
350
E
  3
ACAD_MLEADERSTYLE
350
F
  3
ACAD_MLINESTYLE
350
10
  3
ACAD_PLOTSETTINGS
350
11
  3
ACAD_PLOTSTYLENAME
350
12
  3
ACAD_SCALELIST
350
14
  3
ACAD_TABLESTYLE
350
15
  3
ACAD_VISUALSTYLE
350
16
  3
EZDXF_META
350
2D
  0
DICTIONARY
  5
B
330
A
100
AcDbDictionary
281
1
  0
DICTIONARY
  5
C
330
A
100
AcDbDictionary
281
1
  0
DICTIONARY
  5
D
330
A
100
AcDbDictionary
281
1
  3
Model
350
1A
  3
Layout1
350
1E
  0
DICTIONARY
  5
E
330
A
100
AcDbDictionary
281
1
  3
ByBlock
350
1F
  3
ByLayer
350
20
  3
Global
350
21
  0
DICTIONARY
  5
F
330
A
100
AcDbDictionary
281
1
  3
Standard
350
2C
  0
DICTIONARY
  5
10
330
A
100
AcDbDictionary
281
1
  3
Standard
350
22
  0
DICTIONARY
  5
11
330
A
100
AcDbDictionary
281
1
  0
ACDBDICTIONARYWDFLT
  5
12
330
A
100
AcDbDictionary
281
1
  3
Normal
350
13
100
AcDbDictionaryWithDefault
340
13
  0
ACDBPLACEHOLDER
  5
13
330
12
  0
DICTIONARY
  5
14
330
A
100
AcDbDictionary
281
1
  0
DICTIONARY
  5
15
330
A
100
AcDbDictionary
281
1
  0
DICTIONARY
  5
16
330
A
100
AcDbDictionary
281
1
  0
LAYOUT
  5
1A
330
D
100
AcDbPlotSettings
  1

  4
A3
  6

 40
7.5
 41
20.0
 42
7.5
 43
20.0
 44
420.0
 45
297.0
 46
0.0
 47
0.0
 48
0.0
 49
0.0
140
0.0
141
0.0
142
1.0
143
1.0
 70
1024
 72
1
 73
0
 74
5
  7

 75
16
 76
0
 77
2
 78
300
147
1.0
148
0.0
149
0.0
100
AcDbLayout
  1
Model
 70
1
 71
0
 10
0.0
 20
0.0
 11
420.0
 21
297.0
 12
0.0
 22
0.0
 32
0.0
 14
1e+20
 24
1e+20
 34
1e+20
 15
-1e+20
 25
-1e+20
 35
-1e+20
146
0.0
 13
0.0
 23
0.0
 33
0.0
 16
1.0
 26
0.0
 36
0.0
 17
0.0
 27
1.0
 37
0.0
 76
1
330
17
  0
LAYOUT
  5
1E
330
D
100
AcDbPlotSettings
  1

  4
A3
  6

 40
7.5
 41
20.0
 42
7.5
 43
20.0
 44
420.0
 45
297.0
 46
0.0
 47
0.0
 48
0.0
 49
0.0
140
0.0
141
0.0
142
1.0
143
1.0
 70
0
 72
1
 73
0
 74
5
  7

 75
16
 76
0
 77
2
 78
300
147
1.0
148
0.0
149
0.0
100
AcDbLayout
  1
Layout1
 70
1
 71
1
 10
0.0
 20
0.0
 11
420.0
 21
297.0
 12
0.0
 22
0.0
 32
0.0
 14
1e+20
 24
1e+20
 34
1e+20
 15
-1e+20
 25
-1e+20
 35
-1e+20
146
0.0
 13
0.0
 23
0.0
 33
0.0
 16
1.0
 26
0.0
 36
0.0
 17
0.0
 27
1.0
 37
0.0
 76
1
330
1B
  0
MATERIAL
  5
1F
102
{ACAD_REACTORS
330
E
102
}
330
E
100
AcDbMaterial
  1
ByBlock
  2

 70
0
 40
1.0
 71
1
 41
1.0
 91
-1023410177
 42
1.0
 72
1
  3

 73
1
 74
1
 75
1
 44
0.5
 73
0
 45
1.0
 46
1.0
 77
1
  4

 78
1
 79
1
170
1
 48
1.0
171
1
  6

172
1
173
1
174
1
140
1.0
141
1.0
175
1
  7

176
1
177
1
178
1
143
1.0
179
1
  8

270
1
271
1
272
1
145
1.0
146
1.0
273
1
  9

274
1
275
1
276
1
 42
1.0
 72
1
  3

 73
1
 74
1
 75
1
 94
63
  0
MATERIAL
  5
20
102
{ACAD_REACTORS
330
E
102
}
330
E
100
AcDbMaterial
  1
ByLayer
  2

 70
0
 40
1.0
 71
1
 41
1.0
 91
-1023410177
 42
1.0
 72
1
  3

 73
1
 74
1
 75
1
 44
0.5
 73
0
 45
1.0
 46
1.0
 77
1
  4

 78
1
 79
1
170
1
 48
1.0
171
1
  6

172
1
173
1
174
1
140
1.0
141
1.0
175
1
  7

176
1
177
1
178
1
143
1.0
179
1
  8

270
1
271
1
272
1
145
1.0
146
1.0
273
1
  9

274
1
275
1
276
1
 42
1.0
 72
1
  3

 73
1
 74
1
 75
1
 94
63
  0
MATERIAL
  5
21
102
{ACAD_REACTORS
330
E
102
}
330
E
100
AcDbMaterial
  1
Global
  2

 70
0
 40
1.0
 71
1
 41
1.0
 91
-1023410177
 42
1.0
 72
1
  3

 73
1
 74
1
 75
1
 44
0.5
 73
0
 45
1.0
 46
1.0
 77
1
  4

 78
1
 79
1
170
1
 48
1.0
171
1
  6

172
1
173
1
174
1
140
1.0
141
1.0
175
1
  7

176
1
177
1
178
1
143
1.0
179
1
  8

270
1
271
1
272
1
145
1.0
146
1.0
273
1
  9

274
1
275
1
276
1
 42
1.0
 72
1
  3

 73
1
 74
1
 75
1
 94
63
  0
MLINESTYLE
  5
22
102
{ACAD_REACTORS
330
10
102
}
330
10
100
AcDbMlineStyle
  2
Standard
 70
0
  3

 62
256
 51
90.0
 52
90.0
 71
2
 49
0.5
 62
256
  6
BYLAYER
 49
-0.5
 62
256
  6
BYLAYER
  0
MLEADERSTYLE
  5
2C
102
{ACAD_REACTORS
330
F
102
}
330
F
100
AcDbMLeaderStyle
179
2
170
2
171
1
172
0
 90
2
 40
0.0
 41
0.0
173
1
 91
-1056964608
 92
-2
290
1
 42
2.0
291
1
 43
8.0
  3
Standard
 44
4.0
300

342
29
174
1
175
1
176
0
178
1
 93
-1056964608
 45
4.0
292
0
297
0
 46
4.0
 94
-1056964608
 47
1.0
 49
1.0
140
1.0
294
1
141
0.0
177
0
142
1.0
295
0
296
0
143
3.75
271
0
272
9
273
9
  0
DICTIONARY
  5
2D
330
A
100
AcDbDictionary
280
1
281
1
  3
CREATED_BY_EZDXF
350
2E
  3
WRITTEN_BY_EZDXF
350
87
  0
DICTIONARYVAR
  5
2E
330
2D
100
DictionaryVariables
280
0
  1
1.4.4 @ 2026-08-07T22:45:01.040183+00:00
  0
DICTIONARYVAR
  5
87
330
2D
100
DictionaryVariables
280
0
  1
1.4.4 @ 2026-08-07T22:45:01.125790+00:00
  0
ENDSEC
  0
EOF
